<?xml version="1.0" encoding="UTF-8"?><svg id="Layer_1" xmlns="http://www.w3.org/2000/svg" xmlns:xlink="http://www.w3.org/1999/xlink" viewBox="0 0 565.02 478.29"><defs><style>.cls-1{stroke-width:8px;}.cls-1,.cls-2{stroke:#3d8d99;}.cls-1,.cls-2,.cls-3,.cls-4{fill:none;}.cls-1,.cls-2,.cls-4{stroke-linecap:round;stroke-miterlimit:10;}.cls-5{fill:#dbf0ff;}.cls-6{fill:#3d8d99;}.cls-7{fill:#6cb6d6;}.cls-8{fill:#00c3ad;}.cls-2{stroke-width:7px;}.cls-9{fill:#aee4fb;}.cls-10{clip-path:url(#clippath);}.cls-4{stroke:#f3756b;stroke-width:12px;}.cls-11{fill:#8ccfeb;}.cls-12{fill:#d0dce8;}.cls-13{fill:#f59288;}</style><clipPath id="clippath"><path class="cls-3" d="M99.23,192.06v244.09c0,6.49,5.26,11.74,11.74,11.74H408.88c9.62,0,18.77-4.11,25.17-11.29l33.72-37.89c3.71-4.17,5.77-9.57,5.77-15.15V165l-214.47-88.34L99.23,192.06Z"/></clipPath></defs><path class="cls-12" d="M219.49,97c-16.67-20.52-53.49-32.05-69.94-48.25-11.63-11.85-20.57-38.01-27.73-37.79s-16.77,50.53,0,79.38,34.88,72.67,76.92,64.4c43.48-8.81,29.01-50.5,20.75-57.73Z"/><path class="cls-7" d="M103.95,269.99s-8.72-4.25-14.42-10.4-9.95-18.34-22.47-17.78-41.73,12.27-39.47,26.16c1.57,9.59,18.67,10.06,18.67,10.06,0,0-8.65,17.73-3.58,23.42,5.93,6.65,31.3,.84,31.3,.84,0,0,1.34,23.27,13.08,23.09s18.89-25.56,18.89-25.56l-2.01-29.85Z"/><path class="cls-9" d="M99.23,192.06v244.09c0,6.49,5.26,11.74,11.74,11.74H408.88c9.62,0,18.77-4.11,25.17-11.29l33.72-37.89c3.71-4.17,5.77-9.57,5.77-15.15V165l-214.47-88.34L99.23,192.06Z"/><g class="cls-10"><path class="cls-11" d="M428.08,199.72v232.86c0,3.02-.66,6.01-1.95,8.75l-12.86,27.5,98.04-60.77-11.23-264-72,55.66Z"/></g><path class="cls-5" d="M313.57,29.07l-171.47,110.05c-4.05,2.6-7.77,5.68-11.08,9.18l-40.47,45.66c-.95,1-1.35,2.39-1.09,3.74l1,5.18c.56,2.9,3.82,4.37,6.36,2.87l169.15-103.3,152.94,115.58c4.41,3.25,10.53,2.82,14.46-1.01l52.9-54.35c3.28-3.37,2.87-8.86-.87-11.71L325.75,29.56c-3.57-2.67-8.42-2.87-12.19-.49Z"/><path class="cls-13" d="M134.98,325.85c4.86,1.49,22.47-.38,26.64-15.49,2.04-7.4-3.31-12.44-8-13.7-5.7-1.53-13.28,3.15-13.28,3.15,0,0-2.47-7.22-10.13-7.74-6.21-.43-9.28,4-10.04,9.02-1.28,8.36,2.3,20.94,14.81,24.77Z"/><path class="cls-13" d="M386.76,325.85c-4.86,1.49-22.47-.38-26.64-15.49-2.04-7.4,3.31-12.44,8-13.7,5.7-1.53,13.28,3.15,13.28,3.15,0,0,2.47-7.22,10.13-7.74,6.21-.43,9.28,4,10.04,9.02,1.28,8.36-2.3,20.94-14.81,24.77Z"/><path class="cls-13" d="M225.87,343.89c.68,.34-3.06,59.4,34.38,59.4,24.68,0,22.81-25.02,22.64-34.21s2.72-27.57,8-28.09l-31.32-9.36-33.7,12.26Z"/><path class="cls-4" d="M256.51,334.02s-4.26,27.74-1.36,42.89"/><path class="cls-1" d="M222.81,291.19s-6.51,9.64-24.89,12.64c-16.16,2.64-16.34,8.04-16.21,11.81,.3,8.96,15.83,30.38,38.04,28.09s28.21-13.79,41.74-13.02,16.72,9.19,32.04,8.43,29.36-15.57,29.36-26.3"/><line class="cls-2" x1="203.85" y1="320.42" x2="211" y2="325.66"/><line class="cls-2" x1="288.36" y1="325.4" x2="298.44" y2="315.13"/><circle class="cls-6" cx="170.55" cy="281.42" r="14.13"/><circle class="cls-6" cx="345.54" cy="281.42" r="14.13"/><path class="cls-7" d="M445.91,298.1s20.27-2.98,37.86-17.89,26.83-29.22,26.83-29.22c0,0,4.17-10.14,17.59-7.45s43.53,14.45,35.48,27.05-19.38,7.99-19.38,7.99c0,0,9.84,20.12,3.28,24.74s-31.6,0-31.6,0c0,0,.3,22.19-9.24,23.09s-16.99-7.45-16.99-7.45c0,0-3.58,10.18-9.84,9.86s-34.51-16.31-36.97-20.3c-4.55-8.16,2.98-10.43,2.98-10.43Z"/><path class="cls-12" d="M363.86,86.04c16.67-20.52,53.49-32.05,69.94-48.25C445.43,25.94,454.37-.22,461.52,0s16.77,50.53,0,79.38-34.88,72.67-76.92,64.4c-43.48-8.81-29.01-50.5-20.75-57.73Z"/><path class="cls-8" d="M16.09,478.29c-4.42,0-8.69-1.85-11.53-5.24-3.66-4.36-6.66-11.81-2.65-23.72,6.86-20.39,28.73-15.54,28.73-15.54,0,0-.56-25.49,25.27-31.08,28.72-6.22,37.45,11.07,37.45,11.07,0,0,17.22-13.42,34.32-7.38,21.01,7.41,21.91,28.51,21.91,28.51,0,0,32.09-2.8,32.09,26.72,0,7.21-3.69,11.38-7.38,13.74-3.1,1.99-6.76,2.92-10.44,2.92H16.09Z"/></svg>