<svg version="1.1" id="Layer_1" xmlns="http://www.w3.org/2000/svg" x="0" y="0" viewBox="0 0 99.2 96.7" style="enable-background:new 0 0 99.2 96.7" xml:space="preserve"><style>.st4{fill:#e2d6d4}</style><path d="M17.3 11.1C26.9-1 37.4-3.5 39.6 5c12.1-3.6 17.2 4.9 8.1 10.5L34 17l-.8-6-12.1 7-3.8-6.9z" style="fill:#fa8b85"/><path d="M5 32.4C5 18.8 16 7.7 29.7 7.7c13.6 0 24.7 11 24.7 24.7 0 1.6-.2 3.1-.4 4.6 16.3 8.2 39.3 18.8 39.3 18.8 10.5 5.4 5.5 18.3-6.7 27.8C57.8 107.7 7 99.5 14.8 52.1 8.8 47.6 5 40.4 5 32.4z" style="fill:#fff"/><ellipse cx="28.6" cy="25.9" rx="3.1" ry="4.6" style="fill:#c08475"/><path d="M14 32.4c0-6.2-6.9-6.6-11.3-3.5S-.4 35.5 4.5 37s9.5 0 9.5-4.6z" style="fill:#facf8b"/><path class="st4" d="M97 60.7c2.8 0 3.1 3.1.1 3.2-3.1.1-4.3 0-4.3 0-2.4 0-2.8-3.2-.3-3.2H97zM97 66.9c2.8 0 3.1 3.1.1 3.2-3.1.1-4.3 0-4.3 0-2.4 0-2.8-3.2-.3-3.2H97zM29.7 57.2c2.1 5.3 8.1 13.5 15.3 16.4 7.2 2.9 8.5.9 6.1-2.2-2.4-3.1.1-5.7 3.3-1.9 3.2 3.8 18.1 5.6 19.5 1.9 1.4-3.6-2.8-5.1-5.1-6.4-2.3-1.2-1.1-5.2 3.2-2.7 4.3 2.6 7.2-.8 5.3-3.7-1.9-2.9 2-5.2 3.8-1.4s.9 8.3-3.1 9c3.2 9.9-7.9 14.8-22.1 9.6-.3 4.9-9.6 3.7-15.5 0S28.1 64.5 26.2 60.5s1.6-7.1 3.5-3.3z"/></svg>