<svg id="Layer_1" data-name="Layer 1" xmlns="http://www.w3.org/2000/svg" viewBox="0 0 86.06 79.5"><defs><style>.cls-3{fill:none;stroke-miterlimit:10;stroke:#c51d00;stroke-linecap:round;stroke-width:2px}</style></defs><path d="M40.49 100.82C101 97.18 102.73 4.25 51.77 33.45c.06-4.25-2.84-12-11-12.08C33.5 21.33 29.14 31.44 30.32 36c-43.61-27.2-34.16 67.47 10.17 64.82Z" transform="translate(-2.02 -21.37)" style="fill:#ff0014"/><path d="M44.77 94.15c33.78-3 44.79-73.63 2.71-40.61 0 0-2.25-5-6.67-5.19s-6.54 6.09-6.54 6.09C5.51 32.09 4.65 98.41 44.77 94.15Z" transform="translate(-2.02 -21.37)" style="fill:#f7ec7f"/><path class="cls-3" d="m27.96 45.39 4.75 3.2M30.55 53.22l.17-5.17M49.2 44.5l-7.1 3.59M44.13 54.03l-.08-6.76"/><path d="M38.19 80.94c.17 1.16 3.63 3.45 4.8 3.55 2 0 2.47-3.66 2.47-3.66Z" transform="translate(-2.02 -21.37)" style="fill:#c51d00;stroke-linejoin:round;stroke:#c51d00;stroke-linecap:round;stroke-width:2px"/></svg>