<svg version="1.1" id="Layer_1" xmlns="http://www.w3.org/2000/svg" x="0" y="0" viewBox="0 0 511.9 350" style="enable-background:new 0 0 511.9 350" xml:space="preserve"><style>.st0{fill:#e9d1ad}</style><path class="st0" d="M249.3 127.8c42.8-45 66.1-83.8 56.8-106.9s-36.4-29.1-69.9-7.3-57.4 46.7-62.4 52.7-8.3 15.8 3.6 21.6c.8 7.3 6.5 11.7 14.7 11.9 1.8 8.5 10.5 10.3 14.9 9.7 1.8 8.5 7.3 13.5 18.2 12.3.7 9.6 13.9 17 24.1 6zM204.3 163.9c7.5 6.3 16.2 3 22-5.1 5.7-8.1 6.9-17.4 0-20.8-6.9-3.4-16.2 2.6-20.6 9.1s-6.1 12.2-1.4 16.8zM190.9 131.4c-11.5 10.1-3.6 27.5 12.1 12.7 10.7-10.8 3.1-26.2-12.1-12.7zM173.6 119.1c-7.9 10.7.2 17.6 10.3 12.3 6.5-3.4 11.1-11.1 6.1-16.6-4.9-5.6-14.3.9-16.4 4.3zM160.6 99.9c-13.3 9.7-.9 24.8 12.1 11.7 10.3-10.5 1.1-21.4-12.1-11.7zM151.5 83.5c-11.6 7.8.8 16.8 8.5 10.7 9.3-7.2 4.7-19.6-8.5-10.7zM382.3 76.4c48.4-38.8 89.1-58.8 111.4-47.6s25.9 38.8 1.4 70.3-51.4 53.3-57.8 57.7c-6.3 4.4-16.5 6.9-21.2-5.4-7.2-1.4-11.1-7.5-10.6-15.6-8.3-2.5-9.4-11.3-8.4-15.6-8.3-2.5-12.8-8.4-10.7-19.2-9.7-1.6-16-15.4-4.1-24.6zM342.5 118.2c-5.7-8-1.6-16.4 7-21.5 8.6-5 18-5.4 20.7 1.8 2.8 7.2-3.9 16-10.8 19.8s-12.7 5-16.9-.1zM373.8 134.3c-11 10.6-27.7 1.2-11.6-13.1 11.6-9.7 26.3-.9 11.6 13.1zM384.6 152.5c-11.3 7-17.5-1.7-11.4-11.3 3.9-6.2 12-10.1 17.1-4.7 5.1 5.4-2.2 14.3-5.7 16zM402.6 167.2c-10.8 12.4-24.8-1.2-10.6-13 11.3-9.4 21.4.6 10.6 13zM418.2 177.6c-8.7 10.9-16.7-2.2-9.9-9.4 7.9-8.6 19.9-3 9.9 9.4zM200.5 257.7c34.8-51.4 67.7-82.5 92.4-78.3 24.6 4.2 36.2 29.4 22.1 66.7s-33.4 66.1-38.2 72.2-13.7 11.5-21.8 1.1c-7.3.8-12.8-3.9-14.7-11.8-8.7.1-12.3-8.1-12.6-12.4-8.7.1-14.7-4.3-15.9-15.2-9.8 1.3-19.9-10-11.3-22.3zM174.8 309.3c-7.8-6-6.4-15.2.3-22.6 6.7-7.3 15.5-10.5 20.3-4.4 4.8 6.1.9 16.4-4.5 22.1-5.4 5.6-10.6 8.6-16.1 4.9zM209.4 315.5c-7.4 13.4-26.1 9.4-15-9.1 8.3-12.7 24.9-8.6 15 9.1zM225.1 329.8c-8.8 10-17.3 3.6-14.2-7.4 1.9-7.1 8.5-13.2 14.9-9.5s2.2 14.1-.7 16.9zM246.7 338.4c-6.7 15-24 6.2-14-9.3 8-12.3 20.6-5.7 14 9.3zM264.7 343.8c-5.1 13-16.6 2.8-12.3-6 5-10.6 18.1-8.8 12.3 6zM104.4 306.1c40.3-47.2 61.6-87.2 51-109.8s-37.9-27.1-70.2-3.6-54.8 49.8-59.5 55.9-7.5 16.3 4.7 21.4c1.2 7.3 7.2 11.3 15.3 11.1 2.2 8.4 11 9.7 15.4 8.9 2.2 8.4 8 13.1 18.9 11.3 1.3 9.7 14.9 16.4 24.4 4.8zM61.5 344.6c7.9 5.9 16.4 2.1 21.7-6.3s6-17.8-1.1-20.8S66 320.9 62 327.7s-5.5 12.6-.5 16.9zM46.3 312.8c-10.9 10.7-2.1 27.7 12.7 12 10.1-11.3 1.8-26.2-12.7-12zM28.4 301.5c-7.3 11.1 1.1 17.6 10.9 11.7 6.3-3.7 10.5-11.7 5.2-16.9-5.1-5.3-14.2 1.7-16.1 5.2zM14.3 283c-12.7 10.4.4 24.8 12.7 11 9.8-11 .1-21.4-12.7-11zM4.4 267.1c-11.1 8.4 1.7 16.8 9.1 10.2 8.9-7.6 3.6-19.8-9.1-10.2z"/></svg>