<svg data-name="Layer 1" xmlns="http://www.w3.org/2000/svg" viewBox="0 0 241.08 242.87"><path d="M289.73 333.82s24-30.33 50.16-39.16 31.33 2.83 29.83 6.67-6 7.5-6 7.5 6.66 2.83 5.16 7.16-13.16 9.83-13.16 9.83 32.83.17 50.32 14.5-2.49 18.5-5.33 18.83a75.07 75.07 0 0 1-9 0s1 7.83-5.66 10.5-20.17.33-20.17.33.07 6.37-5.09 8.67c-12.74 5.67-29.9-5.83-29.9-5.83s-9 5-18.33 3.16-19.17-12.66-19.17-12.66-4.83 2.5-8.5 1.5a8.07 8.07 0 0 1-5-3.67s-14.83 5.83-21.33 4-5.66-8.66-5.66-8.66-20.5.83-26.66-9.17c-3.1-5-.34-10.33-.34-10.33s-24 2.5-34-7.5c-7.44-7.44.33-15.5.33-15.5s-20.66-4.66-20.16-16.83 28.83-14.33 41.82-10A222.39 222.39 0 0 1 236.4 296s-4.5-11.33 3.83-16.33 27.5 8 37.16 23.83c8.09 13.23 12.34 30.32 12.34 30.32Z" transform="translate(-172.07 -278.58)" style="fill:#cae2be"/><path d="M284.35 344.22c2.18-1.58 9-.93 7.16 3.74a245.47 245.47 0 0 0-21.77 76c-5 42.68-5 94.7-5 94.7s-7.87 6.64-12.46-.62c-3.74-5.92-1.43-80.19 8.41-119.06 8.47-33.51 23.66-54.76 23.66-54.76Z" transform="translate(-172.07 -278.58)" style="fill:#9cc993"/></svg>