<svg id="Layer_1" data-name="Layer 1" xmlns="http://www.w3.org/2000/svg" viewBox="0 0 3300 128.92"><defs><style>.cls-1{fill:#bf9177}.cls-2{fill:#d0dbeb}</style></defs><path class="cls-1" d="M1850.38 361H1835a3.17 3.17 0 0 0-2.86 1.8l-59.44 125.3a1.28 1.28 0 0 0 1.16 1.82h16.24a2.64 2.64 0 0 0 2.38-1.51l59.34-125.08a1.63 1.63 0 0 0-1.44-2.33ZM1717.67 361h-15.34a3.16 3.16 0 0 0-2.86 1.8L1640 488.05a1.27 1.27 0 0 0 1.15 1.82h16.24a2.65 2.65 0 0 0 2.39-1.51l59.33-125.08a1.63 1.63 0 0 0-1.44-2.28ZM1581.83 361h-15.34a3.16 3.16 0 0 0-2.86 1.8l-59.44 125.3a1.27 1.27 0 0 0 1.15 1.82h16.25a2.65 2.65 0 0 0 2.38-1.51l59.33-125.08a1.63 1.63 0 0 0-1.47-2.33ZM1445.86 361h-15.35a3.15 3.15 0 0 0-2.85 1.8l-59.44 125.3a1.27 1.27 0 0 0 1.15 1.82h16.24a2.63 2.63 0 0 0 2.38-1.51l59.34-125.08a1.63 1.63 0 0 0-1.47-2.33ZM1331 361h-15.34a3.17 3.17 0 0 0-2.86 1.8l-59.43 125.3a1.27 1.27 0 0 0 1.15 1.82h16.24a2.64 2.64 0 0 0 2.38-1.51l59.34-125.08A1.63 1.63 0 0 0 1331 361ZM1195.29 361H1180a3.17 3.17 0 0 0-2.86 1.8l-59.44 125.3a1.28 1.28 0 0 0 1.16 1.82h16.24a2.64 2.64 0 0 0 2.38-1.51l59.34-125.08a1.63 1.63 0 0 0-1.53-2.33ZM1058 361h-15.34a3.17 3.17 0 0 0-2.86 1.8l-59.43 125.3a1.27 1.27 0 0 0 1.15 1.82h16.24a2.64 2.64 0 0 0 2.38-1.51l59.34-125.08A1.63 1.63 0 0 0 1058 361ZM930 361h-15.39a3.15 3.15 0 0 0-2.86 1.8l-59.44 125.3a1.27 1.27 0 0 0 1.15 1.82h16.24a2.65 2.65 0 0 0 2.39-1.51l59.33-125.08A1.63 1.63 0 0 0 930 361ZM796.36 361H781a3.15 3.15 0 0 0-2.85 1.8l-59.44 125.3a1.27 1.27 0 0 0 1.15 1.82h16.24a2.63 2.63 0 0 0 2.38-1.51l59.34-125.08a1.63 1.63 0 0 0-1.46-2.33ZM662.84 361H647.5a3.15 3.15 0 0 0-2.86 1.8L585.2 488.05a1.27 1.27 0 0 0 1.15 1.82h16.24a2.65 2.65 0 0 0 2.39-1.51l59.33-125.08a1.63 1.63 0 0 0-1.47-2.28ZM527.31 361H512a3.16 3.16 0 0 0-2.86 1.8L449.7 488.1a1.28 1.28 0 0 0 1.16 1.82h16.24a2.65 2.65 0 0 0 2.38-1.51l59.34-125.08a1.63 1.63 0 0 0-1.51-2.33ZM393.46 361h-15.34a3.17 3.17 0 0 0-2.86 1.8l-59.44 125.3a1.28 1.28 0 0 0 1.16 1.82h16.24a2.64 2.64 0 0 0 2.38-1.51l59.34-125.08a1.63 1.63 0 0 0-1.48-2.33ZM277.68 361h-15.34a3.16 3.16 0 0 0-2.86 1.8L200 488.05a1.28 1.28 0 0 0 1.16 1.82h16.24a2.64 2.64 0 0 0 2.38-1.51l59.34-125.08a1.63 1.63 0 0 0-1.44-2.28ZM143.7 361h-15.34a3.17 3.17 0 0 0-2.86 1.8L66.07 488.05a1.27 1.27 0 0 0 1.15 1.82h16.24a2.63 2.63 0 0 0 2.38-1.51l59.34-125.08a1.63 1.63 0 0 0-1.48-2.28ZM5.68 361H-9.66a3.15 3.15 0 0 0-2.86 1.8L-72 488.05a1.27 1.27 0 0 0 1.15 1.82h16.24a2.65 2.65 0 0 0 2.39-1.51L7.15 363.28A1.63 1.63 0 0 0 5.68 361ZM-125.5 361h-15.34a3.15 3.15 0 0 0-2.86 1.8l-59.44 125.3a1.27 1.27 0 0 0 1.15 1.82h16.24a2.65 2.65 0 0 0 2.39-1.51L-124 363.28a1.63 1.63 0 0 0-1.5-2.28ZM-261.72 361h-15.35a3.15 3.15 0 0 0-2.85 1.8l-59.44 125.3a1.27 1.27 0 0 0 1.15 1.82H-322a2.63 2.63 0 0 0 2.38-1.51l59.34-125.08a1.63 1.63 0 0 0-1.44-2.33ZM-393.24 361h-15.34a3.17 3.17 0 0 0-2.86 1.8l-59.43 125.3a1.27 1.27 0 0 0 1.15 1.82h16.24a2.64 2.64 0 0 0 2.38-1.51l59.34-125.08a1.63 1.63 0 0 0-1.48-2.33ZM-532.36 361h-15.34a3.15 3.15 0 0 0-2.86 1.8L-610 488.05a1.27 1.27 0 0 0 1.15 1.82h16.24a2.65 2.65 0 0 0 2.39-1.51l59.33-125.08a1.63 1.63 0 0 0-1.47-2.28ZM-664.21 361h-15.34a3.17 3.17 0 0 0-2.86 1.8l-59.43 125.3a1.27 1.27 0 0 0 1.15 1.82h16.24a2.64 2.64 0 0 0 2.38-1.51l59.34-125.08a1.63 1.63 0 0 0-1.48-2.33ZM-779.7 361H-795a3.16 3.16 0 0 0-2.86 1.8l-59.44 125.3a1.27 1.27 0 0 0 1.15 1.82h16.25a2.65 2.65 0 0 0 2.38-1.51l59.33-125.08a1.63 1.63 0 0 0-1.51-2.33ZM-914.49 361h-15.34a3.15 3.15 0 0 0-2.86 1.8l-59.44 125.3a1.27 1.27 0 0 0 1.15 1.82h16.24a2.65 2.65 0 0 0 2.39-1.51L-913 363.28a1.63 1.63 0 0 0-1.49-2.28ZM-1050 361h-15.34a3.17 3.17 0 0 0-2.86 1.8l-59.43 125.3a1.27 1.27 0 0 0 1.15 1.82h16.24a2.63 2.63 0 0 0 2.38-1.51l59.34-125.08A1.63 1.63 0 0 0-1050 361ZM-1183.94 361h-15.34a3.17 3.17 0 0 0-2.86 1.8l-59.43 125.3a1.27 1.27 0 0 0 1.15 1.82h16.24a2.63 2.63 0 0 0 2.38-1.51l59.34-125.08a1.63 1.63 0 0 0-1.48-2.33Z" transform="translate(1378.73 -360.95)"/><path class="cls-2" d="M0 19.92h3300v13H0zM0 101.48h3300v13H0z"/><path class="cls-1" d="m1921.27 456.48-15 31.57a1.27 1.27 0 0 0 1.15 1.82h13.82ZM-1318.24 361h-15.34a3.15 3.15 0 0 0-2.86 1.8l-42.29 89.14v38h.24a2.65 2.65 0 0 0 2.39-1.51l59.33-125.08a1.63 1.63 0 0 0-1.47-2.35Z" transform="translate(1378.73 -360.95)"/></svg>