<svg data-name="Layer 1" xmlns="http://www.w3.org/2000/svg" viewBox="0 0 226.31 260.86"><path d="M344.52 460.62s14.46 1.74 24.82-7S380 434.28 380 434.28s21-3.41 26.31-19.36-1.36-26.59-1.36-26.59a30 30 0 0 0 1.61-26.33c-6-14.45-18.27-17.73-18.27-17.73s1.37-12.13-6.4-21a26.47 26.47 0 0 0-17.59-9.14s.68-13.49-7.23-21.4-21.81-6.14-21.81-6.14a30.62 30.62 0 0 0-22.91-15.13c-16.22-1.91-24.81 8.18-24.81 8.18s-15.82-13.36-36.4 1.23c-18.65 13.21-17.59 29-17.59 29s-21.41 5.18-29.59 20.31 1.77 28.5 1.77 28.5-23.17 12-23.17 39.26 37.76 31.91 37.76 31.91-3.13 19.49 8.86 28.9 29.18-.55 29.18-.55 4.64 14.59 18.41 17.59 24-9.41 24-9.41 9.41 9.44 26.59 7c11.31-1.61 17.16-12.76 17.16-12.76Z" transform="translate(-182.56 -271.25)" style="fill:#f8c6d9"/><path d="M372.38 389.05c-2.18-3-12.34-2.08-19.42-1 5-5.57 9.32-10.5 10.88-12.48 4.37-5.58 9.73-12.72 7.64-16.29-2-3.38-13.24 4-19.93 9.82-4.88 4.22-30.23 32.63-43.68 47.79-.34-32-.84-67-1.85-70.85-1.64-6.25-3.39-7.85-5.36-7.15-4.34 1.57-6.4 10.12-7.29 21.13-.72 8.89-1.05 68-1.15 94.47-4.32-6.07-11.17-15.19-17.75-21.86l-8.25-8.41a56.21 56.21 0 0 0 .07-9.3c-.74-8.92-4.91-18.89-11-19.49-4.37-.42-3.17 9.15-2 15.71-5.08-5.09-9.44-9.34-11.72-11.24-5.35-4.47-11.9-5.66-8.92 2.53s22.46 26.48 30.05 34.37c5.89 6.11 21.26 21.36 29.46 29.91 0 7.46 1 57.13 1.93 61.29s11.16 5.66 11.91 2.09 2.83-40.92 2.38-65.47c-.11-6.21-.22-16.45-.34-28.4 8.79-9.57 22.63-24.59 28.31-30.37.89-.9 1.85-1.9 2.86-2.95 5.18.3 11.77.18 17.52-1.52 11.63-3.38 19.07-7.57 15.65-12.33Z" transform="translate(-182.56 -271.25)" style="fill:#d68aa3"/></svg>