<svg xmlns="http://www.w3.org/2000/svg" viewBox="0 0 711.07 638.21"><defs><clipPath id="clip-path" transform="translate(-5.84 -81.52)"><path id="Base" d="M19.93 643.15H564.5L707.2 554l2.24-304.49-700.37 4.88V633s.37 10.15 10.86 10.15z" fill="none"/></clipPath><style>.cls-1{fill:#fbf1e5}.cls-11,.cls-14,.cls-16,.cls-17,.cls-6,.cls-9{fill:none}.cls-6{stroke:#f9fefa}.cls-14,.cls-16,.cls-17,.cls-6,.cls-9{stroke-linecap:round}.cls-11,.cls-16,.cls-6,.cls-9{stroke-miterlimit:10}.cls-11,.cls-6,.cls-9{stroke-width:6px}.cls-17,.cls-9{stroke:#e7c28b}.cls-11{stroke:#f36e73}.cls-14,.cls-17{stroke-linejoin:round}.cls-16{stroke-width:7px}.cls-13{fill:#f36e73}.cls-14{stroke:#d6474b;stroke-width:5px}.cls-16{stroke:#ba8166}.cls-17{stroke-width:2px}</style><mask id="mask" x="590.93" y="232.23" width="100.29" height="239.2" maskUnits="userSpaceOnUse"><g transform="translate(-5.84 -81.52)"><path id="Window_2" data-name="Window 2" class="cls-1" d="m599.44 362.29 85.45-45.53a5 5 0 0 1 7.41 4.39l1.76 180.06a5 5 0 0 1-2.66 4.49l-83.53 46.66a5 5 0 0 1-7.41-4.34l-3.69-181.18a5 5 0 0 1 2.67-4.55z"/></g></mask></defs><g id="Shop"><path id="Base-2" data-name="Base" d="M19.93 643.15H564.5L707.2 554l2.24-304.49-700.37 4.88V633s.37 10.15 10.86 10.15z" transform="translate(-5.84 -81.52)" fill="#fae6b3"/><g clip-path="url(#clip-path)"><path id="Shadow" fill="#f0d495" d="M570.78 164.71h140.28v402.92H570.78z"/></g><rect id="Window_L" data-name="Window L" class="cls-1" x="37.31" y="278.11" width="334.83" height="229.96" rx="13.11"/><path id="Window_2-2" data-name="Window 2" class="cls-1" d="m599.44 362.29 85.45-45.53a5 5 0 0 1 7.41 4.39l1.76 180.06a5 5 0 0 1-2.66 4.49l-83.53 46.66a5 5 0 0 1-7.41-4.34l-3.69-181.18a5 5 0 0 1 2.67-4.55z" transform="translate(-5.84 -81.52)"/><path id="Reflect_7" data-name="Reflect 7" class="cls-6" d="m39.35 314.06 38.02-31.83"/><path id="Reflect_6" data-name="Reflect 6" class="cls-6" d="m37.57 345.82 83.62-63.59"/><path id="Reflect_5" data-name="Reflect 5" class="cls-6" d="m357.91 398.14-126.26 99.7"/><path id="Reflect_4" data-name="Reflect 4" class="cls-6" d="m358.21 453.59-66.63 54.56"/><g mask="url(#mask)"><path id="Reflect_3" data-name="Reflect 3" class="cls-6" d="m594.34 368.18 84.71-132.95"/><path id="Reflect_2" data-name="Reflect 2" class="cls-6" d="m594.34 323.9 37.11-59.92"/><path id="Reflect_1" data-name="Reflect 1" class="cls-6" d="m629.22 453.59 57.15-85.41"/><path id="Reflect_8" data-name="Reflect 8" class="cls-6" d="m662.7 441.55 25.52-41.62"/></g><path id="Door" d="M416.15 280.16h114.52a6.67 6.67 0 0 1 6.67 6.67v274.8H409.48v-274.8a6.67 6.67 0 0 1 6.67-6.67z" fill="#e7c28b"/><path id="Frame_1" data-name="Frame 1" class="cls-9" d="M41.65 573.75V375.36s-2.24-13.5 12-13.68 209 0 209 0" transform="translate(-5.84 -81.52)"/><path id="Frame_2" data-name="Frame 2" class="cls-9" d="m270.26 280.16 13.86-.08"/><path class="cls-9" d="M369.89 342.79v155.05"/><path class="cls-9" d="M596.71 380.6v166.67s1.12 12 15.73 4.49 42.7-25.46 42.7-25.46" transform="translate(-5.84 -81.52)"/><path class="cls-9" d="M686.37 352.64v10.49m0 13.48v14.61"/><path d="M40.6 571.36h333.61a5.56 5.56 0 0 1 5.05 7.87l-8.78 20.22a5.55 5.55 0 0 1-5.05 3.25H46.3a5.57 5.57 0 0 1-5.33-4l-5.69-20.2a5.56 5.56 0 0 1 5.32-7.14z" transform="translate(-5.84 -81.52)" fill="#a47a6e"/><ellipse class="cls-11" cx="148.17" cy="383.54" rx="36.33" ry="34.64"/><ellipse class="cls-11" cx="252.1" cy="382.91" rx="36.33" ry="34.64"/><path class="cls-11" d="M189.61 458.13s16.84-9 34.44 0" transform="translate(-5.84 -81.52)"/><path d="M239.41 458.13s3.06 14.61 17.78 14.61c15.17 0 17.79-12 17.79-12m-138.76 3.37s3.11 12.81 17.79 11.61c13.49-1.11 15.78-14 15.78-14m28.42 29s1.47 6.92 9.55 6.37c7.15-.49 6.55-9.37 6.55-9.37" transform="translate(-5.84 -81.52)" style="stroke-width:7px;stroke-linejoin:round;stroke:#a47a6e;stroke-linecap:round;fill:none"/><path class="cls-13" d="M5.84 228.78v64.61a14.63 14.63 0 0 0 2.49 8.16c17.82 26.54 37.79 24.85 57-2.56 20.44 29.05 41.09 34 61.27 1.34 21.38 32.63 41.56 35.25 63 .9 20 31.19 39 36.47 62.2 4.47 22.14 28.89 39 28.21 61.26 0 24.63 32.61 41.44 29.79 64.91-1.79 21.87 30.87 40.1 39 64.34 4.47 22.1 33.18 40.62 32.11 63.5.45 25.85 32.27 42 38.44 67.53 1.34 20.63 23.42 43 11.67 52.57-14.31 35.66 17.22 44.08-2.54 54.31-33.09 12.2 7.54 27.59 2.87 34.57-8.83a15.32 15.32 0 0 0 2.1-7.85v-69.63s2.35-89.89-59.76-89.89H104.39s-92.1 8.94-95.32 100.62" transform="translate(-5.84 -81.52)"/><path class="cls-14" d="M714.11 172.43c-1.08-46.8-18-67.6-31.88-76.72a43.49 43.49 0 0 0-23.59-6.95c-60.35-.33-482.73-8.87-554-2.19-80 7.49-91.13 82.88-91.13 82.88M65.32 299s-3.5-208.47 81.91-214.29M126.83 299s.73-197.07 75.41-214.91m-12.57 202.38S194.38 91.7 267 84.1m-12.81 168.56s9.88-161.92 74.28-168.18" transform="translate(-5.84 -81.52)"/><path class="cls-14" d="m246.41 207.08-.45 16.1"/><path class="cls-14" d="M313.07 302.57S307.16 93.62 383.39 85m-5.47 216.15s-8.13-205.1 67.9-215.39m-3.73 219.57S437.76 97 513.78 86.7m-7.99 218.63s-4.64-212.77 71.92-217.67M572.9 306s-4.62-207 71.41-217.32" transform="translate(-5.84 -81.52)"/></g><g id="Easle"><path stroke="#f2f2e6" stroke-miterlimit="10" fill="#fbf1e5" d="m493.5 483.73-18.6 117.14 86.64-1.79 7.33-24.46h33.49l-22.1-90.89H493.5z"/><path class="cls-16" d="m470.01 634.71 21.92-153.39h89.33l30.07 133.27m-49.79 20.12 18.72-153.39"/><path class="cls-16" d="M600.31 574.62h-31.44l-3.93 26.25H474.9"/><g id="Text"><path class="cls-17" d="M501.35 637.8h5.36m10.14.52 5.22-.22m9.39-.43c2.71-.34 5.42.47 8.14.62a33.62 33.62 0 0 0 6.17-.4m9.69.5a15.64 15.64 0 0 0 3.28-.11m-54.86-9.74 19.23-.14m12.97.11 25-.38m-52.43-8.64a53.68 53.68 0 0 0 5.67-.15m10.73.32 34.73-.36M508.8 609l15.36-.47m11.32-.07h23m-49.38-9.84h10.43m11.93-.3H558" transform="translate(-5.84 -81.52)"/><path d="M508.7 587.43c-1.17-10.72 7.71-12.11 6.6-.37-.1-10.46 6.47-8.45 5.75.68m10.24-1.01c-4.43.48-6.68-5.16-1-4.78-5.9.78-3-5.07 1.33-3.26m5.87 8.59a29.84 29.84 0 0 1 1.35-7.43c2.85 2.3 5.18 5.83 8.68 7.62.34-3-.75-6.07-.07-9m6.41 2.12c.66 8.53 10.2 7.38 8.64-1.35" transform="translate(-5.84 -81.52)" style="stroke-width:3px;stroke-linejoin:round;stroke:#e7c28b;stroke-linecap:round;fill:none"/><path class="cls-17" d="M499.24 660.49a24.65 24.65 0 0 0 7-2.43 32.33 32.33 0 0 0 6.74-3.92 12.1 12.1 0 0 0 4.31-6.36 1.43 1.43 0 0 0 0-.58 1.07 1.07 0 0 0-.69-.67 2.76 2.76 0 0 0-3.08 1.15 6.48 6.48 0 0 0-.93 3.38c-.09 1.68.13 3.58 1.44 4.63a4.46 4.46 0 0 0 4.55.25 26.66 26.66 0 0 0 4-2.64c2.91-2 6.61-3.08 10-2.13s6.19 4.28 5.8 7.78a2.21 2.21 0 0 1-.21.8 1.67 1.67 0 0 1-2.39.34 3.05 3.05 0 0 1-1-2.43c0-2 1.34-4.1 3.32-4.3 1.63-.16 3.08.92 4.55 1.65a11.74 11.74 0 0 0 11-.4 23.28 23.28 0 0 0 5.85-5.7" transform="translate(-5.84 -81.52)"/></g><path class="cls-13" d="M156.41 568.4a28.5 28.5 0 0 1-5.15.82 3.6 3.6 0 0 1-1.39-.11c-1.16-.41-1.35-1.73-2.11-2.59a4 4 0 0 0-4.51-.63 4.62 4.62 0 0 0-2.49 3.52 3.32 3.32 0 0 0 .34 2.14 4.78 4.78 0 0 0 2.88 1.89 10.93 10.93 0 0 0 6.6-.2 1.39 1.39 0 0 1 1-.11 1 1 0 0 1 .41.53c.56 1.36.81 2.8 1.34 4.16a8.48 8.48 0 0 0 7.07 5.51c2.74.17 5.17-1.19 7.31-2.76a1.06 1.06 0 0 1 1.64.49 4 4 0 0 0 .56 1 1.1 1.1 0 0 1-.29 1.61 4.49 4.49 0 0 0-2 2.78 5.48 5.48 0 0 0 1.18 4.44 6.11 6.11 0 0 0 3.93 2.45 5.51 5.51 0 0 0 6.06-4.57 7.65 7.65 0 0 0-2.53-5.91 1.07 1.07 0 0 1 .11-1.62 6 6 0 0 0 2.19-2.81c.27-.79.59-1.81 1.55-1.87a2.87 2.87 0 0 1 1.49.56 5 5 0 0 0 2 .55 1.06 1.06 0 0 1 .88 1.51 5.78 5.78 0 0 0-.68 1.87c-.13 1.77 1.84 3.13 3.75 3.83 1.71.64 3.77 1 5.39.21a4.93 4.93 0 0 0 2-2 7.69 7.69 0 0 0-1-9 1.07 1.07 0 0 1 .3-1.61c2.51-1.51 3.66-4.65 2.3-7a5 5 0 0 0-1.59-1.7 7 7 0 0 0-5.88-.48 10 10 0 0 0-3.65 2.31 1.05 1.05 0 0 1-1.61-.2 7.43 7.43 0 0 0-4-2.89 1.05 1.05 0 0 1-.57-1.6 3.86 3.86 0 0 0 .74-2.56 5.48 5.48 0 0 0-2.51-3.85 5.38 5.38 0 0 0-2-.9 5.48 5.48 0 0 0-5.77 3.19 10.65 10.65 0 0 0-.71 4.58 1.07 1.07 0 0 1-1.7.88 8.1 8.1 0 0 0-.86-.58 2.61 2.61 0 0 0-1.87-.25 1.11 1.11 0 0 1-1.27-.53 4.09 4.09 0 0 0-1.29-1.46 4.53 4.53 0 0 0-5 .31 3.8 3.8 0 0 0-1.11 4.34 5.12 5.12 0 0 0 1.58 2 1.07 1.07 0 0 1-.18 1.75 3.43 3.43 0 0 0-1.18 1.12m55.23 1.95c-.73 4.5-11.06 4.46-8.86-.81a.94.94 0 0 0-.48-1.25c-5.3-2.34-.49-8.89 3.69-6.42a1.16 1.16 0 0 1 .24.2c.18.2.35.43.53.62a.91.91 0 0 0 1.24 0c1-.85 2.45-1.86 3.37-.73 2.41-3.38 7.53-2 9 1.4a.94.94 0 0 0 1.2.53c.85-.33 1.79.8 2.62 1.79a.93.93 0 0 0 1.57-.24c1.77-4.08 7.7-6.27 10.33-2.49a.92.92 0 0 0 1.45.09c5.46-6.25 12.95 4.23 4.11 7.23a.94.94 0 0 0-.35 1.58c.77.71 1.44 1.62 1.27 2.24a1 1 0 0 0 .37 1.09c2.76 1.66 2.76 5.68.94 8.3a.94.94 0 0 0 .3 1.39 1.92 1.92 0 0 1 .52 3.09.89.89 0 0 0-.24 1.26 5.41 5.41 0 0 1-1.22 7.54 1 1 0 0 0-.34 1.11c1 2.75-3.32 3-6.06 2.47a.93.93 0 0 0-1.07 1.08.9.9 0 0 0 1.1.75c1.45-.36 3.26.16 3.12 1.57a.83.83 0 0 0 .5.85c2.12.91 3.29 5.26 1.26 6.37a.92.92 0 0 0-.42 1.23c3 5.94-7.39 6.39-8.53 1.13a.92.92 0 0 0-1.19-.71c-1.63.53-3-1.46-3-3.41a.91.91 0 0 0-1.13-.87c-2.49.68-5.41-1.66-4.26-4.21a.94.94 0 0 0-.29-1.17c-3.24-2.37 1.09-6.35 4.55-5.6a.94.94 0 0 0 1.11-.53c.72-1.87 2.73-3.3 4.41-1.7a1.06 1.06 0 0 0 .31.21c1.07.37 2.18-.82 3.3-1.26a1 1 0 0 0 .48-1.3 4.56 4.56 0 0 1-.31-3.85.89.89 0 0 0-.09-.89c-.41-.55-.91-1.08-1.29-1.67a.92.92 0 0 0-1.51-.1 6.63 6.63 0 0 1-.92 1 .92.92 0 0 0-.16 1.18c1.94 3.3-3.1 7.56-5.41 4.55a.91.91 0 0 0-1.23-.21c-2.62 1.85-6.06-.35-6.25-3.49a.91.91 0 0 0-.61-.77c-2.08-.76-2.44-3.52-.4-4.23a.93.93 0 0 0 .62-1 2.45 2.45 0 0 1 1.64-2.53.92.92 0 0 0 .59-1.19 4.58 4.58 0 0 1 .84-4.26 1 1 0 0 0 .1-1.2 9.94 9.94 0 0 1-1.1-2 .91.91 0 0 0-1.4-.37c-1.21 1-1 3.07-.16 4.48.84 1.18.15 3.3-1 3.38a.89.89 0 0 0-.84.87c0 1-.46 2-1.34 2.16a1 1 0 0 0-.84.88c-.13 2.6-.47 6.51-3.8 5.05-1.5-.48-3.37-.35-4.39-1.5a.9.9 0 0 1-.18-.35c-.65-2.16-3.75-7.08-.14-7.45-1.75-2.56 1.68-3.9 3.72-2.65a1 1 0 0 0 1.32-.44 3.19 3.19 0 0 1 1.24-1.45.93.93 0 0 0 .34-1.31 5.69 5.69 0 0 1-.78-1.89.92.92 0 0 0-1.14-.67 3.5 3.5 0 0 1-1.21.09m-161.47-.43c-10.42 5.25-8.3-13-.06-6.07a.52.52 0 0 0 .78-.11c2.67-4.15 5.85-2.9 9.35-2.77 3.77-6.79 9.12-.14 9.46-1.92.39-6.92 9.65-8.25 9.5-.25a.51.51 0 0 0 .75.47c.94-1.16 3.94.33 3.82-1.11-.6-1.44-.9-3-.11-4.11a.52.52 0 0 0-.13-.75c-1.71-1.11-1.72-4.13-.2-5.68 5.25-5 12 3.55 6.68 7.57-.67.95 2.85 2.74 2.61 4.83a.52.52 0 0 0 .92.21c3.5-4.34 10.44.39 10 5.91a.5.5 0 0 0 .82.42 11.73 11.73 0 0 1 10.11-2 .5.5 0 0 0 .62-.57c-1.47-9 10-12.37 10.64-4a.51.51 0 0 0 .91.28c4.77-6.71 14.35 2.2 7.21 7.49a.51.51 0 0 0 .1.89c2.81 1 5.3 4.3 3.2 6.83a.54.54 0 0 0 .09.73c11.88 10.47-10.77 19.51-5.23 1a.53.53 0 0 0-.31-.63 6.16 6.16 0 0 1-3.72-5.75c.43 2.81-3.22 3.57-2.57 4.73 6.34 5.14-.41 16.32-7.92 11.47a6.41 6.41 0 0 1-1-9 .5.5 0 0 0-.21-.81 7.45 7.45 0 0 1-4.81-5.47.5.5 0 0 0-.75-.32c-3.17 2.1-7.1 1.42-10.42 1.34-4.17 4.62-6.93-1.42-7.91-.18-2.7 5.87-11.74 6.3-14.92.6a.51.51 0 0 0-.87 0c-1.42 3.13-6.79 2.06-6.07 3.45 3.52 5.11 2.5 13.29-3.43 15.67-1.36.74 4 3 4 5.3 10.37-2 9 11.78.44 10.12a.51.51 0 0 0-.61.64c1.46 5.33-4.93 10-9.59 7.1a.51.51 0 0 0-.79.35c0 2.43-2.59 3-3.67 4.62-4 8.84-13.72-1.67-4.44-3.81a1.22 1.22 0 0 0 1.06-1.24c0-4 5.22-7.86 9.7-5.32a.5.5 0 0 0 .76-.47c-.59-1.41 1.17-3.92-.07-4.67a7.32 7.32 0 0 1-7.17-5.15.52.52 0 0 0-.73-.29c-9.33 4.14-9.46-11.21 1.19-10.37-.2-3.76 5.9-6.9 4.57-7.64a5.74 5.74 0 0 1-3.6-5.49.5.5 0 0 0-.45-.54 3.92 3.92 0 0 1-2.49-6.67c0 2-.75 3.5-1.76 1.85-.86 2.27-2.45.66-3.26-.63zm207.24-4.87a3.71 3.71 0 0 0 1.73 3.16 2.08 2.08 0 0 1 .8.66c.21.41 0 .89 0 1.34a2.52 2.52 0 0 0 1.55 2.23 6.31 6.31 0 0 0 2.83.4 5.62 5.62 0 0 0 2.23-.4 4.46 4.46 0 0 0 2.08-2.26 1.13 1.13 0 0 1 1.8-.34 3.77 3.77 0 0 0 1.41.88 3.65 3.65 0 0 0 2.17 0 1.16 1.16 0 0 1 1.44 1.1 2.41 2.41 0 0 0 .92 1.76 1.14 1.14 0 0 1 .26 1.4 3.86 3.86 0 0 0 .45 3.93 5 5 0 0 0 4.87 1.58 7.7 7.7 0 0 0 3.72-2.07 1.14 1.14 0 0 1 1.41-.16 2.92 2.92 0 0 0 3.42-.25 4.55 4.55 0 0 0-1.78 2.41 1.91 1.91 0 0 0 .51 1.66 1.18 1.18 0 0 1 0 1.52 4.87 4.87 0 0 0-.71 4.78 5.49 5.49 0 0 0 3.41 2.73 7.33 7.33 0 0 0 5.65-.35 5.63 5.63 0 0 0 2.73-3.22 1.17 1.17 0 0 1 1.32-.74 2 2 0 0 0 1.85-.69 3.49 3.49 0 0 0 .28-3.31 6.59 6.59 0 0 0-4.87-4.1 1.16 1.16 0 0 1-.89-1.35 4 4 0 0 0-.86-3.19 3.86 3.86 0 0 0-2-1.2 1.12 1.12 0 0 1-.78-1.6 5.12 5.12 0 0 0-4.9-7.7 1.59 1.59 0 0 1-1.2-.16 1.7 1.7 0 0 1-.36-1.18 4.55 4.55 0 0 0-3.46-3.68 7.44 7.44 0 0 0-5.19.79 15.36 15.36 0 0 0-2.54 1.69 1.15 1.15 0 0 1-1.83-.55 4.88 4.88 0 0 0-2.57-3.11 5.62 5.62 0 0 0-5.85.84 6.74 6.74 0 0 0-2.18 3.69 1.18 1.18 0 0 1-1.66.75 4.25 4.25 0 0 0-2.33-.35 4.31 4.31 0 0 0-3.28 2.48m52.93 5.3a.87.87 0 0 1 .18 1.37c-7.84 7.89 7.87 13.93 12.14 5.76.61-.58 1.53 2.6 2.71 3.49a.88.88 0 0 1 .27 1.16c-1 1.76-5.68 4.13-4.37 10 1.05 7 11.06 6.43 13.77.89a8.57 8.57 0 0 0-.92-9.23.53.53 0 0 1 .24-.84c.58-.07 1.51-1.18 1.85-.29a8.91 8.91 0 0 0 2.36 4.43.92.92 0 0 1 .11 1.09 4.49 4.49 0 0 0 2.21 6.4.89.89 0 0 1 .3 1.41c-1.11 1.24-2.05 2.68-1.42 4-.78.29 6.61 2 3.66 3.46-5.78 1.35-3.47-1.07-7.26-1.83a.87.87 0 0 0-.55.06c-4.47 2.15-6.57 11.84-.67 13.53 2.35.53 4.17-1 5.21-3.05a.87.87 0 0 1 1.54 0c2.48 4.54 10.92 7 11.52-.07 1-3.36-4-6.95-2.45-8.87 6.29-5.76-1.94-9.73-1.39-12.22a.67.67 0 0 1 .18-.33 9.25 9.25 0 0 0 2.25-6.51.45.45 0 0 1 .72-.4c3.34 1.86 4.31-.19 6.17-1.75a.89.89 0 0 1 1.09 0c1.89 1.38 4.16 4.32 6.14 1.48a7.76 7.76 0 0 0-2.73-11.43 1 1 0 0 1-.37-1.44c2.3-2.51 2-7-1.73-7.94-2.93-.79-5.52 1-6.72 3.5a.35.35 0 0 1-.66-.07 7.4 7.4 0 0 0-11.69-4.33 1 1 0 0 1-1.55-.75c-.7-2.61 2.8-3.24 2.94-5.63.44-3.7-3.63-6-7-5.56-4.24 0-8.34 5-5.19 8.61a1 1 0 0 0 .28.2c1.64.87 1.85 4.82-.45 4.25-1.37-1.41-5.19-.4-5-1.74 1.26-4-2.07-9.64-6.67-7.86-2.5 1.06-3 3.82-2.6 6.43a.86.86 0 0 1-1.23.9c-6.39-3.23-10.22 6.47-5.22 9.72z" transform="translate(-5.84 -81.52)"/></g></svg>