<svg id="Layer_1" data-name="Layer 1" xmlns="http://www.w3.org/2000/svg" viewBox="0 0 101.94 105.51"><defs><clipPath id="clip-path" transform="translate(-241.85 -367.86)"><path d="M275.54 379.08c12.75 0 23.93 24.6 23.93 24.6s37.34.89 43.15 10.51-10.28 45.17-43.6 44.05-42.93-19.58-43.38-37.3 4.68-41.84 19.9-41.86z" fill="none"/></clipPath><style>.cls-4{fill:none;stroke:#fcde6b;stroke-linecap:round;stroke-width:5px}.cls-5{fill:#eebb6b}</style></defs><path d="M264.58 386.46s-3.79-2.79-2.9-9.17 3.69-9.84 7.49-9.39 5.14 4.25 5.14 4.25 1.45-3.69 4.58-3 4.36 5.37 4.36 5.37a3.17 3.17 0 0 1 4.36-.78c2.8 1.56 1.35 12.85-4.36 14.87s-18.67-2.15-18.67-2.15z" transform="translate(-241.85 -367.86)" fill="#fc7b72"/><path stroke-width="4" stroke-linecap="round" stroke="#fcde6b" fill="none" d="m45.77 84.78-4.7 11.86-4.32 4.91"/><path class="cls-4" d="M31.68 96.64h9.39l2.8 6.37"/><path class="cls-5" d="M261.57 437.67s-15.21 2.79-16.1-4.81 2.23-5.81 2.23-5.81-6.15-2.35-5.36-8.5 9.27-6.37 14.86-3.8 4.37 22.92 4.37 22.92z" transform="translate(-241.85 -367.86)"/><path d="M11.7 69.28s-8.53-.93-8.42-6.18 5.37-3 5.37-3-8.95-4.47-7.49-10.06 13.52-3.14 13.52-3.14" stroke-width="2" stroke-linejoin="round" stroke="#c99f57" stroke-linecap="round" fill="none"/><path class="cls-5" d="M275.54 379.08c12.75 0 23.93 24.6 23.93 24.6s37.34.89 43.15 10.51-10.28 45.17-43.6 44.05-42.93-19.58-43.38-37.3 4.68-41.84 19.9-41.86z" transform="translate(-241.85 -367.86)"/><path class="cls-4" d="m66.44 85.6-8.76-10.24m-3.19 4.8h6.95l1.71-6.63"/><path d="M39.62 47.45s13.64-20.13 20.23-25.49c7.69-6.26 19.23-14.65 26.28-10.29s-8.84 20.47-8.84 20.47 8.66-9.79 14.52-4.14c6.61 6.38-11.5 16.88-11.5 16.88s10.54-9.16 11.42-2.68-5.27 15-20.36 17.55" stroke-width="3" stroke-linejoin="round" stroke="#c99f57" fill="#eebb6b" stroke-linecap="round"/><path d="M256.42 401.11s-6.71-1.57-6.59-4.25 4.24-4.59 8-3.91 8.87 3.65 8.5 7.15a7.75 7.75 0 0 1-3.7 6c-2.12 1.45-7 4.81-8.72 2s2.51-6.99 2.51-6.99z" transform="translate(-241.85 -367.86)" fill="#fcde6b"/><path d="m35.82 19.94-7.37 2.66m2.64 2.23v-2.54" style="stroke-width:2px;stroke:#93351b;stroke-miterlimit:10;stroke-linecap:round;fill:none"/><g clip-path="url(#clip-path)"><path d="M14.08 47.75a70.13 70.13 0 0 0 2.77 16.62c3.45 10.77 12.29 21.55 16.1 23" stroke="#c99f57" stroke-width="4" stroke-linecap="round" fill="none"/></g></svg>