<svg id="Layer_1" data-name="Layer 1" xmlns="http://www.w3.org/2000/svg" viewBox="0 0 211.58 222.21"><defs><style>.cls-1{fill:#ebcca0}.cls-2{fill:#ddbd8b}.cls-3{fill:#edcfa1}.cls-5{fill:#9f8052}.cls-6{fill:#fdfefc}.cls-8{fill:#ddbc8c}</style></defs><path class="cls-1" d="M391.07 313c15.81-12.68 6.06-38.41-2.21-40.07l-.54-.08a14.27 14.27 0 0 1 .91 10.56c-3.12 10.87-17.23 17.48-17.23 17.48s7.34-1.83 7.72 4.6c.37 6.25-10.48 11.57-16.36 12.3 0 0 5.7 2.22 3.86 7.37-.95 2.67-6 6.8-11.74 8.8 5.58 3.57 10.56 6 13.4 5.53 9.56-1.47 11.21-7.72 11.21-7.72s11.33 1 14.47-9.19c1.66-5.51-3.49-9.58-3.49-9.58Z" transform="translate(-188.73 -267.93)"/><path class="cls-2" d="M367.17 325.16c1.84-5.15-3.86-7.37-3.86-7.37 5.88-.73 16.73-6.05 16.36-12.3-.38-6.43-7.72-4.6-7.72-4.6s14.16-6.61 17.28-17.46a14.27 14.27 0 0 0-.91-10.56c-8.07-1.12-15.78 8.86-30.52 23.06-15.07 14.52-27.76 15.44-32.17 14.52 0 0 16.61 15.06 29.8 23.51 5.71-1.96 10.79-6.13 11.74-8.8Z" transform="translate(-188.73 -267.93)"/><path class="cls-3" d="M191.36 344.38v112.3a12.88 12.88 0 0 0 4.3 9.61l22.67 20.24a14.17 14.17 0 0 0 9.46 3.61h164.09a4.87 4.87 0 0 0 4.87-4.87V359.89L306.16 296Z" transform="translate(-188.73 -267.93)"/><path d="M227.79 490.14h164.09a4.87 4.87 0 0 0 4.87-4.87v-99.21c-7-5.78-17.76-11.37-33.46-11.76-33.19-.81-48.43 26.94-48.43 26.94s-12-26.94-51.68-26.94-57.4 49.79-57.4 49.79l1.78 52.82 10.77 9.62a14.17 14.17 0 0 0 9.46 3.61Z" transform="translate(-188.73 -267.93)" style="fill:#fce7c9"/><circle class="cls-5" cx="77.39" cy="130.67" r="16.68"/><circle class="cls-5" cx="173.08" cy="130.67" r="16.68"/><path class="cls-6" d="M258.14 395.26a2.6 2.6 0 0 1-1.28-.33 2.65 2.65 0 0 1-1.05-3.61 11.8 11.8 0 0 1 3.62-4.18 6.88 6.88 0 0 1 2.35-1.07 2.67 2.67 0 0 1 1.14 5.21c-.15.05-1.3.52-2.44 2.6a2.68 2.68 0 0 1-2.34 1.38Zm4.67-4Zm0 0ZM353.26 395.26a2.55 2.55 0 0 1-1.28-.33 2.65 2.65 0 0 1-1.06-3.61 11.92 11.92 0 0 1 3.63-4.18 6.87 6.87 0 0 1 2.34-1.07 2.67 2.67 0 0 1 1.15 5.21c-.16.05-1.3.52-2.45 2.6a2.65 2.65 0 0 1-2.33 1.38Zm4.67-4Zm0 0Z" transform="translate(-188.73 -267.93)"/><path d="M316 397.29c-9.18 0-15 4.46-14.89 11.65.14 7.82 6 21.54 14.89 21.54 9.66 0 15.65-17.14 15.71-23.12.08-6.36-6.51-10.07-15.71-10.07Z" transform="translate(-188.73 -267.93)" style="fill:#edcd78"/><path class="cls-8" d="M313.27 350.57v1.16l4.11 4.18a2 2 0 0 0 2-.31 1.46 1.46 0 0 0 .38-1.83l-4.15-4.39h-1.12a1.19 1.19 0 0 0-1.22 1.19ZM329.89 349.38s-1.49-.48-2.17.41a2.1 2.1 0 0 0-.21 2l3.37 3.3a2.76 2.76 0 0 0 2.52-.41 1.25 1.25 0 0 0 0-1.93ZM327.85 338.77c-1.4 1-.5 2-.5 2l4 4.76s2.21.95 3.06.3 0-2.85 0-2.85l-4.11-4.39a2.31 2.31 0 0 0-2.45.18Z" transform="translate(-188.73 -267.93)"/><path class="cls-3" d="M240.14 454.51c-1.51-.45-2.24 2.13-2.12 4.18.1 1.86 1.08 3.85 2.85 4.07 3.31.41 1.63-7.66-.73-8.25ZM250.71 460.81c1.13-.45 2.81 1 3.26 2.54s1.14 3.95-.59 4.72-2.94-2.08-3.49-3.67-.31-3.13.82-3.59ZM297.09 471.1a6.56 6.56 0 0 0 1.32 4.72c1.76 2.54 2.13 2.54 3.53 1.86s.73-2.13-.63-4.13-2.95-3.13-4.22-2.45ZM309.29 475.5c1.36-.54 1.68 2.18 2.54 2.56s1.58 3.11.5 3.65-2.63 1-3.31-.22-1.55-3.09-1.23-4.63 1.5-1.36 1.5-1.36ZM316 462.13c-.54.27-.63 3.49.73 5.89s1.59 1.86 2.67 1.63.82-2.85 0-4.62-2.81-3.17-3.4-2.9ZM358.59 458.47c1.59-.16 1.77 2.51 1.87 3.57s.72 4-1.36 4.25-2.24-3.3-2.31-4.29.07-3.36 1.8-3.53ZM366.31 448.64c1.17-.24 2.15 1.09 2.38 2.58s1.26 5.17-.44 5.44-3.7-2.6-3.67-4.05.1-3.61 1.73-3.97ZM375.63 452.11c1.77 0 1.46 4.55 1.36 5.61s-.24 3.91-1.6 3.77-2.43-3-2.21-5c.24-2.21.14-4.35 2.45-4.38Z" transform="translate(-188.73 -267.93)"/><path class="cls-8" d="M191.36 344.38v112.3a12.88 12.88 0 0 0 4.3 9.61l22.67 20.24a13.42 13.42 0 0 0 1.46 1.15l-.64-1.71a54.44 54.44 0 0 1-2.45-16.18v-136.1Z" transform="translate(-188.73 -267.93)"/><path d="m285.87 277.86-95.72 63.3a3.19 3.19 0 0 0-.37 5L216.29 370a4.71 4.71 0 0 0 5.67.43l95.35-62.52 79.91 55a1.37 1.37 0 0 0 2-.48l.94-1.77a1.37 1.37 0 0 0-.3-1.67l-29.21-26.56a52 52 0 0 0-5.48-4.35l-72.76-50.18a5.93 5.93 0 0 0-6.54-.04Z" transform="translate(-188.73 -267.93)" style="fill:#b69666"/><path class="cls-1" d="M212.2 308.17c-15.81-12.68-6.06-38.41 2.21-40.07a5 5 0 0 1 .59-.1 14.26 14.26 0 0 0-.91 10.56c3.12 10.84 17.28 17.46 17.28 17.46s-7.34-1.83-7.72 4.6c-.37 6.25 10.48 11.56 16.36 12.3 0 0-5.7 2.22-3.86 7.36 1 2.68 10.11 6.07 15.82 8.07-5.58 3.57-10.53 5.69-13.4 5.54-12.52-.67-15.29-7-15.29-7s-11.33 1-14.47-9.19c-1.76-5.48 3.39-9.53 3.39-9.53Z" transform="translate(-188.73 -267.93)"/><path class="cls-2" d="M236.1 320.3c-1.84-5.14 3.86-7.36 3.86-7.36-5.88-.74-16.73-6.05-16.36-12.3.38-6.43 7.72-4.6 7.72-4.6s-14.16-6.62-17.28-17.46A14.26 14.26 0 0 1 215 268c8.07-1.12 15.78 8.85 30.52 23.06 9.15 8.81 18 11 23.5 14 4.27 2.39 1.95 6.76-.51 9.19-4.88 4.84-9.28 9.41-16.54 14.06-9.24-1.31-14.92-5.31-15.87-8.01Z" transform="translate(-188.73 -267.93)"/></svg>