<svg id="Layer_1" data-name="Layer 1" xmlns="http://www.w3.org/2000/svg" viewBox="0 0 95.49 91.16"><defs><style>.cls-3{fill:none;stroke:#c51d00;stroke-linecap:round;stroke-miterlimit:10;stroke-width:2px}</style></defs><path d="M40.49 100.82c8.25.15 35.69-8.64 45.17-39.1 9-29.18-3.73-51.19-14.27-52-16.18-1.24-26.1 17.79-26.1 17.79s-1.53-12.64-9.12-12.3c-10.34.49-12.33 14.86-12.33 14.86s-4.37-7-9.57-6.67c-7.93.45-25.38 16.35-20 38.21 6.11 25.24 18.55 38.7 46.22 39.21Z" transform="translate(6.76 -9.66)" style="fill:#ff0014"/><path d="M42.84 94.15c7.06-1.1 24-7.05 30-24 5.57-15.82-5.22-24.68-10.08-25-11.27-.89-17.18 8.46-17.18 8.46s-2.25-5-6.67-5.19-6.54 6.09-6.54 6.09S29.82 48 24.2 49s-17.72 11.61-14 26.07 16.49 21.66 32.64 19.08Z" transform="translate(6.76 -9.66)" style="fill:#f7ec7f"/><path class="cls-3" d="m33.54 58.72 9.02 1.59M39.33 64.94l.17-5.17M56.45 58.17l-7.23 1.64M52.91 65.74l-.08-6.76"/><path class="cls-3" d="M35.18 81.34a2.52 2.52 0 0 0 2.29 2.14c2 0 3.37-2.25 3.37-2.25" transform="translate(6.76 -9.66)"/></svg>