<svg xmlns="http://www.w3.org/2000/svg" viewBox="0 0 538.93 571.56"><defs><clipPath id="clip-path" transform="translate(244.95 -147.87)"><path id="Back_Feather" data-name="Back Feather" class="cls-1" d="M231.49 468.19s17.83-47.32 46.25-38 11.84 45.66 7.28 57.7c-4.31 11.39-26.68 46.47-49.32 32.51s-4.21-52.21-4.21-52.21Z"/></clipPath><clipPath id="clip-path-2" transform="translate(244.95 -147.87)"><path id="Body" class="cls-1" d="M-101.15 354.66c-8.32-66.77 34-151.64 143.49-148.6 79.1 4.05 124.83 85 116.77 135.66 0 0 131.15 139.34 87.23 237s-144.43 129.09-220 127.39-219.91-44.26-219.91-179.41 92.42-172.04 92.42-172.04Z"/></clipPath><style>.cls-1,.cls-11,.cls-12,.cls-13{fill:none}.cls-2{fill:#fa8a8d}.cls-3{fill:#fdd699}.cls-4{fill:#fefefe}.cls-12{stroke:#ecdcda}.cls-11,.cls-12{stroke-miterlimit:10}.cls-7{fill:#c58a75}.cls-9{fill:#ecdcda}.cls-11,.cls-13{stroke:#f8efef}.cls-11,.cls-12,.cls-13{stroke-linecap:round;stroke-width:4px}.cls-13{stroke-linejoin:round}</style></defs><g id="Layer_1" data-name="Layer 1"><path class="cls-2" d="M-48.85 237.72S-51.62 204.36-36.3 185 8 139.34 31.11 150.57s9.19 29.62 9.19 29.62 50.38-20.77 79.66-1.7 7.15 35.4 7.15 35.4 33.69 5.79 33.68 31c0 21.79-13.25 21.77-29.6 24.83s-180.04-32-180.04-32Z" transform="translate(244.95 -147.87)"/><path class="cls-3" d="M-137.4 638.06s-44 21.87-47 23.15-10.13 1.19-15.58-4.94-24.59-29.44-24.59-29.44-4.32-5.94-6.7-3.9c-3.05 2.61 2.61 11.13 2.61 11.13s-13.1-11-15.83-6 7.49 13.82 7.49 13.82-5.35-3.45-7-1.06c-3.06 4.51 3.75 9.19 3.75 9.19l31.83 22.22s11.06 7.4 25.95.93S-127 646.49-127 646.49s3.47-11.58-10.4-8.43Z" transform="translate(244.95 -147.87)"/><path class="cls-4" d="M215.45 440.78s4.42-24.29 19.74-19.89 15 30.79 12.94 37.77-10.56 24.17-25 18.55-7.68-36.43-7.68-36.43Z" transform="translate(244.95 -147.87)"/><path id="Back_Feather-2" data-name="Back Feather" class="cls-4" d="M231.49 468.19s17.83-47.32 46.25-38 11.84 45.66 7.28 57.7c-4.31 11.39-26.68 46.47-49.32 32.51s-4.21-52.21-4.21-52.21Z" transform="translate(244.95 -147.87)"/><g style="clip-path:url(#clip-path)"><path d="M289 431.25s-18.26-8.42-33.15 4c-16.81 14-29.4 41.44-29.4 41.44" transform="translate(244.95 -147.87)" style="stroke-width:5px;stroke-miterlimit:10;stroke:#ecdcda;fill:none"/></g><path id="Body-2" data-name="Body" class="cls-4" d="M-101.15 354.66c-8.32-66.77 34-151.64 143.49-148.6 79.1 4.05 124.83 85 116.77 135.66 0 0 131.15 139.34 87.23 237s-144.43 129.09-220 127.39-219.91-44.26-219.91-179.41 92.42-172.04 92.42-172.04Z" transform="translate(244.95 -147.87)"/><path class="cls-7" d="M35.19 282.66c7.49 0 12.32 8.82 11.87 16.85-.38 6.81-5.4 13.49-11.87 13.44-5.83 0-14-4.34-12-16.59s12-13.7 12-13.7Z" transform="translate(244.95 -147.87)"/><g style="clip-path:url(#clip-path-2)"><path class="cls-9" d="M-96.78 371a188.2 188.2 0 0 1 8 18.32q3.56 9.35 6.4 18.93c1.89 6.4 3.55 12.86 5.07 19.37s2.85 13.07 3.91 19.7a158.74 158.74 0 0 1 2 20.18 81.42 81.42 0 0 1-.31 10.33 43.09 43.09 0 0 1-2.25 10.5 23.93 23.93 0 0 1-2.54 5.12 14.3 14.3 0 0 1-.88 1.21 13.12 13.12 0 0 1-1 1.22A10.86 10.86 0 0 1-81.2 498a10.69 10.69 0 0 1-7 .84 18.88 18.88 0 0 1-5.61-2.2 42.81 42.81 0 0 1-8.46-6.67 73.18 73.18 0 0 1-6.91-7.85l5.83-3.4a248.49 248.49 0 0 1 9.82 26.7c2.71 9.1 5 18.4 5.72 28.17a46 46 0 0 1-1.11 15.07 22 22 0 0 1-3.57 7.46 16.79 16.79 0 0 1-3.08 3.11 16.83 16.83 0 0 1-3.79 2.21 14.52 14.52 0 0 1-4.45 1.09 15.9 15.9 0 0 1-4.49-.34 22.26 22.26 0 0 1-7.5-3.39 38.8 38.8 0 0 1-5.87-4.95c-.88-.89-1.72-1.81-2.53-2.77s-1.56-1.88-2.37-3l6.06-2.53c.79 4.64 1.3 9.11 1.65 13.7a131.94 131.94 0 0 1 .32 13.79 77.34 77.34 0 0 1-1.61 13.96 34.8 34.8 0 0 1-5.77 13.55 19.62 19.62 0 0 1-6 5.27 18.14 18.14 0 0 1-7.75 2.26 21.83 21.83 0 0 1-7.74-1 32.37 32.37 0 0 1-6.78-3 54.81 54.81 0 0 1-11.14-8.82 82.67 82.67 0 0 1-8.9-10.73 88.58 88.58 0 0 1-7.08-12c-1-2.09-2-4.23-2.77-6.42-.41-1.08-.81-2.22-1.14-3.31l-1-3.26a230.08 230.08 0 0 1-6.24-26.47c-3.17-17.82-4.33-36.05-2.29-54a.49.49 0 0 1 .54-.43.48.48 0 0 1 .43.44c1.66 17.89 3.33 35.57 6.57 53a222 222 0 0 0 6.37 25.78c.68 2.11 1.3 4.23 2.08 6.19s1.66 4 2.63 5.9a82.46 82.46 0 0 0 6.72 11.09 76 76 0 0 0 8.36 9.86 48.69 48.69 0 0 0 9.94 7.74c3.56 2 7.44 3.33 11 3.06a12.21 12.21 0 0 0 5-1.52 13.05 13.05 0 0 0 4-3.59 28.55 28.55 0 0 0 4.55-11.06 70.5 70.5 0 0 0 1.4-12.75 124.45 124.45 0 0 0-.38-13.08c-.36-4.34-.89-8.78-1.63-13a3.37 3.37 0 0 1 2.73-3.9 3.38 3.38 0 0 1 3.32 1.35c.55.76 1.28 1.68 2 2.48s1.45 1.62 2.21 2.39a32.16 32.16 0 0 0 4.85 4 15.44 15.44 0 0 0 5.19 2.35 7.53 7.53 0 0 0 4.8-.41 9.84 9.84 0 0 0 4.14-2.96 15.2 15.2 0 0 0 2.41-5.13 39.47 39.47 0 0 0 .89-12.77c-.64-8.89-2.8-17.87-5.42-26.66a241.26 241.26 0 0 0-9.48-25.9 3.4 3.4 0 0 1 1.78-4.47 3.41 3.41 0 0 1 4.06 1.06 69.87 69.87 0 0 0 6.19 7.08 35.87 35.87 0 0 0 7 5.68 11.9 11.9 0 0 0 3.57 1.48 4.06 4.06 0 0 0 2.71-.23 4.2 4.2 0 0 0 1.12-.82 6.37 6.37 0 0 0 .56-.68 9.72 9.72 0 0 0 .59-.8 17.23 17.23 0 0 0 1.95-3.79 36.6 36.6 0 0 0 2-8.88 77 77 0 0 0 .35-9.52 151.4 151.4 0 0 0-1.83-19.36A366.84 366.84 0 0 0-88 409.82c-3.31-12.76-6.73-25.51-9.71-38.49a.48.48 0 0 1 .36-.58.5.5 0 0 1 .57.25ZM167.28 352.1c5.73 4.91 11.1 10.21 16.33 15.65s10.26 11.1 15.13 16.89a345.91 345.91 0 0 1 26.81 36.76 285.72 285.72 0 0 1 21.33 40.6 212.89 212.89 0 0 1 13.57 44.23 165.6 165.6 0 0 1 2.71 23.23 143.13 143.13 0 0 1-.76 23.5l-.35 2.93c-.13 1-.3 2-.47 3.06-.39 2-.83 4-1.37 6a94.19 94.19 0 0 1-3.91 11.42A130 130 0 0 1 245.15 597a215.79 215.79 0 0 1-29.38 35.22q-8.13 8-16.84 15.26c-2.91 2.41-5.87 4.77-8.85 7.09s-6 4.53-9.19 6.61c10.35-11 20.24-22.18 29.51-33.8a277.17 277.17 0 0 0 25-36.29 132.77 132.77 0 0 0 9.06-19.43 81.63 81.63 0 0 0 3-10c.39-1.67.68-3.34.94-5 .11-.84.22-1.65.32-2.51l.26-2.67a160.57 160.57 0 0 0-2.22-42.83c-1.28-7.11-3-14.15-5-21.15s-4.39-13.88-7-20.72a349.54 349.54 0 0 0-18.5-40c-7-13-14.65-25.75-22.85-38.2S176.55 364 167.28 352.1Z" transform="translate(244.95 -147.87)"/><path class="cls-7" d="M-90.94 282.66c7.49 0 12.33 8.82 11.87 16.85-.38 6.81-5.4 13.49-11.87 13.44-5.82 0-14-4.34-12-16.59s12-13.7 12-13.7Z" transform="translate(244.95 -147.87)"/></g><path class="cls-2" d="M-53 338.26s-24.17 29.84-22.13 48.91 17 19.74 22.13 20.08 19.07-3.06 23.15-12.25c0 0 7.15 9.87 23.49 6.46s16.68-17.7 17-24.85S2.85 331-26.43 332.36s-26.57 5.9-26.57 5.9Z" transform="translate(244.95 -147.87)"/><path class="cls-3" d="M-42.77 306.49C-29.83 305.73-6.68 317.38-7 331s-12.6 15-20.09 17-46.32 6.13-51.93 6.13-30.11 1.36-31.47-14.3 26.87-30.96 67.72-33.34ZM105.05 681.19a14.12 14.12 0 0 0-5.82 1.54c-8.68 4.31-42.36 21-44.95 22.14-3 1.28-10.13 1.19-15.57-4.94s-24.6-29.44-24.6-29.44-4.31-5.94-6.7-3.9c-3 2.61 2.62 11.13 2.62 11.13s-13.11-11-15.83-6 7.49 13.78 7.49 13.78-5.36-3.45-7-1.06c-3.07 4.51 3.74 9.19 3.74 9.19l31.83 22.22s11.06 7.4 26 .93c12.44-5.4 42.77-20.37 52.41-25.15 5.33-2.91 4.13-11.04-3.62-10.44Z" transform="translate(244.95 -147.87)"/><path d="M95.11 301.38c20.42-.42 48.68 22.81 30 55.83S66 371 60.38 352.44c-6.81-22.44 1.71-50.38 34.73-51.06Z" transform="translate(244.95 -147.87)" style="fill:#feced0" id="Layer_2" data-name="Layer 2"/><path class="cls-11" d="m76.91 354.7 1.27 12.26M87.8 369.34l1.11 11.15M219.89 93.94l-5.62 5.27M226.69 79.47l-5.95 3.91M356.91 110.79l5.44 8M366.95 114.79l6.98 5.87M289.84 245.77l2.73 6.46M301.25 247.81l1.9 7.32M278.27 266.19l.85 7.66M221.93 378.87l-1.36 8.51M228.57 383.13l-.85 8.51M132.57 464.49l1.19 8M142.44 468.49l1.19 6.04"/><path class="cls-12" d="m180.23 435.72 14.63 21.15M196.91 439.13l-19.58 14.12"/><path class="cls-13" d="M-46.17 440.1s-11.4 18.73-6.64 21.79S-39 454.57-39 454.57s-3.75 20.77 3.4 21.62 15.15-20.07 15.15-20.07 2.56 12.24 8.85 12.58S-2.26 457-2.26 457" transform="translate(244.95 -147.87)"/><path class="cls-13" d="m432.31 273.02 3.58 5.94M428.14 287.38l3.41 6.47M464.91 344.91l3.15 8.51M499.12 310.79l-2.64 6.12M506.01 300.4l-1.53 2.56"/><path class="cls-13" d="M95.06 460S72.21 474.4 76 480.78 95.83 478 95.83 478s-9.06 10.6-7 15.83 10.47 1.66 10.47 1.66M97.49 532.61s-24.89 16-21.19 28.6 21.7 5 21.7 5-14 8.3-11 16.08 19.59 0 19.59 0" transform="translate(244.95 -147.87)"/><path class="cls-9" d="M104.53 403.42c-11.06 7.91-22.2 15.53-33.15 23.35s-21.75 15.83-31.45 25a119.8 119.8 0 0 0-13.37 14.53c-3.89 5.18-7.25 10.85-8.48 16.71a23 23 0 0 0-.41 4.34 19.62 19.62 0 0 0 .6 4.24 11.83 11.83 0 0 0 4.23 6.61c4.17 3.23 11 3.73 16.79 2.77h.06a3.39 3.39 0 0 1 3.9 2.78 3.44 3.44 0 0 1-1 3c-4.83 4.65-9.59 9.62-14.13 14.67s-8.92 10.29-13 15.69a167.69 167.69 0 0 0-11.35 16.76 82.69 82.69 0 0 0-8.07 18c-1.76 6.18-2.3 12.67-.16 18.11a20.67 20.67 0 0 0 4.87 7.22 14.71 14.71 0 0 0 7.45 3.8 23.23 23.23 0 0 0 9-.24 45.32 45.32 0 0 0 9.13-3 73 73 0 0 0 8.74-4.6c1.41-.86 2.81-1.77 4.17-2.72s2.74-1.95 3.94-2.91a3.29 3.29 0 0 1 4.63.5 3.32 3.32 0 0 1 .25 3.78c-2.19 3.6-4.28 7.52-6.17 11.42s-3.63 7.92-5.17 12c-3.05 8.11-5.38 16.52-6 24.94a41.93 41.93 0 0 0 .85 12.34 26.31 26.31 0 0 0 5.13 10.71 27.35 27.35 0 0 0 9.4 7.34 34.07 34.07 0 0 0 5.74 2.16 47.81 47.81 0 0 0 6.13 1.21c8.38 1.06 17.11.26 25.66-1.3a185.53 185.53 0 0 0 25.38-6.75c16.68-5.65 33-12.52 49.34-19.52a.48.48 0 0 1 .46.84 188.17 188.17 0 0 1-23.29 13.31c-4 2-8.11 3.8-12.23 5.56s-8.33 3.33-12.58 4.8A191 191 0 0 1 84.32 678c-8.89 1.69-18.08 2.67-27.4 1.59a54 54 0 0 1-6.92-1.28 40.91 40.91 0 0 1-6.76-2.47A33.41 33.41 0 0 1 31.7 667a32.71 32.71 0 0 1-6.43-13.08 48.2 48.2 0 0 1-1.14-14.16c.56-9.37 3-18.29 6.19-26.82 1.59-4.27 3.38-8.44 5.34-12.53s4-8.07 6.44-12.08l4.9 4.27c-1.49 1.2-2.88 2.22-4.36 3.25s-3 2-4.47 2.95a80 80 0 0 1-9.52 5.06 52.08 52.08 0 0 1-10.47 3.47 30.09 30.09 0 0 1-11.57.31 21.57 21.57 0 0 1-10.8-5.37 25 25 0 0 1-3.87-4.52 27.64 27.64 0 0 1-2.79-5.21 29.19 29.19 0 0 1-1.86-11.49 46.09 46.09 0 0 1 1.83-11 89 89 0 0 1 8.75-19.6A170.21 170.21 0 0 1 9.68 533c4.24-5.57 8.73-10.92 13.39-16.1s9.44-10.2 14.59-15.06l3 5.77c-1.08.2-1.92.29-2.87.38s-1.85.13-2.78.15a35.31 35.31 0 0 1-5.6-.34 23 23 0 0 1-10.92-4.33 17.76 17.76 0 0 1-4.17-4.6 19.78 19.78 0 0 1-2.36-5.59 24.63 24.63 0 0 1-.78-5.8 27.52 27.52 0 0 1 .58-5.76 39 39 0 0 1 3.93-10.32 67.22 67.22 0 0 1 5.85-8.92 127.73 127.73 0 0 1 14.18-15.26c5.06-4.68 10.35-9.07 15.77-13.25s11-8.19 16.66-11.94 11.56-7.25 17.53-10.54a184.87 184.87 0 0 1 18.43-8.89.49.49 0 0 1 .46.85Z" transform="translate(244.95 -147.87)"/></g></svg>