<svg id="Layer_1" data-name="Layer 1" xmlns="http://www.w3.org/2000/svg" viewBox="0 0 234.08 272.89"><defs><style>.cls-1{fill:#d0cad2}.cls-5{fill:#6da5b5}.cls-7{fill:#fff}</style></defs><path class="cls-1" d="M183.12 399.69c-.91 4.52-.61 91.79-.91 96.32a189.94 189.94 0 0 0 .45 20.84c.46 3.92 1.06 7.85 8 13S228 554.9 228 554.9l2.88-143.14Z" transform="translate(-180.98 -285.2)"/><path d="M225.39 423.84c-.33 6.2-.6 69.76-.6 83.65s0 41.21 1.51 45.06 6.64 4.76 13 5.06 154 .91 159.74 0 10.77-1.83 11.57-9.67 1.91-122 0-129.53-98.23-48.71-98.23-48.71Z" transform="translate(-180.98 -285.2)" style="fill:#e7e0e9"/><path d="M315.37 383.69s91.5 34.11 96 35.92 4.53-1.5 1.81-4.22-44.69-29.29-44.69-29.29-88.17-36.24-93.31-38.05-11.77-.3-16.91 3.32-73.07 43.18-76.09 46.2 0 6.87 3.92 8.87 29.3 19.52 33.52 21.63 8.76 3.62 14.8 0 80.95-44.38 80.95-44.38Z" transform="translate(-180.98 -285.2)" style="fill:#aad9e7"/><path d="m264.5 348.77 50.42 37.81a3.41 3.41 0 0 0 5.33-1.8c2.52-9.13 6-30.75-7.69-55.56s-34.82-38.42-44.4-43.6a3.4 3.4 0 0 0-5 3V346a3.39 3.39 0 0 0 1.34 2.77Z" transform="translate(-180.98 -285.2)" style="fill:#8cc6d7"/><path class="cls-1" d="M258.18 501.49c-.51 2.55-2.19 9.6-3.8 10.48s-1.21-4.93-.82-7.61 1.67-8.89 3.77-9.08 1.3 4.02.85 6.21ZM247.72 500.74c-.55 2.54-2.34 9.56-4 10.42s-1.13-4.94-.7-7.61 1.81-8.87 3.9-9 1.28 4.01.8 6.19ZM237.46 499.35c-1 2.41-4 9-5.73 9.57s-.25-5.07.65-7.62 3.33-8.42 5.42-8.2.51 4.19-.34 6.25ZM404.78 498.07c-.51 2.55-2.19 9.59-3.8 10.48s-1.21-4.93-.81-7.61 1.66-8.89 3.76-9.08 1.3 4.02.85 6.21ZM394.51 497.56c-.56 2.54-2.35 9.56-4 10.42s-1.13-5-.69-7.62 1.8-8.87 3.9-9 1.28 4.02.79 6.2ZM385 495.93c-1 2.41-4 9-5.73 9.57s-.24-5.07.65-7.62 3.33-8.42 5.42-8.21.48 4.2-.34 6.26Z" transform="translate(-180.98 -285.2)"/><path class="cls-5" d="M265.45 488.67a3 3 0 0 1-2.61-4.37c.63-1.19 6.47-11.59 13.91-11.45s12.92 10 13.53 11.12a3 3 0 1 1-5.23 2.81c-1.4-2.58-5.3-7.93-8.41-8-2.76 0-6.72 4.95-8.53 8.32a3 3 0 0 1-2.66 1.57Z" transform="translate(-180.98 -285.2)"/><path d="M315.1 507.35c1.77.23 4.85 6.15 4.85 6.15s3.43-6.15 5.56-6 5.55 5.79 5.55 5.79.6-9.11 3.91-9.12c1.81 0 4.12 2.27 5.84 4.33 3.75-3.64 5.58-8 5.63-11a9.22 9.22 0 0 0-3.48-7.31c-1.95 3.08-6.3 9.35-8.82 8.54s-2.93-6.6-3.05-9.78c-2.87 1.4-4.7 4.07-9.1 5-1 3.52-2.59 7.93-3.93 8.08-2.25.23-6-5.33-6-5.33s-1.41 6-4.14 6c-1.8 0-4.63-3.84-6.34-6.43-2.77 4.53-.54 12.3 7.76 16.4.9-2.49 4.29-5.52 5.76-5.32Z" transform="translate(-180.98 -285.2)" style="fill:#f4a497"/><path class="cls-7" d="M307.88 502.74c2.73 0 4.14-6 4.14-6s3.79 5.56 6 5.33c1.34-.15 2.9-4.56 3.93-8.08h-.15c-4.41.9-16-4-20.11 2a3.37 3.37 0 0 0-.19.32c1.75 2.59 4.58 6.43 6.38 6.43ZM334.14 498.71c2.52.81 6.87-5.46 8.82-8.54a11.18 11.18 0 0 0-10.96-1.63 9.4 9.4 0 0 0-.92.39c.13 3.18.67 9.01 3.06 9.78ZM340.81 508.47c-1.72-2.06-4-4.34-5.84-4.33-3.31 0-3.91 9.12-3.91 9.12s-3.42-5.68-5.55-5.79-5.56 6-5.56 6-3.08-5.92-4.85-6.15c-1.47-.2-4.86 2.83-5.8 5.36a28.37 28.37 0 0 0 11.24 2.68c9.35.47 16.03-2.78 20.27-6.89Z" transform="translate(-180.98 -285.2)"/><path class="cls-5" d="M365.37 472.58c-3.55-.3-8.76 3.9-8.76 10.17 0 4 3.91 8.53 8.4 8.58s7.45-4.92 7.45-9.06-2.84-9.34-7.09-9.69Z" transform="translate(-180.98 -285.2)"/></svg>