<svg id="Layer_1" data-name="Layer 1" xmlns="http://www.w3.org/2000/svg" viewBox="0 0 494.09 516.52"><defs><clipPath id="clip-path" transform="translate(-41.27 -163.75)"><ellipse class="cls-1" cx="339.86" cy="507.59" rx="46.67" ry="35.57" transform="rotate(-76.77 339.888 507.603)"/></clipPath><clipPath id="clip-path-2" transform="translate(-41.27 -163.75)"><path class="cls-1" d="M60.88 492.64v-74.7l28.32 24.91V517l-28.32-24.36z"/></clipPath><clipPath id="clip-path-3" transform="translate(-41.27 -163.75)"><path class="cls-1" d="m60.88 515.39 28.32 25.36v72.74l-28.32-23.55v-74.55z"/></clipPath><clipPath id="clip-path-4" transform="translate(-41.27 -163.75)"><path class="cls-1" d="M60.88 313.57 89.2 339.1v79.11l-28.32-25.55v-79.09z"/></clipPath><clipPath id="clip-path-5" transform="translate(-41.27 -163.75)"><path class="cls-1" d="m106.2 353.03 25.04 22.55v79l-25.04-22.35v-79.2z"/></clipPath><clipPath id="clip-path-6" transform="translate(-41.27 -163.75)"><path class="cls-1" d="m106.2 456.67 25.24 22.66-.2 74.94-26.83-23.47 1.79-74.13z"/></clipPath><clipPath id="clip-path-7" transform="translate(-41.27 -163.75)"><path class="cls-1" d="m106.2 555.06 25.24 22.55-.2 73.75L104.41 629l1.79-73.94z"/></clipPath><style>.cls-1{fill:none}.cls-9{fill:#f59288}.cls-10{fill:#f9f189}.cls-12{fill:#b1defa}</style></defs><path d="m50 602.39 86.58 73.82a17 17 0 0 0 11 4.06h370.8a17 17 0 0 0 17-17V375.76a17 17 0 0 0-5.71-12.7l-80.87-71.8a18.18 18.18 0 0 0-2.29-1.71l-197.6-123.22a17 17 0 0 0-18.2.14L64.06 274a46.37 46.37 0 0 0-21.21 38.7l-1.58 270.55A25 25 0 0 0 50 602.39z" transform="translate(-41.27 -163.75)" fill="#76c7d0"/><path fill="#d0eefb" d="M281.23 94.81 107.71 204.82v294.71h371.63V217.34L281.23 94.81z"/><path d="m111.14 72.89 80.2-52.17 31 26.09-80.69 52.62-30.51-26.54zm42.12 36.67 30.04 25.93 80.72-52.17-28-23.95-82.76 50.19zM94.74 83.03l28.32 25.34L53 154.88l-29.81-25.94 71.55-45.91zm43.63 37.76 29.37 24.74-71.81 46.62-29.51-25.94 71.95-45.42zM19.61 149.81l28.32 25.54v79.11l-28.32-25.55v-79.1zm45.32 39.46 25.04 22.56v79l-25.04-22.36v-79.2zm0 103.65 25.23 22.66-.19 74.93-26.83-23.46 1.79-74.13zm0 98.38 25.23 22.56-.19 73.74-26.83-22.36 1.79-73.94zm-45.32-39.67 28.32 25.36v72.75l-28.32-23.55v-74.56zm0-22.74v-74.7l28.32 24.91v74.15l-28.32-24.36z" style="fill:#e4f8fc"/><ellipse cx="339.86" cy="507.59" rx="46.67" ry="35.57" transform="rotate(-76.77 215.89 451.772)" fill="#66b4bf"/><g clip-path="url(#clip-path)"><path d="M288.32 526.57s18.41-31.6 52.61-29 58.87 32.9 58.87 32.9l2.2-90.91-110-9.09z" transform="translate(-41.27 -163.75)" fill="#4da0aa"/></g><path d="M228.08 494.7s3.32-24 26.27-24.4 30.73 22.07 30.73 22.07m111.68-1.28s7.92-21.38 30.83-20c23.58 1.43 26.18 23.67 26.18 23.67" transform="translate(-41.27 -163.75)" style="stroke:#4da0aa;stroke-linecap:round;stroke-miterlimit:10;stroke-width:9px;fill:none"/><path class="cls-9" d="M184 528.82s-4.47-18 4.47-21.23 12.53 12 12.53 12 9.54-11.93 17.29-6 0 18.18 0 18.18 8.94 5.37 5.36 13.72-15.65 6.29-15.65 6.29-1.75 10.42-7.15 10.43c-7.66 0-9.39-13.41-9.39-13.41s-14.31 8.05-19.08-.9S184 528.82 184 528.82zm278.62-12.97S465 500.5 476 500.5s10 14 10 14 10.44-5.07 13.12 1.34-7.6 14.91-7.6 14.91 4 12.22-1.79 16.1-12.67-4.47-12.67-4.47-2.38 10.13-12.07 7.9-4-15.61-4-15.61-11.79-1.67-11.93-10.32 13.56-8.5 13.56-8.5z" transform="translate(-41.27 -163.75)"/><ellipse class="cls-10" cx="157.13" cy="370.54" rx="7.1" ry="7.3"/><ellipse class="cls-10" cx="433.05" cy="361.8" rx="7.1" ry="7.3"/><g clip-path="url(#clip-path-2)"><path class="cls-12" d="M73.7 426.41s13.72 47.41 7.3 59.48c0 0-6.71-25.94-21.32-22.06s-4.17 36.67-4.17 36.67l35.19 20.57 3.57-76.92-8.34-10.88z" transform="translate(-41.27 -163.75)"/><path class="cls-9" d="M79.22 477.84s-9.84 2.39-9.39 9.84 9.39 12.22 9.39 12.22-.92 14.23 7.13 16.49c0 0 6.88 3.34 7.33-12.76s0-27.13 0-27.13 1.49-8.05-6.41-7.6-8.05 8.94-8.05 8.94z" transform="translate(-41.27 -163.75)"/><ellipse class="cls-10" cx="48.08" cy="328.7" rx="6.26" ry="7.01"/></g><g clip-path="url(#clip-path-3)"><path class="cls-12" d="M80.71 526.29s-9.24 19.08-8.5 40.39c0 0-8-27.72-16.1-28.32s0 60.82 0 60.82l30.41 18.64 5.37-3.43 2.53-43.08s-8.2-1.35-16.25 12.37c0 0 6.56-19.83 15.66-26.68s-13.12-30.71-13.12-30.71z" transform="translate(-41.27 -163.75)"/></g><g clip-path="url(#clip-path-4)"><path class="cls-12" d="M72.51 415.23s-7-33.09 7.15-35.48 16.4 34.74 16.4 34.74L94 426z" transform="translate(-41.27 -163.75)"/></g><g clip-path="url(#clip-path-5)"><path class="cls-9" d="M139.29 407.93s-20.68-2.24-21.37 10.28 18.24 22.66 18.24 22.66z" transform="translate(-41.27 -163.75)"/></g><g clip-path="url(#clip-path-6)"><path class="cls-12" d="M108.43 451.75s14 7.68 9.49 24.9a44.91 44.91 0 0 1-21.41 27.72s11.78 10 13.56 19.08-7 18.14-7 18.14l10.28 5.27s-2.83-10.73 2.54-16.7 21.76-6.26 21.76-6.26l-1.79 37.27-39.35-14.91-3.28-43.08 4.32-45.46 6.86-9.84z" transform="translate(-41.27 -163.75)"/><path class="cls-9" d="M136 508.85s-18.6-6.26-19.09 4.62c-.35 7.8 6.27 15.65 6.27 15.65s-6.41 15.06.45 18.48 13-9.83 13-9.83z" transform="translate(-41.27 -163.75)"/><ellipse class="cls-10" cx="92.5" cy="360.82" rx="6.11" ry="8.42"/></g><g clip-path="url(#clip-path-7)"><path class="cls-12" d="M120.66 560.87s5.07 32.35 5.07 58.58c0 0-2.24-10.13-10.14-9.39s-9.39 24.75-9.39 24.75L133 657l2.24-87.5z" transform="translate(-41.27 -163.75)"/><ellipse class="cls-9" cx="62.81" cy="467.4" rx="13.84" ry="14.98"/></g></svg>