<svg id="Layer_1" data-name="Layer 1" xmlns="http://www.w3.org/2000/svg" viewBox="0 0 238.12 206.58"><defs><style>.cls-4{fill:#3a68ab}</style></defs><path d="M183.07 383s.58 69.2 0 76.91 1.54 37.58 2.12 40.09 2.7 5.2 5.78 7.71 19.28 14.46 23.52 15.52l-1.35-116.4Z" transform="translate(-178.19 -318.41)" style="fill:#4d7bbe"/><path d="M207.93 406.52s-1 70-.61 80 1.58 28.71 3.12 31.41 1.54 5.59 10.79 6.55 178.1.39 182.34-.19 5.78-3.66 6.17-6.36.38-103.5.38-103.5l-110.06-66.32Z" transform="translate(-178.19 -318.41)" style="fill:#628dc9"/><path d="M299.45 355.47a4.75 4.75 0 0 1 5.19-.16c16.38 9.9 103.36 62.46 107 63.16 4 .77 5.79-3.28 3.86-6.75s-25.61-26.3-33-32.92c-5.4-4.82-103.24-57.48-106.13-59a11 11 0 0 0-11.57.58c-4.24 2.89-84 54.35-85.58 56.86a6.16 6.16 0 0 0 1.35 8.29c2.9 2.31 27 26.21 28.92 27.56s4.81 1.35 7.71-.58c2.57-1.74 68.4-47.43 82.25-57.04Z" transform="translate(-178.19 -318.41)" style="fill:#aad9e7"/><path class="cls-4" d="M307.84 479.3a13.2 13.2 0 0 1-4.58-.71 2.5 2.5 0 0 1 1.86-4.65 11.92 11.92 0 0 0 8.66-1.13 7.45 7.45 0 0 0 3.59-6 5.8 5.8 0 0 0-1.73-5.21c-2.86-2.66-8.24-2.87-9.12-2.71a2.53 2.53 0 0 1-2.93-2 2.48 2.48 0 0 1 1.91-2.89c2.19-.46 9.16 0 13.42 3.83a10.76 10.76 0 0 1 3.42 9.5 12.44 12.44 0 0 1-6 9.8 16.74 16.74 0 0 1-8.5 2.17ZM273.93 433.87c1 .81 2.84 3.93-4.08 3.44-4.51-.32-20.18-5.48-22.75-7.41s-1.29-3 2.25-3c2.36 0 18.78 2.47 24.58 6.97ZM342.21 436c-1 .8-2.85 3.93 4.07 3.43 4.51-.32 20.18-5.47 22.76-7.4s1.28-3-2.26-3c-2.36-.03-18.78 2.43-24.57 6.97Z" transform="translate(-178.19 -318.41)"/><ellipse class="cls-4" cx="86.22" cy="128.88" rx="8.1" ry="10.68"/><ellipse class="cls-4" cx="173.27" cy="130.27" rx="8.1" ry="10.68"/><path class="cls-4" d="M290.72 497.39a24.8 24.8 0 0 1-9.66-1.8c-12.13-5.17-20.05-17.29-20.39-17.81a3 3 0 0 1 5-3.25c.08.11 7.3 11.1 17.7 15.54 6 2.57 13.59.6 13.67.57a3 3 0 0 1 1.57 5.8 33.13 33.13 0 0 1-7.89.95Z" transform="translate(-178.19 -318.41)"/><path d="M285.3 449.43c-1 2.75.14 8.83 5.9 9 7.41.24 8.4-5.44 17.07-6.12 10.94-.86 11.48 6 15.56 6.33s6.33-2.79 5.26-7.29-9-14.38-21.68-14.49-20.41 7.85-22.11 12.57Z" transform="translate(-178.19 -318.41)" style="fill:#f3bc85"/><path d="M299.25 441.6a7.93 7.93 0 0 0 .33 8.37c2 2.79 4.5.43 7.61.32s6.89.62 7.95-.36c1.93-1.78 2.14-5.65 1-8.44s-13.35-5.04-16.89.11Z" transform="translate(-178.19 -318.41)" style="fill:#f8d1ab"/></svg>