<svg data-name="Layer 1" xmlns="http://www.w3.org/2000/svg" viewBox="0 0 253.8 335.35"><path d="M265.29 371.45s-29.39 44.08-36.9 95.94c-7.26 50.15-9.86 119.28-7.13 121.67s16.14 2.28 18.56-.68-2-67.21 6.58-118.3 19.09-79.32 30.12-92.63Z" transform="translate(-173.44 -255.39)" style="fill:#9cc993"/><path d="M283.75 324.43s-19.59-30.59-46.85-31c-20.15-.29-10.65 15.48-10.65 15.48a16.44 16.44 0 0 0-3.22 4.93c-.7 2.26.86 5.14.86 5.14s-34.11-3.7-46.63 13.46c-13.12 18 11.76 23.12 11.76 23.12s-9.7 15.87 4.36 22.27c10.84 4.93 40.63-11.6 40.63-11.6s3.11 8.25 10.66 10.74 18.45-3.11 18.45-3.11l17.29-13.95s24.65 9.46 36.44 9.46 14.47-4.64 14.47-4.64 7.14 3 14.28 2.32a18.88 18.88 0 0 0 11.61-6.05s14.65 8.22 32.51-.89 10.36-30.37 10.36-30.37 23.35-4.08 26.79-27.14c4.13-27.51-27.68-19.6-27.68-19.6a23.55 23.55 0 0 0-11.61-24.47c-11.8-7-44.3-2.5-67.87 17.86s-35.96 48.04-35.96 48.04Z" transform="translate(-173.44 -255.39)" style="fill:#cae2be"/><path d="M286.7 340.51c-15.24-5.13-25.95 10.4-27.7 16.38-2.72 9.32-.69 18.3 8.84 21.88s21.62-2.21 26.27-14.63.94-20.81-7.41-23.63Z" transform="translate(-173.44 -255.39)" style="fill:#b78c72"/><path d="M297 342.07c-14.33 1.95-14.67 20.9-13.75 27 1.43 9.46 8.39 16.79 17.5 15.89s14.83-11.43 13.76-24.47S304.88 341 297 342.07Z" transform="translate(-173.44 -255.39)" style="fill:#c19982"/></svg>