<svg id="Layer_1" data-name="Layer 1" xmlns="http://www.w3.org/2000/svg" viewBox="0 0 178.3 271.28"><defs><style>.cls-3{fill:#b0ddea}</style></defs><path d="M251.44 274.24c-80.08 44.37-144.36 39.62-151.32 84.36-4.77 30.62 40.34 32.6 38.09 51.71-4.76 40.53-91.16 55.1-57.14 106.12 27 40.54 136.74 28.58 168.71 14.29 0 0 1.86-183.58 1.66-256.48Z" transform="translate(-73.16 -274.24)" style="fill:#cde9f4"/><path d="M135.34 474.82s-1.52 1.87-2 1.13c-1-1.47-2.72-3.89-3.45-5.17-1.1-1.91.15-4.81 3.67-5.15s9-.93 9-.93 6.28-8.83 7.74-10.61 3.12-2.3 5.08 0 7.21 10.05 7.21 10.05 8.51.51 10.2.41 4.33 1.6 2.37 4.39c-.94 1.35-2.13 3.1-3.1 4.56S169 473 169 473l-4.18 3.46-8.2.21-4.13-2.67-4.71 2.83-9.76.25Z" transform="translate(-73.16 -274.24)" style="fill:#fff"/><path class="cls-3" d="M222.16 359a8.19 8.19 0 0 1-3.07 2.65 11.11 11.11 0 0 1-4 1.15 10.59 10.59 0 0 1-4.18-.37 11.4 11.4 0 0 1-3.85-1.95l1.54-.09a14.6 14.6 0 0 1-4.37 3.54 12.65 12.65 0 0 1-5.57 1.47 14.2 14.2 0 0 1-5.7-1.15 17 17 0 0 1-2.57-1.35c-.41-.26-.81-.53-1.2-.83a11.36 11.36 0 0 1-1.17-1l2.94.07a8 8 0 0 1-.64.6c-.2.17-.4.32-.6.47a12.75 12.75 0 0 1-1.26.8 13.26 13.26 0 0 1-2.7 1.12 15.22 15.22 0 0 1-5.68.47 17.3 17.3 0 0 1-5.3-1.44 8.68 8.68 0 0 1-2.36-1.57 3.3 3.3 0 0 1-1.18-2.62h.4a3 3 0 0 0 1.63 1.41 9.6 9.6 0 0 0 2.21.59 23.85 23.85 0 0 0 4.69.18 14.9 14.9 0 0 0 6.28-1.8 10.37 10.37 0 0 0 .91-.54l.41-.28.32-.24.37-.27a1.88 1.88 0 0 1 2.57.35c.15.18.46.49.71.74s.55.51.84.75a11.84 11.84 0 0 0 1.87 1.27 10.21 10.21 0 0 0 4.25 1.26 9.76 9.76 0 0 0 4.39-.81A12.6 12.6 0 0 0 207 359l.08-.08a1.06 1.06 0 0 1 1.46 0 10 10 0 0 0 3 1.88 9.06 9.06 0 0 0 3.54.71 10.11 10.11 0 0 0 3.65-.65 7.81 7.81 0 0 0 3.11-2.07ZM200.7 431.66a10.33 10.33 0 0 0 3.82 1.8 12.57 12.57 0 0 0 4.14.28 11.3 11.3 0 0 0 3.86-1 10.2 10.2 0 0 0 1.71-1c.26-.18.52-.38.76-.58a5 5 0 0 0 .61-.59l2.62.35s.1.1.17.15a2.75 2.75 0 0 0 .26.22 4.17 4.17 0 0 0 .6.4 6.73 6.73 0 0 0 1.37.54 15.68 15.68 0 0 0 3.1.51 18.41 18.41 0 0 0 3.48-.06 10.8 10.8 0 0 0 3.57-1.05l.33.23a6.48 6.48 0 0 1-2.93 3.37 10.77 10.77 0 0 1-4.3 1.42 8.74 8.74 0 0 1-4.71-.64 8.07 8.07 0 0 1-2.12-1.36 7.67 7.67 0 0 1-.89-.91c-.14-.16-.27-.33-.4-.51a6.25 6.25 0 0 1-.42-.65l2.67.42a9.1 9.1 0 0 1-1.1.8c-.36.23-.73.44-1.1.63a12.85 12.85 0 0 1-2.29.91 13.13 13.13 0 0 1-4.81.5 13.86 13.86 0 0 1-4.55-1.15 10 10 0 0 1-3.7-2.74ZM192.08 516.55a13.36 13.36 0 0 0 4.25 1.07 14.73 14.73 0 0 0 4.3-.25 12.1 12.1 0 0 0 3.82-1.7 20.51 20.51 0 0 0 3.29-2.67 1.17 1.17 0 0 1 1.51-.15l.13.1a13.12 13.12 0 0 0 1.76 1 14.23 14.23 0 0 0 6 1.34 12.22 12.22 0 0 0 3.95-.66 14 14 0 0 0 1.82-.77c.29-.14.57-.31.84-.47a8.06 8.06 0 0 0 .7-.45l2.76.21.22.19.32.26.71.48a12.22 12.22 0 0 0 1.56.83 14.15 14.15 0 0 0 3.55 1 9.15 9.15 0 0 0 1.8.13 11.5 11.5 0 0 0 1.87-.26 16.31 16.31 0 0 0 3.82-1.49l.28.28a10.09 10.09 0 0 1-3.27 3.16 9.41 9.41 0 0 1-4.62 1.42 13.33 13.33 0 0 1-4.79-.58 11.66 11.66 0 0 1-2.28-1 9.69 9.69 0 0 1-1.08-.68 9.54 9.54 0 0 1-1.09-.92l2.76.22a11.34 11.34 0 0 1-1.23.75q-.6.3-1.2.54a14.76 14.76 0 0 1-2.49.73 17.37 17.37 0 0 1-5.08.27 17.77 17.77 0 0 1-4.85-1.14 15.05 15.05 0 0 1-4.33-2.54l1.64-.05a21.38 21.38 0 0 1-4 2.64 13.38 13.38 0 0 1-4.59 1.44 15.92 15.92 0 0 1-4.68-.27 12.73 12.73 0 0 1-4.3-1.7ZM117.72 476.2a15.27 15.27 0 0 0 4.38 1.41 14.07 14.07 0 0 0 4.53.09 16.57 16.57 0 0 0 4.32-1.29 16.26 16.26 0 0 0 3.77-2.33 1 1 0 0 1 1.19 0l.08.06a11.8 11.8 0 0 0 3.83 1.83 10.55 10.55 0 0 0 4.21.28 11.53 11.53 0 0 0 4-1.38 15.93 15.93 0 0 0 3.39-2.55 1.55 1.55 0 0 1 2.18 0l.11.11a8.13 8.13 0 0 0 .76.64c.3.22.61.42.93.61a9.76 9.76 0 0 0 2 .89 9.66 9.66 0 0 0 4.26.36 8.56 8.56 0 0 0 3.8-1.5A11.48 11.48 0 0 0 167 472c.24-.26.47-.53.7-.8s.45-.61.56-.78l.08-.13a2 2 0 0 1 2.79-.64 2.15 2.15 0 0 1 .5.45 21.57 21.57 0 0 0 1.63 1.77 16.3 16.3 0 0 0 1.87 1.58 9.86 9.86 0 0 0 4.19 1.91l.56.06H181.79a17 17 0 0 0 2.55-.26 15.93 15.93 0 0 0 5-1.74l.27.29A12.64 12.64 0 0 1 185 477a16.71 16.71 0 0 1-2.78.9c-.48.09-1 .21-1.45.26l-.74.1h-.81a12.14 12.14 0 0 1-6-1.82 20.65 20.65 0 0 1-2.47-1.74 17.6 17.6 0 0 1-2.21-2.13l3.37-.32a10.74 10.74 0 0 1-.86 1.36 10.63 10.63 0 0 1-1 1.15 12 12 0 0 1-2.3 2 11.52 11.52 0 0 1-5.75 1.94 13.62 13.62 0 0 1-8.41-2.35 12.44 12.44 0 0 1-1.17-.89 10.21 10.21 0 0 1-1.11-1.09l2.28.08a18.4 18.4 0 0 1-4.31 2.87 14.2 14.2 0 0 1-5 1.38 13.25 13.25 0 0 1-9.6-3.18h1.28a18.49 18.49 0 0 1-9.21 3.33 15.1 15.1 0 0 1-4.84-.47 16 16 0 0 1-4.41-1.89ZM246.3 278.26c-5.78 3.31-11.74 6.26-17.71 9.19s-12.08 5.55-18.19 8.25-12.16 5.47-18.52 7.46a131.93 131.93 0 0 1-19.42 4.84l-.13-.38c3-1.61 6-3 9-4.34 1.51-.7 3-1.33 4.56-2l4.6-1.9c3.07-1.24 6.17-2.37 9.31-3.44s6.27-2.13 9.39-3.24c6.22-2.27 12.42-4.62 18.56-7.1s12.29-5 18.34-7.72ZM108.28 380.81a40.86 40.86 0 0 0 6.79 4.28l7.18 3.75c1.2.64 2.45 1.22 3.67 1.86a17.74 17.74 0 0 1 3.46 2.35 16.39 16.39 0 0 1 1.53 1.48 12 12 0 0 1 1.38 1.69 9.17 9.17 0 0 1 1.76 4l-.35.19c-1.2-.84-2.21-1.54-3.35-2.2l-.83-.51-.85-.48-1.67-1c-.54-.35-1.1-.69-1.64-1.06s-1.06-.78-1.59-1.18c-1-.84-2.1-1.68-3.19-2.46l-3.32-2.35c-1.1-.81-2.2-1.62-3.29-2.46a35.32 35.32 0 0 1-6-5.68ZM81.16 473.75A34.35 34.35 0 0 0 76.31 504a38.8 38.8 0 0 0 7.48 13.69 50.47 50.47 0 0 0 12 10c1.14.65 2.24 1.38 3.42 2l3.53 1.79c2.42 1.07 4.83 2.14 7.33 3q7.45 2.72 15.17 4.68a225.46 225.46 0 0 0 31.63 5.46v.4a98.55 98.55 0 0 1-16.3.21 115.66 115.66 0 0 1-16.23-2.18 87 87 0 0 1-15.72-4.88 83.41 83.41 0 0 1-14.56-7.77 53 53 0 0 1-12.31-11.09 41.05 41.05 0 0 1-7.39-14.8c-2.82-10.7-.51-22.67 6.47-31.07Z" transform="translate(-73.16 -274.24)"/></svg>