<svg xmlns="http://www.w3.org/2000/svg" viewBox="0 0 178.93 345.92"><defs><style>.cls-2{fill:#aedeeb}</style></defs><g id="Layer_1" data-name="Layer 1"><path d="M727.9 422.55c4.15 8.31 21.53 28.7 52.49 51.74s43.43 44.56 45.7 73.64-1.14 38.52 29.83 70.24c26.9 27.56 47.59 50.6 50.61 78.17s-16.29 61.88-66.47 69.11c-41.92 6-85 3.39-112.16-11.34" transform="translate(-727.9 -422.55)" fill="#cbeef8"/><path class="cls-2" d="M833.85 589.71a25.64 25.64 0 0 0 2.06 4.53c.4.73.84 1.44 1.26 2.16l1.37 2.09a95.59 95.59 0 0 0 6.09 8 123.77 123.77 0 0 0 13.92 14.3l7.75 6.48a91.93 91.93 0 0 1 7.34 7c2.3 2.5 4.54 5.06 6.61 7.76q1.56 2 3 4.17a29 29 0 0 1 2.5 4.5l-.34.22c-4.69-4.82-9.7-9.24-14.56-13.82s-9.47-9.33-14.44-14a127.52 127.52 0 0 1-13.33-15.42 95.82 95.82 0 0 1-5.55-8.53 36 36 0 0 1-4-9.33zM727.9 757.15c4.36 2 1.23.94 7.63 2.67l9.7 2.85a92.85 92.85 0 0 0 9.92 2.2c3.35.53 6.72 1 10.12 1.18 1.7.12 3.41.17 5.12.16a28.57 28.57 0 0 0 5.13-.42v-.4c-6.61-1.22-13.07-2.94-19.57-4.44s-13-2.69-19.66-4.24c-6.68-1.39-5.47-1.77-8.38-2.6zm161.25-102.21a10.87 10.87 0 0 1 3.85 3c1 1.17 1.35 2.76 2 4.17s1.22 2.85 1.76 4.31 1.07 2.93 1.47 4.45l-.36.17-2.87-3.6q-1.43-1.82-2.79-3.67c-.91-1.23-2.14-2.28-2.66-3.75a10 10 0 0 1-.75-4.89z" transform="translate(-727.9 -422.55)"/><path d="m785.49 665.28 9.85.21 7.8-9.23a1 1 0 0 1 1.51 0l8.7 10.13 6.32.47a1.64 1.64 0 0 1 1.13.56l1.68 1.88a4.37 4.37 0 0 1 .47 5.16l-4.86 8-4.19-3-2.2-2.46-7.14 3.57-4.75.51-4.6-2.11-2.78-2.87-2.37.93-5.35-10.47a.85.85 0 0 1 .78-1.28z" transform="translate(-727.9 -422.55)" fill="#fff"/><path class="cls-2" d="M757 625.1a7.24 7.24 0 0 0 3.9 1.7 11.41 11.41 0 0 0 4.24-.27 8.56 8.56 0 0 0 3.58-1.74 7.18 7.18 0 0 0 1.32-1.38 7.57 7.57 0 0 0 .5-.8 4.63 4.63 0 0 0 .33-.74 1.51 1.51 0 0 1 2.66-.62l.45.56c.09.1.27.37.43.55a7.2 7.2 0 0 0 .54.56 6.74 6.74 0 0 0 1.2.87 7.14 7.14 0 0 0 2.57.93 7.83 7.83 0 0 0 3.12-.2 14.63 14.63 0 0 0 3.46-1.52l.32.23a7.3 7.3 0 0 1-2.49 3.64 7.82 7.82 0 0 1-4.47 1.73 7.17 7.17 0 0 1-4.85-1.47 8.31 8.31 0 0 1-1.72-1.79 10.87 10.87 0 0 1-.64-1 9.71 9.71 0 0 1-.56-1.16l3.12-.07a7.45 7.45 0 0 1-.78 1.26 9.49 9.49 0 0 1-.86 1 10.69 10.69 0 0 1-2.06 1.67 10.54 10.54 0 0 1-4.86 1.53 12.55 12.55 0 0 1-4.84-.55 7.48 7.48 0 0 1-3.93-2.71zm19 51.31a8.42 8.42 0 0 0 3.69 2.65 10.35 10.35 0 0 0 4.48.57 9.45 9.45 0 0 0 4.17-1.34 9.16 9.16 0 0 0 1.73-1.31 8.49 8.49 0 0 0 1.31-1.59 1.17 1.17 0 0 1 1.6-.4 1.18 1.18 0 0 1 .33.3l.08.11a9.88 9.88 0 0 0 1.68 1.68 12 12 0 0 0 2 1.34 10.7 10.7 0 0 0 9.28.36 21.14 21.14 0 0 0 2.2-1.06 20.83 20.83 0 0 0 2-1.27 2.09 2.09 0 0 1 2.92.42 2.2 2.2 0 0 1 .17.25 6.65 6.65 0 0 0 .44.67c.19.24.39.49.6.72a9.27 9.27 0 0 0 1.39 1.27 7.42 7.42 0 0 0 1.64.94 8.06 8.06 0 0 0 1.86.58 9.62 9.62 0 0 0 4.06-.09 12.56 12.56 0 0 0 4.08-1.82l.31.26a9.44 9.44 0 0 1-3.59 3.5 8.71 8.71 0 0 1-2.44 1 10.13 10.13 0 0 1-2.69.35 11 11 0 0 1-7.57-3.13 11.73 11.73 0 0 1-.94-1 9.31 9.31 0 0 1-.85-1.29l3.1.7a12.87 12.87 0 0 1-1.34.86 14.3 14.3 0 0 1-1.35.69 17.49 17.49 0 0 1-2.84 1 15.66 15.66 0 0 1-6.11.52 14.58 14.58 0 0 1-5.73-2 14.28 14.28 0 0 1-2.39-1.83 12 12 0 0 1-2-2.39h2a10.48 10.48 0 0 1-1.91 2 11.23 11.23 0 0 1-2.23 1.39 11.11 11.11 0 0 1-5 1.07 11.47 11.47 0 0 1-4.9-1.14 8.85 8.85 0 0 1-3.66-3.33zm-44.6 35.29a11.06 11.06 0 0 0 3.82 1.68 7.46 7.46 0 0 0 1.91.21 8.68 8.68 0 0 0 1.86-.23 7 7 0 0 0 1.78-.68 8.32 8.32 0 0 1 1.68-.64c1.2-.31 2.43-.61 4.16-1l.32.24a5.77 5.77 0 0 1-2.74 4.32 5.4 5.4 0 0 1-2.41.87 19.71 19.71 0 0 1-2.54 0 11 11 0 0 1-2.51-.33 10.25 10.25 0 0 1-2.29-1 10.7 10.7 0 0 1-3.34-3.14zm48.83-154.06a8.38 8.38 0 0 1-3.32 2.34 11.12 11.12 0 0 1-4 .74 10.67 10.67 0 0 1-4.13-.78 11.15 11.15 0 0 1-3.63-2.32h1.54a14.53 14.53 0 0 1-4.7 3.09 12.57 12.57 0 0 1-5.69.91 14.2 14.2 0 0 1-5.6-1.62 17.71 17.71 0 0 1-2.42-1.59c-.38-.3-.75-.62-1.11-1a10.92 10.92 0 0 1-1.06-1.14l2.92.36a6.8 6.8 0 0 1-.7.53c-.21.15-.43.28-.65.41a11 11 0 0 1-1.33.67 13.71 13.71 0 0 1-2.8.85 15.31 15.31 0 0 1-5.69-.09 17.81 17.81 0 0 1-5.13-2 8.82 8.82 0 0 1-2.2-1.81 3.26 3.26 0 0 1-.91-2.72l.39.05a3 3 0 0 0 1.49 1.57 9.63 9.63 0 0 0 2.14.8 24 24 0 0 0 4.65.65 16 16 0 0 0 4.4-.48 17.31 17.31 0 0 0 2-.69c.32-.14.65-.28.95-.44s.3-.16.44-.25l.34-.2.4-.23a1.87 1.87 0 0 1 2.52.6 9.74 9.74 0 0 0 .63.8c.24.29.49.57.76.84a11.48 11.48 0 0 0 1.77 1.51 9.48 9.48 0 0 0 8.55 1.32 12.73 12.73 0 0 0 4.11-2.16l.09-.08a1.06 1.06 0 0 1 1.46.13 10 10 0 0 0 2.76 2.17 9.22 9.22 0 0 0 3.46 1 10 10 0 0 0 3.69-.28 7.81 7.81 0 0 0 3.3-1.75zM849.08 715a9.85 9.85 0 0 0 3.48 2.61 8.88 8.88 0 0 0 4.14.77 8.37 8.37 0 0 0 3.88-1.19 7.82 7.82 0 0 0 1.57-1.23 7.23 7.23 0 0 0 1.16-1.5A1.24 1.24 0 0 1 865 714a1.18 1.18 0 0 1 .38.32l.13.17a7.57 7.57 0 0 0 1.13 1.14 6.59 6.59 0 0 0 1.4.88 6.26 6.26 0 0 0 6.09-.42 7.24 7.24 0 0 0 1.22-1c.19-.19.37-.38.53-.57s.36-.45.41-.53a2 2 0 0 1 2.68-.68l.14.09.24.17a17 17 0 0 0 1.43.94 14.69 14.69 0 0 0 1.63.83 12.36 12.36 0 0 0 3.46 1 7.4 7.4 0 0 0 3.49-.45 12.42 12.42 0 0 0 3.49-2.05l.34.22a8.84 8.84 0 0 1-2.71 3.71 8.36 8.36 0 0 1-4.6 1.88 12.33 12.33 0 0 1-4.87-.56 14.81 14.81 0 0 1-2.24-1 11.66 11.66 0 0 1-2.11-1.42l3.06-.43a7.27 7.27 0 0 1-.87 1c-.29.28-.59.55-.9.8a10.63 10.63 0 0 1-2.06 1.26 10.2 10.2 0 0 1-4.69 1 9.64 9.64 0 0 1-4.54-1.28 9.47 9.47 0 0 1-1.85-1.4 9.07 9.07 0 0 1-1.49-1.86h2.2a9.29 9.29 0 0 1-1.81 1.92 9.86 9.86 0 0 1-7 2.25 10.06 10.06 0 0 1-4.59-1.43 9.89 9.89 0 0 1-3.34-3.28z" transform="translate(-727.9 -422.55)"/></g></svg>