<svg xmlns="http://www.w3.org/2000/svg" viewBox="0 0 248.8 252.02"><g data-name="Layer 1"><path d="M824.3 476.19c-21.6 1.58-37.5 20.91-35.69 44.7s24.87 35.33 41.81 34.25 38.94-17.31 35.33-44.7-26.67-35.33-41.45-34.25zm55.3 93.68c-19.84 1.42-34.43 18.7-32.78 40s22.85 31.59 38.41 30.62 35.75-15.47 32.44-40-24.5-31.58-38.07-30.62zm-186.3 35.92c-14.5 1.06-25.18 14-24 29.88s16.71 23.62 28.09 22.9 26.15-11.57 23.73-29.88-17.89-23.62-27.82-22.9zm30.05-88.87c-18.38 0-40.38 16.59-39.29 42.91s24.15 37.49 41.09 37.13 38.22-13.7 38.58-38.94-18.39-41.1-40.38-41.1zM783.5 547c-6.12.25-14.31 4.83-14 15.28s8.07 15.46 14.73 15.55c8.29.11 15.86-5.41 15.5-15.5s-7.58-15.68-16.23-15.33zm-33.42 66.56c-7.5.31-17.52 5.86-17.08 18.54s9.88 18.75 18 18.86c10.16.14 19.43-6.56 19-18.8s-9.32-19.04-19.92-18.6zm70.73-15.62c-7.33.3-17.12 5.67-16.69 17.94s9.65 18.14 17.62 18.24c9.92.13 19-6.34 18.55-18.19s-9.13-18.41-19.48-17.99z" transform="translate(-669.24 -476.09)" style="fill:#ffc7da"/><path d="M207.49 134.64c-1.34-1.87-4.07-1.66-12.94 3.1-7.6 4.08-26.79 18.48-38 26.74.08-5.27.18-13 .18-16.48 0-5.53-.79-10.53-4.47-10s-3.95 6-3.95 8.95c0 2.05-.27 15.92-.42 23.89-7.27 5.45-17.94 13.8-23.91 18.51 0-21.66.1-43.76.12-50.3 7.19-17.85 28-69.42 32.69-79 5.65-11.66 3.36-13.43 1.59-14.49s-4.59-.35-7.24 4.6c-1.85 3.44-13 30.67-20.79 49.95-3.74-7-11.33-18.53-14.64-11.25-1.7 3.74 7.39 16.52 10.71 21l-3.36 8.31c-2.11 5.23-4.68 12.24-6.51 17.3-9.89-9.38-45.28-42.91-48.36-45.31-3.58-2.78-7.55-8-10.74-4.37-3.73 4.2 7.16 12.33 12.34 17.9 3.93 4.23 28.93 28 40.67 39.07-.4 10.9-1.23 33.29-1.94 51.25-2.58-1.23-6.74-3.23-11.65-5.62-2.11-6.36-7.11-21.33-9.63-27.48s-5-9-7.63-8.16-2.11 3.69-1.06 8.43c.75 3.37 5.11 15.29 7.55 21.86-10.82-5.39-22.35-11.31-28.39-15-13.37-8.19-24.84-16.79-27.84-12.83s7.64 10.51 16.51 16 38.91 22.25 47.09 25.8c4.27 1.84 10.08 4.58 14.67 6.77-.09 2.37-.19 4.57-.27 6.54-1 22.43-1.3 36.41.65 39s5.71 3.09 11.2 2.53c6.89-.71 4.73-6.44 4.41-14.56-.13-3.21-.16-19.44-.15-37.93 3.83-3.22 9-7.6 12.4-10.34 5.84-4.76 47.36-34.6 56.23-40s17.57-10.65 14.88-14.38z" fill="#d58aa3"/></g></svg>