<svg data-name="Layer 1" xmlns="http://www.w3.org/2000/svg" viewBox="0 0 131.06 161.03"><path d="M749.28 680.6v13a5.7 5.7 0 0 0 2.16 4.53 14.52 14.52 0 0 0 9.07 2.94 19.49 19.49 0 0 0 8.64-1.92 5.84 5.84 0 0 0 3.28-5.24v-16Z" transform="translate(-696.76 -540)" style="fill:#9b6d5f"/><path d="M820.57 676.85c-24.57 13.28-58.36 12.6-58.36 12.6s-33.7.68-58.21-12.6 21.11-65.7 21.11-65.7c-8.85-15.66 15-39.49 15-39.49-5.11-12.26 13.59-31.32 22.1-31.66 8.53.34 27.3 19.4 22.18 31.66 0 0 23.89 23.83 15 39.49.02 0 45.75 52.42 21.18 65.7Z" transform="translate(-696.76 -540)" style="fill:#71cb69"/></svg>