<svg data-name="Layer 1" xmlns="http://www.w3.org/2000/svg" viewBox="0 0 195.23 293.91"><path d="M385.58 353c-2.53.88-28.27 12-40.23 16.13 20.81-19.1 25-30.94 28.72-37.54 3.91-6.91 10.34-24 11.26-28.63s.15-23.63-7.44-4.29c-.88 2.24-3.84 14-9.53 26.3-1-5.93-2.6-15.31-3.5-19.4-1.39-6.22-7.37-17.73-7.83.46-.08 3.07 2.36 23 3.87 32.36-.73 1.06-1.47 2.1-2.25 3.1-12.21 15.89-35.56 33.85-39.39 38-1 1.12-2.39 2.79-3.83 4.64.17-11.54.34-30.79.29-50.06 7.66-10.62 21.24-29.6 22.89-32.78 2.3-4.46 2.48-12.78-3.92-5.61-1.72 1.93-12.52 16.1-19.05 24.66-.18-19.88-.66-37.73-1.7-44.44-2.67-17.33-8-2.32-9.26 8.49-1.08 9.56-2.64 37.1-3.82 66-5.31-7.91-14.18-20.59-21-27.54-5.87-6-10.34-13.56-13.73-22.2 2-5.48 4.63-18 4.73-23.47.11-6.12-3.3-6.77-6.2-1.45a47.32 47.32 0 0 0-3.25 9.63q-.74-3.08-1.35-6.26c-3.46-17.73-11.75-33.62-11.28-16.81.13 4.84 5.06 38 10.36 49A72.33 72.33 0 0 0 267 323c-4.09-1.65-8.9-3.37-11.89-3.71-6-.68-7.44 2.47-2.37 5.9s19.31 9.33 23.68 10a2.39 2.39 0 0 0 .59 0c5.45 6.48 10.45 12.36 12.36 15.68 3.55 6.17 7.86 17.18 10.46 30-.3 10.72-.51 20.77-.56 29.2 0 3.16-.07 6.68-.14 10.48-9.38-4.32-29.88-14.56-41.31-26.38a45.87 45.87 0 0 1-5.41-7.51c.55-4.46 1.34-10.93 2.07-17.26 5-1.74 12.19-5 15.32-7.22 4.22-3 3.21-6-1.65-5.57-3.19.27-9.05 2.65-12.71 4.27.52-4.82.91-8.81 1-10.65.26-6.75-2.92-15.29-6.75-5.1-.9 2.41-3.13 20-4.22 28.87-6.71-13.11-13.5-28.44-16.67-35-5.47-11.33-7.91-17.36-9.7-20.67s-7.65-3.58-5.87 3.31c.44 1.69 6.72 17.59 12.76 32.42a43.46 43.46 0 0 1-11.58-4.35 45.51 45.51 0 0 0-10.82-5c-4-1-8 2-1.15 6.62s15.67 10.07 22.29 12.1a29.49 29.49 0 0 0 5.62 1.19c2.85 6.86 5.25 12.45 6.37 14.68A102.17 102.17 0 0 0 252 400.75c-4.7.08-13.29.34-17.86 1.24-6.5 1.27-12.49 7.26-2.68 8.15 8.41.77 22.05-.25 28.35-1.84a70.3 70.3 0 0 0 8.54 6.32 281.86 281.86 0 0 0 30.56 16.31c-1.11 42.84-4.23 107.43-4.23 111.13 0 4.37 17.39 12.43 19.34 1.61 1.74-9.63 1.07-112.87 1.17-142.33a152.4 152.4 0 0 1 16.8-19.71c5.92-1.62 14.25-4 22.85-6.82 3.39 2.46 14 7.36 18.78 8.43 5.05 1.12 6.59-1.62 3-5-2.44-2.29-8.58-5.19-12.19-6.79 14.7-5.36 20.59-9 24.17-11.34 3.89-2.49 11.03-11.93-3.02-7.11Z" transform="translate(-198.66 -255.16)" style="fill:#777a9d"/></svg>