<svg xmlns="http://www.w3.org/2000/svg" viewBox="0 0 210.72 224.66"><g data-name="Layer 1"><path d="M28.56 40.62C-1.74 56.39-5.99 71.45 6.74 93.82c15.49 27.25 54.41 69 79.06 86.22 27.28 19.1 37.58 10.64 64.86-20.73s49-79.15 57.68-112.63C218.57 7.12 194.18-2.23 167.49.42 126.64 4.48 65.74 21.25 28.56 40.62z" fill="#feeb97"/><path d="M148.29 94.02c-5 3.09-12 13.13-18.25 20.59 0-18.07 0-35.83-.17-41.39-.33-10.36-2-18.09-6.68-17.38-6.69 1-6.09 24.07-6.69 41.11-.57 16.16-.89 38.54-1.18 56.39-6.38-7.18-17.39-19.65-22.89-26.3-2.13-2.58-5.81-7.08-10.23-12.43-.37-3.59-1-8.1-2-13.47a100.39 100.39 0 0 0-6.35-20.64c-2.89-6.5-8.88-10-8.79 1.08 0 5 .23 9.39.49 13.1C57.27 85 49.39 76.21 45.33 72.89c-3.47-2.86-9.36-4.35-5.68 4s28.09 42.46 42.09 58.51c10.88 12.43 26.55 30.26 33.08 37.67-.83 18.3-2.71 41.09-3 46.91-.37 7.71 17 5 18.39-1.67s.33-45.8 0-63.86c-.09-4.77-.13-12-.15-20.19 3.74-4.24 8.78-9.93 12.27-13.73 6.23-6.77 11.91-16 13.53-21.37s-1.12-9.22-7.57-5.14z" fill="#e1bf72"/></g></svg>