<svg id="Layer_1" data-name="Layer 1" xmlns="http://www.w3.org/2000/svg" viewBox="0 0 283.65 387.36"><defs><style>.cls-4{fill:#6aab96}.cls-5{fill:#f6b3a5}</style></defs><path d="M433.93 285.87v261.6c0 10.07-5 15.83-13.67 19.43-5.44 2.26-63.62 25.18-63.62 25.18V312.37Z" transform="translate(-155.56 -206.74)" style="fill:#a0d3c2"/><path d="M362.58 583c-.56 3.14-1.14 11.33-11.52 11.08s-168-6.65-174.39-8c-8.29-1.7-10.25-4.23-10-9.81S168 308 168 308l116.23-60.64 80.24 66.93s-1.12 264.36-1.89 268.71Z" transform="translate(-155.56 -206.74)" style="fill:#bcdfd5"/><path d="M278 258a5 5 0 0 1 5.57.63c13.32 11.46 74.57 62.85 78.1 66.15 5.13 4.81 9.78 6.88 16.84 1.44 6.63-5.1 54-32.38 57.57-34.54s4.68-5.76 0-10.43-83.48-70.53-87.08-73-7.91-1.61-14.39 2.25-172.36 94.18-176.31 96.34-3.25 6.44-.36 7.08 9.14 2.89 13 .8C174.4 312.75 260.71 267.1 278 258Z" transform="translate(-155.56 -206.74)" style="fill:#ee8770"/><path class="cls-4" d="M274.53 548.57a3.48 3.48 0 0 1-2.91-1.55c-2.83-4.22-6.34-9.07-8.39-11.49-2.12 2-5.66 5.79-8.62 9.08a3.5 3.5 0 0 1-5.21-4.67c10.39-11.57 12-12 12.91-12.29 2.47-.71 4.53-.34 15.12 15.47a3.5 3.5 0 0 1-1 4.86 3.45 3.45 0 0 1-1.9.59ZM325.5 506.59a4.7 4.7 0 0 0-6.34-.52c-4.38 3.47-21 9.71-30.43 12.84a4.1 4.1 0 0 0-2.69 5.37 4.52 4.52 0 0 0 3.89 2.81 4.63 4.63 0 0 0 1.87-.23c.94-.31 4.47-1.48 8.95-3.12-.08.72-.13 1.39-.18 2-.49 6.55.26 8 1.22 9.1a4.81 4.81 0 0 0 3.25 1.62 4.9 4.9 0 0 0 1.32-.07c4.65-.88 5.83-6.22 6.42-11.86.21-2.08.32-4.12.37-5.63 4.9-2.12 9.39-4.36 11.86-6.32a4 4 0 0 0 .49-5.99ZM203.18 499.94a4.73 4.73 0 0 1 6.34-.56c4.39 3.43 21 9.55 30.5 12.6a4.08 4.08 0 0 1 2.72 5.34 4.52 4.52 0 0 1-3.87 2.82 4.85 4.85 0 0 1-1.88-.21c-.93-.31-4.47-1.46-9-3.06.08.72.14 1.39.19 1.94.53 6.53-.22 8-1.17 9.08a4.83 4.83 0 0 1-3.23 1.64 5.4 5.4 0 0 1-1.33-.06c-4.65-.85-5.86-6.16-6.48-11.78-.23-2.07-.35-4.09-.41-5.61-4.92-2.08-9.42-4.28-11.9-6.22a4 4 0 0 1-.48-5.92Z" transform="translate(-155.56 -206.74)"/><ellipse class="cls-5" cx="196.76" cy="542.05" rx="11.59" ry="11.35" transform="rotate(-2.96 -3881.634 3449.951)"/><ellipse class="cls-5" cx="343.85" cy="546.15" rx="11.59" ry="11.35" transform="rotate(-2.96 -3734.368 3453.95)"/></svg>