<svg id="Layer_1" data-name="Layer 1" xmlns="http://www.w3.org/2000/svg" viewBox="0 0 274.28 279"><defs><style>.cls-2{fill:#f191bc}.cls-3{fill:#a53970}.cls-4{fill:#6876b8}</style></defs><path d="M187.92 374.7s-1.21 30.88.38 65.91 2.66 48.26 5.84 53.68 17.73 18.92 27 24.34a63.59 63.59 0 0 0 16.62 7l-9.61-40.47-2.23-93Z" transform="translate(-160.41 -260.56)" style="fill:#be88bb"/><path class="cls-2" d="M222.38 403.67s-3.35 103.49 3.1 112.41 10.59 10.19 19.82 10.19h163c7 0 18.79-4.78 18.47-20.38s1.59-97.44-1.59-101.58-91.39-78.65-91.39-78.65Z" transform="translate(-160.41 -260.56)"/><path class="cls-3" d="M413 484.58a36 36 0 0 0-15.08-3.21 37 37 0 0 0-6.62.76h-.06c-7.9 1.67-13.84 5.75-19.63 9.74a75.58 75.58 0 0 1-9.54 5.93c-10 4.92-23.81 3.33-27.37-3.16-3-5.47-.92-9 2.71-14.26.5-.73 1-1.45 1.46-2.17a14.21 14.21 0 0 0 1.73-10.91 14.76 14.76 0 0 0-1.76-4.22l2.73.14h.17a3.5 3.5 0 0 0 .17-7L319 455.1a3.5 3.5 0 0 0-.35 7l9.61.47a3 3 0 0 0 .29.2c2.83 1.62 4.64 3.76 5.24 6.2a7.18 7.18 0 0 1-.8 5.45c-.43.66-.89 1.33-1.36 2-3.5 5.09-8.3 12.06-3.08 21.59 3.64 6.62 11.87 9.69 20.54 9.69a37 37 0 0 0 16.06-3.62 83.49 83.49 0 0 0 10.43-6.45c4.76-3.28 9.33-6.42 14.89-8.08l9.76 14.23a3.52 3.52 0 0 0 2.89 1.51 3.45 3.45 0 0 0 2-.61 3.51 3.51 0 0 0 .91-4.87l-7.87-11.45A29.07 29.07 0 0 1 410.2 491a3.5 3.5 0 0 0 2.79-6.42ZM294.31 444.37l-22.25-6.52a3.5 3.5 0 1 0-2 6.72l9.45 2.77a8.79 8.79 0 0 0-1.22 5.64c.41 3.38 2.46 6.62 5.75 6.57 4-.06 6-3.15 5.78-7.2a11.72 11.72 0 0 0-.29-2.08l2.78.82a3.74 3.74 0 0 0 1 .14 3.5 3.5 0 0 0 1-6.86ZM397 440.15a3.5 3.5 0 0 0-4.34-2.38l-22.25 6.52a3.5 3.5 0 0 0 1 6.86 3.28 3.28 0 0 0 1-.15l2.32-.67a11 11 0 0 0-.6 3.19c-.22 4.05 1.77 7.13 5.77 7.2 3.29 0 5.34-3.2 5.75-6.58a8.3 8.3 0 0 0-1.88-6.46l10.89-3.19a3.5 3.5 0 0 0 2.34-4.34Z" transform="translate(-160.41 -260.56)"/><path class="cls-4" d="M332.66 334a4.76 4.76 0 0 1 5.91.31c14.78 13.11 82.58 73.25 85.77 75.65 3.58 2.68 9.37 1.75 10.34-2.63s-28.07-28.16-32.68-32.22-99.68-86.87-101.82-89-4.48-3-9.6.64-107.8 75.78-110.46 77.48a5.44 5.44 0 0 0-1.29 8.33c2.57 2.77 35.12 33.83 37.36 35.86s5.65 5 11.95.32c5.66-4.22 87.51-62.6 104.52-74.74Z" transform="translate(-160.41 -260.56)"/><path class="cls-2" d="M372.32 270.57c-.45-.45-1.17-1.13-2.05-1.93v-8.08l-4.49.21v3.84l-4-3.48a2.3 2.3 0 0 0-3.27.24c-2.84 3.35-8.8 10.39-10.05 11.91-1.65 2 .35 3.07 2.71 3.07.27 0 .72 0 1.3-.05v23.29l17-12.74-.1-12a52.7 52.7 0 0 0 2.46-.29c2.03-.34 2.85-1.64.49-3.99Z" transform="translate(-160.41 -260.56)"/><path class="cls-4" d="M396.28 300.38c-3.48-3.8-14.56-13.9-19.28-18.18a3.82 3.82 0 0 0-4.64-.38c-7.8 5-29.65 19.07-30 23.69-.22 2.75 4.63 3.54 9.08 3.66v24.51l37.78 35.66v-61.76l4.21-.23c3.12-.13 7.33-2.1 2.85-6.97Z" transform="translate(-160.41 -260.56)"/><path d="M205.27 478.69c-4.8-2.29-10.93 1.65-15.68 4l-.18-8.38-8.33 2.25.68 6.59c-2.16-.78-6.83-2.76-11.29-2.06s-9.66 7.13-4.24 14.92c3.72 5.34 14.8 9.51 19.06 11a3.85 3.85 0 0 0 3.21-.34c3.49-2.1 12.19-7.53 16.73-12.14 5.77-5.94 6.05-12.98.04-15.84Z" transform="translate(-160.41 -260.56)" style="fill:#9cc993"/><path class="cls-2" d="M192.29 449.73a9.15 9.15 0 0 0-7.88-5.46c-6.23-.61-8.9 5.33-8.9 5.33a10.6 10.6 0 0 0-9.32 0c-5.47 2.87-6.71 9.22-5.16 14.56 2.71 9.31 11 14.12 22 14.4s18-5.48 20.87-10.33 4.18-14.32-3.36-18.09c-3.66-1.84-8.25-.41-8.25-.41Z" transform="translate(-160.41 -260.56)"/><path d="M240.81 512.51c-4.63-2.63-11 .87-15.92 2.84l.41-8.37-8.47 1.64.21 6.63c-2.09-.93-6.61-3.25-11.11-2.86s-10.15 6.42-5.29 14.58c3.32 5.59 14.08 10.54 18.23 12.29a3.82 3.82 0 0 0 3.22-.11c3.64-1.85 12.7-6.64 17.56-10.92 6.17-5.43 6.95-12.44 1.16-15.72Z" transform="translate(-160.41 -260.56)" style="fill:#4bb9ab"/><path class="cls-4" d="M208.76 489.2a9.16 9.16 0 0 1 7-6.56c6.07-1.52 9.59 4 9.59 4a10.61 10.61 0 0 1 9.21-1.37c5.84 2 8 8.13 7.25 13.64-1.31 9.61-8.82 15.59-19.68 17.49s-18.58-2.78-22.16-7.15-6.24-13.55.67-18.38c3.36-2.41 8.12-1.67 8.12-1.67Z" transform="translate(-160.41 -260.56)"/></svg>