<svg id="Layer_1" data-name="Layer 1" xmlns="http://www.w3.org/2000/svg" viewBox="0 0 231.81 283"><defs><style>.cls-3{fill:#5d4b99}.cls-4{fill:#7e6cae}.cls-7{fill:#c89241}</style></defs><path d="M408.08 384.2s-.52 122.63-1.58 126.57-3.16 6.32-5.52 9-26.3 21.95-36 21.5v-147.6Z" transform="translate(-181.85 -258.54)" style="fill:#7b69ad"/><path d="M188.88 408.93s-.53 120.19.26 123 1.58 7.27 7.63 8.06 166.36 2.37 170 1.06 7.32-1.85 8.42-9.12c.84-5.56-.32-124.83-.32-124.83l-88.15-48.42Z" transform="translate(-181.85 -258.54)" style="fill:#8c7ab7"/><path class="cls-3" d="M228.25 468.71a2.91 2.91 0 0 1-1.42-.36l-10.73-5.77a3 3 0 1 1 2.85-5.29l8.31 4.48c2.52-3.44 7.9-9.28 16-10.24 10.61-1.27 18 10.32 18.35 10.82a3 3 0 0 1-5.08 3.19c-.1-.15-5.72-8.86-12.56-8.05-8.2 1-13 9.57-13.05 9.66a3 3 0 0 1-2.67 1.56ZM335.8 467.74a3 3 0 0 0 1.41-.36l10.73-5.78a3 3 0 0 0-2.84-5.28l-8.31 4.47c-2.52-3.44-7.91-9.27-16-10.23-10.61-1.28-18 10.32-18.34 10.81a3 3 0 1 0 5.07 3.2c.1-.16 5.73-8.87 12.56-8.06 8.2 1 13 9.58 13 9.66a3 3 0 0 0 2.72 1.57ZM282.61 480.4c-1 0-3.32-.49-9.69-5.77a3 3 0 0 1 3.83-4.62 47.64 47.64 0 0 0 5.69 4.12 47.53 47.53 0 0 0 4.92-5.34 3 3 0 1 1 4.68 3.76c-6.13 7.62-8.13 7.76-9.09 7.83Zm.48-6Z" transform="translate(-181.85 -258.54)"/><ellipse class="cls-4" cx="151.44" cy="221.08" rx="3.44" ry="3.24"/><ellipse class="cls-4" cx="350.8" cy="469.91" rx="3.9" ry="3.54" transform="rotate(-66.63 63.147 478.962)"/><ellipse class="cls-4" cx="346.15" cy="481.25" rx="3.85" ry="3.44" transform="rotate(-22.57 -392.513 807.708)"/><ellipse class="cls-4" cx="47.55" cy="223.51" rx="3.44" ry="3.24"/><ellipse class="cls-4" cx="211.9" cy="472.34" rx="3.54" ry="3.9" transform="matrix(.92 -.4 .4 .92 -351.86 -135.71)"/><ellipse class="cls-4" cx="216.55" cy="483.68" rx="3.44" ry="3.85" transform="rotate(-67.43 -68.137 490.643)"/><path d="M278.65 369.23a6.58 6.58 0 0 1 6.2.08c15.32 8.39 82.71 45.28 84.81 46.21 2.37 1.05 5.53 1.05 9.74-1.85s32.09-24.47 33.28-26.58 1.72-4.69-.91-8.66-87.48-116.07-89.66-118.17-5.34-2.64-7.71.52-75.79 82.89-78.4 86.05-51.58 58.95-53.42 61.84-.26 8.42 6.58 5.79c6.04-2.33 74.03-37.27 89.49-45.23Z" transform="translate(-181.85 -258.54)" style="fill:#5e638a"/><path d="M385.59 343.52c-27.14-16.13-59.23-23.84-97.16-23.12-14.33.27-25.09 2.43-32.94 5-10.64 11.6-18.67 20.39-19.51 21.4-.67.81-4.38 5.07-9.56 11 13.48-8.44 41-21.92 75.58-18.62 50.53 4.83 98.55 31.86 108.88 38-3.02-4.11-13.02-17.41-25.29-33.66Z" transform="translate(-181.85 -258.54)" style="fill:#f3d979"/><path class="cls-7" d="M344.17 350.73c-3.7 0-9.88-1.16-14.35-2.23-11.86-2.86-12.74-4.89-13.21-6-1.95-4.48-1.66-20.07 4.14-23.9 4.76-3.14 25.39 1.64 31.56 5.67 2.21 1.44 4.43 4.87 2.44 13-2.1 8.57-5.31 13.09-9.54 13.42-.32.03-.66.04-1.04.04Zm-22.21-11c3 1.81 18 5.39 22.79 5 0 0 2.22-.93 4.17-8.87 1.06-4.35.46-6.31.11-6.53-5.85-3.82-22.26-6.48-25.06-5.62-.66.56-1.77 3-2.25 7.46a27 27 0 0 0 .28 8.52Zm.15.44Zm-.44-.64 2.21-15.76Zm.17-.1Zm-1.65-2.5Z" transform="translate(-181.85 -258.54)"/><path class="cls-7" d="M333 335.87a3.3 3.3 0 0 1-.82-.11 40.22 40.22 0 0 0-12.6-1.17 3 3 0 0 1-.52-6 46.06 46.06 0 0 1 14.78 1.41 3 3 0 0 1-.82 5.89Z" transform="translate(-181.85 -258.54)"/></svg>