<svg xmlns="http://www.w3.org/2000/svg" viewBox="0 0 222.41 231.24"><defs><style>.cls-2{fill:#b7ea9a}.cls-5{fill:#78b654}</style></defs><g id="Layer_1" data-name="Layer 1"><path d="M890.84 588.24v89.61c0 4.2.78 7.53-3.14 11.25s-22.59 22.82-22.59 22.82V604.3z" transform="translate(-677.77 -481.78)" fill="#97d474"/><path class="cls-2" d="M685.59 604.89S685 683 685 693s1.37 20 14.89 20h159.62c4.1 0 8.5.58 8.41-11.56-.12-17.43 0-91.66 0-91.66L763.54 544z" transform="translate(-677.77 -481.78)"/><path d="M787.32 652.09a36.65 36.65 0 0 1-6.47 2.85 35.85 35.85 0 0 1-9.44 1.89 102.55 102.55 0 0 0 1.43 13 46.07 46.07 0 0 0 6.17 14.9 47.51 47.51 0 0 0 7.68-.79 27.09 27.09 0 0 0 7.83-2.71 51.51 51.51 0 0 1-6.24-17.07 104.55 104.55 0 0 1-.96-12.07zm-21.92 4.8a21.54 21.54 0 0 0-6.54.59c-7.63 2.24-10 7.39-8.53 11.82 3.1 9.5 12.11 13.85 21.54 15.09a47.93 47.93 0 0 1-4.93-13.39 109.31 109.31 0 0 1-1.54-14.11zm39.84 14.51c10.33-14.82.3-28.43-7-26.34a14.12 14.12 0 0 0-4.94 2.82 111 111 0 0 0 .94 15.43 45.24 45.24 0 0 0 5.28 14.54 34.21 34.21 0 0 0 5.72-6.45z" transform="translate(-677.77 -481.78)" style="fill:#fff"/><path d="M793.27 647.88a45.75 45.75 0 0 1-5.95 4.21 104.55 104.55 0 0 0 1 12.11 51.51 51.51 0 0 0 6.24 17.07 27.06 27.06 0 0 0 5-3.42 45.24 45.24 0 0 1-5.28-14.54 111 111 0 0 1-1.01-15.43zm-21.86 8.95c-2.22.15-4.2.09-6 .06a109.31 109.31 0 0 0 1.53 14.11 47.93 47.93 0 0 0 4.93 13.41 47.68 47.68 0 0 0 7.14.38 46.07 46.07 0 0 1-6.17-14.9 102.55 102.55 0 0 1-1.43-13.06z" transform="translate(-677.77 -481.78)" style="fill:#9cd47c"/><path class="cls-5" d="M836.64 614.6a4.51 4.51 0 0 0-5.93-2.32l-23.28 10.21a2.34 2.34 0 0 0-.27.15 4.76 4.76 0 0 0-.49.28h-.06a8.41 8.41 0 0 0-3.53 5.72c-1.53 7.26 3.28 13.59 10.87 14.08 7.86.51 11.28-6.84 10.93-11.65a10.5 10.5 0 0 0-1.76-5.67l11.2-4.91a4.5 4.5 0 0 0 2.32-5.89zm-94.44 8.66a4.53 4.53 0 0 0-1.39-1l-22.24-10.21a4.5 4.5 0 0 0-3.75 8.18l10.68 4.91a10.09 10.09 0 0 0-2 6c-.35 4.81 3.08 12.16 10.94 11.65 7.59-.49 12.39-6.82 10.86-14.08a8.73 8.73 0 0 0-3.1-5.45z" transform="translate(-677.77 -481.78)"/><path class="cls-5" d="M753.31 662.33a77 77 0 0 1-16.7-2c-3.9-.86-13.53-5.58-13.1-11.64s8.75-6.57 11.49-6.78c16.23-1.25 30.42-8.16 34.51-10.72a3.5 3.5 0 1 1 3.71 5.93c-4.5 2.81-20 10.41-37.68 11.77a20.81 20.81 0 0 0-4.43.72 18.18 18.18 0 0 0 7 3.88c12.83 2.82 23.21 2.32 35.85-1.74 13.35-4.29 18.33-9.46 18.38-9.51a3.5 3.5 0 0 1 5.16 4.76c-.24.26-6 6.5-21.4 11.44a73 73 0 0 1-22.79 3.89z" transform="translate(-677.77 -481.78)"/><path class="cls-2" d="M739.42 572.2c1.62-1.26 4-2.75 4-7.2 0-7-1.13-26.72-12.88-42.07s-34.3-27.86-42.45-30.7-9.72 3.76-6.8 10.53c4.16 9.66 3.2 17 11.09 31.88 4.29 8.14 14.09 13.68 20.91 24.1s8.15 17.44 9.1 19.9 3 3 6.06 1.52 7.71-5.43 10.97-7.96z" transform="translate(-677.77 -481.78)"/><path d="m763.85 549.65 93.73 62.26c4.28 2.82 9.81 8.35 17.09 1.57s20.36-22.12 23.62-26.39 2.27-8-2.76-11.81-90.63-61.57-94.06-63.83-9-7-18 0-65.94 50.26-71.79 54.28-28.5 29.15-31.75 33.42-2.25 7.39-.59 9.3 6.76 2 14.42-4.64c5.12-4.47 70.09-54.16 70.09-54.16z" transform="translate(-677.77 -481.78)" fill="#feeb97"/><path class="cls-2" d="M822.41 562.42c-1.62-1.26-4-2.75-4-7.2 0-7 1.14-26.72 12.89-42.07s34.3-27.85 42.44-30.7 9.73 3.76 6.81 10.53c-4.17 9.66-3.21 16.95-11.09 31.88-4.3 8.14-14.1 13.68-20.92 24.1s-8.15 17.44-9.09 19.9-3 3-6.07 1.52-7.7-5.38-10.97-7.96z" transform="translate(-677.77 -481.78)"/></g></svg>