<svg id="Layer_1" data-name="Layer 1" xmlns="http://www.w3.org/2000/svg" viewBox="0 0 206.35 223.84"><defs><style>.cls-4{fill:#ca9968}.cls-5{fill:#f7b7b2}.cls-6{fill:#f3d070}</style></defs><path d="M223.7 372.18s.88 129.48 1.09 132.34 2.24 7.25 7.06 7.47 154.73-.22 157.92-1.32 4.51-2.64 4.73-6.59.44-126.63.44-126.63L318.66 326Z" transform="translate(-194.23 -288.2)" style="fill:#ffe3ba"/><path d="M200.17 347.35s-.78 119.49-.57 122.78c.24 3.81 3.06 8.28 4.43 11 2.28 4.52 18 28.31 25 30.14l-2-146.35Z" transform="translate(-194.23 -288.2)" style="fill:#e3b687"/><path d="M318.68 333.8a5.23 5.23 0 0 1 5.41.45c12.72 9.17 68.4 49.24 71.51 50 3.52.88 5.94-2 4.62-5.94s-22.42-32.67-25.94-35.17c-4.28-3-72.1-51.88-74.08-53.64s-4.62-1.76-8.14 0-92.06 45.31-95.18 47.95a6.71 6.71 0 0 0-1.54 9c1.76 2.64 21.32 29.68 23.08 31.21a8.74 8.74 0 0 0 9.23 1.32c3.35-1.56 75.69-37.55 91.03-45.18Z" transform="translate(-194.23 -288.2)" style="fill:#fff"/><path class="cls-4" d="M323.93 464.92a2.51 2.51 0 0 1-2.1-1.14c-2.1-3.24-6.24-7.76-8.9-7.76h-.05c-3.17.07-8.59 4.18-11.26 6.76a2.5 2.5 0 1 1-3.48-3.59c.85-.82 8.48-8 14.63-8.17 1.12-.07 7 .34 13.26 10a2.5 2.5 0 0 1-2.1 3.86ZM257.17 415.28c-5.85.65-12.5 8.93-12.39 14.4.16 7.58 4.18 7.39 9.45 7.12a85.16 85.16 0 0 1 24.24 3.08c8.21 2.32 12 4.51 16.16 3s3.72-8-1.39-13.16c-4.11-4.15-22.14-15.98-36.07-14.44Z" transform="translate(-194.23 -288.2)"/><ellipse class="cls-4" cx="279.8" cy="448.02" rx="6.19" ry="9.44" transform="rotate(-4.3 -3655.79 2890.546)"/><path class="cls-4" d="M366.64 415.28c5.85.65 12.5 8.93 12.39 14.4-.16 7.58-4.18 7.39-9.44 7.12a85.23 85.23 0 0 0-24.25 3.08c-8.2 2.32-12 4.51-16.16 3s-3.71-8 1.4-13.16c4.11-4.15 22.13-15.98 36.06-14.44Z" transform="translate(-194.23 -288.2)"/><ellipse class="cls-4" cx="344.02" cy="448.02" rx="9.44" ry="6.19" transform="rotate(-85.7 91.57 408.615)"/><ellipse class="cls-5" cx="52.08" cy="176.68" rx="16.33" ry="15.94"/><ellipse class="cls-5" cx="179.21" cy="176.68" rx="16.33" ry="15.94"/><path class="cls-6" d="m274.63 332 5 2.35a1.94 1.94 0 0 0 2.37-.59c6.56-8.84 5.38-22.53-4.6-27.85-11.61-6.19-32.82-.31-43.65 12.31s-6.5 29.79 11.61 32.42c15.71 2.29 27.7-8.25 30.6-11.08a1.18 1.18 0 0 0 .16-1.47l-3.31-5.09c-1.26-1.95-.08-1.88 1.82-1Zm-13.23-6.17c-2.95 4.29-10 7-13.55 3.29-3.08-3.22 2.42-10.93 9.79-10.8 3.69.08 6.56 3.44 3.76 7.52Z" transform="translate(-194.23 -288.2)"/><path d="M256.14 315.91c-7.36-.13-12.87 7.58-9.78 10.79a6 6 0 0 0 4.68 1.72 9.1 9.1 0 0 0 1.44-.17 12.35 12.35 0 0 0 7.42-4.83c2.81-4.08-.07-7.42-3.76-7.51Z" transform="translate(-194.23 -288.2)" style="fill:none"/><path d="m269.38 327.45 9.76 3.66a.88.88 0 0 0 1-.24 18.08 18.08 0 0 0 4.15-11.31h-.83a36.23 36.23 0 0 1-5-.18 20.84 20.84 0 0 1-4.93-1.28v-.2a20.81 20.81 0 0 1 5.06-.51 34.72 34.72 0 0 1 5 .58l.7.09a19.36 19.36 0 0 0-.9-4.88 14.85 14.85 0 0 1-3.22.54 11.55 11.55 0 0 1-3.69-.49v-.2a11.68 11.68 0 0 1 3.49-1.3 12.63 12.63 0 0 1 2.82-.2 16.75 16.75 0 0 0-7.5-8.22 19.84 19.84 0 0 0-5-1.8c-.18.51-.35 1-.54 1.53a18.11 18.11 0 0 1-1.27 3.31 11.13 11.13 0 0 1-2.28 2.86l-.18-.08a11.1 11.1 0 0 1 .63-3.6 18.5 18.5 0 0 1 1.64-3.15l.64-1.14a31.61 31.61 0 0 0-8.18-.25l.06.93a17.54 17.54 0 0 1 .1 3.47 10.63 10.63 0 0 1-1 3.44h-.2a10.8 10.8 0 0 1-.79-3.49 16.86 16.86 0 0 1 .3-3.46c0-.24.06-.48.08-.72a44.37 44.37 0 0 0-5.07 1c0 .14.08.27.11.41a14 14 0 0 1 .72 3 8.89 8.89 0 0 1-.37 3.23h-.19a8.79 8.79 0 0 1-1.5-2.9 13.94 13.94 0 0 1-.32-3.1 2.45 2.45 0 0 1 0-.27 45 45 0 0 0-20.45 12.33h.55a9.89 9.89 0 0 1 2.61.15 6.5 6.5 0 0 1 2.46 1.24v.2a6.43 6.43 0 0 1-2.71.54 9.44 9.44 0 0 1-2.55-.54l-1.42-.36a27.51 27.51 0 0 0-1.91 2.64 18.14 18.14 0 0 1 3.61.06 12.93 12.93 0 0 1 3.76 1.15v.2a12.68 12.68 0 0 1-3.88.65 21.43 21.43 0 0 1-3.82-.46l-.56-.08c-4.51 8.34-3.23 17.55 3.49 23.09l.93-1.13a33.76 33.76 0 0 1 3.17-3.68 19.87 19.87 0 0 1 4-2.93l.14.14a20.06 20.06 0 0 1-2.66 4.16 33.67 33.67 0 0 1-3.46 3.4l-1 .91a21.29 21.29 0 0 0 5.4 2.69l.41-.84a21 21 0 0 1 1.77-3.39 12.74 12.74 0 0 1 2.71-2.84l.18.1a12.94 12.94 0 0 1-1.17 3.75 21.06 21.06 0 0 1-2.11 3.2l-.33.46a27.19 27.19 0 0 0 3.33.69 32.61 32.61 0 0 0 17.4-2.38l-.53-1.17a26.22 26.22 0 0 1-1.66-3.95 15.42 15.42 0 0 1-.63-4.33l.18-.07a15.88 15.88 0 0 1 2.33 3.71 26.22 26.22 0 0 1 1.28 4.09l.34 1.15a43.39 43.39 0 0 0 7-4.06l-.55-.69a23 23 0 0 1-2.39-3.18 13.94 13.94 0 0 1-1.49-3.8l.17-.11a13.43 13.43 0 0 1 3 2.79 22.2 22.2 0 0 1 2.07 3.4l.41.72a40.6 40.6 0 0 0 3.77-3.24 1 1 0 0 0 .07-1.32l-6.16-7.42c-.99-1.27.3-1.25 1.6-.72Zm-9.48-4a12.35 12.35 0 0 1-7.42 4.83c0 .36 0 .71-.06 1.06a8.43 8.43 0 0 1-.21 2.41 5.77 5.77 0 0 1-1.3 2.21h-.2a5.54 5.54 0 0 1-.47-2.52 8.36 8.36 0 0 1 .61-2.33c.06-.21.13-.42.19-.62a6 6 0 0 1-4.68-1.72c-3.09-3.21 2.42-10.92 9.78-10.79 3.69.02 6.57 3.36 3.76 7.44Z" transform="translate(-194.23 -288.2)" style="fill:#feeb98"/><path class="cls-6" d="M253 305.9a8.79 8.79 0 0 0 1.41 2.93h.19a8.89 8.89 0 0 0 .37-3.23 14 14 0 0 0-.72-3c0-.14-.07-.27-.11-.41-.49.13-1 .26-1.48.41a2.45 2.45 0 0 0 0 .27 13.94 13.94 0 0 0 .34 3.03ZM258.87 305.32a10.8 10.8 0 0 0 .79 3.49h.2a10.63 10.63 0 0 0 1-3.44 17.54 17.54 0 0 0-.1-3.47l-.06-.93c-.48 0-1 .1-1.46.16 0 .24-.06.48-.08.72a16.86 16.86 0 0 0-.29 3.47ZM266.61 305.52a11.1 11.1 0 0 0-.63 3.6l.18.08a11.13 11.13 0 0 0 2.28-2.86 18.11 18.11 0 0 0 1.27-3.31c.19-.51.36-1 .54-1.53-.45-.11-.9-.2-1.36-.27l-.64 1.14a18.5 18.5 0 0 0-1.64 3.15ZM276.41 313v.2a11.55 11.55 0 0 0 3.69.49 14.85 14.85 0 0 0 3.22-.54c-.19-.56-.4-1.1-.63-1.65a12.63 12.63 0 0 0-2.82.2 11.68 11.68 0 0 0-3.46 1.3ZM278.58 317.38a20.81 20.81 0 0 0-5.06.51v.2a20.84 20.84 0 0 0 4.93 1.28 36.23 36.23 0 0 0 5 .18h.83v-1.51l-.7-.09a34.72 34.72 0 0 0-5-.57ZM267.56 336a13.43 13.43 0 0 0-3-2.79l-.17.11a13.94 13.94 0 0 0 1.49 3.8 23 23 0 0 0 2.39 3.18l.55.69c.42-.29.81-.58 1.19-.87l-.41-.72a22.2 22.2 0 0 0-2.04-3.4ZM260.27 339.85a15.88 15.88 0 0 0-2.33-3.71l-.18.07a15.42 15.42 0 0 0 .63 4.33 26.22 26.22 0 0 0 1.66 3.95l.53 1.17c.44-.18.88-.38 1.31-.57l-.34-1.15a26.22 26.22 0 0 0-1.28-4.09ZM250.85 329a8.36 8.36 0 0 0-.61 2.33 5.54 5.54 0 0 0 .47 2.52h.2a5.77 5.77 0 0 0 1.3-2.21 8.43 8.43 0 0 0 .21-2.41c0-.35 0-.7.06-1.06a9.1 9.1 0 0 1-1.44.17c-.04.28-.13.49-.19.66ZM242.29 343.69a12.94 12.94 0 0 0 1.17-3.75l-.18-.1a12.74 12.74 0 0 0-2.71 2.84 21 21 0 0 0-1.77 3.39l-.41.84c.48.16 1 .31 1.46.44l.33-.46a21.06 21.06 0 0 0 2.11-3.2ZM237.41 339.91a20.06 20.06 0 0 0 2.66-4.16l-.14-.14a19.87 19.87 0 0 0-4 2.93 33.76 33.76 0 0 0-3.17 3.68l-.93 1.13q.54.45 1.14.87l1-.91a33.67 33.67 0 0 0 3.44-3.4ZM232.74 320.8a12.68 12.68 0 0 0 3.88-.65V320a12.93 12.93 0 0 0-3.76-1.15 18.14 18.14 0 0 0-3.61-.06c-.32.5-.62 1-.9 1.52l.56.08a21.43 21.43 0 0 0 3.83.41ZM235.14 317a6.43 6.43 0 0 0 2.71-.54v-.2a6.5 6.5 0 0 0-2.46-1.24 9.89 9.89 0 0 0-2.61-.15h-.55c-.23.25-.46.5-.68.76l-.4.48 1.42.36a9.44 9.44 0 0 0 2.57.53Z" transform="translate(-194.23 -288.2)"/></svg>