<svg id="Layer_1" data-name="Layer 1" xmlns="http://www.w3.org/2000/svg" viewBox="0 0 228.4 205"><defs><style>.cls-3{fill:#f191bc}.cls-5{fill:#8f7a96}.cls-6{fill:#f6bed8}</style></defs><path d="M185.58 374.46s-.21 108.94 0 112.6.65 10.55 5.6 15.08 27.78 22.24 31.44 22S225 395.77 225 395.77Z" transform="translate(-183.13 -319.13)" style="fill:#d0cad2"/><path d="M216.59 394.27s-.22 120.35 0 123.15 1.72 6.46 7.53 6.68 175.59-.65 179.73-1.3 6.94-2.36 7.16-6.88-2.37-114.12-2.37-114.12L302.06 348Z" transform="translate(-183.13 -319.13)" style="fill:#e7e0e9"/><path class="cls-3" d="M302.35 354.07a3.4 3.4 0 0 1 3.34-.15c13.07 6.61 96.73 49 100 50.53 3.56 1.7 7.28-.15 5.26-3.56s-25.7-25.08-29.26-28.33-101.56-50.94-103.88-52.48-6.66-1.4-12.7 2-75.86 45.36-79 47.37-4 5-1.86 8.21 29.41 23.07 31.27 24.46 4.49 2.79 9.6-.16c4.72-2.67 66.37-41.11 77.23-47.89Z" transform="translate(-183.13 -319.13)"/><path d="M299.72 397.07a3.88 3.88 0 0 1 1.36-4.05c7.1-5.59 32.63-25.55 49.94-37.43 10.81-7.42 34.78-24.3 46.06-31.77 4-2.67 9.14.6 5.56 5.56s-74.06 83.6-76.05 85.39-15.69-1.59-21-6.95a24.11 24.11 0 0 1-5.87-10.75Z" transform="translate(-183.13 -319.13)" style="fill:#feeb98"/><path class="cls-3" d="M326.75 451.27c-1.21 1.39-.36 4.4 1.43 6.1s8.44 7.54 9.61 8.26 3.59 1.44 5.29.27-.27-4-1.34-5.15-8.71-8-10.15-9.12-3.68-1.71-4.84-.36ZM317.77 453.33c-1.25-2-4.57-.8-7 1.89s-10 10.86-9.51 14.63 6.82-1.44 9.06-3.59 10.26-8.52 7.45-12.93Z" transform="translate(-183.13 -319.13)"/><path class="cls-5" d="M323.34 461.5c-5.17.38-9.25 6.73-7.63 15.17 1.09 5.72 5.36 9.06 9.78 8.53s9-4.77 7.95-11.68-5.26-12.38-10.1-12.02ZM349.9 448c1 1.61 18.49 14.63 21.63 15.44s7.63-1.53 6.56-5.66-18.67-16.15-21.36-17.5-10.15 2.46-6.83 7.72ZM293.9 446.06c-1.45 2-20.91 15.89-22.71 16.61s-6.19 0-6.55-2.34 0-5.3 6.19-10 14.18-11.85 18.4-12.11 5.57 6.59 4.67 7.84Z" transform="translate(-183.13 -319.13)"/><ellipse class="cls-6" cx="201.82" cy="163.41" rx="12.83" ry="13.06"/><ellipse class="cls-6" cx="72.39" cy="159.7" rx="12.83" ry="13.06"/></svg>