<svg id="Layer_1" data-name="Layer 1" xmlns="http://www.w3.org/2000/svg" viewBox="0 0 318.64 336.76"><defs><style>.cls-4{fill:#f8cbe1}.cls-5{fill:#814e9a}</style></defs><path d="M447.28 382.49s1.11 158 1.11 164.58-6.59 11.2-13.17 17.12S408.56 582 408.56 582l-2.32-170.56Z" transform="translate(-137.76 -253.23)" style="fill:#e776ac"/><path d="M164.63 427s1.26 135.41 1.26 141.68-1.89 15.67 12.53 15.67 219.06-1.25 224.71-1.25 9.85-2.7 10.27-10c.29-5.05-1-149.84-1-149.84l-130.53-67.09Z" transform="translate(-137.76 -253.23)" style="fill:#f191bc"/><path d="M281.14 368.32S401.1 431 405.71 433s9.91 3.59 15.9-3.25 30.92-42.72 33-45.11 3.25-6.83-1.36-9.23c-4.16-2.15-109.67-57.47-130.69-68.5a7.55 7.55 0 0 0-7.19.1c-19.42 10.87-111.56 62.45-114.16 64.13a31.26 31.26 0 0 0-8.55 8.55c-2.39 3.58-33.84 44.81-35.37 47.16-3 4.63-.49 10.83 6.72 9.16 5.84-1.35 117.13-67.69 117.13-67.69Z" transform="translate(-137.76 -253.23)" style="fill:#9c70ae"/><path class="cls-4" d="M196.76 510.08c-12.16.24-14.67 14.08-9 20.22 6.86 7.52 20.49 2.89 21-6.35s-5.67-13.95-12-13.87ZM374 526.58c11.77-3.11 10.94-17.15 4-21.79-8.45-5.69-20.6 2-18.89 11.12s8.77 12.28 14.89 10.67Z" transform="translate(-137.76 -253.23)"/><path class="cls-5" d="M214.38 510.71a4.4 4.4 0 0 1-1.54-.28 4.48 4.48 0 0 1-2.69-5.74c.25-.69 6.23-16.76 21.09-18.07 12.7-1.11 20 8.62 22.11 13.93a4.5 4.5 0 0 1-8.37 3.31c-.14-.35-3.84-9.08-12.95-8.28s-13.38 12.07-13.42 12.18a4.52 4.52 0 0 1-4.23 2.95ZM280.6 524.36c-7.1 0-12.85-10-15-14.26a4.5 4.5 0 1 1 8.05-4c2.06 4.11 5.29 8.39 6.89 9.2 1.59-.93 4.7-5.5 6.65-9.83a4.5 4.5 0 0 1 8.21 3.67c-2.04 4.57-7.58 15.22-14.8 15.22ZM349 508.85a4.52 4.52 0 0 1-4.16-2.78c0-.09-4.37-10.1-12.72-10.89-3.55-.34-6.67 1.09-9.52 4.38a22.68 22.68 0 0 0-3.65 5.87 4.5 4.5 0 0 1-8.4-3.22 31.14 31.14 0 0 1 5-8.31c4.8-5.65 10.81-8.31 17.38-7.68 13.77 1.31 19.93 15.79 20.19 16.4a4.5 4.5 0 0 1-2.44 5.88 4.34 4.34 0 0 1-1.68.35Z" transform="translate(-137.76 -253.23)"/><path d="M363.8 311.86h-.16a3.49 3.49 0 0 1-3.33-3.66 198.12 198.12 0 0 0-.31-21.07c-1-12.46-3.12-22.11-4.7-25.81a3.5 3.5 0 0 1 6.45-2.74c1.84 4.35 4.18 14.69 5.23 28a198.87 198.87 0 0 1 .32 22 3.51 3.51 0 0 1-3.5 3.28Z" transform="translate(-137.76 -253.23)" style="fill:#fdd597"/><path d="M359 320.11h-.16a3.5 3.5 0 0 1-3.34-3.66 214.15 214.15 0 0 0-2.75-39 59.33 59.33 0 0 0-3.17-11.78A3.5 3.5 0 0 1 356 263a65.24 65.24 0 0 1 3.61 13.34 215.54 215.54 0 0 1 2.83 40.4 3.49 3.49 0 0 1-3.44 3.37Z" transform="translate(-137.76 -253.23)" style="fill:#ee8770"/><path d="M386.72 314.91h-.06a3.5 3.5 0 0 1-3.44-3.56c0-.11.21-11.2 1-24.47a70.17 70.17 0 0 1 6.55-26.28 3.5 3.5 0 1 1 6.26 3.13 62.78 62.78 0 0 0-5.82 23.56c-.78 13.13-1 24.07-1 24.18a3.5 3.5 0 0 1-3.49 3.44Z" transform="translate(-137.76 -253.23)" style="fill:#cba9d0"/><path d="M375.5 313.62a3.5 3.5 0 0 1-3.47-3.16c0-.48-1.16-11.82-1-25.1a212.18 212.18 0 0 1 2.09-29.36 3.5 3.5 0 0 1 6.85 1.43 214.76 214.76 0 0 0-2 28c-.11 12.89 1 24.24 1 24.35a3.5 3.5 0 0 1-3.14 3.83Z" transform="translate(-137.76 -253.23)" style="fill:#b9d799"/><path d="M369.49 312.07a3.51 3.51 0 0 1-3.46-3.55c.1-8.62-.49-42-1-48.17a3.5 3.5 0 0 1 7-.61c.58 6.69 1.14 41.13 1.05 48.87a3.5 3.5 0 0 1-3.59 3.46Z" transform="translate(-137.76 -253.23)" style="fill:#feeb98"/><path d="M381.05 313.21a3.49 3.49 0 0 1-3.49-3.34c0-.09-.43-9.68-.43-21.78 0-12.28 2-23.28 3.83-28.31a3.5 3.5 0 1 1 6.57 2.4c-1.36 3.73-3.4 13.71-3.4 25.91 0 11.94.42 21.37.42 21.47a3.5 3.5 0 0 1-3.34 3.65Z" transform="translate(-137.76 -253.23)" style="fill:#c3dff6"/><path d="M392.13 302.83c1.73.44 3.29 5.92 3.29 13.8s.39 44.81.65 48.36-1.84 5.65-3.54 8.93-6.12 9.59-6.12 9.59l-3.35-1-1.31-79.85s8.25-.35 10.38.17Z" transform="translate(-137.76 -253.23)" style="fill:#a4a8be"/><path d="M357.05 302.64c-1.84 0-5 .17-6 4.2s-.67 56.2-.67 58.38.17 5.88 3.53 7.39 24.49 11.24 26.5 11.91a5.52 5.52 0 0 0 6-1s.39-72 0-76-2-4.87-2-4.87Z" transform="translate(-137.76 -253.23)" style="fill:#babcd0"/><path d="m168.13 571-.46-11.55s-8.93 3-9.33 2.65l.4 9.2c-2.73-1-11.48-5.57-15.37-.32-4.19 5.65 5.44 16 22.2 19 0 0 20.7-7.5 21.69-16.52 1.27-11.46-15.39-8.15-19.13-2.46Z" transform="translate(-137.76 -253.23)" style="fill:#9cc993"/><path d="M165.13 566.79c-8.13 1.87-17.22-4.88-20.9-9.13s-5.94-11.79-5.94-11.79l5-10.85 12.86-6.91 12.13-.77 7.75 4.13 4.05 3.95s2.57 9.27-.58 17.44-8.32 12.54-14.37 13.93Z" transform="translate(-137.76 -253.23)" style="fill:#fdd598"/><path d="M162.48 552.74a38.42 38.42 0 0 1-5.14 1.26c-7.28 1.24-13.08 0-16.35-3.63a11 11 0 0 1-3-9.75c1-5.22 5.61-9.34 9.26-11.29 4.81-2.57 14.59-4.89 20-4a2.43 2.43 0 0 1 .91.35c3.73.57 7.64 2.24 10 5.17a9.39 9.39 0 0 1 1.11 10.07c-2.27 5.08-9.54 9.52-16.79 11.82ZM150.08 533l-.63.32c-2.93 1.57-6.18 4.67-6.84 8.07a6.76 6.76 0 0 0 2 6c2.13 2.33 6.52 3.13 12 2.19 8.08-1.38 16.44-6.1 18.27-10.3a5 5 0 0 0-.52-5.58c-2.26-2.81-7.24-4-10.56-3.57-4.23.61-9.17 3.7-10.58 6.61a2.66 2.66 0 0 0 .1 2.89c.7 1 1.29 1.06 1.52 1.07 1.73.07 4.57-2.34 5.95-4a2.44 2.44 0 0 1 3.32-.39 2.2 2.2 0 0 1 .35 3.19c-.51.6-5.06 5.89-9.89 5.72a6.43 6.43 0 0 1-5.24-3.09 7.07 7.07 0 0 1-.4-7.25 11.91 11.91 0 0 1 1.15-1.88Z" transform="translate(-137.76 -253.23)" style="fill:#eabf7b"/></svg>