<svg id="Layer_1" data-name="Layer 1" xmlns="http://www.w3.org/2000/svg" viewBox="0 0 187.69 166.33"><defs><clipPath id="clip-path" transform="translate(-257.39 -140.75)"><path class="cls-1" d="M269 213.91v85.8a6.37 6.37 0 0 0 6.33 6.37l130.93 1a6.36 6.36 0 0 0 4.42-1.75l14.49-13.8a7.93 7.93 0 0 0 2.47-5.68l.72-92.19-79.68-27.58z"/></clipPath><clipPath id="clip-path-2" transform="translate(-257.39 -140.75)"><path class="cls-1" d="M297.25 187.09s12.87 1.18 22.56-5.75 8.13-16 7.46-19.75S320.11 143 301 144.15s-36.45 16-35.18 31.15 10.86 24.14 24.37 22.9c10.81-1 11.78-4.12 11.78-4.12z"/></clipPath><clipPath id="clip-path-3" transform="translate(-257.39 -140.75)"><path class="cls-1" d="M400.79 195.7s-14.19-.78-23.64-10.13-6.32-19.2-5-23.35 10.72-19.62 31.3-15.26 37.12 23.89 33.35 40.64-15.62 25.27-30.13 21.69c-11.6-2.87-12.16-6.54-12.16-6.54z"/></clipPath><style>.cls-1,.cls-8{fill:none}.cls-6{fill:#fbf2b9}.cls-8{stroke:#f4e29d;stroke-width:5px;stroke-linecap:round;stroke-miterlimit:10}.cls-11{fill:#fdb3c1}</style></defs><path d="M269 213.91v85.8a6.37 6.37 0 0 0 6.33 6.37l130.93 1a6.36 6.36 0 0 0 4.42-1.75l14.49-13.8a7.93 7.93 0 0 0 2.47-5.68l.72-92.19-79.68-27.58z" transform="translate(-257.39 -140.75)" fill="#fafffc"/><g clip-path="url(#clip-path)"><path fill="#e9f5f2" d="M151.72 56.72h24.07v109.61h-24.07z"/></g><path d="m267.94 217.2 78.26-40.71 61.55 40.35a3.1 3.1 0 0 0 3.89-.42l19.07-20.56a2 2 0 0 0-.38-3.1L368.93 152a7.55 7.55 0 0 0-7.55-.41l-72 37.1-23.48 24.76a1.28 1.28 0 0 0-.3 1.25l.53 1.72a1.27 1.27 0 0 0 1.81.78z" transform="translate(-257.39 -140.75)" fill="#c2e9f9"/><path class="cls-6" d="M297.25 187.09s12.87 1.18 22.56-5.75 8.13-16 7.46-19.75S320.11 143 301 144.15s-36.45 16-35.18 31.15 10.86 24.14 24.37 22.9c10.81-1 11.78-4.12 11.78-4.12z" transform="translate(-257.39 -140.75)"/><g clip-path="url(#clip-path-2)"><path class="cls-8" d="M291.34 143.25s11.7 7.16 14.09 18.34m-37.72-5.37s16.48 4.47 22.44 14.24m-30.26 9.39s11.55-1.19 19.6 4.32m24.51-7.3s-9.31-1.49-10.43 4.62 7.3 14.68 7.3 14.68" transform="translate(-257.39 -140.75)"/></g><path class="cls-6" d="M400.79 195.7s-14.19-.78-23.64-10.13-6.32-19.2-5-23.35 10.72-19.62 31.3-15.26 37.12 23.89 33.35 40.64-15.62 25.27-30.13 21.69c-11.6-2.87-12.16-6.54-12.16-6.54z" transform="translate(-257.39 -140.75)"/><g clip-path="url(#clip-path-3)"><path class="cls-8" d="M414.14 147.53s-13.86 6.11-18.22 18.25m41.88.14s-18.63 2.32-26.66 12.29m31.44 15.45s-12.38-3.21-22 1.65m-25.53-12.18s10.37-.15 10.62 6.88-11.25 14.88-11.25 14.88" transform="translate(-257.39 -140.75)"/></g><path d="M335.54 227.1v-16.69s-2.61-5.15-6.93-4.25-5.59 2.91-5.89 7.53m26.01-2.69s-1.34-4.62-6-4.54a8.35 8.35 0 0 0-6.73 3.64" transform="translate(-257.39 -140.75)" style="stroke:#fbf2b9;stroke-width:3px;stroke-linejoin:round;stroke-linecap:round;fill:none"/><ellipse class="cls-11" cx="31.87" cy="124.07" rx="10.58" ry="10.43"/><ellipse class="cls-11" cx="125.56" cy="124.74" rx="10.58" ry="10.43"/><path d="M293.06 251.92a13.36 13.36 0 0 0 11.33 6.79c7.9.07 10.06-7.53 10.06-7.53m44.42.74a10.61 10.61 0 0 0 10.13 6.49 10.46 10.46 0 0 0 10.13-6.78m-50 7.92s2.94 3.45 5.78 3.45c3 0 5.77-2.84 5.77-2.84" transform="translate(-257.39 -140.75)" style="stroke:#a7a4a9;stroke-width:2.5px;stroke-miterlimit:10;stroke-linecap:round;fill:none"/><path d="M68.91 131.15a4 4 0 0 0 2.83 1.58c4.17.07 5.78-10.15 5.78-10.15s1.55 11 5.06 11a4.85 4.85 0 0 0 3.62-1.49" stroke="#a7a4a9" stroke-width="2.5" stroke-linejoin="round" stroke-linecap="round" fill="none"/></svg>