<svg xmlns="http://www.w3.org/2000/svg" viewBox="0 0 250.6 308.71"><defs><style>.cls-5{fill:#d3edcd}</style></defs><g id="Layer_1" data-name="Layer 1"><path d="M722.47 748.27s-44.66-33.83-48.26-36.92-9.24-7.7-9.76-25.17 0-175.16 0-175.16l51.91 40.58z" transform="translate(-661.57 -443.2)" fill="#9cc992"/><path d="M715.36 550.6s-2.05 168 0 182.36 7.17 17.46 18.47 18.49 142.81 0 150.51 0 18.44-3.08 18.44-12.07V548l-87.27-54.45z" transform="translate(-661.57 -443.2)" fill="#c9f1c0"/><path d="M907.75 542.82c-.78-.65-21.5-15.26-46.7-33v-40.21c0-9-2-9.36-9.92-9.36h-16.37c-11 0-8.48 7.09-8.29 14.72.06 2.11.06 6.56 0 10.59-29.71-20.87-56.43-39.62-57.46-40.32-2.34-1.58-6.86-3.67-12 0s-90.13 58-92 59.37-5.1 4-2.51 7.69 50.58 45.15 53.34 47.07 5.94.92 9-1c2.77-1.73 73.8-47.52 88.49-57a4.86 4.86 0 0 1 5.28 0c13.83 9 77.6 50.35 80.67 51.84 3.44 1.67 8.66 3.64 11.76-.54s-1.28-8.18-3.29-9.85z" transform="translate(-661.57 -443.2)" fill="#71aa64"/><path d="M862.11 617.08c-.07-.2-1.44-4.79-7.57-6.35-6-1.53-9.08 1.16-9.23 1.31-1.92 2-5.53 2.75-7.52.83s-.83-5.82 1.09-7.81c2.78-2.88 8.78-6.42 18.14-4a20.91 20.91 0 0 1 14.84 12.8c1.64 4-.31 6.69-2.94 7.53-3.92 1.22-6.13-2.18-6.81-4.31zm-13.37 9.81c-8.74 0-9.85 11.37-8.56 17.28 1.24 5.64 10.7 11.83 16 .4 3.34-7.2-.98-17.68-7.44-17.68zm-73.62-2.74s-8.39-2.31-13.48-2.41-8.25.67-8.73 3.55 1.82 4.09 7 4.93c1.61.26 3 .57 4.24.89a15.11 15.11 0 0 0-.84 10.42c4 12.93 15.21 7.82 17.39 2s2.75-17.28-5.58-19.38zm50.74 32.28h-34.24a5 5 0 0 1 0-10h34.24a5 5 0 0 1 0 10z" transform="translate(-661.57 -443.2)" style="fill:#609553"/><path class="cls-5" d="m69.54 46.51 7.99 7.52 24.04-18.23-8.45-6.49-23.58 17.2z"/><path class="cls-5" d="m712 527.81 7.8 7.57a6.18 6.18 0 0 0 6.57.42l23.88-17.09-11.72-11zm33-25.03L756.9 514l25.1-18a6.4 6.4 0 0 0 1.57-1.38L769.71 484z" transform="translate(-661.57 -443.2)"/><path class="cls-5" d="M62.97 51.31 36.22 70.82l-.33-.32 8.75 8.48 26.43-20.05-8.1-7.62z"/><path d="m725.87 484.78 5.24 4.93 23.58-17.21 8.45 6.49 3.6-2.73-12.27-9.85a1.88 1.88 0 0 0-.23-.16 3 3 0 0 0-.56-.29 2.89 2.89 0 0 0-.82-.15h-.05a3.2 3.2 0 0 0-.87.12 3.35 3.35 0 0 0-.66.32l-.15.09zm57.96 9.43.09-.14.16-.3a1.11 1.11 0 0 1 .07-.16l.11-.3v-.14a2.49 2.49 0 0 0 .08-.35.29.29 0 0 0 0-.09 3 3 0 0 0 0-.42v-.11a2.81 2.81 0 0 0 0-.3v-.15a2.34 2.34 0 0 0 0-.26v-.13a2.29 2.29 0 0 0-.08-.28v-.1a3.65 3.65 0 0 0-.14-.35v-.06l-.15-.26-.06-.1c-.05-.07-.09-.14-.14-.2l-.07-.1-.16-.18-.07-.07-.24-.22-10-8-3.52 2.56 13.81 10.61a4.15 4.15 0 0 0 .31-.4zm-59.3.3-5.23-4.93-24 17.54a2.69 2.69 0 0 0-.46.43l-.11.15a2.92 2.92 0 0 0-.45.9 2.77 2.77 0 0 0 .08 1.73 2.88 2.88 0 0 0 .69 1l2.42 2.34.34.33z" transform="translate(-661.57 -443.2)" style="fill:#5c9a4f"/></g></svg>