<svg xmlns="http://www.w3.org/2000/svg" viewBox="0 0 334.19 374.52"><g data-name="Layer 1"><path d="M72.22 17.18s2.07-7.66 12.17-10.55c10.5-3 16.28 1.93 16.28 1.93a14.53 14.53 0 0 1 9.85-6.21c8.14-1.28 12.21 2.79 12.21 2.79s5.14-4.07 10.5-4.5 9.42 3.42 9.42 3.42a11.29 11.29 0 0 1 19.28 3.43 23.32 23.32 0 0 1 16.06.43c8.57 3.43 8.78 10.28 8.78 10.28s6.43-.86 15.21 4.71 7.76 15.64 7.76 15.64 7.71 2.57 11.14 8.14.43 12.42.43 12.42 10.92 6.64 12.85 16.92-2.57 16.07-2.57 16.07 4.07 7.71 3.64 14.35a21.63 21.63 0 0 1-4.71 11.56 16.77 16.77 0 0 1-6.69 13.69c-7.29 5.57-13.71 2.79-13.71 2.79a17.9 17.9 0 0 1-10.71 7.71c-7.28 1.71-13.92-2.36-13.92-2.36a18.22 18.22 0 0 1-12.21 3.64c-7.5-.43-10.07-5.35-10.07-5.35a21.5 21.5 0 0 1-10.49.64 10.62 10.62 0 0 1-7.93-5.78s-5.57 4.07-12.21 3.42a9.52 9.52 0 0 1-8.35-6l-12-2.79s-2.14 5.78-9.85 8.35a17 17 0 0 1-14.13-1.92 15.4 15.4 0 0 1-9.64 5.78 15 15 0 0 1-11.14-2.78 18.31 18.31 0 0 1-13.07 3c-7.92-1.07-9.21-5.35-9.21-5.35s-6.64 4.5-13.49 2.57-7.07-7.5-7.07-7.5a13.31 13.31 0 0 1-10.49-3.85c-4.93-4.71-4.72-12.64-4.72-12.64S-.21 106.43 0 95.07s5.74-15.83 5.74-15.83-.42-9 5.14-15.63 8.86-6.21 8.86-6.21 1.28-10.07 6.64-14.57a21 21 0 0 1 12.2-4.5 13.63 13.63 0 0 1 5.36-9.85 14.39 14.39 0 0 1 10.71-2.35 11.19 11.19 0 0 1 5.78-7.29c4.9-2.57 11.79-1.66 11.79-1.66z" fill="#fcd8ff"/><path d="M199.11 64.02c-3.3-1.17-16.23 6.75-18.34 8-1.37.83-8 5-14.49 9.24 3.41-5.37 11-17.9 6.69-16.4-3 1-8 6.74-12 13.07-2.14 3.38-5.25 8.38-7.67 12.31-7.85 6.32-19 17.54-23.95 25a125.91 125.91 0 0 0-6.93 12.51c-.66-20.43-1.29-41.27-1.29-46.45 0-9.91 0-15.6-3.17-15.81-2.31-.16-4.63 3.79-5.9 5.27-.91 1.06-1.38 21.72-1.65 38.15A204.5 204.5 0 0 0 94.74 94.8 98.94 98.94 0 0 0 85 88.25c-2.68-3.57-6.07-7.91-9.23-11.37a138 138 0 0 0-13.91-13.07c-1.06 3.16.21 6.12 4.21 11.6.94 1.28 2.13 2.73 3.39 4.19-6.5-3.36-12.41-6.14-15.61-7.36-7.8-3-13.07-1.26-13.07-1.26-3.17.63 0 1.77 3.16 3.37 9.7 4.85 21.51 11.62 27.19 14.76 8 4.43 27 16.86 33.94 24.24 2 2.08 3.68 3.94 5.15 5.54 0 2.35-.06 4.41-.09 6.06-.21 13.07-1 67.67-.63 76.73s.63 22.14.63 22.14a10.41 10.41 0 0 0 7.8 3.16 9.18 9.18 0 0 0 7.17-4.22s-.84-40.26-1.26-52.28c-.13-3.69-.44-12.61-.81-23.47 2.84-8 8.59-22.47 15.77-31.55 10.33-13.07 28-27.62 43.22-36.05s20.72-14.12 17.09-15.39z" fill="#e6b3ea"/><path d="M89.67 225.84s-1.06 114.74-1.06 121.86.71 12.75 10.27 13.81 115.44 0 121.46 0 56.67-.71 56.67-.71l-.36-123.23-77.55-68.71z" fill="#e3a8fd"/><path d="M318.09 195.03s1 110.37.35 113.68c-2.13 11.33-41.43 52-41.43 52l-.36-123.23z" fill="#d68ff5"/><path d="M195.74 178.41c-2.45-.25-90.57 49.58-99.16 54.49s-16.2 7.85-17.68 3.19 26.27-42.47 31.18-49.34 128.37-69 128.37-69a10.22 10.22 0 0 1 8.35 3.19c3.92 3.93 71.18 64.31 76.83 69.46s-1.25 11.3-4.69 14.3-38 41.24-42.22 40.75-21.11-15.5-29.98-23.35-51-43.69-51-43.69z" fill="#6e7df4"/><path d="M734.14 702.54c-5.26 1-11.65 6-10.08 12.91s13.86 7.24 19.53 4.72 10.08-10 4.09-15.74c-3.47-3.3-10.75-2.43-13.54-1.89zm127.58 2.7c5.26 1 11.66 6 10.08 12.91s-13.86 7.24-19.52 4.72-10.09-10-4.1-15.74c3.47-3.3 10.75-2.43 13.54-1.89z" transform="translate(-622.26 -410.3)" style="fill:#ffd7f9"/><path d="M759.81 687.63c-4.9.32-9.58 7.12-7.61 12.52s11 8.59 16.44 3.19 2.21-16.45-8.83-15.71zm80.8 14.58c3.24-3.7 1.74-11.81-3.47-14.24s-13.88 1.74-13.88 9.38 10.06 13.19 17.35 4.86zm-45.54 13.08a17.27 17.27 0 0 1-2.24-.14c-4.91-.6-8.76-3.63-11.14-8.77a24.44 24.44 0 0 1-2-7.16 3 3 0 0 1 6-.61c0 .17 1.14 9.75 7.93 10.59 9.43 1.15 13.1-8.88 13.25-9.31a3 3 0 0 1 5.67 2c-1.75 4.83-7.45 13.4-17.47 13.4z" transform="translate(-622.26 -410.3)" style="fill:#b56ed4"/><path d="M271.57 158.77c-6.89-8.72 2.7-24.72 15.22-24.55 11.75.16 3.93-5.94 2.94-6.87-1.29-1.21-22.58-12-39.76 4.17s-13.5 40.75-3 51.55 30.19 15.22 45.9 5.65 15.47-23.08 15.71-25.53-.86-8.4-5.4-4.42c-10.01 8.84-23.27 10.55-31.61 0z" fill="#feeb98"/><path d="M249.24 336.84s-2.45-15.44 12.5-21.65c14.24-5.94 24 6.52 24 6.52s10.72-6.31 22.25-.89c10.08 4.75 10.67 15.43 10.67 15.43s14.24 2.08 15.43 16a27.91 27.91 0 0 1-8.35 22.27h-89.26s-12.46-9.2-7.12-24 19.88-13.68 19.88-13.68z" fill="#c0f1d1"/></g></svg>