<svg id="Layer_1" data-name="Layer 1" xmlns="http://www.w3.org/2000/svg" viewBox="0 0 195.07 264.37"><defs><style>.cls-4{fill:#f0827b}.cls-6{fill:#fef6e3}.cls-7{fill:#f3c853}.cls-8{fill:#f4a59f}.cls-10{fill:#f9c6c1}</style></defs><path d="M214.72 342.85v69.62c0 7 .23 42.46 1.16 45.71s2.09 6.5 5.57 8.82 23.26 14.19 28.8 14.39-.73-114.4-.73-114.4Z" transform="translate(-201.02 -246.14)" style="fill:#f0ce9c"/><path d="M224.23 352.37s-.25 111.5 2.19 117.7l8.3 4.73s-3.3-99.23-2.37-113.85-8.12-8.58-8.12-8.58Z" transform="translate(-201.02 -246.14)" style="fill:#fff"/><path d="M242.56 366.29s.76 101.17 1.31 105.35.61 9.05 6.38 9.75 133.4.69 136.65-1.16 5.1-2.56 5.57-6-.93-109.52-.93-109.52L318 315Z" transform="translate(-201.02 -246.14)" style="fill:#ffe3ba"/><path class="cls-4" d="M316.19 322.27a4.75 4.75 0 0 1 5.45 0c12.61 8.77 64.69 44.88 69 45.9 4.87 1.16 6.73-1.39 4.64-5.8s-24.6-24.6-27.15-27.15-68.93-50.82-71.36-52.68-5.91-1.16-8.23.7-75.19 51-76.81 53.14-3 5.57 0 9.05 23.21 23.9 25.53 25.52 6.26 1.86 10-.23c3.21-1.86 56.23-39.44 68.93-48.45Z" transform="translate(-201.02 -246.14)"/><path d="M245.77 458s-.82-17.83-12.88-18.39c-10.78-.49-13.72 11.21-13.72 11.21s-8.81-1-13.44 6.25a10.51 10.51 0 0 0 .68 12.89s-8.63 6.73-4 15c4.68 8.41 19.89 7.71 19.89 7.71Z" transform="translate(-201.02 -246.14)" style="fill:#aad29a"/><path class="cls-4" d="M234.44 453.53c24.88-4.13 37.24 14.67 40 31.88 2.22 14.11-9.94 26.15-25.76 25-20.34-1.45-33.24-14.32-35.35-29.16s11.6-26.14 21.11-27.72Z" transform="translate(-201.02 -246.14)"/><path class="cls-6" d="M251.15 470.24c1.13-1.72 5.21 3.27 3.89 5.21s-5.99-2.02-3.89-5.21ZM232.88 483.72c.75-2.48 7.53 2.06 5.46 5.37s-6.86-.73-5.46-5.37ZM222.57 480.08c2.73-1.84 7.72 6.47 5.08 8.3s-7.84-6.44-5.08-8.3ZM262 479.35c2-.61 6.37 6.63 3.07 8.4s-5.32-7.75-3.07-8.4Z" transform="translate(-201.02 -246.14)"/><path class="cls-7" d="M338.77 402.5a1.74 1.74 0 0 1-1.09 1c-5.55 1.71-7.69 3-8.2 4.79s2.16 2.8 4.77 3.77a.94.94 0 0 1 .61 1c-.18 1.51-.49 4.9.16 6.2.84 1.7 3.36 1.56 5.15.7 2.43-1.16 3.43-3.4 4.56-3.26s4.39 2.84 7.55 2.71 2.31-3.71 1.88-5.28c-.35-1.27-.72-1.89-.54-2.56s3-1.28 3.57-3.8-2.72-3.37-4.89-3.78c-2.81-.54-2.81-1.24-2.81-1.24s-1.11-4.72-2.51-6.47c-1.21-1.52-3.82-1.36-5.3.56a29.44 29.44 0 0 0-2.91 5.66ZM286.79 403.06a1.73 1.73 0 0 1-1.12.94c-5.6 1.54-7.79 2.81-8.35 4.54s2.08 2.86 4.66 3.91a1 1 0 0 1 .58 1c-.23 1.5-.65 4.88 0 6.2.79 1.72 3.32 1.66 5.13.86 2.47-1.09 3.53-3.3 4.66-3.12s4.3 3 7.45 2.94 2.43-3.63 2.05-5.22c-.31-1.27-.66-1.9-.46-2.57s3-1.18 3.69-3.69-2.62-3.45-4.77-3.93c-2.8-.62-2.77-1.32-2.77-1.32s-1-4.76-2.31-6.55c-1.16-1.55-3.77-1.48-5.32.4a29.4 29.4 0 0 0-3.12 5.61Z" transform="translate(-201.02 -246.14)"/><path class="cls-8" d="M267.41 438.36a11.53 11.53 0 0 1-1.85-.14c-4.23-.63-7.21-3.31-8-7.16a12.27 12.27 0 0 1 2.12-9.68 13.16 13.16 0 0 1 8.89-5.3 2 2 0 1 1 .47 4 9.07 9.07 0 0 0-6.12 3.68 8.18 8.18 0 0 0-1.44 6.55c.61 3.06 3.45 3.81 4.64 4 2.74.41 6.31-.63 7.81-3.41.81-1.51.94-2.85.36-3.74a1.83 1.83 0 0 0-1.39-.9 3.74 3.74 0 0 0-3.05 2 2 2 0 0 1-3.57-1.81 7.79 7.79 0 0 1 6.34-4.21 5.81 5.81 0 0 1 5 2.72c.81 1.26 1.86 3.95-.21 7.81a11.38 11.38 0 0 1-10 5.59ZM369.62 438.36a11.61 11.61 0 0 1-1.85-.14c-4.23-.63-7.2-3.31-8-7.16a12.23 12.23 0 0 1 2.13-9.68 13.12 13.12 0 0 1 8.88-5.3 2 2 0 1 1 .47 4 9.09 9.09 0 0 0-6.12 3.68 8.18 8.18 0 0 0-1.43 6.55c.6 3.06 3.44 3.81 4.63 4 2.74.41 6.31-.63 7.81-3.41.82-1.51.95-2.85.37-3.74a1.86 1.86 0 0 0-1.4-.9 3.74 3.74 0 0 0-3.05 2 2 2 0 1 1-3.56-1.81 7.77 7.77 0 0 1 6.34-4.21 5.79 5.79 0 0 1 5 2.72c.81 1.26 1.87 3.95-.21 7.81a11.37 11.37 0 0 1-10.01 5.59Z" transform="translate(-201.02 -246.14)"/><path d="M319.18 425c-4.82 0-7.51-6-7.8-6.7a2 2 0 0 1 3.69-1.57c.59 1.4 2.38 4.27 4.11 4.27 2.06 0 3.75-3.31 4.09-4.2a2 2 0 1 1 3.73 1.4c-.1.28-2.65 6.8-7.82 6.8Z" transform="translate(-201.02 -246.14)" style="fill:#c4a16c"/><path class="cls-10" d="m58.45 26.54.14 7.08h4.17v-6.48l-4.31-.6z"/><path class="cls-10" d="M268.83 329.12c-2.12 2.12-8.16 2.62-11.74 1A3.61 3.61 0 0 1 255 327c-.34-7.44-.76-39.11-.18-40.55.65-1.62 14.15-.05 14.15-.05s1.35 41.23-.14 42.72Z" transform="translate(-201.02 -246.14)"/><path d="M253.73 294c.24.69 1.39 4.14 3.48 3.45s2.55-3.55 3.83-3.8 1.58 1.52 3.71.75c1.06-.39 1.78-1.62 2.13-3.74s1.75-.72 2.79-2.1c.88-1.16.44-7.45-3-8.65-3.41-.81-7.8-.69-10.56.65-1.83.89-3 3.82-3.08 5a27.72 27.72 0 0 0 .7 8.44Z" transform="translate(-201.02 -246.14)" style="fill:#fbdedc"/><path class="cls-4" d="M256.73 250.22c-.27 1.65.15 4-1.25 6.22s-6 4-5.13 10.25c.79 5.68 6.22 10.8 14.38 8.63s9.94-12.67 7.69-18.34-6.77-9.48-8.71-10.33-6.21-1.17-6.98 3.57Z" transform="translate(-201.02 -246.14)"/><path d="M264.26 257.62c-3.36-2-3.1 2.59-5.16 5.26-1.45 1.88-4.93 3.13-3.78 7.77.78 3.15 7.3 4.46 10.91 1.3s3.28-11.17-1.97-14.33Z" transform="translate(-201.02 -246.14)" style="fill:#fbdd8c"/></svg>