<?xml version="1.0" standalone="no"?>
<!DOCTYPE svg PUBLIC "-//W3C//DTD SVG 20010904//EN"
 "http://www.w3.org/TR/2001/REC-SVG-20010904/DTD/svg10.dtd">
<svg version="1.0" xmlns="http://www.w3.org/2000/svg"
 width="716.000000pt" height="716.000000pt" viewBox="0 0 716.000000 716.000000"
 preserveAspectRatio="xMidYMid meet">
<metadata>
Created by potrace 1.14, written by Peter Selinger 2001-2017
</metadata>
<g transform="translate(0.000000,716.000000) scale(0.100000,-0.100000)"
fill="#000000" stroke="none">
<path d="M2872 7118 c-3 -11 -14 -18 -31 -18 -16 -1 -35 -12 -51 -30 -13 -17
-30 -30 -37 -30 -7 0 -13 -7 -13 -15 0 -8 -8 -15 -18 -15 -11 0 -29 -9 -42
-20 -13 -11 -29 -20 -37 -20 -7 0 -16 -7 -19 -15 -4 -8 -15 -15 -25 -15 -10 0
-19 -6 -19 -12 0 -7 -14 -22 -30 -33 -16 -11 -30 -26 -30 -32 0 -7 -6 -13 -13
-13 -7 0 -18 -9 -25 -20 -7 -12 -17 -18 -23 -14 -6 3 -23 -6 -38 -21 -15 -15
-43 -33 -62 -39 -18 -7 -33 -18 -31 -24 1 -7 -5 -15 -13 -18 -8 -3 -12 -10 -9
-15 3 -5 -3 -12 -13 -16 -10 -3 -31 -16 -48 -28 -16 -12 -40 -25 -52 -29 -11
-4 -24 -14 -27 -22 -3 -8 -10 -13 -15 -9 -5 3 -12 -4 -16 -15 -3 -11 -13 -20
-21 -20 -8 0 -13 -5 -11 -11 1 -7 -10 -15 -25 -19 -15 -4 -39 -20 -55 -34 -15
-15 -38 -29 -50 -32 -13 -4 -23 -10 -23 -15 0 -5 -7 -9 -15 -9 -8 0 -15 -9
-15 -20 0 -13 -7 -20 -19 -20 -11 0 -26 -7 -35 -15 -8 -8 -19 -15 -24 -15 -5
0 -18 -12 -28 -26 -10 -14 -29 -30 -42 -35 -13 -5 -20 -13 -17 -19 3 -5 -1
-10 -9 -10 -9 0 -21 -9 -28 -20 -7 -11 -22 -20 -33 -20 -12 0 -28 -12 -39 -30
-9 -17 -21 -28 -26 -25 -5 3 -15 -3 -22 -13 -7 -10 -23 -18 -35 -17 -13 1 -23
-4 -23 -12 0 -7 -9 -18 -20 -25 -11 -7 -20 -17 -20 -23 0 -6 -12 -12 -26 -13
-26 -2 -131 -97 -126 -114 1 -4 -11 -8 -26 -8 -20 0 -37 -10 -57 -34 -16 -19
-33 -33 -37 -30 -4 3 -8 -4 -8 -16 0 -12 -4 -18 -11 -15 -14 9 -59 -3 -59 -16
0 -18 -69 -74 -98 -80 -15 -3 -26 -10 -24 -17 1 -7 -3 -12 -9 -12 -7 0 -27
-15 -45 -34 -19 -19 -43 -37 -54 -41 -11 -3 -20 -11 -20 -16 0 -5 -9 -9 -20
-9 -11 0 -19 -3 -18 -7 5 -16 -37 -53 -59 -53 -16 0 -23 -6 -23 -20 0 -11 -7
-20 -15 -20 -9 0 -28 -11 -43 -25 -15 -14 -36 -28 -47 -31 -10 -4 -30 -20 -44
-35 -14 -16 -31 -29 -38 -29 -7 0 -13 -6 -13 -13 0 -18 -37 -47 -59 -47 -10 0
-21 -6 -24 -14 -3 -8 -19 -17 -35 -21 -32 -7 -63 -31 -88 -70 -11 -17 -26 -25
-45 -25 -19 0 -29 -5 -29 -15 0 -8 -6 -15 -12 -15 -7 0 -22 -14 -33 -30 -11
-16 -25 -30 -31 -30 -7 0 -14 -9 -17 -20 -3 -11 -9 -20 -14 -19 -27 5 -53 -3
-53 -16 0 -8 -7 -15 -15 -15 -8 0 -15 -7 -15 -15 0 -8 -5 -15 -11 -15 -18 0
-48 -44 -49 -71 0 -18 -7 -28 -20 -32 -24 -6 -27 -27 -4 -27 8 0 20 -13 25
-29 6 -18 20 -32 35 -35 13 -4 24 -13 24 -21 0 -8 7 -15 15 -15 8 0 15 -7 15
-15 0 -8 4 -15 9 -15 5 0 14 -13 20 -30 5 -16 15 -30 20 -30 13 0 51 -36 51
-49 0 -5 6 -14 14 -20 12 -10 15 -61 15 -287 0 -166 -4 -274 -10 -274 -5 0 -9
-17 -9 -38 0 -26 6 -42 20 -52 22 -16 27 -46 8 -52 -8 -3 -11 -50 -10 -158 1
-105 -3 -157 -10 -161 -8 -5 -9 -11 -1 -21 13 -16 15 -238 2 -238 -5 0 -9 -31
-9 -70 0 -41 4 -70 10 -70 12 0 7 -473 -5 -502 -4 -10 -3 -18 3 -18 5 0 10
-45 10 -110 0 -61 -4 -110 -9 -110 -5 0 -9 -13 -9 -30 0 -16 4 -30 10 -30 12
0 9 -884 -3 -896 -11 -11 -8 -64 3 -64 6 0 10 -18 10 -39 0 -22 5 -41 13 -44
9 -3 9 -9 -1 -26 -6 -11 -12 -33 -12 -47 0 -17 -4 -24 -13 -21 -9 3 -12 -5 -9
-29 2 -19 8 -34 13 -34 12 0 11 -87 -1 -95 -6 -3 -10 -52 -10 -112 0 -95 2
-108 21 -124 11 -10 18 -23 14 -28 -3 -7 0 -8 9 -5 12 5 16 -1 16 -25 0 -24 4
-31 20 -31 13 0 20 -7 20 -20 0 -13 7 -20 20 -20 11 0 20 -7 20 -16 0 -8 5
-12 10 -9 6 3 10 -3 10 -14 0 -14 6 -21 20 -21 13 0 20 -7 20 -20 0 -11 5 -20
11 -20 6 0 8 -7 5 -16 -3 -8 -2 -12 4 -9 13 8 83 -62 75 -75 -4 -6 1 -13 9
-16 9 -3 16 -15 16 -25 0 -17 4 -20 25 -19 10 0 75 -69 75 -80 0 -6 5 -8 10
-5 6 3 10 -3 10 -14 0 -14 6 -21 20 -21 11 0 20 -7 20 -15 0 -18 44 -65 60
-65 12 0 41 -25 40 -35 -2 -36 2 -45 21 -45 14 0 19 -5 16 -13 -4 -10 2 -13
20 -9 18 3 24 1 19 -7 -4 -6 -2 -11 4 -11 15 0 41 -26 33 -34 -4 -3 0 -6 8 -6
8 0 22 -11 33 -24 10 -14 24 -22 32 -19 9 3 14 -2 14 -16 0 -25 -29 -23 335
-23 178 -1 262 -4 268 -12 5 -8 9 -8 15 0 8 14 662 16 662 2 0 -11 57 -10 64
1 8 13 509 10 519 -3 5 -8 9 -8 15 0 5 8 184 10 612 9 333 -1 611 -2 618 -3 7
-1 11 -6 8 -10 -2 -4 11 -6 30 -4 19 2 34 7 34 11 0 4 131 7 290 8 160 0 290
-4 290 -9 0 -13 138 -10 142 4 3 9 12 9 36 -1 26 -11 34 -11 54 3 20 14 116
16 949 16 l926 0 34 23 c18 12 44 38 56 56 l23 34 1 931 c0 512 1 958 1 991 1
33 -3 59 -8 58 -16 -3 -15 47 0 53 11 4 13 16 9 42 -3 20 -10 39 -14 42 -10 7
-6 60 6 80 5 8 10 339 10 780 1 497 6 774 12 790 8 18 7 26 -1 30 -16 7 -14
237 2 267 11 19 10 22 -3 17 -8 -4 -15 -2 -15 2 0 13 16 36 23 32 3 -1 19 9
36 25 17 15 37 27 45 27 37 0 46 12 46 60 0 34 -4 50 -16 54 -8 3 -13 10 -10
15 8 12 -28 42 -53 44 -19 1 -28 25 -22 60 1 5 -2 6 -7 3 -7 -4 -57 47 -82 83
-3 4 -26 20 -52 35 -27 15 -48 34 -48 40 0 7 -16 29 -35 49 -19 20 -35 41 -35
47 0 6 -5 8 -10 5 -6 -3 -13 1 -16 9 -3 9 -12 16 -20 16 -8 0 -14 6 -14 14 0
8 -9 17 -19 21 -10 3 -22 17 -25 31 -4 14 -18 29 -31 34 -14 5 -25 17 -25 26
0 10 -3 15 -6 12 -6 -6 -74 55 -74 67 0 3 -7 13 -15 22 -8 8 -13 18 -11 22 3
4 -4 7 -14 8 -20 2 -60 37 -60 53 0 6 -5 10 -11 10 -13 0 -45 31 -40 39 2 3
-5 11 -15 16 -24 13 -94 84 -94 96 0 5 -6 9 -13 9 -7 0 -19 6 -26 13 -12 12
-16 13 -45 16 -7 0 -16 10 -19 21 -3 12 -14 20 -26 20 -12 0 -24 7 -27 15 -4
9 -19 15 -41 15 -20 0 -32 4 -28 10 3 6 -5 10 -19 10 -15 0 -30 8 -36 20 -6
11 -19 20 -30 20 -10 0 -22 5 -25 10 -3 6 -15 10 -26 10 -17 0 -24 11 -20 33
0 4 -17 7 -39 7 -29 0 -42 5 -50 20 -6 11 -16 19 -23 17 -7 -1 -11 3 -10 8 1
6 -10 12 -25 13 -14 1 -30 9 -35 17 -4 8 -16 15 -26 15 -10 0 -31 11 -46 24
-16 14 -32 23 -36 20 -4 -2 -9 3 -13 11 -3 9 -18 15 -36 15 -18 0 -33 6 -36
15 -4 8 -15 15 -25 15 -10 0 -19 4 -19 10 0 5 -11 12 -25 16 -13 3 -29 12 -36
20 -6 8 -22 14 -35 14 -15 0 -24 6 -24 15 0 8 -4 16 -10 16 -5 1 -14 3 -20 4
-5 1 -14 3 -20 4 -5 0 -10 7 -10 14 0 7 -12 14 -26 15 -15 1 -35 12 -45 24
-11 11 -19 18 -19 14 0 -4 -7 0 -16 8 -8 9 -29 16 -45 16 -18 0 -33 7 -41 20
-7 11 -23 20 -36 20 -13 0 -21 4 -18 8 2 4 -10 9 -27 10 -19 1 -38 10 -46 22
-7 11 -22 20 -34 20 -11 0 -31 12 -44 26 -13 14 -38 28 -56 31 -18 2 -37 11
-43 19 -6 8 -16 14 -22 14 -13 0 -84 40 -93 53 -3 4 -16 9 -27 10 -12 1 -22 7
-22 14 0 7 -11 13 -26 13 -16 0 -38 13 -60 35 -18 19 -40 35 -48 35 -22 0 -99
37 -124 60 -12 12 -39 24 -59 27 -23 4 -37 12 -41 25 -3 11 -13 18 -29 18 -13
0 -36 12 -51 28 -17 17 -40 28 -62 30 -19 2 -39 10 -43 18 -4 8 -15 14 -22 14
-8 0 -15 7 -15 15 0 12 -31 21 -44 13 -1 -2 -15 11 -30 28 -14 18 -38 35 -52
38 -15 4 -33 14 -41 21 -8 8 -30 15 -49 15 -21 0 -33 4 -29 10 3 6 0 10 -7 11
-34 2 -52 9 -60 23 -5 9 -18 16 -28 16 -11 0 -32 14 -47 30 -22 25 -34 30 -70
30 -40 0 -49 6 -44 33 1 5 -3 6 -8 2 -6 -3 -16 3 -23 15 -7 11 -20 20 -28 20
-9 0 -25 7 -36 15 -10 8 -28 15 -38 15 -10 0 -24 7 -30 15 -6 8 -21 16 -33 18
-13 2 -38 16 -58 33 -19 16 -44 30 -55 30 -38 3 -41 4 -35 14 3 5 -12 12 -35
16 -24 4 -40 12 -40 20 0 8 -7 14 -15 14 -8 0 -15 5 -15 10 0 6 -5 10 -11 10
-6 0 -23 9 -38 19 -15 11 -40 21 -56 23 -17 2 -29 8 -27 16 1 7 -9 12 -25 13
-16 0 -43 2 -62 3 -26 2 -35 -2 -39 -16z"/>
</g>
</svg>
