<?xml version="1.0" encoding="utf-8"?>
<!-- Generator: Adobe Illustrator 27.1.1, SVG Export Plug-In . SVG Version: 6.00 Build 0)  -->
<svg version="1.1" id="Layer_1" xmlns="http://www.w3.org/2000/svg" xmlns:xlink="http://www.w3.org/1999/xlink" x="0px" y="0px"
	 viewBox="0 0 196.9 285.9" style="enable-background:new 0 0 196.9 285.9;" xml:space="preserve">
<style type="text/css">
	.st0{fill:#DCB653;}
	.st1{fill:#EAC86B;}
	.st2{fill:#DDB955;}
	.st3{fill:#F9E386;}
	.st4{fill:#FFECC1;}
	.st5{fill:#81763C;}
	.st6{fill:#FFFFF5;}
	.st7{fill:#FBCEB4;}
	.st8{fill:#4AB97B;}
	.st9{fill:#F6C873;}
	.st10{fill:#E9B65F;}
</style>
<g>
	<path class="st0" d="M3.2,137.2v102.4c0,9.7,1.8,10.3,4.5,12.9s19.8,18.8,19.8,18.8l6.2-125.9L3.2,137.2z"/>
	<g>
		<path class="st1" d="M3.2,143.2c0,5.9,6.5,10.5,9.2,6.1C15.2,145,3.2,136,3.2,143.2z"/>
		<path class="st1" d="M14.1,151c-4,3.2-3.4,9.8-1.2,11.3c2.1,1.4,6.5-3.6,6.3-9.2C19,147.5,14.1,151,14.1,151z"/>
		<path class="st1" d="M21.9,157.4c-1.3,4-1.7,5.1-3.4,6.9c-1.7,1.8,1.2,5.6,3.4,3.6s3.1-4.7,2.5-8.8
			C23.8,154.9,22.5,155.5,21.9,157.4z"/>
		<path class="st1" d="M3.2,153.5c4.8,3.6,7.5,11.2,0,20.6V153.5z"/>
		<path class="st1" d="M12.9,167c-3.6,7.4-3.3,16.4,1.4,15.7S15.1,169.7,12.9,167z"/>
		<path class="st1" d="M5.6,180.9c-0.1,9-0.3,19.8,3.8,15.5S9.7,183.4,5.6,180.9z"/>
		<path class="st1" d="M26.1,172.2c-6.4,5.4-7.3,16.4,0,18.2V172.2z"/>
		<path class="st1" d="M18.8,189c-5.8,8.5-3,18.1,2.2,15.3S21,190.9,18.8,189z"/>
		<path class="st1" d="M7.2,208.7c3.8,1.8,7.1-4,3.2-6.3C6.5,200,2.3,206.3,7.2,208.7z"/>
		<path class="st1" d="M3.2,231.4c1.1-5.8,3.5-7.6,3.1-12.6c-0.4-5.1,3.6-7.6,4.1,0c0.4,7.6,1.3,9.6-1.8,12.6
			c-3.1,3.1-3,7.9-5.3,8.2V231.4z"/>
		<path class="st1" d="M15.2,212.6c-1,6.4-0.5,17.5,2.8,12.3s4.5-7.4,3-12.3C19.5,207.8,15.8,208.5,15.2,212.6z"/>
		<path class="st1" d="M9.2,254c-0.9-12.1,0.3-10.8,2.2-16.8c1.9-6,4-5.2,4.5,0.2c0.5,5.4,0.6,11.9-1.2,14.4s-1.3,6.2-1.3,6.2
			L9.2,254z"/>
		<path class="st1" d="M19.4,233c-0.1,4,1.8,6.2,1.6,8.7s-0.7,8.1,2.2,6.1s1-9.7,1.3-13.9C24.8,229.8,20.2,223.4,19.4,233z"/>
		<path class="st1" d="M16.5,260.9c-1.8-9.1,6.5-13,9.6-5.8l1.4,16.2L16.5,260.9z"/>
	</g>
	<path class="st2" d="M26.1,158v106.1c0,10,4.2,10,9.5,10s117.2,0,117.2,0c10.5,0,10.3-3.2,10.3-9.7c0-6.6,0-100.2,0-100.2l-70-50.4
		L26.1,158z"/>
	<g>
		<path class="st3" d="M35.4,160.5c4.9,6.5,2.7,9.7,1.4,13.5c-1.3,3.8-0.4,7.8-3.1,7.3s-4.1-9.3-4.1-12.9
			C29.6,164.8,31.4,154.2,35.4,160.5z"/>
		<path class="st3" d="M42.4,153.5c0,9.9,0.5,14.8,4.9,11.4c4.3-3.4,5.6-12.1,3.8-17.1C49.3,142.7,42.4,153.5,42.4,153.5z"/>
		<path class="st3" d="M28.4,187c-2.2,9.4-1,21.2,2.7,13.5C34.7,192.8,30.6,177.6,28.4,187z"/>
		<path class="st3" d="M31.9,220c2.5-6.2,3.4-7.8,0-11c-3.4-3.2-5.8,0-5.8,0v7.1c1.5,1.6,0.6,3.6,1.4,5.8
			C28.4,224,30.4,224,31.9,220z"/>
		<path class="st3" d="M26.1,226.8c4.7,1.9,5.1,12.7,0,13.8V226.8z"/>
		<path class="st3" d="M31.2,240.6c-3.9,10.1-1.4,15.9,2.9,14.6c4.3-1.3,6.6-9.4,3-14.6C33.6,235.4,32.3,237.8,31.2,240.6z"/>
		<path class="st3" d="M26.1,258c2.2-2.9,4.1-0.2,3.7,3.3s-2.7,5.3-3.7,4.8V258z"/>
		<path class="st3" d="M42.4,220c-1.5-6-4.5-5.2-6.5-0.4c-2,4.9-2.5,12.6,1.6,15.2s7.6-3.2,5.6-6.9C41.2,224.4,43,222.3,42.4,220z"
			/>
		<path class="st3" d="M40.6,194.8c-2-3.7-3.8-1.8-5.2,2.1c-1.4,3.9-1.4,8.7,0.7,12.2s6.1,4.9,6.3,0.2S42.4,198.2,40.6,194.8z"/>
		<path class="st3" d="M45.9,217.8c0.8,6,1.3,5,1.3,8.5s2,9.7,6.8,7.4s2.2-15-0.7-17.9C50.4,212.8,45.2,212.8,45.9,217.8z"/>
		<path class="st3" d="M47.2,236.6c-6.5,11.4-3.1,20,1.6,16.8C53.4,250.2,51.2,240.3,47.2,236.6z"/>
		<path class="st3" d="M37.2,258c-5.6,9.1-3.8,14.6,0,14.7s8.1-6.9,5.2-14.7C41.2,254.7,38.9,254.9,37.2,258z"/>
		<path class="st3" d="M49.1,260.1c-2.6,6.2-3.1,13.7,2.1,12.6c5.3-1.1,3.8-10.1,1.7-12.6S50.3,257.4,49.1,260.1z"/>
		<path class="st3" d="M56.7,241.7c-2.3,5.4-2.9,12.8,1.1,15.1c4,2.3,5.4-1.3,5.2-6.4s-0.2-6.1-2.5-8.7S57.6,239.5,56.7,241.7z"/>
		<path class="st3" d="M59.9,274.1c-3.6-4.8-2.5-11.2-1-9.9c1.5,1.3,4.8,5.6,4.1,9.9H59.9z"/>
		<path class="st3" d="M52.4,185.8c1.4-6.7-2-5.8-4.2-11.5c-2.2-5.8-5.8-3.8-7.4,0c-1.6,3.8-4.5,14.7,6,18.6l4.6-3.8L52.4,185.8z"/>
		<path class="st3" d="M52.7,164.5c-2.5,6.5,0.3,16.8,6.2,13.5c5.9-3.2,2.8-8.5,0-12.1C56.2,162.3,54.4,160.1,52.7,164.5z"/>
		<path class="st3" d="M58.9,148.6c-1.7,6.7-1.9,9,3.3,14c5.2,5,2.2,0.7,2-7C64.1,147.9,60,141.6,58.9,148.6z"/>
		<path class="st3" d="M63.9,138.8c1.3,6.5,2.3,10,4.5,6.7c2.2-3.3,2.9-8.5,2-11.6C69.5,130.9,63.9,138.8,63.9,138.8z"/>
		<path class="st3" d="M76.9,130.5c-2,5.4-4.7,8.8-0.7,12.1c4,3.2,9.6,4,8.5-4.3c-1.1-8.3-1.8-12.5-3.6-12.5S76.9,130.5,76.9,130.5z
			"/>
		<path class="st3" d="M90.1,125.8c-1.9,5.1-3.8,11.7,2.2,11.4s2.3-10.3,1.1-12.4C92.1,122.6,90.9,123.5,90.1,125.8z"/>
		<path class="st3" d="M98,120.8c-1.1,3.6-0.4,8.5,4.3,8.5s4.7-3.4,4.7-3.4L98,120.8z"/>
		<path class="st3" d="M113.5,131.6c-1.6,5.2-0.9,8.5,1.3,11.5s6.7,2.3,4.2-7.8L113.5,131.6z"/>
		<path class="st3" d="M125.8,140.5c-3.1,4.9-3.4,11.1-1.8,14.7c1.6,3.6,8.1,3.4,7.8-2.9c-0.4-6.3-2.2-9.2-2.2-9.2L125.8,140.5z"/>
		<path class="st3" d="M136.3,147.9c-1.3,7.2-0.2,10.7,4,9.6c4.2-1.1,4.7-3.4,3.6-4.7C142.8,151.5,136.3,147.9,136.3,147.9z"/>
		<path class="st3" d="M152,159.4c-0.7,4-0.5,6.3,2.5,11.2c3.1,4.9,6.5,7.8,6.3,1.6c-0.2-6.1-1.3-8.5-1.3-8.5L152,159.4z"/>
		<path class="st3" d="M70.8,149c-2.3,7.5-2.4,19.9,6.1,15.7c8.5-4.2,3.1-14.3,0-16.8C73.8,145.3,71.4,146.9,70.8,149z"/>
		<path class="st3" d="M88.2,144.9c-2.9,5.8-3.7,9.1-1,13.6s2.6,0.8,4.7-1.1s3.4-3.1,1.8-9.6C92.1,141.4,90,141.4,88.2,144.9z"/>
		<path class="st3" d="M100.7,135.4c-3.1,6.3-3.6,15.8,3.4,16.2c6,0.2,6.1-7.2,4.2-9.9s-1.4-4.5-2.5-7.2
			C104.7,131.8,102.4,132,100.7,135.4z"/>
		<path class="st3" d="M112.6,151.6c-5.1,3.9-5.2,16.9,3.5,16.9c8.7,0,4.8-11.2,2.8-15C117,149.7,115.6,149.4,112.6,151.6z"/>
		<path class="st3" d="M127.4,162.5c-3.1,4.1-4.6,5.5-4.4,9.7c0.2,4.2,7.3,4,9.4,1.8s-0.2-5.4,0.2-9
			C133,161.4,130.3,158.7,127.4,162.5z"/>
		<path class="st3" d="M140.1,179.4c-3.4-8.1-1.6-13.4,1.5-16.9c3.1-3.5,2.2,1,4.2,3.4s3.2,14.4-2.9,15L140.1,179.4z"/>
		<path class="st3" d="M148.9,187c-0.5-5.5,1.1-8.4,2.7-11.3c1.6-2.9,3.1-1.7,4.6,1.8c1.5,3.4,3.3,7.4-0.8,10.5
			C151.2,191,149.2,190.6,148.9,187z"/>
		<path class="st3" d="M99.3,157.5c-4.5,6.3-6.5,15.7-0.7,16.6c5.8,0.9,9.9-0.4,7.6-9.3C103.8,155.8,101.5,154.3,99.3,157.5z"/>
		<path class="st3" d="M73.3,170c-5.4-6.3-9.7,2.7-4.5,6.3C74,179.8,77.1,174.4,73.3,170z"/>
		<path class="st3" d="M83.8,165.9c-4.3,7.1-6,16.2,1.8,15.8s6.7-12.3,3.4-15.8C85.7,162.5,85.3,163.4,83.8,165.9z"/>
		<path class="st3" d="M110.1,187c-3.8-9.6,1.1-13.7,4.2-14.8c3.1-1.1,6.4,2.7,5.4,8.7L110.1,187z"/>
		<path class="st3" d="M95.6,188.3c-7.5-7.1,2.9-14.5,8.4-8.8C109.5,185.2,103.2,195.5,95.6,188.3z"/>
		<path class="st3" d="M93.7,196.8c-2.4,5.7,1.7,10.4,5.8,7.4c4.1-3,5.1-5.7,2.8-8.4S95.7,192.1,93.7,196.8z"/>
		<path class="st3" d="M156.2,192.8c-2.3,4.7-0.7,5.4,1.7,7.2s5.1-2.2,2.9-5.3C158.6,191.5,157.4,190.3,156.2,192.8z"/>
		<path class="st3" d="M153.4,204.2c-2.1,3.3-0.4,7.8,1.7,5C157.3,206.5,156,200.2,153.4,204.2z"/>
		<path class="st3" d="M142.7,214c-0.4,3.9,4.7,4.3,4.4-0.1C146.8,209.6,143.2,209.4,142.7,214z"/>
		<path class="st3" d="M135.8,220.7c1.3,3.4,3.8,4,3.4-0.2C138.8,216.4,134.9,218.3,135.8,220.7z"/>
		<path class="st3" d="M124.1,221.7c5.8,1.8,7.8-1.9,2.7-3.6C121.6,216.4,119.8,220.4,124.1,221.7z"/>
		<path class="st3" d="M111.8,215.4c2.7,1.6,6.1,2.4,2.5-1.7C110.6,209.6,110,214.3,111.8,215.4z"/>
		<path class="st3" d="M104,209c-3.1-0.2-2.8,3,0.8,3.1C108.5,212.1,108.3,209.2,104,209z"/>
		<path class="st3" d="M93,210.1c-2.4,1.7,0.6,4,2.6,2.1C97.5,210.3,95.4,208.4,93,210.1z"/>
		<path class="st3" d="M83.4,213.7c-3.8,2.2,0.8,6.6,3.8,4C90.2,215.1,88.7,210.7,83.4,213.7z"/>
		<path class="st3" d="M73.5,218.5c-5.1,1.9-1.2,6.5,2.7,3.7S78.1,216.8,73.5,218.5z"/>
		<path class="st3" d="M62.3,225.6c2.4,3.6,6.3,0.7,3-2.5C62,219.9,59.4,221.4,62.3,225.6z"/>
		<path class="st3" d="M61.6,236.6c2.3,5,6.7,2.7,3.7-2.4C62.4,229,59.3,231.6,61.6,236.6z"/>
		<path class="st3" d="M68.5,248.2c2.5,1.7,4.2,0.3,2.3-2.7C68.8,242.5,64.2,245.2,68.5,248.2z"/>
		<path class="st3" d="M76.6,253.1c2.3,4.5,5.2,2.7,2.8-0.8C77.1,248.8,74.5,248.8,76.6,253.1z"/>
		<path class="st3" d="M84.1,256.8c1.2,3.3,4.1,2.2,3.3-1.2S82.9,253.5,84.1,256.8z"/>
		<path class="st3" d="M95,260.1c3.4,1.3,3.7-1.8,1.4-3.3C94,255.3,90.1,258.2,95,260.1z"/>
		<path class="st3" d="M104.8,259.7c4.4,0,2.1-4.4,0-3.9C102.7,256.2,101.4,259.7,104.8,259.7z"/>
		<path class="st3" d="M112.6,256.8c3.9,0.4,2.5-4.2,0-4C110.1,252.9,109.7,256.4,112.6,256.8z"/>
		<path class="st3" d="M119.7,249c0.9,3.9,1.9,2.9,2,0.8S119.2,246.9,119.7,249z"/>
		<path class="st3" d="M128.2,242.6c-1.3-4.1-3.8-4-3.5,0C125.1,246.6,129,245.2,128.2,242.6z"/>
		<path class="st3" d="M131.8,231.4c-0.7,4.9,0,5.8,1.6,0.8S132.3,227.5,131.8,231.4z"/>
		<path class="st3" d="M163.1,212.2c-4,2.2-2.2,4.1-2.3,7.7c-0.1,3.6-0.8,8.7,2.3,6.3V212.2z"/>
		<path class="st3" d="M156.2,217.8c1,8.2-1.8,13.7-5.4,10.2c-3.6-3.4-0.9-8.5,1.6-10.9C154.9,214.6,155.9,215.3,156.2,217.8z"/>
		<path class="st3" d="M141.5,226.9c-2.9,5.7-2.1,11.9,2.8,9.8s2.9-7.3,0.6-9.8C142.7,224.4,142.4,225.1,141.5,226.9z"/>
		<path class="st3" d="M163.1,233.7c-4.7-4.7-6.3-0.6-8,2.9c-1.7,3.5,2.2,11.2,8,7.5L163.1,233.7z"/>
		<path class="st3" d="M135.8,242.4c-3.9,5.6-2.2,9.8,1.7,9.2c3.9-0.5,3.8-5.4,2.4-9.2C138.3,238.5,137.1,240.5,135.8,242.4z"/>
		<path class="st3" d="M147.1,241.5c-2.6,4.7-2.5,8.1,0.2,8.2c2.7,0.1,4.8-3.6,3.3-8.2C149.1,236.8,148.3,239.5,147.1,241.5z"/>
		<path class="st3" d="M135.8,258.1c-2,7.5,0,10,3.6,9.4s2.7-7,0.7-9.8C138,254.9,136.4,255.8,135.8,258.1z"/>
		<path class="st3" d="M125.2,252.9c-4.2,4.6-6.8,10.7-2.1,12.6s7.9-2.7,6.6-9.5C128.4,249.1,127,250.9,125.2,252.9z"/>
		<path class="st3" d="M137.1,274.1c2.9-4.5,6.7-3.2,8.1,0H137.1z"/>
		<path class="st3" d="M133.4,274.1c-3.5-7.7-7.3-5.1-11.8,0H133.4z"/>
		<path class="st3" d="M112.6,261.8c-6.2,6.6-5.1,10.9,0,10.8c5.1-0.1,5-3.4,4.3-8.6C116.3,258.7,114.4,259.9,112.6,261.8z"/>
		<path class="st3" d="M67.3,255.4c-3.3,5.6-3.2,8,1.2,11.7c4.3,3.6,6.5-3.2,4.3-9.3C70.7,251.6,69,252.6,67.3,255.4z"/>
		<path class="st3" d="M69.2,274.1c3.1-4.5,8.4-3.7,8.9,0H69.2z"/>
		<path class="st3" d="M82,264c-2,4.9-2,10.1,2.8,10.1s4.6-6.2,1.6-10.1C83.4,260.1,82.8,262,82,264z"/>
		<path class="st3" d="M91.9,266.4c-2,5.4,2.9,11,3.7,5.3C96.4,265.9,93.7,261.5,91.9,266.4z"/>
		<path class="st3" d="M99.5,266.4c-2.5,5.8,5.9,8.1,5.1,2.6C103.8,263.5,101.2,262.6,99.5,266.4z"/>
	</g>
	<path class="st4" d="M70.3,227.3c2.8,1.1,5.5-1.8,7.8-4.2c12.7-13.4,29.6-11.5,42.5-1.2c2.9,2.1,4.5,2.9,7.3,2.4
		c2.8-0.4,3.9,1.2,2.5,6.1c-4.9,18.9-41,40.8-62.5,5C65.4,230.7,66.5,225.4,70.3,227.3z"/>
	<path class="st5" d="M121.7,233.3c-1,1.1-2.2,3-3.9,5.1c0,0,0,0,0,0c-3.8,5-9.8,11.3-19.5,11.3c-8.1,0-14.3-4.2-18.3-8.2
		c0,0,0,0,0,0c-2.8-2.8-4.6-5.4-5-6.2c-1.1-1.8-1.3-4.2,1.6-3.7c0.2,0,0.4,0,0.7,0c0,0,0,0,0,0c3.4-0.4,10.3-5.9,14-9
		c4-3.3,12.5-5.9,22.6,2.9c2.4,1.7,3.6,2.4,6,2.4c0,0,0,0,0,0c0.2,0,0.5,0,0.8,0C123.6,227.9,124.9,229.7,121.7,233.3z"/>
	<path class="st6" d="M77.2,231.7c9,1.4,15.7-1.8,19.1-3.3s6-0.9,8.3,0c2.3,0.9,11.2,1.8,13.5-0.1l-7.6-3.1l-7.9-3.9l-9.7,1.9
		l-7.3,5.2l-3.7,2.1L77.2,231.7z"/>
	<path class="st7" d="M119.8,228c-0.3,0.1-6.4,1.7-9.9-1.7c-3.7-3.5-12.3-3.9-16.3-1c-3.9,2.7-8.6,6.5-16.3,6.4
		c3.4-0.4,10.3-5.9,14-9c4-3.3,12.5-5.9,22.6,2.9C116.2,227.4,117.5,228,119.8,228z"/>
	<path class="st7" d="M117.8,238.4c-3.8,5-9.8,11.3-19.5,11.3c-8.1,0-14.3-4.2-18.3-8.2C93.2,248.5,107.1,249.2,117.8,238.4z"/>
	<ellipse transform="matrix(0.9828 -0.1849 0.1849 0.9828 -35.6111 16.3933)" class="st5" cx="70.1" cy="199.1" rx="23" ry="20.9"/>
	
		<ellipse transform="matrix(0.9828 -0.1849 0.1849 0.9828 -35.6241 16.4008)" class="st6" cx="70.1" cy="199.2" rx="17.7" ry="15.3"/>
	
		<ellipse transform="matrix(0.5533 -0.833 0.833 0.5533 -131.1729 149.8462)" class="st5" cx="74.1" cy="197.2" rx="10.2" ry="9.3"/>
	<ellipse transform="matrix(0.9828 -0.1849 0.1849 0.9828 -34.3228 27.306)" class="st5" cx="129.2" cy="197.7" rx="23" ry="20.9"/>
	
		<ellipse transform="matrix(0.9828 -0.1849 0.1849 0.9828 -34.343 27.2354)" class="st6" cx="128.8" cy="197.7" rx="17.7" ry="15.3"/>
	
		<ellipse transform="matrix(0.5533 -0.833 0.833 0.5533 -103.7309 198.1177)" class="st5" cx="132.9" cy="195.8" rx="10.2" ry="9.3"/>
	<path class="st8" d="M21.3,119.5l-19,12.1c-3.6,2.3-2.6,5.5,3.3,11.7s18,19.3,18,19.3c3.8,4.6,6.2,3.4,11.3-0.5
		s58.9-42.6,58.9-42.6l68,47.4c3.9,2.5,8-0.9,3.1-5.6c-4.9-4.7-20.4-22-20.4-22c-2.8-3.6-10.2-7.6-22-16.3c6-6,16.4-5.5,20.5-5.3
		c9.7,0.7,8.6-12.9-18.5-17.2c10.9-11.2,29.6-20.7,33.3-22.6c3.7-1.8,2.3-5.2-2.4-6.9c-4.7-1.7-21.6-4.7-39.7,4.5
		c4-17.2,17.4-30,23-34.4c5.7-4.3,2.4-7.6-4.2-7.1s-21.3,5.4-30.9,17.2C101.8,26.6,92.5,9.3,91.3,5c-1.2-4.3-4.5-7.4-8.8-2.5
		c-4.3,4.8-16.8,23.3-16.6,51.1C47.5,38.3,32.9,34.8,15.2,34.9c-6.3-0.1-6.9,3.1-2.5,6.6C17,45,44.2,68.2,47,79.8
		c-21.2-8-39.2-5.2-43.8-3.7c-4.6,1.4-4.2,4.7,0.6,5.7s24.2,12.9,33.5,23.8c-12.1-0.2-21.9,6.5-23.9,9.2
		C11.4,117.3,11.4,120.4,21.3,119.5z"/>
	<path class="st9" d="M161.4,242.4c-16.4,6.1-26.8,33.5-4.9,42c18.5,7.3,33-17.2,25.3-33.3l-11.2-6l-0.3,2.6L161.4,242.4z"/>
	<path class="st8" d="M172.1,252.6c-3.4,1-4.7,0.4-5.3-1.6c-0.5-2-2.1-5-6.1-7.5s-1.7-7.5,4.2-5.8c-0.2-0.2-1.4-2.2-4.9-4.7
		c-3.5-2.5,0.5-5.5,7.7-1.3c-0.3-2.1-2.9-6.3-5.2-8.1c-2.2-1.8-3.4-4.2,0-5.4c3.4-1.1,7,0,12.2,5.4c0.6-3.1,4.3-9.3,6.6-12
		c2.3-2.7,4.3-3.3,4.8-0.3c0.5,2.9,1.2,12-1.4,17.8c7-0.7,10.4,1.4,11.4,2.6s1.7,4.5-3.2,3.8s-8.6,2.2-9.1,2.9
		c6-0.9,9.4,3.4,9.1,5.1c-0.3,1.7-2.6,0.9-4.4,0.8c-1.8-0.1-5.7,0.2-7.9,2.8c4.6,1.2,5,5.6,2.8,5.6
		C181.3,252.7,175.3,251,172.1,252.6z"/>
	<circle class="st10" cx="155" cy="257.1" r="2"/>
	<circle class="st10" cx="151.2" cy="264.1" r="2.1"/>
	<circle class="st10" cx="159.5" cy="263.2" r="1.6"/>
	<circle class="st10" cx="166" cy="260.1" r="1.7"/>
	<circle class="st10" cx="178.5" cy="258" r="1.7"/>
	<circle class="st10" cx="169.9" cy="266.5" r="1.9"/>
	<circle class="st10" cx="162.8" cy="269.6" r="1.9"/>
	<circle class="st10" cx="154.9" cy="271.5" r="2.1"/>
	<circle class="st10" cx="166.4" cy="278.5" r="2.2"/>
</g>
</svg>
