<svg id="Layer_1" data-name="Layer 1" xmlns="http://www.w3.org/2000/svg" viewBox="0 0 220.13 187.55"><defs><clipPath id="clip-path" transform="translate(-682.88 -550.54)"><path class="cls-1" d="m701.64 604.34-1.32 84.72a9.47 9.47 0 0 0 3.35 7.36l36.74 31a5 5 0 0 0 3.17 1.15h138.63a4.91 4.91 0 0 0 4.92-4.91v-104l-112.66-51.75z"/></clipPath><clipPath id="clip-path-2" transform="translate(-682.88 -550.54)"><path class="cls-1" d="M738.89 692.49a11.53 11.53 0 0 1-23.06 0c0-6.24 5.16-10 11.53-10s11.53 3.76 11.53 10z"/></clipPath><style>.cls-1,.cls-12,.cls-6{fill:none}.cls-6{stroke:#7b889b;stroke-linecap:round}.cls-12,.cls-6{stroke-miterlimit:10}.cls-6{stroke-width:1.2px}.cls-11{fill:#f3c7e3}.cls-12{stroke:#f577c8;stroke-width:4px}.cls-15{fill:#fcf28f}</style></defs><path id="Face" d="m701.64 604.34-1.32 84.72a9.47 9.47 0 0 0 3.35 7.36l36.74 31a5 5 0 0 0 3.17 1.15h138.63a4.91 4.91 0 0 0 4.92-4.91v-104l-112.66-51.75z" transform="translate(-682.88 -550.54)" fill="#a0fffb"/><g clip-path="url(#clip-path)" id="Shadow"><path fill="#84fae2" d="M8.7 48.69h48.85v135.49H8.7z"/></g><path d="M822.13 565.38c.29-2.78 1-5.58-.13-8.1-.73-2.22.06-6.45 3.13-5.15 4.56 2.74 10.52 3.29 15.26.57a14.07 14.07 0 0 1 4.38-2.1 2.58 2.58 0 0 1 2.89 3c-.27 1.24-1.13 1.17-1.36 2.43-.68 2.9 1.38 6 .27 8.89z" transform="translate(-682.88 -550.54)" fill="#bbbdd5"/><path class="cls-6" d="M823.32 561.65s-4-.73-6.22-.21m6.22.95s-2.89.35-4.3 2.22m26.85-2.4s3.76-.09 5.92 1.07m-6.47-1.28a8.89 8.89 0 0 1 5.38-1.89" transform="translate(-682.88 -550.54)"/><path class="cls-6" d="m145.31 9.55 3.31.42m6.45-.21 3-.21"/><path d="M147.01 10.27v.7m9.56-1.11v1.11" style="stroke-miterlimit:10;stroke-linecap:round;stroke:#7b889b;fill:none"/><circle cx="151.69" cy="12.21" r="1.07" fill="#7b889b"/><path fill="#98fff7" d="M138.23 13.37h28.28v37.34h-28.28z"/><path d="m767.83 559-68.49 40a3.73 3.73 0 0 0-.25 6.3l38.13 26.18a8 8 0 0 0 8.55.3l63.86-38.42a6.94 6.94 0 0 1 6.15-.44l75.76 31.69a2.16 2.16 0 0 0 2.69-.91l.87-2.68a2.17 2.17 0 0 0-.8-3l-32.85-17.74L782 558.66a14.86 14.86 0 0 0-14.17.34z" transform="translate(-682.88 -550.54)" fill="#f577c8"/><ellipse class="cls-11" cx="84.3" cy="139.24" rx="8.02" ry="7.28"/><ellipse class="cls-11" cx="186.66" cy="139.24" rx="7.79" ry="7.28"/><ellipse class="cls-12" cx="105.89" cy="119.07" rx="21.62" ry="21.19"/><circle class="cls-12" cx="165.58" cy="119.32" r="21.19"/><path class="cls-12" d="M810.87 667.32c.45-.38 2.3-3.26 8.2-3.26 5 0 7 1.31 8.19 2.75" transform="translate(-682.88 -550.54)"/><path d="M776.85 673.57c.38-1.91 4.47-9.75 11.92-9.74a9.89 9.89 0 0 1 9.78 8.08m13.66 12a6.15 6.15 0 0 0 6 3.83c4.6-.12 5.88-2.8 5.88-4.72m13.02-9.45c.51-2.55 2.29-8.55 9.95-8.55s11.62 7.41 11.62 10.21" transform="translate(-682.88 -550.54)" style="stroke:#42aa98;stroke-width:4px;stroke-miterlimit:10;stroke-linecap:round;fill:none"/><path d="m697.85 712.09.09-7.92s-11.33-6.1-8.34-14.72c1.53-4.43 8.51 7.57 8.51 7.57V685h4.51l-.43 14.38s5.45-8.59 8.6-5.36-4.26 14-8.26 14.56l.09 3.49a2.37 2.37 0 0 1-2.09.85 4.79 4.79 0 0 1-2.68-.83z" transform="translate(-682.88 -550.54)" fill="#26cca1"/><path class="cls-15" d="M702.38 656.6s2.13-6.73 3.75-5.71.68 7.24.68 7.24 3.83-4.79 4.76-3.67 0 6.14 0 6.14 3.85-1.2 4.62.17-2.72 5.78-2.72 5.78 4.93.56 4.76 2.15-5 2-5 2 4.94 2.47 4 3.83-6.3.85-6.3.85 5.88 3.64 4.94 5-6.47-.24-6.47-.24 2.81 4.26 1.36 6c-.81 1-3.06-2.64-3.06-2.64s.77 6.22-.77 6.64-4.51-4.93-4.51-4.93-.45 4.28-1.39 4.51-1.5-5.28-1.5-5.28-1.36 5.45-3.66 4.77-1.53-6.3-1.53-6.3-4.1 3.74-5.79 2.55c-1.37-1 1.28-5.44 1.28-5.44s-3.83.08-4.26-1.71 2.64-2.55 2.64-2.55-5.11-.43-5-1.79 3.91-2 3.91-2-4.51-1.66-4.17-3.3 4.68-2.15 4.68-2.15-4.17-.68-4.17-2.21 3.07-1.79 3.07-1.79-3.32-3.32-2.21-4.51 4.76 1.53 4.76 1.53-3-4.42-2-5.19 4.59 3.41 4.59 3.41-1.1-5.53.26-6.13 4.51 5.45 4.51 5.45.68-8.09 3.49-7.92 2.45 7.44 2.45 7.44z" transform="translate(-682.88 -550.54)"/><ellipse cx="17.42" cy="120.65" rx="7.36" ry="9.83" fill="#b58a31"/><path d="M728.51 721c6.81.09 14.23-4.29 12.6-12.34-1.54-7.57-7.57-4.66-11.24-1.79l.17-4.17-5.44-.42v3.83s-6.38-3.83-8.77-1c-4.44 5.89 1.96 13.79 12.68 15.89z" transform="translate(-682.88 -550.54)" fill="#11d9a5"/><path d="M738.89 692.49a11.53 11.53 0 0 1-23.06 0c0-6.24 5.16-10 11.53-10s11.53 3.76 11.53 10z" transform="translate(-682.88 -550.54)" fill="#f07dc8"/><g clip-path="url(#clip-path-2)"><path d="M32.18 139.7c1 3.69 3.58 7.46 12.3 7.46 7.36 0 10.61-2.72 10.6-6.21 0-5.46-5.44-7-9.91-7-3.2 0-6.6 2-6.52 4.85.09 3 3.66 3.75 5.53 3.75s5.71 0 5.62-2.31-5.19-1.78-5.19-1.78" stroke="#f69fdc" stroke-width="2" stroke-miterlimit="10" stroke-linecap="round" fill="none"/></g><path d="M763.15 726.81c0 6.38-6.21 8.24-14 8.25-5.62 0-15-5.06-12.43-11.06 1.28-3 7.83-1.67 11 .13v-5.66h4.51v5.36c3.85-2.11 10.92-4.83 10.92 2.98z" transform="translate(-682.88 -550.54)" fill="#91d790"/><path d="M746.81 702.55s.68-3.57 3.74-3.57 2.73 3.57 2.73 3.57 4.42-3.32 5.87-1.78-.51 5.87-.51 5.87 6.78-.06 6.38 2.55-6.28 2.69-5 2.64c0 0 1.62 3.83 0 5a2.83 2.83 0 0 1-4.08-.59s2.21 2.12.08 3.23-4.34-1.28-4.34-1.28 1.53 5.27-2.81 5.19c-2.64 0-2.72-5.1-2.72-5.1s-2.77 3.91-4.72 2.3 0-6.22 0-6.22-4.8 2.64-5.23-1.44 5.86-5.45 5.86-5.45-4.08-4.43-2-6.72 6.75 1.8 6.75 1.8z" transform="translate(-682.88 -550.54)" fill="#fff"/><ellipse class="cls-15" cx="67.72" cy="159.71" rx="4.38" ry="4.13"/><path d="M885.44 735.83c-12.49.39-20.59-11-16.5-15.32 3.08-3.27 10.89-.16 14.55 1.57V714h4.42v7c3.66-2.86 10.47-7.22 13.79-3.17 4.68 5.66-3.77 17.61-16.26 18z" transform="translate(-682.88 -550.54)" fill="#19d4a8"/><path d="M885.75 718.71c8.17 0 15.49-4.72 15.49-12.64 0-9.28-3.23-15.15-5.44-15.15-1.11 0-5.62 4.51-5.62 4.51s-2.21-4.94-4.6-4.93-5.44 5-5.44 5-2.77-4.34-5.28-4.34c-2.13 0-5.68 8.84-5.17 16.59.43 6.41 7.13 11 16.06 10.96z" transform="translate(-682.88 -550.54)" fill="#f478c7"/><path d="M867.66 738c-8.51.6-14-4-11.92-8.42 1.44-3 6.1-2.42 9-1.72v-6.62h3.56v6c1.76-1.57 5.2-3.76 9.06-1.41 5.53 3.45-3.47 11.78-9.7 12.17z" transform="translate(-682.88 -550.54)" fill="#88e084"/><path d="M855.83 709.19c3.23-2.83 8.34-.93 8.34-.93s3.66-5.88 9.79-2.73.08 10 .08 10 5.56 2.81.94 7.15-9.48-.2-9.48-.2-4.39 4.88-8.65 1.39-1-7.83-1-7.83-3.42-3.87-.02-6.85z" transform="translate(-682.88 -550.54)" fill="#e798f6"/><path d="M861.11 714.81a1.39 1.39 0 0 1 .64-2.47 3.53 3.53 0 0 1 3.61.6s1.36-3.32 3.41-1.37a3.08 3.08 0 0 1 .76 3.92s3.07 1.7 1.87 3.32-4.76.76-4.76.76-2 3.07-4.09 2.3a2.38 2.38 0 0 1-1.44-3s-2.47.09-2.43-1.95 2.43-2.11 2.43-2.11z" transform="translate(-682.88 -550.54)" fill="#d874ff"/><circle cx="181.83" cy="165.73" r="2.32" fill="#fff296"/></svg>