<svg id="Layer_1" data-name="Layer 1" xmlns="http://www.w3.org/2000/svg" viewBox="0 0 223.9 242.61"><defs><style>.cls-2{fill:#9e8871}.cls-3{fill:#806a53}.cls-5{fill:#c3dff6}.cls-6{fill:#9fc7eb}.cls-8{fill:#406cab}</style></defs><path d="M253.16 321.24c0-1.28 6.73-2.61 8.1-2.86a27.3 27.3 0 0 0-.76-3.68 2.6 2.6 0 0 1-.83 0c-1.73-.34-3.17-2.79-6.73-4.66a5 5 0 0 1-2.62-2.91l-.17.24-.87-.05a9.58 9.58 0 0 1 .08 3.18c-.37 1.47-2.27 2.17-3.06.45a7.7 7.7 0 0 1-.25-3.76h-2.16c.05 2 .05 6.36-.94 6.66-1.29.4-3.12-2-3.35-4a6.23 6.23 0 0 1 .17-2.26l-1.31.19c-.18 1.78-.86 3.12-1.75 3.25-1.2.19-1.26-2.62-4.42-2-2.7.51-5.39 3.44-6.59 4.91v.55a11.63 11.63 0 0 0-1.55 4.32c2.24.54 6.08 1.84 6.09 2.89 0 1.93-3.38 3.58-5.45 4.39a5.23 5.23 0 0 0 1.08 1.61c7.58 7.29 28.72 4.58 32.82.77a7.47 7.47 0 0 0 1.65-2.24c-1.77-.67-7.17-2.79-7.18-4.99Z" transform="translate(-185.99 -300.03)" style="fill:#b3a292"/><path class="cls-2" d="M230.28 321.67c0-1.05-3.85-2.35-6.09-2.89a13.52 13.52 0 0 0 .64 7.28c2.07-.81 5.46-2.46 5.45-4.39ZM261.26 318.38c-1.37.25-8.11 1.58-8.1 2.86 0 2.2 5.41 4.32 7.22 5a14.09 14.09 0 0 0 .88-7.86ZM232.29 309c3.16-.58 3.22 2.23 4.42 2 .89-.13 1.57-1.47 1.75-3.25-.69.11-1.09.19-1.09.19s-7.1-9.41-9.39-7.76c-2.84 2-2.44 11.33-2.28 13.69 1.2-1.43 3.89-4.36 6.59-4.87ZM239.6 309.86c.23 2.07 2.06 4.43 3.35 4 1-.3 1-4.61.94-6.66h-.9c-1.26.09-2.34.21-3.22.32a6.23 6.23 0 0 0-.17 2.34ZM246.3 311c.79 1.72 2.69 1 3.06-.45a9.58 9.58 0 0 0-.08-3.18c-.77 0-2-.11-3.23-.13a7.7 7.7 0 0 0 .25 3.76ZM252.94 310.06c3.56 1.87 5 4.32 6.73 4.66a2.6 2.6 0 0 0 .83 0c-.22-.76-.38-1.21-.38-1.21 1.67-3.57.18-12.15-1.95-12.41-3.14-.37-7 4.87-7.85 6.07a5 5 0 0 0 2.62 2.89Z" transform="translate(-185.99 -300.03)"/><path class="cls-3" d="M210.73 322.86c-.13 1.79 16.85 1.71 18.19.28s-3.86-2.31-8.25-2.2c-2.82.06-9.88 1.06-9.94 1.92Z" transform="translate(-185.99 -300.03)"/><path class="cls-3" d="M215.86 330.35c-.15.72 13-3 13.64-7.25.17-1.18-13.09 4.68-13.64 7.25ZM254.2 321.89c-.2-2.23 17.06-2.89 18.8-.89 1.44 1.65-4.27 1.63-9.22 1.6-3.23-.07-9.41.83-9.58-.71Z" transform="translate(-185.99 -300.03)"/><path class="cls-3" d="M268.26 329.06c0 .46-4.76-.76-8.81-2.65-2.29-1.06-5.17-2.47-5.15-3.65.03-1.54 13.75 3.17 13.96 6.3ZM235.62 322.75c-.75-.1-1.44-1.4-1.35-2.76s.83-2.14 1.81-2.07 1.42 2 1.33 2.9-.55 2.09-1.79 1.93ZM249 322.55c.7-.09 1.34-1.38 1.26-2.74s-.77-2.15-1.69-2.09-1.33 1.94-1.25 2.88.53 2.1 1.68 1.95ZM239.94 326.45a3.24 3.24 0 0 1-2.9-1.73.5.5 0 0 1 .23-.65.48.48 0 0 1 .65.23 2.26 2.26 0 0 0 2 1.18c1.33 0 1.57-2 1.57-2.06a.5.5 0 0 1 .54-.43.49.49 0 0 1 .43.54c-.11 1-.77 2.88-2.52 2.92Z" transform="translate(-185.99 -300.03)"/><path class="cls-3" d="M244.23 326.42c-1.75 0-2.44-1.89-2.56-2.89a.49.49 0 0 1 1-.12s.27 2 1.6 2a2.28 2.28 0 0 0 2-1.21.49.49 0 0 1 .65-.23.48.48 0 0 1 .23.64 3.2 3.2 0 0 1-2.92 1.81Z" transform="translate(-185.99 -300.03)"/><path d="M240.06 322.08c0-.42 1.08-1 2.14-1a2.35 2.35 0 0 1 2 1c.19.39-1 2-2 2a2.72 2.72 0 0 1-2.14-2Z" transform="translate(-185.99 -300.03)" style="fill:#f6b3ba"/><path class="cls-5" d="M260.45 331.43c-.1 1.7-.07 18.86-.09 26a5.79 5.79 0 0 1-2.63 4.92l-28 16c-2.45 1.51-5.46-.46-5.44-3.55.09-12.54.27-38.61.27-41.13 0-3.37-.79-7.56 2.07-7.73 5.39-.31 30 0 31.89 0 2.07.06 2.15 2.06 1.93 5.49Z" transform="translate(-185.99 -300.03)"/><path class="cls-6" d="M403 377.15V505c0 3.51-1.89 7.55-4.58 10.79s-27 25.34-27 25.34l-6.2-5.66 1.4-146.47Z" transform="translate(-185.99 -300.03)"/><path class="cls-5" d="M191.36 410.58s-.54 118.91 0 124 1.89 7.55 7.28 7.82 166.36.27 170.14 0 4.58-2.43 4.85-5.66.54-136.7.54-136.7l-99.23-55.66Z" transform="translate(-185.99 -300.03)"/><path d="M272.62 354a5.67 5.67 0 0 1 6.17-.43c16.34 9 89.28 49.35 92.14 50.79 3.23 1.62 5.67 1.62 8.9-.81s27-26.42 28.85-28.31 1.62-4-1.08-6.2-96.79-52.58-99-53.93-3.51-.27-6.48 1.89-76 55.54-79.8 58.24-34 32.63-35.59 34.78-.73 5.98 3.27 4.61c3.59-1.2 68-49.58 82.62-60.63Z" transform="translate(-185.99 -300.03)" style="fill:#5a8b4d"/><path class="cls-8" d="M255.87 432.47a3 3 0 0 1-2.68-1.63c-.05-.09-1.92-3.35-7.53-4.8s-12 3.63-12.08 3.68a3 3 0 0 1-3.75-4.68c.35-.28 8.83-7 17.33-4.81 8.22 2.12 11.07 7.29 11.37 7.87a3 3 0 0 1-1.3 4 2.9 2.9 0 0 1-1.36.37ZM310.91 437.87a24.3 24.3 0 0 1-9.7-2.13 3 3 0 0 1 2.63-5.39 17.26 17.26 0 0 0 9.71 1.26c4.2-.89 9.52-5.32 11.21-6.95a3 3 0 0 1 4.17 4.32c-.3.29-7.38 7.07-14.14 8.5a18.84 18.84 0 0 1-3.88.39ZM282.84 503.82c-7.28 0-13.86-.57-14.33-.61a3 3 0 1 1 .52-6c.19 0 19.16 1.66 27.41-.59 7.72-2.11 12.55-9.1 12.6-9.17a3 3 0 1 1 5 3.38c-.25.36-6.15 8.9-16 11.58-3.98 1.1-9.79 1.41-15.2 1.41Z" transform="translate(-185.99 -300.03)"/><path d="M339.25 441.55c-5.43-1.41-12.54-1.68-19.35-1.83-10.56-.23-22.14.45-24.5 1s-7.78 6-10.9 10.46c-2 1.41-4.7 2.89-5.83 2.94s-3.87-1.22-5.94-2.46c-3-4.55-8.88-10.39-11.22-10.94s-13.94-1.24-24.5-1c-6.81.15-13.92.42-19.35 1.83-7.39 1.91-11.13 6.58-11.12 13.86 0 3.34.57 11.9 5.61 19.11 6.4 9.13 15.89 9.23 27.9 9.34h2.12c7.8 0 15.23-.55 21.2-4.42 6.48-4.19 9.59-15.23 10.73-20.4a13.07 13.07 0 0 0 4.57 1.07h.24a11.34 11.34 0 0 0 3.9-1.06c1.15 5.19 4.26 16.21 10.73 20.39 6 3.87 13.39 4.42 21.2 4.42h2.12c12-.11 21.5-.21 27.9-9.34 5-7.2 5.6-15.77 5.61-19.11.01-7.28-3.73-11.95-11.12-13.86Zm-79.14 32.88c-5.11 3.3-12.37 3.51-20 3.43-12.1-.11-18.62-.47-23-6.78-4.07-5.81-4.52-12.91-4.53-15.69 0-4.48 1.91-6.81 6.63-8s11.52-1.49 18-1.64h4.31a168.68 168.68 0 0 1 18.46.84c1.79 1.11 7.52 7.36 8.65 9.64-.93 4.55-3.78 15.13-8.52 18.2Zm79.73-3.35c-4.42 6.31-10.94 6.67-23 6.78-7.63.07-14.9-.13-20-3.43-4.75-3.07-7.59-13.65-8.46-18.27 1.13-2.28 6.86-8.53 8.65-9.64a185.86 185.86 0 0 1 22.77-.8c6.46.15 13.18.39 18 1.64s6.64 3.55 6.63 8c-.07 2.81-.52 9.91-4.59 15.72Z" transform="translate(-185.99 -300.03)" style="fill:#27518f"/><path class="cls-8" d="M309.56 454.36c-5.3 1.15-6.22 8.53-4.61 12.33a9.59 9.59 0 0 0 9.74 5.53c2.83-.34 6.74-5.53 4.89-10.71s-6-8.02-10.02-7.15ZM247.09 454.36c5.3 1.15 6.23 8.53 4.61 12.33a9.57 9.57 0 0 1-9.73 5.53c-2.83-.34-6.75-5.53-4.9-10.71s6-8.02 10.02-7.15Z" transform="translate(-185.99 -300.03)"/><path class="cls-6" d="M231.94 491.83c2.82.52 3.31 3.83 2.45 5.54a5.34 5.34 0 0 1-5.19 2.48 3.68 3.68 0 0 1-2.61-4.81 5 5 0 0 1 5.35-3.21Z" transform="translate(-185.99 -300.03)"/></svg>