<svg xmlns="http://www.w3.org/2000/svg" viewBox="0 0 644.39 593.83"><defs><clipPath id="clip-path" transform="translate(56.3 29.52)"><path d="M31.88 224.76v309.45s-2.05 19.89 13.52 20.35 444.57-.7 444.57-.7 5 .21 13.62-8.79c12.12-12.65 43.11-40.44 43.11-40.44s7.43-6.13 7.37-31c-.07-31 0-272.21 0-272.21l-257.16-177z" fill="none"/></clipPath><style>.cls-9{fill:#f6b5b1}.cls-10{fill:#5c3a14}</style></defs><g id="Layer_1" data-name="Layer 1"><path d="M33.09 226.19v309.44S31 555.52 46.61 556s439.57-.69 439.57-.69 5 .2 13.62-8.79c12.13-12.66 43.11-40.44 43.11-40.44s7.43-6.13 7.38-31c-.08-31 1.32-271.55 1.32-271.55L293.12 25.91z" transform="translate(56.3 29.52)" fill="#ffe989"/><g clip-path="url(#clip-path)" id="House_Clip" data-name="House Clip"><path id="Shadow" d="m504.06 222.29-2.62 310.83s-.44 27.07-21 31 102.18-53.27 102.18-53.27L584.41 255l3.68-80.65z" transform="translate(56.3 29.52)" fill="#f0d168"/></g><path id="Roof" d="M554.77 162 311 22.85s-6.65-4.77-11.32-4.77c-6.79 0-14.15 4.77-14.15 4.77L86.33 152.06a61.44 61.44 0 0 0-11.27 6.16C70 161.89 24 212.43 24 212.43s-4.86 4.15-5.16 9.12-.36 7.86-.36 7.86-.42 7.62 3.82 5.69 211.9-132.73 211.9-132.73l245.23 144.94s9 6.26 17.83 0c11.43-8.11 67.28-58.25 67.28-58.25s14.58-12.61-9.77-27.06z" transform="translate(56.3 29.52)" fill="#f7b95c"/><path d="M250.96 422.52s6.62 18.44 24.72 18.44c19.9 0 25.24-30.95 25.24-30.95s7.4 30.72 27.75 30.72c16.76 0 22.63-18.21 22.63-18.21" stroke-width="9" stroke="#5c3a14" stroke-linecap="round" stroke-miterlimit="10" fill="none"/><path d="M379.94 16.08s-8.29-50.08 6.13-45.27 18.1 23.26 18.1 23.26 7.3-4.6 14.6.34c0 0 7.13-26 20.92-22.49s3.2 44 3.2 44z" transform="translate(56.3 29.52)" fill="#7b6e5b"/><path fill="#feea8a" d="m432.69 44.59 70.39.32-4.01 144.41-68.14-34.79 1.76-109.94z"/></g><g id="Flip"><path class="cls-9" d="m0 490.13 599.85-2.08m0 2.08L0 488.05"/><path class="cls-9" d="M243.25 334.75s25.52-1.21 25.74 17.34-13.37 27.28-25.74 27.36" transform="translate(56.3 29.52)"/><path class="cls-9" d="M599.85 490.13 0 488.05m0 2.08 599.85-2.08"/><path class="cls-9" d="M244 334.75s-25.52-1.21-25.75 17.34 13.38 27.28 25.75 27.36" transform="translate(56.3 29.52)"/></g><g id="More_Deets" data-name="More Deets"><ellipse class="cls-10" cx="218.59" cy="366.63" rx="18.68" ry="18.22"/><ellipse class="cls-10" cx="395.61" cy="366.63" rx="18.68" ry="18.22"/><ellipse class="cls-9" cx="159.17" cy="420.52" rx="36.3" ry="34.16"/><ellipse class="cls-9" cx="458.22" cy="417.17" rx="36.3" ry="34.16"/><path d="M389.66 366.45s22.81-25.37 106.43-25.05m-104.17 51.87s43.38-11.71 69.76 1.87m-351.5-28.69S78 338.13 10.3 341.71m101.07 49.4s-62-3.57-78.56 4" transform="translate(56.3 29.52)" style="stroke-width:8px;fill:none;stroke:#5c3a14;stroke-linecap:round;stroke-miterlimit:10"/></g></svg>