<svg id="Layer_1" data-name="Layer 1" xmlns="http://www.w3.org/2000/svg" viewBox="0 0 533.01 512.07"><defs><clipPath id="clip-path" transform="translate(-498.81 -341.12)"><path class="cls-1" d="M544 491.43v264.73a20.65 20.65 0 0 0 6.53 15.07L599.32 817a20.65 20.65 0 0 0 14.13 5.58h388.62a20.66 20.66 0 0 0 20.65-20.66V508a20.64 20.64 0 0 0-12.07-18.79L765.14 377a20.68 20.68 0 0 0-17.8.3l-191.89 95.64A20.64 20.64 0 0 0 544 491.43z"/></clipPath><clipPath id="clip-path-2" transform="translate(-498.81 -341.12)"><path class="cls-1" d="M769.7 650.68c0-17.83 77.87-56.74 127.92-56.64 27.28.06 30.29 19 29.61 29.87s-20.34 51.92-56.76 53.62c0 0 32 12.26 33.36 42.9.71 16-10.21 24.17-23.83 24.17-22.13 0-110.29-66.03-110.3-93.92z"/></clipPath><style>.cls-1{fill:none}.cls-6{fill:#fcfffc}.cls-7{fill:#992e30}</style></defs><path d="M544 491.43v264.73a20.65 20.65 0 0 0 6.53 15.07L599.32 817a20.65 20.65 0 0 0 14.13 5.58h388.62a20.66 20.66 0 0 0 20.65-20.66V508a20.64 20.64 0 0 0-12.07-18.79L765.14 377a20.68 20.68 0 0 0-17.8.3l-191.89 95.64A20.64 20.64 0 0 0 544 491.43z" transform="translate(-498.81 -341.12)" fill="#f26d71"/><g clip-path="url(#clip-path)"><path d="M596.85 520.77v280a20.3 20.3 0 0 0 20.3 20.3h26.42v32.17l-144.76-17.67 13-387.57z" transform="translate(-498.81 -341.12)" fill="#ed5c64"/></g><path d="M738.38 344.37 540.66 468.91a7.74 7.74 0 0 0-1.38 12l56.12 56.73a13.66 13.66 0 0 0 16.78 2.07l197.61-120 210.3 88.67a5.29 5.29 0 0 0 6.14-1.54l4.41-5.43a5.27 5.27 0 0 0-.43-7.12l-59.94-58.58a32.54 32.54 0 0 0-9.95-6.64l-202.41-86.24a21 21 0 0 0-19.53 1.54z" transform="translate(-498.81 -341.12)" fill="#d8474d"/><circle class="cls-6" cx="386.43" cy="249.73" r="58.34"/><ellipse class="cls-7" cx="905.86" cy="574.57" rx="18.78" ry="25.3" transform="rotate(-24.37 -133.387 1559.022)"/><path d="M769.7 647.23C769.7 634 848 591.3 898 591.4c27.29.06 31.66 20.77 31 31.66s-22.13 52.77-58.55 54.47c0 0 32 12.26 33.36 42.9.71 16-10.21 24.17-23.83 24.17-22.11 0-110.28-58.22-110.28-97.37z" transform="translate(-498.81 -341.12)" fill="#f9df5a"/><g clip-path="url(#clip-path-2)"><path d="M926 625.79s-35.75 44.25-65.7 44.59-49.71-3.74-49.71-3.74 32.68 54.81 59.58 52.42 13.61-38.46 13.61-38.46l50.39-27.92s8.83-25.53-8.17-26.89z" transform="translate(-498.81 -341.12)" fill="#f4cc3a"/></g><circle class="cls-6" cx="256.02" cy="254.85" r="56.68"/><ellipse class="cls-7" cx="775.14" cy="579.67" rx="18.78" ry="25.3" transform="rotate(-24.37 -264.101 1564.143)"/><path d="M834.38 680.26s13.55 3.07 43.07-1.71c36.25-5.87 55.58-11.8 93.1-7.83 23.32 2.47 28.23 22.39 26.87 29.54s-4.28 10.21-16.54 10.23c-18 0-25-17.89-42.16-18.51-13.61-.48-45.44-3.47-89.33-.92-4.89.29-15.01-10.8-15.01-10.8z" transform="translate(-498.81 -341.12)" fill="#f4888a"/></svg>