<svg id="Layer_1" data-name="Layer 1" xmlns="http://www.w3.org/2000/svg" viewBox="0 0 91.96 98.36"><defs><style>.cls-3{fill:none;stroke:#d91f02;stroke-linecap:round;stroke-miterlimit:10;stroke-width:2px}</style></defs><path d="M165.23 632.72c16.88-.93 39.5-13.56 42.48-43.08 1.09-10.74-.44-19.53-5.51-20.27-5.33-.79-10.29 4-10.29 4s5.67-28-4.62-30.11-16.84 8.5-16.84 8.5-2.09-17.29-10-17.29c-16.1 0-22.21 32.49-22.21 32.49s-2.54-4.62-9.09-3.28-14.59 11.18-12.82 31.9c1.59 18.58 13.72 39.08 48.9 37.14Z" transform="translate(-116.09 -534.49)" style="fill:#ff0015"/><path d="M169.65 630.6c12.78-1.16 24.25-15.76 26.53-24.9 2.66-10.67.3-13.56-3.73-14s-5.21 2.54-5.21 2.54-1-26.65-16.1-22.22c-8.58 2.53-8.35 9.69-8.35 9.69a6.71 6.71 0 0 0-7.49-1.88c-4.77 1.64-4.73 11.27-4.73 11.27s-3.58-3.27-7.31-2.23-7.41 7.12-4.45 19c3 11.98 11.19 24.52 30.84 22.73Z" transform="translate(-116.09 -534.49)" style="fill:#f5ed7e"/><path class="cls-3" d="m34.91 69.93 7.04 1.01M37.76 70.94l2.46 6.43M53.69 68.59l6.26-3.3M59.95 73.06l-2.68-6.12"/><path class="cls-3" d="M163.63 616.6a3.61 3.61 0 0 0 3.85 1.63 4 4 0 0 0 3.08-3.25" transform="translate(-116.09 -534.49)"/></svg>