<svg xmlns="http://www.w3.org/2000/svg" viewBox="0 0 51.36 62.93"><g data-name="Layer 1"><path d="M15.96 43.64a31.42 31.42 0 0 1 9.27 5.13l-3.57-9.25 9.13-2.56 2.6 6.76c3-5.08 8.42-11.58 15-7.1 6.77 4.64.65 15.08-4.24 19.31a87.17 87.17 0 0 1-9.37 6.43 30.94 30.94 0 0 1-3.18.4c-4.67.4-13.66.43-21.26-3.83-10.86-6.08-2.86-17.97 5.62-15.29z" fill="#97c289"/><path d="M32.52 11.27c5.53.85 9.78 10.47 7.24 18.73S26.85 44.41 14.85 41.86 2.53 26.99 5.1 20.76c0 0-7.38-3.25-4.34-9.28 2.6-5.14 8.43-1.34 8.43-1.34s-2.41-5.52 3.82-8.21c5.11-2.21 8 2.51 8 2.51s2.59-5.88 8.43-4.1c5.41 1.66 3.88 8.28 3.08 10.93z" fill="#f9b3b9"/></g></svg>