<svg id="Layer_1" data-name="Layer 1" xmlns="http://www.w3.org/2000/svg" viewBox="0 0 306.3 260.36"><defs><style>.cls-2{fill:#cde9f4}.cls-3{fill:#f6b3ba}.cls-4{fill:#98c38a}.cls-5{fill:#6c955f}.cls-6{fill:#f8c0bf}.cls-7{fill:#6badc0}</style></defs><path d="M442.88 362.46c.61 7 .64 88.6.64 97s-.13 14.92-.17 16.75c-.07 3.54-1.4 8.4-3.56 10.62-9.55 9.82-44.43 39.72-49 40.71s-5.32-8.9-5.32-8.9l6.72-122.15Z" transform="translate(-145.03 -269.78)" style="fill:#aad9e7"/><path class="cls-2" d="M397.87 402.09c.37 5.07-1.27 104.19-1.4 108.4-.44 14.42-5.56 17.12-7.91 17.62s-175.37.4-187.33-.54c-11.53-.9-18.42-8.49-20.29-27-1.47-14.6-2.93-95.48 6.68-108S292 317.83 292 317.83Z" transform="translate(-145.03 -269.78)"/><path class="cls-3" d="M279.22 333.67a4.64 4.64 0 0 1 5.36-.08c16.53 11.36 103.19 70.83 106.6 72.13 3.76 1.45 7.23 2 11.57-.86s45.88-39.22 47.33-42 2.31-5.5-1.3-9.84-53.12-39.22-60.64-44.43-42.63-28.5-45.88-30.25c-4-2.16-9.28-3.41-15.92.72-6.26 3.9-88 63-91.17 65.42s-55.92 38.94-59.08 41.55c-6.89 5.68-6.38 12.71-2.14 13.15 4.05.43 15.49-.3 19-2.75 4.82-3.43 71.99-52.35 86.27-62.76Z" transform="translate(-145.03 -269.78)"/><path class="cls-4" d="M439.79 486.86s1.46 7.86-7.24 13.81c-7.58 5.17-13.68 3.79-16.8-.25-2.79-3.6-1.92-10.52-1.92-10.52a7.39 7.39 0 0 1-5.46-5.89 6.38 6.38 0 0 1 5.56-7.57c2.64-.37 5.64 2.12 5.64 2.12a6.33 6.33 0 0 1 2.45-1.73 7.79 7.79 0 0 1 3-.33 10.3 10.3 0 0 1 3.14-5.14c2.88-2.14 8 .31 8.27 4.78.19 3.22-.24 4.14-.24 4.14a19.69 19.69 0 0 1 2.57 3 9.85 9.85 0 0 1 1.03 3.58Z" transform="translate(-145.03 -269.78)"/><path class="cls-5" d="M413.29 481.42c-1.18 1 0 3.13 1.5 3.6s2.49-1.16 1.42-2.66-2.21-1.53-2.92-.94ZM431.29 474c1.5-.41 2.59 1.75 2.13 3.27s-2.36 1.41-3-.31-.01-2.71.87-2.96ZM422.28 481.55c-.23.56.56 1.31 1.55 1.71a2.31 2.31 0 0 0 2.82-.75 3.14 3.14 0 0 0 .23-2.55c-.23-.93-1-.54-.9.16s.13 1.61-.68 1.93a1.46 1.46 0 0 1-1.82-.52c-.48-.53-1.08-.3-1.2.02Z" transform="translate(-145.03 -269.78)"/><path class="cls-6" d="M419 490c-.35 1-1.68 2.33-2.78 2s-1.38-2.31-.68-3.51 2.2-2.35 3.18-1.48A2.9 2.9 0 0 1 419 490ZM432.22 481.47c.2 1.45 1.53 2.3 2.52 1.57a1.6 1.6 0 0 0-.08-2.81 1.54 1.54 0 0 0-2.44 1.24Z" transform="translate(-145.03 -269.78)"/><path class="cls-4" d="M264.87 290.86c1.46-4.31-3.29-9.17-3.29-9.17a8.07 8.07 0 0 0 1.16-6.37c-1.22-4.78-4.7-5.2-7.32-4.7a6.65 6.65 0 0 0-4 3.18 6.46 6.46 0 0 0-2.88-.84 8 8 0 0 0-2.94.67 5.53 5.53 0 0 0-5.65-3.84c-2 .11-5.34 2.71-4.95 7.18a6.46 6.46 0 0 0 1 2.7c-2.3 1.14-5.33 6-4.65 8.95s31.88 7.07 33.52 2.24Z" transform="translate(-145.03 -269.78)"/><path class="cls-5" d="M258.15 273.25c1.44.58 1 3-.26 3.89s-2.73-.29-2.2-2.05 1.61-2.17 2.46-1.84ZM240.09 273.09c-1.55.1-1.89 2.49-1 3.78s2.69.57 2.73-1.27-.82-2.6-1.73-2.51ZM251 276.78c.47.38.15 1.42-.5 2.26a2.41 2.41 0 0 1-2.73.55 2.51 2.51 0 0 1-1.56-1.91c-.26-.92.95-1.05 1.22-.41s.32 1.37 1.19 1.44 1.17-.61 1.32-1.35.81-.79 1.06-.58Z" transform="translate(-145.03 -269.78)"/><path class="cls-6" d="M238.62 281.49c.23 1.76-1 3.34-2.36 3a1.9 1.9 0 0 1-.82-3.27c1.19-1.41 3.01-1 3.18.27ZM258.31 283.34c-.23 1.77 1 3.34 2.36 3a1.89 1.89 0 0 0 .82-3.26c-1.19-1.42-3.01-1.01-3.18.26Z" transform="translate(-145.03 -269.78)"/><path class="cls-2" d="M228.84 352.73s.42-58 .37-62.09c0-2.93.95-4.58 3.06-4.52s30.62-.07 32.27-.09 3.4 1 3.45 4.08.29 35.11.29 35.11Z" transform="translate(-145.03 -269.78)"/><path class="cls-3" d="M276.68 453.79s.49 15.84 4.17 21.72c4.36 7 12.8 5.23 15.12-1.36s1-21.48 1-21.48Z" transform="translate(-145.03 -269.78)"/><path class="cls-7" d="M270.59 455.2a2 2 0 0 1 0-4l34.3-.65a2 2 0 0 1 2.05 2 2 2 0 0 1-2 2.05l-34.31.65Z" transform="translate(-145.03 -269.78)"/><ellipse class="cls-7" cx="77.68" cy="181.28" rx="7.16" ry="7.43"/><ellipse class="cls-7" cx="206.73" cy="182.27" rx="7.16" ry="7.43"/><path class="cls-4" d="M161 510.86a31.22 31.22 0 0 1 9.27 5.13l-3.57-9.26 9.12-2.56 2.61 6.76c3-5.07 8.41-11.58 14.95-7.1 6.77 4.64.66 15.08-4.24 19.31a86.26 86.26 0 0 1-9.37 6.44s-1.21.23-3.18.4c-4.67.39-13.66.43-21.26-3.84-10.82-6.07-2.82-17.97 5.67-15.28Z" transform="translate(-145.03 -269.78)"/><path class="cls-3" d="M177.56 478.49c5.52.85 9.77 10.47 7.24 18.72s-12.9 14.41-24.94 11.86-12.32-14.87-9.76-21.07c0 0-7.38-3.25-4.34-9.28 2.6-5.14 8.43-1.34 8.43-1.34s-2.4-5.52 3.83-8.21c5.1-2.2 8 2.51 8 2.51s2.58-5.88 8.42-4.1c5.45 1.63 3.92 8.25 3.12 10.91Z" transform="translate(-145.03 -269.78)"/></svg>