<svg id="Layer_1" data-name="Layer 1" xmlns="http://www.w3.org/2000/svg" viewBox="0 0 341.05 287.97"><defs><style>.cls-7{fill:#e5ab73}.cls-8{fill:#a5753f}.cls-9{fill:#a3733d}.cls-10{fill:#e57a76}</style></defs><path d="M454.56 377.45s-.52 92-.81 95.41-2.54 8.19-8.75 12.14-65.53 36.9-70.33 37-5.93-9.92-5.93-9.92l1.69-138.32Z" transform="translate(-126.6 -256.15)" style="fill:#d39959"/><path d="M154.2 396.08s-.84 115.46 0 118.28a10 10 0 0 0 8.47 7.06c4.92.52 207.2 1.21 212 .6s6.21-3.15 6.49-9.07S380 402.29 380 402.29L290.22 301.8Z" transform="translate(-126.6 -256.15)" style="fill:#e7a966"/><path d="M291.34 309.57s87.56 98.63 90.36 101a13.77 13.77 0 0 0 13.74 2.87c6.37-2 64.65-30.8 68-32.58s6.37-9.67 2.29-15.53S374.06 263 371 259.43s-9.16-4.58-15-1.27-63.39 29.52-71 32.84-134.13 92.41-137.45 95.7c-6.65 6.62-2.54 15 4.58 15.78 5.46.59 12.22-4.07 20.11-9.16s119.1-83.75 119.1-83.75Z" transform="translate(-126.6 -256.15)" style="fill:#b9d799"/><path d="M450.64 335.52c-.16-6.74-23.67-3.8-23.67-3.8s12.91-4.94 9.42-12.24c-2-4.09-22.4 0-22.4 0s7.17-5.51 6.15-10.35-19.64.68-26.26-.85c0 0 3-2.72 2.19-6.49-1-4.36-24.06-10.25-28.91-10.56a10.69 10.69 0 0 0-1.26 0c4.3 7.33 13 19.68 17.39 21.66 6.11 2.78 21.35 4.55 20.8 7.54-.28 1.57-7.48 2.72-7.48 2.72 3.54 2.59 21.22 9 20.54 11.74s-8.67 2.14-15.91-.72c-9-3.54-22.58-13.6-22.58-13.6 1.08 2.85 6.85 17.76 4.76 18.36-2.86.82-6.53-6.67-12-15.51-4-6.47-8.69-20.94-11-29.1a16.66 16.66 0 0 0-1.12 2.44c-1 2.71-4.91 34.77-1.09 39.86s8.4 2 8.4 2 12 29.36 22.65 27.74c6.63-1 4.07-16.79 4.07-16.79s21.06 15.25 31.81 9.4c5.9-3.22-4.57-14.5-4.57-14.5s30.34 2.09 30.07-8.95Z" transform="translate(-126.6 -256.15)" style="fill:#9eca7d"/><path d="M383.42 338.92c2.09-.6-3.68-15.51-4.76-18.36 0 0 13.6 10.06 22.58 13.6 7.24 2.86 15.23 3.49 15.91.72s-17-9.15-20.54-11.74c0 0 7.2-1.15 7.48-2.72.55-3-14.69-4.76-20.8-7.54-4.35-2-13.09-14.33-17.39-21.66a5.92 5.92 0 0 0-5.44 3.09c2.3 8.16 7 22.63 11 29.1 5.43 8.84 9.1 16.33 11.96 15.51Z" transform="translate(-126.6 -256.15)" style="fill:#87bb6b"/><path d="M156.53 502.89c2.47 0 10.8-3.69 16.46-3.35 9.76.58 16 13.11 15.29 22.48s-4.95 20.92-18.35 19c0 0-5 3.54-13.26.78a18.78 18.78 0 0 1-12.38 2c-7-1.32-15.29-7.29-17-15.15-1.9-8.54-.16-23.55 11.8-27.53 8.7-2.9 9.72 1.62 17.44 1.77Z" transform="translate(-126.6 -256.15)" style="fill:#f3bc85"/><path class="cls-7" d="M144.28 503.53a9.83 9.83 0 0 0-1.91 4.3 33.35 33.35 0 0 1 3.08-3.28c1.08-1 2.21-1.93 3.36-2.84l.55-.42c-.75-.28-1.49-.54-2.27-.75a17 17 0 0 0-2.81 2.99ZM175.84 530.77a18.76 18.76 0 0 0 .24-6 26.87 26.87 0 0 0-1.29-5.71 26.1 26.1 0 0 0-2.42-5.26 57.17 57.17 0 0 1 1.9 11.11 21.59 21.59 0 0 1-.37 5.41 19.29 19.29 0 0 1-2 5 22.45 22.45 0 0 1-6.25 7.17 11.43 11.43 0 0 0 4.24-1.57 23.07 23.07 0 0 0 3.66-4.68 20.93 20.93 0 0 0 2.29-5.47ZM160.47 538.54a12.23 12.23 0 0 0 1.4-6.2 36.92 36.92 0 0 1-2.91 5.29 13.68 13.68 0 0 1-1.86 2.15 22.32 22.32 0 0 1-5.59 3.91 17.73 17.73 0 0 0 5.16-1.91c.3.1.59.17.89.26.31-.27.63-.54.93-.83a10.13 10.13 0 0 0 1.98-2.67Z" transform="translate(-126.6 -256.15)"/><path class="cls-8" d="M143.88 517.2c-3.73-.37-4 6.67-.73 7.09 4.06.52 4.59-6.7.73-7.09ZM164.71 517.2c3.73-.37 4 6.67.73 7.09-4.05.52-4.59-6.7-.73-7.09ZM154 526.64h-.13c-2.58-.1-3.69-3.15-3.74-3.27a1 1 0 1 1 1.89-.67s.72 1.9 1.93 1.94 2.16-1.38 2.46-1.89a1 1 0 0 1 1.73 1c-.14.25-1.71 2.89-4.14 2.89ZM163.08 491.82c-.77 1.41-3.68 6.13-3.5 9.71a10.89 10.89 0 0 0 1.72 4.59s-5.06 4-9.58 1.71c0 0-1.06-7.12 2.43-12.22s5.78-7.18 7.47-7c1.84.2 2.38 1.6 1.46 3.21Z" transform="translate(-126.6 -256.15)"/><path class="cls-9" d="M198.35 461.79a2.91 2.91 0 0 1-.87-.13 3 3 0 0 1-2-3.74c.61-2 6.28-19.64 17.22-20.55 10.71-.91 18 15.8 18.76 17.71a3 3 0 0 1-5.54 2.31c-2-4.76-7.74-14.46-12.73-14.05-5.86.49-10.73 12.25-12 16.33a3 3 0 0 1-2.84 2.12ZM323.31 463.71a3 3 0 0 1-2.83-2c-1.79-5.12-7.09-15.71-12.06-15.78h-.07c-5.58 0-10.91 10.16-12.34 13.74a3 3 0 0 1-5.57-2.22c.71-1.8 7.28-17.52 17.91-17.52h.15c10.51.15 16.95 17.8 17.65 19.81a3 3 0 0 1-1.85 3.81 2.87 2.87 0 0 1-.99.16Z" transform="translate(-126.6 -256.15)"/><path class="cls-10" d="M173.75 467c0 7.09 16.78 6.55 16.78-.53s-16.8-8.29-16.78.53ZM354.94 463c0 7.31-15.61 6.75-15.61-.54s15.67-8.56 15.61.54Z" transform="translate(-126.6 -256.15)"/><path class="cls-9" d="M249.61 457.19c.12 1.73.71 14.48 11.85 14.82 13.19.42 13.52-11.42 13.52-14.19s-1.14-6-4.13-6.35-14.48.35-16.34.75-5.12 1.85-4.9 4.97Z" transform="translate(-126.6 -256.15)"/></svg>