<svg id="Layer_1" data-name="Layer 1" xmlns="http://www.w3.org/2000/svg" viewBox="0 0 228.26 233.14"><defs><style>.cls-3{fill:#ef7b62}.cls-4{fill:#9f6e52}.cls-5{fill:#f8cbe1}.cls-6{fill:#fffbf9;opacity:.7}.cls-7{fill:#da998c}.cls-9{fill:#a17054}</style></defs><path d="M186.28 383.49s-.18 96.63-.18 99.48 1.25 4.09 3.21 6.22 37 36 47.33 36.25l-2.49-109.56Z" transform="translate(-183.03 -305.28)" style="fill:#b78a70"/><path d="M227 413.63s1.5 100.37 1.69 103.67 3.33 7.77 7.95 8.14 160.78-.19 164.29-.74 5.18-3.7 5.37-7 .55-109 .55-109l-84.73-43.3Z" transform="translate(-183.03 -305.28)" style="fill:#c79e86"/><path class="cls-3" d="M326 372.59a3.6 3.6 0 0 1 3.33 0C340.46 378.4 404 411.47 407 412.1c3.21.69 6-2.52 3.21-5.5S360.22 363 360.22 363s-64.46-34.14-67.67-36-7.31-2.47-12.35-.18S187.61 376.38 185 379s-2.23 5.57.06 7.63 38.75 34.39 40.81 36 5.72.93 8.92-1.14c2.91-1.89 78.92-42.38 91.21-48.9Z" transform="translate(-183.03 -305.28)"/><path class="cls-4" d="M325.15 474.06c-4.06 0-8.42-4.53-9.66-5.92a3 3 0 1 1 4.46-4c1.78 2 4.32 3.88 5.22 3.92 1.17 0 3.53-2.43 4.85-4.61a3 3 0 0 1 5.14 3.11c-.77 1.25-4.8 7.5-10.01 7.5ZM361.81 445.73c-3.65.13-6.17 5.54-5.17 9.07s3.9 6 6.18 5.55c4.28-.89 5.19-4.54 5.16-7.82.02-4.04-3.42-6.89-6.17-6.8ZM288.86 445.73c3.65.13 6.17 5.54 5.16 9.07s-3.89 6-6.17 5.55c-4-.76-5.2-4.54-5.17-7.82.04-4.04 3.42-6.89 6.18-6.8Z" transform="translate(-183.03 -305.28)"/><ellipse class="cls-5" cx="81.91" cy="163.67" rx="7.37" ry="7.12"/><ellipse class="cls-5" cx="201.17" cy="164.29" rx="7.37" ry="7.12"/><path class="cls-6" d="M382.09 451.78s-2.71 21.91-19.63 22.65c-19.66.87-21.6-21.66-21.6-21.66ZM267.85 451.78s2.71 21.91 19.63 22.65c19.66.87 21.6-21.66 21.6-21.66Z" transform="translate(-183.03 -305.28)"/><path class="cls-3" d="M362.64 479.48h-.7c-12.5-.44-18.61-10.67-22.65-17.45l-.27-.44c-3.58-6-8.25-9.16-13.5-9.16-5.53 0-10.05 2.81-13.45 8.37l-.73 1.21c-4.05 6.7-10.16 16.83-23.57 17h-.22c-7.77 0-14.26-4.26-18.77-12.31a42.24 42.24 0 0 1-4.36-11.72 3.5 3.5 0 0 1 6.88-1.29c0 .22 3.63 18.32 16.26 18.32h.14c9.51-.1 14-7.58 17.64-13.59l.76-1.25c5.92-9.68 13.83-11.71 19.42-11.71 7.73 0 14.66 4.47 19.5 12.57l.27.44c3.84 6.44 8.19 13.74 16.88 14h.44c12.26 0 16.65-18.28 16.7-18.47a3.5 3.5 0 1 1 6.82 1.59 45.7 45.7 0 0 1-4.89 11.79c-4.74 7.93-11.16 12.1-18.6 12.1Z" transform="translate(-183.03 -305.28)"/><path class="cls-7" d="M196.32 471.38c-1.18 0-3.45 1.5-1.24 3.9s4.88 4.07 7.18 3.63 1.6-3.19 0-4.52-3.54-3.01-5.94-3.01ZM248 473.84c.35-1.13-.39-3.75-3.34-2.37s-5.37 3.41-5.64 5.74 2.55 2.49 4.3 1.37 3.92-2.46 4.68-4.74ZM209.94 478.08c-1.32.54-2.27 2.83.23 4.36a6.58 6.58 0 0 0 6.93-.06c1.64-1.18.68-3.5-1.45-4.24a8.17 8.17 0 0 0-5.71-.06ZM185.86 460c-1.37-.42-3.55.75-2.59 3.51a6.54 6.54 0 0 0 5.38 4.36c2 .13 2.75-2.26 1.58-4.19a8.18 8.18 0 0 0-4.37-3.68ZM232 481.58c1.13-.88 1.58-3.17-1-3.76a7 7 0 0 0-6.43 2.14c-1.32 1.53 0 3.27 2.13 3.28a8.67 8.67 0 0 0 5.3-1.66ZM260 459c.31 1 2.15 1.74 3.73-.12a4.52 4.52 0 0 0 .74-5.2c-.81-1.26-2.89-.56-3.76 1A5.66 5.66 0 0 0 260 459ZM250.54 468.7c-.29 1.25.74 3.12 3 2.07a6.16 6.16 0 0 0 3.38-5.11c0-1.82-1.95-2.3-3.49-1.12a7.66 7.66 0 0 0-2.89 4.16ZM393.11 465.33c-1.13-.34-3.74.44-2.32 3.37s3.48 5.32 5.81 5.57 2.46-2.59 1.32-4.33-2.52-3.94-4.81-4.61ZM402.73 475.12c-1.42.14-3 2.05-1.05 4.24a6.57 6.57 0 0 0 6.65 2c1.92-.65 1.67-3.14-.15-4.47a8.14 8.14 0 0 0-5.45-1.77ZM387.44 453c-1.19-.8-3.62-.32-3.51 2.6a6.57 6.57 0 0 0 3.89 5.74c1.89.72 3.28-1.37 2.72-3.55a8.2 8.2 0 0 0-3.1-4.79Z" transform="translate(-183.03 -305.28)"/><path d="M355.87 327.7c3-1.86 5.19-8.31 2.91-11.57 0 0 3.53-8.43.45-10.32-2.15-1.32-9.06 4.87-9.06 4.87a38.09 38.09 0 0 0-6.21-.55 28.42 28.42 0 0 0-6.27.74s-4.9-5.94-8.22-5.57c-2 .22-2.21 7.11-.61 10 0 0-2.2 6.89 2.81 11.91 3.43 3.44 20.42 3.17 24.2.49Z" transform="translate(-183.03 -305.28)" style="fill:#f6b3ba"/><path class="cls-9" d="M355.78 322.53c-.42-1 8.7-3.45 9.76-2.87s-1.54 1.83-3.93 2.42c-1.54.39-5.45 1.31-5.83.45Z" transform="translate(-183.03 -305.28)"/><path class="cls-9" d="M355.79 322.52c0-.4 8.68-.87 10.24.74.57.57-10.19 1-10.24-.74ZM332.63 322.17c.47-1-8.51-3.88-9.6-3.36s1.44 1.9 3.8 2.62c1.52.46 5.38 1.57 5.8.74Z" transform="translate(-183.03 -305.28)"/><path class="cls-9" d="M332.83 322.32c0-.39-8.32-1.14-9.93.39-.58.55 9.76 1.29 9.93-.39ZM351.8 321.67c.68 0 1.4-1.27 1.42-2.64s-.57-2.2-1.46-2.22-1.43 1.83-1.43 2.78.34 2.13 1.47 2.08ZM336.53 321.67c-.69 0-1.41-1.27-1.43-2.64s.57-2.2 1.47-2.22 1.42 1.83 1.42 2.78-.34 2.13-1.46 2.08ZM346 320.35c0-.4-1.17-1-2.32-1a2.61 2.61 0 0 0-2.16.92c-.21.37 1.11 1.89 2.16 1.86s2.32-1.2 2.32-1.78Z" transform="translate(-183.03 -305.28)"/><path class="cls-3" d="M325.37 328.92c0 1.57.08 16.8.1 23.43a5.18 5.18 0 0 0 2.9 4.55L357 371.67c2.69 1.39 6-.42 6-3.28-.1-11.58-.29-35-.29-37.37 0-3.1.29-6.95-4.59-8.14-5.77-1.42-26.85-.62-29.58 0-2.26.57-3.21 3.77-3.17 6.04Z" transform="translate(-183.03 -305.28)"/><path d="m227.07 525.24-.81-8.22s6.61 1.22 6.86 1l.62 6.54c1.84-1 7.57-5.07 10.84-1.74 3.52 3.58-2.26 11.88-13.82 15.64 0 0-15.39-3.27-17-9.55-2.01-8 10.1-7.33 13.31-3.67Z" transform="translate(-183.03 -305.28)" style="fill:#9cc993"/><path d="M228.77 522c5.94.52 11.7-5.15 13.89-8.52s3-8.92 3-8.92l-4.64-7.19-9.78-3.61-8.65.65-5.08 3.69-2.48 3.19s-.9 6.81 2.14 12.28 7.19 8.01 11.6 8.43Z" transform="translate(-183.03 -305.28)" style="fill:#ee8d52"/><path d="M216.24 505a6.7 6.7 0 0 1-.2-7.23 11.36 11.36 0 0 1 6.55-4.65 1.75 1.75 0 0 1 .62-.33c3.73-1.15 10.88-.48 14.54.87 2.77 1 6.44 3.48 7.66 7.07a7.84 7.84 0 0 1-1.18 7.19c-2 2.86-5.94 4.35-11.21 4.19a28.08 28.08 0 0 1-3.76-.39c-5.35-.87-10.94-3.29-13.02-6.72Zm20.85-7.27a5 5 0 0 1 .43 5.17 4.59 4.59 0 0 1-3.4 2.7c-3.4.6-7.14-2.69-7.56-3.07a1.57 1.57 0 0 1-.07-2.29 1.74 1.74 0 0 1 2.39 0c1.14 1 3.39 2.44 4.6 2.22.16 0 .58-.1 1-.9a1.9 1.9 0 0 0-.21-2.06c-1.29-1.92-5.09-3.61-8.14-3.63-2.39 0-5.8 1.36-7.12 3.57a3.61 3.61 0 0 0 .18 4c1.71 2.79 8.1 5.3 13.94 5.48 4 .12 7-.88 8.3-2.74a4.82 4.82 0 0 0 .8-4.42c-.8-2.34-3.41-4.21-5.64-5l-.48-.17a8.83 8.83 0 0 1 .98 1.18Z" transform="translate(-183.03 -305.28)" style="fill:#f1a77b"/></svg>