<svg id="Layer_1" data-name="Layer 1" xmlns="http://www.w3.org/2000/svg" viewBox="0 0 205.66 218.59"><defs><style>.cls-4{fill:#82c1ab}.cls-5{fill:#f5b3c2}</style></defs><path d="M199.71 347.88s1.46 114.9 1.61 117.68.14 4.69 1.9 7.62 17.42 30.3 23.71 33.66l4.39-7.9-2.63-125.74Z" transform="translate(-194.92 -290.53)" style="fill:#a0d3c1"/><path d="M223.86 377.74s-.59 120.47 0 123.25 1 6.73 7.46 7.9 156-2.49 159.26-2.78 8.34-.59 8.49-6c.1-3.52-.73-117.69-.73-117.69L312 327.68Z" transform="translate(-194.92 -290.53)" style="fill:#bcdfd5"/><path d="M310.78 334a3.27 3.27 0 0 1 3.53.06c11.56 7.6 76.62 50.33 80.22 51.4 4 1.17 6.44-1 6-3.81s-24.62-31-27.4-34.5-79.77-53.72-82.52-55.67a7.57 7.57 0 0 0-7.76.15c-2.93 1.76-83.29 46.69-85.49 48.3a6.27 6.27 0 0 0-1.75 7.76c1.46 2.64 26.35 33.52 27.66 34.84s3.37 2.19 6.3.88c2.66-1.16 69.43-42.1 81.21-49.41Z" transform="translate(-194.92 -290.53)" style="fill:#cba9d0"/><path class="cls-4" d="M281 437.93c-8.26 0-13.71-8.12-13.94-8.47a3 3 0 0 1 5-3.31c0 .06 3.93 5.78 8.94 5.78h.09c6.14-.08 10.53-5.59 10.58-5.65a3 3 0 0 1 4.74 3.67c-.24.32-6.15 7.86-15.24 8ZM318.17 444.73c-5.12 0-9.81-5.44-10.35-6.09a2.5 2.5 0 1 1 3.84-3.2c1.26 1.5 4.59 4.51 6.73 4.28s4.31-3.57 5.05-5.14a2.5 2.5 0 0 1 4.53 2.1c-.34.76-3.56 7.4-9 8a6.74 6.74 0 0 1-.8.05ZM353.63 437.94h-.29c-9.51-.2-16.28-8.26-16.57-8.6a3 3 0 0 1 4.62-3.83c.07.08 5.36 6.29 12.08 6.43h.16c5.06 0 8.77-5.24 8.8-5.29a3 3 0 0 1 4.95 3.4c-.23.33-5.5 7.89-13.75 7.89Z" transform="translate(-194.92 -290.53)"/><ellipse class="cls-5" cx="59.69" cy="155.27" rx="13.28" ry="13.69"/><ellipse class="cls-5" cx="185.28" cy="154.83" rx="13.28" ry="13.69"/></svg>