<svg id="Layer_1" data-name="Layer 1" xmlns="http://www.w3.org/2000/svg" viewBox="0 0 799.6 625.67"><defs><clipPath id="clip-path" transform="translate(108.61 -97.32)"><path class="cls-1" d="M-88.48 237.32v356.26a19.31 19.31 0 0 0 4.84 12.79l67.18 75.87a19.32 19.32 0 0 0 14.52 6.5l668.35-2.58a19.29 19.29 0 0 0 19.22-19.29V261.19a19.29 19.29 0 0 0-19.17-19.29Z"/></clipPath><clipPath id="clip-path-2" transform="translate(108.61 -97.32)"><rect class="cls-1" x="294.55" y="390.26" width="340.77" height="227.4" rx="11.74"/></clipPath><clipPath id="clip-path-3" transform="translate(108.61 -97.32)"><path class="cls-1" d="m-67.24 342.59 36 21.58a4.36 4.36 0 0 1 2.12 3.75V533.3a4.38 4.38 0 0 1-7 3.53l-36-26.37a4.41 4.41 0 0 1-1.79-3.54V346.35a4.39 4.39 0 0 1 6.67-3.76Z"/></clipPath><clipPath id="clip-path-4" transform="translate(108.61 -97.32)"><path class="cls-1" d="M691 306.64c0-5.36-.51-60.64-1-113a97.16 97.16 0 0 0-97.16-96.23H-16.39A73.13 73.13 0 0 0-89.51 169l-1.42 69.78A94.6 94.6 0 0 0-89.36 258a25.9 25.9 0 0 0 31.71 20.42l3.12 9.45a37.37 37.37 0 0 0 44.9 24.47l10.24 15.3C15.07 349.21 48 351 64.78 331.21l10.61-14.89 6 13.23c14.3 21.22 49 19.75 62.72-1.87l7.54-13.56 5.88 9.51c15.32 21.61 48 22.44 63.84 1.23l7.38-9.95 8.78 13.09c13.14 16.86 42.08 17.37 55.23.52l9.86-14.78 6.91 13c14.2 20.05 47.07 20.39 62.72 1.45l7.55-11.45L390.33 329a37.12 37.12 0 0 0 58.34-2.7l8.66-12.15 9.75 12.74c12.49 16.32 40.78 19.91 56.32 4.48l9.7-13.7 11 14.15c13.74 14.59 45 12.37 55.56-1 5.93-7.5 8.5-12.18 10.54-18.43 1 3.59 5.9 11.68 12.49 19 12.47 13.82 38.87 13.66 52 3.13 10.71-8.66 16.31-20.06 16.31-27.88Z"/></clipPath><style>.cls-1,.cls-16{fill:none}.cls-4{fill:#e9f3f1}.cls-8{fill:#629d89}.cls-16{stroke-linecap:round;stroke-width:6px;stroke-linejoin:round;stroke:#69c4a6}.cls-17{fill:#67c5a6}</style></defs><path d="M-88.48 237.32v356.26a19.31 19.31 0 0 0 4.84 12.79L-16 682.7a17.92 17.92 0 0 0 13.49 6l675-2.6a13.27 13.27 0 0 0 13.22-13.27V242Z" transform="translate(108.61 -97.32)" style="fill:#fafffc"/><path class="cls-4" d="M0 132.62h99.95v493.04H0z" style="clip-path:url(#clip-path)"/><path class="cls-4" d="M196.55 292.95H330A12.07 12.07 0 0 1 342.11 305v286.46H184.47V305a12.07 12.07 0 0 1 12.08-12.05Z"/><rect class="cls-4" x="403.16" y="292.95" width="340.77" height="227.4" rx="11.74"/><g style="clip-path:url(#clip-path-2)"><path d="m470.31 288.4-83.78 100.17M508.47 288.4 382.06 437.47" style="stroke-miterlimit:10;stroke:#f5fffa;stroke-width:8px;fill:#629d89"/><path d="m617.29 517.96 81.39-102.55m53.97-10.44-98.39 125.22" style="stroke-linecap:round;stroke-miterlimit:10;stroke:#f5fffa;stroke-width:8px;fill:#629d89"/></g><path class="cls-8" d="M296.92 604.25h337.87a6.73 6.73 0 0 1 5.52 10.59l-14.13 20.22a6.72 6.72 0 0 1-5.52 2.88H309.58a6.74 6.74 0 0 1-5.71-3.16l-12.66-20.22a6.74 6.74 0 0 1 5.71-10.31Z" transform="translate(108.61 -97.32)"/><path d="m-67.24 342.59 36 21.58a4.36 4.36 0 0 1 2.12 3.75V533.3a4.38 4.38 0 0 1-7 3.53l-36-26.37a4.41 4.41 0 0 1-1.79-3.54V346.35a4.39 4.39 0 0 1 6.67-3.76Z" transform="translate(108.61 -97.32)" style="fill:#f5fffa"/><g style="clip-path:url(#clip-path-3)"><path d="M88.1 223.41 5.81 311.36m89.15 29.81L5.81 415.28m91.83-53.71L8.5 435.68" style="stroke:#fafffc;stroke-width:6px;stroke-linecap:round;stroke-miterlimit:10;fill:none"/></g><path d="M441.9 517.79c11.29-5.66 22.93-19.3 22.93-19.3s11.9 13.64 26.1 18.67" transform="translate(108.61 -97.32)" style="stroke-linejoin:round;stroke:#629d89;stroke-width:5px;stroke-linecap:round;fill:none"/><ellipse class="cls-8" cx="414.7" cy="498.36" rx="14.11" ry="11.6" transform="rotate(-85.04 415.907 390.47)"/><ellipse class="cls-8" cx="518.17" cy="497.96" rx="11.6" ry="14.11" transform="rotate(-7 -223.037 -438.523)"/><path d="M691 306.64c0-5.36-.51-60.64-1-113a97.16 97.16 0 0 0-97.16-96.23H-16.39A73.13 73.13 0 0 0-89.51 169l-1.42 69.78A94.6 94.6 0 0 0-89.36 258a25.9 25.9 0 0 0 31.71 20.42l3.12 9.45a37.37 37.37 0 0 0 44.9 24.47l10.24 15.3C15.07 349.21 48 351 64.78 331.21l10.61-14.89 6 13.23c14.3 21.22 49 19.75 62.72-1.87l7.54-13.56 5.88 9.51c15.32 21.61 48 22.44 63.84 1.23l7.38-9.95 8.78 13.09c13.14 16.86 42.08 17.37 55.23.52l9.86-14.78 6.91 13c14.2 20.05 47.07 20.39 62.72 1.45l7.55-11.45L390.33 329a37.12 37.12 0 0 0 58.34-2.7l8.66-12.15 9.75 12.74c12.49 16.32 40.78 19.91 56.32 4.48l9.7-13.7 11 14.15c13.74 14.59 45 12.37 55.56-1 5.93-7.5 8.5-12.18 10.54-18.43 1 3.59 5.9 11.68 12.49 19 12.47 13.82 38.87 13.66 52 3.13 10.71-8.66 16.31-20.06 16.31-27.88Z" transform="translate(108.61 -97.32)" style="fill:#a7eed7"/><g style="clip-path:url(#clip-path-4)"><path d="M-94.6 133.05s23.11-22.81 47.85-21 38 22.36 38.32 35.92 0 178.29 0 178.29l-97.2-26.26Z" transform="translate(108.61 -97.32)" style="fill:#85dfc1"/><path class="cls-16" d="M-88.48 127.81S-73.88 112-46.75 112c40.1.07 38.06 55 38.06 55l-.08 137.4" transform="translate(108.61 -97.32)"/><path class="cls-16" d="M-80 128.54c25.6-27.73 59.78-28.22 59.78-28.22s566.46.51 609.84 0c45.17-.52 72 25.05 82.88 43.91" transform="translate(108.61 -97.32)"/></g><path class="cls-16" d="M679.52 157.79a73.51 73.51 0 0 1 5.73 18.52" transform="translate(108.61 -97.32)"/><ellipse class="cls-17" cx="483.6" cy="474.65" rx="8.35" ry="9.42"/><ellipse class="cls-17" cx="589.08" cy="502.26" rx="10.29" ry="10.81"/><ellipse class="cls-17" cx="690.48" cy="453.81" rx="11.52" ry="12.43"/><path d="M399 642.15c-6.86 5.81-11.52 7.9-14.42 10.23-1.36 1.09-4.6 5.42-6.65 8.23l-.1 10.67-6 .9v-6.83c-.88.12-2-.31-3.28-2.24-2.85-4.36-11.63-8.49-15.54-11.18s-9.17-6.43-9.78-10-3.08-9.39-.95-10.68 1.73-.92 5.81.56c4.36 1.58 9.39 7.1 10.95 10.57a53.83 53.83 0 0 0 5.96 10.45 78.66 78.66 0 0 0 6.86 7.65v-20.87c-2-2.13-5.26-4.83-7.53-7.3-3.3-3.58-2.91-2.35-9.33-6.54s-9-10.84-10.18-15.38-.45-9.94 2.29-9.1 1.74 2.9 4.64 5.08a50.53 50.53 0 0 1 8.72 7.44c3.36 3.69 4.7 10.79 6.19 14 1.08 2.36 3.62 4.3 5.2 5.34v-18.71c-1.59-3.51-4.12-6.66-6.14-10.69-2.85-5.7-7.31-5.93-11.95-11.85s-5-12.36-2.86-13.87 7.94 4.36 10.57 8.05 6 11.52 7.32 14.09a19.33 19.33 0 0 0 3.06 4v-13.93s-5.82-5.52-6.11-9.84 2.2-4.71 3.84-4.71 5.05 5.14 5.05 5.14 3.26-7.42 7.13-6.82 1.14 12-3.18 14.42c0 1.31 0 5.82-.09 12.12 1.09-.95 2.48-2.21 3.5-3.31 1.93-2.08 4.19-10.06 8.94-15 5.65-6 9.83-8.34 12.37-7.16 3.45 1.61 1.94 11.78-4.92 17.59s-11.77 6.41-13.71 8.2c-1.28 1.18-4.33 4.41-6.24 6.46-.05 5.65-.11 12.09-.18 18.65a23.52 23.52 0 0 1 1.53-1.87c.67-2.57 3.82-9.67 10.48-15.67 6.93-6.26 16-11.91 19.17-10.23 3.35 1.79-2 14.31-8.89 20.12s-14.28 7-17.19 9.28c-1.22 1-3.52 4.8-5.19 7.74-.06 5.79-.11 11.43-.16 16.47.92-.87 2-1.9 2.76-2.7.67-2.57 2.13-10.58 8.1-17.27 7-7.83 15.76-11 18.9-9.28 3.33 1.75-1.94 13.77-8.77 19.58Zm102.32 22.47c-5.2 3.69-11.18 5.82-15.2 6.21a8.9 8.9 0 0 0-3.4.94c-.12 11.68-.22 20.58-.22 20.58l-6 .89v-12a28.93 28.93 0 0 1-5.06-3.47c-4-3.47-9.84-1.85-15.26-7.5s-12.46-16.09-7.82-20.68 10.84 3.61 16.88 7.38 8 17.33 9 18.62a6.16 6.16 0 0 0 2.26 1.5v-22.76a27.55 27.55 0 0 0-7.35-6.42c-4-2.3-10.62-6.49-14.42-11s-3.24-13.7.33-14.93 8.39 2.8 11.69 7.27c2.36 3.2 4.69 13.64 5.92 15.76.66 1.14 2.29 2.08 3.13 3.91v-28.49s-7.06-7-7.35-11.37.36-8.5 2.82-8.5c5.14 0 8 9.34 8 9.34s7.87-13 12.9-9.34-1.28 14.65-8.95 16.94c0 2-.08 10.52-.19 21.18 1.42-1.19 3-2.87 3.33-4.47a21.81 21.81 0 0 1 3.24-8.38c3.35-4.74 11.74-10.41 17.5-7.83s-4.25 13.92-7.1 15.71-6.93 4-10.68 4.19c-1.91.09-4.4 4-6.34 5.83-.08 7.64-.17 15.94-.25 23.49a2.81 2.81 0 0 0 .83-.86c.67-1.18 1.11-10.06 8-14.26s12.8-9.73 19.12-6.65c5.32 2.55-4.16 15.48-9.36 19.17Zm105.38-19.51c-6.74 4.48-14.87 7-17.11 9.28-1.5 1.54-4.26 4-5.91 5.39v4.4l-5.36 4.69v-5.45a75.8 75.8 0 0 1-10.18-6.4c-5.31-4.08-17.72-9.73-23.37-14.09s-8.27-16.71-5.92-18.84 12 3.25 16.93 6.77 9.79 14.53 12.36 19.06c1.91 3.36 7.42 6.69 10.13 8.19l-.27-29.93c-2.21-2.71-5.8-5.19-11.52-6.11-8.76-1.41-13.55-6.58-16.51-12.51s-6-11.22-3.52-14.76c2-2.9 12.35 4.92 15.93 7.89s10 13.52 11.74 15.65a15.2 15.2 0 0 0 3.82 3l-.18-19.78c-1.58-1.57-4.3-4.29-6.21-6.36-2.85-3.09-6.32-3.5-10.9-9.32s-5.09-16.21-2.63-17.72 6.6 4.64 10.17 7.72 5.71 12.63 7 15.37a6.6 6.6 0 0 0 2.45 2.63l-.2-22.61s-8.66-6.78-9-11.1 2.12-5.81 3.76-5.81c4.29 0 8 7.5 8 7.5s3.91-12.65 13.08-12.65c7.94 0-2 19.68-9.13 20.25 0 1.81 0 10.86-.1 22.71a19.69 19.69 0 0 0 2.63-2.88c1.62-2.29 2.91-10.84 6.71-13.58s13.08-8.44 18.06-6.76-3.43 12.32-7.88 16.49c-6.22 5.81-11.58 5.76-14.26 8.33-1.52 1.45-3.7 3.61-5.3 5.2 0 7.74-.08 16.21-.14 24.41.51-.73 1.06-1.54 1.58-2.32 1.62-2.42.73-7.56 4.75-12.65s10.68-10.51 14.48-11.18 6-3.07 7.66-1.51-.84 11.78-4.19 15-7.44 7.66-12.41 10.07-4.58 1.67-6.76 4.13c-1.37 1.54-3.64 4.32-5.15 6.17 0 8.62-.08 16.54-.11 22.47a5.53 5.53 0 0 0 2.4-2.64c.51-1.85 3.52-10.62 6.94-15.1 6.31-8.27 23.7-16.69 27-12.22 4.34 5.91-5.2 16.09-13.36 21.51Z" transform="translate(108.61 -97.32)" style="fill:#aaeed8"/><path d="M371.39 660.15h-31.3c-2.09 0-3.13 1.3-3.13 2.53s.33 2.65 1.67 2.8c1.18.13 5.11 26.7 9.55 34.57.45.81 1 1.54 1.95 1.54h43.68c.93 0 1.28-.43 2-1.53 2.64-4.36 8.12-33.2 8.12-33.2a3.48 3.48 0 0 0 2.83-3.39c0-3.32-4.17-3.32-4.17-3.32Zm106.88 13.12H447c-2.09 0-3.13 1.33-3.13 2.59s.33 2.7 1.68 2.85c1.17.14 5.1 27.28 9.54 35.32.46.83 1 1.57 1.95 1.57h43.68c.93 0 1.29-.44 2-1.56 2.64-4.45 8.12-33.92 8.12-33.92a3.52 3.52 0 0 0 2.83-3.46c0-3.39-4.17-3.39-4.17-3.39ZM580.3 659.7h-31.77c-2.12 0-3.18 1.34-3.18 2.59s.34 2.71 1.71 2.86c1.19.13 5.18 27.28 9.68 35.32.47.82 1 1.57 2 1.57h44.33c.94 0 1.3-.44 2-1.57 2.69-4.45 8.25-33.91 8.25-33.91a3.56 3.56 0 0 0 2.87-3.47c0-3.39-4.23-3.39-4.23-3.39Z" transform="translate(108.61 -97.32)" style="fill:#c18666"/><path d="M374 510.56s-.15-6.48 5.29-6.26a5.63 5.63 0 0 1 5.74 5.14s6.26-3.05 8.13 2.09a5 5 0 0 1-2.91 6.78s4.1 4.1.37 7.16-7.28-1.12-7.28-1.12-2.71 5.81-6.81 3.88-2.53-7.09-2.53-7.09-6.71-1.19-6.63-6.18 6.63-4.4 6.63-4.4Zm174.34-3.67s3.1-5.69 7.71-2.78a5.64 5.64 0 0 1 2.41 7.32s6.95.47 6 5.86a5 5 0 0 1-5.91 4.43s1.51 5.59-3.24 6.38-5.75-4.6-5.75-4.6-5.25 3.69-7.84 0 1.34-7.41 1.34-7.41-5.22-4.37-2.66-8.67 7.94-.53 7.94-.53Z" transform="translate(108.61 -97.32)" style="fill:#fcc4b6"/><path class="cls-16" d="M29.28 101c8.65 0 44.87 19.08 46.58 65.29s0 142.8 0 142.8M103.52 101c13.71.29 48.59 17.29 49.49 66.18s0 140.13 0 140.13M177.45 101c22.07-.6 52 23.55 51.88 65.59-.14 45.61 0 137.14 0 137.14M255 101c22.86 0 44.44 30.11 45.38 63.2s1.28 140.72 1.28 140.72M327.69 101c30.56-.6 54 29.81 54 61v87.66" transform="translate(108.61 -97.32)"/><path class="cls-16" d="M489.39 191.8v22.81"/><path class="cls-16" d="M404.48 101c20.58-.75 49 23.42 49.79 58.45s0 141.09 0 141.09M490.8 100.7c12.67.3 44.05 22.21 45.25 61s-.53 149.21-.53 149.21M555.49 101c12.22 0 48.9 18.33 53.81 78.41 4.17 50.87 2.39 125.51 2.39 125.51" transform="translate(108.61 -97.32)"/></svg>