<svg version="1.1" id="Layer_1" xmlns="http://www.w3.org/2000/svg" x="0" y="0" viewBox="0 0 617.4 602.2" style="enable-background:new 0 0 617.4 602.2" xml:space="preserve"><style>.st1{fill:#6e6583}.st2{fill:#f07e8e}.st3{display:none;fill:#b05f9a}.st4{fill:#f9caa2}.st5{fill:#71698c}.st6{fill:#827098}</style><path style="fill:#d8648e" d="m23.4 249 14.7-6.6L81 311.1 79.5 585 6.7 528.9V269.2z"/><path class="st1" d="M73.5 565.7c3.8.2 20.8-7 25.2-7 112.7 0 463.8-4.5 467.5-2 4.5 3 14.6 13.1 14.6 13.1l7.2 25.6c.1.3.1.7.1 1 0 2.1-1.7 3.8-3.7 3.8-52.2.2-500 2-508.5 2-9.1 0-16.2-.5-20.2-3.5s-50.9-52.4-54.5-59c-2.2-4.1-1.2-14.1.6-23.1.8-3.9 2.5-9.2 5-6.1l8 7.9s-1-106.6 3.4-120.3c4.5-13.6 20.3-20.7 31.5 0s7.6 154.1 7.6 154.1 11.6 13.1 16.2 13.5z"/><path class="st2" d="M561.6 559.6c0 3.7-3 6.7-6.7 6.7H76.7c-4.3 0-7.7-3.5-7.7-7.7l1-236.4 490 6.1 1.6 231.3zM477.5 97.9l.9 140.1-91.9.7V98.3z"/><path class="st4" d="M105.1 380.9h123v153.4h-123z"/><path class="st5" d="M227.7 377.7H105.5c-2.4 0-4.4 2-4.4 4.4v152.3c0 2.4 2 4.4 4.4 4.4h122.2c2.4 0 4.4-2 4.4-4.4V382.1c-.1-2.4-2-4.4-4.4-4.4zM109 416.2c-.5 0-1-.4-1-.9v-29.6c0-.6.4-1 1-1h30.5c.6 0 1 .4 1 1v29.5c0 .6-.4 1-1 1H109zm76.7 78.6c0 .5-.4 1-1 1h-36.4c-.6 0-1-.4-1-1v-29.3c0-.6.4-1 1-1h36.3c.6 0 1 .4 1 1l.1 29.3zm-37.3 7.9h36.3c.6 0 1 .4 1 1v27.1c0 .6-.4 1-1 1h-36.2c-.6 0-1-.4-1-1v-27.1c0-.6.4-1 .9-1zm-.9-78.5c0-.5.4-1 1-1h36.3c.6 0 1 .4 1 1v32.3c0 .6-.4 1-1 1h-36.2c-.6 0-1-.4-1-1v-32.3h-.1zm38.2-9c0 .5-.4 1-1 1h-36.3c-.6 0-1-.4-1-1v-29.6c0-.6.4-1 1-1h36.3c.6 0 1 .4 1 1v29.6zm7.9 42.3c-.5 0-1-.4-1-1v-32.4c0-.6.4-1 1-1h30.5c.6 0 1 .4 1 1v32.3c0 .6-.4 1-1 1l-30.5.1zm-.9 8c0-.5.4-1 1-1h30.5c.6 0 1 .4 1 1v29.3c0 .6-.4 1-1 1h-30.4c-.6 0-1-.4-1-1v-29.3h-.1zm-53.2-1c.5 0 1 .4 1 1v29.3c0 .6-.4 1-1 1H109c-.6 0-1-.4-1-1v-29.3c0-.6.4-1 1-1h30.5zm1-8c0 .5-.4 1-1 1H109c-.6 0-1-.4-1-1v-32.4c0-.6.4-1 1-1h30.5c.6 0 1 .4 1 1v32.4zm53.1-71.8h30.5c.6 0 1 .4 1 1v29.6c0 .6-.4 1-1 1h-30.4c-.6 0-1-.4-1-1v-29.6c0-.6.4-1 .9-1zm30.5 118.1c.5 0 1 .4 1 .9v27.2c0 .6-.4 1-1 1h-30.5c-.6 0-1-.4-1-1v-27.1c0-.6.4-1 1-1h30.5zm-83.6 28c0 .5-.4.9-1 1H109c-.6 0-1-.4-1-1v-27.1c0-.6.4-1 1-1h30.4c.6 0 1 .4 1 1l.1 27.1z"/><path class="st4" d="M409.1 380.9h123v153.4h-123z"/><path class="st5" d="M409.6 377.7c-2.4 0-4.4 2-4.4 4.4v152.3c0 2.4 2 4.4 4.4 4.4h122.2c2.4 0 4.4-2 4.4-4.4V382.1c0-2.4-2-4.4-4.4-4.4H409.6zm118.6 38.6h-30.4c-.6 0-1-.4-1-1v-29.6c0-.6.4-1 1-1h30.4c.6 0 1 .4 1 1v29.6c0 .5-.4 1-1 1zm-76.6 78.5v-29.3c0-.6.4-1 1-1h36.3c.6 0 1 .4 1 1v29.3c0 .6-.4 1-1 1h-36.3c-.6 0-1-.5-1-1zm38.2 8.9v27.2c0 .6-.4 1-1 1h-36.3c-.6 0-1-.4-1-1v-27.1c0-.6.4-1 1-1h36.3c.6-.1 1 .4 1 .9zm-1-80.5c.5 0 1 .4 1 1v32.4c0 .6-.4 1-1 1h-36.3c-.6 0-1-.4-1-1v-32.4c0-.6.4-1 1-1h36.3zm-36.2-7c-.5 0-1-.4-1-.9v-29.6c0-.6.4-1 1-1h36.3c.6 0 1 .4 1 1v29.5c0 .6-.4 1-1 1h-36.3zm-8 40.3c0 .5-.4 1-1 1h-30.5c-.6 0-1-.4-1-1v-32.4c0-.6.4-1 1-1h30.5c.6 0 1 .4 1 1v32.4zm-1 8c.5 0 1 .4 1 1v29.4c0 .6-.4 1-1 1h-30.5c-.6 0-1-.4-1-1v-29.3c0-.6.4-1 1-1l30.5-.1zm53.2 1c0-.5.4-1 1-1h30.4c.6 0 1 .4 1 1v29.4c0 .6-.4 1-1 1h-30.5c-.6 0-1-.4-1-1l.1-29.4zm1-8c-.5 0-1-.4-1-1v-32.4c0-.6.4-1 1-1h30.4c.6 0 1 .4 1 1v32.4c0 .6-.4 1-1 1h-30.4zm-53.2-71.8v29.6c0 .6-.4 1-1 1h-30.5c-.6 0-1-.4-1-1v-29.6c0-.6.4-1 1-1h30.5c.6 0 1 .4 1 1zm-31.4 117h30.5c.6 0 1 .4 1 1v27.1c0 .6-.4 1-1 1h-30.4c-.6 0-1-.4-1-1v-27.1c-.1-.6.3-1 .9-1zm83.6 28.1v-27.1c0-.6.4-1 1-1h30.4c.6 0 1 .4 1 1v27.1c0 .6-.4 1-1 1h-30.4c-.6 0-1-.5-1-1z"/><circle class="st4" cx="431.4" cy="158.1" r="24.9"/><path class="st1" d="M401.4 158.1c0 16.6 13.4 30 30 30s30-13.4 30-30-13.4-30-30-30-30 13.4-30 30zm7.6 0c0-12.4 10-22.4 22.4-22.4 12.4 0 22.4 10 22.4 22.4s-10 22.4-22.4 22.4c-12.3 0-22.4-10-22.4-22.4z"/><path class="st1" d="m429.3 164.3-8.1-7.8-.1-.1c-1.2-1.2-1.1-3.1 0-4.2 1.2-1.2 3.1-1.1 4.2 0l5.9 5.7 9.3-10c1.1-1.2 3-1.3 4.2-.2s1.3 3 .2 4.2l-11.4 12.2c-.5.6-1.3 1-2.1 1h-.1c-.7.1-1.4-.3-2-.8z"/><path class="st6" d="m483.7 103-.4-12.1-7.8-2.6-38-87.4s-5.2-2.5-9 .8-40.6 86.5-40.6 86.5c-4.7.7-7.4 1.5-7.7 3-.2 2.9 0 5.9.5 8.8.5 2.7 2.9 2.9 5.2 3.2s90.2.6 90.2.6l7.6-.8z"/><path class="st1" d="m434.8 5.1 35.8 80.1c-6.5-.9-15.1-1.8-24.7-2.1-1.7-.1-3 1.2-3.1 2.9-.1 1.7 1.2 3 2.9 3.1 11.8.4 23.6 1.7 35.2 3.8.7 1.9 1 6.1.3 7.4-2.1.6-9.9.2-16.1-.6h-.1c-1.6-.2-3.1 1-3.3 2.7-.2 1.6 1 3.1 2.7 3.3 4.2.6 8.4.9 12.6 1 6.5 0 7.8-1.2 8.3-1.8 3.9-3.6 2.4-13.7-.1-16.6-.4-.5-1-.9-1.7-1-.2-.1-2.3-.5-5.8-1.1 0-.1-.1-.3-.1-.4L440.3 2.7c-.7-1.5-2.5-2.2-4-1.5-1.5.6-2.2 2.4-1.5 3.9zM390.3 83.9c-1.7 0-3 1.3-3 3s1.3 3 3 3l20.3.3c1.7 0 3-1.3 3-3s-1.3-3-3-3l-20.3-.3z"/><path d="M479.3 233.3c.3-.1.7-.2 1-.2h-1.1l.1.2z" style="fill:none"/><path class="st6" d="m517.1 331 46.5-3.5-39.9-90.3-43-1.9h-454L16 245S5.6 263.6 3 266.9s-.4 5.5 2 7.4c1.8 1.6 4.5 1.4 6-.4 1.5-1.5 19.8-25.7 19.8-25.7l36.8 83.9 368.6-1.3 80.9.2z"/><path class="st5" d="M391.4 235.3h-6.7l41.2 95.9c.5 1.1 1.5 1.8 2.7 1.9l41.4 2.1H474.3l4.5.1c5.5.1 12.6.2 20.5.2 5.4 0 11.1-.1 16.7-.2 2.2 0 4.3-.1 6.5-.2 5.2-.2 10.4-.4 15.1-.8l27.2-2.2c.3 0 .7-.1 1-.2 1.6-.7 2.3-2.5 1.6-4l-40.1-91.8c-.5-1.1-1.5-1.8-2.7-1.8l-44.2-1c-.3 0-.7.1-1 .2l-.1-.2c-.6 0-1.2.1-1.7.3-2.2.9-3.2 3.5-2.3 5.7l38.2 90c-14.5.3-28.8 0-37.3-.1l-39.8-93.7h-6.5l39.8 93.6-38.8-1.9-39.5-91.9zm90.4 3.9 40.6.9 37.6 86.1-22.9 1.9c-5.4.4-11.2.7-17.2.9l-38.1-89.8zM343.3 235.3h-6.5l40.6 95.7h6.5zM297.6 235.3H291l40.8 95.9 6.5-.1zM254.8 235.3h-6.5l40.8 96h6.5zM209.5 235.3h-6.6l40.9 96.2h6.5zM164.3 235.3h-6.5l40.9 96.3h6.5zM113.2 235.3l41 96.5h6.5l-40.9-96.5z"/><path class="st1" d="M11.1 246c-1.1 1.2-1.1 3.1.2 4.2 1.2 1.1 3.1 1.1 4.2-.2l8.6-9.3 40.7 89.5c.7 1.5 2.5 2.2 4 1.5s2.2-2.5 1.5-4L29.5 238c10.2-.3 27.1-.2 41.4.1l39.9 93.8h6.5l-39.8-93.6c9.6.3 17 .7 18.9 1.1.2 0 .4.1.6.1 1.4 0 2.7-1 3-2.4.3-1.6-.7-3.2-2.3-3.5-6.4-1.3-55.5-2.2-72-1.3-1 .2-1.9.6-2.7 1.2L11.1 246z"/><path d="M282.4 472.7s-19.1 44.4 9 46c28.1 1.7 40.5-21.1 39.7-44.2l-48.7-1.8z" style="fill:#f7a7b6"/><path d="M306.3 474.6s-5.6 9.5-6.8 23.1" style="fill:none;stroke:#f07e8e;stroke-width:6;stroke-linecap:round;stroke-miterlimit:10"/><path d="M253.8 454.3s13.2 20.6 60.7 20.2 76.4-20.2 76.4-20.2" style="fill:none;stroke:#6e6583;stroke-width:7;stroke-linecap:round;stroke-miterlimit:10"/><circle class="st1" cx="279.4" cy="436.4" r="6.8"/><circle class="st1" cx="366.1" cy="436.4" r="6.8"/></svg>