<svg id="Layer_1" data-name="Layer 1" xmlns="http://www.w3.org/2000/svg" viewBox="0 0 617.41 602.22"><defs><style>.cls-2{fill:#b05f9a}.cls-3{fill:#f8cbad}.cls-4{fill:#feefe7}</style></defs><path style="fill:#e9ac9b" d="M581.51 269.17v259.77l-72.78 56.1-1.51-273.92 42.96-68.73 14.65 6.57 16.68 20.21z"/><path class="cls-2" d="M517.76 672.51s-3.54-133.42 7.58-154.14 27-13.65 31.45 0 3.42 120.28 3.42 120.28l8-7.86c2.52-3.13 4.17 2.12 5 6.06 1.8 9 2.74 19.06.56 23.13-3.54 6.57-50.44 56-54.48 59s-11.12 3.53-20.22 3.53c-8.57 0-456.38-1.79-508.53-2a3.75 3.75 0 0 1-3.6-4.77l7.25-25.57s10.1-10.08 14.64-13.11c3.74-2.49 354.79 2 467.49 2 4.5 0 21.41 7.22 25.25 7 4.56-.39 16.19-13.55 16.19-13.55Z" transform="translate(13.21 -120.32)"/><path class="cls-3" d="m13.43 679.9 1.66-231.28 490-6.06 1 236.37a7.7 7.7 0 0 1-7.7 7.73H20.15a6.72 6.72 0 0 1-6.72-6.76Z" transform="translate(13.21 -120.32)"/><path class="cls-3" d="M201.74 98.35v140.31l-91.88-.68.9-140.08 90.98.45z"/><path class="cls-2" d="M312.32 577.08c-2.32-1.41-6.52 3-15.57 2.35-6.51-.47-10.49-8.28-20.78-11.35-12.41-3.72-19 7.83-19 7.83a11.39 11.39 0 0 0-.67 1.8 10.57 10.57 0 0 0-.55-1.33S249 565 236.11 568.69c-10.67 3-14.81 10.7-21.56 11.16-9.4.64-13.75-3.7-16.16-2.31s.48 11.54 11.33 18.7S239 607 250.48 598.09a16.94 16.94 0 0 0 6-8.43 17.26 17.26 0 0 0 5.67 8.33c11.08 9 28.82 5.41 39.28-1.88s13.21-17.62 10.89-19.03Z" transform="translate(13.21 -120.32)"/><ellipse class="cls-2" cx="314.44" cy="435.93" rx="9.95" ry="10.08"/><ellipse class="cls-2" cx="221.72" cy="436.16" rx="9.95" ry="10.08"/><path class="cls-4" d="M360.1 380.92h123.01v153.42H360.1z"/><path class="cls-2" d="M343 502.39v152.33a4.38 4.38 0 0 0 4.38 4.38h122.17a4.39 4.39 0 0 0 4.39-4.38V502.39a4.39 4.39 0 0 0-4.39-4.38H347.36a4.38 4.38 0 0 0-4.36 4.38Zm123 34.15h-30.46a1 1 0 0 1-1-1V506a1 1 0 0 1 1-1H466a1 1 0 0 1 1 1v29.6a1 1 0 0 1-1 .94Zm-76.6 78.57V585.8a1 1 0 0 1 1-1h36.28a1 1 0 0 1 1 1v29.31a1 1 0 0 1-1 1h-36.35a1 1 0 0 1-.96-1Zm38.18 8.89v27.1a1 1 0 0 1-1 1h-36.25a1 1 0 0 1-1-1V624a1 1 0 0 1 1-1h36.28a1 1 0 0 1 .97 1Zm0-79.54v32.37a1 1 0 0 1-1 1h-36.25a1 1 0 0 1-1-1V544.5a1 1 0 0 1 1-1h36.28a1 1 0 0 1 .97 1Zm-38.21-8.93V506a1 1 0 0 1 1-1h36.28a1 1 0 0 1 1 1v29.6a1 1 0 0 1-1 1h-36.32a1 1 0 0 1-.96-1.03Zm-8 42.26h-30.43a1 1 0 0 1-1-1V544.5a1 1 0 0 1 1-1h30.47a1 1 0 0 1 1 1v32.37a1 1 0 0 1-1 .96Zm1 8v29.31a1 1 0 0 1-1 1h-30.43a1 1 0 0 1-1-1v-29.3a1 1 0 0 1 1-1h30.47a1 1 0 0 1 .96 1Zm53.17-1H466a1 1 0 0 1 1 1v29.31a1 1 0 0 1-1 1h-30.46a1 1 0 0 1-1-1v-29.3a1 1 0 0 1 1-.97Zm-1-8V544.5a1 1 0 0 1 1-1H466a1 1 0 0 1 1 1v32.37a1 1 0 0 1-1 1h-30.46a1 1 0 0 1-.96-1ZM382.37 506v29.6a1 1 0 0 1-1 1h-30.43a1 1 0 0 1-1-1V506a1 1 0 0 1 1-1h30.47a1 1 0 0 1 .96 1Zm-31.43 117.1h30.47a1 1 0 0 1 1 1v27.1a1 1 0 0 1-1 1h-30.47a1 1 0 0 1-1-1V624a1 1 0 0 1 1-.93Zm83.64 28.07V624a1 1 0 0 1 1-1H466a1 1 0 0 1 1 1v27.1a1 1 0 0 1-1 1h-30.46a1 1 0 0 1-.96-.96Z" transform="translate(13.21 -120.32)"/><path class="cls-4" d="M56.12 380.92h123.01v153.42H56.12z"/><path class="cls-2" d="M165.46 498H43.26a4.38 4.38 0 0 0-4.38 4.38v152.34a4.38 4.38 0 0 0 4.38 4.38h122.2a4.38 4.38 0 0 0 4.38-4.38V502.39a4.38 4.38 0 0 0-4.38-4.39ZM45.88 535.57V506a1 1 0 0 1 1-1h30.4a1 1 0 0 1 1 1v29.6a1 1 0 0 1-1 1H46.84a1 1 0 0 1-.96-1.03Zm76.6 80.5H86.2a1 1 0 0 1-1-1V585.8a1 1 0 0 1 1-1h36.28a1 1 0 0 1 1 1v29.31a1 1 0 0 1-1 .96Zm-36.28 7h36.28a1 1 0 0 1 1 1v27.1a1 1 0 0 1-1 1H86.2a1 1 0 0 1-1-1V624a1 1 0 0 1 1-.93Zm0-79.53h36.28a1 1 0 0 1 1 1v32.37a1 1 0 0 1-1 1H86.2a1 1 0 0 1-1-1V544.5a1 1 0 0 1 1-.96Zm36.28-7H86.2a1 1 0 0 1-1-1V506a1 1 0 0 1 1-1h36.28a1 1 0 0 1 1 1v29.6a1 1 0 0 1-1 .94Zm8 40.33V544.5a1 1 0 0 1 1-1h30.46a1 1 0 0 1 1 1v32.37a1 1 0 0 1-1 1h-30.53a1 1 0 0 1-.96-1Zm1 8h30.46a1 1 0 0 1 1 1v29.31a1 1 0 0 1-1 1h-30.53a1 1 0 0 1-1-1V585.8a1 1 0 0 1 1-.97Zm-53.17 1v29.31a1 1 0 0 1-1 1H46.84a1 1 0 0 1-1-1V585.8a1 1 0 0 1 1-1h30.44a1 1 0 0 1 .96 1Zm-1-8H46.84a1 1 0 0 1-1-1V544.5a1 1 0 0 1 1-1h30.44a1 1 0 0 1 1 1v32.37a1 1 0 0 1-1 .96Zm54.1-72.87h30.46a1 1 0 0 1 1 1v29.6a1 1 0 0 1-1 1h-30.46a1 1 0 0 1-1-1V506a1 1 0 0 1 1-1Zm31.43 119v27.1a1 1 0 0 1-1 1h-30.43a1 1 0 0 1-1-1V624a1 1 0 0 1 1-1h30.46a1 1 0 0 1 .97 1Zm-85.56 28.1H46.84a1 1 0 0 1-1-1V624a1 1 0 0 1 1-1h30.44a1 1 0 0 1 1 1v27.1a1 1 0 0 1-1 1Z" transform="translate(13.21 -120.32)"/><circle class="cls-4" cx="156.84" cy="158.12" r="24.88"/><path class="cls-2" d="M143.63 248.4a30 30 0 1 0 30 30 30 30 0 0 0-30-30Zm0 52.42A22.38 22.38 0 1 1 166 278.44a22.38 22.38 0 0 1-22.37 22.38Z" transform="translate(13.21 -120.32)"/><path class="cls-2" d="M143.63 285.49h-.08a3 3 0 0 1-2.12-1l-11.37-12.25a3 3 0 0 1 4.4-4.08l9.29 10 5.93-5.7a3 3 0 1 1 4.16 4.32l-8.13 7.82a3 3 0 0 1-2.08.89Z" transform="translate(13.21 -120.32)"/><path d="M98.92 224.17s88-.32 90.25-.64 4.68-.53 5.17-3.22a38.65 38.65 0 0 0 .49-8.78c-.24-1.46-3-2.29-7.68-3 0 0-36.83-83.18-40.61-86.47s-9-.79-9-.79l-38 87.38-7.8 2.56-.37 12.07Z" transform="translate(13.21 -120.32)" style="fill:#c174ac"/><path class="cls-2" d="M138.78 121.49a3 3 0 0 0-4 1.51l-37.21 83.25a2.91 2.91 0 0 0-.12.39c-3.49.58-5.58 1-5.81 1.06a3 3 0 0 0-1.66 1c-2.5 2.93-4 13-.15 16.6.56.52 1.89 1.76 8.35 1.76a100 100 0 0 0 12.57-1 3 3 0 1 0-.76-5.95c-6.29.81-14 1.23-16.14.63-.69-1.34-.36-5.5.34-7.44a243.34 243.34 0 0 1 35.18-3.84 3 3 0 0 0-.21-6c-9.6.33-18.18 1.23-24.72 2.11l35.85-80.13a3 3 0 0 0-1.51-3.95ZM184.81 204.19l-20.27.28a3 3 0 0 0 0 6l20.27-.28a3 3 0 1 0-.09-6Z" transform="translate(13.21 -120.32)"/><path d="M95.88 353.42h-1.12a3.3 3.3 0 0 1 1 .17Z" transform="translate(13.21 -120.32)" style="fill:none"/><path d="m138.76 451.13 368.62 1.29 36.81-83.88s18.27 24.25 19.75 25.72a4.27 4.27 0 0 0 6.07.37c2.4-1.84 4.61-4.05 2-7.36S559 365.35 559 365.35l-10.68-9.75H94.37l-43 1.93-39.91 90.3 46.5 3.49Z" transform="translate(13.21 -120.32)" style="fill:#c376a6"/><path class="cls-2" d="m144.25 447.26-38.79 1.94 39.76-93.61h-6.52l-39.81 93.74c-8.45.16-22.75.39-37.28.12l38.24-90a4.31 4.31 0 0 0-4-6l-.07.17a3.3 3.3 0 0 0-1-.17l-44.19.95a3.07 3.07 0 0 0-2.74 1.84L7.74 448.06a3.07 3.07 0 0 0 2.57 4.29l27.15 2.21c4.76.37 9.89.62 15.12.8q3.21.11 6.45.18c5.68.12 11.37.18 16.74.18 7.86 0 15-.1 20.49-.2l4.46-.08h4.36l41.39-2.07a3.08 3.08 0 0 0 2.67-1.85l41.21-95.86h-6.69Zm-89.09 2c-6-.18-11.84-.45-17.21-.86l-22.86-1.86 37.58-86.11 40.59-.87Z" transform="translate(13.21 -120.32)"/><path class="cls-2" d="m204.32 330.99 6.51.03 40.67-95.74h-6.52l-40.66 95.71zM249.97 331.15l6.51.03 40.73-95.9h-6.52l-40.72 95.87zM292.67 331.3l6.51.02 40.8-96.04h-6.52l-40.79 96.02zM337.93 331.46l6.51.02 40.87-96.2h-6.52l-40.86 96.18zM383.03 331.62l6.51.02 40.93-96.36h-6.52l-40.92 96.34zM468.5 235.28l-40.99 96.49 6.51.03 41-96.52h-6.52z"/><path class="cls-2" d="m563.89 366.39-11.72-12.64a6.28 6.28 0 0 0-2.74-1.24c-16.5-.93-65.63-.05-72 1.29a3 3 0 0 0 .62 5.94 3.34 3.34 0 0 0 .62-.06c1.88-.4 9.34-.78 18.9-1.07l-39.77 93.64h6.51l39.85-93.83c14.32-.34 31.2-.44 41.38-.1l-40.87 89.84a3 3 0 1 0 5.47 2.47l40.73-89.51 8.64 9.33a3 3 0 1 0 4.4-4.08Z" transform="translate(13.21 -120.32)"/><path d="M590.78 652.93a33.16 33.16 0 0 0-6.81 8.76V651l-9.43 1v7.81c-4.61-3.94-12-8.39-16.51-1.34-4.64 7.29 4.82 15.43 10.91 17.79a81.78 81.78 0 0 0 11 2.84s1.21-.24 3.11-.83c4.5-1.42 12.9-4.87 18.46-12.11 7.96-10.36-3.78-19.22-10.73-13.23Z" transform="translate(13.21 -120.32)" style="fill:#71c1a9"/><path d="M561.86 623.73s-6.09 10.62-2.36 19.17 14.35 15.62 26 11.49 12.28-15.72 11.79-20.14c0 0 6.86-5.5 4.12-13s-10.22-5.41-10.22-5.41A8.47 8.47 0 0 0 584 609c-5.5-.88-8.55 4.33-8.55 4.33s-5-5.11-10.71-1.57c-4.9 3.01-3.96 9.24-2.88 11.97Z" transform="translate(13.21 -120.32)" style="fill:#cba9d0"/></svg>