<svg id="Layer_1" data-name="Layer 1" xmlns="http://www.w3.org/2000/svg" viewBox="0 0 217.39 239.62"><defs><style>.cls-1{fill:#feeb98}</style></defs><ellipse class="cls-1" cx="46.07" cy="137.92" rx="46.07" ry="46.99"/><ellipse class="cls-1" cx="176.75" cy="111.74" rx="40.64" ry="41.46"/><ellipse class="cls-1" cx="104.61" cy="62.39" rx="63.54" ry="62.39"/><path d="M360.62 397.62c-3.35-2.46-18.32 6.25-28.38 12.42-7.17 4.39-22.27 14.94-31.36 21.73 0-27.74.08-52.21.08-54.84 0-6.35-1.12-23.33-6.48-23.55-3.35-.14-6 8.49-6.48 20.33-.17 4.61-.77 42.89-1.16 78.41-6.66-4.21-20.55-12.95-27.43-17.21-.74-3.38-1.27-5.92-1.47-7.11-1.1-6.55-5.49-18.05-8.77-15.66-2 1.43-1.79 8-.89 15.55-10.11-6.69-26.94-16.39-29.86-13.69-4 3.64 3.52 9.85 9.35 13.89 5.27 3.65 48.89 31.24 58.93 38.24-.23 25.8-.29 47.25.1 48.6.7 2.4 6.19 5.38 10.23 4.73a4.55 4.55 0 0 0 3.71-4.53c0-7.74.07-39 .12-69.87 10.55-7.92 42.82-30 47.92-33 5.8-3.46 15.22-11.98 11.84-14.44Z" transform="translate(-188.86 -279.9)" style="fill:#b9d799"/></svg>