<svg id="Layer_1" data-name="Layer 1" xmlns="http://www.w3.org/2000/svg" viewBox="0 0 178.04 329.49"><defs><style>.cls-1{fill:#fcce9a;}.cls-2{fill:#d69d77;}</style></defs><path class="cls-1" d="M225.25,270.94c-34.38,49.74,2.34,154.9,27.71,194.63s58.18,44.61,85.42,9.09c33.1-43.14,66.48-143.3,43.11-194.37S255.75,226.82,225.25,270.94Z" transform="translate(-211.27 -239.78)"/><path class="cls-2" d="M302,303.93c-.61,4.81-12.76,161-13.78,193.4s-2.55,67.36-.51,69.91,14.8,3.57,17.35-2.29.76-98,2.8-142.88,5.72-96.87,5.83-106.4C313.87,297.3,304,287.86,302,303.93Z" transform="translate(-211.27 -239.78)"/><path class="cls-2" d="M360.4,333.53c-.66-2.31-15,4.59-23.47,10S305,364.66,305,364.66l-1,13.52s31.63-21.94,39-27.3S361.42,337.1,360.4,333.53Z" transform="translate(-211.27 -239.78)"/><path class="cls-2" d="M351,404.72c-2-1.23-14.54,12.75-21.68,21.68s-27.56,37.25-27.56,37.25L301,479.73s34.45-45.67,38.79-51.29S355.56,407.52,351,404.72Z" transform="translate(-211.27 -239.78)"/><path class="cls-2" d="M245.33,327.92c-3,2.45,3.58,19.64,6.64,26.79s38.78,75.78,42.61,79.6l3.06-16.84s-30.62-57.15-34.19-64S249.42,324.6,245.33,327.92Z" transform="translate(-211.27 -239.78)"/><path class="cls-2" d="M269.32,329.45c-3.13-.78-5.62,8.42-6.13,12.5s-1.78,19.14-1.78,19.14l7.4,11.73s3.06-20.15,3.57-25.51S274.42,330.72,269.32,329.45Z" transform="translate(-211.27 -239.78)"/></svg>