<svg data-name="Layer 1" xmlns="http://www.w3.org/2000/svg" viewBox="0 0 179.51 226.58"><path d="M334.81 441.32s11.47 1.61 19.69-6.43a28 28 0 0 0 8.43-17.83s16.66-3.14 20.87-17.84-1.08-24.49-1.08-24.49a31.5 31.5 0 0 0 1.3-24.24c-4.76-13.31-14.49-16.33-14.49-16.33s1.08-11.17-5.08-19.34-13.95-8.41-13.95-8.41.54-12.44-5.74-19.72-17.3-5.65-17.3-5.65-5.3-12.19-18.17-13.94a21.41 21.41 0 0 0-19.68 7.53s-12.54-12.31-28.87 1.13c-14.79 12.17-14 26.75-14 26.75s-17 4.78-23.46 18.72 1.4 26.25 1.4 26.25-18.38 11-18.38 36.17S236.29 413 236.29 413s-2.48 18 7 26.63 23.15-.51 23.15-.51 3.67 13.44 14.6 16.21 19-8.67 19-8.67 7.46 8.69 21.09 6.41c9.03-1.47 13.68-11.75 13.68-11.75Z" transform="translate(-206.34 -266.87)" style="fill:#f1d8ea"/><path d="M233.77 377.72c2-2.46 11.06-1.69 17.41-.8-4.5-4.51-8.36-8.49-9.75-10.1-3.93-4.51-8.73-10.29-6.86-13.18 1.76-2.73 11.87 3.25 17.87 7.95 4.37 3.41 27.1 26.4 39.16 38.66.3-25.87.75-54.2 1.66-57.32 1.46-5.06 3-6.35 4.8-5.78 3.89 1.27 5.73 8.19 6.53 17.09.65 7.19.92 50 1 71.39 3.87-4.9 20.7-17 23.33-19.45a40.77 40.77 0 0 1-.06-7.52c.66-7.22 4.4-15.29 9.87-15.77 3.91-.34 2.84 7.4 1.76 12.71 4.55-4.12 8.46-7.56 10.51-9.1 4.8-3.61 10.67-4.57 8 2.05s-20.13 21.45-26.93 27.81c-5.28 4.95-19.06 17.28-26.41 24.2 0 6-.93 46.22-1.73 49.59s-10 4.57-10.67 1.68-2.54-33.1-2.14-53c.1-5 .2-13.31.3-23-7.87-7.74-20.28-19.89-25.37-24.57-.8-.73-1.66-1.53-2.56-2.39a52.84 52.84 0 0 1-15.72-1.22c-10.4-2.71-17.07-6.08-14-9.93Z" transform="translate(-206.34 -266.87)" style="fill:#dab3d5"/></svg>