<svg data-name="Layer 1" xmlns="http://www.w3.org/2000/svg" viewBox="0 0 136.14 163.48"><path d="M781.62 542s8.68-14.81 22.47-13.79S826.3 542 826.3 542s14-5.36 21.19 2.3 8.42 14.8 8.42 14.8 14.81 3.32 13.79 16.09-10.47 21.19-10.47 21.19 12.26 8.17 6.39 20.43-15.07 8.17-15.07 8.17 3.41 9.19-6 18.65-21.3 3.3-21.3 3.3-5.7 10.81-12.34 11.58-10.38-4.68-10.38-4.68-11.74 5.1-20.94.51-7.4-12-7.4-12-13.79 6.89-19.91.76-2-15.83-2-15.83-12.76 0-14.81-10 3.07-15.07 3.07-15.07-6.85-10.49-4.28-22c3.6-16.08 16.53-17.87 16.53-17.87s-.35-8.57 10.07-15.51c12.67-8.44 20.76-4.82 20.76-4.82Z" transform="translate(-733.61 -528.12)" style="fill:#88b9e2"/><path d="M801 691.05c14.46 5.92 3.56-38.39 6-41.6-1.63-.6 41.85-60.54 26.81-51.71-.47-.11-7.25 14.44-7.88 12.68l.22-6.74c-4.2-6.12-4.45 16-7.35 17.66l-10.35 16.91c-2.7 1.85 1.9-38 2-39.52.36-4.65 26.84-26.79 18.49-28.66-3.67 1.94-13.3 19.89-17.58 19.14a.68.68 0 0 1-.52-.7c.13-4.84.43-16.52-1.18-20.57-7.42-13.71-5.54 54.28-9.5 53.43-1.4.31-20-60.4-23.31-50l10.3 30.17c-.95 4-23.89-21.89-24.84-16.37 17.47 18.86 28.28 18.83 36.62 48 1.44 9.83-4.26 50.42 2.07 57.88Z" transform="translate(-733.61 -528.12)" style="fill:#5590d1"/></svg>