<svg id="Layer_1" data-name="Layer 1" xmlns="http://www.w3.org/2000/svg" viewBox="0 0 306.41 359.15"><defs><style>.cls-1{fill:#cae2be;}.cls-2{fill:#9cc993;}</style></defs><path class="cls-1" d="M234.28,501.39S214.7,504,200.67,491.08s-14.4-28.58-14.4-28.58-28.42-5-35.62-28.57,1.84-39.25,1.84-39.25a47.79,47.79,0,0,1-2.21-38.84C158.4,334.51,175,329.68,175,329.68s-1.84-17.91,8.68-31S207.5,285.2,207.5,285.2s-.92-19.92,9.79-31.6,29.53-9,29.53-9,9.05-19.52,31-22.34,33.6,12.07,33.6,12.07,21.42-19.72,49.29,1.82C386,255.6,384.53,279,384.53,279s29,7.65,40.06,30-2.4,42.06-2.4,42.06,31.38,17.71,31.38,58-51.13,47.09-51.13,47.09,4.24,28.78-12,42.67-39.5-.81-39.5-.81-6.28,21.54-24.93,26S293.53,510,293.53,510s-12.74,13.93-36,10.26C242.21,517.85,234.28,501.39,234.28,501.39Z" transform="translate(-147.16 -221.85)"/><path class="cls-2" d="M202.24,391.22c3-4,16.87-2.76,26.55-1.31-6.86-7.39-12.75-13.92-14.87-16.55-6-7.4-13.31-16.88-10.46-21.61,2.69-4.48,18.11,5.33,27.26,13,6.66,5.61,41.33,43.3,59.71,63.41.47-42.43,1.15-88.87,2.54-94,2.23-8.29,4.63-10.41,7.32-9.47,5.93,2.07,8.75,13.42,10,28,1,11.79,1.4,82,1.54,117.06,5.9-8,31.57-27.92,35.58-31.89a72,72,0,0,1-.1-12.33c1-11.85,6.71-25.07,15.05-25.86,6-.56,4.33,12.13,2.69,20.83,7-6.75,12.91-12.39,16-14.91,7.33-5.92,16.28-7.5,12.21,3.36s-30.72,35.13-41.09,45.59c-8.05,8.12-29.07,28.35-40.28,39.68,0,9.9-1.42,75.79-2.64,81.31S294,583.07,293,578.34s-3.87-54.28-3.26-86.85c.16-8.23.3-21.82.46-37.67-12-12.7-30.93-32.62-38.7-40.29-1.21-1.2-2.52-2.51-3.9-3.92-7.1.41-16.11.25-24-2C207.73,403.07,197.56,397.54,202.24,391.22Z" transform="translate(-147.16 -221.85)"/></svg>