<svg id="Layer_1" data-name="Layer 1" xmlns="http://www.w3.org/2000/svg" viewBox="0 0 155.52 243.16"><defs><style>.cls-1{fill:#91cdbd}</style></defs><ellipse class="cls-1" cx="32.07" cy="166.16" rx="21.81" ry="21.36"/><ellipse class="cls-1" cx="119.18" cy="111.29" rx="36.34" ry="36.61"/><ellipse class="cls-1" cx="61.73" cy="59.85" rx="61.73" ry="59.85"/><path d="M339.83 387.28c-3.26-2.36-11.77 3.68-22.67 14-5.93 5.58-17.44 17.44-27.72 27 0-26.62.06-60.43.06-63 0-6.09-1.08-22.38-6.29-22.59-3.26-.14-5.86 8.14-6.3 19.5-.17 4.43-.75 67.63-1.12 101.7-6-7.61-19-25.79-23.34-22.12-3.6 3 10.44 23.61 23.19 37.33-.23 24.76-.28 36.27.1 37.55.69 2.31 6 5.17 9.94 4.54a4.38 4.38 0 0 0 3.61-4.35c0-7.42.06-37.43.11-67 10.26-7.6 31.85-32.52 35.6-37 4.19-5.07 18.08-23.21 14.83-25.56Z" transform="translate(-219.8 -278.14)" style="fill:#71c1a9"/></svg>