<svg id="Layer_1" data-name="Layer 1" xmlns="http://www.w3.org/2000/svg" viewBox="0 0 224.25 211.7"><defs><style>.cls-2{fill:#e7e0e9}.cls-3{fill:#b1a4b6}.cls-4{fill:#f6b3ba}.cls-5{fill:#f0827a}.cls-6{fill:#fff}</style></defs><path d="M191.1 393.37s.25 105.79.48 109a11.26 11.26 0 0 0 4.07 7.66c3 2.5 16.45 15.3 20.2 16.4l3-3.94-1.91-109Z" transform="translate(-185.11 -316.35)" style="fill:#d0cad2"/><path class="cls-2" d="M213.13 412.29s-.48 104.19 0 108.5 1.92 6.23 6.47 6.71 176.76 1 180.35 0 4.55-3.36 4.55-5.75 1-113.29 1-113.29l-96.29-63Z" transform="translate(-185.11 -316.35)"/><path class="cls-3" d="M291.27 479.44a2 2 0 0 1-1.17-3.63c3-2.14 8-6.58 8.65-9.4.72-3-2.5-8.08-3.69-9.64a2 2 0 0 1 3.18-2.43c.58.77 5.7 7.65 4.39 13-1.26 5.17-9.29 11.05-10.2 11.7a2 2 0 0 1-1.16.4Z" transform="translate(-185.11 -316.35)"/><path class="cls-3" d="M322.57 471.58a2 2 0 0 1-1.42-.58c-3.41-3.42-11.93-5.24-19.74-2.24A2 2 0 1 1 300 465c8.6-3.3 18.92-1.94 24 3.15a2 2 0 0 1 0 2.83 2 2 0 0 1-1.43.6ZM342.91 435.8c-3.09.23-6.2 4.8-5.76 10.37.38 4.76 3.45 8.57 6.53 8.57 4.19 0 6.73-4.21 6.53-9.47-.21-6.27-3.84-9.73-7.3-9.47ZM280.16 433.9c-3.09-.17-6.76 4-7 9.55-.23 4.77 2.34 8.94 5.39 9.34 4.16.53 7.22-3.33 7.68-8.58.52-6.21-2.61-10.13-6.07-10.31Z" transform="translate(-185.11 -316.35)"/><ellipse class="cls-4" cx="69.23" cy="147.76" rx="11.94" ry="12.35"/><ellipse class="cls-4" cx="180.17" cy="153.73" rx="11.94" ry="12.35"/><path class="cls-5" d="M306.6 352.86a5.94 5.94 0 0 1 6.7-.16c16.67 10.74 89 57.36 92.19 58.64 3.56 1.43 5.48-1.44 2.12-5.51s-22.27-21.42-25.15-24.72S292.17 323.44 290 322a6.43 6.43 0 0 0-7.4-.24c-2.42 1.68-94.15 62.75-95.82 64.19a6.16 6.16 0 0 0-.24 8.18c2.39 2.6 21.31 21.28 23.23 22.71s4.07 1.44 7.19-.36c2.76-1.59 73.42-52.04 89.64-63.62Z" transform="translate(-185.11 -316.35)"/><path class="cls-6" d="M285.92 330.94c-7.08-1.57-17.1 7.86-14.94 15.33s16.31 7.46 21.22 2.55 2.59-15.91-6.28-17.88ZM221.07 374c-5.33-3.18-13.11.63-17.48 5.87-3.84 4.59-4.32 10.95-.57 13.59 3.95 2.78 13.14.36 17.27-4.36s5.56-12.24.78-15.1Z" transform="translate(-185.11 -316.35)"/><path class="cls-2" d="M336.13 340.54s-1.62 11.55.23 17.13c2.18 6.58 15.26 7.46 17.13 1.09 1.58-5.39.78-17.26.78-17.26Z" transform="translate(-185.11 -316.35)"/><path class="cls-5" d="M323.75 332.36c-.24 6.31 5.72 11.66 22.42 12.77 15.26 1 22.26-.06 23.13-5.92 1.09-7.39-7.09-20.24-19.62-22.5s-25.59 6.39-25.93 15.65Z" transform="translate(-185.11 -316.35)"/><path class="cls-6" d="M343.29 330.91a4.26 4.26 0 1 0-1.48 8.38 4.36 4.36 0 0 0 5-3.66 4.27 4.27 0 0 0-3.52-4.72ZM360 336.09a3.41 3.41 0 0 0-3.78 2.32 3.28 3.28 0 0 0 2.69 3.67 3.2 3.2 0 0 0 3.67-2.61 3.08 3.08 0 0 0-2.58-3.38ZM358.21 333.25c1.79-.78 3.21-3.55 1.66-6.9-1-2.12-4.64-4.76-7.41-3.53s-2.54 5-1.18 7.28 4.38 4.26 6.93 3.15ZM335.92 318.3a22.22 22.22 0 0 0-9.72 7.39 6.16 6.16 0 0 0 7.32 2.93c2.36-.7 5.37-4.45 4.09-8a5.05 5.05 0 0 0-1.69-2.32ZM376.12 393c-.11-5.92-2.36-14.51-13-20.41-9.87-5.48-17.92-4.33-22.83-2.51 11.48 7.36 24.47 15.69 35.83 22.92ZM281.82 370.54c-5.52-4.64-16.53-10.36-30.68.29-10.15 7.64-10 20.34-8.86 27.87 12.24-8.7 26.96-19.18 39.54-28.16Z" transform="translate(-185.11 -316.35)"/></svg>