<svg id="Layer_1" data-name="Layer 1" xmlns="http://www.w3.org/2000/svg" viewBox="0 0 249.13 197.15"><defs><style>.cls-6{fill:#cba449}.cls-9{fill:#5c9a4f}.cls-10{fill:#fff9df}</style></defs><path d="M213.37 334.67c-2.45-5.08-10.5-8.93-17.86-4.08-4.53 3-5.89 8.61-6.16 14.78v.05a2.73 2.73 0 0 1 2.45-1.42c3.44.18 3.62 8.7 3.62 8.7s1.23-3 3.54-2.18 3 6.35 3 6.35 1.54-3.9 3.26-3.54a5.83 5.83 0 0 1 2.43 1.92c.06-1 .1-2 .11-2.73a7.27 7.27 0 0 0-8.88-7.34s-1.83-6.53.81-7.71c4.9-2.17 5.35 3.45 9.34 4.26 3.82.79 6.79-1.98 4.34-7.06Z" transform="translate(-148.5 -328.36)" style="fill:#9cc993"/><path d="M216.45 362.68a45.34 45.34 0 0 0-10.34 5.2 95.72 95.72 0 0 0 1.53-12.62 5.75 5.75 0 0 0-2.43-1.92c-1.72-.36-3.26 3.54-3.26 3.54s-.82-5.53-3-6.35-3.54 2.18-3.54 2.18-.18-8.52-3.62-8.7a2.73 2.73 0 0 0-2.45 1.41 159.16 159.16 0 0 0 .82 18.4c-1.34-.58-2.56-1.05-3.51-1.41-8.89-3.35-15.21.12-9 6.94 5.34 5.84 14.58 7.49 18.21 7.83a69.51 69.51 0 0 0 11.31.28c3.62-.35 12.87-2 18.21-7.84 6.28-6.82-.04-10.29-8.93-6.94Z" transform="translate(-148.5 -328.36)" style="fill:#d7e7d4"/><path d="M392.6 417.08s1.54 76.22 1.11 78.78-2.35 5.77-4.06 7.9-19.72 19.78-22.65 20.76c-3.48 1.18-4.69-6.09-4.69-6.09l-.48-77.67Z" transform="translate(-148.5 -328.36)" style="fill:#e5d388"/><path d="M369.37 447.69s1 69.95.59 72.08-1 4.7-4.86 5.34-201.75.43-205.38 0-8.54-2.56-9.18-7.9-.43-119.13-.43-119.13Z" transform="translate(-148.5 -328.36)" style="fill:#feeb98"/><path d="M149 395c-.91 1.93-1.19 5.94 3.35 7s210.53 47.36 213.78 47.74 5.12.21 7.47-2.14 22.67-28.6 23.74-31.6-.85-5.12-5.34-6.4-209-46.12-210.85-46.54a6.78 6.78 0 0 0-6.49 2.56C172.74 368 149.89 393.18 149 395Z" transform="translate(-148.5 -328.36)" style="fill:#e3bd62"/><path class="cls-6" d="M194.69 486.54a2 2 0 0 1 0-4l112.62-1.77a2 2 0 0 1 0 4l-112.62 1.77ZM294.21 461.86c-5.08.16-5.67 9.39 0 10s6.26-10.19 0-10ZM207.34 464.16c-5.08.16-5.67 9.39 0 10s6.26-10.16 0-10Z" transform="translate(-148.5 -328.36)"/><path d="M294.46 417.13c.75 2.38 7.55 4.72 12.37 2.08l-.13-15.29-12.36-7Z" transform="translate(-148.5 -328.36)" style="fill:#c28149"/><path d="M348 365.34s10.09.54 18-1.95 13-7.12 18.21-5.31c6.46 2.23 5.48 27.76-6.78 39.4 0 0 3.87 4.67 1.17 9s-14.89 18.6-47.32 13.62c0 0 .67 4.35-4.78 4.15-8-.29-33.05-13.92-33.46-28.89s13.79-21.52 30.76-28.06c12.46-4.81 17.57-9.21 21-8.37 3.73.93 3.2 6.41 3.2 6.41Z" transform="translate(-148.5 -328.36)" style="fill:#72aa65"/><path class="cls-9" d="M313.1 399.4a2 2 0 0 1-1-3.75 120.2 120.2 0 0 0 31.11-25.44 2 2 0 1 1 3 2.64 123.91 123.91 0 0 1-32.16 26.29 2 2 0 0 1-.95.26ZM357.19 408.71a2.07 2.07 0 0 1-.35 0c-9.09-1.58-20.12-5.79-26.82-10.23a2 2 0 0 1 2.21-3.34c6.19 4.11 16.83 8.16 25.3 9.63a2 2 0 0 1-.34 4Z" transform="translate(-148.5 -328.36)"/><path class="cls-9" d="M374.52 376a2 2 0 0 0-2.82-.15c-.15.14-15.88 13.71-34.56 17.78-14.13 3.07-31.34 2.22-44.08.28v1.47a13.71 13.71 0 0 0 .33 2.62 158 158 0 0 0 22.47 1.65 106.24 106.24 0 0 0 22.14-2.09c16.77-3.65 32.27-15 36.37-18.71a2 2 0 0 0 .15-2.85Z" transform="translate(-148.5 -328.36)"/><path class="cls-10" d="M322.48 450.86c-1.5.14-.8 3.19.34 5.34 1 1.95 2.89 3.7 4.49 3.22 3-.89-2.54-8.87-4.83-8.56ZM184.3 414.47c-1.5.13-.8 3.18.35 5.33 1 1.95 2.88 3.7 4.48 3.22 3-.89-2.54-8.87-4.83-8.55ZM294.21 509.33c-1.24.36-.24 2.74 1 4.3s2.9 2.53 4.17 1.87c2.39-1.23-3.3-6.81-5.17-6.17ZM310.17 516c1.15-.14.72-2.26-.07-3.73s-2.07-2.49-3.3-2.1c-2.32.75 1.62 6.15 3.37 5.83ZM334.18 478.11c-1.18.21-.88 2.12-.17 3.41s1.93 2.13 3.22 1.69c2.4-.82-1.23-5.49-3.05-5.1ZM224 439c-1.07 0-1 1.89-.52 3.28s1.49 2.43 2.69 2.24c2.19-.36-.55-5.58-2.17-5.52ZM165.21 484.28c-1.3.31-.47 2.75.69 4.39 1 1.49 2.77 2.7 4.13 2.09 2.54-1.14-2.86-7.05-4.82-6.48ZM260.82 446.33c-1.18.21-.89 2.11-.17 3.4s1.93 2.14 3.21 1.7c2.41-.82-1.24-5.49-3.04-5.1ZM342.34 503.47c1.2.07 1.34-1.86.93-3.27s-1.4-2.52-2.75-2.38c-2.52.27-.03 5.63 1.82 5.65ZM173.22 451.19c1.2-.06 1.13-2 .58-3.35s-1.67-2.35-3-2.07c-2.48.53.58 5.6 2.42 5.42ZM250.83 448.64c-.56 1.06-2.29.19-3.29-.88s-1.44-2.5-.62-3.59c1.52-2.03 4.84 2.88 3.91 4.47ZM191.85 505.55c-.56 1.06-2.28.19-3.29-.88s-1.44-2.5-.62-3.59c1.52-2.03 4.84 2.92 3.91 4.47ZM175.05 438.74c-.54 1.21-2.81-.1-4.22-1.57s-2.15-3.27-1.3-4.49c1.6-2.27 6.47 4.24 5.52 6.06ZM325.57 503.36c-1.2.05-1.17 2-.64 3.35s1.62 2.38 3 2.12c2.45-.48-.52-5.61-2.36-5.47ZM191.77 447.25c-1.2.05-1.17 2-.64 3.35s1.62 2.38 3 2.12c2.45-.48-.52-5.61-2.36-5.47ZM169.11 509c-1.07.53-.25 2.28.8 3.31s2.45 1.51 3.56.72c2.08-1.46-2.74-4.92-4.36-4.03ZM250.11 506.14c-1.07.53-.25 2.28.79 3.31s2.46 1.51 3.57.72c2.07-1.46-2.74-4.91-4.36-4.03Z" transform="translate(-148.5 -328.36)"/></svg>