<svg id="Layer_1" data-name="Layer 1" xmlns="http://www.w3.org/2000/svg" viewBox="0 0 377.59 219.31"><defs><style>.cls-2{fill:#cde9f4}.cls-4{fill:#fad4d7}.cls-5{fill:#6e929d}</style></defs><path d="M449 378.53s.23 61.42.23 71.31v37c0 1.84 0 4.14-2.76 6.21s-53.37 37-53.37 37v-124.6Z" transform="translate(-106.69 -311.83)" style="fill:#aad9e7"/><path class="cls-2" d="M397.65 413.27s.23 100.52 0 105.35-1.56 11.56-6.44 12.2-269.78.15-273.14 0-6.72-3.1-7.14-8.55.42-114.57.42-114.57l190.73-57.91Z" transform="translate(-106.69 -311.83)"/><path d="M292.77 356.31a4.16 4.16 0 0 1 3.5.48c12.23 7.91 88.94 57.53 92.89 60.17 4.3 2.86 6.8 1.43 11.1-.72s47.88-32.5 50.37-34.66 1.83-4.16-.66-6.65-95.73-60.49-97.72-61.82a8.9 8.9 0 0 0-7.53-.82c-2.82.83-182.77 56.35-186.58 58.48-6.72 3.77-49.78 32.47-51.15 36.75s2.29 5.19 5.65 4.27c3.16-.86 161.14-49.62 180.13-55.48Z" transform="translate(-106.69 -311.83)" style="fill:#f6b3ba"/><path class="cls-2" d="M192.49 318.2c-5.49.61-5.8 3.2-6 9.16s-1.07 36.34 0 39.24 2.6 3.51 6 2.9 26.72-7 28.86-7.63 2.75-2.75 2.6-6.57-.46-31-.46-32.83-1.83-4.12-7.63-4.58a173.81 173.81 0 0 0-23.37.31Z" transform="translate(-106.69 -311.83)"/><ellipse class="cls-4" cx="166.7" cy="489.11" rx="15.01" ry="12.05" transform="rotate(-20.54 -747.094 627.728)"/><ellipse class="cls-4" cx="339.98" cy="483.14" rx="12.05" ry="15.01" transform="rotate(-69.46 61.67 404.167)"/><path class="cls-5" d="M253 484.23h-.21c-6.83-.18-12.44-8.16-13.06-9.07a2.5 2.5 0 1 1 4.13-2.81c1.2 1.76 5.44 6.78 9.06 6.88h.08c3 0 5.89-4.83 6.83-7.19a2.5 2.5 0 0 1 4.65 1.85c-.41 1.11-4.31 10.34-11.48 10.34ZM219.05 468.78c-.58-1.22-5.89-11.85-13.79-11.85h-.09c-6.75.08-12.27 6.51-15.33 11.08-3.05-2.82-5.17-3.33-5.17-3.33-.49.94.62 3.28 1.83 5a11.33 11.33 0 0 0-5.29-.34c-.15 1.69 3.4 4.48 5.47 5.15a19.64 19.64 0 0 0 2.29.85 2.63 2.63 0 0 0 2.91-1.13c.48-.77 1-1.69 1.39-2.25 2.6-4.12 7.29-9.94 11.95-10 4 0 8.16 6.67 9.28 9a2.5 2.5 0 0 0 4.51-2.16ZM284.75 468.44c.4-1.29 4.14-12.57 12-13.7h.09c6.69-.89 13.07 4.68 16.76 8.77 2.61-3.22 4.64-4 4.64-4 .61.86-.15 3.33-1.11 5.16a11.46 11.46 0 0 1 5.19-1.09c.39 1.66-2.73 4.92-4.68 5.89a24.1 24.1 0 0 1-2.14 1.16 2.62 2.62 0 0 1-3-.71c-.59-.68-1.27-1.52-1.7-2-3.17-3.71-8.64-8.79-13.26-8.17-4 .58-7.12 7.76-7.9 10.24a2.5 2.5 0 0 1-4.77-1.49Z" transform="translate(-106.69 -311.83)"/><path d="M301.73 429.93a32.9 32.9 0 0 0-31.27 22.52 33.44 33.44 0 0 0-18.18-6H252c-7.57 0-13.94 3.91-17.74 6.95a32.54 32.54 0 1 0 2.14 11.55 31.94 31.94 0 0 0-.41-5.11c2.37-2.24 8.63-7.39 16-7.39h.19c9.57.12 16.62 6.3 16.84 6.5a33.16 33.16 0 0 0-.21 3.61 32.89 32.89 0 1 0 32.89-32.59Zm-98.2 61.57a26.59 26.59 0 1 1 26.89-26.59 26.78 26.78 0 0 1-26.89 26.59Zm98.2-2.39a26.59 26.59 0 1 1 26.89-26.59 26.77 26.77 0 0 1-26.89 26.59Z" transform="translate(-106.69 -311.83)" style="fill:#f0827b"/><path d="m456.06 482.27.39 14.6s11-18.76 21.91-15.64c11.14 3.19 5.09 19.8-6 27.56-11.31 7.93-19.61 10.66-19.61 10.66s-21-6.9-26.09-19.31 5.19-17.63 11-14.81a37.22 37.22 0 0 1 10.13 7.6l-.61-14.33Z" transform="translate(-106.69 -311.83)" style="fill:#71c1a9"/><path d="M445.56 447.91s3.1-7.34 8.6-7.22 8.14 8 8.14 8 5.73-6.65 10.55-4.93 10.32 17-.23 30.73-29.47 13.19-38.76 1.84-7.68-29.24-1.6-33.26 13.3 4.84 13.3 4.84Z" transform="translate(-106.69 -311.83)" style="fill:#628dc9"/></svg>