<svg id="Layer_1" data-name="Layer 1" xmlns="http://www.w3.org/2000/svg" viewBox="0 0 234.67 252.28"><defs><style>.cls-3{fill:#c7b3d8}.cls-5{fill:#dcd4e7}.cls-6{fill:#acaed8}.cls-7{fill:#b4b8de}.cls-8{fill:#f6b3ba}</style></defs><path d="M406.47 363.23s1 78.7 1.17 90.28.4 54.17 0 59.27-7.06 7.85-10.2 10.21-47.11 24.14-47.11 24.14l-2.57-165.06Z" transform="translate(-180.32 -295.44)" style="fill:#d7cada"/><path d="M187 394.83c-.19 3.72 1 135.93 1 142.6s4.91 9.22 10 9.42 145.43 1.18 150 .79 7.14-3.4 6.91-9.55-.83-142.48-.83-142.48l-79.29-56.46Z" transform="translate(-180.32 -295.44)" style="fill:#e7e0e9"/><path class="cls-3" d="M275 345.58s75.78 55.71 77.66 56.9 4.26 3 8.61.1 49.68-35.43 52-37.81 2.77-4.65-1-8.31-77.39-55-79.86-56.9-6.41-2.56-10.41 0-93.91 61.44-96.9 63.53c-10.77 7.41-41 28.31-43 29.94s-2.92 3.28 1.22 4.93c3.37 1.35 5.51 1.66 8.26.46S275 345.58 275 345.58Z" transform="translate(-180.32 -295.44)"/><path d="M332.31 344.14a7.71 7.71 0 0 1-4.69-4.64 11.35 11.35 0 0 1 .19-7.16s-2.14-9.61.55-9.88 7.8 4.61 7.8 4.61a23.8 23.8 0 0 1 3.92-.57 27.38 27.38 0 0 1 3.78.24s7.94-5.93 9-4.34c1.93 2.94-.22 9.44-.22 9.44s1.34 1.94.63 6.61c-.53 3.4-4.36 5.63-4.36 5.63 3.54 2.43 5.07 7.08 5.62 9.25.18.73 1.23-5.41 3.71-6.4s7.77 3.31 7.19 5.16c-.66 2.09-3.62-1.26-5.05-1.15s-1.43 2.85-2.36 4.72c-.85 1.69-3.15 5.57-12 6.38a3.52 3.52 0 0 0 .26-.68 9 9 0 0 0 .24-2.25v-2.25a26.58 26.58 0 0 0-1 4.25 2.75 2.75 0 0 1-.29.78 2 2 0 0 1-.16.24c-.6 0-1.21.06-1.87.06-1 0-1.95 0-2.86-.05a4.69 4.69 0 0 0 .53-2v-6h-.05a15.37 15.37 0 0 0-.64 3 26.91 26.91 0 0 0-.19 3 4.6 4.6 0 0 1-.5 2.05 34 34 0 0 1-4.2-.49 3 3 0 0 0 .83-1.41 8.25 8.25 0 0 0 .2-2.27v-2.26l-.05-.05a9.18 9.18 0 0 0-.63 2.27 19.13 19.13 0 0 1-.37 2 2.76 2.76 0 0 1-.31.78 2.08 2.08 0 0 1-.51.61l-.09.07c-4.92-1.13-7.15-3.46-7.34-6.8-.52-4.96 5.29-10.5 5.29-10.5Z" transform="translate(-180.32 -295.44)" style="fill:#6f6372"/><path class="cls-5" d="M359.85 333c.08.47-9.54 4.94-10.73 4.13s10.51-5.3 10.73-4.13ZM347.84 339.19c.38-.37 9.07 2 8.82 3.07s-9.92-1.96-8.82-3.07ZM320.09 332.64c-.09.47 7.87 3.66 9.06 2.85s-8.85-4.04-9.06-2.85ZM329.16 337.36c-.38-.37-7.58-.59-7.33.47s8.43.64 7.33-.47Z" transform="translate(-180.32 -295.44)"/><path class="cls-6" d="M333.84 335.06c1.29 0 1.61 3.74 0 3.74s-1.16-3.74 0-3.74ZM342.38 335.06c1.29 0 1.61 3.74 0 3.74s-1.17-3.74 0-3.74Z" transform="translate(-180.32 -295.44)"/><path class="cls-5" d="M339.15 338.38c-.26-.47-2.52-.49-2.94-.07-.21.21.73 1.52 1.41 1.49s1.65-1.2 1.53-1.42Z" transform="translate(-180.32 -295.44)"/><path class="cls-7" d="M230.14 456.62c-4.9.33-9.57 7.12-7.61 12.52s11.05 8.59 16.45 3.19 2.21-16.45-8.84-15.71Z" transform="translate(-180.32 -295.44)"/><path class="cls-8" d="M210.87 474.87c-4.3.88-7.7 6.47-5.37 10.16s10.71 4.83 14.91.17.17-12.32-9.54-10.33ZM318.06 473.87c-4.3.88-7.7 6.47-5.37 10.16s10.71 4.83 14.91.17.16-12.32-9.54-10.33Z" transform="translate(-180.32 -295.44)"/><path class="cls-7" d="M306.94 471.2c3.24-3.69 1.74-11.8-3.47-14.23s-13.88 1.73-13.88 9.37 10.06 13.19 17.35 4.86ZM266.8 482.46a11.93 11.93 0 0 1-1.5.14c-3.33.1-6.2-1.53-8.31-4.71a17 17 0 0 1-2.09-4.57 2 2 0 0 1 3.92-1c0 .11 1.75 6.38 6.36 6.25 6.39-.19 7.82-7.25 7.88-7.55a2 2 0 0 1 4 .74c-.65 3.4-3.58 9.68-10.26 10.7Z" transform="translate(-180.32 -295.44)"/><path d="M246 296.53c-3.54.42-5.21 3.59-5.81 7.79s0 29.09 0 29.09l12.36-.25s-.29-27.6-.74-30-.6-7.25-5.81-6.63Z" transform="translate(-180.32 -295.44)" style="fill:#b6e1fa"/><path d="M237.29 295.5c-3.5.42-5.15 3.59-5.73 7.79s0 29.09 0 29.09l12.21-.25s-.3-27.6-.74-29.95-.59-7.3-5.74-6.68Z" transform="translate(-180.32 -295.44)" style="fill:#feeb98"/><path d="M228.28 296.53c-3.15.42-4.64 3.59-5.17 7.79s0 29.09 0 29.09l11-.25s-.26-27.6-.66-30-.53-7.25-5.17-6.63Z" transform="translate(-180.32 -295.44)" style="fill:#e67eb0"/><path class="cls-3" d="M221.36 367.41s-.36-29.48-.36-32-.14-6.19 3.64-6.73 25.62-1.1 27.8-.19 2.21 2.85 2.4 7.16a116 116 0 0 1-.72 12.68Z" transform="translate(-180.32 -295.44)"/></svg>