<svg id="Layer_1" data-name="Layer 1" xmlns="http://www.w3.org/2000/svg" viewBox="0 0 771.62 544.12"><defs><style>.cls-1{fill:#78bfe0;}.cls-2{fill:#96d3f2;}.cls-3{fill:#63a8ca;}.cls-4{fill:#a5dbf5;}</style></defs><polygon class="cls-1" points="41.22 199.92 42.32 417.4 16.88 425.92 18.02 477.59 82.91 531.91 90.13 482.7 120.23 481.57 123.07 464.53 136.13 463.39 136.13 282.82 98.65 233.42 70.83 232.29 41.22 199.92"/><polygon class="cls-2" points="98.27 235.56 99.97 270.83 117.61 270.83 117.04 286.19 128.41 287.33 131.26 456.26 116.47 458.54 116.47 476.17 84.62 475.44 82.91 531.91 405.86 533.3 409.03 538.94 490.24 538.75 489.24 533.66 743.86 534.76 742.16 475.44 712.01 473.89 712.58 235 98.27 235.56"/><path class="cls-3" d="M287.27,613.38s-2-77.91.66-90.21,22.28-28.26,41.9-28.93,39.24,18.62,40.9,27.27,1,91.87,1,91.87Z" transform="translate(87.65 -137.94)"/><path class="cls-1" d="M267.15,139.72S-86.65,305.81-86.08,314.91l62,47.22,351-170.24Z" transform="translate(87.65 -137.94)"/><path class="cls-4" d="M678.4,360.42s-10.81-18.2-60.87-51.76L267.15,139.72l59.73,52.17Z" transform="translate(87.65 -137.94)"/><polygon class="cls-2" points="766.05 222.48 766.05 242.39 64.71 242.39 63.57 224.19 414.52 53.95 766.05 222.48"/><polygon class="cls-1" points="394.52 533.23 366.97 477.78 377.46 475.01 403.85 533.49 394.52 533.23"/><path class="cls-1" d="M421.55,596.76l-13-.08.93-157c-3.2-.46-6.65-1.37-9-3.16-2.68-2.08-4.49-6.35-5.42-12.72l-154.39-1.23.11-13,166.34,1.33.33,6.1a43.39,43.39,0,0,0,1.46,9.35,32,32,0,0,0,7.06.77l6.52,0,0,6.52Z" transform="translate(87.65 -137.94)"/><path class="cls-1" d="M159,597.21l-.31-156.69a65.88,65.88,0,0,1-8.77-1c-8.2-1.56-10.14-10.44-10.35-17.44H110.23v-13H153.6l-.85,7.26c-.45,3.94-.18,8.7.56,10.59a66.17,66.17,0,0,0,11.53.67l6.77-.29L172,597.19Z" transform="translate(87.65 -137.94)"/><path class="cls-1" d="M535.27,598,535,443.14a27.66,27.66,0,0,1-7.41-2c-5.29-2.44-6.64-9.42-7.22-15.23-.09-.91-.16-1.82-.21-2.68H483.36v-13h49.72l-.13,6.62c-.09,4.92.47,10.56,1.21,12.9a31.76,31.76,0,0,0,7.3.91l6.47,0,0,6.46L548.27,598Z" transform="translate(87.65 -137.94)"/><path class="cls-3" d="M681.41,357,330.8,189.44,271.49,139a4.5,4.5,0,0,0-5.83,6.85L320,192l-14,7.13c-5.74,2.53-14.24,7.53-13.23,9.8.74,1.68,17.35-3.88,17.95-4.15l17.58-6.61L675,363.88V376.2H-17l-.88-11L232.53,241.77c4.68-2.27,11.21-6.93,10.12-9.16s-7-1-14.33,2.06L-22.15,357.25-80.47,314a4.5,4.5,0,0,0-6.29.93,4.5,4.5,0,0,0,.93,6.3l58.88,43.64,1.29,16.17a4.5,4.5,0,0,0,4.49,4.14h29v23.92a4.49,4.49,0,0,0,3.27,4.3l.78,188.39-51.2-39.88L-41.68,437c0-2.46-.89-15.4-4.15-15.36h-.08c-3,0-3.59,12.07-3.55,14.56l1,118.64A4.5,4.5,0,0,0-52,554.1l-18.89,4a4.54,4.54,0,0,0-3.57,4.42L-74.9,615a4.49,4.49,0,0,0,1.59,3.47l27.24,23c.84.71,10.93,8.29,11.82,7.24,1.61-1.9-3.94-10.93-10.39-16l-21.25-19.8.35-41.27,57,44.81V671a4.5,4.5,0,0,0,4.5,4.5l284-1.25c4.74-.13,17.7-.79,17.7-3.28s-7.4-4.59-13.92-4.47H.43V618.8h147.5l.24,0h.29a4.36,4.36,0,0,0,.52-.05H290.21l28,60.64a4.5,4.5,0,0,0,4.09,2.62h83a4.5,4.5,0,0,0,4.06-6.44L382.27,618.8h269v49.91l-109.28,1c-2.48,0-23.23,1.83-23.12,4.31.18,4.4,9.92,5.15,17.39,5h0l119.51-1.32a4.5,4.5,0,0,0,4.45-4.5V614.3a4.5,4.5,0,0,0-4.5-4.5H629.92l-.72-65c.07-4.1-1.13-13.67-3.61-13.67s-3.19,13.24-3.19,15.73l-1.48,63h-7.51l-.74-9.33a4.5,4.5,0,0,0-4.49-4.14h-7.6l-.91-162.92H610.6a4.5,4.5,0,0,0,4.5-4.5V414.29h11.43a4.49,4.49,0,0,0,4.5-4.5V385.2h48.44a4.49,4.49,0,0,0,4.5-4.5V361A4.49,4.49,0,0,0,681.41,357ZM20.05,413.62h5.73l.35,11.88a4.51,4.51,0,0,0,4.5,4.37h.05L38,429.8V592.52l-5.28.05A4.5,4.5,0,0,0,28.25,597l-.14,12.78h-6l-1.22-.95Zm512,.58,1.19,15.07a4.5,4.5,0,0,0,4.49,4.14h9.5V596.33H531.92a4.5,4.5,0,0,0-4.49,4.14l-.74,9.33H488.44l-.35-9.15a4.5,4.5,0,0,0-4.5-4.32h0l-8.06,0-.91-165.44,8.48.06h0a4.51,4.51,0,0,0,4.5-4.37l.36-12.48Zm-66.4,16.68.91,165.55-37.86.23-1-166Zm13.66,174.47.18,4.45H409.25l.06-4ZM478.74,422l-64.69-.43-1.17-7.48,66.09.08Zm-75-7.92,2,12.66a4.51,4.51,0,0,0,4.41,3.81l8.45.05,1,166.15-14.8.09a4.51,4.51,0,0,0-4.47,4.43l-.13,8.56H245.89l-.19-10a4.5,4.5,0,0,0-4.5-4.42H227.82l.46-165.64H240.2a4.5,4.5,0,0,0,4.5-4.5V413.87ZM177.08,595.36l-.92-165.64h43.12l-.46,165.64Zm-4.48,9h64.19l.1,5.44H153.26l.35-5.44Zm63.1-183.64H159.35v-6.94l76.35.08Zm-80.85,9h12.31l.92,165.64H149.39a4.5,4.5,0,0,0-4.49,4.21l-.66,10.23H114.13l-.78-13.61a4.49,4.49,0,0,0-4.49-4.24h0l-7,0L99.77,429.16l8.66-.09a4.51,4.51,0,0,0,4.45-4.5V413.73l37.47,0v11.45A4.51,4.51,0,0,0,154.85,429.72Zm-64.08-.47,2.07,162.83L47,592.45V429.71ZM104.61,601l.51,8.82h-68l.09-8.27Zm-.73-180.87-61.08.64a3,3,0,0,0-.31,0c-.12,0-.25,0-.37,0l-7.12.07-.22-7.19,69.1.08ZM-2.51,609.8-59.6,564.89l7.41-1.55L7.43,609.8Zm386.26,33-72.17.81-3.93-8.5,72.25-.36Zm7.39,15.48-72.06,1.55-3.36-7.27,72.3-.8Zm-65.94,14.8-2-4.33,72.2-1.56,2.81,5.89Zm50.41-47.31-72.11.36-3.37-7.31h72.16Zm228.78-16H535.72l.35-4.47h68Zm-12.81-13.47h-35.4V433.41h34.49ZM606.1,424.41H541.84l-.81-10.2,65.07.07ZM622,405.3l-605.25-.68V385.2H622Z" transform="translate(87.65 -137.94)"/></svg>