<svg id="Layer_1" data-name="Layer 1" xmlns="http://www.w3.org/2000/svg" viewBox="0 0 561.63 540.87"><defs><clipPath id="clip-path" transform="translate(-662.47 -270.88)"><path class="cls-1" d="M715.57 453v278.82a17.39 17.39 0 0 0 3.67 10.67L760.91 796a17.38 17.38 0 0 0 13.7 6.69h418.92a17.36 17.36 0 0 0 17.36-17.36V517.37a17.37 17.37 0 0 0-5.87-13L1023.4 344.13a17.35 17.35 0 0 0-17.12-3.4l-279 95.84A17.36 17.36 0 0 0 715.57 453z"/></clipPath><clipPath id="clip-path-2" transform="translate(-662.47 -270.88)"><ellipse class="cls-1" cx="1088.15" cy="629.72" rx="64.98" ry="63.15"/></clipPath><clipPath id="clip-path-3" transform="translate(-662.47 -270.88)"><ellipse class="cls-1" cx="879.02" cy="629.02" rx="64.79" ry="63.15"/></clipPath><style>.cls-1{fill:none}.cls-5{fill:#fc6678}.cls-8{fill:#1b60b2}</style></defs><path d="M715.57 453v278.82a17.39 17.39 0 0 0 3.67 10.67L760.91 796a17.38 17.38 0 0 0 13.7 6.69h418.92a17.36 17.36 0 0 0 17.36-17.36V517.37a17.37 17.37 0 0 0-5.87-13L1023.4 344.13a17.35 17.35 0 0 0-17.12-3.4l-279 95.84A17.36 17.36 0 0 0 715.57 453z" transform="translate(-662.47 -270.88)" fill="#4593f7"/><g clip-path="url(#clip-path)"><path fill="#217be8" d="M0 124.27h97.02v416.6H0z"/></g><path class="cls-5" d="M974.31 272.48 707.45 416.06a12.71 12.71 0 0 0-6.68 11.19v8.26a12.71 12.71 0 0 0 2.36 7.38l41.39 58a11 11 0 0 0 14.42 3.17l257.4-146.73 189.19 168.79a11.18 11.18 0 0 0 15.58-.79 11.18 11.18 0 0 0 1.24-13.61L1185 453.05a37.88 37.88 0 0 0-6.48-7.69l-188.89-171a13.4 13.4 0 0 0-15.32-1.88z" transform="translate(-662.47 -270.88)"/><path d="M156.25 422.48s75.58 46.47 169 43.92 168.52-48 168.52-48" stroke="#1b60b2" stroke-linecap="round" stroke-linejoin="round" stroke-width="11" fill="none"/><ellipse cx="323.18" cy="483.12" rx="10.14" ry="8.62" fill="#fcf9e3"/><path class="cls-8" d="M918.27 511.83c-3.8 14.43-33.53 11.37-54.36 6.26-8.57-2.11-24.12-11.89-22.08-23s17-15.83 32.3-14.18c21.31 2.33 47.06 19.82 44.14 30.92z" transform="translate(-662.47 -270.88)"/><ellipse class="cls-8" cx="1079.82" cy="534.79" rx="38.3" ry="20.86" transform="rotate(-11.97 -543.446 3558.752)"/><path class="cls-8" d="M969.77 663a14.94 14.94 0 0 0-2.8 4.15c-1 2.29-1.69 5.44 1.16 7 3.15 1.68 5.82-1.9 7.26-4.5a15.46 15.46 0 0 0 1.7-4.86c.38-2.23.57-5.24-1-5.69s-4.65 2.07-6.32 3.9zm25.38 3.16a15.32 15.32 0 0 0 1.81 4.68c1.3 2.13 3.5 4.5 6.38 3 3.17-1.63 1.76-5.86.45-8.53a15.29 15.29 0 0 0-3-4.16c-1.61-1.59-4-3.47-5.26-2.41s-.88 5.04-.38 7.42z" transform="translate(-662.47 -270.88)"/><ellipse class="cls-5" cx="216.55" cy="358.14" rx="64.79" ry="63.15"/><ellipse class="cls-5" cx="425.68" cy="358.84" rx="64.98" ry="63.15"/><g clip-path="url(#clip-path-2)"><path class="cls-8" d="m496.68 354.9-121.85 65.39 42.53 17 86.47-41.19-7.15-41.2z"/></g><circle class="cls-8" cx="461.53" cy="355.16" r="15.74"/><ellipse class="cls-8" cx="182.55" cy="352.62" rx="15.32" ry="15.61"/><g clip-path="url(#clip-path-3)"><path class="cls-8" d="m146.38 358.84 116.77 49.85-22.47 24.85-113.7-26.89 19.4-47.81z"/></g></svg>