<svg id="Layer_1" data-name="Layer 1" xmlns="http://www.w3.org/2000/svg" viewBox="0 0 588.23 602.22"><defs><style>.cls-1{fill:#c7a3cd;}.cls-2{fill:#6d7bbb;}.cls-3{fill:#e0bcda;}.cls-4{fill:#faeaf4;}.cls-5{fill:#818ec6;}.cls-6{fill:#6c7cbb;}.cls-7{fill:none;}.cls-8{fill:#878bc4;}.cls-9{fill:#f9d4e7;}</style></defs><polygon class="cls-1" points="6.72 269.17 6.72 528.94 79.5 585.04 81.02 311.12 38.06 242.39 23.4 248.96 6.72 269.17"/><path class="cls-2" d="M61.2,672.51s3.54-133.42-7.58-154.14-27-13.65-31.45,0-3.42,120.28-3.42,120.28l-8-7.86c-2.52-3.13-4.17,2.12-5,6.06C4,645.85,3,655.91,5.21,660c3.54,6.57,50.43,56,54.48,59s11.12,3.53,20.21,3.53c8.57,0,456.39-1.79,508.54-2a3.74,3.74,0,0,0,3.59-4.77l-7.24-25.57s-10.11-10.11-14.66-13.14c-3.73-2.49-354.78,2-467.48,2-4.5,0-21.41,7.22-25.26,7C72.83,685.67,61.2,672.51,61.2,672.51Z" transform="translate(-3.94 -120.32)"/><path class="cls-3" d="M565.53,679.9l-1.65-231.28-490-6.06-1,236.37a7.7,7.7,0,0,0,7.7,7.73H558.82A6.7,6.7,0,0,0,565.53,679.9Z" transform="translate(-3.94 -120.32)"/><polygon class="cls-3" points="386.5 98.35 386.5 238.66 478.38 237.98 477.47 97.9 386.5 98.35"/><rect class="cls-4" x="105.12" y="380.92" width="123.01" height="153.42"/><path class="cls-2" d="M231.61,498H109.41a4.38,4.38,0,0,0-4.38,4.38V654.72a4.38,4.38,0,0,0,4.38,4.38h122.2a4.39,4.39,0,0,0,4.38-4.38V502.39A4.39,4.39,0,0,0,231.61,498ZM112,535.57V506a1,1,0,0,1,1-1h30.44a1,1,0,0,1,1,1v29.6a1,1,0,0,1-1,1H113A1,1,0,0,1,112,535.57Zm76.6,80.5H152.35a1,1,0,0,1-1-1V585.8a1,1,0,0,1,1-1h36.28a1,1,0,0,1,1,1v29.31A1,1,0,0,1,188.63,616.07Zm-36.28,7h36.28a1,1,0,0,1,1,1v27.1a1,1,0,0,1-1,1H152.35a1,1,0,0,1-1-1V624A1,1,0,0,1,152.35,623.07Zm0-79.53h36.28a1,1,0,0,1,1,1v32.37a1,1,0,0,1-1,1H152.35a1,1,0,0,1-1-1V544.5A1,1,0,0,1,152.35,543.54Zm36.28-7H152.35a1,1,0,0,1-1-1V506a1,1,0,0,1,1-1h36.28a1,1,0,0,1,1,1v29.6A1,1,0,0,1,188.63,536.54Zm8,40.33V544.5a1,1,0,0,1,1-1H228a1,1,0,0,1,1,1v32.37a1,1,0,0,1-1,1H197.56A1,1,0,0,1,196.6,576.87Zm1,8H228a1,1,0,0,1,1,1v29.31a1,1,0,0,1-1,1H197.56a1,1,0,0,1-1-1V585.8A1,1,0,0,1,197.56,584.83Zm-53.17,1v29.31a1,1,0,0,1-1,1H113a1,1,0,0,1-1-1V585.8a1,1,0,0,1,1-1h30.44A1,1,0,0,1,144.39,585.8Zm-1-8H113a1,1,0,0,1-1-1V544.5a1,1,0,0,1,1-1h30.44a1,1,0,0,1,1,1v32.37A1,1,0,0,1,143.43,577.83ZM197.56,505H228a1,1,0,0,1,1,1v29.6a1,1,0,0,1-1,1H197.56a1,1,0,0,1-1-1V506A1,1,0,0,1,197.56,505ZM229,624v27.1a1,1,0,0,1-1,1H197.56a1,1,0,0,1-1-1V624a1,1,0,0,1,1-1H228A1,1,0,0,1,229,624ZM143.43,652.1H113a1,1,0,0,1-1-1V624a1,1,0,0,1,1-1h30.44a1,1,0,0,1,1,1v27.1A1,1,0,0,1,143.43,652.1Z" transform="translate(-3.94 -120.32)"/><rect class="cls-4" x="409.1" y="380.92" width="123.01" height="153.42"/><path class="cls-2" d="M409.13,502.39V654.72a4.38,4.38,0,0,0,4.38,4.38H535.7a4.38,4.38,0,0,0,4.38-4.38V502.39A4.38,4.38,0,0,0,535.7,498H413.51A4.38,4.38,0,0,0,409.13,502.39Zm123,34.15H501.69a1,1,0,0,1-1-1V506a1,1,0,0,1,1-1h30.43a1,1,0,0,1,1,1v29.6A1,1,0,0,1,532.12,536.54Zm-76.6,78.57V585.8a1,1,0,0,1,1-1h36.28a1,1,0,0,1,1,1v29.31a1,1,0,0,1-1,1H456.48A1,1,0,0,1,455.52,615.11ZM493.73,624v27.1a1,1,0,0,1-1,1H456.48a1,1,0,0,1-1-1V624a1,1,0,0,1,1-1h36.28A1,1,0,0,1,493.73,624Zm0-79.54v32.37a1,1,0,0,1-1,1H456.48a1,1,0,0,1-1-1V544.5a1,1,0,0,1,1-1h36.28A1,1,0,0,1,493.73,544.5Zm-38.21-8.93V506a1,1,0,0,1,1-1h36.28a1,1,0,0,1,1,1v29.6a1,1,0,0,1-1,1H456.48A1,1,0,0,1,455.52,535.57Zm-8,42.26H417.09a1,1,0,0,1-1-1V544.5a1,1,0,0,1,1-1h30.47a1,1,0,0,1,1,1v32.37A1,1,0,0,1,447.56,577.83Zm1,8v29.31a1,1,0,0,1-1,1H417.09a1,1,0,0,1-1-1V585.8a1,1,0,0,1,1-1h30.47A1,1,0,0,1,448.52,585.8Zm53.17-1h30.43a1,1,0,0,1,1,1v29.31a1,1,0,0,1-1,1H501.69a1,1,0,0,1-1-1V585.8A1,1,0,0,1,501.69,584.83Zm-1-8V544.5a1,1,0,0,1,1-1h30.43a1,1,0,0,1,1,1v32.37a1,1,0,0,1-1,1H501.69A1,1,0,0,1,500.73,576.87ZM448.52,506v29.6a1,1,0,0,1-1,1H417.09a1,1,0,0,1-1-1V506a1,1,0,0,1,1-1h30.47A1,1,0,0,1,448.52,506Zm-31.43,117.1h30.47a1,1,0,0,1,1,1v27.1a1,1,0,0,1-1,1H417.09a1,1,0,0,1-1-1V624A1,1,0,0,1,417.09,623.07Zm83.64,28.07V624a1,1,0,0,1,1-1h30.43a1,1,0,0,1,1,1v27.1a1,1,0,0,1-1,1H501.69A1,1,0,0,1,500.73,651.14Z" transform="translate(-3.94 -120.32)"/><circle class="cls-4" cx="431.39" cy="158.12" r="24.88"/><path class="cls-2" d="M405.29,278.44a30,30,0,1,0,30-30A30,30,0,0,0,405.29,278.44Zm7.67,0a22.37,22.37,0,1,1,22.37,22.38A22.38,22.38,0,0,1,413,278.44Z" transform="translate(-3.94 -120.32)"/><path class="cls-2" d="M428.38,275.85a.19.19,0,0,0,0,.08,3,3,0,0,0,.49,2.27l9.57,13.71a3,3,0,0,0,4.92-3.43l-7.82-11.21,6.83-4.58a3,3,0,1,0-3.34-5L429.64,274A3,3,0,0,0,428.38,275.85Z" transform="translate(-3.94 -120.32)"/><path class="cls-5" d="M480.05,224.17s-88-.32-90.26-.64-4.68-.53-5.17-3.22a38.57,38.57,0,0,1-.48-8.78c.24-1.46,3-2.29,7.68-3,0,0,36.83-83.18,40.61-86.47s9-.79,9-.79l38.05,87.38,7.81,2.56.36,12.07Z" transform="translate(-3.94 -120.32)"/><path class="cls-6" d="M440.19,121.49a3,3,0,0,1,4,1.51l37.24,83.25a3,3,0,0,1,.13.39c3.49.58,5.57,1,5.81,1.06a3.07,3.07,0,0,1,1.66,1c2.49,2.93,4,13,.14,16.6-.55.52-1.88,1.76-8.34,1.76a100.3,100.3,0,0,1-12.58-1,3,3,0,1,1,.77-5.95c6.29.81,14,1.23,16.14.63.69-1.34.36-5.5-.34-7.44a243.34,243.34,0,0,0-35.18-3.84,3,3,0,1,1,.21-6c9.59.33,18.18,1.23,24.71,2.11l-35.85-80.13A3,3,0,0,1,440.19,121.49Z" transform="translate(-3.94 -120.32)"/><path class="cls-6" d="M394.15,204.19l20.27.28a3,3,0,0,1,0,6h0l-20.27-.28a3,3,0,0,1-3-3.05A3,3,0,0,1,394.15,204.19Z" transform="translate(-3.94 -120.32)"/><path class="cls-7" d="M483.09,353.42h1.11a3.29,3.29,0,0,0-1,.17Z" transform="translate(-3.94 -120.32)"/><path class="cls-8" d="M440.21,451.13,71.58,452.42l-36.8-83.88S16.5,392.79,15,394.26a4.28,4.28,0,0,1-6.08.37c-2.39-1.84-4.6-4.05-2-7.36S20,365.35,20,365.35l10.68-9.75H484.59l43,1.93,39.92,90.3L521,451.32Z" transform="translate(-3.94 -120.32)"/><path class="cls-6" d="M395.3,355.59h-6.68l41.2,95.86a3.09,3.09,0,0,0,2.67,1.85l41.39,2.07H474l2.14,0,2.11,0,4.46.08c5.46.1,12.63.2,20.49.2,5.37,0,11.05-.06,16.74-.18q3.22-.07,6.44-.18c5.24-.18,10.37-.43,15.12-.8l27.16-2.21a3,3,0,0,0,2.38-1.48,3.07,3.07,0,0,0,.18-2.81l-40.08-91.85a3.09,3.09,0,0,0-2.75-1.84l-44.19-.95a3.29,3.29,0,0,0-1,.17l-.07-.17h0a4.32,4.32,0,0,0-4,6l38.24,90c-14.53.27-28.82,0-37.27-.12l-39.82-93.74h-6.51L473.5,449.2l-38.79-1.94Zm90.41,4,40.59.87,37.58,86.11L541,448.44c-5.38.41-11.24.68-17.21.86Z" transform="translate(-3.94 -120.32)"/><polygon class="cls-6" points="383.91 330.99 377.4 331.02 336.74 235.28 343.26 235.28 383.91 330.99"/><polygon class="cls-6" points="338.26 331.15 331.75 331.18 291.02 235.28 297.54 235.28 338.26 331.15"/><polygon class="cls-6" points="295.56 331.3 289.05 331.32 248.26 235.28 254.78 235.28 295.56 331.3"/><polygon class="cls-6" points="250.3 331.46 243.79 331.48 202.93 235.28 209.45 235.28 250.3 331.46"/><polygon class="cls-6" points="205.21 331.62 198.7 331.64 157.77 235.28 164.29 235.28 205.21 331.62"/><polygon class="cls-6" points="119.73 235.28 160.72 331.77 154.21 331.8 113.22 235.28 119.73 235.28"/><path class="cls-6" d="M15.07,366.39l11.72-12.64a3,3,0,0,1,1.44-.85,3,3,0,0,1,1.3-.39c16.5-.93,65.64-.05,72,1.29a3,3,0,0,1-.61,5.94,3.18,3.18,0,0,1-.62-.06c-1.89-.4-9.34-.78-18.9-1.07l39.77,93.64-6.51,0L74.83,358.44c-14.32-.34-31.21-.44-41.38-.1l40.86,89.84a3,3,0,1,1-5.46,2.47L28.12,361.14l-8.65,9.33a3,3,0,0,1-4.4-4.08Z" transform="translate(-3.94 -120.32)"/><path class="cls-2" d="M289.19,579c-14.13,0-19.82-12.62-20.07-13.18a3.5,3.5,0,0,1,6.41-2.82c.2.43,4.51,9.73,14.93,9,7.56-.55,8.73-10,8.78-10.44a3.5,3.5,0,0,1,7,.76c-.58,5.42-4.5,15.89-15.23,16.67C290.36,579,289.77,579,289.19,579Z" transform="translate(-3.94 -120.32)"/><path class="cls-2" d="M324.26,594.46a5.25,5.25,0,0,1-.79-.07c-1-.15-4-.61-11.19-10.49a3.5,3.5,0,0,1,5.64-4.14,53.8,53.8,0,0,0,6.25,7.25,42.42,42.42,0,0,0,5.41-6.88,3.5,3.5,0,0,1,5.88,3.79C329.38,593.34,326,594.46,324.26,594.46Z" transform="translate(-3.94 -120.32)"/><ellipse class="cls-9" cx="258.01" cy="466.07" rx="9.39" ry="9.19"/><path class="cls-2" d="M358.62,579c14.12,0,19.82-12.62,20.06-13.18a3.5,3.5,0,0,0-6.4-2.82c-.2.43-4.51,9.73-14.94,9-7.55-.55-8.72-10-8.77-10.44a3.5,3.5,0,0,0-7,.76c.57,5.42,4.5,15.89,15.23,16.67C357.44,579,358,579,358.62,579Z" transform="translate(-3.94 -120.32)"/><ellipse class="cls-9" cx="380.95" cy="464.71" rx="9.39" ry="9.19"/></svg>