<svg id="Layer_1" data-name="Layer 1" xmlns="http://www.w3.org/2000/svg" viewBox="0 0 227.28 218.96"><defs><style>.cls-1{fill:#80b075;}.cls-2{fill:#9cc993;}.cls-3{fill:#629156;}.cls-4{fill:#e9f2df;}.cls-5{fill:#e67b69;}</style></defs><path class="cls-1" d="M186.4,375.34s-.28,121.35-.28,123.82.28,5.76,2.47,8,22.66,21.69,26.85,22.39l-.49-135Z" transform="translate(-184 -311.43)"/><path class="cls-2" d="M210.83,392.36S210,517,210.28,521.12s2.47,8.79,8.24,9.06,177.08.28,181.48,0,6.58-2.2,6.86-5.76,0-131,0-131L311.59,339.1Z" transform="translate(-184 -311.43)"/><path class="cls-3" d="M267.52,420.29c-12.22,5.5-15.31,23.29-10.15,36.82,3.71,9.72,18.25,15.39,28.21,6.83s10.13-22.54,5.15-33.67S274.91,417,267.52,420.29Z" transform="translate(-184 -311.43)"/><path class="cls-4" d="M283.21,441s-2.51-12.89-4.58-12.58-2.58,12.92-2.58,12.92-6.65,1.52-6.8,4.39,9.12,3.9,9.12,3.9,1,9.28,3.05,9.8,2.61-10.6,2.61-10.6,7.71-2.6,7.46-5.37S283.21,441,283.21,441Z" transform="translate(-184 -311.43)"/><path class="cls-4" d="M264,435.9s1.15,5.66,2.06,5.52,1.09-5.7,1.09-5.7,2.92-.69,3-2-4-1.69-4-1.69-.45-4.08-1.37-4.3-1.11,4.67-1.11,4.67-3.39,1.17-3.27,2.39S264,435.9,264,435.9Z" transform="translate(-184 -311.43)"/><path class="cls-4" d="M268.78,455.48s-.52-4.41-1.34-4.34-1.45,4.33-1.45,4.33-2.64.4-2.8,1.37,3.41,1.48,3.41,1.48,0,3.15.84,3.36,1.39-3.54,1.39-3.54,3.09-.75,3.09-1.69S268.78,455.48,268.78,455.48Z" transform="translate(-184 -311.43)"/><path class="cls-3" d="M352.56,420.29c-12.22,5.5-15.31,23.29-10.15,36.82,3.71,9.72,18.25,15.39,28.21,6.83s10.13-22.54,5.16-33.67S360,417,352.56,420.29Z" transform="translate(-184 -311.43)"/><path class="cls-4" d="M368.25,441s-2.51-12.89-4.58-12.58-2.58,12.92-2.58,12.92-6.65,1.52-6.8,4.39,9.13,3.9,9.13,3.9.95,9.28,3,9.8,2.61-10.6,2.61-10.6,7.71-2.6,7.46-5.37S368.25,441,368.25,441Z" transform="translate(-184 -311.43)"/><path class="cls-4" d="M349,435.9s1.15,5.66,2.06,5.52,1.09-5.7,1.09-5.7,2.92-.69,3-2-4-1.69-4-1.69-.45-4.08-1.37-4.3-1.11,4.67-1.11,4.67-3.39,1.17-3.27,2.39S349,435.9,349,435.9Z" transform="translate(-184 -311.43)"/><path class="cls-4" d="M353.83,455.48s-.53-4.41-1.35-4.34-1.45,4.33-1.45,4.33-2.64.4-2.8,1.37,3.41,1.48,3.41,1.48.05,3.15.84,3.36,1.39-3.54,1.39-3.54,3.09-.75,3.09-1.69S353.83,455.48,353.83,455.48Z" transform="translate(-184 -311.43)"/><path class="cls-3" d="M298.36,476.07c-5.82,0-10.76-6-11.3-6.64a2.5,2.5,0,0,1,3.9-3.13h0c1,1.24,4.49,4.77,7.4,4.77,1.74,0,4.42-1.4,7-2.76,3.26-1.71,6.64-3.48,10-3.62,3.64-.14,6.82,1.7,9.64,3.34,2.18,1.27,4.25,2.47,6.13,2.59a11,11,0,0,0,8.85-3.43,2.5,2.5,0,0,1,3.88,3.16,16,16,0,0,1-13.05,5.26c-3.06-.2-5.73-1.75-8.32-3.26s-4.76-2.77-6.92-2.67-5.08,1.6-7.86,3.06C304.42,474.45,301.34,476.07,298.36,476.07Z" transform="translate(-184 -311.43)"/><path class="cls-5" d="M313.24,345.14s90.87,51.61,94.44,51.61,4.67-2.2,2.47-5.76-25-25.26-28.55-28.28-89.23-49.15-91.15-50.52-6-.82-9.06,1.1-95.27,56.28-96.64,58.48a5.57,5.57,0,0,0,1.37,7.14c2.2,1.64,22.52,20.31,23.89,21.68s4.94,1.93,7.14.55S313.24,345.14,313.24,345.14Z" transform="translate(-184 -311.43)"/><path class="cls-5" d="M225.17,450.67A27.82,27.82,0,0,0,210.23,455l.17,49.48a27.78,27.78,0,0,0,14.77,4.24c15.69,0,28.4-13,28.4-29S240.86,450.67,225.17,450.67Z" transform="translate(-184 -311.43)"/><path class="cls-5" d="M407,453.92a27.66,27.66,0,0,0-3.66-.25c-15.68,0-28.4,13-28.4,29s12.72,29,28.4,29a27.66,27.66,0,0,0,3.66-.25C407,497.89,407,475.55,407,453.92Z" transform="translate(-184 -311.43)"/></svg>