<svg id="Layer_1" data-name="Layer 1" xmlns="http://www.w3.org/2000/svg" viewBox="0 0 214.61 195.34"><defs><style>.cls-1{fill:#a2d3b9;}.cls-2{fill:#b9ddc9;}.cls-3{fill:#85c6a4;}.cls-4{fill:#f9c9ca;}</style></defs><path class="cls-1" d="M401.88,368s-.6,122.43-1.28,125.92-1,4.21-2.82,6.24c-2.76,3.13-22,15.34-28.44,17.57l.77-137Z" transform="translate(-190.63 -322.97)"/><path class="cls-2" d="M376.48,384.09S375.14,505.47,374.8,509s-1.29,8.42-7.22,9-162.37.07-166.8-.69-7.05-5.37-7-9.94,1.34-125.8,1.34-125.8l98.05-39.72Z" transform="translate(-190.63 -322.97)"/><path class="cls-3" d="M278,448.29a13,13,0,0,1-10.22-7.9,3,3,0,0,1,1.62-3.79,2.76,2.76,0,0,1,3.62,1.62,7.38,7.38,0,0,0,5.78,4.28c4,.55,6.1-3.37,6.19-3.54a2.79,2.79,0,0,1,3.81-1.2,2.94,2.94,0,0,1,1.14,3.91C289.81,442,286,449.38,278,448.29Z" transform="translate(-190.63 -322.97)"/><path class="cls-3" d="M237.89,419.85c-11.49.75-16.34,11.58-16.54,12a3,3,0,0,0,1.39,3.87,2.78,2.78,0,0,0,3.72-1.46c.15-.34,3.71-8.09,11.76-8.62,7.85-.52,11.71,7.81,11.87,8.16a2.75,2.75,0,0,0,3.73,1.4,3,3,0,0,0,1.37-3.87C255,430.87,249.6,419.07,237.89,419.85Z" transform="translate(-190.63 -322.97)"/><path class="cls-3" d="M322.48,419.85c11.49.75,16.34,11.58,16.54,12a3,3,0,0,1-1.39,3.87,2.78,2.78,0,0,1-3.72-1.46c-.15-.34-3.72-8.09-11.76-8.62-7.85-.52-11.71,7.81-11.87,8.16a2.75,2.75,0,0,1-3.73,1.4,3,3,0,0,1-1.37-3.87C305.41,430.87,310.77,419.07,322.48,419.85Z" transform="translate(-190.63 -322.97)"/><path class="cls-4" d="M210.25,431.36c3.21.67,7.16,3.46,6.24,10.1s-8.66,8.05-12.07,5.86a8.73,8.73,0,0,1-3.8-10.76C202.2,432,206.42,430.56,210.25,431.36Z" transform="translate(-190.63 -322.97)"/><path class="cls-4" d="M354.35,434.26c3.21.67,7.16,3.46,6.24,10.1s-8.67,8.05-12.08,5.86a8.76,8.76,0,0,1-3.8-10.77C346.29,434.86,350.52,433.46,354.35,434.26Z" transform="translate(-190.63 -322.97)"/><path class="cls-4" d="M288.87,350.07a5.67,5.67,0,0,1,4.46.21c12.61,6.07,75.63,36.44,78,37.74,2.64,1.45,4.1.36,7.72-1.68,3.81-2.14,22.23-13.3,24.15-14.75s3.33-4.52.12-7S327,325.79,323.17,324a9.22,9.22,0,0,0-8.1-.13c-4.91,1.9-89.83,35.93-93.16,38.23s-29.22,17.1-30.46,18.8c-2.26,3.09.47,5.94,3.93,4.28C198.52,383.65,274.65,355.35,288.87,350.07Z" transform="translate(-190.63 -322.97)"/></svg>