<svg id="Layer_1" data-name="Layer 1" xmlns="http://www.w3.org/2000/svg" xmlns:xlink="http://www.w3.org/1999/xlink" viewBox="0 0 206.03 211.66"><defs><style>.cls-1{fill:none;}.cls-2{fill:#78bfe0;}.cls-3{fill:#96d3f2;}.cls-4{fill:#5198ba;}.cls-5{clip-path:url(#clip-path);}.cls-6{fill:#7bb3cf;}.cls-7{fill:#b489bd;}</style><clipPath id="clip-path" transform="translate(-194.34 -303.97)"><path class="cls-1" d="M269.29,432.05c0,5.64.77,11.2,5.5,15.63,5.41,5.08,15,3.12,18,.76,5.88-4.71,5.3-12.87,5.16-17.45-.12-3.89-2.46-4.78-5.7-5.07-2.37-.2-14.91-.15-17.61.43C271.68,427,269.29,428.32,269.29,432.05Z"/></clipPath></defs><path class="cls-2" d="M394.25,360.92s.21,116,0,119.26a19.52,19.52,0,0,1-3.88,9.59c-2,2.86-15.07,20-20.1,22.54L370,376.65Z" transform="translate(-194.34 -303.97)"/><path class="cls-3" d="M375.87,376.85s1,120.89.62,126.4-6.74,11.23-14.3,11.85-151.72.81-155.6,0S198.22,512.44,198,502s1-113.95,1-113.95l88.26-59Z" transform="translate(-194.34 -303.97)"/><path class="cls-4" d="M269.29,432.05c0,5.64.77,11.2,5.5,15.63,5.41,5.08,15,3.12,18,.76,5.88-4.71,5.3-12.87,5.16-17.45-.12-3.89-2.46-4.78-5.7-5.07-2.37-.2-14.91-.15-17.61.43C271.68,427,269.29,428.32,269.29,432.05Z" transform="translate(-194.34 -303.97)"/><g class="cls-5"><path class="cls-6" d="M266.4,446.84s4-11.9,17.05-13.17,20,11.9,20,11.9L285.21,456Z" transform="translate(-194.34 -303.97)"/></g><circle class="cls-4" cx="56.49" cy="119.62" r="7.73"/><circle class="cls-4" cx="49.19" cy="140.95" r="2.45"/><circle class="cls-4" cx="39.8" cy="129.8" r="2.45"/><circle class="cls-4" cx="30.77" cy="139.76" r="2.45"/><circle class="cls-4" cx="147.33" cy="140.95" r="2.45"/><circle class="cls-4" cx="137.94" cy="129.8" r="2.45"/><circle class="cls-4" cx="128.92" cy="139.76" r="2.45"/><circle class="cls-4" cx="120.51" cy="119.62" r="7.73"/><path class="cls-7" d="M283.79,338a4.1,4.1,0,0,1,4.18-.2c13.3,7.15,84.07,45.1,86.47,46,2.66,1,4.9.41,7.35-1.83s15.93-19,17.77-22.06.41-5.31-2.86-7.35S310.12,306.2,308.49,305s-3.48-1.43-5.72,0-85.36,56.36-89,58.81-19.4,22.84-19.4,25.12c0,3.27,1.43,5.3,5.1,3.87C202.77,391.48,271.17,346.36,283.79,338Z" transform="translate(-194.34 -303.97)"/></svg>