<svg id="Layer_1" data-name="Layer 1" xmlns="http://www.w3.org/2000/svg" viewBox="0 0 228.18 237.2"><defs><style>.cls-1{fill:#92c250;}.cls-2{fill:#a8cb67;}.cls-3{fill:#715ea5;}.cls-4{fill:#77a538;}</style></defs><path class="cls-1" d="M405,366.78s-.92,129.39-.92,131.44a22.16,22.16,0,0,1-2.28,8.9c-1.59,3.19-13.15,25.35-17.76,28.31l-1-149.48Z" transform="translate(-183.43 -302.33)"/><path class="cls-2" d="M387,383.44V528.8c0,3.65-2.28,8.21-8.44,8.9s-180.73,1.82-184.15,1.82-5.25-4.11-5.25-8.21-.23-121.17-.23-121.17l89.23-77.81Z" transform="translate(-183.43 -302.33)"/><path class="cls-3" d="M276.25,341a5,5,0,0,1,5.59-.69c16.78,8.64,97.55,50.24,101,52.29,3.88,2.28,7.48,1.82,10-1.6s16.68-22.59,18.05-25.1.91-5.93-3.88-9.13S306,304.49,303.45,303.12s-8-1.14-11.18,2.05-85.34,73.48-87.85,76.67-21,27.16-21,30.13,3.19,5.93,7.07,3.42C194,413.14,262.09,353.4,276.25,341Z" transform="translate(-183.43 -302.33)"/><path class="cls-4" d="M270.2,446.8s6.71-2.41,10.5,2.84c2.49,3.45.34,11.1-1.72,12s-7-.6-12.91-3.1-34.81-14-37.51-15.4c-5.17-2.67-5.46-9.71-.43-13.42,6.28-4.65,12.73,1.72,12.73,1.72s4.91-3.18,10.15-1.38,7,8.09,7,8.09,3.51-2.61,7.32-.95C270.8,439.57,270.2,446.8,270.2,446.8Z" transform="translate(-183.43 -302.33)"/><path class="cls-4" d="M303.24,446.8s-6.71-2.41-10.5,2.84c-2.49,3.45-.34,11.1,1.72,12s7-.6,12.91-3.1,34.81-14,37.51-15.4c5.16-2.67,5.45-9.71.43-13.42-6.28-4.65-12.73,1.72-12.73,1.72s-4.91-3.18-10.16-1.38-7,8.09-7,8.09-3.5-2.61-7.31-.95C302.63,439.57,303.24,446.8,303.24,446.8Z" transform="translate(-183.43 -302.33)"/><path class="cls-4" d="M287.74,507.48c-39.26,0-56.35-25.42-57.08-26.52a4,4,0,0,1,6.69-4.39c.68,1,16.23,23.76,52.42,22.89,35.62-.86,48.41-23,48.93-23.95a4,4,0,0,1,7,3.86c-.61,1.11-15.32,27.11-55.75,28.09C289.21,507.48,288.47,507.48,287.74,507.48Z" transform="translate(-183.43 -302.33)"/><ellipse class="cls-4" cx="68.66" cy="163.6" rx="7.3" ry="6.9"/><ellipse class="cls-4" cx="140.52" cy="163.6" rx="7.3" ry="6.9"/></svg>