<svg id="Layer_1" data-name="Layer 1" xmlns="http://www.w3.org/2000/svg" xmlns:xlink="http://www.w3.org/1999/xlink" viewBox="0 0 227.41 211.8"><defs><style>.cls-1{fill:none;}.cls-2{fill:#f7eded;}.cls-3{fill:#fff;}.cls-4{fill:#8974b3;}.cls-5{fill:#b69f9e;}.cls-6{fill:#f6b2a4;}.cls-7{clip-path:url(#clip-path);}.cls-8{fill:#f7efef;}.cls-9{clip-path:url(#clip-path-2);}</style><clipPath id="clip-path" transform="translate(-184.06 -303.76)"><path class="cls-1" d="M226.66,313.57C214.34,318.79,206,339.1,209.87,355c2,8.09,7.18,13.19,14.85,8.53,4.74-2.89,45.23-26.81,45.23-26.81s6.36-3.53.09-9.52C262.36,319.89,243,306.64,226.66,313.57Z"/></clipPath><clipPath id="clip-path-2" transform="translate(-184.06 -303.76)"><path class="cls-1" d="M378.18,314.73c-13.22-8.29-29.19-2.57-42,8.58-6.49,5.67-8.72,12.8-.91,17.38,4.83,2.83,41.75,23.9,41.75,23.9s6.18,4,8.75-4.53C388.94,349.65,393.28,324.2,378.18,314.73Z"/></clipPath></defs><path class="cls-2" d="M186.3,364.1s0,117.33.3,121.27,22.52,27.79,26.42,28.8V376.53Z" transform="translate(-184.06 -303.76)"/><path class="cls-3" d="M407.61,385.93s.3,115.5,0,119.75-1.82,9.09-9.4,9.4-178.26.91-182.5,0-6.37-3-6.37-9.7.91-120.66.91-120.66l98.59-57.3Z" transform="translate(-184.06 -303.76)"/><path class="cls-4" d="M308.84,333.48s95.43,54.87,99.38,55.78,4.24-3.63,1.21-6.36S387.29,362.29,383,358.35s-92.15-53.06-94.88-54-7-.91-9.4.6S188.72,358,186,360.16s-2.43,5.46,0,7.58,19.09,18.19,21.22,20,5.76,1.51,9.4-.61Z" transform="translate(-184.06 -303.76)"/><ellipse class="cls-2" cx="123.66" cy="148.54" rx="30.64" ry="25.65"/><path class="cls-5" d="M299.48,452.25c-3.83,0-7-2-8.11-3.53a1.95,1.95,0,0,1,3.15-2.29,7.27,7.27,0,0,0,7.43,1.46c3.9-1.53,4.49-5.81,4.51-6a1.95,1.95,0,0,1,3.87.45c0,.28-.85,6.77-7,9.16A10.62,10.62,0,0,1,299.48,452.25Z" transform="translate(-184.06 -303.76)"/><path class="cls-5" d="M318,452.26a10.84,10.84,0,0,1-3.93-.73c-6.19-2.39-7-8.9-7-9.17a2,2,0,1,1,3.89-.46c0,.17.61,4.45,4.57,6a7.46,7.46,0,0,0,7.56-1.45,2,2,0,1,1,3.15,2.32C325.11,450.23,321.88,452.26,318,452.26Z" transform="translate(-184.06 -303.76)"/><path class="cls-5" d="M309.31,424.53c-5.6.2-13.51,1.58-13,7.1.51,5.27,9.05,11.54,13.09,11.48s12.08-7.63,12-12.34S314.7,424.35,309.31,424.53Z" transform="translate(-184.06 -303.76)"/><ellipse class="cls-5" cx="77.9" cy="121.56" rx="7.33" ry="9.35"/><ellipse class="cls-5" cx="168.21" cy="121.56" rx="7.33" ry="9.35"/><path class="cls-6" d="M243.65,440.76s.33-6.93,5-6.44c6.07.65,5.64,13,3.06,15.61-1.93,1.93-14,1.16-14.88-3.88C235.64,439.23,243.65,440.76,243.65,440.76Z" transform="translate(-184.06 -303.76)"/><path class="cls-6" d="M371.22,440.76s-.32-6.93-5-6.44c-6.07.65-5.63,13-3.05,15.61,1.93,1.93,14,1.16,14.87-3.88C379.23,439.23,371.22,440.76,371.22,440.76Z" transform="translate(-184.06 -303.76)"/><path class="cls-3" d="M226.66,313.57C214.34,318.79,206,339.1,209.87,355c2,8.09,7.18,13.19,14.85,8.53,4.74-2.89,45.23-26.81,45.23-26.81s6.36-3.53.09-9.52C262.36,319.89,243,306.64,226.66,313.57Z" transform="translate(-184.06 -303.76)"/><g class="cls-7"><path class="cls-2" d="M230.71,364.51s-5.78-18.28-4-29.05,9.54-14.23,20.07-10.54,22.07,16.94,22.07,16.94Z" transform="translate(-184.06 -303.76)"/><path class="cls-8" d="M221.88,312.34s-7.38,10.42-7.1,31.18,4.66,26.4,4.66,26.4l-9.78-2.33-6.37-25.45,10.93-25.28Z" transform="translate(-184.06 -303.76)"/></g><path class="cls-3" d="M378.18,314.73c-13.22-8.29-29.19-2.57-42,8.58-6.49,5.67-8.72,12.8-.91,17.38,4.83,2.83,41.75,23.9,41.75,23.9s6.18,4,8.75-4.53C388.94,349.65,393.28,324.2,378.18,314.73Z" transform="translate(-184.06 -303.76)"/><g class="cls-9"><path class="cls-2" d="M333.5,343s11.14-13.91,21.81-17.52,20.31,1.49,21.82,12.67-5.25,27.91-5.25,27.91Z" transform="translate(-184.06 -303.76)"/></g></svg>