<svg id="Layer_1" data-name="Layer 1" xmlns="http://www.w3.org/2000/svg" viewBox="0 0 311.56 248.65"><defs><style>.cls-1{fill:#dab8d9;}.cls-2{fill:#e7cce4;}.cls-3{fill:#c3e5f4;}.cls-4{fill:#b685ba;}.cls-5{fill:#f2accd;}.cls-6{fill:#85c6a3;}.cls-7{fill:#f197bf;}.cls-8{fill:#f6ea93;}</style></defs><path class="cls-1" d="M171.5,504.37c.15,5.12,1,5.44,3.39,8.48,3.91,5,27.13,26,37.37,30.34l1-154.74L170,361S171.41,501.3,171.5,504.37Z" transform="translate(-143.56 -296.27)"/><path class="cls-2" d="M209,392.39s-.39,145.47.71,148.07,2.94,3.76,10.66,4.34,222.51-1.16,225.46-2.31,4.32-3.19,4.78-7.23c.65-5.84.65-137.63.65-137.63L340.11,329.12Z" transform="translate(-143.56 -296.27)"/><path class="cls-3" d="M338.11,337.09a4.09,4.09,0,0,1,4.29-.1c13.16,8,102.06,63.81,107.2,64.58,5.69.84,6.49-3.64,4.59-5.94s-41.36-33.48-44.91-36-98.54-61-101.11-62.43c-2.25-1.27-6.43-1.28-9.78.39-3.89,1.95-129.77,58.79-131.18,60.32s-2.27,3.32-.19,5.32,36.73,31.48,38.57,33.06c3.45,2.94,7,3.84,10.27,2C218.76,396.65,326.29,345,338.11,337.09Z" transform="translate(-143.56 -296.27)"/><ellipse class="cls-4" cx="283.54" cy="464.08" rx="8.74" ry="11.06" transform="translate(-248.19 -213.09) rotate(-14.12)"/><path class="cls-4" d="M330.55,470.37s8.65-10.3,18.23-7.28c10.66,3.35,9.82,25.79.56,33.64s-15.14,9-15.14,9-17.11-1.4-26.21-14.83c-5.91-8.73-1.56-19.1,6.86-23S330.55,470.37,330.55,470.37Z" transform="translate(-143.56 -296.27)"/><path class="cls-5" d="M413.1,477s4.28-9.69,9.84-8.26,4.56,10.82,4.56,10.82,7.22,1.13,7.68,6.24c.43,4.7-7.4,7.16-7.4,7.16s1.85,8-2.85,10.83-10-5.13-10-5.13-7,6-11.4,2.42,2.7-11.83,2.7-11.83-7.55-4.27-5-9.12S413.1,477,413.1,477Z" transform="translate(-143.56 -296.27)"/><path class="cls-5" d="M251.39,477s-4.27-9.69-9.83-8.26S237,479.53,237,479.53s-7.22,1.13-7.69,6.24c-.42,4.7,7.4,7.16,7.4,7.16s-1.85,8,2.85,10.83,10-5.13,10-5.13,7,6,11.4,2.42-2.71-11.83-2.71-11.83,7.55-4.27,5-9.12S251.39,477,251.39,477Z" transform="translate(-143.56 -296.27)"/><path class="cls-4" d="M282.78,461.86s-8.84-2.25-12.67-1.63c-4.18.67-6.78,4.24-.79,6.38s12.75.24,12.75.24Z" transform="translate(-143.56 -296.27)"/><ellipse class="cls-4" cx="378.38" cy="463.46" rx="11.06" ry="8.74" transform="translate(-306.93 421.1) rotate(-75.88)"/><path class="cls-4" d="M379.14,461.24S388,459,391.8,459.61c4.19.67,6.78,4.24.8,6.38s-12.75.24-12.75.24Z" transform="translate(-143.56 -296.27)"/><path class="cls-4" d="M369.36,413.76a9.24,9.24,0,0,1,1.46-1.17,10.43,10.43,0,0,1,1.53-.85,15,15,0,0,1,3.32-1.07,25.24,25.24,0,0,1,7.49-.69,20.76,20.76,0,0,1,7.43,2.1,24.07,24.07,0,0,1,3.16,1.83c.5.34,1,.71,1.45,1.08s.89.75,1.46,1.28a3.52,3.52,0,0,1-4,5.74l-.51-.25-1.09-.54c-.4-.2-.81-.38-1.22-.56a24,24,0,0,0-2.47-.94,23.54,23.54,0,0,0-2.43-.63c-.4-.06-.8-.13-1.18-.16l-.58-.05h-.52a15.62,15.62,0,0,0-2.34.2,23.36,23.36,0,0,0-2.6.51,15.23,15.23,0,0,1-5.65.7l-.54-.06a3.78,3.78,0,0,1-2.21-6.46Z" transform="translate(-143.56 -296.27)"/><path class="cls-4" d="M285.86,421.6a15.41,15.41,0,0,1-5.65-.71,23.81,23.81,0,0,0-2.6-.51,15.74,15.74,0,0,0-2.35-.2h-.51l-.58.05c-.39,0-.78.1-1.18.17a21.3,21.3,0,0,0-2.44.62,24.93,24.93,0,0,0-2.47.94c-.41.18-.81.36-1.21.56l-1.1.54-.5.25a3.53,3.53,0,0,1-4-5.74c.58-.53,1-.88,1.46-1.28s1-.74,1.46-1.08a23.44,23.44,0,0,1,3.16-1.83,20.7,20.7,0,0,1,7.43-2.1,24.94,24.94,0,0,1,7.49.7,15.12,15.12,0,0,1,3.32,1.06,11.44,11.44,0,0,1,1.53.85,9.24,9.24,0,0,1,1.46,1.17,3.78,3.78,0,0,1,.07,5.34,3.72,3.72,0,0,1-2.28,1.12Z" transform="translate(-143.56 -296.27)"/><path class="cls-6" d="M202.23,489.69c-1-1.25-7.89-1.89-16.42,3.63-4.26,2.74-8.66,6-11.66,8.3v-7.89l-10.82-3.12-.14,9.21c-2.11-1.33-4.32-2.66-6.11-3.59-3.35-1.75-11.13-2.39-12.48-.52s0,6.66,5.41,13.11,18.21,10.93,20.29,10.93,9-.52,18.73-8.74C202.14,499.87,203.27,490.94,202.23,489.69Z" transform="translate(-143.56 -296.27)"/><path class="cls-7" d="M165.1,455.23s1.35-3.33,3.85-3.85,2.29.72,4.37.52,5.49-2.21,9.57.41c6.14,4,2.6,10,3.12,12.07s6.35,4.27,7.39,9.89c.61,3.28-4.68,4.37-5,5.82s1.64,3.9-.21,6.67c-2.29,3.43-3.95,2.5-5.41,3.95s-5.51,7.9-13.53,6.66c-9.47-1.45-9.37-7.91-10.82-8.84s-4.14,5-10.51-.11c-8.3-6.69-2.5-15.19-1-17.48,1.12-1.76-2.92-5.41-.42-10.3,2.08-4.07,5.2-3.75,6.45-4.58s3.09-3.34,5.41-3.54C162,452.21,163.12,455.23,165.1,455.23Z" transform="translate(-143.56 -296.27)"/><path class="cls-8" d="M164.58,475.73a2.45,2.45,0,0,0,3.53,2.39c2.5-.94,6.33-10.07,6.87-11.34,1.25-2.92-.1-5.21-3.95-1.88A21,21,0,0,0,164.58,475.73Z" transform="translate(-143.56 -296.27)"/></svg>