<svg id="Layer_1" data-name="Layer 1" xmlns="http://www.w3.org/2000/svg" viewBox="0 0 255.46 234.64"><defs><style>.cls-1{fill:#f7c4a8;}.cls-2{fill:#fbd5c0;}.cls-3{fill:#96cdaf;}.cls-4{fill:#f6b2a4;}.cls-5{fill:#d69978;}</style></defs><path class="cls-1" d="M173,496.77c.16,5.85.74,6.71,3.68,9.69,5.05,5.08,26.86,23.13,37.43,30L214,384.67l-41-27.81S172.86,493.26,173,496.77Z" transform="translate(-169.95 -303.53)"/><path class="cls-2" d="M210.7,382.08s.12,148.07.77,150.84c.4,1.67,2.37,4.72,7.49,5,6.7.38,191.49.45,196.35-1.1,4.45-1.43,5.86-4,6-10.57.1-4.18.49-139.43.49-139.43L316.94,335.56Z" transform="translate(-169.95 -303.53)"/><path class="cls-3" d="M315.41,344.94a8,8,0,0,1,6-.36c5.22,2.26,93.75,44.12,98.88,45,4.54.77,6.25-3.21,4.35-5.52S385.73,354,382.18,351.47s-97.12-45.27-100.31-46.82c-2.33-1.13-7.49-1.77-10.83-.1-3.9,1.95-97.32,47.71-99,48.93-2.86,2.08-2.55,5-.48,7s35.72,27.69,37.56,29.26c3.45,2.94,5.92,3,9.37,1.63S302.33,350.47,315.41,344.94Z" transform="translate(-169.95 -303.53)"/><path class="cls-4" d="M249,460.65c-7.56-.64-15.12,4.17-15.65,12.88-.58,9.49,7.86,14.76,13.19,14.92,6.86.2,13.86-4.12,14.77-12.58A14,14,0,0,0,249,460.65Z" transform="translate(-169.95 -303.53)"/><path class="cls-4" d="M393,452.28c-7.57-.64-15.13,4.17-15.66,12.88-.57,9.49,7.87,14.76,13.2,14.91,6.86.21,13.86-4.12,14.77-12.58A14,14,0,0,0,393,452.28Z" transform="translate(-169.95 -303.53)"/><path class="cls-5" d="M290,443.35a17.53,17.53,0,0,1,.8,5.07c.11,8.48-4.72,13.28-9.87,13.56-3.78.21-10.08-4-11.13-12.43-.06-.48-.11-1-.13-1.49Z" transform="translate(-169.95 -303.53)"/><path class="cls-5" d="M368.15,437.77a17.48,17.48,0,0,1,.8,5.07c.11,8.48-4.72,13.28-9.87,13.56C355.3,456.61,349,452.45,348,444c-.06-.48-.11-1-.13-1.5Z" transform="translate(-169.95 -303.53)"/><path class="cls-5" d="M306.81,475.25a3.11,3.11,0,0,1-1.87-5.58c.94-.7,9.34-6.86,15.38-6.78,6.47.12,15.46,5.21,16.46,5.79a3.1,3.1,0,0,1-3.1,5.38c-2.35-1.36-9.34-4.88-13.47-5h-.07c-2.84,0-8.39,3.22-11.46,5.53A3.09,3.09,0,0,1,306.81,475.25Z" transform="translate(-169.95 -303.53)"/><path class="cls-5" d="M260.86,448.88c2.92-1.07,5.83-2,8.78-2.86s5.92-1.65,8.91-2.35,6-1.32,9-1.89c1.52-.28,3-.52,4.58-.7.77-.09,1.54-.18,2.31-.24a4.27,4.27,0,0,1,2.38.32,2.94,2.94,0,0,1,1.39,3.91,2.79,2.79,0,0,1-.76,1l-.09.07a4.06,4.06,0,0,1-2.14.88c-.74.1-1.47.23-2.2.36-1.48.23-2.95.47-4.43.68-2.95.44-5.91.93-8.86,1.49s-5.9,1.09-8.85,1.68L262.09,453h0a2.17,2.17,0,0,1-1.18-4.16Z" transform="translate(-169.95 -303.53)"/><path class="cls-5" d="M339.47,443.07c2.92-1.07,5.82-2,8.78-2.86s5.91-1.65,8.9-2.35,6-1.32,9-1.89c1.52-.29,3.05-.53,4.59-.71q1.14-.13,2.31-.24a4.24,4.24,0,0,1,2.37.33,2.93,2.93,0,0,1,.63,4.9l-.08.07a4,4,0,0,1-2.15.87c-.73.11-1.47.24-2.2.37-1.47.23-2.94.46-4.42.67-3,.45-5.91.93-8.86,1.49s-5.91,1.09-8.86,1.69l-8.83,1.81h0a2.17,2.17,0,0,1-1.18-4.16Z" transform="translate(-169.95 -303.53)"/></svg>