<svg id="Layer_1" data-name="Layer 1" xmlns="http://www.w3.org/2000/svg" viewBox="0 0 210.96 255.9"><defs><style>.cls-1{fill:#f3c57c;}.cls-2{fill:#fcd798;}.cls-3{fill:#ee8b7a;}.cls-4{fill:#cc8c57;}.cls-5{fill:#daad60;}.cls-6{fill:#e0897a;}.cls-7{fill:#f6b2a4;}</style></defs><path class="cls-1" d="M397.47,510.94c-.16,5.33-.7,6.55-3.3,9.71-4.32,5.26-27.63,26.71-34.87,27.24l.95-159.58L399,361.71S397.57,507.74,397.47,510.94Z" transform="translate(-192.48 -292.7)"/><path class="cls-2" d="M365,393.91s-.06,148.49-.84,150.77-2.08,3.31-7.56,3.82-157.76-1-159.85-2-3.65-2.79-3.39-6.35S195,391.21,195,391.21l93.33-66.16Z" transform="translate(-192.48 -292.7)"/><path class="cls-3" d="M289.11,332.52a3.22,3.22,0,0,0-3.74-.1c-11.46,8-83.42,60.8-87.88,61.67-4.66.9-5.93-2.7-4.38-5.07,2.08-3.2,31.28-27.18,34.38-29.73s91.49-64.16,93.74-65.62c1.95-1.27,5-1.4,7.91.27,3.39,1.95,71.82,64.71,73.05,66.23s2,3.33.17,5.33S372,393.58,370.42,395.15c-3,2.94-6.14,3.85-8.95,2C359,395.54,299.41,340.4,289.11,332.52Z" transform="translate(-192.48 -292.7)"/><path class="cls-4" d="M229,447.72a3.63,3.63,0,0,1-1.43-.3,3.51,3.51,0,0,1-1.76-4.63c.23-.5,5.58-12.15,17-10.54,9,1.26,13.64,9.86,13.83,10.23a3.5,3.5,0,0,1-6.18,3.28c-.07-.13-3.24-5.82-8.62-6.58-6.25-.88-9.62,6.4-9.65,6.48A3.49,3.49,0,0,1,229,447.72Z" transform="translate(-192.48 -292.7)"/><path class="cls-4" d="M329.3,448.54a3.52,3.52,0,0,1-3.2-2.06c-.13-.29-3.47-7.35-9.65-6.48-5.41.76-8.59,6.53-8.62,6.58a3.5,3.5,0,0,1-6.18-3.28c.19-.37,4.83-9,13.83-10.23,11.41-1.61,16.79,10,17,10.54a3.51,3.51,0,0,1-1.76,4.63A3.63,3.63,0,0,1,329.3,448.54Z" transform="translate(-192.48 -292.7)"/><circle class="cls-5" cx="141.53" cy="168.85" r="2.86"/><circle class="cls-5" cx="153.13" cy="159.98" r="2.86"/><circle class="cls-5" cx="156.49" cy="172.21" r="2.86"/><circle class="cls-5" cx="230.26" cy="458.24" r="2.86" transform="translate(-284 -233.79) rotate(-12.18)"/><circle class="cls-5" cx="220.18" cy="467" r="2.86" transform="translate(-286.08 -235.72) rotate(-12.18)"/><circle class="cls-5" cx="214.02" cy="457.5" r="2.86" transform="translate(-284.21 -237.23) rotate(-12.18)"/><ellipse class="cls-6" cx="280.02" cy="460.91" rx="18.27" ry="20.9" transform="translate(-200.24 -287.9) rotate(-0.97)"/><path class="cls-7" d="M281.09,457c-6.84.38-13.81,2.82-19.27,5.31.66,11,8.7,19.64,18.45,19.54,10.09-.1,18.16-9.53,18-21.07,0-.45,0-.89-.07-1.33A52.26,52.26,0,0,0,281.09,457Z" transform="translate(-192.48 -292.7)"/></svg>