<svg id="Layer_1" data-name="Layer 1" xmlns="http://www.w3.org/2000/svg" viewBox="0 0 250.06 261.51"><defs><style>.cls-1{fill:#f0cc63;}.cls-2{fill:#fbdc7e;}.cls-3{fill:#bd7f65;}.cls-4{fill:#ae6f52;}.cls-5{fill:#f4a596;}</style></defs><path class="cls-1" d="M178.79,508.34c.17,3.57,1.12,5.44,3.69,8.48,4.25,5,25.23,28.76,36.36,33.12l.83-116.89-40.84-32S178.65,505.27,178.79,508.34Z" transform="translate(-172.62 -289.77)"/><path class="cls-2" d="M212,427.88s0,111.92,1,114.61,3.57,8,10.26,8.65,191.89-.88,194.44-2.07,4.46-3.29,4.14-7.47-2-133.41-2-133.41L318.87,352.51Z" transform="translate(-172.62 -289.77)"/><path class="cls-3" d="M318.47,361.33a3.92,3.92,0,0,1,4.17-.1c12.79,8,90.39,49,95.27,50.3,3.47.93,6-2,4.15-4.35s-31.56-28.83-35-31.38-94.16-50.5-96.66-52a8.26,8.26,0,0,0-8.7.24c-2.46,1.65-106.31,75.57-107.68,77.09s-2.2,3.33-.18,5.33,30.41,28.26,32.2,29.83c3.35,2.94,6.85,3.85,10,2C218.82,436.73,307,369.2,318.47,361.33Z" transform="translate(-172.62 -289.77)"/><ellipse class="cls-4" cx="328.05" cy="484.65" rx="15.23" ry="18.66" transform="translate(-177.99 -286.09) rotate(-0.64)"/><path class="cls-5" d="M328.94,481.11c-5.71.34-11.51,2.53-16.06,4.74.55,9.82,7.25,17.55,15.37,17.46,8.41-.09,15.13-8.51,15-18.82,0-.4,0-.79-.06-1.19A41,41,0,0,0,328.94,481.11Z" transform="translate(-172.62 -289.77)"/><ellipse class="cls-4" cx="110.22" cy="177.94" rx="8.83" ry="12.09"/><ellipse class="cls-4" cx="200.3" cy="177.94" rx="8.83" ry="12.09"/><path class="cls-5" d="M258.38,473.06c-2.28-.31-15.27,9.62-16.24,11.25s-.48,11.59.13,12.63,13.08,11.48,16.23,11.71,13.56-10,14.29-11.13.36-11.59.12-13.21S260.07,473.29,258.38,473.06Z" transform="translate(-172.62 -289.77)"/><path class="cls-5" d="M396.17,474c-2.28-.31-15.26,9.62-16.23,11.25s-.49,11.59.12,12.63,13.08,11.48,16.23,11.71,13.57-10,14.29-11.13.37-11.59.13-13.21S397.87,474.18,396.17,474Z" transform="translate(-172.62 -289.77)"/><path class="cls-4" d="M364.39,313.29s-10.05.83-9.26,8,13.18,6.25,15.46-1.28c1.41-4.65.11-8.74-.57-11-.94-3.12-4-13.6-4-13.6s6.24,2.67,8.07,7.25,4.49,4.92,5.67,4.14.65-6.41-3.66-11.13-11-6.15-13.35-5.88-3.14,2-2.88,4.58S364.39,313.29,364.39,313.29Z" transform="translate(-172.62 -289.77)"/><path class="cls-2" d="M343.24,325.13c-.29,1.42-.14,35.6.13,36.91s3.53,2.75,5.23,3.66,27.22,14.27,29.58,14.79,3.66-1.3,3.8-4.18,0-48.69-.14-50.13,0-3.93-3-3.93-31.14,0-33,.13S343.5,323.82,343.24,325.13Z" transform="translate(-172.62 -289.77)"/></svg>