<svg id="Layer_1" data-name="Layer 1" xmlns="http://www.w3.org/2000/svg" xmlns:xlink="http://www.w3.org/1999/xlink" viewBox="0 0 217.15 291.92"><defs><style>.cls-1{fill:none;}.cls-2{fill:#df7361;}.cls-3{fill:#ee8b7a;}.cls-4{fill:#63a13c;}.cls-5{fill:#fef8e5;}.cls-6{fill:#b95847;}.cls-7{fill:#f9c9ca;}.cls-8{clip-path:url(#clip-path);}.cls-9{fill:#e9bcb8;}.cls-10{fill:#fff;}.cls-11{fill:#dad6d5;}</style><clipPath id="clip-path" transform="translate(-189.47 -277.01)"><path class="cls-1" d="M284.38,510c6.08.18,9.75-5.53,14.74-3.57,6.61,2.59,5.09,14.29-2.14,18.93s-17.42,4.65-24.39-1.51-7.14-17.11,0-17.87C276.79,505.5,277.51,509.77,284.38,510Z"/></clipPath></defs><path class="cls-2" d="M402.72,420.83s-.91,117.32-1.11,120.36a11.25,11.25,0,0,1-2.81,7.18c-1.61,1.65-23.41,18.91-25.74,19.69l.25-124.9Z" transform="translate(-189.47 -277.01)"/><path class="cls-3" d="M377.77,442.07s-.34,111.79-.79,118.48c-.38,5.77-1.73,7.67-7.43,8.22s-166.08-.42-169.31-1-5-3-5.2-7.12.74-123.82.74-123.82l85.52-63.13Z" transform="translate(-189.47 -277.01)"/><path class="cls-4" d="M287.05,381.75a4.54,4.54,0,0,0-5.41-.24c-13.65,8.95-84.29,60.57-88.27,62.08-4.83,1.84-4.83-4.64-1.86-7.23s18.9-17.78,23.84-22.29c7.66-7,90.91-64.86,92.82-66.16a5.31,5.31,0,0,1,6.38,0c2.13,1.56,89.24,70.64,90.94,72.46a5.26,5.26,0,0,1-.64,7.2c-2.13,1.61-21.28,21.05-23.19,22.6s-4.26,1.3-7.87-2.07C370.6,445.13,299.71,391.56,287.05,381.75Z" transform="translate(-189.47 -277.01)"/><path class="cls-5" d="M284.38,510c6.08.18,9.75-5.53,14.74-3.57,6.61,2.59,5.09,14.29-2.14,18.93s-17.42,4.65-24.39-1.51-7.14-17.11,0-17.87C276.79,505.5,277.51,509.77,284.38,510Z" transform="translate(-189.47 -277.01)"/><path class="cls-6" d="M268.21,502.24a3,3,0,0,1-2.57-1.44l-15-24.78-15.22,24.79a3,3,0,1,1-5.11-3.14l17.78-29a3,3,0,0,1,2.56-1.43h0a3,3,0,0,1,2.56,1.45l17.58,29a3,3,0,0,1-1,4.12A2.94,2.94,0,0,1,268.21,502.24Z" transform="translate(-189.47 -277.01)"/><path class="cls-6" d="M338.43,502.24a3,3,0,0,1-2.57-1.44l-15-24.78-15.21,24.79a3,3,0,0,1-5.12-3.14l17.79-29a3,3,0,0,1,2.55-1.43h0a3,3,0,0,1,2.56,1.45l17.58,29a3,3,0,0,1-2.56,4.56Z" transform="translate(-189.47 -277.01)"/><path class="cls-7" d="M363.73,509.83a3,3,0,0,1-1.45-.37,3,3,0,0,1-1.17-4.08,20.52,20.52,0,0,0,2.39-6.63c-.74.63-1.72,1.69-2.39,2.41-2.46,2.67-5.53,6-9.43,5a5,5,0,0,1-3.37-2.81c-1.57-3.44.71-8.54,1.44-10a3,3,0,1,1,5.38,2.66,15.25,15.25,0,0,0-1.32,3.95,26.72,26.72,0,0,0,2.9-2.83c2.41-2.61,5.41-5.85,9.11-4.5a5.43,5.43,0,0,1,3.25,3.24c1.56,4.19-1.68,10.59-2.71,12.46A3,3,0,0,1,363.73,509.83Z" transform="translate(-189.47 -277.01)"/><path class="cls-7" d="M220.06,509.83a3,3,0,0,1-1.45-.37,3,3,0,0,1-1.17-4.08,20.52,20.52,0,0,0,2.39-6.63c-.74.63-1.72,1.69-2.39,2.41-2.46,2.67-5.53,6-9.43,5a5,5,0,0,1-3.37-2.81c-1.57-3.44.7-8.54,1.44-10a3,3,0,1,1,5.38,2.66,15.25,15.25,0,0,0-1.32,3.95,27.66,27.66,0,0,0,2.9-2.83c2.4-2.61,5.41-5.85,9.11-4.5a5.43,5.43,0,0,1,3.25,3.24c1.56,4.19-1.68,10.59-2.71,12.46A3,3,0,0,1,220.06,509.83Z" transform="translate(-189.47 -277.01)"/><g class="cls-8"><path class="cls-9" d="M292.57,531.78a34,34,0,0,1-5.73-13.43c-1.17-6.74,2.18-15,2.32-15.38l2.78,1.13c0,.08-3.17,7.85-2.15,13.74A31.66,31.66,0,0,0,295,530Z" transform="translate(-189.47 -277.01)"/><path class="cls-9" d="M279.11,532.38a34.13,34.13,0,0,1-3.52-14.16c-.07-6.85,4.55-14.5,4.75-14.82L282.9,505c0,.07-4.37,7.25-4.31,13.22a31.71,31.71,0,0,0,3.17,12.8Z" transform="translate(-189.47 -277.01)"/></g><path class="cls-10" d="M343.38,354.71S338.7,342.37,336.6,337s-9.6-20.72-6.45-37.58,20.73-27.5,30.73-20,.73,28.79-3.79,37.91-9.32,27.9-9.72,36.37Z" transform="translate(-189.47 -277.01)"/><path class="cls-11" d="M350,295.66c-1.12-.28-2.4.84-3.82,3.33a1,1,0,0,0,1.74,1,10,10,0,0,1,1.7-2.28,7.69,7.69,0,0,1,1.21,2,1,1,0,1,0,1.84-.78C352.34,298.07,351.33,296,350,295.66Z" transform="translate(-189.47 -277.01)"/><path class="cls-11" d="M361.79,291.12a1,1,0,0,0-1.18-.78l-6,1.23a1,1,0,0,0-.78,1.18,1,1,0,0,0,1,.8l.2,0,.88-.18c-.12,1-.2,2.66.39,3.19,2.11,1.88,3.2-2.2,3.56-4l1.2-.24A1,1,0,0,0,361.79,291.12Z" transform="translate(-189.47 -277.01)"/><path class="cls-11" d="M346.62,292.7a1,1,0,0,0-.78-1.18l-6-1.23a1,1,0,0,0-.4,2l1.2.24c.37,1.8,1.46,5.88,3.56,4,.59-.53.51-2.18.4-3.19l.87.18a.71.71,0,0,0,.2,0A1,1,0,0,0,346.62,292.7Z" transform="translate(-189.47 -277.01)"/><path class="cls-3" d="M360.43,351.45c.05,3.87-.54,50.6-1.59,53.92s-3.54,2.42-6,1.1c-3.51-1.84-18.3-10.38-20.54-14.66-2.07-3.95-.82-37.05-.61-40.65s1.66-5.09,3.75-5.36,20.53-.13,22.41.43S360.41,349.52,360.43,351.45Z" transform="translate(-189.47 -277.01)"/></svg>