<svg id="Layer_1" data-name="Layer 1" xmlns="http://www.w3.org/2000/svg" xmlns:xlink="http://www.w3.org/1999/xlink" viewBox="0 0 259.22 239"><defs><style>.cls-1{fill:none;}.cls-2{fill:#f7eded;}.cls-3{fill:#fff;}.cls-4{fill:#f0827a;}.cls-5{fill:#b69f9e;}.cls-6{fill:#f9c9ca;}.cls-7{clip-path:url(#clip-path);}</style><clipPath id="clip-path" transform="translate(-168.59 -301.93)"><path class="cls-1" d="M282.33,342.56a5.26,5.26,0,0,0-6.43.18C258,355.07,176.39,411.57,173,413.09c-3.88,1.72-6.14-1.25-2.63-5.77s20.56-22.76,23.58-26.43S297.39,309.67,299.7,308a7.39,7.39,0,0,1,8.2-.64c2.76,1.67,115.91,66.81,117.84,68.26a5.36,5.36,0,0,1,.65,7.84c-2.53,2.89-20.57,23.81-22.62,25.44s-4.44,1.75-8,0C392.66,407.36,300.87,354.1,282.33,342.56Z"/></clipPath></defs><path class="cls-2" d="M419.73,384.13s-.21,123.54-.42,127.27a14.83,14.83,0,0,1-3.58,9c-2.66,2.91-14.46,17.87-17.75,19.14l-2.67-4.6L397,407.63Z" transform="translate(-168.59 -301.93)"/><path class="cls-3" d="M401,406.15s.52,121.91,0,126.7-2.08,6.93-7,7.46-211.59,1.07-215.5,0-5-3.73-5-6.39-1.08-126-1.08-126l107-73.2Z" transform="translate(-168.59 -301.93)"/><path class="cls-4" d="M282.33,342.74a5.24,5.24,0,0,0-6.43.17C258,355.24,176.39,411.75,173,413.26c-3.88,1.72-6.14-1.25-2.63-5.77s20.56-22.76,23.58-26.43S297.39,309.85,299.7,308.2a7.39,7.39,0,0,1,8.2-.63c2.76,1.66,115.91,66.81,117.84,68.26a5.35,5.35,0,0,1,.65,7.83c-2.53,2.89-20.57,23.81-22.62,25.45s-4.44,1.74-8,0C392.66,407.54,300.87,354.28,282.33,342.74Z" transform="translate(-168.59 -301.93)"/><path class="cls-5" d="M241.16,439.11c2.91.17,5.85,3.63,5.43,7.84-.35,3.6-3.25,6.48-6.15,6.48-3.95,0-6.35-3.18-6.15-7.16C234.52,441.53,237.91,438.92,241.16,439.11Z" transform="translate(-168.59 -301.93)"/><ellipse class="cls-6" cx="40.17" cy="170.33" rx="19.41" ry="19.38"/><path class="cls-5" d="M321.05,438.2c-2.91.17-5.84,3.63-5.43,7.84.36,3.6,3.26,6.48,6.16,6.48,4,0,6.35-3.18,6.15-7.16C327.7,440.62,324.31,438,321.05,438.2Z" transform="translate(-168.59 -301.93)"/><ellipse class="cls-6" cx="183.74" cy="171.47" rx="19.41" ry="19.38"/><path class="cls-6" d="M266.23,475.28s-9.05-7.28-8-16.4c1.37-11.62,15.56-21,28.72-15.5,14.12,5.93,16.24,24.62,14.81,33.5-2,12.76-11.46,25.11-23.24,23.93C260.31,499,266.23,475.28,266.23,475.28Z" transform="translate(-168.59 -301.93)"/><path class="cls-5" d="M266.23,475.28a35.92,35.92,0,0,0-.42,13.64,30.8,30.8,0,0,1,11.13-15.23c8.07-5.75,18.28-5.45,25.15-4.29-.51-9.38-4.27-21.47-15.12-26-13.16-5.52-27.35,3.88-28.72,15.5C257.18,468,266.23,475.28,266.23,475.28Z" transform="translate(-168.59 -301.93)"/><path class="cls-5" d="M331.67,419.9a2.48,2.48,0,0,1-2-1c-1-1.38-4.39-5.05-7.8-5.36-2.21-.17-5.75,2.51-7.11,3.84a2.5,2.5,0,0,1-3.51-3.56c.59-.58,6-5.71,11.06-5.26,6.39.57,11.21,7.13,11.41,7.41a2.49,2.49,0,0,1-2,4Z" transform="translate(-168.59 -301.93)"/><path class="cls-5" d="M228.18,420.91a2.49,2.49,0,0,0,2-1c1-1.38,4.39-5.05,7.8-5.36,2.21-.17,5.75,2.51,7.11,3.84a2.5,2.5,0,0,0,3.51-3.56c-.59-.58-6-5.71-11.06-5.26-6.39.57-11.21,7.13-11.41,7.41a2.51,2.51,0,0,0,2,4Z" transform="translate(-168.59 -301.93)"/><g class="cls-7"><path class="cls-3" d="M318.2,302.16c9.43-2.26,26.08,12.91,23.19,23.65s-21.74,10.73-28.29,3.67S306.37,305,318.2,302.16Z" transform="translate(-168.59 -301.93)"/><path class="cls-3" d="M332.08,343.69c10.37-3.93,27.72,5.1,26.16,15.05s-18.75,11.11-27.32,6.32S319.08,348.62,332.08,343.69Z" transform="translate(-168.59 -301.93)"/><path class="cls-3" d="M391.91,394.86c-12.24-.19-25.59-18.35-19.47-29s24-4.21,30.41,5.13S407.27,395.1,391.91,394.86Z" transform="translate(-168.59 -301.93)"/><path class="cls-3" d="M292.32,330.4c3.75-2.63,8.82-1.27,9.37,3.67s-5.75,8-9.63,5.92C289.16,338.41,287.61,333.7,292.32,330.4Z" transform="translate(-168.59 -301.93)"/><path class="cls-3" d="M238.08,355.05c3.94-3.55,9.38-4.2,10.08-.24s-5.95,8.8-10.13,8.4C234.9,362.91,233.13,359.49,238.08,355.05Z" transform="translate(-168.59 -301.93)"/><path class="cls-3" d="M179.39,387.34s12.77,6.38,25.11-4.25S213,357.56,213,357.56L183.65,373.4Z" transform="translate(-168.59 -301.93)"/></g></svg>