<svg id="Layer_1" data-name="Layer 1" xmlns="http://www.w3.org/2000/svg" viewBox="0 0 261.28 239.41"><defs><style>.cls-1{fill:#df7361;}.cls-2{fill:#ee8b7a;}.cls-3{fill:#8ec695;}.cls-4{fill:#f8bfb3;}.cls-5{fill:#bc5544;}</style></defs><path class="cls-1" d="M418.13,374.74s-.28,109.8-.56,114.82S416.46,501,411.72,506s-30.18,32.84-34.18,33.15l-.38-141.56Z" transform="translate(-167.2 -300.96)"/><path class="cls-2" d="M381.45,405.39s0,128.33-1,130.79-2.54,3.54-9.23,4.08-192.78-1.09-195.33-2.18a6.18,6.18,0,0,1-4.14-6.81c.32-3.82,2-116.8,2-116.8L271,346Z" transform="translate(-167.2 -300.96)"/><path class="cls-3" d="M276.26,353a8.53,8.53,0,0,0-7.39,0c-13.15,8.54-91.34,67.13-96.49,67.95-5.69.91-6-3.18-4.28-5.8,2.49-3.87,41.2-41.06,44.76-43.79s93.74-67.17,96.28-68.78a10.91,10.91,0,0,1,10.88-.32c3.9,2.08,105.61,61.61,107,63.25s2.27,3.56.2,5.71-38.81,38-40.65,39.64c-3.45,3.16-6,3.75-10.27,2.17C373.14,411.86,289,360,276.26,353Z" transform="translate(-167.2 -300.96)"/><circle class="cls-4" cx="182.84" cy="182.13" r="15.42"/><circle class="cls-4" cx="32.76" cy="182.13" r="15.42"/><circle class="cls-5" cx="146.06" cy="165.85" r="10.87"/><path class="cls-5" d="M302.53,463a2.65,2.65,0,0,1-2.42-1.54,2.51,2.51,0,0,1,1.38-3.33l27.82-11.52a2.66,2.66,0,0,1,3.44,1.34,2.51,2.51,0,0,1-1.38,3.33l-27.81,11.51A2.71,2.71,0,0,1,302.53,463Z" transform="translate(-167.2 -300.96)"/><path class="cls-5" d="M269,482.83c-.44,3.15.28,15.52,12.94,20,14.3,5,25.83-4.61,28.61-8.32,3.63-4.87,2.26-8.49-4.53-7.64A13.91,13.91,0,0,1,292.71,481c-2.07-2.81-5.38-9.24-13.18-8.19A11.89,11.89,0,0,0,269,482.83Z" transform="translate(-167.2 -300.96)"/><circle class="cls-5" cx="65.96" cy="165.85" r="10.87"/><path class="cls-5" d="M243.89,463a2.62,2.62,0,0,0,2.41-1.54,2.51,2.51,0,0,0-1.38-3.33l-27.81-11.52a2.66,2.66,0,0,0-3.44,1.34,2.51,2.51,0,0,0,1.38,3.33l27.81,11.51A2.71,2.71,0,0,0,243.89,463Z" transform="translate(-167.2 -300.96)"/><path class="cls-5" d="M276.46,482.83c.44,3.15-.29,15.52-12.94,20-14.31,5-25.84-4.61-28.61-8.32-3.63-4.87-2.26-8.49,4.52-7.64A13.89,13.89,0,0,0,252.7,481c2.07-2.81,5.39-9.24,13.18-8.19A11.89,11.89,0,0,1,276.46,482.83Z" transform="translate(-167.2 -300.96)"/></svg>