<svg id="Layer_1" data-name="Layer 1" xmlns="http://www.w3.org/2000/svg" viewBox="0 0 213.7 227.29"><defs><style>.cls-1{fill:#afd4a1;}.cls-2{fill:#cae2be;}.cls-3{fill:#90c683;}.cls-4{fill:#eaf3e3;}.cls-5{fill:#e0cbe4;}</style></defs><path class="cls-1" d="M398.31,382.22s.34,118.24,0,120.07a13.54,13.54,0,0,1-3.66,7.32c-2.66,2.83-25.35,24.06-29.8,24.17V395.36Z" transform="translate(-191.31 -307.26)"/><path class="cls-2" d="M370.7,403.67s.84,119.74.5,123.4-4.49,6.81-8.48,7.14-156.66.34-160.31.34-5-3.16-5.16-7-.17-132.71-.17-132.71l90.81-58.71Z" transform="translate(-191.31 -307.26)"/><path class="cls-3" d="M257.57,456.38a2.5,2.5,0,0,1-2.25-1.4c-1-2.12-4.67-7.65-8.8-7.78-4.38-.13-9.63,5.45-11.31,7.61a2.5,2.5,0,0,1-4-3.06c.77-1,7.6-9.55,15.12-9.55h.3c8,.24,12.93,10.15,13.14,10.57a2.5,2.5,0,0,1-2.24,3.6Z" transform="translate(-191.31 -307.26)"/><path class="cls-3" d="M331.53,456.44a2.49,2.49,0,0,1-2.06-1.08c-1.56-2.25-6.55-8.11-10.88-8.21-4.16-.07-8,5.22-9.21,7.28A2.5,2.5,0,1,1,305,452c.22-.4,5.59-9.84,13.45-9.84h.24c7.64.18,14.16,9.33,14.88,10.37a2.51,2.51,0,0,1-.65,3.48A2.45,2.45,0,0,1,331.53,456.44Z" transform="translate(-191.31 -307.26)"/><path class="cls-3" d="M281.9,468.74c-5.68,0-10.81-6.62-11.38-7.38a2.5,2.5,0,0,1,4-3h0c1.33,1.76,4.87,5.38,7.38,5.38,2.2,0,5.46-3.52,7.07-6a2.5,2.5,0,1,1,4.21,2.69C292.63,461.26,287.69,468.74,281.9,468.74Z" transform="translate(-191.31 -307.26)"/><path class="cls-4" d="M210,466.61s-1.8-5.43,1.05-7.55c3.75-2.78,8.76,2.12,8.76,2.12s4.17-4.07,8.18-1.61c2.8,1.7,1.41,6.67,1.41,6.67s3.53,4.57,2.2,8c-1.57,4-7.18,3.79-7.18,3.79s-1,5.14-5,5.59c-4.32.48-6.38-4.79-6.38-4.79s-5.62-.45-6.78-4C204.82,470.31,210,466.61,210,466.61Z" transform="translate(-191.31 -307.26)"/><path class="cls-4" d="M343.1,460.14s3.33-4.64,6.72-3.58c4.45,1.39,3.44,8.32,3.44,8.32s5.74,1,6.12,5.67c.27,3.26-4.57,5.07-4.57,5.07s-1.61,5.53-5.16,6.47c-4.17,1.09-7.29-3.58-7.29-3.58s-4.75,2.2-7.45-.74c-2.93-3.21.12-8,.12-8s-2.95-4.8-.77-7.83C337,458.11,343.1,460.14,343.1,460.14Z" transform="translate(-191.31 -307.26)"/><path class="cls-5" d="M285.26,343a3.73,3.73,0,0,1,4.4.26c12.61,10.42,77.71,64.23,79.21,65.28,1.67,1.16,4.16,1.83,7.16-.34S403,384.22,404.3,382.05s.83-3.65-1.67-6.15-83-66.52-84.31-67.68-4.49-1.5-7.32.33-88.14,57.87-90,59-28.26,25.25-29.27,27.27c-1.66,3.33,1.5,6.65,5.66,4.49C201.17,397.4,271.58,351.82,285.26,343Z" transform="translate(-191.31 -307.26)"/></svg>