<svg id="Layer_1" data-name="Layer 1" xmlns="http://www.w3.org/2000/svg" viewBox="0 0 224.31 226.66"><defs><style>.cls-1{fill:#a6cf8d;}.cls-2{fill:#c1dcaa;}.cls-3{fill:#7abc66;}.cls-4{fill:#f6b3a5;}.cls-5{fill:#f6b2a4;}.cls-6{fill:#c2ddab;}.cls-7{fill:#6ab35a;}.cls-8{fill:#8dc478;}</style></defs><path class="cls-1" d="M404.2,370.64s-.46,125.51-.8,128.89a21.23,21.23,0,0,1-4.26,11.21c-3,4-29.53,24-36.78,23l10.45-142.47Z" transform="translate(-185.44 -307.34)"/><path class="cls-2" d="M376.35,386.85s.55,122-1.17,134.67c-1.12,8.28-6.81,11.59-12.82,12.18s-158.27.36-163.25-1c-5.48-1.46-10-5-10.45-12.28-.28-4.1,1.56-131.42,1.56-131.42l90.06-58.13Z" transform="translate(-185.44 -307.34)"/><path class="cls-3" d="M244.53,470.66h-.11c-9.7-.08-12.28-9-12.29-13.65a2.49,2.49,0,0,1,2.49-2.51h0a2.5,2.5,0,0,1,2.5,2.48c0,.89.29,8.62,7.33,8.68a5,5,0,0,0,4.06-1.53c1.89-2.19,1.73-6.43,1.51-7.88a2.5,2.5,0,0,1,4.94-.78c.12.77,1.07,7.58-2.66,11.91A9.78,9.78,0,0,1,244.53,470.66Z" transform="translate(-185.44 -307.34)"/><path class="cls-3" d="M279.2,502h0a2.53,2.53,0,0,1-1.82-.82c-1.64-1.8-6.67-6.65-10.18-7.41s-8.11-.32-12.6.11c-4.73.44-9.19.87-12.68,0-6.9-1.73-12.16-7.14-12.38-7.37a2.5,2.5,0,1,1,3.6-3.47c.09.09,4.54,4.62,10,6,2.66.67,6.71.29,11-.12,4.87-.46,9.91-.94,14.14,0s8.56,4.72,11,7.09c2.49-2.27,7.08-6,11.48-7s9.82-.54,15-.07a66,66,0,0,0,9.06.44c5.79-.33,11.25-5.87,11.3-5.92a2.5,2.5,0,0,1,3.59,3.48c-.27.28-6.85,7-14.61,7.43a69.12,69.12,0,0,1-9.8-.45c-4.77-.43-9.72-.88-13.42,0-4,.92-9.18,5.63-10.82,7.37A2.55,2.55,0,0,1,279.2,502Z" transform="translate(-185.44 -307.34)"/><path class="cls-4" d="M213.26,482.58s4.51-4.91,8-2.55-1.16,15.31-8,14.91-13.06-9.88-9.23-14.13C209.33,474.92,213.26,482.58,213.26,482.58Z" transform="translate(-185.44 -307.34)"/><path class="cls-4" d="M350,483.25s4.51-4.9,8-2.55-1.16,15.31-8,14.92-13.06-9.88-9.23-14.13C346.05,475.6,350,483.25,350,483.25Z" transform="translate(-185.44 -307.34)"/><path class="cls-3" d="M271.87,477.9a2.48,2.48,0,0,1-1.56-.55,14.63,14.63,0,0,1-3.92-4.56,2.5,2.5,0,0,1,4.48-2.23,10.3,10.3,0,0,0,2.56,2.89,2.5,2.5,0,0,1-1.56,4.45Z" transform="translate(-185.44 -307.34)"/><path class="cls-3" d="M314,470.66h.11c9.69-.08,12.28-9,12.29-13.65a2.5,2.5,0,0,0-2.49-2.51h0a2.5,2.5,0,0,0-2.5,2.48c0,.89-.3,8.62-7.33,8.68a5,5,0,0,1-4.06-1.53c-1.89-2.19-1.73-6.43-1.51-7.88a2.5,2.5,0,0,0-4.94-.78c-.12.77-1.08,7.58,2.65,11.91A9.8,9.8,0,0,0,314,470.66Z" transform="translate(-185.44 -307.34)"/><path class="cls-3" d="M286.62,477.9a2.5,2.5,0,0,0,1.56-.55,14.68,14.68,0,0,0,3.91-4.56,2.5,2.5,0,0,0-4.47-2.23,10.45,10.45,0,0,1-2.57,2.89,2.5,2.5,0,0,0,1.57,4.45Z" transform="translate(-185.44 -307.34)"/><path class="cls-5" d="M272.49,341.85a7.75,7.75,0,0,1,8.24,0c18.06,11.26,89.34,55.71,91.4,57.18,2.37,1.69,4.73.34,7.43-1.35s27-21.94,28.7-24,3-4.39-2.37-8.1-91.48-55.7-93.51-57.05-5.4-2-9.45.67-82.25,51.65-87,55-28.76,21.6-30.11,24.64,1.35,5.07,6.76,2.7C197.19,389.54,256.24,352.15,272.49,341.85Z" transform="translate(-185.44 -307.34)"/><path class="cls-6" d="M333.88,335.51c-5.5-1.52-9.59,4.41-7.94,7.69,2,4.08,5.78,1.73,7.59,2.07a10.24,10.24,0,0,1,3.72,1.9l3.8-3.28S340.1,337.24,333.88,335.51Z" transform="translate(-185.44 -307.34)"/><path class="cls-6" d="M348.15,355.53s3.19,5.53,8.29,5.53,5-4.58,3.28-6.13-5.36-1.82-5.36-1.82Z" transform="translate(-185.44 -307.34)"/><path class="cls-6" d="M344.55,354.7s-3.19,5.52-8.29,5.52-5-4.57-3.28-6.13,5.35-1.81,5.35-1.81Z" transform="translate(-185.44 -307.34)"/><ellipse class="cls-7" cx="145.03" cy="32.96" rx="1.34" ry="1.68"/><path class="cls-8" d="M336.73,354.91c-2.71-1.42-3.21-3.47-2.22-6,1.09-2.72,3.3-6.57,7.41-7.78,6.56-1.94,11.54.33,14,4.72s2.91,7.92,1.32,9.06C351.72,358.88,340.18,356.72,336.73,354.91Z" transform="translate(-185.44 -307.34)"/><path class="cls-7" d="M333.69,351.56a5.08,5.08,0,0,0,3.12,3.89,25.89,25.89,0,0,0,11.68,2.21c4.56-.11,7.9-1.34,9.2-2.23s1.63-2.7,1.05-5.06c0,0-1.31-5.2-5-8.13l-1.72-1a14,14,0,0,0-10-.46c-.09,0-2.15.9-2.15.9a13,13,0,0,0-5.67,7A9.78,9.78,0,0,0,333.69,351.56Zm11.64,3.92.46-.36,2.3.06.47.46A31.47,31.47,0,0,1,345.33,355.48Zm-1-4.85,1.46-2.45,2.79-.2,1.66,2.18-2.23,3-2,0Zm12.39-.09c.49,1.71.38,2.87-.16,3.24a11.86,11.86,0,0,1-5.29,1.71l-1.44-1.41,2.32-3.13Zm-4.19-6.67a8.93,8.93,0,0,1,2.45,2.75,22,22,0,0,1,1,2l-4.15.37-1.55-2.05Zm-1.75-1L348.5,346l-2.82.19L343,342.55A12,12,0,0,1,350.78,342.86ZM336,349.36a11.83,11.83,0,0,1,5-6.08l2.93,4-1.42,2.38-6.62-.07C336,349.51,336,349.44,336,349.36Zm6.56,2.29,1.51,2.25-1.52,1.2a20.25,20.25,0,0,1-4.87-1.43,3.35,3.35,0,0,1-2-2.09Z" transform="translate(-185.44 -307.34)"/></svg>