
<svg id="Layer_1" data-name="Layer 1" xmlns="http://www.w3.org/2000/svg" xmlns:xlink="http://www.w3.org/1999/xlink" viewBox="0 0 276.24 380.28"><defs><style>.cls-1,.cls-10{fill:none;}.cls-2{fill:#f8d78e;}.cls-3{clip-path:url(#clip-path);}.cls-4{fill:#f6c56d;}.cls-5{fill:#fefff6;}.cls-6{fill:#f4f8f0;stroke:#f4f8f0;stroke-linejoin:round;stroke-width:2px;}.cls-10,.cls-6{stroke-linecap:round;}.cls-7{fill:#e9dec2;}.cls-8{fill:#fbecbf;}.cls-9{fill:#cf844b;}.cls-10{stroke:#cf844b;stroke-miterlimit:10;stroke-width:7px;}.cls-11{fill:#f37a71;}.cls-12{fill:#e490ac;}</style><clipPath id="clip-path" transform="translate(0.03 0)"><path class="cls-1" d="M1.69,104.16,0,343.89a14.84,14.84,0,0,0,14.68,15H225.29l36.16-29.7a10.54,10.54,0,0,0,3.87-8.16v-231L144.12,20.31Z"/></clipPath></defs><path id="Body-2" class="cls-2" d="M1.69,104.16,0,343.89a14.84,14.84,0,0,0,14.68,15H225.29l36.16-29.7a10.54,10.54,0,0,0,3.87-8.16v-231L144.12,20.31Z" transform="translate(0.03 0)"/><g class="cls-3"><path class="cls-4" d="M231.86,73.41l33.48.07-.61,290-33.47-.07Z" transform="translate(0.03 0)"/></g><path class="cls-5" d="M192.94,349s-6-3.13-8.64,2.84,4.32,7.75,4.32,7.75-5.52,2.08-3.73,6.33,7.53,2.31,7.53,2.31-3.65,4.92,1,7.16,9.1-1.34,9.1-1.34-.52,6.23,5.59,6.23,6.78-6.23,6.78-6.23,1.94,6.7,8.72,4.84,3.5-7.75,3.5-7.75,4.92,4.62,9.84,1.12,1.05-7.38,1.05-7.38,6.78.52,6-7.83-6.19-6.11-6.19-6.11,2.24-4.17-2.31-5.89-5.81.38-5.81.38,1.27-5.59-3.36-6.19-9.91,4.62-9.91,4.62.08-5.89-5.14-5.66-6.64,7.75-6.64,7.75-2.08-6.86-7.3-4.77-4.4,7.82-4.4,7.82Z" transform="translate(0.03 0)"/><path class="cls-6" d="M212.62,347.44V357l-10.44-3.8,9.47,4.17-13.79,4,14-2.83L203,367.49l9.62-8.27L214,369.58l-.64-10.36,8.61,6.85-7.67-7.23,13.81,1.05-13.22-1.79L221,347.44l-6.63,10.14-1.71-10.14Z" transform="translate(0.03 0)"/><path class="cls-7" d="M220.3,357.72c0,3.13-2.75,5.74-7,5.74s-7.05-1.49-7.05-4.62,2.47-5.29,6.69-5.29S220.3,354.6,220.3,357.72Z" transform="translate(0.03 0)"/><ellipse class="cls-8" cx="45.48" cy="287.46" rx="20.96" ry="11.57"/><ellipse class="cls-8" cx="185.24" cy="287.68" rx="19.62" ry="12.35"/><circle class="cls-9" cx="68.77" cy="264.01" r="9.92"/><circle class="cls-9" cx="162.39" cy="264.52" r="9.77"/><path class="cls-10" d="M87.21,274.29s9.83,17.58,27.28,17.36,29.62-17.36,29.62-17.36" transform="translate(0.03 0)"/><ellipse class="cls-11" cx="117.15" cy="269.35" rx="8.11" ry="7.32"/><path class="cls-12" d="M160,1.25,50.78,64.2a75.79,75.79,0,0,0-8,5.29L1.21,101A3.14,3.14,0,0,0,0,103.48v4.85A3.13,3.13,0,0,0,4.68,111L125.21,40.66l99.51,80.47a7.6,7.6,0,0,0,9,.37l40.49-28.22a4.76,4.76,0,0,0,2-3.9v-.82a4.77,4.77,0,0,0-1.78-3.71L170.66,2.06A9.57,9.57,0,0,0,160,1.25Z" transform="translate(0.03 0)"/></svg>