<svg version="1.1" id="Layer_1" xmlns="http://www.w3.org/2000/svg" x="0" y="0" viewBox="0 0 196.9 285.9" style="enable-background:new 0 0 196.9 285.9" xml:space="preserve"><style>.st1{fill:#eac86b}.st3{fill:#f9e386}.st5{fill:#81763c}.st6{fill:#fffff5}.st7{fill:#fbceb4}.st8{fill:#4ab97b}.st10{fill:#e9b65f}</style><path d="M3.2 137.2v102.4c0 9.7 1.8 10.3 4.5 12.9s19.8 18.8 19.8 18.8l6.2-125.9-30.5-8.2z" style="fill:#dcb653"/><path class="st1" d="M3.2 143.2c0 5.9 6.5 10.5 9.2 6.1 2.8-4.3-9.2-13.3-9.2-6.1zM14.1 151c-4 3.2-3.4 9.8-1.2 11.3 2.1 1.4 6.5-3.6 6.3-9.2-.2-5.6-5.1-2.1-5.1-2.1zM21.9 157.4c-1.3 4-1.7 5.1-3.4 6.9-1.7 1.8 1.2 5.6 3.4 3.6s3.1-4.7 2.5-8.8c-.6-4.2-1.9-3.6-2.5-1.7zM3.2 153.5c4.8 3.6 7.5 11.2 0 20.6v-20.6zM12.9 167c-3.6 7.4-3.3 16.4 1.4 15.7s.8-13-1.4-15.7zM5.6 180.9c-.1 9-.3 19.8 3.8 15.5s.3-13-3.8-15.5zM26.1 172.2c-6.4 5.4-7.3 16.4 0 18.2v-18.2zM18.8 189c-5.8 8.5-3 18.1 2.2 15.3s0-13.4-2.2-15.3zM7.2 208.7c3.8 1.8 7.1-4 3.2-6.3-3.9-2.4-8.1 3.9-3.2 6.3zM3.2 231.4c1.1-5.8 3.5-7.6 3.1-12.6-.4-5.1 3.6-7.6 4.1 0 .4 7.6 1.3 9.6-1.8 12.6-3.1 3.1-3 7.9-5.3 8.2v-8.2zM15.2 212.6c-1 6.4-.5 17.5 2.8 12.3s4.5-7.4 3-12.3c-1.5-4.8-5.2-4.1-5.8 0zM9.2 254c-.9-12.1.3-10.8 2.2-16.8 1.9-6 4-5.2 4.5.2s.6 11.9-1.2 14.4-1.3 6.2-1.3 6.2l-4.2-4zM19.4 233c-.1 4 1.8 6.2 1.6 8.7s-.7 8.1 2.2 6.1 1-9.7 1.3-13.9c.3-4.1-4.3-10.5-5.1-.9zM16.5 260.9c-1.8-9.1 6.5-13 9.6-5.8l1.4 16.2-11-10.4z"/><path d="M26.1 158v106.1c0 10 4.2 10 9.5 10h117.2c10.5 0 10.3-3.2 10.3-9.7V164.2l-70-50.4-67 44.2z" style="fill:#ddb955"/><path class="st3" d="M35.4 160.5c4.9 6.5 2.7 9.7 1.4 13.5-1.3 3.8-.4 7.8-3.1 7.3s-4.1-9.3-4.1-12.9c0-3.6 1.8-14.2 5.8-7.9zM42.4 153.5c0 9.9.5 14.8 4.9 11.4 4.3-3.4 5.6-12.1 3.8-17.1-1.8-5.1-8.7 5.7-8.7 5.7zM28.4 187c-2.2 9.4-1 21.2 2.7 13.5 3.6-7.7-.5-22.9-2.7-13.5zM31.9 220c2.5-6.2 3.4-7.8 0-11s-5.8 0-5.8 0v7.1c1.5 1.6.6 3.6 1.4 5.8.9 2.1 2.9 2.1 4.4-1.9zM26.1 226.8c4.7 1.9 5.1 12.7 0 13.8v-13.8zM31.2 240.6c-3.9 10.1-1.4 15.9 2.9 14.6 4.3-1.3 6.6-9.4 3-14.6-3.5-5.2-4.8-2.8-5.9 0zM26.1 258c2.2-2.9 4.1-.2 3.7 3.3s-2.7 5.3-3.7 4.8V258zM42.4 220c-1.5-6-4.5-5.2-6.5-.4-2 4.9-2.5 12.6 1.6 15.2s7.6-3.2 5.6-6.9c-1.9-3.5-.1-5.6-.7-7.9zM40.6 194.8c-2-3.7-3.8-1.8-5.2 2.1-1.4 3.9-1.4 8.7.7 12.2s6.1 4.9 6.3.2 0-11.1-1.8-14.5zM45.9 217.8c.8 6 1.3 5 1.3 8.5s2 9.7 6.8 7.4 2.2-15-.7-17.9c-2.9-3-8.1-3-7.4 2zM47.2 236.6c-6.5 11.4-3.1 20 1.6 16.8 4.6-3.2 2.4-13.1-1.6-16.8zM37.2 258c-5.6 9.1-3.8 14.6 0 14.7s8.1-6.9 5.2-14.7c-1.2-3.3-3.5-3.1-5.2 0zM49.1 260.1c-2.6 6.2-3.1 13.7 2.1 12.6 5.3-1.1 3.8-10.1 1.7-12.6s-2.6-2.7-3.8 0zM56.7 241.7c-2.3 5.4-2.9 12.8 1.1 15.1 4 2.3 5.4-1.3 5.2-6.4s-.2-6.1-2.5-8.7-2.9-2.2-3.8 0zM59.9 274.1c-3.6-4.8-2.5-11.2-1-9.9 1.5 1.3 4.8 5.6 4.1 9.9h-3.1zM52.4 185.8c1.4-6.7-2-5.8-4.2-11.5-2.2-5.8-5.8-3.8-7.4 0-1.6 3.8-4.5 14.7 6 18.6l4.6-3.8 1-3.3zM52.7 164.5c-2.5 6.5.3 16.8 6.2 13.5 5.9-3.2 2.8-8.5 0-12.1-2.7-3.6-4.5-5.8-6.2-1.4zM58.9 148.6c-1.7 6.7-1.9 9 3.3 14 5.2 5 2.2.7 2-7-.1-7.7-4.2-14-5.3-7zM63.9 138.8c1.3 6.5 2.3 10 4.5 6.7s2.9-8.5 2-11.6c-.9-3-6.5 4.9-6.5 4.9zM76.9 130.5c-2 5.4-4.7 8.8-.7 12.1 4 3.2 9.6 4 8.5-4.3-1.1-8.3-1.8-12.5-3.6-12.5s-4.2 4.7-4.2 4.7zM90.1 125.8c-1.9 5.1-3.8 11.7 2.2 11.4s2.3-10.3 1.1-12.4c-1.3-2.2-2.5-1.3-3.3 1zM98 120.8c-1.1 3.6-.4 8.5 4.3 8.5s4.7-3.4 4.7-3.4l-9-5.1zM113.5 131.6c-1.6 5.2-.9 8.5 1.3 11.5s6.7 2.3 4.2-7.8l-5.5-3.7zM125.8 140.5c-3.1 4.9-3.4 11.1-1.8 14.7 1.6 3.6 8.1 3.4 7.8-2.9-.4-6.3-2.2-9.2-2.2-9.2l-3.8-2.6zM136.3 147.9c-1.3 7.2-.2 10.7 4 9.6 4.2-1.1 4.7-3.4 3.6-4.7-1.1-1.3-7.6-4.9-7.6-4.9zM152 159.4c-.7 4-.5 6.3 2.5 11.2 3.1 4.9 6.5 7.8 6.3 1.6-.2-6.1-1.3-8.5-1.3-8.5l-7.5-4.3zM70.8 149c-2.3 7.5-2.4 19.9 6.1 15.7 8.5-4.2 3.1-14.3 0-16.8-3.1-2.6-5.5-1-6.1 1.1zM88.2 144.9c-2.9 5.8-3.7 9.1-1 13.6s2.6.8 4.7-1.1 3.4-3.1 1.8-9.6c-1.6-6.4-3.7-6.4-5.5-2.9zM100.7 135.4c-3.1 6.3-3.6 15.8 3.4 16.2 6 .2 6.1-7.2 4.2-9.9s-1.4-4.5-2.5-7.2-3.4-2.5-5.1.9zM112.6 151.6c-5.1 3.9-5.2 16.9 3.5 16.9s4.8-11.2 2.8-15c-1.9-3.8-3.3-4.1-6.3-1.9zM127.4 162.5c-3.1 4.1-4.6 5.5-4.4 9.7.2 4.2 7.3 4 9.4 1.8s-.2-5.4.2-9c.4-3.6-2.3-6.3-5.2-2.5zM140.1 179.4c-3.4-8.1-1.6-13.4 1.5-16.9 3.1-3.5 2.2 1 4.2 3.4s3.2 14.4-2.9 15l-2.8-1.5zM148.9 187c-.5-5.5 1.1-8.4 2.7-11.3 1.6-2.9 3.1-1.7 4.6 1.8 1.5 3.4 3.3 7.4-.8 10.5-4.2 3-6.2 2.6-6.5-1zM99.3 157.5c-4.5 6.3-6.5 15.7-.7 16.6 5.8.9 9.9-.4 7.6-9.3-2.4-9-4.7-10.5-6.9-7.3zM73.3 170c-5.4-6.3-9.7 2.7-4.5 6.3 5.2 3.5 8.3-1.9 4.5-6.3zM83.8 165.9c-4.3 7.1-6 16.2 1.8 15.8s6.7-12.3 3.4-15.8c-3.3-3.4-3.7-2.5-5.2 0zM110.1 187c-3.8-9.6 1.1-13.7 4.2-14.8 3.1-1.1 6.4 2.7 5.4 8.7l-9.6 6.1zM95.6 188.3c-7.5-7.1 2.9-14.5 8.4-8.8 5.5 5.7-.8 16-8.4 8.8zM93.7 196.8c-2.4 5.7 1.7 10.4 5.8 7.4s5.1-5.7 2.8-8.4-6.6-3.7-8.6 1zM156.2 192.8c-2.3 4.7-.7 5.4 1.7 7.2s5.1-2.2 2.9-5.3c-2.2-3.2-3.4-4.4-4.6-1.9zM153.4 204.2c-2.1 3.3-.4 7.8 1.7 5 2.2-2.7.9-9-1.7-5zM142.7 214c-.4 3.9 4.7 4.3 4.4-.1-.3-4.3-3.9-4.5-4.4.1zM135.8 220.7c1.3 3.4 3.8 4 3.4-.2-.4-4.1-4.3-2.2-3.4.2zM124.1 221.7c5.8 1.8 7.8-1.9 2.7-3.6-5.2-1.7-7 2.3-2.7 3.6zM111.8 215.4c2.7 1.6 6.1 2.4 2.5-1.7-3.7-4.1-4.3.6-2.5 1.7zM104 209c-3.1-.2-2.8 3 .8 3.1 3.7 0 3.5-2.9-.8-3.1zM93 210.1c-2.4 1.7.6 4 2.6 2.1 1.9-1.9-.2-3.8-2.6-2.1zM83.4 213.7c-3.8 2.2.8 6.6 3.8 4 3-2.6 1.5-7-3.8-4zM73.5 218.5c-5.1 1.9-1.2 6.5 2.7 3.7s1.9-5.4-2.7-3.7zM62.3 225.6c2.4 3.6 6.3.7 3-2.5s-5.9-1.7-3 2.5zM61.6 236.6c2.3 5 6.7 2.7 3.7-2.4-2.9-5.2-6-2.6-3.7 2.4zM68.5 248.2c2.5 1.7 4.2.3 2.3-2.7-2-3-6.6-.3-2.3 2.7zM76.6 253.1c2.3 4.5 5.2 2.7 2.8-.8-2.3-3.5-4.9-3.5-2.8.8zM84.1 256.8c1.2 3.3 4.1 2.2 3.3-1.2s-4.5-2.1-3.3 1.2zM95 260.1c3.4 1.3 3.7-1.8 1.4-3.3-2.4-1.5-6.3 1.4-1.4 3.3zM104.8 259.7c4.4 0 2.1-4.4 0-3.9-2.1.4-3.4 3.9 0 3.9zM112.6 256.8c3.9.4 2.5-4.2 0-4-2.5.1-2.9 3.6 0 4zM119.7 249c.9 3.9 1.9 2.9 2 .8s-2.5-2.9-2-.8zM128.2 242.6c-1.3-4.1-3.8-4-3.5 0 .4 4 4.3 2.6 3.5 0zM131.8 231.4c-.7 4.9 0 5.8 1.6.8s-1.1-4.7-1.6-.8zM163.1 212.2c-4 2.2-2.2 4.1-2.3 7.7-.1 3.6-.8 8.7 2.3 6.3v-14zM156.2 217.8c1 8.2-1.8 13.7-5.4 10.2-3.6-3.4-.9-8.5 1.6-10.9 2.5-2.5 3.5-1.8 3.8.7zM141.5 226.9c-2.9 5.7-2.1 11.9 2.8 9.8s2.9-7.3.6-9.8c-2.2-2.5-2.5-1.8-3.4 0zM163.1 233.7c-4.7-4.7-6.3-.6-8 2.9-1.7 3.5 2.2 11.2 8 7.5v-10.4zM135.8 242.4c-3.9 5.6-2.2 9.8 1.7 9.2 3.9-.5 3.8-5.4 2.4-9.2-1.6-3.9-2.8-1.9-4.1 0zM147.1 241.5c-2.6 4.7-2.5 8.1.2 8.2 2.7.1 4.8-3.6 3.3-8.2-1.5-4.7-2.3-2-3.5 0zM135.8 258.1c-2 7.5 0 10 3.6 9.4s2.7-7 .7-9.8c-2.1-2.8-3.7-1.9-4.3.4zM125.2 252.9c-4.2 4.6-6.8 10.7-2.1 12.6s7.9-2.7 6.6-9.5c-1.3-6.9-2.7-5.1-4.5-3.1zM137.1 274.1c2.9-4.5 6.7-3.2 8.1 0h-8.1zM133.4 274.1c-3.5-7.7-7.3-5.1-11.8 0h11.8zM112.6 261.8c-6.2 6.6-5.1 10.9 0 10.8 5.1-.1 5-3.4 4.3-8.6-.6-5.3-2.5-4.1-4.3-2.2zM67.3 255.4c-3.3 5.6-3.2 8 1.2 11.7 4.3 3.6 6.5-3.2 4.3-9.3-2.1-6.2-3.8-5.2-5.5-2.4zM69.2 274.1c3.1-4.5 8.4-3.7 8.9 0h-8.9zM82 264c-2 4.9-2 10.1 2.8 10.1s4.6-6.2 1.6-10.1c-3-3.9-3.6-2-4.4 0zM91.9 266.4c-2 5.4 2.9 11 3.7 5.3.8-5.8-1.9-10.2-3.7-5.3zM99.5 266.4c-2.5 5.8 5.9 8.1 5.1 2.6-.8-5.5-3.4-6.4-5.1-2.6z"/><path d="M70.3 227.3c2.8 1.1 5.5-1.8 7.8-4.2 12.7-13.4 29.6-11.5 42.5-1.2 2.9 2.1 4.5 2.9 7.3 2.4 2.8-.4 3.9 1.2 2.5 6.1-4.9 18.9-41 40.8-62.5 5-2.5-4.7-1.4-10 2.4-8.1z" style="fill:#ffecc1"/><path class="st5" d="M121.7 233.3c-1 1.1-2.2 3-3.9 5.1-3.8 5-9.8 11.3-19.5 11.3-8.1 0-14.3-4.2-18.3-8.2-2.8-2.8-4.6-5.4-5-6.2-1.1-1.8-1.3-4.2 1.6-3.7h.7c3.4-.4 10.3-5.9 14-9 4-3.3 12.5-5.9 22.6 2.9 2.4 1.7 3.6 2.4 6 2.4h.8c2.9 0 4.2 1.8 1 5.4z"/><path class="st6" d="M77.2 231.7c9 1.4 15.7-1.8 19.1-3.3s6-.9 8.3 0c2.3.9 11.2 1.8 13.5-.1l-7.6-3.1-7.9-3.9-9.7 1.9-7.3 5.2-3.7 2.1-4.7 1.2z"/><path class="st7" d="M119.8 228c-.3.1-6.4 1.7-9.9-1.7-3.7-3.5-12.3-3.9-16.3-1-3.9 2.7-8.6 6.5-16.3 6.4 3.4-.4 10.3-5.9 14-9 4-3.3 12.5-5.9 22.6 2.9 2.3 1.8 3.6 2.4 5.9 2.4zM117.8 238.4c-3.8 5-9.8 11.3-19.5 11.3-8.1 0-14.3-4.2-18.3-8.2 13.2 7 27.1 7.7 37.8-3.1z"/><ellipse transform="rotate(-10.655 70.091 199.133)" class="st5" cx="70.1" cy="199.1" rx="23" ry="20.9"/><ellipse transform="rotate(-10.655 70.125 199.206)" class="st6" cx="70.1" cy="199.2" rx="17.7" ry="15.3"/><ellipse transform="rotate(-56.406 74.127 197.221)" class="st5" cx="74.1" cy="197.2" rx="10.2" ry="9.3"/><ellipse transform="rotate(-10.655 129.246 197.681)" class="st5" cx="129.2" cy="197.7" rx="23" ry="20.9"/><ellipse transform="rotate(-10.655 128.857 197.754)" class="st6" cx="128.8" cy="197.7" rx="17.7" ry="15.3"/><ellipse transform="rotate(-56.406 132.854 195.77)" class="st5" cx="132.9" cy="195.8" rx="10.2" ry="9.3"/><path class="st8" d="m21.3 119.5-19 12.1c-3.6 2.3-2.6 5.5 3.3 11.7s18 19.3 18 19.3c3.8 4.6 6.2 3.4 11.3-.5s58.9-42.6 58.9-42.6l68 47.4c3.9 2.5 8-.9 3.1-5.6-4.9-4.7-20.4-22-20.4-22-2.8-3.6-10.2-7.6-22-16.3 6-6 16.4-5.5 20.5-5.3 9.7.7 8.6-12.9-18.5-17.2 10.9-11.2 29.6-20.7 33.3-22.6 3.7-1.8 2.3-5.2-2.4-6.9-4.7-1.7-21.6-4.7-39.7 4.5 4-17.2 17.4-30 23-34.4 5.7-4.3 2.4-7.6-4.2-7.1s-21.3 5.4-30.9 17.2C101.8 26.6 92.5 9.3 91.3 5c-1.2-4.3-4.5-7.4-8.8-2.5-4.3 4.8-16.8 23.3-16.6 51.1-18.4-15.3-33-18.8-50.7-18.7-6.3-.1-6.9 3.1-2.5 6.6C17 45 44.2 68.2 47 79.8c-21.2-8-39.2-5.2-43.8-3.7-4.6 1.4-4.2 4.7.6 5.7S28 94.7 37.3 105.6c-12.1-.2-21.9 6.5-23.9 9.2-2 2.5-2 5.6 7.9 4.7z"/><path d="M161.4 242.4c-16.4 6.1-26.8 33.5-4.9 42 18.5 7.3 33-17.2 25.3-33.3l-11.2-6-.3 2.6-8.9-5.3z" style="fill:#f6c873"/><path class="st8" d="M172.1 252.6c-3.4 1-4.7.4-5.3-1.6-.5-2-2.1-5-6.1-7.5s-1.7-7.5 4.2-5.8c-.2-.2-1.4-2.2-4.9-4.7-3.5-2.5.5-5.5 7.7-1.3-.3-2.1-2.9-6.3-5.2-8.1-2.2-1.8-3.4-4.2 0-5.4 3.4-1.1 7 0 12.2 5.4.6-3.1 4.3-9.3 6.6-12 2.3-2.7 4.3-3.3 4.8-.3.5 2.9 1.2 12-1.4 17.8 7-.7 10.4 1.4 11.4 2.6s1.7 4.5-3.2 3.8-8.6 2.2-9.1 2.9c6-.9 9.4 3.4 9.1 5.1-.3 1.7-2.6.9-4.4.8-1.8-.1-5.7.2-7.9 2.8 4.6 1.2 5 5.6 2.8 5.6-2.1 0-8.1-1.7-11.3-.1z"/><circle class="st10" cx="155" cy="257.1" r="2"/><circle class="st10" cx="151.2" cy="264.1" r="2.1"/><circle class="st10" cx="159.5" cy="263.2" r="1.6"/><circle class="st10" cx="166" cy="260.1" r="1.7"/><circle class="st10" cx="178.5" cy="258" r="1.7"/><circle class="st10" cx="169.9" cy="266.5" r="1.9"/><circle class="st10" cx="162.8" cy="269.6" r="1.9"/><circle class="st10" cx="154.9" cy="271.5" r="2.1"/><circle class="st10" cx="166.4" cy="278.5" r="2.2"/></svg>