<svg version="1.1" id="Layer_1" xmlns="http://www.w3.org/2000/svg" x="0" y="0" viewBox="0 0 216 198.9" style="enable-background:new 0 0 216 198.9" xml:space="preserve"><style>.st0{fill:#4c5179}.st2{fill:#b5bfd4}.st3{fill:#e1e5ed}.st7{fill:#fffcff}.st8{fill:#a36f51}.st9{fill:#f49893}</style><path class="st0" d="M176.2 53.4v121.3c0 3.8-.2 5.7-2.8 7.9s-19.9 14.7-24.4 14.7l3.3-121.2 23.9-22.7z"/><path d="M7.8 77.2v111c0 6.2.3 9.1 7.4 9.1h131.9c6.9 0 6-3.8 6-9.7V78.3L83.3 34.6 7.8 77.2z" style="fill:#fff"/><path class="st2" d="m102.7 3.7-68.2 38c-5.8 3-8.2 4.3-12 8.6S1.4 72.8 1.4 72.8c-3.2 3.9-1.1 8.5 6.3 4.4 7.4-4.2 75.5-42.5 75.5-42.5L147 75.6c6 3.8 9.4-2.3 12.8-5.7 3.4-3.4 19.6-20.3 19.6-20.3 2.6-3 .4-5.8-6-9.6-6.4-3.7-61.8-36.3-61.8-36.3-3-2.1-5.7-1.8-8.9 0z"/><path class="st0" d="M5.5 80.8v14.1c0 8.7 4.8 11.2 4.8 4.8V77.8l73.3-40.3 62.3 40.1c4 2.9 7.3 2.5 12.4-3.3 5.1-5.7 23.4-24.9 23.4-24.9 2.8-3.3 2-5.6-4.2-9.3-8.4-5.1-64-38.7-64-38.7-3.9-2.5-9.5-1.3-12.2.2-2.8 1.5-15 5.8-13.6 8.6s13.3-3.6 17.4-5.1c-9.6 11.2-23.4 28.2-23.4 28.2L4.2 75.5c-5.7 3.3-3.9 8.4 1.3 5.3z"/><path class="st2" d="m86.4 33.8 29.4 18.8 28.7-26.7-33.7-20.1zM138.7 38.8l-18.1 17L151 75.3l16.6-17zM142.8 35.8 170 55l8.1-8.5-28.4-18z"/><path class="st3" d="M156.3 76.5v14l6.3-5.7V69.7zM166.2 65.8v35l6.8-6.4V58.6zM156.3 94.3v15.9l7.1-7V88.5zM156.3 118.6v34.7l16.7-15.5v-35.5zM156.3 161.2v27l7.1-4.6V155zM165.5 151.1v11.8l7.5-7v-11zM165.5 166.9v15.7l7.5-5.9v-16.6z"/><path class="st0" d="M153.1 190.4c0 5.5-42.5 4.2-47.8 4.8s-5.7 3.7 2.8 3.7h40.1c3.8 0 7.7-3.2 10.3-6l-5.4-2.5z"/><path d="M186.1 134.2v12.6c-9.9-9-18.7-5.6-20.8.1-2.1 5.7 6 16.8 20.8 17.5 0 4.8 3.2 6.9 5.8 6.9 2.6 0 5.6-1.6 5.6-7.2v-4c15 .2 22-11.2 16.9-18.8s-15.7-1.7-18.7 1.1V137l-9.6-2.8z" style="fill:#61a55d"/><path d="M191.9 102.3c-1.4-17.2-16.5-8.3-13.8 1.6-9.9-3.2-17.5 4.5-6.2 15.9-9.5 8.1-5.4 21.8 9.7 10.7 5.7 14.3 18 20.6 16.3-2.7 18.2 8 19.1-8.4 5-15.3 8.9-11.7-5-18.3-11-10.2z" style="fill:#fffbfc"/><circle cx="188.5" cy="116.7" r="5.9" style="fill:#ffe889"/><ellipse class="st0" cx="45.2" cy="152.2" rx="15.4" ry="17.1"/><ellipse transform="rotate(-32.902 51.918 144.648)" class="st7" cx="51.9" cy="144.6" rx="3" ry="4.2"/><circle class="st7" cx="54.9" cy="153.5" r="2.8"/><path class="st8" d="M33.6 158c5.4 11 17.4 10.2 22.5.5 1.9-3.8-3.3-6.9-6.8-2.2-3.1 3.9-7.8 3-10.2-.7-2.4-4.2-7.1-2-5.5 2.4z"/><ellipse transform="rotate(-47.242 39.963 146.123)" class="st7" cx="40" cy="146.1" rx="8.3" ry="4.6"/><ellipse class="st0" cx="109.5" cy="152.2" rx="15.4" ry="17.1"/><ellipse transform="rotate(-32.902 116.232 144.648)" class="st7" cx="116.2" cy="144.6" rx="3" ry="4.2"/><circle class="st7" cx="119.3" cy="153.5" r="2.8"/><path class="st8" d="M98 158c5.4 11 17.4 10.2 22.5.5 1.9-3.8-3.3-6.9-6.8-2.2-3.1 3.9-7.8 3-10.2-.7-2.5-4.2-7.1-2-5.5 2.4z"/><ellipse transform="rotate(-47.242 104.273 146.126)" class="st7" cx="104.3" cy="146.1" rx="8.3" ry="4.6"/><path class="st0" d="m75.6 163.2 1.2-1.2c1.2-1.2-.5-3.3-2.2-1.7l-1.6 1.6c-1.2 1.2-.6 2.3 0 2.9l2.1 2.1c1.2 1.2 3.3-.7 2-1.9-1.1-1.3-1.5-1.8-1.5-1.8zM67.2 175.6c6.5 2.8 13.8 2.8 20.2-1.7 1.6-1.2 3.7.9 1.6 2.4-10.8 7-20.5 3.2-23.8 1.2-1.4-.8-.6-3.1 2-1.9z"/><path class="st9" d="M125.1 167.4c-1 2.6 2.2 3.5 3.4.7l2-4.4c.8-1.9-2.1-3.6-3.3-1.3-1.3 2.4-2.1 5-2.1 5zM131.3 168.3c-1 2.6 2.2 3.5 3.4.7l2-4.4c.8-1.9-2.1-3.6-3.3-1.3s-2.1 5-2.1 5zM137.3 169.3c-1 2.6 2.2 3.5 3.4.7l2-4.4c.8-1.9-2.1-3.6-3.3-1.3s-2.1 5-2.1 5zM10.5 167.4c-1 2.6 2.2 3.5 3.4.7l2-4.4c.8-1.9-2.1-3.6-3.3-1.3s-2.1 5-2.1 5zM16.7 168.3c-1 2.6 2.2 3.5 3.4.7l2-4.4c.8-1.9-2.1-3.6-3.3-1.3s-2.1 5-2.1 5zM22.7 169.3c-1 2.6 2.2 3.5 3.4.7l2-4.4c.8-1.9-2.1-3.6-3.3-1.3s-2.1 5-2.1 5z"/><path class="st0" d="M30.5 138.7c9.2-10.1 23.1-10.4 31.9-4.1 2.9 2.4 6.4-1 2.6-4.2-7.2-5.4-27.4-8.5-37.8 5.9-2 2.6.8 5.3 3.3 2.4z"/><path class="st0" d="M27.1 139.5c-3.7-3.4-8.3-7.7-8.3-7.7-1.9-1.8.7-4.7 3.4-2.1 2.7 2.7 7.6 7.1 7.6 7.1l-2.7 2.7zM31.5 133.8l-6.2-6.4c-1.7-1.7.9-4.3 3.1-2.1l6.3 6.3-3.2 2.2zM37.9 129.3l-6.1-6.7c-1.8-1.9 1.1-4.6 3.6-1.8 2.5 2.7 6.9 7.3 6.9 7.3l-4.4 1.2zM27.2 111.4c6.1 5.1 24.2 6.6 31.4-.7 1.4-1.9-1.4-3.4-3.9-1.5-3.7 2.6-14.6 5.7-24.4.1-3.2-1.6-5 .4-3.1 2.1zM127.3 138.7c-9.2-10.1-23.1-10.4-31.9-4.1-2.9 2.4-6.4-1-2.6-4.2 7.2-5.4 27.4-8.5 37.8 5.9 2 2.6-.8 5.3-3.3 2.4z"/><path class="st0" d="M130.7 139.5c3.7-3.4 8.3-7.7 8.3-7.7 1.9-1.8-.7-4.7-3.4-2.1-2.7 2.7-7.6 7.1-7.6 7.1l2.7 2.7zM126.3 133.8l6.2-6.4c1.7-1.7-.9-4.3-3.1-2.1l-6.3 6.3 3.2 2.2zM119.9 129.3l6.1-6.7c1.8-1.9-1.1-4.6-3.6-1.8-2.5 2.7-6.9 7.3-6.9 7.3l4.4 1.2zM124.9 111.4c-6.1 5.1-24.2 6.6-31.4-.7-1.4-1.9 1.4-3.4 3.9-1.5 3.7 2.6 14.6 5.7 24.4.1 3.3-1.6 5.1.4 3.1 2.1z"/></svg>