<svg version="1.1" id="Layer_1" xmlns="http://www.w3.org/2000/svg" x="0" y="0" viewBox="0 0 130.7 132.5" style="enable-background:new 0 0 130.7 132.5" xml:space="preserve"><style>.st0{fill:#ffe0c6}.st2{fill:#facf8b}.st4{fill:#e2d6d4}</style><path class="st0" d="M102 66.4c7.5-.5 12-3.5 13.7-5.5-.6-10 7.7-9.8 9.2-5.3 3.5-1.7 6.4 2.8 3.6 5.7 5 3 1.1 11-6.9 8.2-3.5 7.5-14.3 13.2-20.3 13.5l-2.8-8.7 3.5-7.9z"/><path d="M99.6 15.3C84.2-4.1 73.3-2.3 71.4 5.8 56.2 1.5 50 14.2 62.7 19.1l18 3.5.9-9.6 18 2.3z" style="fill:#fa8b85"/><path class="st2" d="M77.2 110.8v11.6c8.8 3.3 5.9 9.4-1.4 9.4-7.3 0-6.9-4.1-6.9-9.1v-14.6l4.7-5.4-.1 6.2 3.7 1.9z"/><path d="m8.4 66.7 46.6-24c-.2-1.2-.3-2.5-.3-3.7 0-15.9 12.9-28.7 28.7-28.7s28.7 12.9 28.7 28.7c0 9-4.2 17.1-10.7 22.3 9.4 61-57.1 59.5-78.7 44C1.2 89.9-5.7 74.7 8.4 66.7z" style="fill:#fff"/><path class="st2" d="M102 38.6c0-6.8 7.1-7.8 12.9-4.5 5.8 3.4 2.1 6.7 0 8.3-2 1.5-12.9 4.1-12.9-3.8z"/><path class="st4" d="M7.7 72.1c4.1 0 3 4.6 0 4.6H2.6c-3.5 0-3.5-4.6 0-4.6h5.1zM7.7 79.8c4.1 0 3 4.6 0 4.6H2.6c-3.5 0-3.5-4.6 0-4.6h5.1z"/><path class="st2" d="M50.3 108.5v12.7h6.8c3.8 0 4.5 6.4-1 5.9-.4 7.4-5.6 6-8.8 3-3.1-2.9-5-4.4-5-9.6v-12.6c.1-4.8 8-5.6 8 .6z"/><path class="st4" d="M34.2 80.6c-3 2.3-.2 5.8 2.5 3s1.3-5.9-2.5-3zM32 90.6c-4.3 3.3.3 5.8 3.5 3.3 3.2-2.4.8-6.6-3.5-3.3zM76.4 68.4c-2.4 5.4 3.4 7.9 5.3 1.6 1.9-6.3-3.3-6.2-5.3-1.6zM79.3 77.9c-3.8 3.5 1.2 6.4 3.9 3.2 2.6-3.2 0-6.8-3.9-3.2z"/><path class="st0" d="M56.7 90.6c-1.2 8.6 4.4 10.1 7.8 7.3 2 3.3 6.5 2.1 6.3-1 9.6 1.2 9-8.1 0-7.9-.3-4.6-2.8-6.5-4.3-11.5s-.8-13.4-6-16.2c-5.1-2.8-11.2-2-12.2 5.8-.9 7.7 3.2 16.9 8.4 23.5z"/><ellipse transform="rotate(-4.235 84.614 30.345) scale(1.00003)" cx="84.6" cy="30.3" rx="4.3" ry="5.3" style="fill:#c08475"/></svg>