<svg version="1.1" id="Layer_1" xmlns="http://www.w3.org/2000/svg" xmlns:xlink="http://www.w3.org/1999/xlink" x="0" y="0" viewBox="0 0 718.7 781.3" style="enable-background:new 0 0 718.7 781.3" xml:space="preserve"><style>.st0{fill:#b34d4a}.st2{fill:#fd8376}.st3{fill:#ffeced}.st4{fill:#fffcff}.st5{fill:#eb7261}.st6{fill:#ffb9ae}.st7{fill:#a03736}.st8{fill:#e76956}.st10{fill:#993a35}.st41{fill:#ffe1b8}.st64{fill:#b34d1b}.st66{fill:#e66658}.st67{fill:#ea9865}.st69{fill:#ffe1b2}</style><path class="st0" d="M663 498.4c-27.4 0-50.2 19.9-54.8 46h-4.7v30.7h7.9c8.3 20.3 28.2 34.6 51.5 34.6 30.7 0 55.6-24.9 55.6-55.6s-24.7-55.7-55.5-55.7z"/><path d="M3.1 465.2V729c0 7.9 0 9.5 6.9 14.8 6.8 5.2 55 37.5 65.7 37.5l-6.8-254.5-65.8-61.6z" style="fill:#e46957"/><path class="st2" d="M68.9 526.7v244.6c0 9.6 3 9.9 12.4 9.9h506.5c13.7 0 15.8-3.4 15.8-14.4V528l-534.7-1.3z"/><path class="st3" d="m19.1 520.3 30.7 28.6c2.5 2.3 2.3 6.6 2.3 14.6v112.8c0 6.6-3.9 3.4-7.1 1.1-3.2-2.3-24.7-15.3-27.7-17.2-4.3-2.7-3.7-9.2-3.7-15.6V525.1c0-6.5 3.1-7.1 5.5-4.8z"/><path class="st4" d="m26 526.7-12.4 13.2v9.8L30 530.5zM34.9 535.1l-21.3 26v13.3l27.9-33.2zM52.1 629.2l-34.8 31.2 5.7 3.4 29.1-28z"/><path class="st5" d="M118.7 735.4h-48c-1.4 0-2.5-1.1-2.5-2.5v-15.2c0-1.4 1.1-2.5 2.5-2.5h47.9c1.4 0 2.5 1.1 2.5 2.5s-1.1 2.5-2.5 2.5H73.2v10.2h45.4c1.4 0 2.5 1.1 2.5 2.5s-1.1 2.5-2.4 2.5z"/><path class="st5" d="M101 735.4c-1.4 0-2.5-1.1-2.5-2.5v-15.2c0-1.4 1.1-2.5 2.5-2.5s2.5 1.1 2.5 2.5v15.2c0 1.4-1.1 2.5-2.5 2.5zM85.3 720.2c-1.4 0-2.5-1.1-2.5-2.5v-17c0-1.4 1.1-2.5 2.5-2.5h33.3c1.4 0 2.5 1.1 2.5 2.5s-1.1 2.5-2.5 2.5H87.8v14.5c0 1.4-1.1 2.5-2.5 2.5zM118.7 752H85.3c-1.4 0-2.5-1.1-2.5-2.5v-16.6c0-1.4 1.1-2.5 2.5-2.5s2.5 1.1 2.5 2.5V747h30.8c1.4 0 2.5 1.1 2.5 2.5s-1.1 2.5-2.4 2.5zM117.2 630H92.4c-1.4 0-2.5-1.1-2.5-2.5v-10.4H79.2c-1.4 0-2.5-1.1-2.5-2.5v-19.9c0-1.4 1.1-2.5 2.5-2.5H91c1.4 0 2.5 1.1 2.5 2.5s-1.1 2.5-2.5 2.5h-9.3v14.9h10.7c1.4 0 2.5 1.1 2.5 2.5V625h22.4c1.4 0 2.5 1.1 2.5 2.5s-1.2 2.5-2.6 2.5zM277.5 722.3h-34.1c-1.4 0-2.5-1.1-2.5-2.5v-17.5c0-1.4 1.1-2.5 2.5-2.5h34.1c1.4 0 2.5 1.1 2.5 2.5s-1.1 2.5-2.5 2.5h-31.6v12.5h31.6c1.4 0 2.5 1.1 2.5 2.5s-1.2 2.5-2.5 2.5z"/><path class="st5" d="M262.4 704.8c-1.4 0-2.5-1.1-2.5-2.5v-14h-28.2v11.5h11.6c1.4 0 2.5 1.1 2.5 2.5s-1.1 2.5-2.5 2.5h-14.1c-1.4 0-2.5-1.1-2.5-2.5v-16.5c0-1.4 1.1-2.5 2.5-2.5h33.2c1.4 0 2.5 1.1 2.5 2.5v16.5c0 1.3-1.1 2.5-2.5 2.5zM560.6 773.1h-34.3c-1.4 0-2.5-1.1-2.5-2.5v-15.9c0-1.4 1.1-2.5 2.5-2.5h34.3c1.4 0 2.5 1.1 2.5 2.5v15.9c0 1.3-1.1 2.5-2.5 2.5zm-31.8-5h29.3v-10.9h-29.3v10.9zM603.6 686.3h-22.5c-1.4 0-2.5-1.1-2.5-2.5v-15.1c0-1.4 1.1-2.5 2.5-2.5h22.5c1.4 0 2.5 1.1 2.5 2.5s-1.1 2.5-2.5 2.5h-20v10.1h20c1.4 0 2.5 1.1 2.5 2.5s-1.1 2.5-2.5 2.5zM522.5 547.9H480c-1.4 0-2.5-1.1-2.5-2.5v-17.7c0-1.4 1.1-2.5 2.5-2.5s2.5 1.1 2.5 2.5v15.2H520v-15.1c0-1.4 1.1-2.5 2.5-2.5s2.5 1.1 2.5 2.5v17.6c0 1.4-1.1 2.5-2.5 2.5z"/><path class="st5" d="M538.6 565.6h-38.1c-1.4 0-2.5-1.1-2.5-2.5v-17.7c0-1.4 1.1-2.5 2.5-2.5h38.1c1.4 0 2.5 1.1 2.5 2.5v17.7c0 1.4-1.1 2.5-2.5 2.5zm-35.6-5h33.1v-12.7H503v12.7z"/><path class="st3" d="M272 729.4V572.2c0-4.1 3.3-7.5 7.5-7.5h278.9c4.1 0 7.5 3.3 7.5 7.5v157.2H272z"/><path class="st4" d="M319.3 564.8 272 617.1v30l72.8-82.3zM366.2 564.8 272 666.6v13.7l106.6-115.5zM565.9 706.4l-21 23h12.7l8.3-8zM565.9 691.1l-36.7 38.3h-30.6l67.3-72.1z"/><circle class="st6" cx="333" cy="655.7" r="17.2"/><circle class="st6" cx="519.5" cy="655.7" r="17.2"/><path class="st7" d="M350.9 629.9c7.5-8.6 18.6-6.3 22.9.3 2.3 3.4 8.6 1.1 4.3-5.2-8.3-10.5-23.3-12-32.2.4-3.3 5 1.1 8.9 5 4.5zM494.4 629.9c-7.5-8.6-18.6-6.3-22.9.3-2.3 3.4-8.6 1.1-4.3-5.2 8.3-10.5 23.3-12 32.2.4 3.2 5-1.2 8.9-5 4.5z"/><path class="st8" d="M452.2 650.6c-.8 1.4-1.9 2.9-3.1 4.5-9 10.7-28.8 22.1-48.1 8-1.4-1-2.7-2.1-3.8-3.2-15.7-15.8 3-35.8 23.7-28 18.3-16.7 40.9-.1 31.3 18.7z"/><path class="st2" d="M449 655c-9 10.7-28.8 22.1-48.1 8-1.4-1-2.7-2.1-3.8-3.2 16.2-23.5 43-17.4 51.9-4.8z"/><path class="st0" d="M39.4 318.8c13.3-3 22.9-3 36.3-3h414.5c49 0 89.6 21.4 107.7 74.7 9.8 29.7 10.4 86.6 10.4 130.9 0 6.3-1.8 6.7-4.6 6.7s-534.8-1.3-534.8-1.3l-29.5-208z"/><path d="M68.9 526.7c0-123.1 6.9-198.4-23.3-207.9C34.1 314.6.9 339.4.9 381v79.8c0 1.4.6 2.8 1.6 3.7l66.4 62.2z" style="fill:#9b3c37"/><path class="st10" d="M129.2 530.6c-1.4 0-2.5-1.1-2.5-2.5v-84.4c0-1.4 1.1-2.5 2.5-2.5s2.5 1.1 2.5 2.5v84.4c0 1.3-1.2 2.5-2.5 2.5zM189.9 530.6c-1.4 0-2.5-1.1-2.5-2.5 0-.6.3-64.2 0-74 0-1.4 1-2.5 2.4-2.6 1.4 0 2.5 1 2.6 2.4.3 9.9 0 71.6 0 74.2 0 1.3-1.2 2.5-2.5 2.5zM125.2 412.2c-.3 5.8 5 5.8 5.1 0 .2-5.8-.5-14.1-2.6-14.6-2.1-.4-2.2 10.3-2.5 14.6zM187.2 421c-1.3 0-2.4-1.1-2.5-2.4-.7-17.7-7.6-43.9-11.4-50.4-.7-1.2-.3-2.7.9-3.4 1.2-.7 2.7-.3 3.4.9 4.6 7.8 11.4 35.2 12.1 52.7.1 1.3-1 2.5-2.5 2.6.1 0 0 0 0 0zM257.6 529.7c-1.4 0-2.5-1.1-2.5-2.5V377c0-1.4 1.1-2.5 2.5-2.5s2.5 1.1 2.5 2.5v150.2c0 1.4-1.2 2.5-2.5 2.5zM325.3 529.2c-1.4 0-2.5-1.1-2.5-2.5v-71.4c0-1.4 1.1-2.5 2.5-2.5s2.5 1.1 2.5 2.5v71.4c0 1.4-1.1 2.5-2.5 2.5zM395.3 529.2c-1.4 0-2.5-1.1-2.5-2.5V374c0-1.4 1.1-2.5 2.5-2.5s2.5 1.1 2.5 2.5v152.7c0 1.4-1.2 2.5-2.5 2.5zM463.9 530.2c-1.4 0-2.5-1.1-2.5-2.5V410.8c0-1.4 1.1-2.5 2.5-2.5s2.5 1.1 2.5 2.5v116.9c0 1.4-1.1 2.5-2.5 2.5zM539.9 530.2c-1.4 0-2.5-1.1-2.5-2.5v-93.6c0-1.4 1.1-2.5 2.5-2.5s2.5 1.1 2.5 2.5v93.6c0 1.4-1.1 2.5-2.5 2.5zM540.9 403.9s-.1 0 0 0c-1.4 0-2.5-1.2-2.5-2.6.9-40.8-10.9-60-22.1-74.7-.8-1.1-.6-2.7.5-3.5 1.1-.8 2.7-.6 3.5.5 8.4 11.2 24.1 31.9 23.1 77.9-.1 1.3-1.2 2.4-2.5 2.4z"/><path d="M565.9 729.4c3.8 0 6.8 2.5 2.8 6.9-4 4.5-9 9.5-12.2 9.5h-278c-4.6 0-6 .3-14.4-10.8-3.8-4.9 1.4-5.7 8-5.7s293.8.1 293.8.1z" style="fill:#b54b4a"/><defs><path id="SVGID_1_" d="M522.3 316.9c1.1 55.2-67.5 62.4-89 64.6-21.5 2.1-129 3.2-194 2.1s-96.8-30.4-96.5-57.2c0-35.8 41.3-51.7 78.9-58.6 5.4-1 10.7-1.8 15.8-2.5 1.7-.2 3.5-.4 5.4-.6 10.7-1.1 25.3-1.8 41.6-2.3 7-.2 14.3-.4 21.7-.6 15.1-.3 30.6-.4 45-.5h22.7c20.9 0 36.3.2 38.8.2 1.1 0 4 0 8.1.2 5.3.2 12.7.6 21 1.7 32.5 3.7 79.8 15.8 80.5 53.5z"/></defs><clipPath id="SVGID_00000104696930318576000680000017301248188819389079_"><use xlink:href="#SVGID_1_" style="overflow:visible"/></clipPath><path style="clip-path:url(#SVGID_00000104696930318576000680000017301248188819389079_);fill:#ffc685" d="m523.4 262.1-381 1.5v-2.4h381z"/><path style="clip-path:url(#SVGID_00000104696930318576000680000017301248188819389079_);fill:#ffc685" d="m523.4 266.3-381 1.4v-4.1l381-1.5z"/><path style="clip-path:url(#SVGID_00000104696930318576000680000017301248188819389079_);fill:#ffc584" d="m523.4 270.4-381 1.4v-4.1l381-1.4z"/><path style="clip-path:url(#SVGID_00000104696930318576000680000017301248188819389079_);fill:#ffc483" d="m523.4 274.5-381 1.5v-4.2l381-1.4z"/><path style="clip-path:url(#SVGID_00000104696930318576000680000017301248188819389079_);fill:#ffc482" d="m523.4 278.6-381 1.5V276l381-1.5z"/><path style="clip-path:url(#SVGID_00000104696930318576000680000017301248188819389079_);fill:#ffc381" d="m523.4 282.7-381 1.5v-4.1l381-1.5z"/><path style="clip-path:url(#SVGID_00000104696930318576000680000017301248188819389079_);fill:#ffc280" d="m523.4 286.9-381 1.4v-4.1l381-1.5z"/><path style="clip-path:url(#SVGID_00000104696930318576000680000017301248188819389079_);fill:#ffc180" d="m523.4 291-381 1.4v-4.1l381-1.4z"/><path style="clip-path:url(#SVGID_00000104696930318576000680000017301248188819389079_);fill:#ffc17f" d="m523.4 295.1-381 1.5v-4.2l381-1.4z"/><path style="clip-path:url(#SVGID_00000104696930318576000680000017301248188819389079_);fill:#ffc07e" d="m523.4 299.2-381 1.5v-4.1l381-1.5z"/><path style="clip-path:url(#SVGID_00000104696930318576000680000017301248188819389079_);fill:#ffbf7d" d="m523.4 303.3-381 1.5v-4.1l381-1.5z"/><path style="clip-path:url(#SVGID_00000104696930318576000680000017301248188819389079_);fill:#ffbe7c" d="m523.4 307.5-381 1.4v-4.1l381-1.5z"/><path style="clip-path:url(#SVGID_00000104696930318576000680000017301248188819389079_);fill:#ffbd7b" d="m523.4 311.6-381 1.4v-4.1l381-1.4z"/><path style="clip-path:url(#SVGID_00000104696930318576000680000017301248188819389079_);fill:#ffbd79" d="m523.4 315.7-381 1.5V313l381-1.4z"/><path style="clip-path:url(#SVGID_00000104696930318576000680000017301248188819389079_);fill:#ffbc78" d="m523.4 319.8-381 1.5v-4.1l381-1.5z"/><path style="clip-path:url(#SVGID_00000104696930318576000680000017301248188819389079_);fill:#fb7" d="m523.4 324-381 1.4v-4.1l381-1.5z"/><path style="clip-path:url(#SVGID_00000104696930318576000680000017301248188819389079_);fill:#ffba75" d="m523.4 328.1-381 1.4v-4.1l381-1.4z"/><path style="clip-path:url(#SVGID_00000104696930318576000680000017301248188819389079_);fill:#ffb975" d="m523.4 332.2-381 1.5v-4.2l381-1.4z"/><path style="clip-path:url(#SVGID_00000104696930318576000680000017301248188819389079_);fill:#ffb974" d="m523.4 336.3-381 1.5v-4.1l381-1.5z"/><path style="clip-path:url(#SVGID_00000104696930318576000680000017301248188819389079_);fill:#ffb873" d="m523.4 340.4-381 1.5v-4.1l381-1.5z"/><path style="clip-path:url(#SVGID_00000104696930318576000680000017301248188819389079_);fill:#ffb772" d="m523.4 344.6-381 1.4v-4.1l381-1.5z"/><path style="clip-path:url(#SVGID_00000104696930318576000680000017301248188819389079_);fill:#ffb671" d="m523.4 348.7-381 1.4V346l381-1.4z"/><path style="clip-path:url(#SVGID_00000104696930318576000680000017301248188819389079_);fill:#ffb66f" d="m523.4 352.8-381 1.5v-4.2l381-1.4z"/><path style="clip-path:url(#SVGID_00000104696930318576000680000017301248188819389079_);fill:#ffb56e" d="m523.4 356.9-381 1.5v-4.1l381-1.5z"/><path style="clip-path:url(#SVGID_00000104696930318576000680000017301248188819389079_);fill:#ffb46d" d="m523.4 361-381 1.5v-4.1l381-1.5z"/><path style="clip-path:url(#SVGID_00000104696930318576000680000017301248188819389079_);fill:#ffb36c" d="m523.4 365.2-381 1.4v-4.1l381-1.5z"/><path style="clip-path:url(#SVGID_00000104696930318576000680000017301248188819389079_);fill:#ffb16b" d="m523.4 369.3-381 1.4v-4.1l381-1.4z"/><path style="clip-path:url(#SVGID_00000104696930318576000680000017301248188819389079_);fill:#ffb16a" d="m523.4 373.4-381 1.5v-4.2l381-1.4z"/><path style="clip-path:url(#SVGID_00000104696930318576000680000017301248188819389079_);fill:#ffb069" d="m523.4 377.5-381 1.5v-4.1l381-1.5z"/><path style="clip-path:url(#SVGID_00000104696930318576000680000017301248188819389079_);fill:#ffaf68" d="m523.4 381.6-381 1.5V379l381-1.5z"/><path style="clip-path:url(#SVGID_00000104696930318576000680000017301248188819389079_);fill:#ffaf68" d="m142.4 383.1 381-1.5v3.1h-381z"/><path class="st41" d="M249.6 313.9c-1.7 16.4-14.2 12.5-15.4 1.9-1.2-10.5-6.1-31-12.5-48.1 5.4-1 10.7-1.8 15.8-2.5 1.7-.2 3.5-.4 5.4-.6 2.7 5.8 8.4 32.9 6.7 49.3zM311.2 312.4c-2.2 11.5-12.7 7.8-13.9-2.9-1.2-10.8-4.4-26.4-12.7-47.2 7-.2 14.3-.4 21.7-.6 6.3 18.3 7.1 39.2 4.9 50.7zM380.3 311.7c-.7 13.2-14.2 13.9-15.6 0-1.5-13.9-6.4-31.3-13.4-50.4H374c5.3 11.7 7.1 37.2 6.3 50.4zM449 310.9c-2 16.4-14.4 10.3-15.6-1.5-1.2-11.7-5.6-28.6-12.5-47.9 5.3.2 12.7.6 21 1.7 6 10.9 9.1 31.4 7.1 47.7z"/><path d="M217.4 9.2c-44.8 0-63 29-63 43.6 0 24.2 27.2 101.9 168.6 70.3 150.6-38.2 199.4-4.6 199.4 30.7 0 40-51.4 68.6-141 46.4-36.2-7.6-43.4 33-1.1 30.2s62.2 8.3 55.9 41.3c-1.1 5.4-5.8 7.2-8.4-1.9-2.6-9.1-6.1-25.6-37-23.8-66.1 5.3-62.8-30.7-61.9-36.1 6.4-27.2 42.7-28.3 69.2-21 58.4 15.5 81.4-11.9 81.4-26.1s-31.9-33-96-18.1c-86.7 23.4-114.6 21.8-133.5 21.8-53.1 0-149.3-32.2-149.3-97.9S181-2.7 218.8.6c24.7 2.7 15.1 8.6-1.4 8.6z" style="fill:#fbf6ec"/><path class="st8" d="M113.8 618h103.3v163.2H113.8z"/><defs><path id="SVGID_00000121256114968525002910000009498781484133661855_" d="M102.7 526.8v22.5h13.9v-22.5z"/></defs><clipPath id="SVGID_00000173860500833484876750000009317268694184390793_"><use xlink:href="#SVGID_00000121256114968525002910000009498781484133661855_" style="overflow:visible"/></clipPath><path style="clip-path:url(#SVGID_00000173860500833484876750000009317268694184390793_);fill:#d86e3a" d="M102.7 526.8h13.9v5.1h-13.9zM102.7 531.9h13.9v1.4h-13.9z"/><path style="clip-path:url(#SVGID_00000173860500833484876750000009317268694184390793_);fill:#d76d39" d="M102.7 533.3h13.9v1.4h-13.9z"/><path style="clip-path:url(#SVGID_00000173860500833484876750000009317268694184390793_);fill:#d66c37" d="M102.7 534.7h13.9v1.4h-13.9z"/><path style="clip-path:url(#SVGID_00000173860500833484876750000009317268694184390793_);fill:#d56b36" d="M102.7 536.1h13.9v1.4h-13.9z"/><path style="clip-path:url(#SVGID_00000173860500833484876750000009317268694184390793_);fill:#d46a35" d="M102.7 537.5h13.9v1.4h-13.9z"/><path style="clip-path:url(#SVGID_00000173860500833484876750000009317268694184390793_);fill:#d36836" d="M102.7 538.9h13.9v1.4h-13.9z"/><path style="clip-path:url(#SVGID_00000173860500833484876750000009317268694184390793_);fill:#d26735" d="M102.7 540.3h13.9v1.4h-13.9z"/><path style="clip-path:url(#SVGID_00000173860500833484876750000009317268694184390793_);fill:#d16633" d="M102.7 541.7h13.9v1.4h-13.9z"/><path style="clip-path:url(#SVGID_00000173860500833484876750000009317268694184390793_);fill:#d06532" d="M102.7 543.1h13.9v1.4h-13.9z"/><path style="clip-path:url(#SVGID_00000173860500833484876750000009317268694184390793_);fill:#cf6431" d="M102.7 544.5h13.9v1.4h-13.9zM102.7 545.9h13.9v3.4h-13.9z"/><defs><path id="SVGID_00000029046482188348646760000013308558754042569391_" d="M215.8 526.8v22.5h13.9v-22.5z"/></defs><clipPath id="SVGID_00000123443164081246282220000008630132284684715658_"><use xlink:href="#SVGID_00000029046482188348646760000013308558754042569391_" style="overflow:visible"/></clipPath><path style="clip-path:url(#SVGID_00000123443164081246282220000008630132284684715658_);fill:#d86e3a" d="M215.8 526.8h13.9v4.5h-13.9zM215.8 531.3h13.9v1.4h-13.9z"/><path style="clip-path:url(#SVGID_00000123443164081246282220000008630132284684715658_);fill:#d76d39" d="M215.8 532.6h13.9v1.4h-13.9z"/><path style="clip-path:url(#SVGID_00000123443164081246282220000008630132284684715658_);fill:#d66c37" d="M215.8 534h13.9v1.4h-13.9z"/><path style="clip-path:url(#SVGID_00000123443164081246282220000008630132284684715658_);fill:#d56b36" d="M215.8 535.4h13.9v1.4h-13.9z"/><path style="clip-path:url(#SVGID_00000123443164081246282220000008630132284684715658_);fill:#d46a35" d="M215.8 536.8h13.9v1.4h-13.9z"/><path style="clip-path:url(#SVGID_00000123443164081246282220000008630132284684715658_);fill:#d36836" d="M215.8 538.2h13.9v1.4h-13.9z"/><path style="clip-path:url(#SVGID_00000123443164081246282220000008630132284684715658_);fill:#d26735" d="M215.8 539.6h13.9v1.4h-13.9z"/><path style="clip-path:url(#SVGID_00000123443164081246282220000008630132284684715658_);fill:#d16633" d="M215.8 541h13.9v1.4h-13.9z"/><path style="clip-path:url(#SVGID_00000123443164081246282220000008630132284684715658_);fill:#d06532" d="M215.8 542.4h13.9v1.4h-13.9z"/><path style="clip-path:url(#SVGID_00000123443164081246282220000008630132284684715658_);fill:#cf6431" d="M215.8 543.8h13.9v1.4h-13.9zM215.8 545.2h13.9v4.1h-13.9z"/><path d="M94.9 549.3h141.4c2.2 0 4 1.8 4 4V614c0 2.2-1.8 4-4 4H94.9c-2.2 0-4-1.8-4-4v-60.7c0-2.2 1.8-4 4-4z" style="fill:#d46733"/><path class="st64" d="M90.9 605.8c-1.4 0-2.5-1.1-2.5-2.5V553c0-3.4 2.8-6.2 6.2-6.2h95.3c1.4 0 2.5 1.1 2.5 2.5s-1.1 2.5-2.5 2.5H94.5c-.6 0-1.2.5-1.2 1.2v50.3c.1 1.4-1 2.5-2.4 2.5zM237.7 620.5H106.6c-1.4 0-2.5-1.1-2.5-2.5s1.1-2.5 2.5-2.5h131.1c1.4 0 2.5 1.1 2.5 2.5s-1.1 2.5-2.5 2.5zM222.7 551.8h-11.8c-1.4 0-2.5-1.1-2.5-2.5s1.1-2.5 2.5-2.5h11.8c1.4 0 2.5 1.1 2.5 2.5s-1.1 2.5-2.5 2.5zM233 551.8h-3.3c-1.4 0-2.5-1.1-2.5-2.5s1.1-2.5 2.5-2.5h3.3c1.4 0 2.5 1.1 2.5 2.5s-1.1 2.5-2.5 2.5zM175 594.2c-2.1 0-4-1-5.1-2.8-1.1-1.8-2.3-5.8 2-12.7.6-.9 1.8-1.2 2.8-.6.9.6 1.2 1.8.6 2.8-2.7 4.3-2.8 7.2-2 8.5.5.9 1.5 1 2 .9 1.3-.1 3-1.2 4.1-3.7.4-1 1.6-1.5 2.6-1.1 1 .4 1.5 1.6 1.1 2.6-1.4 3.6-4.3 6-7.4 6.2-.3-.1-.5-.1-.7-.1zM218.8 595.9c-1.2 0-2.2-.3-2.9-.7-6-3.1-7.9-15.4-4.3-28.1.3-1.1 1.4-1.7 2.5-1.4 1.1.3 1.7 1.4 1.4 2.5-3.4 12-.9 21.8 2.3 23.4 2.2 1.1 4.9-1.7 6.3-3.4.7-.9 2-1 2.8-.3.9.7 1 2 .3 2.8-3.3 4.1-6.2 5.2-8.4 5.2z"/><path class="st64" d="M119 600.5c-2.5 0-4.7-1.8-6-5.1-.5-1.3-.9-2.5-1.2-3.8-1.6 1.8-3.2 3.6-5 5.4-.8.8-2 .8-2.8 0-.8-.8-.8-2 0-2.8 2.7-2.7 5.1-5.3 7-7.7-.9-9.9 2.1-19.1 5.8-21.9 1.5-1.2 3.3-1.3 4.7-.3 1 .7 2.1 2 2.3 4.6.4 4.6-2.8 11.3-8.7 18.8.3 2.1.8 4.3 1.6 6.3.3.8 1.3 2.8 2.6 2.5 1.9-.4 4.4-4.3 4.3-10.6l-.1-2.3 2.2.2c4.8.5 8.7-3.9 9.6-5.6l1.2-2.2 1.9 1.6c1.6 1.3 3 2.3 4.9 2.7l2.7.6-1.4 2.4c-3.8 6.4-3.7 9.7-2.4 10.5 1.7 1.2 6.6-.1 9.2-3.1.4-.5.8-.9 1.1-1.4-.2-.6-.4-1.3-.5-2-.6-3.9.8-8.5 3-10.1 1.1-.8 2.3-.9 3.5-.3 1.2.7 2 1.8 2.3 3.2.5 2.7-1.1 6-3.2 9.1.1 0 .2.1.3.1 2.1.7 4.9-2.6 7.3-5.5 2.7-3.2 5.3-6.2 8.5-6.3 3.2-.1 5.6.2 7.4 1.9 1.6 1.5 2.3 3.8 2.3 7.5 0 2.2.9 3.7 2.3 4.2 1.1.3 2.2-.1 2.8-.9l.4-.6c1.2-1.9 3.8-5.7 7.7-8.1.2-.2.5-.3.7-.4 3.9-2.2 9-2.9 15.6.7l1.5.8-.5 1.6c-3.1 9.4-8.7 13.2-12.9 13.6-3 .3-5.6-.9-7-3.3-.6-1.1-1-2.3-1-3.6-.2.4-.5.7-.7 1l-.4.6c-1.6 2.4-4.5 3.4-7.3 2.5-2.5-.8-5.1-3.3-5.1-8 0-2.4-.4-4-1-4.6-.6-.6-2-.9-4.5-.8-1.4 0-3.7 2.7-5.5 4.9-3.2 3.8-6.9 8.1-11.5 6.7-.6-.2-1.1-.4-1.6-.7-.2.3-.4.5-.7.8-3.5 4.1-10.6 6.6-14.6 3.8-2.4-1.7-4.2-5.4.1-13.7-.8-.4-1.6-.9-2.3-1.4-2 2.4-5.6 5.3-10 5.8-.4 6.6-3.3 11.7-7.4 12.6-.8.1-1.1.1-1.5.1zm80-15.8c-2.6 3.8-2.7 6.6-1.9 7.9.6 1 1.7 1.5 3.1 1.3 2.6-.3 6.4-2.9 8.9-9.3-4.1-1.8-7.5-1.3-10.1.1zm-42.2-3.6c-.4.7-.8 1.8-.9 3.1.6-1.4.9-2.4.9-3.1zm-37.5-13.5c-.3.2-1 .9-1.9 2.6-1.4 2.8-2.4 6.7-2.6 11.1 3.8-5.6 5.2-9.8 5-12.2-.1-.7-.2-1.2-.5-1.5zM101.6 565.9c-3.9-.2-4.2 3.9-2.1 3.9s3.9-1.1 3.7-3.4c2.2-.5 2.6-4 0-5.1-2.7-1.1-5.4 1.3-1.6 4.6z"/><path class="st64" d="M137.5 565.7c1.9 2.3 4.3 2.3 3.5-1.5-.9-3.8-5.8-2-3.5 1.5zM142.6 563.4c.4 3 2.9 2.6 3.3 0 .5-3.2-3.7-4.4-3.3 0zM149.7 566.3c0 3 1.6 2.6 3.4 0 1.8-2.6-3.3-4.7-3.4 0zM226.2 565.8c-.9 2.4 1.4 3.6 3 1 1.7-2.5 1.6-3.4.5-4.1-1.1-.8-3.1 2-3.5 3.1zM230.5 569.1c-3.2.7-3.5 2.7-1.9 3.8s2.4.2 3.3-1.4c1-1.4.6-2.8-1.4-2.4zM134.5 605.1c-4.4 3.6 3.6 6 3.5 1 0-3.5-2.7-1.8-3.5-1zM126.8 604.2c-4 3.7 2.9 5.2 4.2 1.5 1.4-3.7-2.5-3.1-4.2-1.5z"/><path class="st10" d="m606 530.6-537.2-1.3c-.6 0-1.2-.2-1.7-.7L.8 466.4c-1-.9-1.1-2.5-.1-3.5.9-1 2.5-1.1 3.5-.1l65.6 61.5 536.2 1.3c1.4 0 2.5 1.1 2.5 2.5 0 1.3-1.1 2.5-2.5 2.5z"/><circle class="st66" cx="663" cy="554.1" r="37"/><path class="st67" d="M679.9 566.9c-8 9.8-21.9 11.8-31 4.4-3-2.5-5.1-5.7-6.3-9.2-2.3-7.1-.9-15.5 4.5-22 8.1-9.8 21.9-11.8 31-4.4.5.4 1 .9 1.5 1.4l.2.2c7.4 7.7 7.6 20.5.1 29.6z"/><path d="M677 561.1c-8.4 10.9-26.6 14.9-34.4 1.1-2.3-7.1-.9-15.5 4.5-22 8.1-9.8 21.9-11.8 31-4.4.5.4 1 .9 1.5 1.4 1.6 1.4 5.8 13-2.6 23.9z" style="fill:#ffc28d"/><path class="st66" d="M667.9 555.2c-2.8 3-7.6 3.6-10.8 1.3-1-.8-1.8-1.7-2.2-2.8-.8-2.1-.3-4.7 1.6-6.7 2.8-3 7.6-3.6 10.8-1.3.2.1.4.3.5.4s0 0 0 .1c.3.3.5.6.8.8 1.8 2.4 1.6 5.7-.7 8.2z"/><path class="st67" d="M668.6 547.1c-5.2-.5-11.2 2.9-11.5 9.4-1-.8-1.8-1.7-2.2-2.8-.8-2.1-.3-4.7 1.6-6.7 2.8-3 7.6-3.6 10.8-1.3.2.1.4.3.5.4s0 0 0 .1c.3.3.6.6.8.9z"/><circle class="st69" cx="674.9" cy="543.3" r="1.1"/><circle class="st69" cx="676.5" cy="548.3" r="1.1"/><circle class="st69" cx="674.6" cy="554.7" r="1.1"/><circle class="st69" cx="669.3" cy="562.3" r="1.1"/><circle class="st69" cx="662.4" cy="563.9" r="1.1"/><circle class="st69" cx="658.4" cy="563.9" r="1.1"/><circle class="st69" cx="652.5" cy="565" r="1.1"/><circle class="st69" cx="651.3" cy="558.8" r="1.1"/><circle class="st69" cx="647.5" cy="555.8" r="1.1"/><circle class="st69" cx="651.3" cy="552.2" r="1.1"/><circle class="st69" cx="651.3" cy="546" r="1.1"/><circle class="st69" cx="658.9" cy="540.4" r="1.1"/><circle class="st69" cx="664.6" cy="536.4" r="1.1"/><circle class="st69" cx="669.3" cy="538.7" r="1.1"/></svg>