<svg version="1.1" id="Layer_1" xmlns="http://www.w3.org/2000/svg" x="0" y="0" viewBox="0 0 220.6 222.3" style="enable-background:new 0 0 220.6 222.3" xml:space="preserve"><style>.st3{fill:#ffe033}.st4{fill:#ffbbb6}.st6{fill:#fff7ff}.st7{fill:#203b55}</style><path d="M32.5 98v104c0 4.8.9 6.2 3.2 8.7 2.3 2.5 12.5 10.1 12.5 10.1V103.4L32.5 98z" style="fill:#5be2cf"/><path d="M46.2 112.3v99c0 11 3.2 11 8.2 11h126c10 0 8.7-3.4 8.7-11.6V109.2l-74.4-49.1-68.5 52.2z" style="fill:#77f5e3"/><path d="M93.2 43.6 31 92.1c-4.7 3.8-4.1 5-.1 9.6 3.9 4.6 13.6 15.7 13.6 15.7 3.7 4.6 7.5 1.8 12.7-2.7s60.4-46.9 60.4-46.9l71.4 45.7c3.4 2.3 8.2-.6 3.5-5.1-4.7-4.5-13-13.4-13-13.4-4.3-4.8-5.2-5.6-11.2-9s-66.8-43.4-66.8-43.4c-3.3-2.5-6.5-.3-8.3 1z" style="fill:#33ccb8"/><path class="st3" d="M88.3 90.4c21 13 51.2 9.8 61.6-2l-32.3-20.7-29.3 22.7z"/><path class="st4" d="M189.1 143.6c21.1-17.7 29.6-13.4 31.1-8.8 1.5 4.5-.9 13.6-7.6 13.5 12.2 6 6 16.7-3.8 18-.3 9.8-13.2 11.9-19.7 6.2v-28.9zM39.5 153.3c-12.9-19.6-26.9-21.6-33.7-21.8s-6.2 7.1-5.2 10.9c1 3.8 5.1 6 6.3 6.2-11.8 3.8-5.2 18.1 3.7 16.5-4.8 8.4 7.5 19 28.8 9.1v-20.9z"/><path d="M122.3 185.9c-2.2-3.5-4.3-5.7-5.9-6.7-2.2-1.3-5.5.1-3.1 3.9 2 3.4 5.2 8.9 9 8.9 3 0 7.3-6.8 8.8-10.8 1.5-4-2.8-5.5-4.7-2.1-1.8 3.4-4.1 6.8-4.1 6.8z" style="fill:#02b09d"/><ellipse class="st6" cx="90.6" cy="161.3" rx="20.5" ry="25.3"/><ellipse class="st7" cx="90.6" cy="161.3" rx="14.1" ry="19.3"/><circle class="st3" cx="64.9" cy="181.4" r="3.9"/><ellipse class="st6" cx="154.6" cy="161.3" rx="20.5" ry="25.3"/><ellipse class="st7" cx="154.6" cy="161.3" rx="14.1" ry="19.3"/><circle class="st3" cx="180.3" cy="181.4" r="3.9"/><circle class="st3" cx="101.4" cy="14.7" r="14.7"/></svg>