<svg version="1.1" id="Layer_1" xmlns="http://www.w3.org/2000/svg" x="0" y="0" viewBox="0 0 202.1 236.2" style="enable-background:new 0 0 202.1 236.2" xml:space="preserve"><style>.st2{fill:#fff}.st3{fill:#8b807b}.st4{fill:#624f4a}</style><path d="M157.3 140.7c5.4-4.2 13-12.7 17.6-21V72L155 90.9v51.2c.9-.4 1.6-.9 2.3-1.4z" style="fill:#806d68"/><path d="M157.3 140.7c-.7.5-1.4 1-2.2 1.4v43.7l19.5-11.1.4-19.2v-35.8c-4.7 8.4-12.3 16.9-17.7 21z" style="fill:#eadedf"/><path class="st2" d="M109.5 135.2c-23.9-10.6-46.2-7-60.4-1.4s-31.2 12.2-44 8.9v57c0 9.2.3 12 7 12h143v-69.6c-8.2 4-23.9 2.7-45.6-6.9z"/><path class="st3" d="M49.1 133.8c14.2-5.6 36.4-9.2 60.4 1.4 21.7 9.6 37.5 10.9 45.6 6.9V90.9L76.4 36.1 5.1 84.5v58.1c12.8 3.4 29.8-3.3 44-8.8zM201.5 185.8c-6.9 36.9-46.3 43.9-64.8 40.1-12-2.5-21-1-28.5 2-4.1 1.6-7.7 3.7-11.2 5.8-10 6-13.3-.5-13.6-2.2-.2-1.3-1.8-7.4 1.4-16.7 1-3.1 2.6-6.5 4.9-10.3 16.2-25.1 57.6-29.3 68-29.6 10.4-.3 14.9-4.6 17.2-14.4l.1-5.2c15.2-2.5 30.4 10.6 26.5 30.5z"/><path class="st2" d="M108.2 228c-4.1 1.6-7.7 3.7-11.2 5.8-10 6-13.3-.5-13.6-2.2-.2-1.3-1.8-7.4 1.4-16.7 7.2-1.4 8.5.7 9.7 2.7 1.2 2 1.7 2.9 5.9 2.3 4.2-.6 7.8 3.1 7.8 8.1zM113.1 201.9c-5.3.2-7.2 2.3-6 4.2 1.2 1.9 4.8 1 6-4.2zM114 193c-5.6 4.2-.7 7 3.3 2.9s.7-5.9-3.3-2.9zM140.7 215.3c-7.5.3-5.3 5.5.5 4.7 5.8-.7 5.4-4.9-.5-4.7zM153.7 209.1c-8.6 2.3-4 6.8 2.3 4.1 6.4-2.7 3-5.5-2.3-4.1zM160.2 218.8c-7.1-1.9-9.8-.2-9.3 2.7.4 3 7.4 1.4 9.3-2.7zM182.9 203.7c-5.7 4.6 1.2 7.4 3.4 2.2 2.3-5.2-1.5-3.7-3.4-2.2zM157.6 186.6c-8.2-.2-5.5 5.3 0 3.9 5.5-1.3 4.1-3.8 0-3.9zM167 179c-10.5-.6-7.5 5.9 0 4.8 7.5-1.2 8.3-4.4 0-4.8z"/><path class="st4" d="M98.5 11.1 22 63c-6 3.5-6.9 5.1-9.3 7.3-2.5 2.3-11.1 11.5-11.1 11.5-4.2 4.4.4 9.1 7.1 4.6 6.6-4.4 69.9-43.8 69.9-43.8l71 51.3c3.8 2.9 6.4 4 10.8-.7 4.4-4.6 20.4-21.3 20.4-21.3 3.5-4.3.4-6.6-2.2-8.3-2.7-1.8-71.9-52.6-71.9-52.6-3.3-2.6-6.1-1.3-8.2.1z"/><path class="st3" d="M163.7 53.4c10.1 8.3 2 19.6-19.4 18.7l-22-19-11.8-10.2c-2.5-2.2-1.3-5.8.5-8.5 19.1-25 38.7-32.3 43-33.8s7.1 1.2 9.1 5.6c2 4.5 7.1 14.8 6.3 29.9 8.6 8.3 1.3 16.4-5.7 17.3z"/><path class="st2" d="M163.7 53.4c10.1 8.3 2 19.6-19.4 18.7l-22-19 .8-6.5c16.4 21.3 37.8-3.3 23.6-8.6 12.4 0 16.1-4 16.8-5.3 1.7 2.8 4.2 3.8 6 3.5 8.5 8.2 1.2 16.3-5.8 17.2z"/><path class="st3" d="M63.5 34.8 40.7 50.3 22 63c-9.5 1.1-17.7-8.2-8.8-15-8.8-2.2-9.3-14.8-.9-18.4C12.7 3.8 20.4-1.1 24.6.2c4.2 1.3 29 13.5 38.9 34.6z"/><path class="st2" d="M40.7 50.3 22 63c-9.5 1.1-17.7-8.2-8.8-15-8.8-2.2-9.3-14.8-.9-18.4 5.1 5.1 15 5.5 19 4.9-10.7 7.7-2.4 15.7 9.4 15.8z"/><ellipse class="st2" cx="37.7" cy="93.3" rx="11.1" ry="7.3"/><ellipse class="st2" cx="121.7" cy="93.3" rx="11.1" ry="7.3"/><circle class="st4" cx="34.1" cy="119.4" r="15.4"/><ellipse class="st2" cx="42.8" cy="119.1" rx="3.5" ry="3.8"/><ellipse transform="rotate(-55.161 36.15 127.16)" class="st2" cx="36.2" cy="127.2" rx="3.5" ry="3.3"/><ellipse transform="rotate(-45.001 29.977 113.669)" class="st2" cx="30" cy="113.7" rx="7.8" ry="5.3"/><circle class="st4" cx="123.5" cy="119.4" r="15.4"/><ellipse class="st2" cx="132.2" cy="119.1" rx="3.5" ry="3.8"/><ellipse transform="rotate(-55.161 125.542 127.16)" class="st2" cx="125.5" cy="127.2" rx="3.5" ry="3.3"/><ellipse transform="rotate(-45.001 119.373 113.67)" class="st2" cx="119.4" cy="113.7" rx="7.8" ry="5.3"/><path d="M77.7 189c21.1 0 30.6-16.7 30.6-31.9L93.6 159l-15.8-9.6L62 159l-14.7-1.9c-.2 15.3 9.3 31.9 30.4 31.9z" style="fill:#fa9b83"/><path class="st2" d="M55 161.2c-.1 4.1 3 9.9 7.8 11.8 4.8 2 4.8-1.5 4.8-3.4v-11.3L55 161.2z"/><path class="st4" d="M77.7 121c19 0 19.4 8.5 17.7 12.6-1.7 4.1-5 10.1-13 11.4v3c6.5 9.1 17.4 7.5 21.5 3.6 4.1-3.8 8.4.8 5.8 4.1-6.3 7.4-22.2 10.4-32-3-9.8 13.4-25.6 10.3-32 3-2.6-3.3 1.7-7.9 5.8-4.1 4.1 3.8 15 5.5 21.5-3.6v-3c-8-1.3-11.4-7.3-13-11.4-1.7-4.1-1.4-12.6 17.7-12.6z"/></svg>