<svg version="1.1" id="Layer_1" xmlns="http://www.w3.org/2000/svg" x="0" y="0" viewBox="0 0 220.5 268" style="enable-background:new 0 0 220.5 268" xml:space="preserve"><style>.st1{fill:#8dbcde}</style><path d="M105.6 47.7s-3.7 197.2-3.7 199.6c0 2.3.6 5.1 8.8 5.5s8.3-3.2 8.4-9.4c.1-6.3-2-173.9-2-173.9 10.4 17 16.6 46.3 15.2 131.9-.1 7.2 1.9 11.5 4.3 11.5s3.9-1.7 4-13.1c.1-11.4 8.6-116.5-25.2-150 14.6-6.3 30.5 24.2 36.2 56.1 5.6 31.9 7 125.4 6.6 134.4-.3 9 .6 16.1 3.4 16.1s4.7-9.8 4.5-17.4 4.3-98.7-10.7-151.6c-5.3-19.3-17.2-39.9-21.2-42.9 10.9 0 31.1 22.2 37.6 47.4s11.8 55.7 12.8 118.5c0 6.3 1.1 13 3.5 13.1 2.4.1 3-7.7 2.9-18.8 0-84.5-11.2-169.9-69.8-172.1 15.5-20.2 41.9-5.7 52.5 10.8 10.6 16.5 32.3 58.1 32.3 148.3 0 7.4 1.4 10.1 3.8 10.1 2.3 0 3.6-6.8 3.6-15.2 0-72.2-11.4-126.1-46.2-160.3-23.6-23.2-48.8-6.6-52.4 2.3-20.6-33.2-49.4-24-63.4-4.1S7.8 95.2 7.8 183.4c0 12.6 8.7 12.7 8.7-.5C16.5 128 27 60.4 62.6 24.4 74.5 11.8 90.1 8 100.7 23c-18.9-3.9-45.2 18.7-52.6 51.9s-17.7 78.8-18.5 152.4c0 12.9 10.3 15.8 10.3-.7s-.6-111.5 19.7-162.2c-7.6 66.2-.1 149.5 1.4 154.4 1.6 4.9 10 8.6 6.8-10.3-3.1-18.9-3.8-87.3-4.1-98.2s1.9-59.7 17.4-74.6c7.5-7.6 20.4-4.9 23.3 4.9-11.5-.2-13.7 23.6-14.1 30.5-.4 6.8-8.2 128.3-7.7 139.4.5 11.1 2.5 12.1 4.4 12.3 2 .2 3.7-6.4 3.7-13.1s7-133.3 7.4-139.4c.4-6 2.8-20.7 7.5-22.6z" style="fill:#5190d3"/><path class="st1" d="M115 15.9c-4.4-8.7-9.9-5.7-7.5 3s10.5 2.8 7.5-3zM106.3 7.9c-.4-8.4-12.5-5.7-6.2 2.8 2.4 3.4 6.5 2.5 6.2-2.8zM91.6 2C86.7-4.1 77.9 5.5 88 8.7c4.2 1.3 8.4-.6 3.6-6.7zM73.8 2c-8.4-1.4-8.9 11.2 2.5 7.1C80 7.8 79 2.9 73.8 2zM60.9 7.8c-8.9 0-7.7 11.2 3 7.2 4-1.6 1.9-7.2-3-7.2zM49.9 18c-7.6 2.1-2.2 9.8 4.1 7.2s4.2-9.6-4.1-7.2zM37.2 32.1c-6.3 6.7 2.5 11 7.2 6s-1.2-12.3-7.2-6zM30.3 43.8c-8.5 3.7-.8 12.2 6 7.1s2.5-10.8-6-7.1zM26.5 56.1c-8.4 3.1-4.6 11.4 3.9 6.4 8.6-5 4.2-9.4-3.9-6.4zM20.8 67.1c-10.4 3.2-3.7 13.2 3.4 7.6s2.7-9.4-3.4-7.6zM17 80.4c-6.7 2.1-5.2 14.2 4.1 7.9 9.3-6.4 5.2-10.9-4.1-7.9zM11.8 94.6c-6.8 4.2-2.6 12.8 5.8 6.1S21 89 11.8 94.6zM9.9 108.6c-6.7 4.8.5 11.5 5.6 6.9s1.1-11.8-5.6-6.9zM7.2 121.4c-4.9 6.1 3.3 12.5 8 5.7s-4.2-10.5-8-5.7zM4.7 134.6c-4.3 4.3.9 12.6 7.8 6.2s-2-12-7.8-6.2zM3.1 147.4c-6.9 7.5-1.1 13.3 5.9 6.7s0-13-5.9-6.7zM2.5 161.9c-5.3 6.1 2.5 10.8 6.6 4.7 4-6-.7-11.5-6.6-4.7zM7.2 174c-7 5.9-1.9 14.9 2.5 7.2s2.2-11.2-2.5-7.2zM9.2 189.7c-1.4 8.2 7.8 9.5 6.3 0s-5.6-4.3-6.3 0zM20.3 160.6c-5.3-5.3-10.6.6-4.7 6.5 5.9 5.8 9.1-2.2 4.7-6.5zM19.7 174.6c-4.7-5.9-7.5 2-3.2 7.7s7.2-2.6 3.2-7.7zM21.6 149.4c-5.9-5.3-11.1 1.8-4.2 6.8s8.6-2.8 4.2-6.8zM24 137.7c-4-6.3-9.6-.7-6 5.5s9.5 0 6-5.5z"/><path class="st1" d="M25 125.2c-6.8-7.6-12 2.7-6 6.1s9.8-1.8 6-6.1zM26.6 112.6c-4.1-4.7-12.4 1.4-5.1 6.7s9.2-2 5.1-6.7z"/><path class="st1" d="M28.7 103.2c-2.6-7.3-11-5.7-7.8 2.7s10.2 4.3 7.8-2.7zM32 89c-4.4-7.8-9-2.9-7.3 3.2 1.9 9.6 12.8 6.6 7.3-3.2zM36.7 77.3c-1.5-7.3-9.2-6.4-8.5 1.6s10.2 6.8 8.5-1.6zM33.3 66.2c4.4 8.5 12.2 2.2 7.2-4.2s-8.7 1.2-7.2 4.2zM46.1 50.3c-2.8-6.7-10.2-1.2-6.8 5.2 3.5 6.4 9.3.6 6.8-5.2zM46.1 39.4c-.4 8.6 8.7 6.7 8.9 0 .2-6.7-8.6-7.3-8.9 0zM54.5 30.1c1.3 6.5 8.8 7.1 8.8-.6s-10.1-5.4-8.8.6zM65.5 16.8c-2.9 6.5 3.8 10.6 7.1 4.8 2.1-4.4-4.3-10.1-7.1-4.8zM76.9 10.5c-5.5 7.9 6.7 12.2 7.8 2.7s-6.6-4.4-7.8-2.7zM91.8 11.8c-7.9 1.9-2.2 10.4 3.4 6.8s1.1-7.8-3.4-6.8zM103.2 18.7c-6.2-.8-10.2 6.1-2.6 7 7.6 1 8-6.3 2.6-7z"/><path class="st1" d="M75.5 20.8c-3-.3-4.7 4.8-.7 4.9 4 .1 4.6-4.5.7-4.9zM85.6 21.6c-7.7 1.6-4.8 10.5 2.3 6.2s.1-6.7-2.3-6.2zM70.1 29.9c-6.9 2.6 0 9.5 6 5.3 5.9-4.3-.3-7.5-6-5.3zM64.6 38.1c-4.9 1.9-1.9 9.3 4.3 6.5s1.8-8.9-4.3-6.5zM57.1 41.4c-2.8 2-.4 5.3 2.5 3.3 2.8-2.1-.3-4.9-2.5-3.3zM50.5 48.8c-4 4.4 2.5 9.6 6.1 3.7s-3.5-6.6-6.1-3.7zM60.7 48.9c-4 3.6.3 10.3 5.7 5.2 5.3-5.1-1.7-8.8-5.7-5.2zM45.3 62.8c-.1 5 6.5 6.5 7.3 0 .9-6.5-7.2-4.2-7.3 0zM55.8 60.5C50 67 61.3 70.6 63.3 64c2-6.5-3.9-7.7-7.5-3.5zM41.7 71.5c-5.1 3.2.1 10.9 5.1 6.3 4.9-4.6 0-9.5-5.1-6.3zM53.5 72.3c-7.2 7.1 3.5 10.7 6.7 4.9 3.2-5.8-2.1-9.5-6.7-4.9zM40.6 84.3c-4.3 6.7 2.2 10.5 6.2 3.5 3.9-6.9-3.2-8.1-6.2-3.5zM51 84.3c-4.4 7.5 6.4 11.2 7.9 3.5 1.5-7.6-5.9-6.9-7.9-3.5zM36.9 98.6c-5.8 6.5 2.8 10.5 6.6 4.7s-.3-11.8-6.6-4.7zM51 97.7c-5.6 7.4 1.6 11.1 5.1 5.5 3.5-5.5-.2-11.9-5.1-5.5zM34.2 110.7c-5.7 4.6.6 13.6 5.7 7s1.4-12.7-5.7-7zM42.4 119.2c-.8 4.3 6.8 4.2 6.4.7-.3-3.4-5.3-6.7-6.4-.7zM32 125.7c-6.5 8 3.3 10.7 6.6 4.3 3.3-6.4-.6-11.7-6.6-4.3zM41.1 132.5c.3 7.1 8.8 6.9 7.9-.3-1-7.2-8.2-5.4-7.9.3zM30.4 139.4c-6.8 8.9 3.6 12.7 6.8 6 3.1-6.8-2.1-12.2-6.8-6zM39.2 145.8c1.3 7.5 9.9 2 7.3-2.1-2.7-4-8.3-3.8-7.3 2.1z"/><path class="st1" d="M29.2 152.7c-9.2 12.6 8 14.5 8 3.6s-6.6-5.5-8-3.6zM39.3 157.2c3.9 7.9 12.6 5.9 7.7-.9-5-6.8-9.3-2.4-7.7.9zM30.6 168.5c-7.7 8.7.3 14 3.9 8 3.7-6 1.7-14.3-3.9-8zM38.3 171.6c2.5 8.6 11.6 5.6 6-2.8-5.6-8.5-7.3-1.6-6 2.8zM31.4 182.9c-7.4 7.9-3.1 13.7 2.2 7.4 5.4-6.3 1.7-11.6-2.2-7.4zM38.1 188.4c2 11 12.2 7.3 8.9 0-3.2-7.3-10.1-6.7-8.9 0zM30.4 199.1c-9.6 11.8-3 16.2 2.2 10.5s2.9-16.8-2.2-10.5zM37.4 204.1c2.2 10.5 10.9 6.6 8.3-.7-2.5-7.3-10-7.2-8.3.7zM29.6 216.3c-12.5 9.9.2 15.9 4 7.8 3.9-8 2.1-12.6-4-7.8zM37.7 220.6c2.2 12.4 14.1 5.6 8.4-1.4s-9.5-4.5-8.4 1.4zM31.8 231.6c-1.7 13.6 11 13.9 8 2.2s-7.5-5.9-8-2.2zM107 25.8c-6.3-.1-6.1 8.2.6 8s5.7-7.9-.6-8zM108.7 37.7c-2.3 2.8 2.6 6.9 4.7 3.5 2.2-3.4-2.4-6.3-4.7-3.5zM90.4 29.9c-4.4 7.6 7.8 9 7.9 2.2.2-6.9-6-5.5-7.9-2.2zM79.4 37.6c.8 7.5 9.5 4.8 7.7-1.9-1.8-6.8-8.3-3.8-7.7 1.9zM72.9 44.8c-1.2 5.8 6.4 7.2 7.8 2.7s-6.5-9-7.8-2.7zM83.4 47.2c-5.2 2.6-1.3 11.3 3.3 5.5 4.7-5.7.2-7.3-3.3-5.5zM69.5 56.7c1.6 7.2 11.1 4.6 7.3-1.6-3.8-6.2-8.5-3.6-7.3 1.6zM65.2 68.9c3.9 6.7 10.8.7 7.9-3.9-2.9-4.7-11.1-1.6-7.9 3.9zM63.7 81.6c5.4 7.2 11.5.6 6-4.9-5.6-5.5-9.3.6-6 4.9zM61.5 92.1c2.9 7.7 11 1.3 7.7-3.5-3.4-4.9-9.8-2-7.7 3.5zM50 110.1c-5.6 8.3 6.1 11.4 8.6 4.1 2.4-7.3-4.6-10-8.6-4.1zM61.8 103.7c5.4 5.5 11.8-1.1 5.2-5.2-6.5-4-8.8 1.5-5.2 5.2zM62.7 114.7c5.5 6.2 12.3-1 6.2-5.2-6.1-4.3-10 1-6.2 5.2zM51.1 123.3c-5.7 6.6 4.6 12.2 7.3 4.2 2.8-8-2.4-9.8-7.3-4.2zM51.3 136.2c-7.8 9 2.7 14.3 6.9 5.6 4.1-8.6-2.2-11-6.9-5.6z"/><path class="st1" d="M62.5 125.7c7 6.5 13.3-1.3 7.1-4.7-6.3-3.3-13.1-.8-7.1 4.7zM62.6 137.7c4.4 8.2 11.9 1.2 6.7-4.2-5.2-5.3-10.1-2.1-6.7 4.2zM61.9 149.6c4.4 8.9 14-1.2 7.5-5.4s-11-1.8-7.5 5.4z"/><path class="st1" d="M63.7 160.2c4 8.8 11.4.6 6.4-3.7-5-4.2-9.3-2.7-6.4 3.7zM54 152.1c-4.8 8.4 3 12 4.8 5.4 1.9-6.6-1.7-10.8-4.8-5.4zM55.5 165.8c-5.6 7-2 16.5 3.8 10.1 5.9-6.6.4-15.3-3.8-10.1zM63.7 173.7c1.7 8.8 12.8 4.4 8.2-1.7-4.5-6.1-9.5-5.3-8.2 1.7zM55.9 183.9c-4.9 8.4 4.7 14.7 6 5.4 1.3-9.4-3.2-10.3-6-5.4zM63.7 187.2c1.8 8.3 10.6 5.8 7.5 0-3.1-5.8-8.5-5.1-7.5 0zM63.1 199.1c1.7 8.6 11.4 4.7 7-.5-4.4-5.1-8.2-5.4-7 .5z"/><path class="st1" d="M57.9 199.8c-7.8 6.7-.9 15.6 3.2 10.2s.7-13.5-3.2-10.2zM65.4 210.6c1.4 8.4 9.5 6.6 8.3 1.5-1.3-5.2-9.6-9.3-8.3-1.5zM60.9 218.1c-1.4 9.8 9.1 12.4 7.4 4.9-1.6-7.5-6.8-9.1-7.4-4.9zM94.2 42.5c-10.3 5.9 1.3 11.4 5.1 5.2s-2.4-6.7-5.1-5.2zM102 46.1c-1.6 6.5 8.6 9.2 7.4.9s-6.6-4.5-7.4-.9z"/><path class="st1" d="M110.6 48c-1.4 5.9 5.5 6.9 6.4 1.7.9-5.2-5.7-4.8-6.4-1.7zM87.6 55.9c-5.2 5.5 2.7 9.5 6.1 4.4s-1.9-8.7-6.1-4.4zM84.8 66.4c-8 5.8 1.5 12.4 7 6 5.6-6.3-.3-10.8-7-6zM77.4 62.1c-3.6 3.2 1.8 7.4 5.1 3.9 3.3-3.5-1.3-7.4-5.1-3.9zM74.3 75.7c-4.2 4.2 2.1 8.6 5.6 4.3 3.5-4.2-1.8-8-5.6-4.3zM83.9 79.6c-8.2 7.2 2.7 11.5 6.8 4.2 4.1-7.4-1.5-8.8-6.8-4.2zM71.8 93.3c2.7 4.2 8.1 2 5.3-3.2-2.6-5.2-7.9-.9-5.3 3.2zM72.1 103.5c2.4 3.1 6.9-1.2 4.1-3.6-2.8-2.4-6.6.3-4.1 3.6zM81.7 92.8c-5.7 7.5 1.4 12.8 6.9 4.9s-2.8-10.3-6.9-4.9zM80.7 105.6c-7.8 5.5.3 13.4 5.8 6.2s.6-10.7-5.8-6.2zM72.1 117.4c-1.4 2.9 4 4.3 3.9.6 0-3.8-3.2-2-3.9-.6zM79.6 120.8c-5.8 7.9 3.4 11.4 7.4 4 3.9-7.3-3.1-9.8-7.4-4zM71.8 129.8c-3.4 4.1 2.5 7.1 4.7 3.2 2.2-4-2.1-6.3-4.7-3.2zM78.8 132.7c-7.6 5.1 1.7 12.4 6.4 5.9 4.6-6.5.7-10.8-6.4-5.9z"/><path class="st1" d="M72.1 145.4c2.4 2.9 7.4.8 4.3-3.3s-6.6.5-4.3 3.3zM78.5 146.8c-5.8 6.6 3 10.4 6.9 4.2 3.9-6.2-2.1-9.6-6.9-4.2z"/><path class="st1" d="M72.4 154.9c-2.7 4.3 3.2 6.1 4.5 2.4 1.3-3.7-2.7-5.3-4.5-2.4zM78.4 159.3c-4.2 8 4.9 9.9 6.7 2.4s-3.1-9.3-6.7-2.4zM78.2 171.1c-5.6 6.9 1.1 14.1 6.4 5.7s-2.8-10.1-6.4-5.7zM77.8 186.4c-8.4 8 2.9 12.1 6.3 5.3s-2-9.4-6.3-5.3zM76.7 199.4c-4 5.9 2.2 13.2 6 3.9 3.8-9.3-4.1-6.7-6-3.9zM78.2 213.5c-1.5 9.3 7.7 9.5 7.8.8.1-8.6-7-5.9-7.8-.8zM83.2 228.1c0 7.9 7.9 7.2 7.9 0s-7.9-8.1-7.9 0zM88.7 221.3c4.8 5 9.6-1.7 4.8-6.2-4.8-4.4-8.8 2-4.8 6.2zM87.1 208.1c7.2 8.5 13.5-1.8 6-5.3s-9 1.9-6 5.3zM87.8 198.6c3.6 5.1 11.7 1.2 6.7-5.6-5-6.8-9.9 1.1-6.7 5.6zM88.6 185.2c6.5 5.2 10-1.9 5.6-6.6-4.3-4.6-10.2 2.9-5.6 6.6zM89.9 173.6c7.9 4.2 11.1-.9 4.4-6.6-6.7-5.8-8.9 4.2-4.4 6.6zM89.7 162.1c5.6 5.1 10.8.8 6.2-5.7s-9.9 2.3-6.2 5.7z"/><path class="st1" d="M90.1 150.6c4 5.7 10.9-.4 5.7-5.8-5.2-5.4-9.1 1.1-5.7 5.8zM90.7 138.2c4.9 6.2 12.8.3 5.6-6-7.2-6.3-7.4 3.7-5.6 6zM91.9 125.7c5.1 6 10.3.6 5.7-5.4-4.5-6.1-8.2 2.4-5.7 5.4z"/><path class="st1" d="M92.9 114.7c5.9 7 11.1-1.9 6.3-6.8s-10.2 2.1-6.3 6.8zM92.9 101.8c4.2 4.6 10.8-.6 5.6-6-5.2-5.5-8.4 2.9-5.6 6zM94.6 88.2c4.8 6.6 11.9.2 5.5-5.1s-7.9 1.9-5.5 5.1zM95.3 70.6c-4.9 9.2 9.3 9.9 7.6 2-1.7-7.9-5.8-5.4-7.6-2zM97 57.3c-3.7 6.7 8.7 10.3 7 1s-6.2-2.4-7-1zM107.5 58c-5 4.5 5 10.4 6.5 3.2s-4-5.3-6.5-3.2zM104.5 70.1c-2.8 6.1 3.6 9.2 6.1 3.8 2.5-5.4-4.3-7.8-6.1-3.8z"/><path class="st1" d="M103 87.4c-3.3 6.4 3.9 10.6 6.4 4.5 2.5-6.1-3.6-10-6.4-4.5zM102.2 103.1c-5.9 7.6 5.1 10.6 6.8 3.4 1.7-7.2-2.4-9.1-6.8-3.4zM111.1 83.2c3.4 6.2 8 2.1 8.2.9 1 5.7 7.1 4.9 6.9-.9s-4.9-9.5-6.6-3.5c-5.6-5.5-10.2-.4-8.5 3.5zM113.2 102.7c5.3 3.9 10.7-1.5 5-5.6s-8.3 3.2-5 5.6z"/><path class="st1" d="M121.9 95.1c-2.6 10.3 8.3 9.4 7.1 1.5-1.2-8-5.8-6.7-7.1-1.5zM113.1 116.2c6.6 5.5 11.6-.7 5.9-5-5.6-4.3-9.7 1.8-5.9 5zM102.5 118.9c-3.6 7.4 4.3 11.2 6.3 4.1 1.8-7.2-4.1-8.8-6.3-4.1zM114.4 132.4c6.4 5.3 10.3-.9 5.8-5.7-4.5-4.8-9.9 2.3-5.8 5.7zM101.5 132.8c-3.9 5.7 5.7 10.5 6.9 3.7 1.1-6.8-4.5-7.2-6.9-3.7zM102.3 147c-4.1 5.7 5.3 10.6 6.5 3.1s-3.8-6.9-6.5-3.1zM112.6 146.5c3.7 5.7 10.6-2.5 5.6-5.6s-9 .3-5.6 5.6zM112.5 159.9c2.1 7.1 11 1.6 6.7-3.7-4.3-5.2-8.6-2.4-6.7 3.7zM100.7 164.7c-3 6.8 5.2 10.7 6.8 3.4 1.7-7.4-4.4-8.9-6.8-3.4zM112.8 173c4.6 5.4 9.3-1.5 5.5-4.7-3.9-3.2-9.2.3-5.5 4.7zM104 180.6c-2.9 7.3 6.1 9.5 6.6 2.9s-5.3-6.2-6.6-2.9zM113.5 187.9c3.9 4.9 10.7-.7 6.2-5.1-4.5-4.3-9.2 1.2-6.2 5.1zM105 192.5c-6.6 6.3 4.3 10.4 6 3.9 1.7-6.6-2.7-7.1-6-3.9zM115.3 202.4c5.6 5 9.2-2.3 4.9-5.9s-9.1 2.1-4.9 5.9zM105.9 208.2c-2.6 8.8 6.3 10.5 7.1 2.1.8-8.5-5.3-8.2-7.1-2.1zM116.9 212.5c4.1 5.9 9.9-3 5.9-5.3-4.1-2.2-9.5.2-5.9 5.3zM112.7 219.8c-2.4 10.1 9.1 10.5 8.6 3-.5-7.4-7-9.5-8.6-3zM115.5 70.5c-.9 6.8 9 7 7.5.9s-6.9-5.5-7.5-.9zM117.6 61.7c4.7 5.2 9 1.1 8.6-2.2 4 3.8 7.2.1 7.3-4.8s-6.5-10.7-8.4 2c-6.4-5.8-10.6.9-7.5 5z"/><path class="st1" d="M117.6 46.7c2 7.3 11 3 6.6-2.8s-8.1-2.9-6.6 2.8z"/><path class="st1" d="M120.1 39.8c6.7 0 6.8-8.5 0-7.1-6.9 1.4-6.7 7.1 0 7.1zM118.2 17.7c0-11.2 14.2-8.8 7 2.6s-7-.7-7-2.6zM130.3 11.8c3.7-7.6 12.9-2.4 6.6 4s-9.1 1.2-6.6-4zM127.6 23.6c7.2-1.5 7.3 7.2 0 7.5s-6.9-6.1 0-7.5zM130.1 44.9c7.2 3.2 12.3-7.5 2.9-7.4-9.3 0-6 6-2.9 7.4zM142.7 46.2c2.1 3 6.5 1.7 4.2-1.7-2.2-3.4-5.8-.6-4.2 1.7zM138.1 56.1c7.4 3.1 10.2-6.2 3.1-7.8s-7.7 5.9-3.1 7.8zM132 68.7c-7.3-4.3-9.6 2.9-5.4 6.8 4.2 4 9.3 3 7.5-3.8 4.6 3.2 7.4-2.9 6.1-7.6s-8.4-5.8-8.2 4.6zM129.9 88.1c5.6 4.6 10.1-1.3 5.6-6.2-4.5-4.8-10 2.6-5.6 6.2zM139.5 79.6c-.6 10.2 9.5 8.8 8.3.5s-8-6.8-8.3-.5zM132.8 101.8c5 6.3 12 .9 6.7-5.9-5.4-6.8-11.1.3-6.7 5.9z"/><path class="st1" d="M142.4 92.4c-3 10.7 9.5 10.9 8.5 1.9-1.1-8.9-7.1-6.9-8.5-1.9zM123.9 114c-2.9 10.1 9.1 9.5 9 .7s-6.9-7.9-9-.7zM135.1 114.9c4 5.7 10.7-.6 6.6-5.5s-9.4 1.5-6.6 5.5zM127.8 127.1c-6.6 8.7 5.2 12.3 7 3.5 1.9-8.8-3.2-8.4-7-3.5zM138.1 126.6c4.2 9.4 12.3 3.7 7.7-3.3-4.6-6.9-10.7-3.4-7.7 3.3zM127.4 145.2c-3.1 9.1 7.2 10 7.9 1.8.6-8.2-5.4-9.3-7.9-1.8zM137.3 143.4c4 7.5 13 4.6 7.8-3.8-5.2-8.3-10.3-.7-7.8 3.8zM128.9 157.6c-6.7 9.9 5.6 10.9 7.1 4.1 1.7-6.8-2.8-10.4-7.1-4.1zM138.8 158.4c2.8 7.1 12.2 4 7.4-3.3-4.8-7.3-9.6-2.2-7.4 3.3zM138 172.2c5.7 7.5 12.4.8 7.8-5.6-4.6-6.3-11.2 1.1-7.8 5.6zM127.6 173.4c-4.8 8.9 6.1 12 7.2 4 1.1-8-4.4-9.3-7.2-4zM138.2 186.4c5.6 5.3 11.4-.8 6-6-5.3-5.2-11.3 1-6 6zM127.9 190c-6.9 8.8 5.8 11.2 7 3.9s-4.2-7.4-7-3.9zM138.6 199.7c4.6 6.2 11.5.4 6.7-4.6s-10.2-.1-6.7 4.6zM128.9 204.5c-5.2 8.3 5.7 10.9 6.5 3.3s-5-5.7-6.5-3.3zM139.2 213.6c5.1 8 11.4-.8 6.6-5.6-4.7-4.6-9.4 1.3-6.6 5.6z"/><path class="st1" d="M132.1 218.3c-.5 8.4 10.2 8.3 9.1.7-1-7.6-8.7-6.9-9.1-.7zM136.6 29.5c8.6-3.8 8.4 5.4 2.8 5.1-5.5-.3-6.2-3.6-2.8-5.1z"/><path class="st1" d="M137.4 26c6.7 6.5 11.8-2.8 6.4-5.8-5.4-3.1-11.7.7-6.4 5.8zM144.5 11.5c9.6-8 13.2 6 4 6.3-9.1.3-6.2-4.5-4-6.3z"/><path class="st1" d="M148 27.1c.9 7.9 13.3 7.9 7.7-4.2 8.6 3.6 12.9-2.9 8.5-6.6-4.4-3.7-12.8.4-10.2 4.8-4.9-4-6.5 1.6-6 6zM148.2 34.1c7.9-1 5.9 10-1.3 7-7.1-3.2-2.5-6.5 1.3-7z"/><path class="st1" d="M159.1 34c.5 9.1 11.8 4.7 7.6-1.9s-7.8-2-7.6 1.9zM168.3 29.8c10.5 3 10.8-6.2 1.9-6.9-8.8-.8-7.3 5.3-1.9 6.9zM176.5 38.9c8.3 4.3 12.4-4 4.6-6.6s-10.4 3.7-4.6 6.6zM155.9 48.3c11.2 2 8.1-7.8 1.5-7.1-6.5.8-7.2 6.1-1.5 7.1zM149.2 55.5c2.5 8 11.5 1.9 6.4-3.1s-7.8-1.4-6.4 3.1z"/><path class="st1" d="M144.3 65.7c8.1 5.2 11.9-3.6 5.5-6.6-6.5-2.9-9.8 3.8-5.5 6.6zM149.3 74.7c4.8 5.6 12.6-.5 6.4-5s-8.7 2.4-6.4 5zM152.2 88.7c5.7 8.8 12.9 1.9 7.4-4.2-5.4-6.2-10.3-.3-7.4 4.2zM156.9 101.4c9.2 7 11.8-1.4 4.7-5.4-7.2-3.9-9.8 1.5-4.7 5.4zM147.1 104.3c-7 10.5 5.6 13.9 7.2 4.3 1.5-9.7-4.5-8.4-7.2-4.3zM148.9 120.5c-5.1 9.1 4.4 10.5 6.7 2.8s-3.3-9-6.7-2.8zM158.4 113.3c5.2 7.2 11.9-2.9 5.7-5.6s-8.9 1.1-5.7 5.6zM162.3 124c5.5 5.6 10.4-.9 5.1-4.9s-9.4.5-5.1 4.9zM162 134.9c5.3 5.4 12.3-1.6 4.7-5.7s-9.4.8-4.7 5.7zM151.3 134.9c-5.4 10.1 5.2 11.8 6.8 3.5 1.7-8.3-3.9-9-6.8-3.5zM162.1 147.7c4.8 7.3 11.5-1.3 6.5-6.1-5.1-4.8-10.4.2-6.5 6.1zM152 149.5c-5.6 11.2 5.2 10.8 6.4 2.8 1.2-8-3.9-7.8-6.4-2.8zM163.9 158.6c5 6.8 11.8-.6 6.4-4.7s-10.3-.7-6.4 4.7zM151.7 163.6c-6.8 11.6 7.4 12 8.8 3.9 1.3-8.1-4.8-10.6-8.8-3.9zM165.6 169.4c4.4 7 12.3 1.4 5.6-4.2s-8.5-.4-5.6 4.2zM153.7 178c-5.4 10.9 4.1 14.1 7 4.6s-3.9-10.7-7-4.6zM164.9 181.9c3.3 7 11.4 1.3 5.7-4.7-5.8-6-7.7.5-5.7 4.7zM152.8 194.8c-3.2 7.7 4.8 12.1 7.3 2.9 2.5-9.1-4.2-10.3-7.3-2.9zM164.4 193.1c4.8 6 9.9-.9 5.7-4.7s-9.4 0-5.7 4.7zM164.7 205.3c7.1 6.7 11.6-2.5 5.8-6.3-5.8-3.9-10.6 1.8-5.8 6.3zM164.8 216c4.3 6.4 10.1-1.1 5.8-4.9-4.4-3.8-9.1 0-5.8 4.9zM153.3 207.7c-5.4 8.2 3.2 10.8 6.5 4.4s-2.5-10.5-6.5-4.4zM152.1 219.3c-6.9 6.4 2.3 12.3 6 5.4 3.7-7-.3-10.6-6-5.4zM163.9 225.9c6 6 10.4-.3 5.9-4.5s-9.6.8-5.9 4.5zM152.1 233.5c-7.3 9.1 4.2 13.4 6.6 3.6s-3.1-8-6.6-3.6zM164.4 237.7c4.8 10.2 11.3.8 7.1-4.4-4.4-5.2-10.4-2.4-7.1 4.4zM152.6 246.5c-4.6 6.8 4.7 13 8.2 4.6 3.5-8.4-4.3-10.4-8.2-4.6zM164.4 251.3c4.9 8 11.8-.4 6.2-5.2-5.7-4.9-9.5-.1-6.2 5.2zM157.8 260.2c-2.6 10.1 11.3 11 9.3.3s-7.7-6.9-9.3-.3zM167.2 43.2c-1.1 7.2 9.5 8.5 8.2 0-1.2-8.5-7.5-4.8-8.2 0z"/><path class="st1" d="M174.5 49.5c-4.6 9.6 9.4 11.2 8 1.6s-5.5-6.7-8-1.6zM162.8 57.8c7.2 5.4 11.2-5.5 3.4-6.6-7.7-1.1-6.6 4.2-3.4 6.6zM158 66.4c-.2 5.8 9.4 4 6-1.5s-5.9-3.1-6 1.5zM168.3 69.3c3.6 7.8 13.4-1.5 5.3-5.1-8.1-3.6-6.5 2.5-5.3 5.1zM161.1 79.6c-2.2 8.2 8.2 7.1 7.1.5-1-6.5-5.3-7.1-7.1-.5zM175 83.3c7.9 2 10-5.8 2.5-6.8-7.5-.9-6.6 5.8-2.5 6.8zM166.6 92c-.8 9.3 8.8 5.6 7.3 0-1.5-5.6-6.7-7.3-7.3 0zM178.8 94.3c4.8 4.4 12.8-2.7 4.8-6.3-8.1-3.7-8.2 3.2-4.8 6.3zM169.2 104.7c-1.4 7.8 7.1 7.2 7 .8-.2-6.5-6-6.6-7-.8zM180.6 104.7c.6 8.2 13.9 2.9 7.5-3.6s-7.9-2.1-7.5 3.6zM172.6 116.1c-3 6.7 6.1 8 6.4 1.7.2-6.2-4.6-5.7-6.4-1.7zM183.2 117.8c2.9 5.3 10.2-.5 5.3-4.4-4.8-3.8-8-.7-5.3 4.4zM173.4 126.2c-5.3 7.1 6 8.4 6.6 2.7.6-5.7-3.4-6.9-6.6-2.7zM185.1 130.3c5.6 4.9 10-.5 5.5-4.7-4.4-4.2-9.6 1.1-5.5 4.7zM175.1 140c-4.9 6.9 6.5 10.6 6.9 2.4.4-8.2-4.3-6.2-6.9-2.4zM186.2 142.1c4.5 6.2 10.5-1.5 5.8-5.4-4.6-3.9-9.4.5-5.8 5.4zM177.3 152.7c-4.8 7.7 5.3 9.7 7 2.6 1.8-7.2-3.4-8.4-7-2.6zM187.3 153.6c5.1 6 10.5.4 4.9-4.6s-8.4.5-4.9 4.6zM177.9 167.8c-3.8 10.5 6.8 10.3 7 .9.3-9.4-4.3-8.1-7-.9zM187.8 164.7c3.9 6.4 9.9-1.1 5.7-4.5-4.2-3.5-8.6-.4-5.7 4.5zM188 178.6c4.6 6.8 11-2.2 6.1-6.1-5-3.9-9.8.6-6.1 6.1zM178.6 184.1c-4.1 8.2 7.6 8.8 7.3 1-.2-7.8-3.8-8.1-7.3-1zM189.4 192.2c4.7 6.5 11.8.3 6.4-5.6-5.4-5.8-9.6 1.3-6.4 5.6zM178.1 196.8c-5.9 5.8 4 11 7.1 3.9s-2.1-8.8-7.1-3.9zM189.1 204.2c2.3 6.9 12.8.4 5.7-5.1-7.2-5.5-7.1.9-5.7 5.1zM179.2 213.2c-4.5 10.5 8 9.4 7.7 1.1-.3-8.2-5.2-7.2-7.7-1.1zM189.5 218.5c2.2 7.2 11.9 1.5 7.1-4.5-4.9-5.9-8.6-.5-7.1 4.5zM183.8 228.8c-.6 10.8 9.7 7.1 8.4-1-1.4-8.2-7.9-6.6-8.4 1zM185.9 51.6c7.8 5.2 11-6.4 3.3-7.4s-7.1 4.9-3.3 7.4zM180.6 61.8c-2 10 8.3 7.5 7.3.3s-6.1-6.4-7.3-.3zM192.3 65.3c6.8 5.9 11.8-2.5 5.4-6-6.5-3.4-11 1.1-5.4 6zM184.6 76.5c-1.5 7.5 8.8 8.6 8 .5s-6.6-7.5-8-.5zM198.1 81.5c6.6 6.4 12.4-3.4 5.2-6.7-7.2-3.3-9.5 2.5-5.2 6.7zM189.8 89.7c-1.5 7.6 9.5 8.6 8.2 0s-7-6.4-8.2 0zM202.3 96.4c3.6 5.4 12.2-.4 6.3-6.1-5.9-5.7-10.1.4-6.3 6.1zM193.1 105.2c-.8 8.3 9.7 6.8 8.5 0-1.1-6.8-7.7-7.4-8.5 0zM206 111.7c5.6 8.4 12.6-1.8 6.7-5.8s-11.9-2.1-6.7 5.8zM196.6 116.2c-5.9 6.1 6.5 10.9 7 3.1s-2.6-7.7-7-3.1zM206.9 127.5c5 9 12.5.7 8.1-5s-12.2-2.5-8.1 5zM196.4 131.4c-3.2 6.3 8.8 10.3 8.8 1.8-.1-8.5-6.7-6.1-8.8-1.8zM208.7 144.4c2.6 6.4 12.1 1.1 7.4-5.1s-10.5-2.4-7.4 5.1zM197.6 146.1c-2.9 7.7 4 9.1 6.7 3.2s-4.2-10-6.7-3.2zM209.5 158.7c4.9 8.2 13 .1 7.2-5.2s-10.7-.6-7.2 5.2zM199.5 157.7c-4.7 8.5 6.6 12.1 7.5 3.4.9-8.6-5.2-7.6-7.5-3.4zM210.8 173.3c5.5 10.5 13.7 4.5 7.5-4.5s-11.4-2.9-7.5 4.5z"/><path class="st1" d="M199.7 170.4c-4.3 6 5.5 11.8 8.3 4 2.8-7.7-5.1-8.5-8.3-4zM211.7 188.1c2.6 5.3 10.7.9 6.3-4.6-4.4-5.7-8.5 0-6.3 4.6zM201.7 181.6c-6.2 5.3 2.7 10.7 5.9 5 3.2-5.6.1-10-5.9-5zM211.4 198.5c2.2 5.4 10.5-.2 5.6-5s-7.3.7-5.6 5zM201.9 194c-4 6.7 5.9 9.5 7 2.7s-4.2-7.1-7-2.7z"/><path class="st1" d="M206.1 204.9c-2.4 6.8 9.3 7.1 7.7 0-1.6-7.1-6.1-4.3-7.7 0z"/></svg>