<svg version="1.1" id="Layer_1" xmlns="http://www.w3.org/2000/svg" x="0" y="0" viewBox="0 0 236.5 219.9" style="enable-background:new 0 0 236.5 219.9" xml:space="preserve"><style>.st3{fill:#326ba6}.st4{fill:#ff9a8e}</style><path d="M6.2 81v123.2c0 7.1 3.2 7.7 7.8 7.7h135.2c13.6 0 14.5-7.4 14.5-16.5V75.8L79.3 31 6.2 81z" style="fill:#b2daf8"/><path d="M187.5 64.8v98.5c0 11.7-1.4 14.3-5.7 19.1S160 208.9 160 208.9v-144h27.5z" style="fill:#8dc0ea"/><path d="M103.2 2.6 37.3 40.7c-8.8 5.1-11.1 8.2-13.5 11.4s-22 25.3-22 25.3c-4.8 6.2.9 11.1 9.4 6C19.7 78.2 83 40.7 83 40.7l71.8 55.1c8.8 6.5 11.1 3.1 17-4.3 6-7.4 20.4-23.6 20.4-23.6 5.4-6.2 2.3-9.9-2-13.1-4.3-3.1-72.7-52.3-72.7-52.3-5.8-3.9-9.2-2.8-14.3.1z" style="fill:#cc5341"/><path class="st3" d="M53.9 117.7c7 3.8 11.5-2.7 5.4-7.6-6.1-5-19.5-8.5-28 1.3-3.6 4.8.5 12.3 8.6 7.5 8.2-4.8 11.6-2.1 14-1.2zM42.9 85.5c-2.7 3.3-7.3 7.5-15.8 10.3-8.5 2.8-3 6.6 2.6 4.6s15.2-7 18-13.1c1.4-3.3-1.9-4.8-4.8-1.8z"/><ellipse class="st4" cx="29.7" cy="135.3" rx="15.4" ry="8.1"/><path class="st3" d="M104.3 117.7c-7 3.8-11.5-2.7-5.4-7.6 6.1-5 19.5-8.5 28 1.3 3.6 4.8-.5 12.3-8.6 7.5-8.2-4.8-11.6-2.1-14-1.2zM115.2 85.5c2.7 3.3 7.3 7.5 15.8 10.3 8.5 2.8 3 6.6-2.6 4.6s-15.2-7-18-13.1c-1.3-3.3 1.9-4.8 4.8-1.8z"/><ellipse class="st4" cx="119.9" cy="135.3" rx="15.4" ry="8.1"/><path class="st3" d="M99.4 130.2c-6.5 3.6-8.1 13.4.4 17.2 3.5 1.5 2.2 6.3-2.2 4.6-4.4-1.7-6.9-5.4-7.9-9.6-4.3 0-7.1-.4-10-3.6s-5.2-3.3-8.6-.4c-3.4 2.9-11 6-16.4-.7-2-2.7 1.2-5.4 3.6-2.9 3.3 2.9 7.6 2.8 11.4-.6 3.8-3.4 8-2.5 10.9.1 2.9 2.6 5.2 3.8 8.8 3.6.1-4.3 3.2-8.2 6.1-10.6 4.3-3.8 7.8.8 3.9 2.9z"/><path d="M204.2 175.2v24c-9.7-9-15.2-7.1-16.7-6.5-2.3 7.5 5.6 20.7 15.4 26.3 3.1 1.7 10.4 1.5 10.4-3.6v-24.2c12.4-5.1 14.6-20.6 12.1-27.3-5.4-.4-15.4 10-17.4 13.5l-3.8-2.2z" style="fill:#6cdb93"/><path d="M197.2 163c0 7.1 3.8 14.8 8.4 17.6 4.6 2.8 5.1-4.9 5-8.8-.1-3.9 2.4-9.6 2.4-10.1 5 9.8 9.5 9.5 12 7.2 2.4-2.3 1.2-8.1-2.9-15.7 15.5 7.9 16.3-1.6 5.2-10.7 11.4-.1 13.1-5-2.6-13.1 13.4-6.2 18.4-22.8-.4-12.9 9.5-22.2-.4-17.3-8.4-9.2 1.2-21.3-7.8-24.3-12.8 3-9-20.1-16.8-18.5-12.8 6.9-17.2-9.5-27.8-6.1-9 10.4-20.9-4.2-17.7 8.1 2.3 11.1-9.7 8.9-16 18.7-13.1 22.2s14.4-5.7 15-6.1c-3.8 14.6-7.3 27.8 11.7 8.2z" style="fill:#1c4393"/><ellipse cx="204.2" cy="135.8" rx="14.4" ry="18.5" style="fill:#ffe56f"/></svg>