<svg version="1.1" id="Layer_1" xmlns="http://www.w3.org/2000/svg" x="0" y="0" viewBox="0 0 192.4 217.8" style="enable-background:new 0 0 192.4 217.8" xml:space="preserve"><style>.st3{fill:#66575c}.st4{fill:#624942}.st7{fill:#e2d9d0}.st8{fill:#37a16a}.st9{fill:#366da7}.st10{fill:#95c1e7}</style><path d="M182.7 77.6v104.6c0 9.5-1.3 13.1-4.9 17-3.5 4-11.1 13.4-17.3 13.4l5.3-133.3 16.9-1.7z" style="fill:#8dc0ea"/><path d="M2.8 89v114.1c0 8.4 3.2 9.6 9.4 9.6h145.5c9.6 0 10.5-6 10.5-11.3V89L89.7 23.9 2.8 89z" style="fill:#b2daf8"/><path d="M188.7 207.5c-1.4-.8-2.3-.5-2.9 2.9-.2 1.2-.6 2.2-1.4 3.2-1.3 1.7-3.8 3-8.3 4.1-3.2.7-3.9-.2-3.3-6.5-1.4 6.3-2 6.7-3.6 6.7s-1.8-.5-2.3-6.7c-.1 5.9-1 6.7-2.8 6.7s-2.2-1.3-2.2-5.3c-1.1 4.3-3.2 5.3-6.1 3.5-3.5-2.1-4.7-5.1-4.4-8.2.3-3.2 2.2-6.6 4.9-9-4-2.8-4.2-6.1-3.1-11.6-3.1-11.9 1.3-14.4 8.6-6.4 1.2-.2 3.1-.5 5.2-.5 1.2 0 2.6.1 4.1.4 7.3-6.6 10-4.9 8.6 5.4.1.4.7 3.4.5 6.3-.3 2.9-1.4 5.8-4.6 6.4 1.5.8 5.1 3.7 6 7.9.2-1.4 2.9-6.3 6.7-5.7 6.9.8 3.5 8.7.4 6.4z" style="fill:#fff"/><path class="st3" d="M180.3 192.4c-3.8.5-7.7-2.3-7.7-4.4 0-2 0-2.8-1.5-3.8s-2.7-.8-4-3.9c1.2 0 2.6.1 4.1.4 7.3-6.6 10-4.9 8.6 5.4.1.4.7 3.4.5 6.3zM151.3 207.9c.3-3.3 2.2-6.6 4.9-9 4.1.5 2.1 6.9-4.9 9zM174.7 202.8c-5.3-5-7.1 1.3-4.6 2.9 2.6 1.6 6.1 4.2 8 .9 2.1-3.3-.2-6.2-3.4-3.8zM188.7 207.5c-1.4-.8-2.3-.5-2.9 2.9-.2 1.2-.6 2.2-1.4 3.2-3.8-4.6 2.6-10.5 4.3-6.1z"/><path class="st4" d="M176 191.7c-.4 0-.7-.2-.9-.5-.3-.5-.1-1.1.4-1.3 3.8-2 9.4-3.1 11.8-3.4.6-.1 1 .3 1.1.9.1.5-.3 1-.9 1.1-2.3.3-7.6 1.3-11.1 3.2-.1-.1-.3 0-.4 0zM182.7 196.9c-.2 0-.4-.1-.6-.2-.3-.2-2.5-1.3-6.4-1.9-.5-.1-.9-.6-.8-1.2s.6-.9 1.2-.8c3.9.7 6.5 1.8 7.2 2.2.5.3.6.9.3 1.4-.2.4-.6.5-.9.5zM153.8 190.3c-.2 0-.4-.1-.6-.2-2.2-1.7-6.2-2.4-6.9-2.4-.5 0-1-.5-.9-1.1.1-.5.5-1 1.1-.9 0 0 5 .6 7.9 2.8.4.3.5 1 .2 1.4-.2.3-.5.4-.8.4zM153.8 193c-.1 0-.2 0-.4-.1-1.6-.6-5.7-.3-6.8 0-.5.2-1.1-.1-1.2-.7s.1-1.1.7-1.2c1.2-.4 5.8-.9 8.1 0 .5.2.8.8.6 1.3-.2.5-.6.7-1 .7z"/><path class="st3" d="M163.2 192.8c-1.5 0-1.7-1 .6-1s1.5 1 .4 1c0 1.5-.9 1.6-1 0z"/><ellipse class="st3" cx="159.8" cy="190.9" rx="1.8" ry="2.3"/><ellipse class="st3" cx="168.7" cy="190.9" rx="1.8" ry="2.3"/><path d="m28.9 55.7-8.3 5.5C15.8 64 7.3 77.8 2 85.7s.5 8.5 8.8 2.1S88 30.7 88 30.7l74.1 66.8c6.2 6.4 8.3 2.8 11.6-1.9s11.9-16.8 11.9-16.8c2.8-3.7 1.1-4.9-8.7-12S135 44.2 135 44.2l-8-13.4-20-3.9L95.7 14 28.9 55.7z" style="fill:#213f87"/><path d="M101.2 2C85.6 15 54 42.4 31.5 38.2c-3.9-.9-4.5 0-7.8 3.5s-4 4.9-1.7 7.1 6.2 3.8 8.3 4.2c-3 2.5-6.9 9.2-10.8 15.5-3.9 6.4 1.9 5.1 7.1 1.1s55.7-38 63.1-44.7c9.2 9.5 67 60.8 70.9 64 4 3.2 7 2.1 8.6-2.1s8.7-17.7 8.7-17.7c1.8-3.4 1.6-5.5-5.1-8.3 6.5-2.1 7.4-3.5 8.1-5.3s-5.1-4.2-6.4-11.5c1.8-2.3 1.1-4.2-.4-8.5s-1.2-8.1-7.6-7.8c-6.4.4-33.7.7-55-24.7-4-4.6-7.9-3.1-10.3-1z" style="fill:#fff7ff"/><path class="st7" d="M99.6 25.6c22.9 15.1 51.3 23.7 74.9 18.4 4-1.3 3.9-4.9-3-3.4-6.8 1.6-29.7 5.8-71-17.4-4.7-2.2-7-1.4-.9 2.4z"/><path class="st8" d="M143.9 81.2c-6 2.5-3.3 7.9 0 6.9 0 2.8-1.6 8.9-2.7 9.7-5.8-.8-7.1 9.4-.9 8 2.4 9.3 11.8 3.1 4.9-4.8 1-2.6.8-3.7 1-4.1 5.8 3.5 6.9-5.3 1.5-7.1.7-2.4.8-4.4.8-4.4l-4.6-4.2zM156.9 92.8c-5.6 2.5-2.7 7.4-.5 7.7v8.6c-4.2 0-5.7 8.9.5 8-.4 4.9-.4 11.8 0 12.6-5.7 6-4 11.4 1.4 7.4 1.9 3.1 2.6 8.2 2.3 8.9-3.8-.5-4.8 7.2 0 7.1-.5 3.8-2.8 2.8-3.9 6.6s2.6 6 5.9 2.8c3.3-3.1 1.1-8.9 1.1-8.9 5.5 4.2 11-1.3.7-6.9.4-3.6.1-5 .1-5 3.8.9 3.1-5.3-2.4-10.2-.6-3.5-.6-6.3-.7-7.5 5.6.6 4.4-6.6-.8-7.1-1-4.7.3-7.5.8-8.8 5.6 1.7 4.8-4.4 0-8.6v-2.4l-4.5-4.3z"/><path class="st8" d="M175 93.7v9.6c-5.6 4.2-2.7 10.3 0 6.7.5 3.5-2.2 11.7-2 15.5-5.5 4.8-2.7 9.7.5 8.6 0 4.4 2.5 9.8 3.1 11-7.1 5.6-2.1 12 1.5 6.3.3 2.2 2 3.9 2.2 4.3-9.8 4.6-7.3 14.5-1 7.5-4.4 11.5 6.6 9.6 3.4-1.1.6-1.8 0-3.8 0-3.8 6 2.3 3.3-7.2-1.7-7 0-4.1-1.4-7-2.1-8.4 7.3 1 5.8-8.3-2-9.4-.7-5.2 1-12.1 1-12.4 4.7 4 7.7-4.8 1.2-8.6V101c7.4 2.6 5.8-7.1-1.6-10.9l-2.5 3.6z"/><path class="st9" d="M28.5 151.9c8.3 9.2 22 6.5 26.8 0 2.4-3.7-1.6-6.4-4.7-3.2-3.1 3.3-9.6 8-17.6-.1-2.9-3.1-7 .2-4.5 3.3z"/><circle class="st10" cx="24.7" cy="162.9" r="2.6"/><circle class="st10" cx="16.6" cy="166.7" r="2.6"/><circle class="st10" cx="24.7" cy="171.4" r="2.6"/><path class="st9" d="M132.8 151.9c-8.3 9.2-22 6.5-26.8 0-2.4-3.7 1.6-6.4 4.7-3.2s9.6 8 17.6-.1c2.9-3.1 7 .2 4.5 3.3z"/><circle class="st10" cx="136.5" cy="162.9" r="2.6"/><circle class="st10" cx="144.7" cy="166.7" r="2.6"/><circle class="st10" cx="136.5" cy="171.4" r="2.6"/><path class="st9" d="M83.4 174c-4.1-5.7-6-6.9-9.6-5.2s-10.5.4-10.9-5.2c-.5-5.7 7-11.8 19.7-11s16.8 7.6 16.2 11-5.5 3.6-6.3 6.7c-.9 3.6-6.3 7.6-9.1 3.7z"/><path class="st7" d="M176.8 56.2c-5.3 1.7-38 5.3-82.7-33.1 8.2-9.6 12.6-16.3 14.6-19.3s-1.4-5.5-4.2-1.4c-3.8 5.3-9.1 13.3-20.1 22.3-11 8.9-38.9 30.3-58.2 23.5-6.4-2-6.2-.1-2.3 1.9 3.9 2 15.4 5.4 27.1-.1 11.7-5.5 35.1-21.4 38.8-25.2 3 3.2 6.3 6.2 9.9 9.1 25.5 23.3 61.1 54.9 61.1 54.9 5.6 4.8 7.6 1.2 2.5-2.9S118.9 48 115.4 44.5c19.8 11.2 42.5 17.5 57.4 16.2 8-1 9.3-6.2 4-4.5z"/></svg>