<svg version="1.1" id="Layer_1" xmlns="http://www.w3.org/2000/svg" x="0" y="0" viewBox="0 0 213.5 218.2" style="enable-background:new 0 0 213.5 218.2" xml:space="preserve"><style>.st2{fill:#6cdc90}.st6{fill:#fbc6da}.st12{fill:#2e67a4}.st13{fill:#ffa292}</style><path d="M25.7 70.4v114.8c0 3.4 1.2 6.6 3.3 9.3l17.7 21.8 1.4-13.3V73.8l-22.4-3.4z" style="fill:#8fc0e8"/><path d="M45.7 94.9v117c0 8.2 5.8 6 13.2 6h139.9c11.1 0 9.6-6.8 9.6-11V101.4l-83.1-69.3-79.6 62.8z" style="fill:#b2daf8"/><path class="st2" d="M32.4 170.3v36.3c0 5.1 7.6 5.6 7.6 0v-34.2l-7.6-2.1z"/><path d="M38.2 147.9c-16.7-5.3-19.6 14.1-11.8 18.5-9.1 7.8 5.6 22.2 14.9 8.6 11.3 7.6 23.2-8.2 13.3-15.6 8.9-12.5-9.6-23.3-16.4-11.5z" style="fill:#63b1f2"/><path d="M39.6 157.3c-3.7-1.2-7.1 3-3.4 6-2.1 3.5.9 5.1 2.2 3.8 1.2 1.6 3.8 1.3 3.9-1 2.2 3.8 6-.4 4.7-4 3.7-1.1 1.2-4.7-2.1-4.2-.8-3.8-4.7-2.8-5.3-.6z" style="fill:#ffc789"/><path class="st2" d="M14.2 143.3v10c-4.1-9.2-10.3-13.1-11.6-13.1s1 23.1 11.6 32.2v3.1c0 4.8 7 4.8 7 0v-2.2c6.7-2.6 11.7-10 11.9-16.5.2-6.5-10 5.9-11.9 8.4v-21.4l-7-.5z"/><path d="M24.9 138.1c-.2 5-3.7 10.4-5.4 10.6s-7.5.5-6.6-8.4c-1.3-.2-3.5-.1-7.1 2.9-3.7 3-5.8.2-5.7-2.9.1-3 2.5-8.4 8.4-8.3-6.5-10.1-6.6-19.4-3.2-18.8s3.9 5 6.3 9.1c.4-6 2.2-9.7 4.9-9s6 1.8 7 9c1.4-5.2 2.3-9 2.3-10.9s3.7-3.1 4.1 1c.4 4.1-.5 12.9-2.1 16.5 9.4.6 10.4 2.9 10.7 6.3.3 3.4-.9 4.5-3.8 3.8-3-1-8.2-1.9-9.8-.9z" style="fill:#a25fe1"/><path class="st6" d="M11.8 133.4c-3.3-1.5-6.5 1.4-5.4 2.8.6.7 1.8.5 2.2-.5.4-1.1 1.9-2.2 3.2-2.3zM28.1 129.8c2.3.9 2.3 3.3 1.3 3.6-1 .2-1.5-1.4-3.7-1.5-2.2-.2-1.3-2.1 0-2.3 1.3-.3 1.8-.1 2.4.2zM18.3 133.8c-.8-2.9-2.7 6.2-.8 6.3 1.8.1 1.4-4 .8-6.3z"/><path d="M107.1 2.2 22.3 54.1c-5.5 3.3-5.3 5.4-3.1 9.7s19.3 33.4 19.3 33.4c3.2 5.8 8.4 4.5 13.5 1.1 5-3.3 79.3-49.6 79.3-49.6l72.5 56.5c7.1 6.1 13.2-.6 7.6-8.7s-15.8-24.7-15.8-24.7c-4.5-8.5-9.3-11.5-13.2-14.9-3.9-3.4-63.7-54.6-63.7-54.6-3.9-3.6-7.6-2.5-11.6-.1z" style="fill:#5289cd"/><path d="M65.7 24.8C67.3 8.2 76-1.4 82.8 1.9s18.4 17 17.1 27.8c9.4 3.4 5.9 11.6.1 16.8s-12 10.6-23 1.4c2.1 10.4 1 17.4-11.3 20.1S50 69.5 50.9 60.3C40.5 58.5 34 43.8 33.2 37.1c-.9-6.7 2.1-16 26.3-10.4l6.2-1.9z" style="fill:#6ae2ff"/><path d="M67.8 39.8c.1 10.9-5.5 21.5-15.5 20.9-2-.1-2.9 2.2 0 2.4 9.8.1 18.5-7.7 19.2-20.2 3.6 5.4 5.1 7.5 6.4 6.6s-.6-4.4-3.6-8.5c15.4 2.2 23.5-1 26.7-8.9.7-2.6-1.6-3.2-2.4-.8S93.8 42.2 72.7 37l-4.9 2.8z" style="fill:#48cfeb"/><circle cx="66.3" cy="33" r="9.5" style="fill:#e1ebf7"/><path d="M142.3 87.5c0-3.5-1.4-6.7-3.7-8.9l1.7-2.9c1.5-3.1-2.9-5.4-4.7-2.2l-1.3 2.2c-1.4-.5-3-.8-4.6-.8-1.7 0-3.4.3-4.9 1l-2.8-3.8c-2.5-3.4-6.9-1.2-4.6 2.6 2.2 3.6 2.8 4.4 2.8 4.5-2 2.2-3.2 5.2-3.2 8.4 0 6.2 4.5 11.4 10.4 12.5v3.7h-2.6c-.7 0-1.3.3-1.8.7-.5.5-.7 1.1-.7 1.8 0 1.4 1.1 2.5 2.5 2.5h2.6v4c0 1.6 1.3 2.9 2.9 2.9s2.9-1.3 2.9-2.9v-4h2.6c1.4 0 2.5-1.1 2.5-2.5s-1.1-2.5-2.5-2.5h-2.6v-4c5.3-1.8 9.1-6.6 9.1-12.3zm-19.6 0c0-3.8 3.1-6.9 6.9-6.9 3.8 0 6.9 3.1 6.9 6.9 0 3.8-3.1 6.9-6.9 6.9-3.8-.1-6.9-3.1-6.9-6.9z" style="fill:#e3efff"/><path class="st12" d="M108.1 155.9c-6.6 7.4-15.1 8.6-21.8-.9-2.7-5-9.2-2.1-6.1 3.9 7.8 13.5 25.9 13.1 33.7.6 2.4-4.3-2.4-7.5-5.8-3.6z"/><circle class="st13" cx="72.9" cy="167.9" r="6.3"/><path class="st12" d="M157.3 155.9c6.6 7.4 15.1 8.6 21.8-.9 2.7-5 9.2-2.1 6.1 3.9-7.8 13.5-25.9 13.1-33.7.6-2.3-4.3 2.5-7.5 5.8-3.6z"/><circle class="st13" cx="192.6" cy="167.9" r="6.3"/><path class="st12" d="M126.4 163.3c5.3 5.2 10.9 4.1 14.4 0s7.6.1 4.6 3.3c-7.9 7.7-17 7.6-23.1.5-3-3.7.6-7.3 4.1-3.8z"/></svg>