<svg version="1.1" id="Layer_1" xmlns="http://www.w3.org/2000/svg" x="0" y="0" viewBox="0 0 194.4 201.8" style="enable-background:new 0 0 194.4 201.8" xml:space="preserve"><style>.st0{fill:#d9ab78}.st2{fill:#a17a31}.st3{fill:#f8d5a9}.st4{fill:#fff7ff}.st5{fill:#f6baa8}.st7{fill:#dedcdd}.st8{fill:#78829b}</style><path class="st0" d="M16 72.1v108.7c0 5.9 3.3 6.5 9.2 6.5h52.1c6.5 10.5 18.7 11.5 26.5 8.5 7.9-2.9 14.4-1.7 19.6 1.4 5.2 3.1 16.7 4.5 23.3 4.5S163 188 163 188V73.4l-75-55-72 53.7z"/><path d="m163 73.4 13.8-15.1v80.9c31.1 14.7 21 62.5-30.1 62.5-10.9 0-15.9-1.7-17.6-2.2 1.6-10.8-8.1-13.5-12.2-14.8-4.1-1.3-11.5-2.3-11.2-13.7.4-11.3-12.6-11-12.6-11-14.7 10.1-16.5 16.4-14.6 25.2 1.8 8.2-3 5.6-4-3.2s5.6-27 31.8-30.2c26.3-3.2 42.9 13.1 56.6-7.6V73.4z" style="fill:#c6965b"/><path class="st2" d="M99 2.5 33.3 49.6c-5.8 4.5-8.1 6.9-11.2 11s-9.3 11-9.3 11c-3.6 4.8 1.9 5.2 5.7 2.1s70-50.7 70-50.7l68.3 51.4c4 3.3 6.4 3.1 11.9-3.3s10-11.9 10-11.9c3.3-4.2-.5-7.2-6.9-11S109.6 2.5 109.6 2.5c-4.2-2.9-7.8-2-10.6 0z"/><path class="st0" d="M121.8 36.1 141.9 51c5.6 4.5 11.1 1.2 14.1-8.3 14.3-48.9 1.2-50.6-20.1-31s-18.6 21.1-14.1 24.4z"/><path class="st3" d="M124.2 37.9c17.3-25.2 36.1-34.8 30.9-14.7s-7.7 25.1-13.3 27.9l-17.6-13.2z"/><path class="st0" d="M64.7 24c-25.5-26.4-41.1-27.6-38-5.6s8.5 29.8 9.3 31.5c.8 1.7 2.2 3.6 7.1 0 5-3.6 21.6-16.3 23.9-18.2 2.4-1.9.9-4.6-2.3-7.7z"/><path class="st3" d="M62.2 35.5C49.1 19 33.5 7.2 33.7 18.4c.2 11.2 5 27 9.5 31.5l19-14.4z"/><path class="st4" d="M75.5 73.6c0 20.4-36.2 23.7-36.2 0h36.2z"/><path class="st2" d="M64.1 75.5a6.7 6.7 0 0 1-13.4 0c0-.7.1-1.3.3-1.9h12.9c.1.6.2 1.2.2 1.9z"/><path class="st4" d="M100.6 73.6c0 20.4 36.2 23.7 36.2 0h-36.2z"/><path class="st2" d="M112.1 75.5a6.7 6.7 0 0 0 13.4 0c0-.7-.1-1.3-.3-1.9h-12.9c-.1.6-.2 1.2-.2 1.9z"/><path class="st5" d="M23 91.9c-.8 2.3 2.2 4.1 3.7.5 1.5-3.6 2.6-6.3 2.6-6.3 1.1-2.8-1.7-3.8-3.2-.6-1.5 3.2-3.1 6.4-3.1 6.4zM28.5 93.4c-.8 2.3 2.2 4.1 3.7.5 1.5-3.6 2.6-6.3 2.6-6.3 1.1-2.8-1.7-3.8-3.2-.6-1.6 3.1-3.1 6.4-3.1 6.4zM34 94.8c-.8 2.3 2.2 4.1 3.7.5s2.6-6.3 2.6-6.3c1.1-2.8-1.7-3.8-3.2-.6-1.6 3.2-3.1 6.4-3.1 6.4zM135.8 91.6c-.8 2.3 2.2 4.1 3.7.5s2.6-6.3 2.6-6.3c1.1-2.8-1.7-3.8-3.2-.6-1.6 3.2-3.1 6.4-3.1 6.4zM141.3 93.1c-.8 2.3 2.2 4.1 3.7.5 1.5-3.6 2.6-6.3 2.6-6.3 1.1-2.8-1.7-3.8-3.2-.6s-3.1 6.4-3.1 6.4zM146.7 94.5c-.8 2.3 2.2 4.1 3.7.5 1.5-3.6 2.6-6.3 2.6-6.3 1.1-2.8-1.7-3.8-3.2-.6s-3.1 6.4-3.1 6.4z"/><path class="st2" d="M87.6 106h16.7c4.6 0 4-2.3 2.7-3-1.3-.7-12.3-1.9-17.2-1.9v-4.5c4.1-.9 5.8-3.3 5.8-5.6s-2.6-3.3-7.8-3.3c-5.2 0-7.8 1-7.8 3.3s1.7 4.8 5.8 5.6v4.5c-5 0-12.3 1.2-13.6 1.9-1.3.7-1.9 3 2.7 3h12.7z"/><path d="M11.4 158c4.1-3.2 13.8-2.3 15.2-1.7 3.7-7.4 15 .6 7.1 7.3 5.3 7.1 2.7 19 2.7 19 5-.2 5.5 7.9-3.2 9.6s-22.4 2.6-28.5.6c-6.2-2-2.8-8.1 0-7.2-2.6-5.3-2.6-15.3.1-21-8.5-4.7 1.5-14.6 6.6-6.6z" style="fill:#fffff5"/><path class="st7" d="M5.4 187.1c-3.4-1.5-3.9 2.2-1.6 3.4 2.2 1.2 1.2 4.1-1.5 2.1s-2.6-4.2-1.9-5.9c.8-1.7 3.5-2.4 5.8-1.7s1.3 3-.8 2.1zM34.6 182.3c5.1-1.5 8.4 2.7 5.1 7.5-1.4 2.1-3.2.4-1.9-1.3s1.7-5.7-2.3-4.8c-2.3.4-2.5-.8-.9-1.4z"/><ellipse class="st8" cx="25.6" cy="165.5" rx="1.4" ry="2"/><ellipse class="st8" cx="14.8" cy="165.5" rx="1.4" ry="2"/><path d="M20.6 167.1c-2.4-.1-2.2 1-1.5 2 .7 1 2.2 1.3 3 0 .8-1.2.6-1.9-1.5-2z" style="fill:#eddade"/><path class="st7" d="M9.3 181.1c5 5.7 11.1 2.1 8.5-3-1-2-2.6-1.2-1.7.7.9 1.9-.5 5.7-5.1 1.3-1.2-1.5-3-.9-1.7 1zM24.2 176.1c-3 6.7 3.1 7.8 6.6 5.1 1-.8.7-3-1.4-1.3-2.1 1.7-5.3 1.2-3.5-3 .9-1.8-.8-2.4-1.7-.8z"/></svg>