<svg version="1.1" id="Layer_1" xmlns="http://www.w3.org/2000/svg" x="0" y="0" viewBox="0 0 190.8 170.2" style="enable-background:new 0 0 190.8 170.2" xml:space="preserve"><style>.st4{fill:#86695d}.st5{fill:#a07f79}.st7{fill:#c8cc75}</style><path d="M17 124.3c-5.2-2.6-9.6-5.7-13-9.1v21.9c0 11.3 0 14.1 1.7 16.3l12.4 14.9c-.7-1-1.2-2.6-1.2-4.9v-39.1z" style="fill:#e4d7d5"/><path d="m17 62.3-2.1-12-10.8 1.2v63.7c3.4 3.4 7.8 6.6 13 9.1v-62z" style="fill:#9c7f79"/><path d="M79.7 19.9 17 62.3v61.9c.2.1.5.2.7.3 14.7 7 35.2 9 55.6-2.1 28.1-15.2 41.7-8.3 52.6-1.4 11 6.9 30.3 11 42.2 4.5V62.2L79.7 19.9z" style="fill:#bc998d"/><path d="M168.2 160.1v-34.5c-11.9 6.4-31.2 2.4-42.2-4.5-11-6.9-24.5-13.8-52.6 1.4-20.5 11.1-41 9.1-55.6 2.1-.2-.1-.5-.2-.7-.3v39.1c0 2.4.4 3.9 1.2 4.9 1.7 2.4 5.1 1.8 8.8 1.8h134.2c8.3 0 6.9-5.9 6.9-10z" style="fill:#fff"/><path class="st4" d="M34.7 122.2c-8.4-1.5-24.5-1.1-30.6.6s-4.8 4 1.1 4.2 29.5 0 29.5 0c5.7 0 3.8-4.3 0-4.8zM9.8 138.1c-5.7 2-3.4 3.8 1.4 3s20.9-3.5 25.5-4.4 3.2-5.5-1.6-4.6-24 5.4-25.3 6zM155.7 122.3c-5.3.9-4.3 4.7 1.1 4.6 5.5-.1 29.5 0 29.5 0 4.8 0 7.5-3-1.1-4.6-8.7-1.5-27.6-.5-29.5 0zM155.5 132c-3.3-.3-5.1 3.4-.7 4.7 4.4 1.3 21.1 3.9 25 4.4 4 .6 6.7-1.6 0-3.8s-21.6-4.8-24.3-5.3z"/><path class="st5" d="M17 105.3c12.1 4.5 14.7 4.7 18.9 4.6s7-6.1-.9-7.8c-7.9-1.7-17.1-8.4-18-9.8v13zM36.6 58.1c4.8 13 10.6 19.4 13 21.5 2.4 2.1 8.5 2.6 5.5-4.4S49.5 61 48 50.4l-11.4 7.7zM63.5 39.7C65.5 61 71 68.8 74 73.2c3 4.4 7.4 1.7 4.3-5.3s-5-28.7-5-34.9l-9.8 6.7zM109.8 38.2c-.2 11.3-.4 23.9-.5 27.4 0 5.4 4 9 8.1 2.1s7.2-20.9 7.2-22.4l-14.8-7.1zM141.9 53.5c-3.2 9.4-7.5 20.4-9.2 24.9s3.1 7 6.9 1.7 11.8-20.9 12.1-22l-9.8-4.6zM168.2 91.5c-5.1 5.1-13.2 10.5-16 12.9-2.8 2.4-1.9 7.1 4.8 4 6.8-3.1 11.2-7.3 11.2-7.3v-9.6zM95.4 118.6c-2.5 3.1-8.2 8.1-12.8 10.6-2.9 1.9-.6 5.8 2.9 3.5s11.1-7.9 11.8-8.4c3.5 3.7 9 7.9 11.5 9.1 3 1.8 6.2-1.8 2.9-3.9-2.9-1.8-9.8-7.4-11.9-10.4l-4.4-.5z"/><path d="M92.6 118.2c2.8 2.8 6.2 4.5 10.4.5s8.6-13.5-5.2-13.5-8.5 9.9-5.2 13z" style="fill:#f4978a"/><circle class="st7" cx="61.3" cy="104.1" r="8.8"/><circle class="st7" cx="132.3" cy="104.1" r="8.8"/><path class="st4" d="M61.5 2 2.2 45.1c-4 2.8-1.5 5.3-.7 6.5s13.6 17.1 13.6 17.1c3 3.3 5.3 1.2 10.9-3.1S83.8 26 83.8 26l82.7 39.4c4.3 1.8 6.6-.7 1.7-7.1-4.9-6.5-11-14.1-11-14.1-3-3.3-4.3-4-11.6-7.1-7.3-3.1-75.2-36-75.2-36-4.1-1.9-6.1-1.1-8.9.9z"/></svg>