<svg version="1.1" id="Layer_1" xmlns="http://www.w3.org/2000/svg" x="0" y="0" viewBox="0 0 233.9 191" style="enable-background:new 0 0 233.9 191" xml:space="preserve"><style>.st4{fill:#f6f6f6}.st5{fill:#4c5060}.st6{fill:#fff7ff}.st7{fill:#ff807c}</style><path d="M196 84.3v80.8c0 5.8 0 8.1-2.8 11.1s-12.2 12-15.6 13.2l-3.3-98 21.7-7.1z" style="fill:#ff919a"/><path d="M216.8 122.2c2.8 9.6-2.2 14.2-18.5 14.5 2.4 8.1-8.2 9.7-19.3 5.4V181c0 7 1.4 9.9-9.2 9.9H61.2c-6.7 0-10.3.8-10.3-9.9v-38.2c-5.8 2-17.8 3.1-16.7-5.2-12.2-.4-25.6-9.3-17.5-15.4C6.7 116-8.9 95.8 6.1 96.4c-10-13-6.9-32.2 1.4-20.3C17.9 92 34.6 109.3 51 109.3l44.7-27.5L132.4 92l46.7-15.8v35.1l.1-.1c14.4 0 39.7-22.5 46.3-33.6 6.7-11.1 14.4-.5 1.4 18.9 9.7-1.1 4.8 11.2-10.1 25.7z" style="fill:#ffafb4"/><path d="M54.6 92C40.7 40.9 89.3-2.2 130.7 0c18.9.8 20 6.4 27.8 8.6 7.8 2.2 41.7 18.9 43.3 34.5s8.9 41.9-18.1 51.8l-77.5-24.4L54.6 92z" style="fill:#d79167"/><path d="M47.1 101.8c-3.6 12.5 4.4 19.1 18.9 9.4s46.7-15 71.1-8.6 45.3 3.3 48.1-5.3c2.8-8.6-6.7-20.2-30.3-27.3s-65.3-16.6-88.1 5.9C56.6 86.2 48.6 96 47.1 101.8z" style="fill:#a97e59"/><path class="st4" d="M82.6 34c3.5 5.1 9.8 1.6 5.5-3.3-4.2-4.8-9-1.8-5.5 3.3zM97.5 21.8c-3.7 2.9-.7 7.3 4 4.1s5.7-5.1 4.1-6.8-5.2.4-8.1 2.7zM116 28.3c2 6.9 8.8 3.5 6.1-2.7s-8-3.7-6.1 2.7zM133.4 11.4c-5.9-.1-7 5.1 0 4.7 7-.4 7.7-4.6 0-4.7zM146.7 33.1c5.3 4.8 9.8-.5 4.8-4.3s-10.1-.5-4.8 4.3zM167.8 29.3c4 4.3 8.1 1.3 4-3.1s-8-1.1-4 3.1z"/><circle class="st5" cx="81.3" cy="137.4" r="11.6"/><ellipse transform="rotate(-45.001 78.1 133.251)" class="st6" cx="78.1" cy="133.2" rx="5.1" ry="3.7"/><circle class="st5" cx="145.2" cy="137.4" r="11.6"/><ellipse transform="rotate(-45.001 142.06 133.252)" class="st6" cx="142.1" cy="133.2" rx="5.1" ry="3.7"/><ellipse class="st7" cx="61.1" cy="148.6" rx="5.9" ry="3.7"/><ellipse class="st7" cx="165.3" cy="148.6" rx="5.9" ry="3.7"/><path class="st5" d="M102.7 141.8c-2.3 4.6-.2 11.8 6.9 4.2 2.6-2.9 4.3-1.5 5.2.3 3.5 6.3 9.6 3.6 8.5-3.4-.7-4.1 3.2-4.6 4-.6 2.1 10.1-8.4 17.7-15.8 6.7-11.9 10.9-16.1-1.8-13.1-7.5 2.2-4.1 5.9-2.9 4.3.3z"/></svg>