<svg version="1.1" id="Layer_1" xmlns="http://www.w3.org/2000/svg" x="0" y="0" viewBox="0 0 176.5 191.6" style="enable-background:new 0 0 176.5 191.6" xml:space="preserve"><style>.st1{fill:#a8e3a4}.st3{fill:#5a8d56}.st4{fill:#fadea6}.st5{fill:#83bf80}</style><path d="m150 190.5 12-10.9c4.7-4.9 3.8-5.8 3.8-17.2V63.1l-12.6 13.4-3.2 114z" style="fill:#89ce83"/><path class="st1" d="M11 76.5v107.7c0 8.2 4.7 7.3 7.9 7.3h126.3c9.1 0 7.9-7.7 7.9-12.5V76.4L78.1 30 11 76.5z"/><path d="M91.2 11.8 30 51.3c-6.9 4.3-9.7 6.9-12.3 10.2S8 74.5 8 74.5c-3.1 4.5-.2 9.2 6.9 3.8 7.1-5.4 64.3-41.9 64.3-41.9l65 42.8c5.7 4.3 9.2 3.5 12.1 0 2.8-3.5 13-16.1 13-16.1 3.5-4.7 1.7-5.6-3.4-9.4-5.1-3.8-63.5-41.9-63.5-41.9-4.1-2.8-8.1-2-11.2 0z" style="fill:#ffe67d"/><path class="st1" d="M39.2 13.3c4.2 1.8 2.5 13.9 1.6 28.6-.4 4.9.7 6.7 3.5 6.5s3.5-1.6 3.5-11.6S50.4 7 39.2 6.3s-11.4 10.5-7.4 12.1 7.9-1.1 7.4-5.1zM123.6 6.2c0 6-5.6 9.5-9.1 5.3S118.9-3.6 127 1.2c5.4 3.5 4.7 10.3 4.7 14.7v26c0 6.5-6.7 7.2-6.9.7-.2-6.5 3.7-32.9-1.2-36.4z"/><circle class="st3" cx="48.1" cy="118.6" r="6"/><circle class="st3" cx="110.9" cy="118.6" r="6"/><ellipse class="st4" cx="33.7" cy="131.1" rx="8.4" ry="5.3"/><ellipse class="st4" cx="127.3" cy="131.1" rx="8.4" ry="5.3"/><path class="st3" d="M85.7 132.4c1.7 3.7 4.1 6 6.3 5.2s1.3-2.1-.6-3.1-3.1-2.7-3.1-5.6c0-2.9 1.5-4.6 2.3-5.9.8-1.3-1.9-3.1-3.4-.7-1.4 2.3-2.4 5.1-2.3 6.4-4.9 3.3-10.7 3.8-14.8.7-2.2-1.9-2.8 1.5-1 2.7s7.6 4.1 16.6.3z"/><path class="st5" d="M52.8 154.2c22.1 9 17.9 26-7.5 18.2-2.7-.8-1.2-3.5 1.2-2.6 10.9 4.5 31.1 1 5.3-12.9-3.7-1.6-2.2-4.1 1-2.7zM116.1 154.2c-23.6 10.7-15.5 25.5 6.9 18.5 3-1 2.4-4.1-1.5-2.9-15.7 4.7-25.4-2.2-4.4-12.4 4.7-2.1 3-4.9-1-3.2zM90 165.1c-1.8-8.1 2.4-8.1 2.1 0-.1 2.7-1.5 2.5-2.1 0zM84.9 175.1c-1.3-4.6 2.8-4 2.2-.6-.5 3.3-1.9 2.1-2.2.6zM93.2 179.1c-1.1-6.7 2.1-6.5 1.9-2-.2 4.6-1.5 4.5-1.9 2zM118.9 85c-6.1 5.3-1.6 8.4 1.4 1.4.7-1.9-.1-2.6-1.4-1.4zM123 88.2c-3 4 .8 4.8 3.4 1.1 2.7-3.6 4.6-6.4 4.1-7.2-.5-.8-5.7 4.3-7.5 6.1zM127.3 92.9c-3.7 2.8-1.9 4.4 2.4 1.9 4.4-2.6 5.4-7.4-2.4-1.9zM86.9 65.3c.1 3.5 1.5 3.6 2.5 0 2.8-8.9-2.2-7.9-2.5 0zM91.6 67.1c-.8 4.2 1.4 4 2.5.9 3.6-9.7-.7-9.1-2.5-.9zM32.1 99.6c5.2-.8 4.2-2.4 0-2.8s-5.2 3.6 0 2.8zM39.2 89.8c3.5 1.3 3.3-.7 1-2.5-5.6-4.4-8.1-.5-1 2.5zM43.8 87.8c2.4 3 4.6 1.2 1.5-2.4s-4.7-1.6-1.5 2.4zM12.1 88.5c5.3.2 4.3-3.6 0-3.8-13.4 0-18.6 2.5 0 3.8zM4.7 95.1c4.3.6 8 1.7 9.7 1.7s3.3-1.4-1-2.7-6-1.5-8.7-1.3-4.4 1.6 0 2.3zM14.4 104.8c3.2 0 4 3.1 0 3.1H4c-4 0-4-3.1 10.4-3.1zM13.9 116.8c2.9 0 2.9 2.9 0 2.9s-9.7.5-10.5-1.1 7.6-1.8 10.5-1.8zM14.6 126.7c2.7.2 2.9 3.2 0 3.2s-8-1.3-10.3-2.4c-2.3-1.1 4.4-1.1 10.3-.8zM14.1 140.8c3.1-.1 3.9-3 0-3.1s-8.2-.1-10.2 0-2.1 2.8 10.2 3.1zM14.4 153.8c3.1-.1 3.4-3.1 0-3s-6.3 0-8.7.9c-2.5.9-1.5 2.1 8.7 2.1zM7.5 158.9c-3.3 0-3.5 2.8 0 2.7s6.9-.6 8-1.3-.4-2.1-8-1.4zM25.3 168.9c2.3-1.7 4.4-.2 1.7 2.3s-6.2 5.5-6.1 3.3c.1-2.3 3.4-4.9 4.4-5.6zM14.5 168.6c3.1.1 3.5 2.9 0 3s-7.1-.3-9.5-1.5c-2.4-1.1 1.2-1.7 9.5-1.5zM13.3 179c4.2 2.5 3.4 5.4-1.7 2.3-6.2-3.6-7.6-7.1 1.7-2.3zM13.8 185.7c4.1.4 4 3 0 3.1s-9.1.7-9.3-1 7.6-2.3 9.3-2.1zM28.2 178.8c-.6 2.8 1.6 5 2.6 0s-1-6.8-2.6 0zM151.8 86.9c-4 1.3-1.5 3.8 1.5 2.5 5-1.8 10.4-6.3-1.5-2.5zM149.7 94.9c-4 2.4-.7 4.3 2.1 2.8s5.4-3.4 7.2-5.4c1.7-2.1-4.3-.4-9.3 2.6zM150 102.2c-4.3 1.2-1.9 3.5.8 2.8s6.2-1.4 7.5-2.2c1.4-.8 2.4-3.5-8.3-.6zM147.7 109c-3.3 1.1-1.8 3.5.9 2.8s7.4-.9 8.7-1.3c1.3-.5 3-2.7-.6-2.6-3.5.1-7.7.7-9 1.1zM150.9 115.7c-3.5-.7-4 1.7-.8 2.3 3.1.7 5.5 2.4 7.3 1.9s4.3-2-6.5-4.2zM150 125.9c-4.8.1-3.1 3.5 0 2.9 3.1-.7 6.2-.8 8.4-.9 2.2-.2 3.4-2.3-8.4-2zM150 137c-3.8 2-.9 4.1 1.4 2.4 2.3-1.7 6-3 7.4-4.3 1.5-1.3-.3-2.6-8.8 1.9zM150 144c-4 .7-3.1 3.5 0 3s7-1.5 7.9-3c.9-1.5-.9-1.2-7.9 0zM149.2 157.3c-2.8 1.3-1.4 4.5 2.5 2.7 7.6-3.2 11.1-7.9-2.5-2.7zM149.3 166.8c-4 1.7-1.5 4 .7 2.8s6.7-1.1 7.9-2 .5-3.5-8.6-.8zM151.6 172.4c-3.4-.2-3.3 3.1 0 3.4 3.3.3 11.4-.2 7.3-1.7-4.1-1.5-4.9-1.6-7.3-1.7zM163.1 77c-2.7 2.7-.2 5 2.7 2.7 2.9-2.3 8.5-5.1 6.5-7.1-2-2.1-6.3 1.9-9.2 4.4zM163.3 83.6c-2.9 2.1.1 4.2 2.5 2.3s9-5.1 8.1-7-9 3.6-10.6 4.7z"/><path class="st5" d="M162.1 98.2c-3 1.7-1.2 4.8 2 3.2 3.2-1.6 9.4-3.6 8.7-5.4-.7-1.8-8.6 1-10.7 2.2zM162.7 105.8c-2.7 1.2-2.7 3.8.6 3.1 3.2-.7 10.4-1.6 10.1-3.8-.4-2.3-8.3-.4-10.7.7zM162.8 113.8c-2.1 1-3 3 0 3.1 3 .1 10-.3 10-2.1s-8.5-1.7-10-1zM166.8 124c-3.7.4-5.6 2.8.2 2.8s9.4-1.1 9.5-2.2-8.2-.8-9.7-.6zM165.8 134.8c-2.2 1-3 3 0 3s7.6-.6 7.6-2.1c0-1.6-6.2-1.5-7.6-.9zM165.8 145c-4 .6-4.8 3.4.1 3.1 4.9-.3 9.2-.9 9.1-2.3-.1-1.5-7.6-1-9.2-.8zM163.9 153.2c-2.8 1.7-1.4 3.9 1.5 2.9s9-2.2 8.6-3.9-9.1.3-10.1 1zM163.9 162.7c-2.8 1.4-1.2 4.5 1.5 2.9s8.4-3.8 8.1-5.1c-.4-1.4-7.3 1-9.6 2.2zM164.4 169.1c-2.9 1.4-.8 3.1 1.4 2.9s6.8-1.7 7-2.9-7.2-.6-8.4 0z"/></svg>