<svg version="1.1" id="Layer_1" xmlns="http://www.w3.org/2000/svg" x="0" y="0" viewBox="0 0 192.1 205.8" style="enable-background:new 0 0 192.1 205.8" xml:space="preserve"><style>.st1{fill:#a5e3a4}.st3{fill:#bf8775}.st4{fill:#ffd679}.st5{fill:#ef8e8c}.st6{fill:#a96b57}</style><path d="M186.3 60.7v100.6c0 8.8-1.7 12-5 17.3-3.3 5.3-12.5 25.2-19.2 26.2l1.6-133.6 22.6-10.5z" style="fill:#89c386"/><path class="st1" d="M71.1 20.6C50.5-9.6.7 16.7 23.1 50.7l48-30.1zM5.1 83.9v113.3c0 8 3.6 8.6 11.3 8.6h139c9.9 0 10.5-3 10.5-13.5V82.1L83.8 29 5.1 83.9z"/><path d="m103.5 2-71 40.9c-6.9 4-8.8 6.9-11.9 11.5s-19 25.2-19 25.2c-4 6 .2 10.2 9.3 4.4 9.1-5.8 73.4-43.8 73.4-43.8L157 88.9c8.9 6 11.5 4 14.4 0 2.9-4 19.2-26.8 19.2-26.8 3.8-5.8-.6-8.6-4.3-11.1-3.6-2.4-71.8-49-71.8-49-4.2-3.1-7.5-2.1-11 0z" style="fill:#4ab97b"/><path class="st3" d="M42.1 65.2C40.2 76.5 53.3 89.5 68.9 77c7.8 17.6 26.4 10 29.7 1.7 9.8 11.3 27.8 4.7 27.7-10.3L84.2 40.2l-42.1 25z"/><path class="st4" d="M60.2 26.9C43.5 4.7 18 25.3 29.4 44.8l30.8-17.9z"/><path class="st1" d="M121.9 33.9c1.8-36.9 39.2-28.6 47.2-19.5 11.8 11.8 17.4 31-8.5 44.6-4.4 2.2-7.2.3-10.8-2.1-3.6-2.4-22.8-15-24.4-16-1.6-.9-3.9-3.3-3.5-7z"/><path class="st4" d="M133.1 32.4c2.4-13.1 18.2-21.1 29-11.9 10.8 9.2 6.6 24.6-1.7 29.3-2.7 1.8-5.7 1.6-9.6-1.2s-13-8.8-15.4-10.5-3.1-2.8-2.3-5.7z"/><path class="st5" d="M39.6 104.7c-3.8 0-7.2 2.3-9 5.7h18.1c-1.9-3.4-5.3-5.7-9.1-5.7z"/><path class="st3" d="M30.6 110.4c-1 1.8-1.6 4-1.6 6.4 0 6.7 2.7 12.1 10.7 12.1 7.7 0 10.7-5.4 10.7-12.1 0-2.3-.6-4.5-1.6-6.4H30.6z"/><path class="st6" d="M44.3 108c5 0 4.8 4.8 0 4.8H31.2c-3.6 0-6.4-.3-7.5-2.3-1.1-2.1.8-4.6 3.7-3.3s12.9.8 16.9.8z"/><path class="st5" d="M130 104.7c3.8 0 7.2 2.3 9 5.7h-18c1.9-3.4 5.2-5.7 9-5.7z"/><path class="st3" d="M139.1 110.4c1 1.8 1.6 4 1.6 6.4 0 6.7-2.7 12.1-10.7 12.1-7.7 0-10.7-5.4-10.7-12.1 0-2.3.6-4.5 1.6-6.4h18.2z"/><path class="st6" d="M124.4 108c-5 0-4.8 4.8 0 4.8h13.1c3.6 0 6.4-.3 7.5-2.3s-.8-4.6-3.7-3.3c-3 1.3-13 .8-16.9.8z"/><circle class="st4" cx="23.1" cy="142.6" r="9.6"/><circle class="st4" cx="150.7" cy="142.6" r="9.6"/><ellipse cx="86" cy="150.5" rx="42.1" ry="30.9" style="fill:#ffe7b1"/><path class="st3" d="M84.5 119.6c15.1 0 17.3 14.2 2.4 18.5 0 2 .3 3.6 1.4 5 4.7 6 12.7 2.5 14.9.2 2.2-2.3 5.6 0 3.7 3.4-3.7 6.3-18.7 7.5-22.4-.9-3.6 8.4-18.6 7.2-22.4.9-1.9-3.4 1.5-5.7 3.7-3.4 2.2 2.3 10.2 5.8 14.9-.2 1-1.4 1.4-3 1.4-5-14.9-4.3-12.7-18.5 2.4-18.5z"/></svg>