<svg version="1.1" id="Layer_1" xmlns="http://www.w3.org/2000/svg" x="0" y="0" viewBox="0 0 167.4 181.6" style="enable-background:new 0 0 167.4 181.6" xml:space="preserve"><style>.st4{fill:#de64dc}.st6{fill:#ca4bcc}.st7{fill:#64f9ff}.st8{fill:#c365e3}.st9{fill:#fffff5}</style><path d="m25 41.1-.2 16.1-.8 51.1-1 73c-3.1-.2-13-12-16.1-15.5-3.1-3.5-4.2-3.1-4.2-11.7v-113H25z" style="fill:#dc84f4"/><path d="m24 108.3-1 73c-3.1-.2-13-12-16.1-15.5-3.1-3.5-4.2-3.1-4.2-11.7v-35.8c6.3-3.2 12.1-6.1 17.7-8.5l3.6-1.5z" style="fill:#e0a7ef"/><path d="M163.9 70.1v100.2c0 10.4-1 11.3-6.1 11.3H26c-1.2 0-2.2 0-3.1-.2-1.8-.5-2.6-2.3-2.6-8.6V59.7l4.4-2.5L82 24.5l81.9 45.6z" style="fill:#e79dfc"/><path d="M163.9 112.6v57.7c0 10.4-1 11.3-6.1 11.3H26c-1.2 0-2.2 0-3.1-.2-1.8-.5-2.6-2.3-2.6-8.6v-63c1.2-.5 2.5-1 3.7-1.5 13-4.9 25.5-6 41 1.8 11.5 6.2 40.4 4.8 53.7-2.4 13.4-7.1 38.6 1.6 45.2 4.9z" style="fill:#efcdfa"/><path class="st4" d="M78.6 36.4C78.2 52 80.7 67.5 83.7 75c3 7.5 7.4 8.1 9.6 0s5.1-25.9 4.5-38l-9.9-5.8-9.3 5.2zM44.2 55.1c.4 8 3.1 15.5 5 19s6.2 4.1 7.6-3.7 2.1-13.4 3.8-17.8c1.7-4.5 1.9-5.9 1.8-7.6L44.2 55.1zM114.1 46.4c.7 4.4 2.9 10.7 3.4 14.5.5 3.7 2.7 15.9 6 15.8s8.7-12.6 8.5-19.9l-17.9-10.4zM143.4 63.4c1.9 5.5 2.2 12.2 3.3 15.2s1.2 9.4 4.1 6.8c2.9-2.5 5.8-9.3 6.1-14.2l-13.5-7.8zM33.9 60.9c-.8 6-2.5 13.6-4.1 17.7-1.6 4.1-2 11.3-5.7 6-3.7-5.2-3.7-8.9-3.7-8.9v-16l13.5 1.2z"/><path d="m66.6 1.4-64 34.7c-5 2.7-2 6.8 1.5 11.6s13.5 17.6 13.5 17.6c2.7 3.8 5.6 1.7 11-1.4 5.4-3.2 59.3-32.6 59.3-32.6l73.3 42.4c5.6 2.9 8.1.8 4.5-5.1s-11.8-18.1-11.8-18.1c-3.8-5.4-7-7.3-11.8-9.9-4.9-2.5-65.3-39.3-65.3-39.3-4-2.3-7.8-1.2-10.2.1z" style="fill:#bd5ddf"/><path class="st6" d="M2.7 100.6c8.6.8 15.5-.3 15.3-3.8-.2-3.5-11.9-8.4-15.3-14.8v18.6z"/><path class="st4" d="M30.2 157c-4.6-2.9-8.5-5.1-9.9-5.4v16.5c5.6.5 18.6-2.5 18.6-6.5.1-3.9-4.1-1.7-8.7-4.6z"/><path class="st6" d="M2.7 138.3V157c6.5 6 16.3 10.8 17.6 11.1v-16.5c-5.5-2.4-16.3-11.7-17.6-13.3z"/><path class="st7" d="M64.9 107.2c0 5-6 10.3-14.9 10.3-1.1 0-2.1-.1-3-.2-6.8-.8-10.5-4.2-13.9-7.4-1.9-1.7-2.4-3.8 0-6s8.2-7.4 15-7.4h1c11 .4 15.8 5.8 15.8 10.7z"/><path class="st8" d="M50.1 117.6c-1.1 0-2.1-.1-3-.2-2.3-5.3-3.6-16.5 1-20.8h1c4.3 6.3 4.6 13.2 1 21z"/><path class="st7" d="M111.7 107.2c0 5 6 10.3 14.9 10.3 1.1 0 2.1-.1 3-.2 6.8-.8 10.5-4.2 13.9-7.4 1.9-1.7 2.4-3.8 0-6s-8.2-7.4-15-7.4h-1c-10.9.4-15.8 5.8-15.8 10.7z"/><path class="st8" d="M126.6 117.6c1.1 0 2.1-.1 3-.2 2.3-5.3 3.6-16.5-1-20.8h-1c-4.4 6.3-4.7 13.2-1 21zM88.2 165.5c20.4 0 32.3-10 37.5-16.5 5.2-6.5 15.5-18.6 18-20.1s1.4-4.1-1.2-4.3c-2.6-.2-9.1-.3-16.2 3.4-11.2 6.2-28.4 3.3-31.7-2.8 14.3-10.6 3.2-22-6.5-15.4-9.7-6.6-20.8 4.8-6.5 15.4-3.4 6.1-20.5 9-31.7 2.8-7.1-3.7-13.6-3.6-16.2-3.4-2.6.2-3.7 2.8-1.2 4.3s12.8 13.6 18 20.1 17.3 16.5 37.7 16.5z"/><path class="st9" d="M44.9 130.3v7.5c-3.2-3.9-7.2-8.3-7.1-9.4.2-1.1 2.7-1.5 7.1 1.9zM48.7 132.4c2 1 4.2 1.7 6.4 2.1v13.9c-2.6-2.2-4.7-4.3-6.4-6.2v-9.8zM70.6 135.2v22.4c-3.8-1.4-7.1-3.2-10.1-5.1v-17.1c3.4.3 6.8.2 10.1-.2zM75.3 134.5c4.3-.9 8-2.1 10.6-3.5v29.8c-3.8-.2-7.4-.8-10.6-1.6v-24.7zM90.9 131.2c2.6 1.3 6.2 2.5 10.3 3.3v24.6c-3.2.9-6.6 1.4-10.3 1.6v-29.5zM115.8 135.4v17.2c-2.9 1.9-6.1 3.6-9.8 5v-22.3c3.2.3 6.5.4 9.8.1zM121.1 134.6c2.4-.5 4.7-1.2 6.8-2.3v9.8c-1.7 1.9-4 4.2-6.8 6.5v-14zM138.6 128.4c.1 1.1-3.9 5.4-7 9.4-.1.1-.3.3-.4.5v-7.8c.1-.1.3-.2.4-.3 4.4-3.3 6.9-2.9 7-1.8z"/></svg>