<svg version="1.1" id="Layer_1" xmlns="http://www.w3.org/2000/svg" x="0" y="0" viewBox="0 0 118.8 115.1" style="enable-background:new 0 0 118.8 115.1" xml:space="preserve"><style>.st4{fill:#e2d6d4}</style><path d="M100.2 15.4C84.8-4.2 73.8-2.3 71.9 5.8c-15.3-4.3-21.6 8.5-8.8 13.4l18.1 3.5.9-9.7 18.1 2.4z" style="fill:#fa8b85"/><path d="M8.4 67.2 55.3 43c-.2-1.2-.3-2.5-.3-3.8 0-16 12.9-28.9 28.9-28.9s28.9 12.9 28.9 28.9c0 9.1-4.2 17.2-10.8 22.5 9.4 61.4-57.5 59.9-79.2 44.3C1.2 90.5-5.7 75.2 8.4 67.2z" style="fill:#fff"/><path d="M92.5 32c-2.7 8.6-12.2 9-15.2 1.3-1.2-3.2.3-3.8 2.1-1s7.1 4.7 8.5-.8c.4-5.6 6.1-4.8 4.6.5z" style="fill:#c08475"/><path d="M102.7 38.8c0-6.9 7.2-7.9 13-4.5s2.1 6.8 0 8.3c-2.1 1.6-13 4.2-13-3.8z" style="fill:#facf8b"/><path class="st4" d="M7.8 72.6c4.1 0 3 4.6 0 4.6H2.7c-3.5 0-3.5-4.6 0-4.6h5.1zM7.8 80.3c4.1 0 3 4.6 0 4.6H2.7c-3.5 0-3.5-4.6 0-4.6h5.1zM88.3 70.8C82.5 83.9 72 90.9 66.4 93.5c-5.6 2.6-12.2 3.4-12.8-2.4-19.7 5.6-33.3 1.4-27.3-12.1-7.9-2.4-5.1-9.5-2.1-11.3 2.9-1.8 5.4-.9 3.5 2.1s-1.1 8.2 5.7 5.4c6.9-2.8 5.4 1.9.9 4s-6.9 10.2 5.9 9.2 13.2-3.9 15.4-6.3c2.3-2.4 4.7 0 2.8 3.3-1.9 3.3-1.8 8 7.4 3.1 9.2-4.9 15.1-13.1 18-19.1s6.6-2.8 4.5 1.4z"/></svg>