<svg version="1.1" id="Layer_1" xmlns="http://www.w3.org/2000/svg" x="0" y="0" viewBox="0 0 118 132.4" style="enable-background:new 0 0 118 132.4" xml:space="preserve"><style>.st1{fill:#facf8b}.st4{fill:#e2d6d4}</style><path d="M18.5 15.3C33.8-4.1 44.7-2.3 46.6 5.8c15.2-4.3 21.4 8.4 8.7 13.3l-18 3.5-.9-9.6-17.9 2.3z" style="fill:#fa8b85"/><path class="st1" d="M40.9 110.8v11.6c-8.8 3.3-5.9 9.4 1.4 9.4s6.9-4.1 6.9-9.1v-14.6l-4.7-5.4.1 6.2-3.7 1.9z"/><path d="m109.6 66.7-46.5-24c.2-1.2.3-2.5.3-3.7 0-15.8-12.8-28.7-28.7-28.7S6 23.1 6 39c0 9 4.2 17.1 10.7 22.3-9.3 61 57.1 59.4 78.6 44 21.6-15.5 28.4-30.6 14.3-38.6z" style="fill:#fff"/><path d="M26.1 31.8c2.7 8.6 12.1 9 15.1 1.3 1.2-3.2-.3-3.8-2.1-1s-7 4.7-8.4-.8c-.4-5.5-6.1-4.8-4.6.5z" style="fill:#c08475"/><path class="st1" d="M16 38.6c0-6.8-7.1-7.8-12.9-4.5s-2.1 6.7 0 8.3S16 46.5 16 38.6z"/><path class="st4" d="M110.3 72.1c-4 0-3 4.6 0 4.6h5.1c3.5 0 3.5-4.6 0-4.6h-5.1zM110.3 79.7c-4 0-3 4.6 0 4.6h5.1c3.5 0 3.5-4.6 0-4.6h-5.1zM30.3 70.3c5.8 13 16.2 20 21.7 22.6s12.1 3.4 12.7-2.3c19.6 5.5 33.1 1.3 27.1-12 7.8-2.4 5-9.4 2.1-11.2-2.9-1.8-5.4-.9-3.5 2.1 1.9 3 1.1 8.1-5.7 5.3-6.8-2.8-5.4 1.9-.9 4S90.6 89 78 87.9s-13-4-15.3-6.3c-2.3-2.3-4.7 0-2.8 3.3 1.9 3.3 1.8 8-7.3 3.1-9.1-4.8-15-13-17.8-19-2.9-5.9-6.6-2.9-4.5 1.3z"/><path class="st1" d="M67.7 108.5v12.7h-6.8c-3.8 0-4.5 6.4 1 5.9.4 7.4 5.6 6 8.8 3 3.1-2.9 5-4.4 5-9.6v-12.6c0-4.8-8-5.6-8 .6z"/></svg>