<svg version="1.1" id="Layer_1" xmlns="http://www.w3.org/2000/svg" x="0" y="0" viewBox="0 0 118 131.3" style="enable-background:new 0 0 118 131.3" xml:space="preserve"><style>.st1{fill:#facf8b}.st3{fill:#e2d6d4}</style><path d="M18.3 15.1c15.2-19.2 26-17.4 27.9-9.4 15.1-4.2 21.2 8.3 8.6 13.2L37 22.3l-.9-9.5-17.8 2.3z" style="fill:#fa8b85"/><path class="st1" d="M40.5 109.8v11.5c-8.7 3.2-5.8 9.4 1.4 9.4s6.9-4.1 6.9-9v-14.5l-4.6-5.4.1 6.1-3.8 1.9z"/><path d="M108.7 66.1 62.6 42.3c.2-1.2.3-2.4.3-3.7 0-15.7-12.7-28.4-28.4-28.4S5.9 22.9 5.9 38.6c0 9 4.1 16.9 10.6 22.1-9.3 60.5 56.6 58.9 78 43.6 21.4-15.2 28.1-30.3 14.2-38.2z" style="fill:#fff"/><path class="st1" d="M15.9 38.2c0-6.8-7.1-7.8-12.8-4.4s-2 6.7 0 8.2 12.8 4.1 12.8-3.8z"/><path class="st3" d="M109.4 71.5c-4 0-3 4.6 0 4.6h5.1c3.5 0 3.5-4.6 0-4.6h-5.1zM109.4 79.1c-4 0-3 4.6 0 4.6h5.1c3.5 0 3.5-4.6 0-4.6h-5.1zM30 69.7c5.7 12.9 16.1 19.8 21.6 22.4 5.5 2.6 12 3.4 12.6-2.3C83.6 95.3 97 91.1 91 77.9c7.7-2.4 5-9.4 2.1-11.1-2.9-1.8-5.4-.8-3.5 2.1 1.9 3 1.1 8-5.6 5.3-6.8-2.7-5.4 1.9-.9 3.9 4.4 2 6.8 10.1-5.8 9s-13-3.9-15.2-6.2c-2.2-2.3-4.6 0-2.7 3.2 1.9 3.2 1.8 7.9-7.3 3.1S37.3 74.4 34.5 68.4c-2.8-5.9-6.5-2.8-4.5 1.3z"/><path class="st1" d="M67.2 107.6v12.6h-6.8c-3.8 0-4.5 6.3 1 5.8.4 7.3 5.6 5.9 8.7 3s4.9-4.3 4.9-9.5V107c0-4.8-7.8-5.6-7.8.6z"/><ellipse cx="32.8" cy="29.8" rx="3.8" ry="5.2" style="fill:#c08475"/></svg>