<svg version="1.1" id="Layer_1" xmlns="http://www.w3.org/2000/svg" x="0" y="0" viewBox="0 0 195 283.7" style="enable-background:new 0 0 195 283.7" xml:space="preserve"><style>.st0{fill:#fff}.st2{fill:#dfbfc1}.st3{fill:#606481}.st4{fill:#ecdcdd}</style><path class="st0" d="M22.2 150v119c0 6.6 3.8 5.2 9.2 5.2h141.4V150L97 91.7 22.2 150z"/><path style="fill:#eedbdf" d="M188.7 140.8v116.6l-15.9 16.8V150z"/><path class="st2" d="m92.4 88-49.6 36.3c-4.8 3.4-7.4 6.3-11.7 11.2S20 147.9 20 147.9c-3.9 4.3-.5 9.6 5 4.8s71.7-53 71.7-53l70.7 59.7c2.8 2.5 6.4 5 9.2 1.3 2.8-3.7 15.1-18.1 15.1-18.1 1.6-1.8 1.3-3.6-3.1-7.4s-62.3-53.9-62.3-53.9L92.4 88z"/><path class="st0" d="M109.8 30.4C106.1 0 97-2.9 94 1.8s-32.1 45-4.6 90.9c3.9 7.3 15.8 7.3 22.1 5.8 31.9-8.1 32.1-50.1 21.1-53 3.4-31.9-4.7-42-22.8-15.1z"/><path class="st2" d="M108 33.4c-.4 7.2-3.2 32-4 36.2-.8 4.2-1.6 6.7-1.4 9.1s3.1 2.5 4.8-3.8c1.7-6.4 4.1-28.8 3-40.6s-2.3-3.3-2.4-.9zM130.7 47.1c-.9 6.5-8.7 22.2-11.5 27.2-2.9 5-2.7 7.4-.8 7 2-.4 10.5-13.7 14.1-31.7 2-10.1-.7-9.1-1.8-2.5z"/><circle class="st3" cx="40.1" cy="181.8" r="6.1"/><circle class="st3" cx="138.1" cy="181.8" r="6.1"/><path class="st3" d="M61.2 195.5c7.1 26.5 45.8 25.5 53.3-1.8s-6.7-57.7-34.2-56.8c-16.5.8-25.6 16.3-25.4 26.3.3 9.9 5.5 4.9 9.3.4 3.7-4.5 11.8-5.7 15.3 1.7 3.5 7.3 10.9 12.4 15.1 12.7-9.5 1.8-10.3 10.9 3 12.7-1.4 9.7-22.3 10-31.3.4-3.4-3.6-6.9-3.2-5.1 4.4z"/><path class="st4" d="M47.6 246.1c9.3-13.1 24.1-6.4 26.1 5s-7.9 20.7-17.8 18.3c-6.2 14.9-34 17.2-36.4-4.1-21.8-1.5-20.9-24-17.2-32.2s11.6-11.9 19.8-12.2v6.8c7.7.8 12.1 10.9 11.3 16.3 4.6-2.9 12.7.1 14.2 2.1z"/><path class="st2" d="M62.8 245.2c-2.9 2.4.9 4.1 3.3 2 2.4-2.1 3.7-3.6 2.5-5-1.2-1.4-4.7 2.1-5.8 3zM66.1 251.3c-3 2.1-.4 3.8 3 2.2 3.4-1.6 4.7-2.9 4.1-4.5-.6-1.6-5.5 1.2-7.1 2.3zM68.5 257.5c-2.9 1.3-2.1 3.5.6 2.8s4.2-.7 4.5-2.8c.4-2.2-3.9-.6-5.1 0zM22.2 219.1c-10.8.5-18.3 7.2-21.2 13.5-.9 2.3 1.6 3.8 2.8 1.2 1.2-2.6 6.6-10.8 18.4-11.4v-3.3zM34.7 242c-.1-9.7-7-15.6-13.8-15.9-3.3-.1-2.8 2.9 0 3 2.8.1 12.3 3.7 10.5 16-.5 3.2 1.1 3.9 3 1.5s10.2-.9 12.1 1.4c1.9 2.4 4.9.5 2.9-1.7-2-2.2-5.4-5.5-14.7-4.3zM63.9 270.3c-2.8 1.1-6.7 1.1-7.7.9-6.1 15.9-33.8 17-37.6-3.9C6 268.1 1.4 256.4.3 252.4s1.8-3.8 2.4-1.1 6.9 13.4 15.1 12.4c2.9-.4 3.4.1 3.4 2.2.1 14.5 24.7 18.6 32.7 3.5 1.3-2.2 2.4-2.3 3.5-1.9 1.3.5 3.7.7 5.7.1 1.9-.7 3.1 1.7.8 2.7z"/><path class="st4" d="M147.4 246.1c-9.3-13.1-24.1-6.4-26.1 5-2.1 11.4 7.9 20.7 17.8 18.3 6.2 14.9 34 17.2 36.4-4.1 21.8-1.5 20.9-24 17.2-32.2s-11.6-11.9-19.8-12.2v6.8c-7.7.8-12.1 10.9-11.3 16.3-4.6-2.9-12.7.1-14.2 2.1z"/><path class="st2" d="M132.2 245.2c2.9 2.4-.9 4.1-3.3 2s-3.7-3.6-2.5-5c1.3-1.4 4.8 2.1 5.8 3zM128.9 251.3c3 2.1.4 3.8-3 2.2s-4.7-2.9-4.1-4.5c.7-1.6 5.6 1.2 7.1 2.3zM126.6 257.5c2.9 1.3 2.1 3.5-.6 2.8s-4.2-.7-4.5-2.8c-.4-2.2 3.9-.6 5.1 0zM172.9 219.1c10.8.5 18.3 7.2 21.2 13.5.9 2.3-1.6 3.8-2.8 1.2-1.2-2.6-6.6-10.8-18.4-11.4v-3.3z"/><path class="st2" d="M148.6 248c1.9-2.4 10.2-3.9 12.1-1.4 1.9 2.4 3.5 1.8 3-1.5-1.8-12.3 7.7-15.9 10.5-16 2.8-.1 3.3-3.1 0-3-6.8.3-13.8 6.2-13.8 15.9-5.1-2-10.5.6-12.4 2.4-9.4-11.7-28.9-8.4-27.9 12 .3 4 3.1 2.9 2.9-.9-.5-14.8 13.9-20.2 22.3-9.1.7 1.3 2 3 3.3 1.6zM141.1 269.4c8 15.2 32.6 11.1 32.7-3.5 0-2.1.5-2.6 3.4-2.2 8.3 1.1 14.5-9.6 15.1-12.4s3.6-2.9 2.4 1.1-5.7 15.7-18.3 14.8c-3.8 21-31.5 19.9-37.6 3.9-1-3.5.9-3.9 2.3-1.7z"/></svg>