<svg version="1.1" id="Layer_1" xmlns="http://www.w3.org/2000/svg" x="0" y="0" viewBox="0 0 174.4 203.4" style="enable-background:new 0 0 174.4 203.4" xml:space="preserve"><style>.st3{fill:#fbcea9}.st5{fill:#fae9d8}.st6{fill:#b87d4e}.st8{fill:#ffdaca}.st9{fill:#cfab87}</style><path d="M15.8 63v106.3c0 6.9-.2 9.8 3.3 14 3.6 4.2 7.8 9.7 11.9 10.1l4.3-129.2L15.8 63z" style="fill:#f1d5bc"/><path d="M15.8 63v79.6c3.4.5 6.7.8 9.8.9V60.1L15.8 63z" style="fill:#e9bd91"/><path d="M25.6 79.5v104c0 8.8 3.3 10.3 9.4 10.3h125.3c10 0 10.9-2.1 10.3-9.8-.6-7.7 0-103.2 0-103.2L96 33.7 25.6 79.5z" style="fill:#fff"/><path class="st3" d="M107.4 44c3 50.4 4.1 98.6 62.9 99.6l.3-62.9L107.4 44zM25.6 60.1v83.4c59.4 3 62.3-50.8 63.5-102.1L25.6 60.1z"/><path d="M79.5 15.3 15.8 53c-7.5 4.1-5.4 7.1-3.2 10.9C14.8 67.6 22.7 80 22.7 80c3.4 5.4 6.4 4.7 11.8.8s63.6-38.5 63.6-38.5L167 83.9c6.2 4 9.9-.1 5.6-6.9-4.3-6.8-8.1-12.9-8.1-12.9-3-6-6.4-7.5-12.6-10.9-6.2-3.4-61-37.9-61-37.9-5-3.2-9.2-1.3-11.4 0z" style="fill:#daa779"/><path class="st3" d="M154.2 52.1c-1.6 4.8-4.8 5.8-8.5 5-1.5-.3-3.1-1-4.7-1.8-4.8-2.5-16.8-8.9-22.1-12.6-.7-.5-1.2-.9-1.7-1.3-3.9-3.4-3.3-5.9-1.1-9 17.4-25.9 32.7-38.1 39.7-29.8 7 8.2 7.4 15.3-1.6 49.5z"/><path class="st5" d="M145.7 57.1c-1.5-.3-3.1-1-4.7-1.8-4.8-2.5-16.8-8.9-22.1-12.6 11.4-16.4 25-36.5 32.3-32.4 7.3 4.1.6 25.1-5.5 46.8z"/><path class="st3" d="M32.4 54.3c1.6 4.8 4.8 5.8 8.5 5 1.5-.3 3.1-1 4.7-1.8 4.8-2.5 16.8-8.9 22.1-12.6.7-.5 1.2-.9 1.7-1.3 3.9-3.4 3.3-5.9 1.1-9C53.1 8.8 37.9-3.4 30.8 4.8c-7 8.3-7.4 15.4 1.6 49.5z"/><path class="st5" d="M42 59.5c1.5-.3 3.1-1 4.7-1.8 4.8-2.5 16.8-8.9 22.1-12.6-11.4-16.4-25-36.5-32.3-32.4-7.3 4.1-.5 25.1 5.5 46.8z"/><path class="st6" d="M98.2 135.4c6.1 8.6 16.4 8.2 21.6 3.9 2.8-2.4-.1-6.6-3.7-3.9-4.2 2.8-12.9-1.4-14.9-5.4 9.7-4.5 9.7-14.9-3-14.9s-12.7 10.4-3 14.9c-2 4-10.6 8.3-14.9 5.4-3.6-2.7-6.5 1.5-3.7 3.9 5.1 4.3 15.5 4.7 21.6-3.9z"/><path d="M112.1 110.3c5.3 20.3 28.4 15.5 40.4 14.9 11.9-.6 15-16.1 15.8-23.4.7-7.4-1.5-15-29.2-15s-29.1 6.3-28 14.2c-6.1-5.9-20.1-5-25.7 0 1.2-7.8-.2-14.2-28-14.2s-30 7.7-29.2 15S32 124.6 44 125.2c11.9.6 35.1 5.5 40.4-14.9 9.2-8.8 20.7-7.2 27.7 0z" style="fill:#8a4a28"/><path class="st8" d="M77 103.4c1.3-7.4-.1-9.6-19.6-9.6s-21.4 3.4-21 11.5c.4 8.1 6.8 13.6 20.4 13.6s18.1-5.2 20.2-15.5z"/><ellipse class="st9" cx="58.5" cy="105.8" rx="7.8" ry="9.2"/><path class="st8" d="M119.5 103.4c-1.3-7.4.1-9.6 19.6-9.6s21.4 3.4 21 11.5c-.4 8.1-6.8 13.6-20.4 13.6s-18.2-5.2-20.2-15.5z"/><ellipse class="st9" cx="137.9" cy="105.8" rx="7.8" ry="9.2"/><path d="M0 199.2c-.4-29 11.9-37.9 24-37.9s20.9 9.7 21.4 35.8c.3 4.4-1.5 6.2-6.3 6.2H6.8c-5 .1-6.8-.7-6.8-4.1z" style="fill:#edbe97"/><ellipse transform="rotate(-81.83 27.799 173.677)" class="st6" cx="27.8" cy="173.7" rx="6.4" ry="4.7"/><ellipse transform="rotate(-70.762 37.35 180.698)" class="st6" cx="37.3" cy="180.7" rx="4" ry="2.8"/><ellipse transform="rotate(-26.967 8.386 182.043)" class="st6" cx="8.4" cy="182" rx="3.2" ry="4"/><ellipse transform="matrix(.9972 -.07458 .07458 .9972 -12.89 1.714)" class="st6" cx="16.5" cy="173.5" rx="4.3" ry="5.2"/><path class="st6" d="M10 191.2c6.9-12.6 17.4-13.3 24 .4 2.3 4.6-4.3 9.9-9.1 6.1-2.4-2-4.6-2.2-7.3-.6-4.5 2.8-10.9.1-7.6-5.9z"/></svg>