<svg version="1.1" id="Layer_1" xmlns="http://www.w3.org/2000/svg" x="0" y="0" viewBox="0 0 253.8 211.5" style="enable-background:new 0 0 253.8 211.5" xml:space="preserve"><style>.st2{fill:#fd8376}.st6{fill:#eea826}.st7{fill:#b74c28}.st8{fill:#ffc1b6}.st12{fill:#735123}</style><path d="M45.3 101.7c-20.6-6.5-51.9 15.3-44 48.6 4 14.1 10.3 14.1 12.3 11.8s3.6-8.6 4-10.5c4.5 2.7 10.8-2 10.5-16.1 4.8 6 1.2 17.3 0 19.8-1.2 2.6.5 6 4.3 4.4S56.7 149 58 129.4s-5.8-25.3-12.7-27.7z" style="fill:#e9705f"/><path d="M208.7 60.7v111.7c0 4.1-.5 6.5-3.6 9.9-3.1 3.3-7.1 8.2-15.1 8.4h-.6l1.6-60.3 1.6-59.6.1-5.4 16-4.7z" style="fill:#e7705e"/><path class="st2" d="M189.9 190.7H52.5c-7 0-7.2-5.5-7.2-10.6V77.5l72.9-53.8 74.5 47.2 3.7 2.4v109.3c0 3.2.9 7.9-6.5 8.1z"/><path d="M208.7 133.9v38.5c0 4.1-.5 6.5-3.6 9.9-3.1 3.3-7.1 8.2-15.1 8.4H52.6c-7 0-7.2-5.5-7.2-10.6v-44.4c44.9-5.1 109.8-9.4 145.7-5.3 1.9.2 3.7.4 5.4.7 4.7.7 8.9 1.6 12.2 2.8z" style="fill:#ffb73a"/><path d="M208.7 133.9v38.5c0 4.1-.5 6.5-3.6 9.9-3.1 3.3-7.1 8.2-15.1 8.4h-.6l1.6-60.3c1.9.2 3.7.4 5.4.7 4.8.7 9 1.6 12.3 2.8z" style="fill:#ec9f28"/><path d="M134.8 1.8 64.5 47.9c-3.8 2.4-5.8 4.4-7.6 6.9-1.9 2.6-15.8 21.9-15.8 21.9-2.7 4.9.2 7.6 7.8 2.2 7.6-5.5 71-48.3 71-48.3l67.6 52.7c3.5 3.1 5.4 3.3 8.9-1.1s17.1-22.3 17.1-22.3c2.5-3.6-.5-5.1-5-8.5C204 47.9 143.3 2 143.3 2c-3.6-3.5-6.5-1.5-8.5-.2z" style="fill:#eb533e"/><path class="st6" d="M45.3 144.1c0 4.5-1.5 25 1.1 27.8 2.6 2.8 4.8 3.3 5.2 5.5.5 2.2-2.6.2-4.7-1.2s-5.5-5.4-6.1-9.3c-.6-3.8-.6-22.5 0-25.4.6-2.9 1-6.3 8.2-7.7 7.2-1.4 31.1-2.7 34.2-2.4s2.2 3.3 2 5.2c-.2 1.9 1 30.2 1.6 33.4.7 3.1-2.5 5.2-3.5.2s-1.6-33.9-1.6-34.9c-2.5-.2-6.9.1-6.9.1-.1 8.4 2.1 35.7 2.7 38.2.6 2.6-2.7 3.8-3.2-.5-.6-4.3-2.9-35.5-3.1-37.6-1.9-.3-6.5-.2-6.5-.2-.9 5 1.2 31.3 3.2 36.8.8 2.1-1.6 4.7-3.1.1-1.5-4.6-3.6-19.7-4.1-36.4-2.1-.3-5.3.3-6 4.3-.7 4-1.4 18.1 2 29.1 1 2.7-1.9 4.5-3.3.5-3.7-15.1-2.4-29.3-1.9-32-3.6.4-6.2 1.6-6.2 6.4zM95.3 136.9c-.2 3.1.4 33.3 1 36.8.7 3.5 4.1 2.6 3.3-.7-.8-3.2-1-31.9-1-35.4.2-3.5-3.3-3.7-3.3-.7zM105.6 134.8c-.6 6.6 1 32.9 1.6 37 .6 4.1 4.1 2.3 3.3-.8s-1.6-29.1-1.2-35.5c.3-3.5-3.6-3.6-3.7-.7zM139.7 127.8c-3.2.4-8.5 3.5 4 3.6 1 6.7 1.8 37.5 1.2 41.4-.6 3.9 4.2 5.5 4.1 0s-.3-39.8-.9-41.9c4-.4 9.8 0 9.8 0 .9 12.3.8 42-.7 45s4.5 4.5 4.4 0c-.1-4.5 1-43.3.2-45.2 3.2.1 6 .2 6 .2 0 11.6-1.5 40.2-1.8 43.2-.4 4.6 4.5 5.6 4.7 1 .1-3.9 1.5-41.6 1.5-43.6 2.9-.4 5 .1 5 .1.8 20 .2 35.5 0 39.8s5.4 4.4 5.1-1.5c-.2-5.8-1-37.6-1-38.3 2.6-.1 7.8.3 7.8.3.5 5.9-.4 30.9-.7 36.2-.3 5.3 4.5 3.8 4.8-.2.3-4-.4-34.6-.6-35.3 5.8 1.1 6.3-2.4 1.5-3.4-4.5-.8-45-2.8-54.4-1.4zM115.3 133.4c-.1 7.8.3 35.9.7 40 .3 4.2 4.3 3.2 4-.7-.3-3.9-.9-34.9-.9-39.3 0-3.2-3.8-3-3.8 0zM124.8 137.8c-.6 8.7-.3 31.2 0 35.4s4.3 4.4 3.6-.6c-.7-5-.1-31.3.1-34.8.2-3.5-3.5-3.8-3.7 0z"/><path class="st6" d="M133.5 137.5c-.2 5.6.3 35.2 1.1 37.6.8 2.4 4 2.4 4.1-1 .1-3.4-1-32-1-36.6s-4.1-4.1-4.2 0z"/><ellipse class="st7" cx="91.8" cy="95.7" rx="5.7" ry="6.7"/><ellipse class="st7" cx="147.7" cy="95.7" rx="5.7" ry="6.7"/><path class="st8" d="M76.8 115.3c-18.6 1.9-15.9-14.7-5.1-10.8 3.3-10.3 18.6-1.8 5.1 10.8zM164.5 115.3c18.6 1.9 15.9-14.7 5.1-10.8-3.3-10.3-18.6-1.8-5.1 10.8z"/><path class="st7" d="M120.8 111c6.6 0 12.6-6.5 12.6-11.9 0-3.3-3.9-3.4-3.9 0s-4.3 8.1-8.6 8.1c-4.4 0-8.6-4.6-8.6-8.1s-3.9-3.3-3.9 0c-.2 5.5 5.8 11.9 12.4 11.9z"/><path d="M162.1 180.8c-10.7 12.8-7.4 21.5 4.1 27s39.3 6.8 50.8-10c11.4-16.9 0-34-21.1-33.1-16.5.7-31.4 13-33.8 16.1z" style="fill:#51536e"/><path d="M180.6 177.3c-9.2 3.8-16.8 11-16.8 17.3 0 6.2 11.7 8.1 21.5 8.1l-9-13.1 4.3-12.3z" style="fill:#646386"/><circle cx="185.4" cy="189.5" r="13.1" style="fill:#ffb53e"/><ellipse transform="rotate(-23.638 181.527 187.453)" class="st12" cx="181.5" cy="187.5" rx="1.4" ry="2.1"/><ellipse transform="rotate(-23.638 190.289 186.596)" class="st12" cx="190.3" cy="186.6" rx="1.4" ry="2.1"/><path class="st12" d="M183.9 192c2 2.8 5.7 1.5 5.9-.8.2-2.4-1.7-1.8-1.8-.3-.1 1.5-1.9 1.6-2.3.2s-2.8-.5-1.8.9z"/><path class="st2" d="M208.7 108.2c20.6-6.5 51.9 15.3 44 48.6-4 14.1-10.3 14.1-12.3 11.8-2-2.3-3.6-8.6-4-10.5-4.5 2.7-10.8-2-10.5-16.1-4.8 6-1.2 17.3 0 19.8 1.2 2.6-.5 6-4.3 4.4-3.8-1.7-24.4-10.8-25.7-30.3-1.3-19.5 5.9-25.2 12.8-27.7z"/></svg>