<svg version="1.1" id="Layer_1" xmlns="http://www.w3.org/2000/svg" x="0" y="0" viewBox="0 0 273.7 217.6" style="enable-background:new 0 0 273.7 217.6" xml:space="preserve"><style>.st2{fill:#ff7293}.st3{fill:#fff7ff}.st4{fill:#624f4a}.st5{fill:#897f79}</style><path d="M21.8 171.8 7.6 151.3c-1.1-1.6-1.7-3.4-1.7-5.3V56.6l14.8 19.5 1.1 95.7z" style="fill:#ec8e9b"/><path d="M20.7 76.1v90.2c0 9.3 6.3 9.3 12.3 9.3h132.1c9 0 8.6-3.6 8.6-10.9V72.8L90.4 28.7 20.7 76.1z" style="fill:#fb9eab"/><path class="st2" d="M69.1 1.6 4.4 45C-1.8 48.9-.3 51.9 2 55.5s15.8 24.6 15.8 24.6c3 4.7 6.6 1.5 11.6-1.5 5.1-3 63-42.8 63-42.8l77.5 39.8c5.4 2.8 8.5-1.3 3.9-8.3-4.5-6.9-13.9-22.5-13.9-22.5-2.6-4.7-3.9-4.1-9.9-6.8S78.3 1.6 78.3 1.6c-5.4-2.8-7-1.4-9.2 0z"/><path class="st3" d="M88 76c.2-5.5-2-10.5-3.8-12-1.8-1.5-3.3-.8-3.2 4.3s0 8.6 0 8.6l4.7 3.1 2.3-4zM70.3 79.2c-.5-5.9-3-9.8-4.4-11s-2.2.2-2.2 3.5v9.6l5.1 3.2 1.5-5.3zM54.8 85.2c-2.8-3.5-5.4-5.3-7.3-6.6s-3.7-.9-2.5 3.3 3.5 8.4 3.5 8.4l4.9 1.6 1.4-6.7zM45.7 96.7c-8-.5-11.6.3-12.4 1.4s.2 4.5 11.3 6.2c11.2 1.6 1.1-7.6 1.1-7.6zM45.2 106.5c-5.6 1.1-8.4 3.1-10.2 4.6s-3.8 4.6 12.8 3l1.1-5.2-3.7-2.4zM116.2 76c-.2-5.5 2-10.5 3.8-12 1.8-1.5 3.3-.8 3.2 4.3-.2 5.1 0 8.6 0 8.6l-4.7 3.1-2.3-4zM133.9 79.2c.5-5.9 3-9.8 4.4-11s2.2.2 2.2 3.5v9.6l-5.1 3.2-1.5-5.3zM149.4 85.2c2.8-3.5 5.4-5.3 7.3-6.6 1.8-1.3 3.7-.9 2.5 3.3-1.2 4.2-3.5 8.4-3.5 8.4l-4.9 1.6-1.4-6.7zM158.5 96.7c8-.5 11.6.3 12.4 1.4.9 1.1-.2 4.5-11.3 6.2-11.2 1.6-1.1-7.6-1.1-7.6zM159.1 106.5c5.6 1.1 8.4 3.1 10.2 4.6 1.8 1.6 3.8 4.6-12.8 3l-1.1-5.2 3.7-2.4zM97.7 75.2c2.9-20.4 7.4-13.1 8.6 0l-6.1 5.9-2.5-5.9z"/><path class="st4" d="M140.8 121c-4 0-10.6-.6-16.7-1.8-5.6-1.1-10.8-2.8-13.3-5-1.1-1-2.3-1.7-3.6-2.2-.9-.4-1.8-.6-2.8-.8-1.4-.2-2.7-.3-4.1-.2-3.3.2-6.4 1.4-8.8 3.3-5.1 4.1-8.6 5.8-26.8 6.8-1.5.1-2.8.1-4.1 0-4.1-.3-7.3-1.5-9.7-3.3-2.8-2.1-4.5-5.1-5.3-8.6-.3-1.2-.5-2.5-.5-3.8-.2-3.1.2-6.5 1-10 1.6-6.9 10.3-12 21.6-15.3 1.6-.5 3.2-.9 4.8-1.3 3.4-.8 7-1.5 10.6-2 5.9-.9 12-1.3 17.8-1.4h2c2.1 0 14.1.1 26.5 2.6 1.1.2 2.2.5 3.3.7 1.9.4 3.7.9 5.5 1.5 6 1.9 11.4 4.5 15.2 8.1 2.7 2.5 4.5 5.6 5.2 9.2 4 21.6-10.1 23.5-17.8 23.5z"/><path class="st2" d="M254.6 187.4c-5.6-1.2-22.7.3-36.5-12.4-13.8-12.8-23.7-15.4-37.2-17.3-13.4-1.8-17.9-13.1-24.5-20.9-6.6-7.8-13.1-16.9-54.2-18.9-10 0-15.8 4-20.8 6.5s-6.5 3.2-11.5 3.3c-5 .2-26.4 8.8-26.4 27.2s13.8 30.5 27.2 38.7c13.4 8.1 27.7 9 40 8.6 12.3-.3 13.9 3.2 18.4 5.8 4.5 2.7 21.1 13.9 62.4 7.8 41.3-6.1 61.5.7 77-8.3s-8.3-18.9-13.9-20.1zm-120.8-39.9c-8.8 16.3-14.9 16.3-17.4 16.3-2.5 0-6 .2-6.5-2.7-.5-2.8-2.5-2.3-7-2.3s-6.8-.2-7.1 3c-.3 3.2-4.1 5.3-9.8 5.1-5.6-.2-22.4-1.2-22.4-17.1s5.1-14.6 8.1-12.9c3 1.7 4.8 2.5 10.6 2.5 17.3 0 17.4-10.8 36.7-13.6 19.3-2.9 23.6 5.4 14.8 21.7z"/><path class="st4" d="M133.3 128.9c-9.9-1.3-19.5 0-32.4 7.8-12.9 7.8-19.8 6-25.1 3.7-5.3-2.4-8.5-2.5-9.1-1.5-.6.9.2 2.6 4.1 2.8 1.7 7.1 11.7 15.9 30.1 15.9s29.1-10.9 29.1-26c6.3.3 6.2-2.4 3.3-2.7z"/><path class="st3" d="M126.7 130.9c-9 .2-18.6 3.7-28.2 9.9s-22.5 3.5-25.1 1.4c4.9 7.5 13.9 13 27.4 13s25.2-10 25.2-16.6c-2.2-.2-3.4 1.4-3.9 3.3s-2.8 2.5-3.9.5-5.4-.6-7.9.5-7 .6-5.3-1c1.7-1.5 3.5-.9 5.4-1.5s8.2-3.8 10.1.1c1.4-4.3 5.4-5.1 6.2-5.1.2-1.2.5-3.2 0-4.5z"/><path class="st5" d="M72.5 78.6 45.6 109c-.3-1.2-.5-2.5-.5-3.8l22.6-25.3c1.5-.5 3.1-.9 4.8-1.3zM100.9 75.2l-40.3 45.7c-4.1-.3-7.3-1.5-9.7-3.3l32.2-41c5.9-.8 12-1.3 17.8-1.4zM132.6 78.5l-28.3 32.7c-1.4-.2-2.7-.3-4.1-.2l29.2-33.2c1.1.2 2.2.4 3.2.7zM153.4 88.1l-29.3 31.1c-5.6-1.1-10.8-2.8-13.3-5-1.1-1-2.3-1.7-3.6-2.2l31-32c5.9 1.9 11.4 4.5 15.2 8.1z"/><path class="st3" d="M45.9 121.7c-1.3 4.5-.1 5.8 3.7 3.2 3.7-2.6 7.1-6.7 4.2-9.2-3-2.4-7.5 4-7.9 6zM59.8 126.3c.2 3 2.5 3 4.5.3s5.6-7.7 1-8.7c-4.7-.9-5.8 4.2-5.5 8.4zM77 124.3c.7 3.7 3.9 5 5.4-.4 1.5-5.4 1.3-8.2-2.2-8.2s-4.6 2.8-3.2 8.6zM92.3 120.7c2.2 3.3 3.5 2.3 4.2-1.5.8-3.8 1.7-11.1-4.2-8s0 9.5 0 9.5zM158.3 121.7c1.3 4.5.1 5.8-3.7 3.2-3.7-2.6-7.1-6.7-4.2-9.2 3-2.4 7.5 4 7.9 6zM144.4 126.3c-.2 3-2.5 3-4.5.3s-5.6-7.7-1-8.7c4.8-.9 5.9 4.2 5.5 8.4zM127.3 124.3c-.7 3.7-3.9 5-5.4-.4-1.5-5.4-1.3-8.2 2.2-8.2s4.5 2.8 3.2 8.6zM112 120.7c-2.2 3.3-3.5 2.3-4.2-1.5-.8-3.8-1.7-11.1 4.2-8s0 9.5 0 9.5z"/><path class="st2" d="M53.5 76.1c5.9 2.7 20.5 12 26 15.9 5.5 3.9 8.3-.1 9.3-1.1s2.4-3.8-3.1-7.2C80.2 80.3 64.2 68.9 53.5 72c-5 1.5-2.3 2.9 0 4.1zM150.6 76.1c-5.9 2.7-20.5 12-26 15.9-5.5 3.9-8.3-.1-9.3-1.1s-2.4-3.8 3.1-7.2c5.5-3.5 21.5-14.8 32.2-11.8 5 1.6 2.3 3 0 4.2z"/></svg>