<svg version="1.1" id="Layer_1" xmlns="http://www.w3.org/2000/svg" x="0" y="0" viewBox="0 0 223.3 227.9" style="enable-background:new 0 0 223.3 227.9" xml:space="preserve"><style>.st8{fill:#0d3584}.st9{fill:#83a1ea}.st10{fill:#e59aff}.st11{fill:#8080ea}.st14{fill:#f4c8ff}.st15{fill:#fc7f57}.st17{fill:#ff9f24}.st18{fill:#ffba6c}.st20{fill:none}.st23{fill:#a6caf1}.st25{fill:#f5bbff}.st26{fill:#fdc6ff}.st27{fill:#dbdaff}.st28{fill:#f8caff}.st29{fill:#f7d5ff}.st30{fill:#cfe9ff}.st31{fill:#92ccff}.st32{fill:#9496ff}.st33{fill:#d8c6ff}.st34{fill:#e1acff}.st36{opacity:.8;fill:#4826e2}.st39{fill:#a7a3f6}.st40{fill:#adb8f0}.st41{fill:#f5b2ff}.st42{fill:#e1cdff}</style><linearGradient id="SVGID_1_" gradientUnits="userSpaceOnUse" x1="48.344" y1="125.086" x2="19.321" y2="180.764"><stop offset="0" style="stop-color:#9184ff"/><stop offset="1" style="stop-color:#ad37ff"/></linearGradient><path d="M.7 167.7c0 4.5.7 26.4 43 25.4v-16.5c-5.1 0-22.3-3.1-22.3-18.7 0-8.9 7.6-20.6 22.3-32.1v-12.2c-31.4 16.1-43 36.9-43 54.1z" style="opacity:.8;fill:url(#SVGID_1_)"/><linearGradient id="SVGID_00000181809918795969009450000017276716845785009815_" gradientUnits="userSpaceOnUse" x1="205.536" y1="118.061" x2="204.327" y2="180.014"><stop offset="0" style="stop-color:#8997fb"/><stop offset="1" style="stop-color:#d862f0"/></linearGradient><path style="opacity:.8;fill:url(#SVGID_00000181809918795969009450000017276716845785009815_)" d="M223.3 142.8c0-13.6-6.7-25.1-36.1-25.1v10.1c9.2 0 20.9 6.5 20.9 13.6 0 6.2-4.6 15.4-20.9 25.2v13.1c23.7-11.9 36.1-23.8 36.1-36.9z"/><path d="M202.1 146.6c0 1-.1 1.9-.4 2.9-1.2 4.4-5.3 7.6-10.1 7.6-5.8 0-10.5-4.7-10.5-10.5 0-4.9 3.4-9 7.9-10.2.8-.2 1.7-.3 2.5-.3 1.4 0 2.7.3 3.9.8.6.2 1.1.5 1.6.8 1.1.7 2 1.5 2.8 2.5 1 1.2 1.6 2.7 2 4.2.2.7.3 1.5.3 2.2z" style="fill:#ffa02c"/><path d="M50.9 141.4c0 5.1-4.1 9.2-9.2 9.2-2.9 0-5.5-1.3-7.1-3.4-1-1.2-1.6-2.6-1.9-4.1-.1-.5-.2-1.1-.2-1.6 0-5.1 4.1-9.2 9.2-9.2 5.1-.1 9.2 4 9.2 9.1z" style="fill:#c780e6"/><path d="m54.5 208.1-9.2-8.5c-1.8-1.5-1.6-7-1.6-11.5V96.7l10.4 10.8.4 100.6z" style="fill:#154291"/><path d="M54.1 107.5V204c0 11.5 8.6 10.8 14.6 10.8H181c6.5 0 6.3-3.2 6.3-8.1V104.8L111 57.6l-56.9 49.9z" style="fill:#2a59ae"/><path d="m116.8 64.5-59.6 47.2c-4.5 3.7-5.4 1.3-7.3-1.1-1.9-2.3-10.1-12.4-10.1-12.4-3-4.1-.5-4.6 3.1-7.6S103 45.1 103 45.1c2.8-2.6 4.5-1.5 6.6 0 2.1 1.5 69.2 44.7 69.2 44.7 3.2 2.1 4.9 3.5 7.2 6.3s6.1 8.3 6.1 8.3c1.8 3-.6 6.2-7 1.9-6.3-4.2-68.3-41.8-68.3-41.8z" style="fill:#ffe572"/><path d="M127.2 93.6c-7.2-12.3-10.4-1.2-10.8 1.5-8.2.9-12.7 5.3-2.7 8.4-2 8.8 3 10 7 2.6 15.4 7.6 12-.8 9.2-6.7 7.7-3.3 1.6-6.5-2.7-5.8z" style="fill:#f7f7f5"/><path class="st8" d="M100.1 143c-2.9 4-9.1 4.7-12.5.7-3.4-4-7.3 1.1-4.1 3.9s13.2 7.9 21-1.2c2.7-3.8-1.9-7-4.4-3.4zM144.8 143c2.9 4 9.1 4.7 12.5.7 3.4-4 7.3 1.1 4.1 3.9s-13.2 7.9-21-1.2c-2.7-3.8 1.9-7 4.4-3.4zM113.6 156.2c8.3 8.3 16 4.1 19.8-2.1 1.3-2.4-2-5.4-4.3-1.8-2.3 3.7-8.5 4.9-11.7 1.1-3.1-3.8-6.4.5-3.8 2.8z"/><circle class="st9" cx="71.2" cy="158.5" r="10.2"/><circle class="st9" cx="171.8" cy="158.5" r="10.2"/><path class="st10" d="M43.7 143.1c-6.4 2.3-7.2 7.2 0 2.8v-2.8zM43.7 137.1v1.7c-2.5.1-7.4 3.3-9.2 8.4-1-1.2-1.6-2.6-1.9-4.1 2.6-3.1 5.7-6.8 11.1-6z"/><path class="st11" d="M46 171.2c-2.7 1.6-7 3.4-12 5s-9.6 2.6-12.6 2.9c-.5-1.1-.9-2.3-1.1-3.5-.1-.7-.2-1.5-.2-2.2 0-1 .1-2.1.4-3 1.4-5.8 6.5-10 12.7-10 3.2 0 6.2 1.2 8.5 3.1 1.4 1.2 2.5 2.6 3.3 4.2.4 1.1.8 2.3 1 3.5zM45.8 176.5c-1.4 5.7-6.5 10-12.7 10-3.2 0-6.2-1.2-8.5-3.1 3.3-.4 7-1.2 10.9-2.4 4-1.3 7.5-2.8 10.3-4.5z"/><path d="M45.8 176.5c-2.9 1.7-6.4 3.2-10.2 4.5-3.9 1.3-7.6 2.1-10.9 2.4-6.6.7-11.6-.4-12.5-3.1-.9-2.8 2.5-6.5 8.3-9.9-.2 1-.4 2-.4 3 0 .8.1 1.5.2 2.2-2 1.2-3.1 2.2-2.9 2.9.2.7 1.7.9 4 .6 3.1-.3 7.7-1.3 12.6-2.9 5-1.6 9.3-3.5 12-5 2-1.2 3.1-2.2 2.9-2.9-.2-.7-1.7-.9-4-.6-.8-1.6-1.9-3-3.3-4.2 6.6-.7 11.6.4 12.5 3.1.9 2.8-2.5 6.6-8.3 9.9z" style="fill:#625ec9"/><path d="M92.3 191.5c0 .6-.1 1.2-.1 1.7-.8 5-5.1 8.8-10.3 8.8-3.6 0-6.7-1.8-8.6-4.5-1-1.5-1.7-3.2-1.8-5v-.9c0-1.2.2-2.3.5-3.3 1.4-4.1 5.3-7.1 9.9-7.1 1.4 0 2.7.3 3.9.7 1.8.7 3.4 2 4.6 3.5.8 1.1 1.4 2.4 1.7 3.7.1.8.2 1.6.2 2.4z" style="fill:#e09df1"/><path class="st14" d="M90.3 185.3c-1.8.2-3.8-.8-4.6-3.5 1.8.7 3.4 2 4.6 3.5zM81.8 181.1c-.5 1.4-4.3 6.7-9.9 7.1 1.4-4.1 5.3-7.1 9.9-7.1zM92 189.1c-7.5-2.5-12.3-1-13.7.4-1.4 1.4-2.1 3.4-6.9 3 .2 1.9.8 3.6 1.8 5 0 0 1.8-.9 5.3.4s8.4-.2 9.9-1.9 2.4-3 3.7-2.8c.1-.6.1-1.1.1-1.7.1-.8 0-1.6-.2-2.4zm-13.6 5.4c2.7-3.1 6.1-3.7 9.6-3-2.5 4-6.9 4.3-9.6 3z"/><path class="st15" d="M139.1 188.3c-.6.8-1.2 1.7-1.9 2.6-1 1.2-2.1 2.5-3.3 3.9-.8.9-1.7 1.8-2.6 2.7-.7.7-1.4 1.4-2.1 2-.9-.6-1.7-1.3-2.6-1.9-4-3.2-7.1-6.5-8.5-8.8.6-1.1 1.4-2 2.3-2.9 1.5-1.4 3.3-2.4 5.3-2.9 1-.3 2-.4 3-.4.4 0 .7 0 1.1.1 2 .2 3.9.8 5.5 1.9 1.5.8 2.9 2.1 3.8 3.7zM125.2 203c-1.1.9-2.1 1.6-3.1 2.3-1.5-1-2.9-2.3-3.8-3.8-1-1.6-1.7-3.5-1.9-5.5 0-.4-.1-.7-.1-1.1v-.3c1.8 2.4 4.2 4.8 7 7 .7.5 1.3.9 1.9 1.4zM131.8 206.8c-1 .3-2 .4-3 .4-.4 0-.7 0-1.1-.1.6-.4 1.3-.9 1.9-1.4.7.4 1.4.8 2.2 1.1zM141 194.9v.3c-.2-.2-.3-.4-.5-.7.2-.2.3-.5.5-.7v1.1z"/><path d="M141 193.8c-.2.2-.3.4-.5.7-.9 1.3-2 2.6-3.1 3.9-.8.9-1.6 1.8-2.5 2.7l-1.3 1.3c-1.3 1.3-2.7 2.4-4 3.4-.7.5-1.3 1-1.9 1.4-6.4 4.5-12.3 6.1-14.8 3.6-2.5-2.5-.9-8.4 3.6-14.8.2 2 .8 3.9 1.9 5.5-2.1 3.1-3 5.4-2.3 6.1.8.8 3.1-.2 6.1-2.3 1-.7 2-1.4 3.1-2.3 1.3-1 2.6-2.2 4-3.5.7-.7 1.4-1.3 2.1-2 .9-.9 1.8-1.8 2.6-2.7 1.2-1.3 2.4-2.7 3.3-3.9.7-.9 1.4-1.8 1.9-2.6 2.1-3.1 3-5.4 2.3-6.1-.8-.8-3.1.2-6.1 2.3-1.6-1-3.5-1.7-5.5-1.9 6.4-4.5 12.4-6.1 14.8-3.6 2.4 2.5.8 8.4-3.7 14.8z" style="fill:#f07233"/><path class="st17" d="M129.2 199.5c-1.4 1.3-2.7 2.5-4 3.5-.6-.4-1.2-.9-1.8-1.4-2.8-2.2-5.2-4.6-7-7-3.7-4.8-5-9.4-3-11.9s6.8-2.2 12.3.3c-2 .5-3.9 1.5-5.3 2.9-1.5-.5-2.5-.5-2.9 0-.4.5-.2 1.6.6 2.9 1.4 2.3 4.5 5.6 8.5 8.8.8.6 1.7 1.3 2.6 1.9z"/><path class="st15" d="M141 195.2c0 2.1-.6 4.1-1.6 5.9-.6 1.1-1.4 2-2.3 2.9-1-.3-2.2-.9-3.5-1.6.4-.4.9-.8 1.3-1.3.9-.9 1.7-1.8 2.5-2.7 1.1-1.3 2.2-2.6 3.1-3.9.2.2.4.4.5.7z"/><path class="st17" d="M144.1 207.1c-2 2.5-6.8 2.2-12.3-.3-.7-.3-1.4-.7-2.2-1.1 1.3-1 2.7-2.2 4-3.4 1.3.7 2.5 1.3 3.5 1.6 1.5.5 2.5.5 2.9 0 .4-.5.2-1.5-.6-2.9 1-1.7 1.6-3.7 1.6-5.9 3.7 4.9 5 9.5 3.1 12z"/><path class="st18" d="M195.6 136.9c-2.8 1.7-5.6 1.1-6.5-.5.8-.2 1.7-.3 2.5-.3 1.4 0 2.7.3 4 .8zM199.9 140.2c-3.4 4.4-9.3 5.2-12.6 4.8v-1.7c3.2-.7 8-3.1 9.9-5.7 1 .8 1.9 1.6 2.7 2.6zM202.1 146.6c0 1-.1 1.9-.4 2.9-5.1 2.9-8.8 3.5-14.4 3.5v-2.8c6.6.5 13.5-4 14.6-5.8.1.7.2 1.5.2 2.2z"/><path d="M63.7 53.2v31.6c0 1.9 2.2 3 3.7 1.9L84.1 74c.9-.7 1.4-1.7 1.4-2.9V53.2c0-1-.8-1.9-1.9-1.9H65.5c-1 0-1.8.9-1.8 1.9z" style="fill:#1c63c0"/><path class="st20" d="M71.3 100.6c18.6-8.4 27.5-12.3 35.7-19.8 4.5-4.1 8.3-9.8 11.1-15.5-.8-.5-1.3-.8-1.3-.8l-45.5 36.1z"/><linearGradient id="SVGID_00000176765674090351780320000012587979119552752522_" gradientUnits="userSpaceOnUse" x1="66.045" y1="26.883" x2="116.589" y2="59.855"><stop offset="0" style="stop-color:#d25ef2"/><stop offset="1" style="stop-color:#d9a5fc"/></linearGradient><path style="opacity:.8;fill:url(#SVGID_00000176765674090351780320000012587979119552752522_)" d="M148.3 46.6C148.3 5.3 93.6 0 87.2 0c-6.4 0-33.4 1.1-49.9 9.7-27 12.2-28.7 24.5-28.7 29.8s5.1 18.6 44.4 6.6c10.5-2.9 15.8.5 15.8 5.2h12.9c0-15.5-14.6-18.9-20.3-18.9-5.7 0-15.8-2-15.8-9.9 0-12.4 17.2-17.8 32.8-17.8 33.8 0 46 24.7 46 39.9 0 2.1-.6 5.3-1.7 9.1 5.4 3.5 12 7.7 18.7 12.1 4.9-6.9 6.9-13.5 6.9-19.2z"/><path class="st23" d="M141.4 65.8c-6.7-4.3-13.3-8.6-18.7-12.1-1.1 3.5-2.6 7.6-4.6 11.6 2.5 1.5 8.3 5 15.5 9.4 3.2-3 5.7-6 7.8-8.9z" style="opacity:.8"/><path class="st23" d="m57.2 111.7 14.1-11.2c-6.1 2.7-13.1 5.9-21.5 9.9l.2.2c1.9 2.4 2.7 4.8 7.2 1.1z"/><path class="st20" d="M21.4 157.8c0 15.7 17.2 18.7 22.3 18.7v-50.8c-14.7 11.5-22.3 23.2-22.3 32.1z"/><linearGradient id="SVGID_00000109024502497069676310000002144151337421597097_" gradientUnits="userSpaceOnUse" x1="126.931" y1="70.662" x2="45.191" y2="120.021"><stop offset="0" style="stop-color:#0087fb"/><stop offset="1" style="stop-color:#131ff8"/></linearGradient><path style="opacity:.8;fill:url(#SVGID_00000109024502497069676310000002144151337421597097_)" d="M133.6 74.7c-7.2-4.4-13-7.9-15.5-9.4-2.8 5.7-6.6 11.4-11.1 15.5-8.2 7.5-17.1 11.4-35.7 19.8l-14.1 11.2c-4.5 3.7-5.4 1.3-7.3-1.1 0-.1-.1-.1-.2-.2l-1.2.6c-1.7.8-3.3 1.6-4.9 2.4v12.2c11.1-8.7 26.2-17.4 45.3-24.7 21-8.2 35.3-17.3 44.7-26.3z"/><path class="st25" d="M13.3 49.9c-.4 0-.7-.3-.7-.7v-5.6c0-.4.3-.7.7-.7s.7.3.7.7v5.6c-.1.4-.4.7-.7.7z"/><path class="st25" d="M16.1 47.1h-5.9c-.4 0-.7-.3-.7-.7s.3-.7.7-.7h5.9c.4 0 .7.3.7.7s-.3.7-.7.7zM33.5 16.1c-.4 0-.7-.3-.7-.7v-4.8c0-.4.3-.7.7-.7s.7.3.7.7v4.8c-.1.4-.4.7-.7.7z"/><path class="st25" d="M36.3 13.7h-4.7c-.4 0-.7-.3-.7-.7 0-.4.3-.7.7-.7h4.7c.4 0 .7.3.7.7 0 .4-.3.7-.7.7zM42.9 41.3c-.2 0-.4-.2-.4-.4v-4.3c0-.2.2-.4.4-.4s.4.2.4.4v4.3c0 .2-.2.4-.4.4z"/><path class="st25" d="M45.6 39.1h-4.8c-.2 0-.4-.2-.4-.4s.2-.4.4-.4h4.8c.2 0 .4.2.4.4s-.1.4-.4.4zM33.1 45.4c-.2 0-.4-.2-.4-.4v-2.7c0-.2.2-.4.4-.4s.4.2.4.4V45c0 .2-.2.4-.4.4z"/><path class="st25" d="M34.7 44.4h-3.1c-.2 0-.4-.2-.4-.4s.2-.4.4-.4h3.1c.2 0 .4.2.4.4s-.2.4-.4.4zM16.9 33.3c-.2 0-.4-.2-.4-.4v-2.4c0-.2.2-.4.4-.4s.4.2.4.4v2.4c0 .2-.2.4-.4.4z"/><path class="st25" d="M18 32.1h-2.7c-.2 0-.4-.2-.4-.4s.2-.4.4-.4H18c.2 0 .4.2.4.4s-.2.4-.4.4zM26.7 23.4c-.2 0-.4-.2-.4-.4v-2.7c0-.2.2-.4.4-.4s.4.2.4.4V23c.1.2-.1.4-.4.4z"/><path class="st25" d="M28.5 22.1h-3.6c-.2 0-.4-.2-.4-.4s.2-.4.4-.4h3.6c.2 0 .4.2.4.4s-.2.4-.4.4zM69 45.4c-.2 0-.4-.2-.4-.4v-3.2c0-.2.2-.4.4-.4s.4.2.4.4V45c0 .2-.2.4-.4.4z"/><path class="st25" d="M70.3 43.8h-3.1c-.2 0-.4-.2-.4-.4s.2-.4.4-.4h3.1c.2 0 .4.2.4.4s-.1.4-.4.4zM77.3 6.1c-.2 0-.4-.2-.4-.4V3.2c0-.2.2-.4.4-.4s.4.2.4.4v2.4c.1.3-.1.5-.4.5z"/><path class="st25" d="M79.3 4.9H76c-.2 0-.4-.2-.4-.4 0-.3.2-.5.4-.5h3.3c.2 0 .4.2.4.4.1.3-.1.5-.4.5z"/><path class="st26" d="M104.2 4.5c-.2 0-.4-.2-.4-.4V.8c0-.2.2-.4.4-.4s.4.2.4.4V4c0 .3-.2.5-.4.5z"/><path class="st26" d="M106.6 2.8h-4.1c-.2 0-.4-.2-.4-.4s.2-.4.4-.4h4.1c.2 0 .4.2.4.4s-.2.4-.4.4z"/><path class="st27" d="M139.9 28.8c-.4 0-.7-.3-.7-.7v-7.5c0-.4.3-.7.7-.7.4 0 .7.3.7.7v7.5c-.1.4-.4.7-.7.7z"/><path class="st27" d="M143 25.1h-5.7c-.4 0-.7-.3-.7-.7 0-.4.3-.7.7-.7h5.7c.4 0 .7.3.7.7-.1.4-.4.7-.7.7z"/><path class="st28" d="M126.3 20.6c-.2 0-.4-.2-.4-.4v-3.3c0-.2.2-.4.4-.4s.4.2.4.4v3.3c0 .2-.2.4-.4.4z"/><path class="st28" d="M128.1 18.9h-3.7c-.2 0-.4-.2-.4-.4s.2-.4.4-.4h3.7c.2 0 .4.2.4.4s-.2.4-.4.4z"/><path class="st29" d="M123.7 38.5c-.2 0-.4-.2-.4-.4v-3.6c0-.2.2-.4.4-.4s.4.2.4.4v3.6c.1.2-.1.4-.4.4z"/><path class="st29" d="M125.6 36.7h-3.8c-.2 0-.4-.2-.4-.4s.2-.4.4-.4h3.8c.2 0 .4.2.4.4s-.2.4-.4.4zM135 49c-.2 0-.4-.2-.4-.4v-2.4c0-.2.2-.4.4-.4s.4.2.4.4v2.4c.1.2-.1.4-.4.4z"/><path class="st29" d="M136.7 47.8h-3.1c-.2 0-.4-.2-.4-.4s.2-.4.4-.4h3.1c.2 0 .4.2.4.4s-.2.4-.4.4z"/><path class="st30" d="M134.7 72.7c-.2 0-.4-.2-.4-.4V68c0-.2.2-.4.4-.4s.4.2.4.4v4.3c0 .2-.2.4-.4.4z"/><path class="st30" d="M136.4 70.1h-3.8c-.2 0-.4-.2-.4-.4s.2-.4.4-.4h3.8c.2 0 .4.2.4.4s-.2.4-.4.4z"/><path class="st31" d="M105.7 91.9c-.2 0-.4-.2-.4-.4v-2.7c0-.2.2-.4.4-.4s.4.2.4.4v2.7c.1.2-.1.4-.4.4z"/><path class="st31" d="M107.7 90.6h-3.9c-.2 0-.4-.2-.4-.4s.2-.4.4-.4h3.9c.2 0 .4.2.4.4s-.2.4-.4.4zM111.4 84.3c-.2 0-.4-.2-.4-.4v-2.3c0-.2.2-.4.4-.4s.4.2.4.4v2.3c0 .2-.2.4-.4.4z"/><path class="st31" d="M112.7 83.2H110c-.2 0-.4-.2-.4-.4s.2-.4.4-.4h2.7c.2 0 .4.2.4.4.1.2-.1.4-.4.4zM81.2 99.4c-.2 0-.4-.2-.4-.4v-3.5c0-.2.2-.4.4-.4s.4.2.4.4V99c.1.2-.1.4-.4.4z"/><path class="st31" d="M82.8 97.7h-3.2c-.2 0-.4-.2-.4-.4s.2-.4.4-.4h3.2c.2 0 .4.2.4.4.1.2-.1.4-.4.4z"/><path class="st32" d="M50.1 123.9c-.2 0-.4-.2-.4-.4v-4.8c0-.2.2-.4.4-.4s.4.2.4.4v4.8c0 .2-.2.4-.4.4z"/><path class="st32" d="M52.8 121.3h-4.7c-.2 0-.4-.2-.4-.4s.2-.4.4-.4h4.7c.2 0 .4.2.4.4.1.2-.1.4-.4.4z"/><path class="st33" d="M35.5 122.9c-.2 0-.4-.2-.4-.4v-2.7c0-.2.2-.4.4-.4s.4.2.4.4v2.7c.1.2-.1.4-.4.4z"/><path class="st33" d="M37.3 121.6h-3.6c-.2 0-.4-.2-.4-.4s.2-.4.4-.4h3.6c.2 0 .4.2.4.4s-.2.4-.4.4z"/><path class="st34" d="M16.6 148.1c-.2 0-.4-.2-.4-.4v-3.1c0-.2.2-.4.4-.4s.4.2.4.4v3.1c0 .2-.2.4-.4.4z"/><path class="st34" d="M18.4 146.5h-3.6c-.2 0-.4-.2-.4-.4s.2-.4.4-.4h3.6c.2 0 .4.2.4.4.1.2-.1.4-.4.4zM15.2 136.9c-.2 0-.4-.2-.4-.4v-3.2c0-.2.2-.4.4-.4s.4.2.4.4v3.2c0 .2-.2.4-.4.4z"/><path class="st34" d="M17.2 135.3h-4c-.2 0-.4-.2-.4-.4s.2-.4.4-.4h4c.2 0 .4.2.4.4s-.2.4-.4.4zM13.7 168.8c-.2 0-.4-.2-.4-.4v-3.9c0-.2.2-.4.4-.4s.4.2.4.4v3.9c.1.2-.1.4-.4.4z"/><path class="st34" d="M15.5 166.8H12c-.2 0-.4-.2-.4-.4s.2-.4.4-.4h3.5c.2 0 .4.2.4.4.1.2-.1.4-.4.4zM2.9 160.2c-.4 0-.7-.3-.7-.7v-6.2c0-.4.3-.7.7-.7s.7.3.7.7v6.2c-.1.4-.4.7-.7.7z"/><path class="st34" d="M5.8 157.1H.7c-.4 0-.7-.3-.7-.7 0-.4.3-.7.7-.7h5.2c.4 0 .7.3.7.7-.1.4-.4.7-.8.7zM31.4 193.5c-.2 0-.4-.2-.4-.4v-4c0-.2.2-.4.4-.4s.4.2.4.4v4c.1.2-.1.4-.4.4z"/><path class="st34" d="M33.9 191.5h-5.2c-.2 0-.4-.2-.4-.4s.2-.4.4-.4h5.2c.2 0 .4.2.4.4s-.2.4-.4.4z"/><path d="M133.6 227.9c1.5 0 1.1-2.8 3.7-12 .1-.3.2-.7.4-1h-4.2c-1.8 8.6-1.4 13 .1 13z" style="opacity:.8;fill:#d57cf5"/><path class="st36" d="M140 203.9c.4-.5.2-1.4-.5-2.6-.7 1-1.3 1.9-1.8 2.8 1.2.3 2 .2 2.3-.2zM135.6 208.2c-1 2.4-1.6 4.5-2 6.2 0 .1-.1.3-.1.4h4.2c.9-2.2 2-4.3 3.2-6.1-1.5.3-3.3.1-5.3-.5zM179.5 170.8c-19.2 9.6-30.4 18.7-37 26.6 1.5 2.4 2.3 4.6 2.4 6.5 8.3-8.4 21.6-14.1 39.6-22.8.9-.4 1.8-.9 2.7-1.3v-13.1c-2.3 1.3-4.9 2.7-7.7 4.1z"/><path d="M139.5 201.3c.7 1.2.9 2.1.5 2.6s-1.2.5-2.3.2c-.9 1.5-1.5 2.8-2.1 4.1 2 .6 3.8.7 5.3.5 1.2-1.7 2.5-3.4 4-4.9-.1-1.9-.9-4.1-2.4-6.5-1.1 1.4-2.1 2.7-3 4z" style="fill:#ff4ec8"/><path d="M192.7 176.2c0 1-.1 1.9-.3 2.8-.9 3.8-3.6 6.9-7.1 8.4-1.4.6-3 .9-4.6.9h-.7c-1.8-.1-3.6-.6-5.1-1.4-1.2-.6-2.2-1.4-3.1-2.4-2-2.2-3.2-5-3.2-8.2v-.9c.1-1.8.6-3.4 1.5-4.9 1.3-2.4 3.5-4.4 6.1-5.4 1.4-.6 2.9-.9 4.5-.9.6 0 1.2.1 1.8.1 1.4.2 2.8.7 4 1.4 1.1.6 2.1 1.4 3 2.4 1.3 1.5 2.3 3.2 2.8 5.2.3.9.4 1.9.4 2.9z" style="fill:#8180e5"/><path class="st39" d="M176.2 165c-.1 1.2-3.4 4.8-6.1 5.4 1.3-2.4 3.5-4.4 6.1-5.4zM186.5 165.7c-2.8 7.5-9.1 10.3-11.6 12.8s-2.8 4-3.1 5.9c-2-2.2-3.2-5-3.2-8.2v-.9c4.1-.2 11.7-5.4 13.9-11 1.4.2 2.8.7 4 1.4zM192.3 173.3c-1.7 4.2-5.1 1.4-4.2-.4.9-1.7 1.4-2.4 1.4-4.8 1.3 1.4 2.3 3.2 2.8 5.2zM184.6 181c-3 3-4.3 4.7-4.6 7.3-1.8-.1-3.6-.6-5.1-1.4.4-4.8 5.5-8.4 7.6-9.6 2.2-1.3 5 .7 2.1 3.7zM192.4 179c-.9 3.8-3.6 6.9-7.1 8.4 1.1-4.3 5.7-8 7.1-8.4z"/><path class="st40" d="M157 197.8c-.2 0-.4-.2-.4-.4v-5.1c0-.2.2-.4.4-.4s.4.2.4.4v5.1c.1.2-.1.4-.4.4z"/><path class="st40" d="M159.2 194.9h-3.9c-.2 0-.4-.2-.4-.4s.2-.4.4-.4h3.9c.2 0 .4.2.4.4s-.2.4-.4.4zM162.5 182.1c-.2 0-.4-.2-.4-.4V179c0-.2.2-.4.4-.4s.4.2.4.4v2.6c.1.3-.1.5-.4.5z"/><path class="st40" d="M164.4 180.8H161c-.2 0-.4-.2-.4-.4s.2-.4.4-.4h3.4c.2 0 .4.2.4.4s-.1.4-.4.4z"/><path class="st41" d="M200.5 167c-.2 0-.4-.2-.4-.4v-3.3c0-.2.2-.4.4-.4s.4.2.4.4v3.3c0 .2-.2.4-.4.4z"/><path class="st41" d="M202.1 165.5h-3.3c-.2 0-.4-.2-.4-.4s.2-.4.4-.4h3.3c.2 0 .4.2.4.4s-.1.4-.4.4zM213.1 164.7c-.2 0-.4-.2-.4-.4v-4.2c0-.2.2-.4.4-.4s.4.2.4.4v4.2c0 .2-.2.4-.4.4z"/><path class="st41" d="M215.1 162.6h-4.4c-.2 0-.4-.2-.4-.4s.2-.4.4-.4h4.4c.2 0 .4.2.4.4s-.2.4-.4.4zM219.3 149.2c-.2 0-.4-.2-.4-.4V146c0-.2.2-.4.4-.4s.4.2.4.4v2.7c0 .3-.2.5-.4.5z"/><path class="st41" d="M220.7 147.8h-2.8c-.2 0-.4-.2-.4-.4s.2-.4.4-.4h2.8c.2 0 .4.2.4.4s-.2.4-.4.4z"/><path class="st42" d="M215.1 136.9c-.2 0-.4-.2-.4-.4v-2.4c0-.2.2-.4.4-.4s.4.2.4.4v2.4c0 .2-.2.4-.4.4z"/><path class="st42" d="M216.4 135.7h-2.9c-.2 0-.4-.2-.4-.4s.2-.4.4-.4h2.9c.2 0 .4.2.4.4s-.2.4-.4.4zM201.8 126.2c-.2 0-.4-.2-.4-.4v-3.9c0-.2.2-.4.4-.4s.4.2.4.4v3.9c.1.2-.1.4-.4.4z"/><path class="st42" d="M204.3 123.9h-4.4c-.2 0-.4-.2-.4-.4s.2-.4.4-.4h4.4c.2 0 .4.2.4.4s-.1.4-.4.4zM195 131.4c-.2 0-.4-.2-.4-.4v-4.4c0-.2.2-.4.4-.4s.4.2.4.4v4.4c0 .2-.2.4-.4.4z"/><path class="st42" d="M197.7 129.2H193c-.2 0-.4-.2-.4-.4s.2-.4.4-.4h4.7c.2 0 .4.2.4.4s-.1.4-.4.4z"/></svg>