<svg version="1.1" id="Layer_1" xmlns="http://www.w3.org/2000/svg" x="0" y="0" viewBox="0 0 230.8 245.3" style="enable-background:new 0 0 230.8 245.3" xml:space="preserve"><style>.st0{fill:#da8928}.st3{fill:#ffe673}.st4{fill:#fb865f}.st5{fill:#f4c339}</style><path class="st0" d="M29.7 99.1v120.8c0 7.8 10.4 7.9 10.4 0V98.2l-5.2-4.4-5.2 5.3z"/><path d="M26.6 71.6V97c0 4.8 5.2 4.3 9.1 4.3s7.7-.2 7.7-5.2V71.7c21.3 0 26.3-3.7 26.3-16.3V18.6c0-4.8-2.3-10.7-6.1-10.8s-1.7 6.3-1.7 10v37.7c0 3.6-2.9 6.5-6.5 6.5h-6.6V9.3c0-4.2-3.4-8.7-7.1-7.9-3.8.7-2 19.8-2 60.5h-9.2l-.9-50.1c-.1-5.2-2-12.1-4.5-11.7s-3.6 4.4-3.6 16.1V62H18c-5.8 0-8.1-.8-8.1-8.6V20.9C9.9 13 9 6 4 6.3s-4 11-4 16.4v32.8c.1 9.8 5.1 16.1 26.6 16.1z" style="fill:#e7d4cd"/><path d="M58.3 106.8v115.3c0 6.5 2.6 10 16.5 22l4.7-137.3H58.3z" style="fill:#f5c433"/><path class="st3" d="M72.9 113.8v122.8c0 8.8 2.5 8.8 8.5 8.8h139.2c7.4 0 7.9-2.2 7.9-11.2V107.6l-84.1-43.8-71.5 50z"/><path class="st4" d="M67.5 114.3c4.1 4.4 7 6.2 12.8 2.2 5.9-4 68.4-45.7 68.4-45.7l76 39.1c5.1 2.5 8.8-.6 3.8-6.2s-10.2-11.2-10.2-11.2c-4.1-4.6-7.6-5.9-11.7-7.9-4.1-2.1-59-29.6-59-29.6l-25.2 11.6-54.9 47.7z"/><path class="st3" d="M116.4 39.7c-29.8-21.4-64.1-2.8-55.2 39.6-29.4 42.1-26.6 47.3-21.7 49.5 4.9 2.2 17.2-2.4 72.8-42.6S172.7 40 167 33.4s-27.2-1.9-50.6 6.3z"/><path class="st4" d="M62.1 76c10.6-6.2 34.5-21.5 50.7-37.7 3.4-3.4 7.5-.7 4.5 3.2C104.6 56.2 71.8 76.6 64 80.9c-3.2 1.8-6.4-2.1-1.9-4.9z"/><path class="st5" d="M86.4 48c2.7 3.9 6.3 2.2 3.2-1.9-3.2-4.1-5.4-1.4-3.2 1.9zM88 42.3c4.8 3.4 6.3-1.2 2.3-3.3-4-2.2-6.3.5-2.3 3.3zM61.5 53.2c-6.8.1-5.7 5.8 0 3.8 5.7-1.9 3.4-3.8 0-3.8zM63.4 50.8c-6.8-2-2.3-6.3 1.7-3.8 3.9 2.4 3 5.1-1.7 3.8zM66.5 46.2c-4.6-3.5-.6-5.8 3.1-2.1s.8 5-3.1 2.1zM102.6 30.8c-2 5.7 2.1 5.6 3.1 1s-1.4-5.8-3.1-1zM107.5 32.6c-2 5 2.3 7 3.6 1.8s-1.9-6-3.6-1.8zM138.7 30.8c1.1 5.7 4.4 6.3 3.8 0s-4.4-3.4-3.8 0zM146 28.3c.1 6.2 4.7 5 3.9-.6-.8-5.7-4-4-3.9.6zM168.3 39.8c-5.7-.5-5.9 3.7-.8 4.2s5.4-3.8.8-4.2zM123.5 50.6c-5-.2-7.3 4.3 0 4.4 7.3 0 5.7-4.2 0-4.4zM126.9 58.2c-4.7-2.1-7 2.4-1.6 3.4s4.5-2.1 1.6-3.4zM140.6 64c-4.5-3.9-7.6-.5-2.8 3.3s7.3.6 2.8-3.3zM144 62.7c4.1 3.1 6.7 2.1 2.9-2.2s-6.5-.5-2.9 2.2zM150.7 59.1c6.9 2.6 7.3-1.7 2.2-3.4-5.1-1.6-5.3 2.2-2.2 3.4zM89.8 77.7c.5 6.6 4.7 6 3.9-.7-.9-6.8-4.3-3.9-3.9.7zM95.8 75.3c.2 6.2 4.2 5.3 3.9 0-.4-5.3-4.2-6.7-3.9 0zM110 86.8c3.2 4.7 8.1 2.2 4.5-2.2s-7.7-2.5-4.5 2.2zM117.5 81.4c4.1 5.4 7.2.9 3.5-2.8s-6.9-1.6-3.5 2.8zM61.5 106.8c.7 5.1 4.4 4.1 4-.9-.5-5 .8-7.7-1.2-7.7-2-.1-3.4 4.7-2.8 8.6zM66.7 102.2c-.2 5.3 4.9 6.2 4.1-.5-.7-6.7-3.8-8.5-4.1.5zM46.6 97c-4.5-.5-6.1 3.9-.5 4.2s6-3.5.5-4.2zM42.5 103.1c-6.7 0-5.1 3.9 0 3.7 5.1-.2 6.8-3.7 0-3.7zM47.5 126.7c.5 5 3.5 4.6 3 0s-3.2-2.6-3 0z"/><path class="st0" d="M107.7 162h22.4c0 7.8-2.5 15-11.2 15s-11.2-8.2-11.2-15z"/><circle class="st5" cx="105.6" cy="186.4" r="2.3"/><circle class="st5" cx="93.3" cy="188.1" r="2.3"/><circle class="st5" cx="99.1" cy="178.4" r="2.3"/><path class="st0" d="M195.4 162H173c0 7.8 2.5 15 11.2 15 8.7-.1 11.2-8.2 11.2-15z"/><circle class="st5" cx="197.4" cy="186.4" r="2.3"/><circle class="st5" cx="209.7" cy="188.1" r="2.3"/><circle class="st5" cx="203.9" cy="178.4" r="2.3"/><path class="st0" d="M140.6 176c2.9 3.7 2.1 4 19.6 4 4.3 0 4.3 4.8 0 4.8h-12.4c-4.3 0-8-1.6-10.7-6.2-1.8-3.3 1.7-5.3 3.5-2.6z"/></svg>