<svg version="1.1" id="Layer_1" xmlns="http://www.w3.org/2000/svg" x="0" y="0" viewBox="0 0 302.6 351.3" style="enable-background:new 0 0 302.6 351.3" xml:space="preserve"><style>.st3{fill:#b2daf8}.st4{fill:#5588cd}.st5{fill:#ffaa87}.st6{fill:#ffc283}.st7{fill:#ffa74d}.st8{fill:#b57233}.st10{fill:#f5f3f4}</style><path d="M99.6 240.9c-17.6 2-40.5-10.4-43.9-14.6C24.2 246.8-17.7 206 8 161c-7-24 2-39.7 14-47.5-.6-26 12.1-39.4 27.9-44.4C47.1 43.9 63 32.5 72.2 30 75.6-4.6 120.5-8.8 130 15.2c20.4 3.9 26.3 19 26.3 32.7C168 54 171 70.6 167.7 83.4c27.1 9.6 29.8 36.5 24 48.8 16 11.2 11.2 31.3 11.5 36.3l-35.5 53.4-22.6-20.3-13.6 35.5-31.9 3.8z" style="fill:#5b9655"/><path d="M89 207.7c-1.1 18.2-2.5 84.1-2.5 88.6s2 9.7 14.2 9.3 18.7-.3 18.4-13.1c-.3-12.7-4.1-97.7-4.7-102.4 5-6.1 8.1-8.9 8.1-8.9 13.4.6 22.3-4.5 29.1-7.8s7-6.1 0-5.9-17.6 3.4-18.7 3.4c19.6-21.2 35.2-36.9 36.3-40.2 1.1-3.4.6-8.4-7.2-1.4s-18.8 18.2-18.8 18.2c1.1-8.4 4.4-19 1.9-20.1-2.5-1.1-6.7 7-15.6 32.7-6.1 6.7-15 14.8-15 14.8V119c13.9-24.3 19.5-35.2 20.2-42.7.7-7.5-3.7-4.7-6.3 0-2.5 4.7-15.5 25.7-15.5 25.7-.4-29.1-1-36.6-4.6-39.7-3.6-3.1-5.9-.3-7.5 10.1S90.7 183.9 90.4 187.8c-3.6-4.7-16.8-25.1-16.8-25.1 2-40.8-8.1-44.4-8.1-12-3.6-4.7-14.3-20.1-14.3-20.1-4.3-6.4-10.9-3.1-6.7 4S89 207.7 89 207.7z" style="fill:#956042"/><path d="M298.7 201.6v107.9c0 6.7-2 9.1-5.7 13.6s-15.9 19.2-20.5 20.1l4-126.9 22.2-14.7z" style="fill:#8ec1e4"/><path class="st3" d="M114.5 213.8v120.4c0 10.9 4.5 9.9 7.7 9.9h143.3c14.4 0 10.9-7.2 10.9-18.6V216.3l-77-53.6-84.9 51.1z"/><path class="st4" d="m219.2 141.4-74.9 40.8c-6.9 3.7-8.8 5.9-12.8 10.1-4 4.3-17.1 18.1-17.1 18.1-3.5 4-1.1 7.2 5.1 3.7 6.1-3.5 78.9-42.1 78.9-42.1l73 53c5.9 4.5 7.2 2.4 11.2-1.9 4-4.3 18.9-21.6 18.9-21.6 3.2-4.3-.9-5.9-4.9-8-3.9-2.1-70-51.5-70-51.5-3.7-2.7-6-1.4-7.4-.6z"/><path class="st3" d="M243 176v-32.3c0-5.5 1.5-5.4 7.7-5.4h13.7c6.2 0 5.7 3 5.7 8.3V184c0 9.9-3.2 11-8.8 8-5.6-3-15-10.9-16.5-11.8-1.5-1.1-1.8-2.9-1.8-4.2z"/><path class="st4" d="M263.1 138.3c0-9.4 2.6-23.5 13.7-22.7 1 7.7 13.1 3.3 7.1-5.9-5.1-7-20.9-2.4-25.2 7.2-1.2-29.4-14.3-35.2-24.5-33.2-10.2 2.1-9.3 12.6-6.1 14.6 3.2 2.1 7.6-.1 9.9-2.2 2.3-2.1 6.8-1.2 8.4 3.4 1.6 4.6 4.3 12.1 4.3 38.7h12.4z"/><path class="st4" d="M229.2 105.7c-7.3 3.4-1 8.9 3.5 6 4.5-2.9 2.5-8.8-3.5-6zM255.8 87.9c3 5.8 9.2 2.4 5.7-3.3-3.4-5.7-8.3-1.7-5.7 3.3zM274.5 90.4c-6.8 6.3.5 10.6 5.4 4.9 4.9-5.8-.1-9.8-5.4-4.9z"/><circle class="st4" cx="167.7" cy="231.7" r="5.4"/><circle class="st4" cx="216.8" cy="231.7" r="5.4"/><circle class="st5" cx="149.9" cy="243.4" r="11.5"/><circle class="st5" cx="235.9" cy="243.4" r="11.5"/><path class="st4" d="M193.7 240.9c3.6 0 7-2.4 9-5.5 2-3.2-1.6-5-3.1-2.7s-2.5 4.4-5.9 4.4c-3.3 0-4.4-2.1-5.9-4.4s-5.1-.5-3.1 2.7 5.4 5.5 9 5.5z"/><path class="st6" d="M141.2 301c9.3-10.4 17.7-12 15.2-.8 8.3-7.7 14.3-8.3 16.3-6.4 2 1.9-1.5 8.6-8.3 11.7 10.2 9.4 2.1 18-8.6 4.8l-3.4-.6.3 2.4c.9 10.6-6.4 9.4-12.8-2.1l1.3-9z"/><path class="st7" d="M138.5 303.2c-2 2.1-1.3 4.3-.1 5.5 3.5 3.4 14 8.2 20.8-2.3 1.3-2.1.9-4.2-1.4-5.4-6.3-3.1-12-4.8-19.3 2.2z"/><circle class="st8" cx="143.2" cy="305.1" r="1.9"/><path class="st6" d="M200.7 319.3c5.1-11.1 16.1-10.5 12.3-2.3 1.2 2.5 2.7.7 2.7.7 4.6-7.8 12.2-5.7 13.9-8.7 1.4-3.1 4.3-2.9 4.2 1.9-.1 4.8-6 11.3-7 11.7 2.1 1.5 3.6 2.9 5.4 2.9 1.8 0 1.9 2.1-1.9 4.8-3.9 2.7-12.1 3.7-16.4-.8-4.3-2.2-3.3 1.3-3.3 1.3 2.7 6.9-6.7 6.7-11.6-3.6l1.7-7.9z"/><path class="st7" d="M198.4 321.2c-1.9 2-1.1 4.6.6 6.1 6.8 5.5 14.3 5.6 20.4-3 2.2-3-.2-5.3-2-6-7.1-2.4-12.1-3.3-19 2.9z"/><path class="st6" d="M275.7 273c-3.2.3-3.8.7-8.7 3.7 3.6-8.1-6.6-11.4-16.1 2.1l1.9 9.5c8.4 10.6 16.2 7.6 13-.3 0 0-1.8-2.5 1.9-1.4 3.4 2.1 6.3 2.9 8.8 2.9v-16.7c-.3.1-.6.2-.8.2z"/><path d="M285.6 281.2c-.7.4-2.2.5-3.3-1 11.4-14.9-.7-20.3-1.5-11.7-.3 2.7-1.7 3.9-4.4 4.3v16.7c7.1.2 10.6-5.9 10.7-7 .2-1.5-.8-1.7-1.5-1.3z" style="fill:#eeae76"/><circle class="st10" cx="238.9" cy="281.4" r="2.9"/><circle class="st10" cx="246.9" cy="263.2" r="2.5"/><circle class="st10" cx="191" cy="308.9" r="3.8"/><circle class="st10" cx="200.8" cy="288.1" r="2.4"/><circle class="st10" cx="187.6" cy="273.9" r="2.6"/><circle class="st10" cx="131.5" cy="293.1" r="3.1"/><circle class="st10" cx="138.9" cy="280" r="2.8"/><circle class="st10" cx="127.2" cy="261.2" r="2.2"/><circle class="st8" cx="203.2" cy="323.2" r="1.9"/><path class="st7" d="M249.4 280.1c-2.2 2.3-1.2 4.7 0 5.9 5.5 5.3 15.2 5.9 20.8-2.2 1.7-2.7.3-4.9-1.7-6.2-5.8-3.3-12.4-3.6-19.1 2.5z"/><circle class="st8" cx="254.2" cy="282.3" r="1.9"/><path d="M67.8 305.6c4.6-17.9 8.6-37.2.7-48.2-3.5-5.8-4.6-9.1-2.7-16.2 2-7.2 2.7-21.1-5.3-38.2-3.5-7.7-7.5-6.6-12.4.9s-19.7 23.7-9.1 65.3 11.3 44.5 11.5 48.9c-17-34.3-25.9-44.7-32.5-51.1s-7.1-2.4-7.1 3.5-.9 21.1 8 32.4c8.8 11.2 14.6 27.4 18.4 32.7s11.1 15.7 18.6 15.7 8.4-9.5 14.2-11.3c5.8-1.8 9.3-6 13.7-11.5 4.4-5.5 21.7-21 19.9-42-.4-6-2.2-10-1.8-13.3.4-3.3-3.3-5.3-5.1 1.3-1.8 6.5-9.8 19.1-14.6 21.7-4.9 2.7-12 6.7-14.4 9.4z" style="fill:#70b56b"/></svg>