<svg version="1.1" id="Layer_1" xmlns="http://www.w3.org/2000/svg" x="0" y="0" viewBox="0 0 227.1 218.5" style="enable-background:new 0 0 227.1 218.5" xml:space="preserve"><style>.st1{fill:#ffe1b1}.st2{fill:#ffac4f}.st3{fill:#ffc8ab}.st5{fill:#2b506f}.st8{fill:#f9ffff}.st9{fill:#69c8ff}.st10{fill:#ff8785}.st12{fill:#bf5b2d}</style><path d="M30.8 66v92.3c0 12.2-.6 14.7 6.1 20.9s19.7 20.4 25.6 21l-2-125L30.8 66z" style="fill:#f7ca95"/><path class="st1" d="M56.1 87.4v103.2c0 9.3 3.4 10.1 16.5 10.1h133.6c10.5 0 9.3-5.7 9.3-14.2V76.6L128.4 33 56.1 87.4z"/><path class="st2" d="M45.2 113.6V149c-18.1 13.3-32.7 3.5-25.3-7.7-25.3-6.7-20.5-21.8-11.5-24.4-22.9-21.5 4.8-36.2 36.8-3.3zM215.6 96.6c13.9-.6 15.2 14.9 3.7 22.2 11.9 6.4 7.8 18.6-3.7 22V96.6zM100.1 3.4 26.5 56.1c-5.6 4.2-4.2 9.2 0 13.2S49.3 92 49.3 92c3.6 4.2 9.2 3.6 15.8-1.8s65.2-50.3 65.2-50.3l83.6 41.3c6.8 3.4 12-3 5-9.6s-23.2-23.1-23.2-23.1L110.3 3.4c-3.7-1.8-5.3-3.5-10.2 0z"/><path class="st1" d="m60.5 65.6 36.7-27.2c1.6-1.2 2.2-3.5 1.3-5.3C84.2 2.9 54-.7 42 .1c-1.8.1-3.3 1.4-3.8 3.2-6.1 24.5 1 51.6 17.3 62.5 1.5 1 3.5.9 5-.2z"/><path class="st3" d="M65.7 61.8c-28-22-22.9-45.4-20.9-51.9.3-1.1 1.3-1.7 2.4-1.6 10.6.8 33.5 8.7 46.1 33.1L65.7 61.8z"/><path class="st1" d="M144.1 24.4c20-20.5 41.1-23.3 51.8-22.4 1 .1 1.8.8 2.1 1.7 6.7 23.5-.5 41.1-6.8 49.3-.8 1.1-2.4 1.4-3.6.7l-43-25c-1.4-.9-1.7-3-.5-4.3z"/><path class="st3" d="M149.8 31.6c14.1-15.6 30.7-20.4 39.7-21.3.9-.1 1.8.5 2 1.4 4 17.5-2 32.6-7.9 39.5l-33.8-19.6z"/><circle class="st3" cx="79.9" cy="149.6" r="11.6"/><circle class="st3" cx="199.2" cy="149.6" r="11.6"/><path d="M167.1 86.4c-1.8 0-3.5.2-5.2.5-2.9-9.8-12-16.9-22.7-16.9s-19.7 7.1-22.7 16.8c-1.6-.3-3.3-.4-5-.4-16.4 0-29.7 13.3-29.7 29.7s13.3 29.7 29.7 29.7h1.7c1.1 13.4 12.3 23.9 26 23.9s24.9-10.5 26-23.9c.6 0 1.3.1 1.9.1 16.4 0 29.7-13.3 29.7-29.7s-13.3-29.8-29.7-29.8z" style="fill:#ffcb90"/><path class="st5" d="M139.4 81.9c.8 0 5.5.5 5.5 6 7.3-2 9 5.7 5.5 8.7l-11 8.8-11-8.8c-3.5-2.9-1.8-10.7 5.5-8.7 0-5.5 4.6-6 5.5-6z"/><ellipse cx="139.4" cy="144.5" rx="11.6" ry="13.2" style="fill:#ffac4e"/><ellipse cx="139.4" cy="145.5" rx="8.6" ry="2.9" style="fill:#ffceb5"/><circle class="st8" cx="111.7" cy="117.4" r="20.5"/><circle class="st9" cx="111.7" cy="117.4" r="14.5"/><circle class="st5" cx="111.7" cy="116.1" r="8.1"/><circle class="st8" cx="117.7" cy="122.1" r="3.4"/><path class="st10" d="M131.9 114.3c-5.4-3.3-12.5-5.2-20.2-5.2-7.8 0-14.9 2-20.2 5.2 1.5-9.8 10-17.4 20.2-17.4 10.2.1 18.7 7.6 20.2 17.4z"/><circle class="st8" cx="166.8" cy="117.4" r="20.5"/><circle class="st9" cx="166.8" cy="117.4" r="14.5"/><circle class="st5" cx="166.8" cy="116.1" r="8.1"/><circle class="st8" cx="172.8" cy="122.1" r="3.4"/><path class="st10" d="M187 114.3c-5.4-3.3-12.5-5.2-20.2-5.2-7.8 0-14.9 2-20.2 5.2 1.5-9.8 10-17.4 20.2-17.4 10.3.1 18.8 7.6 20.2 17.4z"/><path d="M70.1 182c-30.2-10.8-36.8 32.4 13.2 36.5 37.1-32.9 5.7-62-13.2-36.5z" style="fill:#f5814d"/><path class="st12" d="M74.6 198.6c2.4 1.5 3.8.3 3.7-1.4-.1-1.7 2.6-2.4 2.5 0s-2.5 6.7-7.6 3.3c-1.9-1.2-.4-3 1.4-1.9z"/><circle class="st12" cx="84.9" cy="193.8" r="2.7"/><circle class="st12" cx="67.4" cy="199.6" r="2.7"/></svg>