<svg version="1.1" id="Layer_1" xmlns="http://www.w3.org/2000/svg" x="0" y="0" viewBox="0 0 174.4 202.3" style="enable-background:new 0 0 174.4 202.3" xml:space="preserve"><style>.st3{fill:#ffc1a8}.st4{fill:#c06238}</style><path d="M147.3 202.1c3.7 0 6.9-3.1 8.7-5.5l13.4-18c1.4-1.9 2.2-4.2 2.2-6.5V60.7l-18.7 24.4-5.6 117z" style="fill:#e17b56"/><path d="M4.2 92.8v99.1c0 11 2.4 10.4 9.2 10.4h130.3c11.6 0 9.2-5.3 9.2-13.6V85.2l-76-59.3L4.2 92.8z" style="fill:#f59272"/><path d="M94.5 2.4 26.1 60.7c-6 4.7-8 7-10.4 10.7S1.2 91 1.2 91c-3.3 5 .5 9.8 6.3 4.6 5.8-5.2 71.1-60.5 71.1-60.5L145 89.9c5.1 4.4 6.2 3.1 9.8-2.2 3.7-5.3 18-23.8 18-23.8 3.4-4.6 1.1-7.1-4.7-11.2-5.8-4.1-64.5-51-64.5-51-3.5-2.8-6.3-1.7-9.1.7z" style="fill:#e35e31"/><circle class="st3" cx="23.4" cy="153.4" r="16.1"/><circle class="st3" cx="131.2" cy="153.4" r="16.1"/><ellipse class="st4" cx="49.7" cy="134.8" rx="5" ry="6.2"/><ellipse class="st4" cx="105.9" cy="134.8" rx="5" ry="6.2"/><path d="M104.5 119c-4 0-10.6 1.4-14.3 3.2-2.7 1.3-3.8 3.3-4.2 5.9-6-3.4-15.5-2.2-18.8 0-.4-2.7-1.5-4.7-4.2-5.9-3.7-1.7-10.3-3.2-14.3-3.2-10.3 0-21.4 3.8-21.4 14.4 0 5.2 1.7 8 5.7 12.5s8.7 6.8 15.1 6.8 11.5-3.7 14.7-8.7c2.6-4.1 4-7.3 4.5-10.7h.1c5.8-5.7 15.3-3.9 18.6.7.5 3.1 1.9 6.1 4.3 9.9 3.2 5 8.2 8.7 14.7 8.7s11.1-2.3 15.1-6.8 5.7-7.3 5.7-12.5c.1-10.6-11-14.3-21.3-14.3zm-43.4 20c-3.6 7.6-9 9.7-12.6 9.7-3.7 0-7.3-.3-11.7-5.3s-5-7.2-5-11.2c0-1.6.2-9.6 17-9.6s15.9 8.8 12.3 16.4zm55.6 4.4c-4.4 5-8 5.3-11.7 5.3-3.7 0-9.1-2-12.6-9.7-3.6-7.6-4.5-16.4 12.3-16.4s17 8 17 9.6c0 4-.7 6.2-5 11.2z" style="fill:#9a451d"/><path class="st4" d="M65.1 150.9c10 6.2 11.9 6.7 22.1-.9 2.1-1.8.5-5.2-2.9-2.5-7.4 5.2-10.8 4.2-15.3 1.2-3.9-2.6-6.7.5-3.9 2.2zM38.4 113.2c6.5-8 8.3-7.2 20.6.5 3.2 2.1 7.8-.5 2.3-4.5-13.8-9-20.4-11.1-27.5-.1-2.4 4 1 8 4.6 4.1zM114.8 113.2c-6.5-8-8.3-7.2-20.6.5-3.2 2.1-7.8-.5-2.3-4.5 13.8-9 20.4-11.1 27.5-.1 2.5 4-1 8-4.6 4.1z"/></svg>