<svg version="1.1" id="Layer_1" xmlns="http://www.w3.org/2000/svg" xmlns:xlink="http://www.w3.org/1999/xlink" x="0" y="0" viewBox="0 0 274.1 228.5" style="enable-background:new 0 0 274.1 228.5" xml:space="preserve"><style>.st2{fill:#7f2d25}.st6{fill:#fff}</style><path d="M208.8 90.2v102.2c0 7.3-.8 9.1-3.5 12.8-2.7 3.6-9.9 13.7-13.8 14.6l3.2-128.1 7.7 4 6.4-5.5z" style="fill:#51536e"/><path d="M48 107.9v104.3c0 9.2 4.7 8.6 9.5 8.6h127.1c10.6 0 10.3-3.8 10.3-10V102.6L120 57.8l-72 50.1z" style="fill:#626781"/><path class="st2" d="M180.4 193.9c-8.1 0-14.6-6.6-14.6-14.6s6.6-14.6 14.6-14.6 14.6 6.6 14.6 14.6-6.6 14.6-14.6 14.6zm0-27.2c-7 0-12.6 5.7-12.6 12.6 0 7 5.7 12.6 12.6 12.6 7 0 12.6-5.7 12.6-12.6 0-7-5.7-12.6-12.6-12.6z"/><path d="M200.2 190.8v-4.6c0-.7-.5-1.2-1.2-1.2h-8.7c-2.2-3.1-5.8-5.1-9.9-5.1s-7.7 2-9.9 5.1h-8.1c-.7 0-1.2.5-1.2 1.2v4.6c0 .7.5 1.2 1.2 1.2h2.5c-2.7 3.4-4.3 7.6-4.3 12.3 0 6.8 3.4 12.7 8.6 16.3h-6.8c-.7 0-1.2.5-1.2 1.2v4.6c0 .7.5 1.2 1.2 1.2H199c.7 0 1.2-.5 1.2-1.2v-4.6c0-.7-.5-1.2-1.2-1.2h-7.4c5.2-3.6 8.6-9.5 8.6-16.3 0-4.6-1.6-8.9-4.3-12.3h3.1c.7 0 1.2-.5 1.2-1.2z" style="fill:#914a37"/><path d="M258.9 29.2c.8-.3 8.1-4.5 13.1-10.3s-.2-9-4.8-5.5c-17.8 14.4-27.5 15.1-43.1 14.9 1.7-1.2 9.1-10.2 12.4-15.5 3.3-5.3-3.5-7.5-6.1-3.6-11.9 16.4-20.2 21.1-23.7 21.4-3.5.3-12.1 4.6-23.7 14.3.8-2 2.5-7.8 2.7-12.9.2-5.1 8.5-20.7 11.1-26.4s-3.6-7.1-5.8-3.3c-1.8 3.2-4.8 7.6-8.3 15.6-.3-2.5-4.3-9.3-7.3-8.6-3 .7-2.5 4.6 1.5 13.4s1 14.4 0 19.4c-1 5-7.1 8.6-11.5 14.6l-25.8-16.2c-3.3-2-6-.6-8 .7l-37 23.5c-4.6-5.9-9.1-10.4-11-11.7-2-1.3-3.5-6.5-4.1-12.4-.7-6-3.5-23.2-11.4-35-2.7-3.6-6.5-1.8-4.5 3s5.8 15.8 6 17.6c-5-3.6-7.5-4.3-8.8-4.5-1.3-.2-4.6 1.5-1 5.3s7.5 4.6 9.6 6.3 3.6 3.8 3.5 10c-10.6-5.5-22.9-9.8-28.2-9.6-5.4.1-6.7-4.7-6.7-8.5S34.6 9.9 27.3 3.7c-4-3.4-9-1.2-5.6 3.1 3.3 4.3 8.1 11.8 8.3 22.9-10.3-3.4-16.9-10.8-20.7-14.8-3.8-4-8.3-2-5.8 3.8s7.6 9.1 7.6 9.1c-14 2.2-15.8 10 .5 8.2 4.3-.7 8.1-2 11.6.5s19.2 7 24.8 7.6c5.6.7 15 3.3 17.5 7.3-10.5-.3-19.9 3.2-26.2 4.3-6.3 1.2-18.1 2.1-21.7 2.1-3.6 0-3.8 5.9-.3 5.9 4.8 0 16.6-.5 20.7-1.2 4.1-.7 6.8-.5 6.8-.5-4 4.6-7.8 9.6-7.8 9.6-2.5 2.8-.5 6.3 4.6 2.5S54.5 63.5 56.9 59c14.6-.8 21.8 1.3 28.3 11.8l-18.7 12c-4.4 2.7-6.9 6-9.3 9.3-2.4 3.3-10.8 14.7-10.8 14.7-2.2 3.2 1.1 5 5.6 2s67.7-43.7 67.7-43.7l71.8 45.2c4.3 2.8 5.6 1.3 7.6-2.1 2-3.3 13.8-18.1 13.8-18.1 2.3-3.3-2.7-5.3-5.6-7.3l-30.3-19c2.7-3.1 9.9-10.8 17.9-15.9 6.2 0 16.8 6 19.7 10.9 2.8 5 6.5 12.8 10.9 11.8 4.5-1 .3-8-1.8-11.8 3.6 1.7 15.9 2.8 25.5 2.7 9.6-.2 6.5-5.8 2-6.3-2.5-.2-3.3-.3-17.3-1-13.9-.7-20.6-9.5-31.7-11.8 3-2 10.5-4.6 16-4.6s19.7-1.5 24.3-3c4.6-1.5 9.5-1.2 13.8 1 4.3 2.2 14.9 4.5 16.3 1.8 1.3-2.6-5.5-7.4-13.7-8.4z" style="fill:#3e4257"/><circle cx="180.4" cy="204.3" r="10.4" style="fill:#ffff4c"/><path class="st2" d="M175 186h-12.9v4.8H182c3.2 0 3.6 1.8 0 1.8h-19.9c-3.2 0-3-.8-3-4.8s1-3.8 3-3.8H175c2.5 0 2.9 2 0 2zM183.6 185.9h15.2v5.1h-8.4c-1.9 0-2 1.6-.1 1.6h8.6c2.1 0 2-1.2 2-4.3 0-3.1.2-4.3-2.1-4.3h-15.3c-2.2 0-2.1 1.9.1 1.9z"/><path class="st2" d="M168.4 219.2c-3.1-2.9-5-6.9-5.8-10.1-.7-3.1-2.4-1.4-1.6 2 .7 3.4 4 8 4.7 8.4h-3c-3 0-2.7 1-2.7 4.4 0 3.4-.4 4.6 3 4.6 3.5 0 1.6-2.3-1.2-2.3v-4.9h37v4.4h-9.1c-2.1 0-2.9 2.7.2 2.7h8.9c2 0 2.1-.7 2.1-4.6s.3-4.8-2.6-4.8h-2.6c6.1-7.2 8.2-17.5 2-26.5h-2c5.8 7.9 6 18.7-3.2 26.6h-24.1z"/><image style="overflow:visible;opacity:.75" width="291" height="291" xlink:href="B357D2D6B7FCBDC6.png" transform="matrix(.24 0 0 .24 53.17 114.61)"/><circle class="st6" cx="88.1" cy="149.5" r="19.8"/><image style="overflow:visible;opacity:.75" width="292" height="291" xlink:href="B357D2D6B7FCBDCA.png" transform="matrix(.24 0 0 .24 121.09 114.61)"/><circle class="st6" cx="156.1" cy="149.5" r="19.8"/></svg>