<svg version="1.1" id="Layer_1" xmlns="http://www.w3.org/2000/svg" x="0" y="0" viewBox="0 0 167.1 183.9" style="enable-background:new 0 0 167.1 183.9" xml:space="preserve"><style>.st3{fill:#50804a}.st4{fill:#f5c7b4}</style><path d="M161.2 164.4 148 179.7V52.3l7.5 5.9 7.3-6.8v108.7c0 1.6-.6 3.1-1.6 4.3z" style="fill:#77b97a"/><path d="M3.4 70.7v108.4c0 4.4 1.4 4.8 7.1 4.8H138c7.8 0 10-.2 10-7.9V62.8L75.7 18.1 3.4 70.7z" style="fill:#89cc89"/><path d="M87.3 1.9 20.3 48c-6 4.2-7 5.6-10 9.6S1.6 69.3 1.6 69.3c-3.9 5.7.1 7 3.7 4.5s70.4-49 70.4-49L144.2 70c5.6 3.8 7 1.7 9.1-.9 2.1-2.5 12.7-16.5 12.7-16.5 3.2-4.3-1.2-5.5-4.1-7.4C159 43.3 95.1 1.3 95.1 1.3c-3.1-2.1-4.9-1.4-7.8.6z" style="fill:#f28077"/><path class="st3" d="M32.9 93.8c3.8 6.8 16 8.9 21.9-2.1 1.9-4-2.9-6.4-5.3-2.5-4.7 9.4-10.1 5.4-12.8 1.7-2.7-4.2-6.6-2.3-3.8 2.9zM113.4 93.8c-3.8 6.8-16 8.9-21.9-2.1-1.9-4 2.9-6.4 5.3-2.5 4.7 9.4 10.1 5.4 12.8 1.7 2.7-4.2 6.7-2.3 3.8 2.9zM62 102.4c7.1 7.6 16.9 5.1 20.7 0s-1.9-6.4-4.8-2.4c-3 3.4-8 3.3-11.3 0-2.9-4.2-7.5-.6-4.6 2.4z"/><path class="st4" d="M11.3 100.1c-.6 2.4 2.4 3.9 3.5 0l1-3.9c.7-2.4-2.8-3.9-3.6 0l-.9 3.9zM17.1 100.1c-.6 2.4 2.4 3.9 3.5 0l1-3.9c.7-2.4-2.8-3.9-3.6 0l-.9 3.9zM23 100.1c-.6 2.4 2.4 3.9 3.5 0l1-3.9c.7-2.4-2.8-3.9-3.6 0l-.9 3.9zM116.7 100.1c-.6 2.4 2.4 3.9 3.5 0l1-3.9c.7-2.4-2.8-3.9-3.6 0l-.9 3.9zM122.5 100.1c-.6 2.4 2.4 3.9 3.5 0l1-3.9c.7-2.4-2.8-3.9-3.6 0l-.9 3.9zM128.4 100.1c-.6 2.4 2.4 3.9 3.5 0l1-3.9c.7-2.4-2.8-3.9-3.6 0l-.9 3.9z"/></svg>