<svg version="1.1" id="Layer_1" xmlns="http://www.w3.org/2000/svg" x="0" y="0" viewBox="0 0 184.5 186.8" style="enable-background:new 0 0 184.5 186.8" xml:space="preserve"><style>.st0{fill:#ffded7}.st3{fill:#3f4158}.st6{fill:#ffa6c9}.st8{fill:#ffd5e9}</style><path class="st0" d="M130.4 22.3 153.5 6c8-5.8 17.3-7.3 16.1 9.7s-2 33.3-2 33.3l-37.2-26.7z"/><path d="M41.4 73.9 26.2 56.2v103.1c0 6.7.9 9.5 17.3 25.9L41.4 73.9z" style="fill:#51536e"/><path d="M41.4 73.9v100.2c0 13.2 1.1 11.8 10.7 11.8h117.6c11.9 0 11.9-1.8 11.9-13.6V71.4l-65.9-47.8-74.3 50.3z" style="fill:#606481"/><path class="st3" d="M98.5 0 26.2 50.4c-4.3 3.1-2.5 6.4 1.3 11.7s10.2 13.3 10.2 13.3c2.4 3.1 3.8 4.4 9.1 1.1S115 29.4 115 29.4l61.7 43.4c4.9 3.5 10.6.7 6.2-4.9-4.4-5.5-12.2-15.7-12.2-15.7-2.5-3.1-8.2-7.3-13.1-10.8C152.9 37.8 98.5 0 98.5 0z"/><path class="st0" d="M85 32.7 66.5 45.1l-6.9 4.6c-2.4 1.6-5.6 3-7.3-.8-1.7-3.8-5.8-12.8-6-15.2-9.5 5.8-12.5 2.7-11.5-3.3 2.5-14.7 7.4-15.7 10-18 2.6-2.2 8.6-7.7 15.6-4.8 7 2.9 20.2 12.6 22.5 14.6 2.3 2.1 7.7 6.6 2.1 10.5z"/><path d="m66.5 45.1-6.9 4.6c-2.4 1.6-5.6 3-7.3-.8-1.7-3.8-5.8-12.8-6-15.2l10.3-4.6c4.3-1.6 4.7-.2.8 1.6-1.5 2 1 4.3 9.1 14.4z" style="fill:#caaec8"/><path d="M17.2 157.2c-.4 3.7.6 9.5.8 10.5-15.6-13.6-31.4 9.3.6 17.1 6.2 2 9.6 3.9 16.2-.9 21.3-17.6 3.3-30.1-8.2-17.2-1.3-3.1-1.5-8.1-1.2-10.6l-8.2 1.1z" style="fill:#6cdb95"/><path class="st6" d="M18.7 127.2c-18-19.6-26.3 12.7-3 31.5 4.5 3.9 9.2 2.5 11.4-.8 26.3-37.2 2.5-51-8.4-30.7zM105.3 126c.2 9.2.2 18.1 0 22.8-.2 4.7 2.8 12.4 12 12.4s13.7-12.4 14-17c.3-4.6-.4-17.1-.6-18.1l-6.6-1.1-5.3-4.9-6 5.3-7.5.6z"/><path d="M117 124.3c.6 7.5.6 18.2 0 22.2s2.2 4 3.4 0c1.2-4 1.1-20.7 1.1-22.8l-2.8-3.7-1.7 4.3z" style="fill:#fb8bb3"/><path class="st3" d="M118.7 122.6c6.1 7.5 18.3 4.7 21.5.5 1.7-2.4-1.1-4.2-3.1-1.8-2 2.4-10.8 4.9-15.9-.8v-2.8c1.6 0 4-1.4 6.1-5.3s.8-6.6-8.6-6.6-10.7 2.8-8.6 6.6c2.1 3.9 4.5 5.3 6.1 5.3v2.8c-5.1 5.8-13.8 3.2-15.9.8-2-2.4-4.8-.6-3.1 1.8 3.2 4.2 15.4 7 21.5-.5z"/><ellipse class="st3" cx="85.3" cy="103.7" rx="6" ry="8"/><ellipse class="st3" cx="152.1" cy="103.7" rx="6" ry="8"/><path class="st8" d="M72.4 114.8c-4.9-7.6-9.7-3.6-7.4 3-8.6 4.9-3.9 8.1.4 7.3.8 10.9 6.8 6 7 .8 9.2 4.7 9.4-1.7 5.3-5.3 5.7-4.2.7-7.1-5.3-5.8zM162.4 114.8c4.9-7.6 9.7-3.6 7.4 3 8.6 4.9 3.9 8.1-.4 7.3-.8 10.9-6.8 6-7 .8-9.2 4.7-9.4-1.7-5.3-5.3-5.8-4.2-.7-7.1 5.3-5.8z"/></svg>