<svg version="1.1" id="Layer_1" xmlns="http://www.w3.org/2000/svg" x="0" y="0" viewBox="0 0 197.2 237.5" style="enable-background:new 0 0 197.2 237.5" xml:space="preserve"><style>.st6{fill:#ae7e58}.st7{fill:#4a8678}</style><path d="M23.5 217.5 7.4 201.7c-1.3-1.6-2-3.3-2-8.5V75.6L21.7 96l1.8 121.5z" style="fill:#6fdcba"/><path d="M21.7 96v113.5c0 11.5 5.4 10.1 12.3 10.1h129.8c10.5 0 9-4.7 9-13V93.8L94.5 45.5 21.7 96z" style="fill:#8ceacd"/><path d="M72.9 25.4 3.4 72.9c-4.5 3.3-4.2 4.9-1.1 7.8 3.1 2.9 18 19.8 18 19.8 3.8 4.4 5.8 1.6 10.5-1.5s66.4-45.9 66.4-45.9l70.2 41.7c4.5 3.3 9.8-1.5 4.2-7.3-5.6-5.8-12.7-14-12.7-14-4-4.2-5.4-4.7-13.2-8.9S81.2 25.4 81.2 25.4c-4-2.9-6.1-1.5-8.3 0z" style="fill:#956042"/><path d="M14.5 1.3c.9.5 4.9 3.4 9.1 6.9s40.2 32.3 40.2 32.3c4.4 3.3 4.6 7.3 4.2 11.1s-6.3 15.8-18.4 21.1c-12 5.3-22.2 0-22.2 0L12.2 5.6l2.3-4.3z" style="fill:#bf8772"/><path d="M60.9 52.8c-3.3-4.4-8.5-9.6-8.5-9.6 7.4-6.9 4-16.3-4.2-6.5l-4.9-5.8c5.3-5.3.4-9.6-3.5-4.9-3.8 4.7-8.3 6.5-8.3 6.5l-4.2-8.8c4.9-2.1 8.3-5.7 5.6-8.1s-5.8.7-8.7 2.5L15.4 1.8c-1.6-3-7.2-2.9-6 5.1 1.3 8 11.2 57.2 12.1 61.5.9 4.4 1.9 8.2 8.6 9.4 6.7 1.3 19.2-.4 24.7-6.2 3.3-3.4 1.1-4.7-2.2-2.3-3.3 2.3-15.1 3.8-19.8 2.7-2.2-.7-2.9-3.1-3.6-6.2-.7-3.1-2.9-11.1-2.9-11.1 4.1-.3 9.1-2 9.1-2 2.4 4.5 4.5 7.8 4.5 7.8 2.5 4 8.2 1.1 5.3-3.5-2.9-4.5-3.6-6.2-3.6-6.2 2-1.3 5.4-3.1 6.5-4 2.7 3.1 8.3 8.7 8.3 8.7 2.2 2.7 7.8 1.6 4.5-2.7zM19.6 25.4l6 8.5s-1.8 1.1-3.9 1.3l-2.1-9.8zm4.8 23.5-1.2-7.3c1 0 4.4-.4 6.1-1.1l3.2 7.2c-1.4.7-5.7 1.8-8.1 1.2zm13.9-4.1-4.1-7.3c1.1-.5 3.7-2.2 4.8-3.6l4.8 6.6c-.4 1.1-3 3.9-5.5 4.3z" style="fill:#b27d5f"/><path d="M189.4 220.5c6.7-19.9-7.2-29.6-20.7-31.4-13.5-1.8-31.8 5.6-30.5 28.1-14.8 6.2-1.6 17.3 5.4 11.8 3.7 6.9 12 4.5 14.1 2 2.9 5.1 10.1 4.6 12 1.3 3 8.6 17.7 5.7 15.2-2.4 13.6 6.9 17.2-10.2 4.5-9.4z" style="fill:#4dd3a7"/><path class="st6" d="M168.8 192.4c5.2 3.7 9.5-.7 5.5-4.3-4-3.7-10 1.1-5.5 4.3zM143.6 204.1c0 4.3 6.5 4.5 6.5 0s-6.5-4.4-6.5 0zM175.3 210c0 6.4 7.2 5.1 7.2 0-.1-5.1-7.2-4.7-7.2 0zM154.3 219.6c0 4.9 7.1 4.9 7.1 0s-7.1-4.2-7.1 0z"/><path class="st7" d="m61.9 133.3 14.2 6c4.1 1.7 5.6 3.8 0 8-5.6 4.1-12.6 9-12.6 9-4 3.3-8.3-1.3-3.8-4.5s11.4-8.1 11.4-8.1l-13.4-5.3c-3.2-1.6-1.3-7.4 4.2-5.1z"/><path class="st6" d="M42.7 155c-3.2 3.6-2 7.4 3.9 8.1s6.3-4.1 4.1-6.7c-.6-.7-1.4-2.1-1.8-3.4-.5-1.6-3.2-2.2-4.5-.2-.6 1-1 1.4-1.7 2.2z"/><path class="st7" d="m141.1 132.3-14.2 6c-4.1 1.7-5.6 3.8 0 8s12.6 9 12.6 9c4 3.3 8.3-1.3 3.8-4.5-4.5-3.2-11.4-8.1-11.4-8.1l13.4-5.3c3.2-1.6 1.3-7.4-4.2-5.1z"/><path class="st6" d="M160.3 157c3.2 3.6 2 7.4-3.9 8.1s-6.3-4.1-4.1-6.7c.6-.7 1.4-2.1 1.8-3.4.5-1.6 3.2-2.2 4.5-.2.6 1 1 1.4 1.7 2.2z"/><path class="st7" d="M107.4 148.7c-4.3 2.9-7.3 2.8-10.2 0-2.9-2.8-8.3.2-12.6 5.1-2.1 2.4.5 5.9 4 2.1s6.3-3.9 8.5-1.7c2.3 2.1 6.2 3 10.2-.6 4-3.5 7.4-.2 9.2 2.1s6.8.6 3.4-3-8.2-6.9-12.5-4z"/></svg>