<svg version="1.1" id="Layer_1" xmlns="http://www.w3.org/2000/svg" x="0" y="0" viewBox="0 0 169.7 164.6" style="enable-background:new 0 0 169.7 164.6" xml:space="preserve"><style>.st1{fill:#fcfcfc}.st5{fill:#515279}.st9{fill:#ece8ea}</style><path d="M162.6 54.8V135c0 6.4 1.2 8.4-2.3 14-3.5 5.5-9 14.5-12.2 14.5V54.8h14.5z" style="fill:#9fbedd"/><path class="st1" d="M17.8 69.3v87.2c0 7 4.7 7 10.5 7h116.6c7 0 7.6-2 7.6-9.3V65.5L82.1 18.2 17.8 69.3z"/><path d="m81.7 15.4-58 50.8c7.9-1 26.8 3 32.1 14.7 1.8 4.6 4.8 4.4 6.9 1.6 2-2.8 17.6-18 38.8-18s46.6 17 46.6 39c0 8.9-5.2 22-10.1 28.5-4.8 6.5 3.7 4.8 6.9 2.2 1.3-1.1 4.4-3.6 7.6-6.4v-78L81.7 15.4z" style="fill:#4c789b"/><path d="M152.4 49.8v78c4.6-4 9.4-8.3 10.2-9.5V54.8l-10.2-5z" style="fill:#3b5f82"/><path d="M95 1.4 36.3 42c-5.9 3.6-7.5 6.9-10.1 10.3-2.6 3.4-11.9 15.3-11.9 15.3-2.2 3.4.8 7.6 6.9 3S83 25.4 83 25.4l63.4 45c5 4 6.1 3.6 10.1-.8s12.3-15.7 12.3-15.7c2-3 1.2-5-4.6-8.7-5.9-3.6-62.4-43.8-62.4-43.8C99-.8 97.3-.1 95 1.4z" style="fill:#224a6a"/><path class="st5" d="M31.8 83.5c-1.8 0-3.4.9-4.3 2.3-1.5.8-4.9.2-4.9 2.2 0 1.9.9 2.8 2.9 3.3s3 2.3 4.3 2.3c.6.3 1.3.4 2 .4 2.9 0 5.3-2.4 5.3-5.3s-2.4-5.2-5.3-5.2z"/><path class="st1" d="M28.6 86.4c-1.4 2.2 1.7 2 2.4 2s2.3-.7 1.5-2.8-2.9-.3-3.9.8z"/><path class="st5" d="M102.7 84.8c-1.1-1.1-2.6-1.9-4.2-1.9-3.2 0-5.8 2.6-5.8 5.8s2.6 5.8 5.8 5.8c1.7 0 3.2-.7 4.2-1.9 1.3-1.1 4.6-3.4 4.6-4.6-.1-1.2-2.8-2.3-4.6-3.2z"/><path class="st1" d="M95.6 85.6c-3.2 3 .9 4.6 2.9 2.3 1.9-2.3-.7-4.3-2.9-2.3z"/><ellipse cx="120.2" cy="106.1" rx="11" ry="7.9" style="fill:#ffcad5"/><path d="M79.8 107.5c0-6.6-7.8-10.6-16-11.7-8.2-1.1-56.7-3.9-59.2-3.5-2-.1-3.8.7-4.4 1.8l79.6 13.4z" style="fill:#98a9bf"/><path d="M.2 94c-.8 1.3.2 3.1 4.4 4.4 7.6 2.4 58.7 18.1 63.2 18.1s12-2.4 12-9L.2 94z" style="fill:#7d96ae"/><path class="st9" d="M26.4 150.9c-.4 0-.9-.3-1-.7l-2.7-6.4c-.2-.6 0-1.2.6-1.5.6-.2 1.2 0 1.5.6l2.7 6.4c.2.6 0 1.2-.6 1.5-.2.1-.4.1-.5.1zM22.6 128.6c-.5 0-1-.4-1.1-.9l-1.3-5.7c-.1-.6.2-1.2.8-1.3.6-.1 1.2.2 1.3.8l1.3 5.7c.1.6-.2 1.2-.8 1.3 0 .1-.1.1-.2.1zM33.9 145.8c-.4 0-.8-.2-1-.7l-2.7-5.9c-.3-.6 0-1.2.6-1.5.6-.3 1.2 0 1.5.6l2.7 5.9c.3.6 0 1.2-.6 1.5-.2.1-.3.1-.5.1zM32.6 155.9c-.4 0-.8-.2-1-.7l-2.7-5.9c-.3-.6 0-1.2.6-1.5.6-.3 1.2 0 1.5.6l2.7 5.9c.3.6 0 1.2-.6 1.5-.2 0-.4.1-.5.1zM43.8 158.5c-.4 0-.8-.2-1-.6l-3-5.7c-.3-.6-.1-1.2.5-1.5.5-.3 1.2-.1 1.5.5l3 5.7c.3.6.1 1.2-.5 1.5-.2.1-.3.1-.5.1zM45.3 148.5c-.4 0-.8-.2-1-.6l-1.6-2.7c-.3-.5-.1-1.2.4-1.5.5-.3 1.2-.1 1.5.4l1.6 2.7c.3.5.1 1.2-.4 1.5-.1.2-.3.2-.5.2zM56.4 136.8c-.5 0-.9-.3-1.1-.7l-2.3-5.9c-.2-.6.1-1.2.7-1.5.6-.2 1.2.1 1.5.7l2.3 5.9c.2.6-.1 1.2-.7 1.5-.2-.1-.3 0-.4 0zM67 164.6c-.4 0-.8-.2-1-.6l-2.4-4.5c-.3-.5-.1-1.2.5-1.5.6-.3 1.2-.1 1.5.5L68 163c.3.5.1 1.2-.5 1.5-.2.1-.3.1-.5.1zM82 142.8c-.4 0-.9-.3-1-.7l-2.1-5.2c-.2-.6 0-1.2.6-1.5.6-.2 1.2 0 1.5.6l2.1 5.2c.2.6 0 1.2-.6 1.5-.2.1-.4.1-.5.1zM82 149.9c-.4 0-.8-.2-1-.7l-2.1-4.7c-.3-.6 0-1.2.6-1.5.6-.3 1.2 0 1.5.6l2.1 4.7c.3.6 0 1.2-.6 1.5-.2.1-.4.1-.5.1zM88.1 145.8c-.4 0-.8-.2-1-.6l-2.3-4.1c-.3-.5-.1-1.2.4-1.5.5-.3 1.2-.1 1.5.4l2.3 4.1c.3.5.1 1.2-.4 1.5-.1.2-.3.2-.5.2zM103.5 125c-.5 0-.9-.3-1.1-.8l-1.1-4.1c-.2-.6.2-1.2.8-1.4.6-.2 1.2.2 1.4.8l1.1 4.1c.2.6-.2 1.2-.8 1.4h-.3zM125.1 152.9c-.4 0-.8-.2-1-.6l-3-5.7c-.3-.6-.1-1.2.5-1.5.6-.3 1.2-.1 1.5.5l3 5.7c.3.6.1 1.2-.5 1.5-.2 0-.3.1-.5.1zM131.9 157.8c-.4 0-.8-.2-1-.5l-2.5-4.2c-.3-.5-.1-1.2.4-1.5.5-.3 1.2-.1 1.5.4l2.5 4.2c.3.5.1 1.2-.4 1.5-.1.1-.3.1-.5.1z"/></svg>