<svg version="1.1" id="Layer_1" xmlns="http://www.w3.org/2000/svg" xmlns:xlink="http://www.w3.org/1999/xlink" x="0" y="0" viewBox="0 0 220.1 187.4" style="enable-background:new 0 0 220.1 187.4" xml:space="preserve"><style>.st7{fill:#fff}.st8{fill:#607fca}.st12{fill:#d3dce5}</style><path style="fill:#82a0e8" d="M40.1 158.1v17.6h135.4v-58.3H40.1z"/><path style="fill:#606484" d="M109 18.3 40.1 63.4v54h135.4V64.7z"/><path style="fill:#51536e" d="M40.1 63.4V53l-13.6-5.5v62.2l13.6 7.7z"/><path style="fill:#708dda" d="M26.5 109.7v39.4l13.6 9v-40.7z"/><path d="M89.7 1.7 24.4 41.8c-4.3 2.6-4 5.2-1.7 8.2 2.3 2.9 14 16 14 16 2.2 2.6 4.2 3.5 8.9.8s66.2-39.6 66.2-39.6l61.1 41.3c5.9 3.4 11.1-1.2 6.3-6.2-4.8-4.9-10.3-10.9-10.3-10.9-1.7-2-5.7-6.6-10.6-10-4.9-3.4-58.1-39.6-58.1-39.6-3.4-2.7-7.4-2-10.5-.1z" style="fill:#404157"/><path d="M100.1 77.9c.6-6.9-5.7-6.6-10.4-6.6s-23.2-.5-30.6.7-5 9.7 1.5 9.7c0 14.6 3.4 21.7 16.7 21.7s16.3-6.9 17.4-13.6c1.1-6.8 12.2-6.6 14.9-6.6s10.3.8 11.4 6.5c1.1 5.7 4.6 13.7 18 13.7s16.5-7.5 16.5-21.4c7.2-.1 7.7-9.7-1.9-9.8-12.2-.2-37.7-3.8-37.7 5-3.1-1.3-10.2-1.4-15.8.7z" style="fill:#e7ebfb"/><path class="st7" d="M66.5 87.3c-2.3 3.7-.9 5.2.7 7.5 1.7 2.3 4 2.4 6.8-1.7 2.7-4 7.2-9.7 9.4-12.4 2.1-2.7-.8-4.4-3.8-4.4s-5.5-.7-8.2 3.2c-2.8 3.8-4.9 7.8-4.9 7.8zM125.4 89.3c-1.2 4.3 6.5 7.1 8.7 2 2.1-5.1 5-7.2 5.9-9.4.9-2.1.2-4.7-3.2-5.1-3.4-.4-5.3-.1-7.7 3.6s-3 6.7-3.7 8.9z"/><path class="st8" d="M175.5 136c-.8 0-1.5-.7-1.5-1.5v-7.1c0-.8.7-1.5 1.5-1.5s1.5.7 1.5 1.5v7.1c0 .8-.7 1.5-1.5 1.5zM175.5 145.6c-.8 0-1.5-.7-1.5-1.5v-3.5c0-.8.7-1.5 1.5-1.5s1.5.7 1.5 1.5v3.5c0 .8-.7 1.5-1.5 1.5zM104.2 177.2c-.8 0-1.5-.7-1.5-1.5V140l-8.6-5.9c-.4-.3-.6-.7-.6-1.2v-15.5c0-.8.7-1.5 1.5-1.5h39.5c.8 0 1.5.7 1.5 1.5s-.7 1.5-1.5 1.5h-38V132l8.6 5.9c.4.3.6.7.6 1.2v36.5c0 .9-.7 1.6-1.5 1.6z"/><path class="st8" d="M152.4 177.2h-86c-.8 0-1.5-.7-1.5-1.5s.7-1.5 1.5-1.5h86c.8 0 1.5.7 1.5 1.5s-.6 1.5-1.5 1.5z"/><defs><path id="SVGID_1_" d="M40.1 139.4C36.4 130 23 116.3 6.6 125.5c-8.1 4.5-12.9 25.6 10.6 45.4s45 21.1 53.1 7.1c5.7-11.2-3.2-19.9-9.6-22-6.4-2.1-16.6-6.2-20.6-16.6z"/></defs><clipPath id="SVGID_00000078749292488108488980000010188809625789815465_"><use xlink:href="#SVGID_1_" style="overflow:visible"/></clipPath><path style="clip-path:url(#SVGID_00000078749292488108488980000010188809625789815465_);fill:#fffff8" d="M40.1 139.4C36.4 130 23 116.3 6.6 125.5c-8.1 4.5-12.9 25.6 10.6 45.4s45 21.1 53.1 7.1c5.7-11.2-3.2-19.9-9.6-22-6.4-2.1-16.6-6.2-20.6-16.6z"/><circle style="clip-path:url(#SVGID_00000078749292488108488980000010188809625789815465_);fill:#d3dce5" cx="26.5" cy="137.1" r="2.1"/><circle style="clip-path:url(#SVGID_00000078749292488108488980000010188809625789815465_);fill:#d3dce5" cx="55.8" cy="173.1" r="3.1"/><path class="st12" d="M55.8 182.4c-5.1 0-9.3-4.2-9.3-9.3s4.2-9.3 9.3-9.3 9.3 4.2 9.3 9.3-4.2 9.3-9.3 9.3zm0-16c-3.7 0-6.8 3-6.8 6.8s3 6.8 6.8 6.8 6.8-3 6.8-6.8-3.1-6.8-6.8-6.8zM26.5 144c-3.8 0-6.9-3.1-6.9-6.9s3.1-6.9 6.9-6.9 6.9 3.1 6.9 6.9-3.1 6.9-6.9 6.9zm0-11.3c-2.4 0-4.4 2-4.4 4.4 0 2.4 2 4.4 4.4 4.4s4.4-2 4.4-4.4c0-2.4-2-4.4-4.4-4.4z" style="clip-path:url(#SVGID_00000078749292488108488980000010188809625789815465_)"/><path class="st12" d="M26.5 150.3c-7.3 0-13.2-5.9-13.2-13.2s5.9-13.2 13.2-13.2 13.2 5.9 13.2 13.2-5.9 13.2-13.2 13.2zm0-23.9c-5.9 0-10.7 4.8-10.7 10.7s4.8 10.7 10.7 10.7 10.7-4.8 10.7-10.7-4.8-10.7-10.7-10.7z" style="clip-path:url(#SVGID_00000078749292488108488980000010188809625789815465_)"/><path class="st12" d="M26.5 156c-10.4 0-18.9-8.5-18.9-18.9 0-10.4 8.5-18.9 18.9-18.9s18.9 8.5 18.9 18.9c0 10.4-8.5 18.9-18.9 18.9zm0-35.3c-9 0-16.4 7.4-16.4 16.4s7.4 16.4 16.4 16.4 16.4-7.4 16.4-16.4-7.3-16.4-16.4-16.4z" style="clip-path:url(#SVGID_00000078749292488108488980000010188809625789815465_)"/><path class="st12" d="M50 188.5c-.2 0-.3 0-.5-.1-4.1-1.7-7.6-6.7-8.7-12.1-1-5.3.4-10.4 4-14.5l-4.3-4.4c-4.1 2.9-9 4.4-14 4.4-13.6 0-24.6-11-24.6-24.6 0-7.1 3.1-13.9 8.5-18.6.5-.5 1.3-.4 1.8.1s.4 1.3-.1 1.8c-4.9 4.2-7.6 10.3-7.6 16.7 0 12.2 9.9 22.1 22.1 22.1 4.9 0 9.5-1.6 13.4-4.5.5-.4 1.2-.3 1.7.1l5.9 6c.5.5.5 1.3 0 1.8-4.7 4.7-4.8 9.7-4.2 13.2 1 5.2 4.4 9.1 7.2 10.3.6.3.9 1 .7 1.6-.3.4-.8.7-1.3.7z" style="clip-path:url(#SVGID_00000078749292488108488980000010188809625789815465_)"/><path class="st12" d="M39.3 185.8c-.4 0-.7-.1-1-.4-1-1.1-5.9-10.5-2.5-20.1-7.5 2.6-20.6 2.4-29.1-3.6-.6-.4-.7-1.2-.3-1.7.4-.6 1.2-.7 1.7-.3 8.9 6.3 24.1 5.6 29.5 2 .5-.3 1.1-.3 1.5.1.4.4.5 1 .2 1.5-5.3 9.2-.2 19.4.7 20.4.4.5.4 1.3-.1 1.8-.1.2-.3.3-.6.3z" style="clip-path:url(#SVGID_00000078749292488108488980000010188809625789815465_)"/><path class="st12" d="M31.6 182.2c-.6 0-1.1-.4-1.2-.9l-.1-.2c-.3-1.2-1.3-4.4-.5-8-3.6.4-10.1.4-13.1-1-.6-.3-.9-1-.6-1.7.3-.6 1-.9 1.7-.6 3.3 1.5 12.2.9 13.3.5.5-.2 1-.1 1.4.3.4.4.5.9.3 1.3-1.4 3.6-.4 7.3 0 8.5l.1.3c.2.7-.2 1.4-.9 1.5h-.4zM69.8 164.5c-.4 0-.8-.2-1-.5-3.3-4.5-8.4-6.1-15.2-4.7-.7.1-1.3-.3-1.5-1-.1-.7.3-1.3 1-1.5 7.8-1.6 13.9.3 17.8 5.6.4.6.3 1.3-.3 1.7-.2.4-.5.4-.8.4z" style="clip-path:url(#SVGID_00000078749292488108488980000010188809625789815465_)"/><defs><path id="SVGID_00000093171167508545638120000001969366306023560117_" d="M180.1 139.4c3.7-9.5 17.1-23.1 33.4-13.9 8.1 4.5 12.9 25.6-10.6 45.4s-45 21.1-53.1 7.1c-5.7-11.2 3.2-19.9 9.6-22 6.4-2.1 16.6-6.2 20.7-16.6z"/></defs><clipPath id="SVGID_00000144300367732995625140000004560768240051686580_"><use xlink:href="#SVGID_00000093171167508545638120000001969366306023560117_" style="overflow:visible"/></clipPath><path style="clip-path:url(#SVGID_00000144300367732995625140000004560768240051686580_);fill:#fffff8" d="M180.1 139.4c3.7-9.5 17.1-23.1 33.4-13.9 8.1 4.5 12.9 25.6-10.6 45.4s-45 21.1-53.1 7.1c-5.7-11.2 3.2-19.9 9.6-22 6.4-2.1 16.6-6.2 20.7-16.6z"/><circle style="clip-path:url(#SVGID_00000144300367732995625140000004560768240051686580_);fill:#d3dce5" cx="193.6" cy="137.1" r="2.1"/><circle style="clip-path:url(#SVGID_00000144300367732995625140000004560768240051686580_);fill:#d3dce5" cx="164.3" cy="173.1" r="3.1"/><circle style="clip-path:url(#SVGID_00000144300367732995625140000004560768240051686580_);fill:none;stroke:#d3dce5;stroke-width:2.5;stroke-linecap:round;stroke-linejoin:round;stroke-miterlimit:10" cx="164.3" cy="173.1" r="8"/><path class="st12" d="M193.6 144c-3.8 0-6.9-3.1-6.9-6.9s3.1-6.9 6.9-6.9 6.9 3.1 6.9 6.9-3.1 6.9-6.9 6.9zm0-11.3c-2.4 0-4.4 2-4.4 4.4 0 2.4 2 4.4 4.4 4.4 2.4 0 4.4-2 4.4-4.4 0-2.4-2-4.4-4.4-4.4z" style="clip-path:url(#SVGID_00000144300367732995625140000004560768240051686580_)"/><path class="st12" d="M193.6 150.3c-7.3 0-13.2-5.9-13.2-13.2s5.9-13.2 13.2-13.2 13.2 5.9 13.2 13.2-5.9 13.2-13.2 13.2zm0-23.9c-5.9 0-10.7 4.8-10.7 10.7s4.8 10.7 10.7 10.7 10.7-4.8 10.7-10.7-4.8-10.7-10.7-10.7z" style="clip-path:url(#SVGID_00000144300367732995625140000004560768240051686580_)"/><path class="st12" d="M193.6 156c-10.4 0-18.9-8.5-18.9-18.9 0-10.4 8.5-18.9 18.9-18.9 10.4 0 18.9 8.5 18.9 18.9 0 10.4-8.5 18.9-18.9 18.9zm0-35.3c-9 0-16.4 7.4-16.4 16.4s7.4 16.4 16.4 16.4 16.4-7.4 16.4-16.4-7.4-16.4-16.4-16.4z" style="clip-path:url(#SVGID_00000144300367732995625140000004560768240051686580_)"/><path class="st12" d="M170.1 188.5c-.5 0-.9-.3-1.2-.8-.3-.6 0-1.4.7-1.6 2.8-1.2 6.2-5.1 7.2-10.3.7-3.4.5-8.5-4.2-13.2-.5-.5-.5-1.3 0-1.8l5.9-6c.4-.5 1.2-.5 1.7-.1 3.9 3 8.5 4.5 13.4 4.5 12.2 0 22.1-9.9 22.1-22.1 0-6.4-2.8-12.5-7.6-16.7-.5-.5-.6-1.2-.1-1.8s1.2-.6 1.8-.1c5.4 4.7 8.5 11.5 8.5 18.6 0 13.6-11 24.6-24.6 24.6-5.1 0-9.9-1.5-14-4.4l-4.3 4.4c3.6 4.1 5 9.2 4 14.5-1.1 5.4-4.6 10.4-8.7 12.1-.3.1-.5.2-.6.2z" style="clip-path:url(#SVGID_00000144300367732995625140000004560768240051686580_)"/><path class="st12" d="M180.9 185.8c-.3 0-.6-.1-.8-.3-.5-.4-.6-1.2-.1-1.8.9-1 6-11.2.7-20.4-.3-.5-.2-1.1.2-1.5.4-.4 1.1-.5 1.5-.1 5.5 3.6 20.6 4.4 29.5-2 .6-.4 1.3-.3 1.7.3.4.6.3 1.3-.3 1.7-8.5 6-21.6 6.2-29.1 3.6 3.5 9.5-1.5 18.9-2.5 20.1-.1.2-.5.4-.8.4z" style="clip-path:url(#SVGID_00000144300367732995625140000004560768240051686580_)"/><path class="st12" d="M188.5 182.2h-.3c-.7-.2-1.1-.9-.9-1.5l.1-.3c.3-1.2 1.4-4.9 0-8.5-.2-.5-.1-1 .3-1.4.4-.4.9-.4 1.4-.2 1.1.5 10 1.1 13.3-.5.6-.3 1.4 0 1.7.6.3.6 0 1.4-.6 1.7-3 1.4-9.5 1.4-13.1 1 .8 3.6-.2 6.8-.5 8l-.1.2c-.2.5-.7.9-1.3.9zM150.3 164.5c-.3 0-.5-.1-.7-.2-.6-.4-.7-1.2-.3-1.7 3.9-5.3 10-7.3 17.8-5.6.7.1 1.1.8 1 1.5-.1.7-.8 1.1-1.5 1-6.8-1.4-11.9.1-15.2 4.7-.4.2-.7.3-1.1.3z" style="clip-path:url(#SVGID_00000144300367732995625140000004560768240051686580_)"/><path class="st8" d="M113.9 149.9c-.6 0-1-.4-1-1V144c0-.6.4-1 1-1s1 .4 1 1v4.9c0 .5-.4 1-1 1zM113.9 160.9c-.6 0-1-.4-1-1V155c0-.6.4-1 1-1s1 .4 1 1v4.9c0 .5-.4 1-1 1zM113.9 170.4c-.6 0-1-.4-1-1v-3.5c0-.6.4-1 1-1s1 .4 1 1v3.5c0 .5-.4 1-1 1z"/><circle class="st8" cx="104.7" cy="127.4" r="4"/></svg>