<svg version="1.1" id="Layer_1" xmlns="http://www.w3.org/2000/svg" x="0" y="0" viewBox="0 0 225.7 219.2" style="enable-background:new 0 0 225.7 219.2" xml:space="preserve"><style>.st2{fill:#404157}.st3{fill:#855cbe}.st4{fill:#fffff5}.st5{fill:#ffb9ba}</style><path d="M159.6 215.9s16.1-17.3 16.1-20.4c19.3-16.2 19.9-31.2 19.9-45.6 0-14.4-.3-34.3 10.4-34.3 7 0 8.3 6.1 7.7 9.5s.9 6.7 5.8 6.7c4.9 0 7-4.9 5.8-12.6-1.2-7.7-8.3-18.7-19.6-18.7s-23.9 15.3-24.2 37.1c-.3 21.7-2.8 33.1-6.4 35.8V93.8l-13.2 11-2.3 111.1z" style="fill:#52526c"/><path d="M161.9 104.8v100.8c0 12.3-4.6 13.6-13.6 13.6H36.5c-10.2 0-9.6-4.1-9.6-14.2V100.2l64.9-36.8 70.1 41.4z" style="fill:#5f6581"/><path class="st2" d="M179.6 93.8s-7.5 7.3-12.9 13.2c-5.5 5.9-7.2 7.9-14.2 2.6L92.2 69.3s-58.9 33.5-64.9 36.8c-6 3.3-9.1-1.8-6-5.3 0 0 9.2-10.1 11.8-12.7s5.7-6.4 10.5-8.1l1.4-.8c-14-24-4.7-57.5-1.9-65.4 1.3-3.7 2.5-6.6 3.6-8.3 1.3-1.9 2.5-2.4 4-.9 2.1 2.2 6.3 7.5 11.8 16.2 5.5 8.8 12.2 21.1 19.4 37.5L105.8 45c2.2-1.2 4.6-2.2 7.7 0 0 0 1.4.9 3.9 2.5 2.4 1.6 5.8 3.8 9.8 6.4 7.5-21 24-45.7 29.2-52.5 2.1-2.5 3.9-1.4 5.5 1.2.7 1 1.3 2.3 1.9 3.6 1.4 3 7.2 19 7.2 37.6 0 10.9-2 22.7-8.1 33.2 6.4 4.1 11.1 7 12 7.6 3.8 2 7.6 5.1 4.7 9.2z"/><path class="st3" d="M65 67.3c-6 7.5-20 12-20 12-14-24-4.7-57.5-1.9-65.4 1.3-3.7 2.5-6.6 3.6-8.3 19 32 24.3 54.1 18.3 61.7zM171.1 43.9c0 10.9-2 22.7-8.1 33.2 0 0-12.8-5.4-19.9-14.7-7.1-9.3 9.7-49.1 18.9-59.8.7 1 1.3 2.3 1.9 3.6 1.3 3.1 7.2 19.1 7.2 37.7z"/><ellipse transform="rotate(-81.309 63.183 141.763)" class="st4" cx="63.2" cy="141.8" rx="24" ry="19.2"/><ellipse class="st2" cx="71.1" cy="137" rx="6.1" ry="8.9"/><ellipse transform="rotate(-8.698 124.817 141.737)" class="st4" cx="124.9" cy="141.8" rx="19.2" ry="24"/><ellipse class="st2" cx="116.9" cy="137" rx="6.1" ry="8.9"/><ellipse transform="rotate(-4.795 94.298 153.555)" class="st5" cx="94.3" cy="153.6" rx="6.4" ry="4.1"/><path d="M117.8 178.3c0 2.5-1 5.1-2.9 7.4l-.1.1c-3.7 4.4-10.9 7.8-21.3 7.8-9.9 0-16.6-3.4-20.1-7.8l-.1-.1c-1.8-2.3-2.8-4.9-2.8-7.4 0-3.8 1.6-7.9 5-10.1 1.5-1 3.5-1.7 5.8-1.7 2.6 0 4.4.4 5.9 1 2.6 1 4 2.4 6.4 2.4 3.2 0 4.7-2.2 9.2-3 1.1-.2 2.3-.3 3.8-.3 3 0 5.3.9 7.1 2.4 2.7 2.2 4.1 5.9 4.1 9.3z" style="fill:#f5857c"/><path class="st4" d="M87.1 167.5c-4.1 8.4-6.8 9.9-11.6.7 1.5-1 3.5-1.7 5.8-1.7 2.5 0 4.3.4 5.8 1z"/><path class="st5" d="m114.8 185.7-.1.1c-3.7 4.4-10.9 7.8-21.3 7.8-9.9 0-16.6-3.4-20.1-7.8l-.1-.1c4.5-4.3 11.4-7.5 20.2-7.5 9.3 0 16.7 3.2 21.4 7.5z"/><path class="st4" d="M113.5 168.9c-5 7.9-9.1 6.1-10.9-2.1 1.1-.2 2.3-.3 3.8-.3 3 0 5.3.9 7.1 2.4z"/><path class="st2" d="M34 160.4c4 2.6 7-1.3 2.9-4S6 139.4 3.2 138.5s-4.9.5-1.1 3.3S34 160.4 34 160.4zM31.7 165.7c4.8 0 4.9 5.4 0 5.2-9-.4-26.9-2.5-27.3-5.2-.5-2.7 7.5-.7 27.3 0zM32 175.9c4.6-.8 6.1 3 1 4.8-5.2 1.8-24.6 6.5-27.2 6.9-5.8 1-7.8-2.4-1.5-4.3 6.4-2.1 26.5-7.2 27.7-7.4zM149.9 157.8c-4 2.4.4 5.3 3.9 3 3.4-2.3 23.9-13.6 30.1-17.3 6.2-3.6 4.6-7.9-4.1-3.1s-27.7 16.1-29.9 17.4zM155.7 165.7c-4.6.3-4.1 5.2 0 5.1 4.1-.1 20.7-1.8 25-3s3.8-4.7-1.2-4.4c-5.1.3-20.1 2.1-23.8 2.3zM155.4 175.7c-5.5-.4-5.6 2.9-1.1 4.4 4.5 1.5 25.4 7.5 29.4 7.8 4.5.9 6-2.3 1.2-4.2-5-2-25.2-7.8-29.5-8z"/></svg>