<svg version="1.1" id="Layer_1" xmlns="http://www.w3.org/2000/svg" x="0" y="0" viewBox="0 0 193.5 205.9" style="enable-background:new 0 0 193.5 205.9" xml:space="preserve"><style>.st4{fill:#608059}.st5{fill:#f6ada6}</style><path d="m31.7 199.8-23.6-26c-2.2-2.7-2.6-4.5-2.6-15.8V56.6l26.2-3.5-10.2 15.8 10.2 13.9v117z" style="fill:#88c485"/><path d="M31.7 82.8v113.6c0 9 2.1 9.5 8.2 9.5h139.7c7.7 0 9-1.6 9-11.9V77.3l-75.8-47-81.1 52.5z" style="fill:#a8e3a4"/><path d="m78.8 1.8-76 49.7c-4.3 2.7-2.6 4-1.2 5.7C3 58.8 29.3 87.7 29.3 87.7c3.7 4.3 6 2.9 10.9-.4S113 38.8 113 38.8l73.6 41.6c5.3 3 9.9-1.2 4.8-6.5-5.1-5.2-23.6-26.6-23.6-26.6-3.2-4.1-4-3.6-12.5-8.5S86.8 1.2 86.8 1.2c-3.4-2-5.2-1.3-8 .6z" style="fill:#a17051"/><path d="M122.9 99.7c-4.8-41.8-10.1-40.9-13.9-9.4-9.5-20.4-16.1-17.5-9.3 14.7-22.8-18.9-30.7-18.9-16.1 1.2-29.9-10.9-31.9-7 1.9 16.9-51.6 4.8-32.6 9.4-7.6 13.4-33.2 14.5-6.3 11.8 11.3 9.2-24.1 32-10.6 25.5 3.3 15.6-14.4 36.5-3.8 27.4 15.3-1.2 6.6 51.3 11.1 32.2 13.8 7.3 14.4 30.4 12.1 11.6 9.5-11.9 29.1 22.7 28.5 16.3 15.1-2.8 35.4 16.1 28.5 5.6 0-15.5 48.3-4.9 33.7-9 7.2-11.5 30.2-17.2 6.6-13.4-11.8-11.1 20.9-29 13.6-27.7-3.2-15.1 12.5-36.1 6.2-29.6-15.5.2z" style="fill:#e1f5df"/><path class="st4" d="M76.1 121.4c5.2 7.1 12.7 8.8 18.2 1.8 3.3-4.4 8.6-.7 5.3 3.9-7.6 10.3-20.9 9.3-27.9-1.3-3.5-5.2.6-9.5 4.4-4.4zM155.7 121.4c-5.2 7.1-12.7 8.8-18.2 1.8-3.3-4.4-8.6-.7-5.3 3.9 7.6 10.3 20.9 9.3 27.9-1.3 3.5-5.2-.6-9.5-4.4-4.4zM116.2 137.2c1.2 0 7 0 9.5-4.8 2.5-4.9-2.4-6.6-3.8-3.4-1.5 2.5-3.4 3.4-5.7 3.4s-4.2-.9-5.7-3.4c-1.4-3.2-6.4-1.5-3.8 3.4 2.5 4.8 8.3 4.8 9.5 4.8z"/><path class="st5" d="M50.8 129c-2.1 8.4 3 4.9 3.6.6.7-4.3-2.3-5.7-3.6-.6zM57.2 129c-2.1 8.4 3 4.9 3.6.6.6-4.3-2.3-5.7-3.6-.6zM63.6 129c-2.1 8.4 3 4.9 3.6.6s-2.4-5.7-3.6-.6zM162.9 129c-2.1 8.4 3 4.9 3.6.6s-2.3-5.7-3.6-.6zM169.3 129c-2.1 8.4 3 4.9 3.6.6s-2.3-5.7-3.6-.6zM175.7 129c-2.1 8.4 3 4.9 3.6.6s-2.4-5.7-3.6-.6z"/><path class="st4" d="M90.3 89.2c-.1-11.1-4.4-12.4-6.9-10.1-2.4 2.4-.1 8.3 6.9 10.1zM125.7 80.4c-1.8-11.9 3.6-11.5 5.4-10.6 1.8.9 4.1 6.2-5.4 10.6zM158.2 89.1c2.5-7.7 7.1-6.7 7.9-4.6s-1 6.2-7.9 4.6zM153.8 105.6c6.7-9.1 10.5-7.5 11.6-5.1s-1.9 7-11.6 5.1zM162.5 142.9c7.1-1.9 13.5.2 10.5 4.1-2.9 3.8-7.6.6-10.5-4.1zM162.5 175.7c.5 6.5 4.7 11.4 8.4 8 3.7-3.4-2.8-7.1-8.4-8zM137.1 167.9c-.3 6.3 3 9.1 5.4 6.9 2.5-2.3-.6-5.7-5.4-6.9zM102.1 183.7c-5.8 5.4-6 10.5-2 11.2 3.9.6 5.2-6 2-11.2zM70.4 155.6c-9.6-.6-11.9 3-10.5 6.6s8.9 1.3 10.5-6.6zM58.5 138.8c-6.4-1.4-10.7.2-9.6 3.8 1.1 3.5 7.3 1.7 9.6-3.8zM63.8 115.6c-5.5-9-11.7-6.9-12.4-3.9s5.2 7 12.4 3.9z"/></svg>