<svg version="1.1" id="Layer_1" xmlns="http://www.w3.org/2000/svg" x="0" y="0" viewBox="0 0 173.8 188.9" style="enable-background:new 0 0 173.8 188.9" xml:space="preserve"><style>.st2{fill:#404459}.st7{fill:#f7ab73}.st8{fill:#f9c6a6}.st9{fill:#c47d57}.st10{fill:#f5ca77}</style><path d="M169.6 57.2v106.5c0 4.8-1.1 5.9-3.4 8.9S155.1 186 155.1 186l-1.8-125.1 16.3-3.7z" style="fill:#f6d39d"/><path d="M4.9 69v107.6c0 12.9 6.1 12.3 11.6 12.3h129.9c11.6 0 10.4-7 10.4-15.9V69L80.9 20.2 4.9 69z" style="fill:#f6dab1"/><path class="st2" d="M94.1 1.9 26.6 47c-4.5 3-6.3 4.2-10.3 8.2S.8 70 .8 70c-2.6 3 1.7 5.4 5.1 3 3.3-2.4 11.9-8.9 11.9-8.9-.9 7.7 4.9 17.4 7 19 2.1 1.6 5.2 3 3.1-3.3 9.6 7.7 12.6 6.5 12.7 4.6.2-1.9-.7-8-1.9-11.5 6.1 8.4 10.5 12.6 12.6 11.3 2.1-1.2-5.6-12.9-6.1-13.8 10.1 9.2 14 12.4 19.5 11.9s5.1-4.7 2.1-6.8c-3-2.1-19.7-30 7.9-45.4 7-3.8 13.1-2.3 15.4-.5 2.3 1.7 59 43.1 59 43.1 2.6 2.1 4.2 3.3 6.8 1S172 59 172 59c2.6-2.6 2.6-4.3-1-7.3-3.7-3-69.3-49.8-69.3-49.8-3.2-2.2-5.5-1.4-7.6 0z"/><path d="M124.3 7.8C112.8.5 109.3-1 106.6.5c-2.7 1.5-5 14.7 4.7 24.9s16.2 5.4 18.4 13.6c2.3 8.2 17.9 19 32.9 12.5 8.3-3.8 5.5-4.9-4.4-16.2 4-4.8 6.1-6.8 2.4-11.7-3.7-4.9-17.3-17.4-21.6-20s-7.9.8-14.7 4.2z" style="fill:#fff"/><path d="M126.8 8.4c6.6-1.9 9.7-3.9 8.7-5.5s-7.6 1.5-11.1 4c-6.2-4-8.6-5.7-9.3-4.6s3.2 5.1 8.7 6.6c1 3.7 6.5 9.7 12.7 15.3s21.9 13.8 23.7 11.3c1.8-2.4-8.4-3.5-13.9-7.2-5.5-3.8-16.7-13.3-19.5-19.9z" style="fill:#b0b4c7"/><path d="M97 143.4c-2.2 3.5-5.5 7-9.4 10.2-7.1 5.8-16 3.6-23.7-.8-2.5-1.4-4.8-3-6.9-4.7-8.7-7-1.3-28.2 16.8-17.7 10-10.4 21.8-8.7 25.2-1 2.1 4.3 1.1 9.2-2 14z" style="fill:#f97d78"/><path d="M97 143.4c-2.2 3.5-5.5 7-9.4 10.2-7.1 5.8-16 3.6-23.7-.8 9.4-16.7 25.7-14.9 33.1-9.4z" style="fill:#fdaea2"/><path class="st2" d="M84.1 115.4c10 19.9 22.5 21.5 28.7 21.4 6.2-.1 14.3-2 19.1-7 4.8-5 7.3-8.6 7.3-13.7 0-16.8-36-10.3-41.1-9.7s-8.4 1.8-11.6 4.6c-3.4-1.8-10.9-2-14.3 0-3.2-2.8-6.4-4-11.6-4.6s-41.1-7-41.1 9.7c0 5.2 2.5 8.7 7.3 13.7s12.9 6.9 19.1 7c6.2.1 18.8-1.5 28.7-21.4 1.9-1.4 7.4-1.3 9.5 0z"/><path class="st7" d="M65.2 120c-2.5 3.2-10.8 11.4-21.3 11.4-5.3 0-10.1-2.1-13.6-5-2.3-1.9-4-4.2-4.9-6.5-.4-1.1-.7-2.2-.7-3.3 0-3.6 2.8-5.3 6.7-6.1 2.7-.5 6-.6 9.4-.6h2c8.8.3 21.1 1.4 25 4 .9 1.1 0 2.9-2.6 6.1zM133.3 116.7c0 6.5-8.7 14.7-19.2 14.7-5.4 0-10.2-2.2-14-4.7-2.7-1.9-4.9-3.9-6.3-5.4-.4-.5-.8-.9-1-1.2-2.6-3.3-3.5-5.1-2.6-6 1.7-1.1 5-2 8.9-2.6 3.2-.5 6.7-.8 10.1-1.1 2.1-.1 4.1-.2 6-.3 8.9-.3 18.1.1 18.1 6.6z"/><path class="st8" d="m40.8 110-10.5 16.5c-2.3-1.9-4-4.2-4.9-6.5l6-9.4c2.8-.6 6.1-.7 9.4-.6z"/><path class="st9" d="M48.3 123.6c-3.9-5.8-8.3-3.9-11.1.8-2.1 3.6-6.7 2.1-4.4-1.9 8.1-10.5 14.5-8.9 20.2-1.5 1.9 2.9-2.5 6-4.7 2.6z"/><path class="st8" d="m109.3 110.3-9.2 16.4c-2.7-1.9-4.9-3.9-6.3-5.4l5.3-9.8c3.3-.6 6.8-.9 10.2-1.2z"/><path class="st9" d="M107.3 123.6c3.9-5.8 8.3-3.9 11.1.8 2.1 3.6 6.7 2.1 4.4-1.9-8.1-10.5-14.5-8.9-20.2-1.5-1.9 2.9 2.5 6 4.7 2.6z"/><path class="st10" d="M11.9 142.4c-.2 0-.5-.1-.7-.2-.7-.4-1-1.3-.6-2l3.1-6.1c.4-.7 1.3-1 2-.6s1 1.3.6 2l-3.1 6.1c-.3.5-.8.8-1.3.8zM17 142.4c-.2 0-.5-.1-.7-.2-.7-.4-1-1.3-.6-2l3.1-6.1c.4-.7 1.3-1 2-.6s1 1.3.6 2l-3.1 6.1c-.2.5-.7.8-1.3.8zM22.2 142.4c-.2 0-.5-.1-.7-.2-.7-.4-1-1.3-.6-2l3.1-6.1c.4-.7 1.3-1 2-.6s1 1.3.6 2l-3.1 6.1c-.3.5-.8.8-1.3.8zM130.9 142.4c-.2 0-.5-.1-.7-.2-.7-.4-1-1.3-.6-2l3.1-6.1c.4-.7 1.3-1 2-.6s1 1.3.6 2l-3.1 6.1c-.2.5-.7.8-1.3.8zM136.1 142.4c-.2 0-.5-.1-.7-.2-.7-.4-1-1.3-.6-2l3.1-6.1c.4-.7 1.3-1 2-.6s1 1.3.6 2l-3.1 6.1c-.3.5-.8.8-1.3.8zM141.2 142.4c-.2 0-.5-.1-.7-.2-.7-.4-1-1.3-.6-2l3.1-6.1c.4-.7 1.3-1 2-.6s1 1.3.6 2l-3.1 6.1c-.2.5-.7.8-1.3.8z"/></svg>