<svg version="1.1" id="Layer_1" xmlns="http://www.w3.org/2000/svg" x="0" y="0" viewBox="0 0 167.8 184.7" style="enable-background:new 0 0 167.8 184.7" xml:space="preserve"><style>.st3{fill:#cd5241}.st4{fill:#ffa498}.st8{fill:#efc066}.st9{fill:#ffd172}</style><path d="m144.1 182.5 15.8-17.2c1.4-1.5 2.1-3.5 2.1-5.5v-95l-16.6 10.4-1.3 107.3z" style="fill:#e26c5a"/><path d="M4.3 68.4v108.3c0 7.5 1.9 8.1 7.6 8.1h126.9c7 0 6.7-3.7 6.7-10.9V75.3L71.7 22 4.3 68.4z" style="fill:#f87e77"/><path d="m87.5 1.7-64 43.4c-5.5 3.8-9.3 7.7-21.7 20.8-4.4 5.1-.4 8.6 6.2 4 6.6-4.6 64.1-41.6 64.1-41.6l68.1 55.1c5.1 4.6 6.4 3.1 12.5-2.9s13.4-14.4 13.4-14.4c3.8-4 0-6.6-4.2-9.7S96.5 1.7 96.5 1.7c-3.7-3.1-6.9-1.4-9 0z" style="fill:#50e7e2"/><path class="st3" d="M40.8 88.5H30.3c-4 0-4-5.5 0-5.5h23.2c6 0 5.5 2.5 5.6 4.5.2 2 0 12.6-9.8 12.6s-8.5-9.7-8.5-11.6zM101.4 88.5H90.9c-4 0-4-5.5 0-5.5h23.2c6 0 5.5 2.5 5.6 4.5.2 2 0 12.6-9.8 12.6s-8.5-9.7-8.5-11.6zM71 103c4.6-5.9 6.8-6.1 11-.8 2.4 3.4 5.9.1 3.4-2.7-6.3-6.6-9.3-7.8-17.6.6-2.9 2.9.9 5.5 3.2 2.9z"/><path class="st4" d="M9.5 102.8c-.9 2.5 2.8 4.2 4.1.6 1.2-3.6 2.6-7.6 2.6-7.6 1-3-2.2-4.8-3.8-.9-1.6 3.8-2.9 7.9-2.9 7.9zM17.2 102.8c-.9 2.5 2.8 4.2 4.1.6 1.2-3.6 2.6-7.6 2.6-7.6 1-3-2.2-4.8-3.8-.9-1.7 3.8-2.9 7.9-2.9 7.9zM24.9 102.8c-.9 2.5 2.8 4.2 4.1.6 1.2-3.6 2.6-7.6 2.6-7.6 1-3-2.2-4.8-3.8-.9-1.7 3.8-2.9 7.9-2.9 7.9zM119.9 102.8c-.9 2.5 2.8 4.2 4.1.6 1.2-3.6 2.6-7.6 2.6-7.6 1-3-2.2-4.8-3.8-.9-1.6 3.8-2.9 7.9-2.9 7.9zM127.6 102.8c-.9 2.5 2.8 4.2 4.1.6 1.2-3.6 2.6-7.6 2.6-7.6 1-3-2.2-4.8-3.8-.9-1.6 3.8-2.9 7.9-2.9 7.9zM135.3 102.8c-.9 2.5 2.8 4.2 4.1.6 1.2-3.6 2.6-7.6 2.6-7.6 1-3-2.2-4.8-3.8-.9-1.7 3.8-2.9 7.9-2.9 7.9z"/><path d="M29.4 32.1v7.1c0 4.8 3.7 3 7.6 0s18.5-12.3 18.5-12.3c3.2-2.1 3-2.6 3-8.7s-1.5-8-6.9-3.9c-3.3-5.3-10.2.3-7.6 5-1.7 1.2-4.9 2.8-4.9 2.8-2.2-4.6-7.8-1.8-5.8 3.7-3.3 1.8-3.9 4.1-3.9 6.3z" style="fill:#ffd277"/><path d="M150.4 50c0 4.8-2.6 5.5-5.7 8.5-1 .9-1.8 1.7-2.6 2.3-1.8 1.2-3.5 1.4-5.6-.5l-31.4-27.7c-.8-.7-1.3-1.8-1.3-2.8v-9.4c0-2.1.8-3.2 2.3-3.7l8.7-3.9c1-.4 2.1-.3 2.9.3 5.4 4.1 25.4 19.6 29.4 23.6 2.3 2.3 3.1 4.5 3.3 6.6.4 2.1 0 4.2 0 6.7z" style="fill:#fbe2aa"/><path d="M142.1 48.4v12.2c-1.8 1.2-3.5 1.4-5.6-.5l-31.4-27.7c-.8-.7-1.3-1.8-1.3-2.8v-9.4c0-2.1.8-3.2 2.3-3.7l36 31.9z" style="fill:#ffd373"/><path class="st8" d="M150.4 50c0 4.8-2.6 5.5-5.7 8.5-1 .9-1.8 1.7-2.6 2.3V48.4l8.5-5.2c.2 2.2-.2 4.3-.2 6.8z"/><ellipse class="st8" cx="121.8" cy="20.4" rx="5.6" ry="4.6"/><ellipse class="st9" cx="121.8" cy="18.2" rx="5.6" ry="4.6"/><ellipse class="st8" cx="131" cy="28.8" rx="5.6" ry="4.6"/><ellipse class="st9" cx="131" cy="26.6" rx="5.6" ry="4.6"/><ellipse class="st8" cx="140.1" cy="37.2" rx="5.6" ry="4.6"/><ellipse class="st9" cx="140.1" cy="35" rx="5.6" ry="4.6"/></svg>