<svg version="1.1" id="Layer_1" xmlns="http://www.w3.org/2000/svg" x="0" y="0" viewBox="0 0 253.6 242.8" style="enable-background:new 0 0 253.6 242.8" xml:space="preserve"><style>.st2{fill:#f5e17d}</style><path d="M188.8 138.5c26.2 36 67.7 4.2 59.3-23.2 23.8-50.3-35.4-86.4-70.4-55.5C176 4.6 104.1-20 69.4 18.9 9.8-7.1-32.6 80 33.3 107c-21.5 47.9 31.6 63.1 43 57.3 19.5 48.2 110.7 45.6 112.5-25.8z" style="fill:#18e6bb"/><path d="M107.6 164.3v72.2c0 6.6 3.5 6.1 6.4 6.2 2.9.2 5.9-1.1 5.9-7.9v-93.7l51.1-29.6 33.6 7.7c10.2 2.4 15.3-2.4 2.2-6.2-13.1-3.8-26.8-6.6-26.8-6.6l36.3-20.8c6.6-4 3.5-10-6.7-4.9-10.3 5.1-88.8 46-88.8 46l-.4-76.1c-.7-12.8-8.8-16.1-9.3-6.6s-2 68.1-2 68.1l-51.6-62c-4-5.8-10.4-2-4.6 6.6s15.7 21 15.7 21l-21.5.2c-7.7 0-7.3 7.1 2.9 7.1h25.4l33.2 38.9-.2 28.3-34.3-25c-5.1-3.3-11.3-.9-1.8 7.1s35.3 30 35.3 30z" style="fill:#54bea4"/><path class="st2" d="M50.4 80.2c4.4 6.6 4.2 15-2.7 21.6-3.3 3.1-6.6 3.4-8.9-2S36.1 85.6 43 80.2c4.1-2.3 6.1-2.2 7.4 0zM53.7 47.1c.2 5.2 4.4 14.3 14.6 19.7 5.6 2.9 9.4.6 9.1-5.2-.3-5.8-1.6-17.5-17.5-19.6-3.9-.1-6.3.4-6.2 5.1zM119.2 55.7c1.2 6.9 8.3 11.9 15.2 13.3 6.9 1.4 6.4-4.9 5-9.9s-8-11.3-16.3-9.9c-4.6 1.2-4.7 4-3.9 6.5zM193.7 67.2c-7.4 3.4-13.6 7-12.7 21.3.3 4.1 2.2 8 9.7 4.9 7.5-3.1 12.1-8.8 12.1-20.5.2-5.7-4.5-8.1-9.1-5.7zM210.3 115.6c5.5 8.8 14.6 11.6 22.9 10.3s1.1-11-1.9-13.9c-3-3-9.7-5.5-17.4-3.9-4.7 1.2-5.1 5.3-3.6 7.5zM153.8 146.9c-5.3 2.9-8.5 9.4-8.6 17.8 0 4.5 4.1 6.4 9.2 2.8 5.2-3.6 8.6-6.4 8.5-16.1 0-7.2-7-5.9-9.1-4.5z"/></svg>