<svg version="1.1" id="Layer_1" xmlns="http://www.w3.org/2000/svg" x="0" y="0" viewBox="0 0 225 202.5" style="enable-background:new 0 0 225 202.5" xml:space="preserve"><style>.st1{fill:#7d95a5}.st3{fill:#4c728d}.st4{fill:#ffb8a8}.st5{fill:#163574}</style><path d="M195.6 201.3c5.2-3.1 16.7-18.8 19.9-22.9 3.2-4.1 2.4-7.4 2.4-19.1V58.4l-20.5 16.7-1.8 126.2z" style="fill:#668093"/><path class="st1" d="M40.3 79.7V194c0 9 2.7 8.5 11.5 8.5h133.8c12.1 0 11.8 0 11.8-12.8V75.2l-89.2-45.5-67.9 50z"/><path d="M129.1 2.3 65 47.9c-4.2 3-5.4 3.5-10.3 9.4s-17.5 20-17.5 20c-3.5 5.6 1.4 9.4 7.5 5.4s66.4-45.3 66.4-45.3l79.7 47c4.7 3.3 6.1 3.5 10.8-1.9L223.8 57c3.7-5.4-1.4-7.5-4.4-9.4S137 .9 137 .9c-2.6-1.7-4.8-.9-7.9 1.4z" style="fill:#2f5299"/><path class="st1" d="M101.8 28c-.5.5-2.1 1.7-4.3 3.3-8.7 6.4-27.2 19-29.1 20.6-.2.1-.4.3-.6.4-2.8 1.9-9.1 3.6-11.9-4.3-5.3-16.3-8.5-37 .6-41.7 9-4.6 23.2-1 41.5 11.8 3.6 2.4 6.4 7.3 3.8 9.9z"/><path class="st3" d="M196.6 9c7.7 11.8 8.7 25.3 6.9 38.1S189.4 57.7 188 57.6l-5.5-20 10.9.9L196.6 9z"/><path class="st1" d="M194.2 53.9c-1.8 3.7-5 4.1-8.7 3.2h-.1c-2.9-.8-6.2-2.3-9.4-3.9-.3-.1-.6-.3-.8-.4-.6-.3-1.3-.7-2.1-1.1-.4-.2-.8-.4-1.2-.7-.9-.5-1.9-1.1-3-1.6-6-3.4-13.3-7.8-18.8-11.5-1.6-1.1-3.1-2.1-4.3-3-4.6-3.1-2-6.3 0-8.4 11.5-12.6 28.5-20.9 38.3-22.8 9.7-1.8 13.7 5.3 14.6 11.4.8 6.1 2.2 24.5-4.5 38.8z"/><path class="st4" d="M185.6 57.2h-.1c-3.2-.8-6.8-2.6-10.2-4.3-6.2-3.1-17.4-9.7-25.1-14.9 31.4-30.8 47-24.2 35.4 19.2zM97.5 31.4c-3.4 2.5-8.4 6-13.2 9.4-.9.6-1.8 1.3-2.7 1.9-1.5 1-3 2.1-4.3 3-1.1.8-2.1 1.5-3 2.1-.5.3-.9.6-1.3.9-1.1.8-2 1.4-2.8 2-.8.6-1.5 1-1.7 1.3-.2.1-.4.3-.6.4h-.1c-.8-1.9-1.5-3.8-2.2-5.6l-1.5-4.2c-.7-2-1.2-3.9-1.7-5.6-.5-1.8-.9-3.4-1.2-5-3.4-18.4 6-22.5 36.3-.6z"/><path class="st3" d="M168.9 49.4C181 36 187.4 32.7 190.6 31.3c3.2-1.5 7.2-.6.7 2.9s-17.8 14.2-19.4 16.9M192.7 44c-5.2 1.8-12.1 5.6-16.7 9.3-.3-.1-.6-.3-.8-.4-.6-.3-1.3-.7-2.1-1.1 10.6-9.7 17.1-10 19.6-10.4 2.6-.5 5.3.7 0 2.6zM84.3 40.7c-.9.6-1.8 1.3-2.7 1.9 0 0-7.2-9-9-12.2-1.8-3.2.2-3.1 1.9-1.2 1.7 1.9 2.4 2.5 9.8 11.5zM77.3 45.6c-1.1.8-2.1 1.5-3 2.1-1.4-1.2-6.9-6.5-11.8-10.8-3-2.6-5.7-4.8-7.2-5.7-4-2.2-6.5-5.4-1.3-3.5 2.4.9 4.4 1.9 7.3 4.1 3.3 2.6 7.9 6.7 16 13.8zM72.9 48.7c-1.1.8-2 1.4-2.8 2-.6-1-2.3-2.4-4.5-3.9-2.9-1.9-6.8-4-10.7-5.6-6.8-2.8-7-5-3.4-4.2 2.3.5 7.4 2.6 12.6 5.7 3 1.6 6.1 3.7 8.8 6zM45.6 133.8c7.1 0 8.5-4.4 0-5.6-8.5-1.2-34 .2-39.6.7s-10.1 5 0 5 39.6-.1 39.6-.1zM39.5 136.5c-13.6 3.4-25.3 8-31.3 12.8s-1.9 6 5.9 2.3 23-9 26.9-10.1c5.3-1.1 5.4-6-1.5-5zM174 133.8h41.3c7.4 0 8.2-4.2-2-5-10.2-.8-32.5-1.1-39.4-.3-6.9.7-5.3 5.3.1 5.3zM180.6 136.5c9.8 2.3 24 7.6 27.8 9.7s2.9 5-2.9 3.6c-5.8-1.3-23.7-7.7-27.5-9.2-3.9-1.3-2-5.4 2.6-4.1z"/><circle class="st4" cx="51.8" cy="148.1" r="7.3"/><circle class="st4" cx="169.3" cy="148.1" r="7.3"/><path class="st5" d="M93.8 123c-5.3-1.6-12.2-4.8-16-6.1-3.8-1.3-6 2.8-2.4 4.8 2.4 1.3 5.4 2.4 8.2 3.3-1 1.1-1.7 2.8-1.7 4.6 0 3.4 2.2 6.1 4.8 6.1s4.8-2.7 4.8-6.1c0-.9-.1-1.7-.4-2.4.8.2 1.5.4 2 .6 3.2 1 6-3.2.7-4.8zM142.8 116.9c-3.8 1.3-10.7 4.5-16 6.1-5.3 1.6-2.5 5.8.6 4.8.5-.2 1.2-.4 2-.6-.3.7-.4 1.6-.4 2.4 0 3.4 2.2 6.1 4.8 6.1 2.7 0 4.8-2.7 4.8-6.1 0-1.8-.7-3.5-1.7-4.6 2.9-.9 5.8-2 8.2-3.3 3.8-2.1 1.5-6.1-2.3-4.8z"/><path class="st5" d="M151.5 142.3c-4.7 6.5-25.7 16.3-39-.1l1.7-1.7c2.7-.9 4.6-2.7 4.6-4.8 0-3-3.9-5.4-8.7-5.4-4.8 0-8.7 2.4-8.7 5.4 0 2.1 1.9 3.9 4.6 4.8l1.7 1.7c-13.3 16.4-34.3 6.6-39 .1-2-2.8-6.5-.5-4.2 3.5 8.9 13 35 14.6 45.5 2.4 10.5 12.1 36.6 10.6 45.5-2.4 2.4-4-2-6.3-4-3.5z"/></svg>