<svg version="1.1" id="Layer_1" xmlns="http://www.w3.org/2000/svg" x="0" y="0" viewBox="0 0 230.1 299.1" style="enable-background:new 0 0 230.1 299.1" xml:space="preserve"><style>.st2{fill:#f5d145}.st3{fill:#f9f084}.st4{fill:#f8f3bc}.st5{fill:#da9435}.st7{fill:#f07e7f}.st8{fill:#f8baba}.st11{fill:#6aaa64}.st13{fill:#e2d6d4}</style><path d="M45.4 162.6v116.5c-1.4 0-4.1-2.5-7.1-5.9-1.7-1.9-3.5-4.1-5.2-6.4-1.9-2.5-3.8-5-5.3-7.2-1.3-1.8-2.3-3.3-3.1-4.5-.2-.3-.4-.6-.5-.9-.6-1.2-1-2.5-1-3.9v-104l22.2 16.3z" style="fill:#e8c50b"/><path d="M193.1 279.1H52.2c-4.5 0-7 .3-8.3-.7-1-.8-1.4-2.2-1.5-5.1v-99.4l67.8-65.4L200 160v110.2c-.1 7.5.8 8.9-6.9 8.9z" style="fill:#fadc57"/><path class="st2" d="M31.8 258.7c-.4 1.6-3.2 1-4 1-1.3-1.8-2.3-3.3-3.1-4.5-.2-.3-.4-.6-.5-.9 6.1-.7 8 2.7 7.6 4.4zM39 259.2c-2.1-2.3-4.2-1.8-4.7-.7s-.5 2 1.7 4.4c2.2 2.4 3.9 1.9 4.6 1.1.6-.8.4-2.6-1.6-4.8zM38.3 273.2c-1.7-1.9-3.5-4.1-5.2-6.4 1.1-2.4 3.6-.8 5.2.9 1.6 1.8 1.8 4.9 0 5.5zM42.3 251.6c-4.7-4.5-9-2.7-9.2-.6-.2 2.2 4 5.3 9.2 4.5v-3.9zM23.2 247.9c3.9 3.7 7.4 3.6 7.8 1.3.4-2.3-2.4-4.9-7.8-4.8v3.5zM36.8 237.7c-4.6-.4-5.5 4.1-.4 5.5s6.8-4.9.4-5.5z"/><path class="st2" d="M23.2 235.6c5-1.3 8.8.3 8.7 3.4-.1 3.1-6.2 3.9-8.7 1.7v-5.1zM37.7 227.5c-6.2-1.1-6.5 6.8-.3 6.6s5.2-5.7.3-6.6zM23.2 225c5.7-.7 8.4 1.7 7.9 4.4s-5.1 3.1-7.9 2.1V225zM36.4 215.7c-7-1.3-7.4 7.3-.8 8 6.7.7 6.6-6.9.8-8zM23.2 211.9c6.4.2 8 8.7 0 8.2v-8.2zM36.6 204c-8.8-2-6.7 7.9-.5 7.9s6.8-6.5.5-7.9zM23.2 197.8c8 2.1 8.2 9.9 0 10v-10zM42.3 194.1c-6.1-5.4-9.4-2.4-9.8.9s5 5.6 9.8 3.1v-4z"/><path class="st2" d="M23.2 188c7.8 2.4 11.2 9.1 0 8.5V188zM42.3 180.7c-8.8-3-10.1 1.5-10.1 3s1 6.3 10.1 4.3v-7.3z"/><path class="st2" d="M23.2 177.4c9.2 1.1 9.2 10.1 0 8.4v-8.4zM36.6 170.9c-6.9.7-4.3 8.7 3.4 6.5l-3.4-6.5zM23.2 167c8.9.3 8.5 9.4 0 8v-8zM23.2 163c5.7 2.9 8.3-.9 8-3-.3-2.1-8-8.2-8-8.2V163z"/><path class="st3" d="M43.9 278.3c-1-.8-1.4-2.2-1.5-5.1 6.2-3.5 9.8-1.8 10.3.6s-3.4 5.3-8.8 4.5z"/><path class="st4" d="M45.1 273.2c-2 .4-.8 2.4.8 1.3 1.7-1.1.5-1.5-.8-1.3z"/><path class="st3" d="M42.3 268.3c5 .6 9.7-.3 9.4-3.6-.2-3.3-6.4-3.2-9.4-2.2v5.8z"/><path class="st4" d="M44.4 263.1c-1.7.1-.9 2.4.6 1.6s.8-1.7-.6-1.6z"/><path class="st3" d="M42.4 256.2c6.6 2 10.9-1 10.3-4.3-.6-3.3-5.7-3.9-10.3-2.7v7z"/><path class="st4" d="M45.2 250.3c-2 .1-1.4 2.3.2 1.6s.9-1.6-.2-1.6z"/><path class="st3" d="M42.4 241.6c1.8 3 8.3 2.4 10 1.9 1.7-.5 4-1.5 3.8-4.6-.2-3.1-1.4-5.6-6.9-5.8s-6.9 2.1-6.9 2.5v6z"/><path class="st4" d="M46 234.7c-2.7.3-.9 3 .7 1.8s1.1-2-.7-1.8z"/><path class="st3" d="M42.4 219.4c1.7-2.3 6.7-2.2 9.4-1.8 2.7.4 3.7 1.8 3.7 5.1 0 3.4-1.8 5.8-6.8 5.7-5-.1-6-2.6-6.3-3.2v-5.8z"/><path class="st4" d="M46.8 218.6c-3.6.7-.9 3.3.8 1.6s.6-1.9-.8-1.6z"/><path class="st3" d="M43.2 208.4c.1-4.2 1.6-4.5 6.1-4.3s6.1.9 6.2 4.9c.1 4-2 4.7-6.5 4.6s-5.8-1.3-5.8-5.2z"/><path class="st4" d="M47.2 205.5c-2.5-.2-2.2 2.1 0 1.8s1.7-1.7 0-1.8z"/><path class="st3" d="M42.3 194.1c1.3-3.4 4.2-3.6 6.4-2.9 2.2.6 5.7 2.2 5.3 5.3s-3.7 4.5-7 4.6-4.7-3-4.7-3v-4z"/><path class="st4" d="M46 192.3c-2.7.5-.6 3.1.8 1.9 1.4-1.3.8-2.3-.8-1.9z"/><path class="st3" d="M42.3 186.1c2.2 2.1 5.6 1.7 8.6-.3s3.6-4.9 0-4.9c-3.6-.1-8.6-.1-8.6-.1v5.3z"/><path class="st4" d="M44.6 181.7c-2.8.3-.9 3 .8 1.9 1.7-1.2 1.2-2-.8-1.9z"/><path class="st3" d="M48.7 176.7c3.9.7 7.4-2.5 5.3-5.6l-5.3.6v5zM58.3 167.4c-.8 5 .5 7.6 5.8 7.7s11.8 1.1 11.9-4.4c.1-5.5-2.1-7.2-7-7.4-5-.2-7.8-.4-7.8-.4l-2.9 4.5z"/><path class="st4" d="M60.2 166.8c1.7 1.3 6.9.9 6.9-.4s-2.9-1.7-4.9-1.8c-2-.1-2 2.2-2 2.2z"/><path class="st3" d="M67.1 179.1c-5.9-.3-8.5.6-9 4.4-.5 3.8 4.4 4.6 9 4.4 4.5-.3 7.5-1.2 7.3-4.3-.3-3.2-2.3-4.3-7.3-4.5z"/><path class="st4" d="M62.6 180.7c-3-.2-3.2 2.7 0 2.4 3.3-.3 3.2-2.1 0-2.4z"/><path class="st3" d="M66.2 190.9c-8.3-.6-8.2 4-8.2 5.5.1 1.5 1.9 4.2 7.9 4.1 6-.1 8.6-1.9 8.4-4.8-.2-2.9-1.7-4.3-8.1-4.8z"/><path class="st4" d="M62.9 192.4c-2.5.6-1.6 3.2.7 2.3 2.3-.9 1.5-2.8-.7-2.3z"/><path class="st3" d="M67.8 204.1c-4.9-.1-8.1-.4-8.3 5.3-.2 5.6 5.7 5.5 10.3 4.7l-2-10z"/><path class="st4" d="M62.7 205.5c-2.8 1-1 3.4.8 1.8 1.9-1.6.6-2.4-.8-1.8z"/><path class="st3" d="M64.9 218.5c-5.5.1-6.6 2.1-6.8 5-.2 2.9 2.1 5.5 7.3 5.7 5.2.2 7.5-1.8 6.9-5.4s-2.4-5.4-7.4-5.3z"/><path class="st4" d="M61.9 220.4c-2.6 1.3-.6 3.5.9 2.1 1.7-1.3 1.1-3.1-.9-2.1z"/><path class="st3" d="M76.2 223c-2.2 3.9-3.1 8.7 2.5 9.7s7.4.1 7.3-1.8c-.2-2.1-9.8-7.9-9.8-7.9zM59.1 238.1c.2 5 3.6 5.6 6.7 5.4 3.1-.2 5.5-.5 5.4-4.2-.1-3.7-1.5-6.2-6.3-6.2s-5.8 3.2-5.8 5z"/><path class="st4" d="M63.5 234.7c-3.5 1.3-1.8 3.3.6 2.1 2.3-1.1.8-2.7-.6-2.1z"/><path class="st3" d="M74.4 239.9c-.5 4.8 4.1 5.4 7.2 5.1 3-.3 7.3-.5 7.2-4.1-.1-3.6-2.9-5.3-7.9-5.1-5.1.3-6.2 1-6.5 4.1z"/><path class="st4" d="M79.1 237.1c-2.7.9-1.5 3.3.6 2 1.9-1.3 1.9-2.8-.6-2z"/><path class="st3" d="M56.2 250c-.6 4.3 3.2 6.4 9.1 6.2 5.8-.3 7.8-.6 7.7-4.1-.1-3.5-3.1-5.3-8.9-5-6 .3-7.6.5-7.9 2.9z"/><path class="st4" d="M61.2 248.8c-4.2.5-2.6 3.5.5 2.4 3.2-1.1 2.6-2.8-.5-2.4z"/><path class="st3" d="M63.8 260.5c-5.1 0-7.7-.1-7.6 3.5s3 4.1 7.6 3.5 7 .1 7.1-3.5-3.1-3.5-7.1-3.5z"/><path class="st4" d="M61 261.9c-3.1.2-2.4 2.7.2 2.1 2.7-.5 3.3-2.4-.2-2.1z"/><path class="st3" d="M63.8 271.7c-5.3.2-6.7 1.3-6.7 3.4 0 2.1 2.9 3.1 6.7 2.7s5.5-1.3 5.5-3-2.1-3.3-5.5-3.1z"/><path class="st4" d="M60.8 273.2c-2.2.7-1.7 2.6.4 1.6 2.1-.9 1.9-2.3-.4-1.6z"/><path class="st3" d="M81.6 270.7c-6.8-.2-8.2 1.2-8.2 3.4s3.9 3.1 8.2 2.9c4.4-.2 8-.6 7.9-3.1-.2-2.5-3.5-3.1-7.9-3.2z"/><path class="st4" d="M77.3 272.1c-3.4.8-1.9 3 .7 1.8s1.7-2.4-.7-1.8z"/><path class="st3" d="M75.3 262.5c-1.4 4.2.7 4.7 5.4 4.3 4.7-.4 8.3 1.4 8.8-2.1.4-3.5-2.7-5.7-7.3-5.6-4.7.1-6.5 1.7-6.9 3.4z"/><path class="st4" d="M79.6 260.7c-3.2 1.1-1.8 3.3.5 2.3 2.3-1.1 1.8-3.1-.5-2.3z"/><path class="st3" d="M82.9 248.2c-6-.3-7.2 2.1-6.9 4 .3 1.8 2.1 3.4 6.2 3.4s6.6-.3 6.6-2.8-1.6-4.3-5.9-4.6z"/><path class="st4" d="M79.6 249.6c-3.2.5-1.6 2.7.5 1.8 2.1-1 1.3-2-.5-1.8z"/><path class="st3" d="M77.6 196.9c-1.4-5.4 5.6-8.2 8.9-4.5s2.3 6.1 1 7.7c-1.3 1.6-5.4-2.6-5.4-2.6s-3.5 3.3-4.5-.6z"/><path class="st4" d="M80.8 192.3c-2.2 1.3-.4 4.3 1.3 2.2 1.9-2.1.4-3.2-1.3-2.2z"/><path class="st3" d="M78.2 183.2c-.9 3 .3 5 3.9 5s6-2 5.8-3.7c-.3-1.7-9.7-1.3-9.7-1.3zM93.4 199.5c-2.1-4.4 2.5-7.6 6.8-4.6l-2 4.6h-4.8zM96.6 186.7c.3 2.8 4.3 4.4 8.8 4 4.5-.5 6.2-1.9 6-4-.2-2.1-3.2-5.5-12.8-4.3-2.3.3-2.3 3.3-2 4.3z"/><path class="st5" d="M78.4 179.1c6.4 0 22.4 2.3 27 4.1 4.6 1.8 3.4 6.9-2.6 5.6-6-1.4-19.9-3.6-24.8-4.1s-4.4-5.6.4-5.6z"/><path class="st3" d="M79.6 171.6c.3 4.2 2.9 5 6.3 4.6 3.4-.4 6.2-2 5.1-5.1-1.1-3.2-2.7-5-6.6-4.8-3.9.3-4.9 3.9-4.8 5.3z"/><path class="st4" d="M83.8 167.9c-3.5.9-1.4 3.6.7 2.4 2.1-1.2 1-2.9-.7-2.4z"/><path class="st3" d="M66.6 160.2c6 .8 9.3.2 9.5-2.6.1-2.9.6-4-3.2-4.4-3.9-.5-6.3 7-6.3 7zM79.2 157.5c-.6 4.2 3 5 7.4 4.8 4.5-.2 5.9-1.7 5.2-4.4-.7-2.7-3.1-3.2-6.5-3.1-3.2.1-5.7.1-6.1 2.7z"/><path class="st4" d="M82.2 156.1c-2.5.5-.7 3.4 1.6 2.2 2.3-1.1 1.1-2.7-1.6-2.2z"/><path class="st3" d="M94.8 173.1c-.1 4.5 4 4.4 7.2 4.2 3.2-.2 7.8-.4 8-3.3s-3.9-6.2-8.7-5.6c-4.7.4-6.3 1.6-6.5 4.7z"/><path class="st4" d="M98.2 170.3c-2.1 1.6-.1 3.9 1.6 1.7s0-2.9-1.6-1.7z"/><path class="st3" d="M95.6 160.3c-.6 4 5.9 4.3 10 4.2 4.1-.1 7-1.7 6.9-3.9-.1-2.2-3.9-5.4-9.3-4.8-5.4.5-7.3 1.9-7.6 4.5z"/><path class="st4" d="M99.4 158c-2.5 1.6-1.6 3.6 1 2s.8-3.1-1-2z"/><path class="st3" d="M77.7 149.6c5.3 1.6 10.6.9 12.5 1.3s3.1-.6 3-3.1c-.2-2.5-.6-5.3-7-5.6l-8.5 7.4z"/><path class="st4" d="M82.2 145.6c4 1.9 6-1.7 3.1-2.8l-3.1 2.8z"/><path class="st3" d="M96.3 147.7c.2 4.4 6.4 4.1 9.3 3.9 3-.2 5.7-1.7 5.5-4.2-.2-2.5-3.7-4.1-7.8-3.4-3.9.7-7.1.6-7 3.7z"/><path class="st4" d="M100.6 145.7c-3.2 1.4-.6 3.5 1.1 1.8 1.6-1.8.9-2.7-1.1-1.8z"/><path class="st3" d="M87.3 139.6c3.2 1.3 8.4-1.3 6-4.6-2.3-3.4-6 4.6-6 4.6zM97.9 129.3c5.8.9 12.6 1.2 12.9-1.6.3-2.7.1-5.5-4-6s-8.9 7.6-8.9 7.6zM97.9 136.6c-.6 3.2 4.9 3.9 7.5 3.8s5.5-.4 5.8-3.3-2.4-3.8-6.6-3.4c-4.3.4-6.3.7-6.7 2.9z"/><path class="st4" d="M101.6 135.3c-2.6 1.2-1.3 3.6.9 1.7s.8-2.4-.9-1.7z"/><path class="st3" d="M115.2 116.5c-.8 4.5-2.2 6.5 3.1 6.4 5.3-.1 3.6-4 3.6-4l-6.7-2.4zM114.1 129.6c.5 3.7 5.5 3.9 9.7 3.5 4.2-.4 5.7-1.9 5.4-4.6-.3-2.7-3.3-4.1-8.1-3.5-4.7.5-7.4 1.3-7 4.6z"/><path class="st4" d="M117.5 126.9c-2.7 1.8-1 3.8 1.3 2.1 2.4-1.7.3-3.1-1.3-2.1z"/><path class="st3" d="M134.3 128.1c-.9 3.8 0 5.9 8.1 4.7l-3.6-4.7h-4.5zM117.5 137.8c-3.1 2.5-2.3 4 2.9 4.5 5.1.4 9.3.7 9.6-3 .3-3.7-3.7-3.8-6.8-3.4-3.1.3-4.2.7-5.7 1.9z"/><path class="st4" d="M120.4 137.8c-2.5 2-.5 3.6 1.2 1.8s.1-2.9-1.2-1.8z"/><path class="st3" d="M115.4 150c-.6 3.4 1.6 6 7.1 5.6 5.5-.3 7.7-1.3 8-4 .4-2.6-3.1-5.4-7.3-5.6-4.3-.1-7.5 1.7-7.8 4z"/><path class="st4" d="M118.8 148.1c-2.2 1.7-.4 4.2 1.7 2 2.2-2.1.5-3.7-1.7-2z"/><path class="st3" d="M115.3 163c0 3 2.9 4.6 8.6 4.8 5.6.2 8.1-.3 7.9-3.6-.2-3.3-2.9-5.3-8.3-5.1-5.3.2-8.2.8-8.2 3.9z"/><path class="st4" d="M119.2 160.9c-2.8 1.2-.4 3.3 1.5 1.8s.4-2.5-1.5-1.8z"/><path class="st3" d="M114.3 176.2c-.3 4.7 5.3 5.4 10.2 4.7 4.9-.7 8.7-1 7.8-4.7-.8-3.7-4.1-4.1-9.9-3.7-5.7.4-7.9.6-8.1 3.7z"/><path class="st4" d="M117.9 174.3c-3 1.5-.7 3.8 1.8 2.1 2.6-1.7 1-3.5-1.8-2.1z"/><path class="st3" d="M115.5 188.3c-1.1 3.9 1.3 4.4 8 4.9s10.6.1 7.7-4.9c-2.9-5-4.8-4.9-9.3-3.9-4.4 1-6 2.5-6.4 3.9z"/><path class="st4" d="M118.7 186.8c-2.3 1.4.6 3.9 2.3 1.5 1.7-2.5-.4-2.6-2.3-1.5z"/><path class="st3" d="M117.4 200.6c8.9-5.1 12.5-2.8 15.1 4l-13.3 3.7-2.9-4.5 1.1-3.2zM142.8 196.2c-9.4-.1-9.4 5.5-8.2 9.1l4.9 1.2 1.1-5.9 2.2-4.4zM117 212.8c3.7 2.1 6.5 8.6 2 9.7s-9 1.5-7.9-.6c.2-.6 5.9-9.1 5.9-9.1zM127.5 213.4c-4.5 1.3-5.1 5.5-4.1 8.2 1 2.7 4.6 5 8.2 3.2 3.6-1.8 3-6.4 1.5-8.3s-3.9-3.6-5.6-3.1z"/><path class="st4" d="M126.1 215.7c-1.7 1.2.3 3.9 1.7 2 1.5-1.8 0-3.2-1.7-2z"/><path class="st3" d="M137.4 210.7c-3.4 3.7-1.5 7.2-.4 9.1 1.1 2 4.7 3 8.2 2.4l-4.8-10.6-3-.9zM150.5 227.2c-8.7.1-12.4-.1-10.6 4.7s5.3 4.2 10.1 4.7 9.4.3 10-1.7l-9.5-7.7z"/><path class="st4" d="M143.4 228.7c-2.2.1-2.1 2.8 1 2.4 2.9-.4 1.9-2.5-1-2.4z"/><path class="st3" d="M115.8 227.6c-7 .7-7.8 6.6-1.3 8 6.5 1.4 9.4-1.6 8.6-5.1-.7-3.5-3.5-3.3-7.3-2.9z"/><path class="st4" d="M114.6 229.6c-2.4.4-2 2.8.6 2 2.5-.7 1.4-2.3-.6-2z"/><path class="st3" d="M131.2 228.4c-6 .5-5.9 3.7-5.7 5.2.1 1.6 1.9 4.1 7.3 3.5 5.4-.6 4.8-3.7 4.3-5.5-.5-1.7-2.4-3.5-5.9-3.2z"/><path class="st4" d="M129.1 229.9c-2.8 1-.9 3 .9 2 1.8-.9 1-2.7-.9-2z"/><path class="st3" d="M131.5 245.3c-2.2-2.2-2.4-4 2.4-4.1 4.9-.1 4.7 2.3 2.8 4.1s-4.5.8-5.2 0z"/><path class="st4" d="M133.4 242.3c-1.8.5-1.7 1.7 0 1.5 1.7-.3.9-1.8 0-1.5z"/><path class="st3" d="M121.2 239.2c-6-.3-6.8 1.2-6.6 2.5s1.3 3.6 5.6 4.1 5.8-1.6 5.8-2.9-2.6-3.6-4.8-3.7z"/><path class="st4" d="M118.7 240.4c-2.5 0-1.6 2.5.5 1.8s1.3-1.7-.5-1.8z"/><path class="st3" d="M110.1 246.3c1.6-3.9-.7-7.7-6.1-8.7-5.4-1-10-.7-11.1 2.1s4.4 8.1 11.6 8.2c2.6 0 5 0 5.6-1.6z"/><path class="st4" d="M96.6 238.6c-2.7.5-2.1 3.8.6 2.8s1.3-3.2-.6-2.8z"/><path class="st3" d="M112.1 249.6c-1.7 2.7-.8 6.9 6.4 6.3 7.1-.6 7.3-4.6 5.3-6.3s-11.7 0-11.7 0zM131 249.9c-2.6 2.8-3.2 8.2 3.7 7.2s6.9-6.8 2.4-8.3l-6.1 1.1z"/><path class="st4" d="M131.9 251.9c-.7 1.6 1.2 3.2 1.8 1.2.5-2.1-1.2-2.8-1.8-1.2z"/><path class="st5" d="M101.9 241.1c2.5 3.2 4.8 4.4 9.4 4.4s24.7-.4 24.7-.4c3.8 0 5.8 4.8-.8 5.4s-25.1.2-25.1.2c-4.3-.1-7 0-12.3-6.9-1.9-2.8 1.7-5.7 4.1-2.7z"/><path class="st3" d="M100.4 250.9c-6.2-.5-7.3.4-7.6 2.4-.3 2.1 1.4 3.4 7.6 3.9 6.2.5 7.8-.1 7.8-2.2 0-2-2.3-3.7-7.8-4.1z"/><path class="st4" d="M97.3 252.1c-3.2 0-2.4 2.5.6 1.9 3-.6 1.8-1.9-.6-1.9z"/><path class="st3" d="M93.5 263c-.2 3.8 3.2 4.8 7.4 4.7 4.2-.1 6.4-.5 6.4-2.8s-2.9-3.9-7-4.1c-4-.2-6.7 1-6.8 2.2z"/><path class="st4" d="M97.3 262.3c-2.2.5-2 2.5.5 1.9 2.5-.6 1.7-2.4-.5-1.9z"/><path class="st3" d="M101.7 272.6c-6.1-.8-8.2 2-5.7 4s8.6 2.6 11 1c2.5-1.7-1.5-4.5-5.3-5z"/><path class="st4" d="M98.7 273.8c-2.7.9-1.1 2.8.7 1.6 1.7-1.1.5-2-.7-1.6z"/><path class="st3" d="M116.7 260.1c-7.8-1-7.7 6.2-.4 6.7s8.6-5.6.4-6.7z"/><path class="st4" d="M115.1 261.5c-3.2.2-1.6 2.9.6 2 2.3-1 1.2-2.1-.6-2z"/><path class="st3" d="M114.9 279.1c-7.2-5.1-2.1-9.2 3.5-7.1 5.5 2 8.4 4.2 6.4 7.1h-9.9z"/><path class="st4" d="M116 273.1c-3.5.1-2.4 2.4 0 2.2 2.4-.4 1.3-2.3 0-2.2z"/><path class="st3" d="M127 265.1c3.5 2.3 7.3 1.9 11.4.3 4.1-1.6 1.4-5.5-2.6-4.7-4 .8-6.4-.7-8.3-.1-2 .5-2.7 3-.5 4.5z"/><path class="st4" d="M128.9 261.5c-2.1.6-1.7 2.6.4 2 2.2-.6 1.1-2.4-.4-2z"/><path class="st3" d="M130.5 271c-4.3 2.3-3.3 4.8-1.5 5.9s5.2 1.1 8.9.4 4.1-4.9.6-6.4-5.8-1-8 .1z"/><path class="st4" d="M132 271.8c-2.8 1.6.7 3.2 1.7 1.5s.1-2.5-1.7-1.5z"/><path class="st3" d="M141.3 244.7c1.9 2.4 3.2 2.7 8 2 4.7-.7 8.9 1.8 10.6-.4s1.5-5.8-6.3-5.9c-7.8 0-14.5-.6-12.3 4.3z"/><path class="st4" d="M144.8 241.8c-2.2.5-1.4 2.9 1 1.8 2.3-1.2 1.2-2.3-1-1.8z"/><path class="st3" d="M144 254.6c.7 3.3 4.1 2.2 8.9 2.6s5.9-.1 6.5-2 .3-2.7-4-4.3c-4.3-1.5-12.2-.7-11.4 3.7z"/><path class="st4" d="M148.1 252.1c-2.1 1.1 0 3.3 1.6 1.7 1.5-1.5 0-2.5-1.6-1.7z"/><path class="st3" d="M144 264.2c0 3 5.9 3.8 10.5 4.3 4.5.5 7.2-.5 6.9-3.3-.3-2.8-4.3-3.5-9.5-3.4-5.3 0-7.8-.3-7.9 2.4z"/><path class="st4" d="M148.8 263c-3.1.6-2.8 2.5 0 1.9 2.7-.6 2.2-2.4 0-1.9z"/><path class="st3" d="M145.7 275.2c2.5 2.3 5.3 1.9 10.7 1.2 5.4-.6 5.3-3 2-4.4-3.2-1.4-5.6-.9-8.6 0-2.9 1-6.1 1.4-4.1 3.2z"/><path class="st4" d="M149.8 273.5c-2.4.9-.7 2.8 1 1.7 1.7-1 1-2.4-1-1.7z"/><path class="st3" d="M153.7 139c-1.1 4.3-.1 5.8 5.2 6.3s6.4 0 6.4 0l-11.6-6.3zM175 150.9c-3 4.2-2.3 7.3 3 7.5 5.3.2 8-.3 8.1-1.7s-11.1-5.8-11.1-5.8zM195.4 162.8c-6.9 1.5-6.4 6.4-4.2 7.6 2.2 1.2 8.8.9 8.8.9v-8.1l-4.6-.4z"/><path d="m88.2 71.8-68.1 64.6c-5 4.7-2.4 8.4.7 12.8 3.1 4.5 19.3 28.2 19.3 28.2 2.2 4.4 4.1 4.1 7.6.9s66.5-61.8 66.5-61.8l82 47.9c4.9 3 10.6-.8 6.2-7.1s-19.1-30.1-19.1-30.1c-2-2.9-2.5-3.5-8.5-7.1-6.2-3.5-86.6-48.3-86.6-48.3z" style="fill:#9cdd98"/><path class="st3" d="M132.9 139.8c-.2 4.5 4.9 5.3 10.2 5s8.7-2.7 5.3-5.7c-3.4-3-15.2-5.9-15.5.7z"/><path class="st4" d="M136.7 137c-2.7.9-1 3.7 1.4 2.1s.8-2.9-1.4-2.1z"/><path class="st3" d="M133.8 153c.1 5.2 6.3 4.9 10.9 4.6s6.7-1.7 6.5-5.2c-.2-3.5-3.8-4.9-8.4-4.6-4.5.3-9 1-9 5.2z"/><path class="st4" d="M139.6 149.4c-3.4.1-2.7 2.9.6 2.6 3.3-.2 3.1-2.7-.6-2.6z"/><path class="st3" d="M143.1 160.5c-10.4.9-10.1 8.4.4 7.4 10.4-1 8.8-8.2-.4-7.4z"/><path class="st4" d="M140 162.9c-2.7 1.2-1.5 2.5.3 1.6s1-2.2-.3-1.6z"/><path class="st3" d="M142.8 172.7c-6.4.1-9.7 4-3 6 6.7 2 11.1.3 11.1-2.7s-3.2-3.3-8.1-3.3z"/><path class="st4" d="M139.6 174.3c-2.4.4-.5 2.6.8 1.6 1.2-.9.7-1.8-.8-1.6z"/><path class="st3" d="M143.5 184.1c-6.6-.2-9.5 4.1-6.8 6.6s9.4 3.3 11.8 1.6c2.4-1.8 3.6-8-5-8.2z"/><path class="st4" d="M140.4 186.1c-3.5.6-2.1 2.6.3 1.9 2.4-.7 1.1-2.2-.3-1.9z"/><path class="st3" d="M156.1 179.4c-2.4-4.7 1.4-6 7.7-5.5 6.2.6 7.4 2.1 6.3 5.2l-14 .3z"/><path class="st4" d="M158.5 175.2c-1.8 1.1-1.2 3.5 1.1 2.2 2.2-1.2.7-3.2-1.1-2.2z"/><path class="st3" d="M174 179.1c-.6-5.9 6.8-5.7 9.2-2.9 2.4 2.7 4.5 8-1.1 8.6l-5.8-2-2.3-3.7z"/><path class="st4" d="M178.3 175.5c-3.3.3-1.9 2.4.4 1.6 2.4-.7.5-1.6-.4-1.6z"/><path class="st3" d="M162.3 185.7c-7.2.7-8.1 1.8-8.3 4.7-.2 2.9 2.9 5 8.3 4.5s7.7-1.2 8.2-4.6c.4-3.4-4.5-5-8.2-4.6z"/><path class="st4" d="M157.5 188c-1.9 1.2-.7 4 1.3 2.3 2-1.6.7-3.6-1.3-2.3z"/><path class="st3" d="M177.3 187.1c-5.5.4-4.5 6.3-.6 7.9 3.9 1.6 7.5.6 7.8-1.5s-.7-6.9-7.2-6.4z"/><path class="st4" d="M177 189.2c-1.8 1-1.9 2.4.5 1.7s.7-2.4-.5-1.7z"/><path class="st3" d="M169.2 199.1c-3.4-1.9-6.1-.2-6.7.7-.6.9 4.4 3.3 4.4 3.3l2.3-4z"/><path class="st5" d="M154 185.3c6.8-2.2 18.5-2.8 23.7 2.6 2.2 2.9 8.3-.4 3.7-5-9.8-8.5-22.2-5.8-29.2-2.9-4.9 1.7-3.1 6.9 1.8 5.3z"/><path class="st3" d="M185.9 200.2c4.7-3.4 11.9-1 12.2 2.7s-5.9 5.1-9.9 3.6c-4-1.5-2.3-6.3-2.3-6.3z"/><path class="st4" d="M190.7 200c-2.5 1-2.2 3.4.4 2.2s.9-2.7-.4-2.2z"/><path class="st3" d="M183.1 220.4c5.6.2 13.8.9 14.5-1.6.7-2.5 1.1-7-2.8-8.1-4-1.1-7.9-1.8-7.9-1.8l-3.8 11.5z"/><path class="st4" d="M188.3 212.5c3.1 1.6 4.2-1.2 1.6-1.7-2.8-.5-2.9 1.1-1.6 1.7z"/><path class="st3" d="M164.6 234.8c4.4 1.2 9.8.4 11.3-1.3 1.5-1.7 1.2-4.9-.9-5.5s-10.4 6.8-10.4 6.8z"/><path class="st7" d="M91.6 201.1c-17.8-13.7-32.7 2.1-20.7 17 10.2 13.5 19.3 18.6 25.5 17.8 6.2-.8 19.3-13.1 22.3-25.2 3.6-12.9-12.8-27.4-27.1-9.6zM165.1 201.1c17.8-13.7 32.7 2.1 20.7 17-10.2 13.5-19.3 18.6-25.5 17.8-6.2-.8-19.3-13.1-22.3-25.2-3.6-12.9 12.8-27.4 27.1-9.6z"/><path class="st7" d="M119.1 205.2c6.1-2.9 14.4-1.9 18.4 0l3.8 5.5-2.4 3.2c-6.6-5-16.1-3.8-21.3 0l-3.3-3.5 4.8-5.2z"/><path class="st8" d="M72.3 204c-4.6 4-.7 9.5 4.3 5.9l4.9-3.7c3.2-2.6-.7-7.7-5-5.2-1.7 1-3.7 2.5-4.2 3zM142.4 201c-2.7 4.7 2.1 6.5 4.5 4.6 2.4-1.9 4.5-1.9 5.9-1.9 1.5-.1 5.5-2.9 2.1-5.6-3.3-2.7-7-1.9-8.8-.7-1.8 1.2-3 2.4-3.7 3.6z"/><path class="st3" d="M154.7 152.5c-.1 5.2 5.3 5.5 8.2 5.3 2.8-.2 7.8-.8 7.5-4.2-.3-3.3-3.2-5.4-8.2-5.4s-7.4.8-7.5 4.3z"/><path class="st4" d="M158.9 149.6c-3 .7-1.5 4.3 1.5 2.8 3-1.6.9-3.4-1.5-2.8z"/><path class="st3" d="M161.2 161.3c-6-.2-7.6 1.5-7.6 4.5s2.8 5.1 8.3 4c5.5-1.1 7.4-2.3 7.2-5.5s-4.8-2.8-7.9-3z"/><path class="st4" d="M157.3 163.2c-2.8 1-1.1 3.5.8 2.3s1.4-3.1-.8-2.3z"/><path class="st3" d="M171.9 167.1c-.3 4.2 3.8 4.9 8 4.3s7-1.6 6.5-4.8c-.4-3.2-3.3-3.6-8.3-3.2-4.9.5-6.1 1.9-6.2 3.7z"/><path class="st4" d="M176 165.4c-2.2 1 .1 3.5 1.6 2s.9-3.1-1.6-2z"/><path class="st3" d="M199.9 176.6c-4.1-2.1-11-1.2-10.9 1.9s.8 4.6 4.9 4.6c4.1 0 6-.5 6-.5v-6z"/><path class="st4" d="M191.8 177.3c-2 .9-.6 3.1.6 1.9 1.3-1.1 1.1-2.6-.6-1.9z"/><path class="st3" d="M188 190.3c-.1 4.7 5.1 4.8 6.8 3.9s2.9-2.8 2.3-6.1-4.2-2.3-5.8-1.4c-1.5.8-3.2 1-3.3 3.6z"/><path class="st4" d="M190.1 188.6c-1.5 1.7.3 3.3 1.2 1.7 1-1.7-.2-2.8-1.2-1.7z"/><path class="st3" d="M181.6 228.4c-.6 4.2 4.8 4.9 8.5 4.6s6.7 0 6.7-4.3-3.7-5-8.1-4.5c-4.3.5-6.6.9-7.1 4.2z"/><path class="st4" d="M186.7 225.7c-2.9.5-.9 2.8 1.3 2.3 2.1-.5 1.8-2.9-1.3-2.3z"/><path class="st3" d="M164.6 241.7c-.8 4 4.2 4.9 7.2 4.2s5.4-1.4 4.5-5c-.9-3.7-4.9-3.2-7.1-2.5-2.2.7-4.2 1.5-4.6 3.3z"/><path class="st4" d="M167.7 239.8c-1.9.9-.1 2.6 1.2 1.7 1.3-1 .5-2.5-1.2-1.7z"/><path class="st3" d="M181.3 240.7c0 4.3 1.6 5.8 8.1 5.4 6.5-.4 8.5-.7 8.1-4.4-.4-3.7-1.1-6.6-7.4-6.2s-8.8.7-8.8 5.2z"/><path class="st4" d="M184.7 237.2c-2.8 1.6-.9 4.1 1.3 2.4 2.1-1.7.6-3.5-1.3-2.4z"/><path class="st3" d="M180.7 253.1c-.6 4.6 5 5.4 10.4 4.9s6.5-2.8 6.4-4.9c-.1-2-1.6-4.5-8.9-4.5-7.3-.1-7.5 1.8-7.9 4.5z"/><path class="st4" d="M185.2 250.3c-3 .6-1.7 3.1 1 1.9 2.7-1.3 1-2.4-1-1.9z"/><path class="st3" d="M164.5 252.5c-.5 2.9 4.5 3.6 7.2 4.9 2.7 1.3 5.2-.4 4.7-3-.4-2.7-2.1-4.7-6.6-4.7-4.3-.1-5.1 1.4-5.3 2.8z"/><path class="st4" d="M168.5 250.9c-2.2.3-1.9 2.6.7 2.2 2.6-.5 1.2-2.5-.7-2.2z"/><path class="st3" d="M165.7 262.9c-.7 4.7 3.5 5 6.2 4.6s4.2-.3 4.1-3.2c-.1-2.9-2.6-3.9-4.8-4s-5.1.2-5.5 2.6z"/><path class="st4" d="M168.8 261.8c-1.9.9-1.1 2.4.3 1.8 1.4-.7 1.4-2.7-.3-1.8z"/><path class="st3" d="M164.5 273.3c.5 3.4 2.3 4.5 6.3 4.2 4-.3 6.1-.4 5.7-3.1-.4-2.7-1.4-3.8-5.7-3.9-4.3 0-6.5 1.1-6.3 2.8z"/><path class="st4" d="M167.7 272.1c-1.7.6-.7 2.7.8 1.9s1.2-2.6-.8-1.9z"/><path class="st3" d="M179.7 265c-.2 4.4 4 4.7 9.5 4.3 5.5-.4 9-.2 8.9-4.3-.1-4-3.9-4.5-10.1-4.3-6.4.2-8.1.8-8.3 4.3z"/><path class="st4" d="M183.9 262.2c-2.4 1.5-1.3 2.8.8 1.8 2-1 .3-2.5-.8-1.8z"/><path class="st3" d="M189.4 272.8c-7.1.2-9.1.3-9.3 3.2-.2 2.8 10.6 2.5 14.1 1.6 3.5-.9 3.7-2.5 3.3-3.6s-5.1-1.3-8.1-1.2z"/><path class="st4" d="M183 274.4c-1.6.5 0 2.5 2.6 1.1 2.5-1.3.1-1.9-2.6-1.1z"/><path d="M96.4 86.5c4.8 9.2-.4 16.7-22.2 22.5-4.4 1.2-7.7 3.6 1.2 2.1s17.3-6.7 18.6-7.8c-4.5 12.1-19.2 24.2-28.3 29.2S44.1 147 42.3 151.9c-1.8 4.9.8 3 3.1-.1s11.7-11.2 21.2-16.1 33.5-25.5 34.2-41.9c3.9 7.6 9.4 18.6 10.4 20.7 1.4 3.4 4.4 2.1 2.9-.8s-8-16.4-8-16.4c9.6 11.3 24.8 19.4 29.2 21.1 4.4 1.8 8.5 7.1 11.1 9.8 2.6 2.7 4.9 2.4 2.3-.5-2.6-2.9-4.3-5.2-4.9-5.8 7 3.2 12.6 4.3 17.5 5.9 4.8 1.7 15.8 10 18.4 13.5 1.6 2.1 4.7.8 2.1-2.1-2.6-2.9-12-12.5-29.6-17.1-17.6-4.6-44-22.1-51.6-34.8-1.5-2.4-1.7-4.1-3.6-3.7-1.8.2-.9 2.2-.6 2.9z" style="fill:#7bbe79"/><path d="M60.2 131.3c2.8-2.4 6.2-4.2 6-8.7s-4.8-29-3-37.5 8-15.6 16.7-18.2c8.7-2.6 26-19.3 20.6-41.9-2.4-8.8-7.5-6.6-9.7-1.9s-4.8 12.6-10 15.1-25.5 16.2-27.6 24.1C49.4 32 42.4 18.6 29.7 14.2S13.1 5.8 10.4 2.3-.3-1.5 0 7.2s1.9 12.5 8.2 19.3 7.4 14.5 7 23.5 4.6 21.6 15.6 28.5c11 6.9 20.6 15 21.8 21.9 1.2 6.9 1.9 24.3 3.1 28.1 1.1 3.8 2.4 4.4 4.5 2.8z" style="fill:#7ac079"/><path class="st11" d="M91.8 19.7c-3.9 4.9-4.2 5.5-5.4 8.5s-2.7 6.8-7.2 9.3C74.6 40 54.5 52.6 52.5 63.1s-1.4 13.7 1.1 13.5c2.4-.2 3.2-3 4.2-4.9.9-1.9 4.7-7.2 12.7-10.6 8-3.4 18.9-11.4 21-19.4.8-3.4-1.1-3.4-1.9-.6s-4.4 9.3-10.2 12.1C73.5 56 58.6 63 54.7 71.8c-.9-8.6 1.4-15.3 16.1-24.7s15.7-12 19.5-19.9c1.5-3.9 1.6-3.7 3.3-5.2 1.7-1.6.4-5-1.8-2.3zM17.1 17.1c9 9.1 13.5 17.1 14.1 24.5.6 7.4 5.5 16.8 8.6 21.7S52.4 82.8 53.9 95c1.6 12.2 2.6 28.6 3.1 32.7.5 4.2-1.4 6.2-2.4.4-.9-5.7-1.5-25.5-4.7-30S40.2 86 28.2 78.5 13.7 58.2 13.9 51.8c.1-6.4 2.5-4 2.4.4-.1 4.4 2.9 15.6 10.2 21.5s20 13.1 23.8 19.7c-3-13.1-8.5-22-13.3-29.7s-8.1-16.8-8.5-23.1S21 24.3 15.8 18.8c-2.4-2.6-.9-3.8 1.3-1.7z"/><path class="st4" d="M192.6 165.3c-1.1 2.4.8 3.4 2.2 1.7 1.5-1.8-1.5-3-2.2-1.7z"/><path d="M188.5 271.8c-19.6 10.7-8.2 30.5 6.8 23.8 40.2 17.9 44.9-37.7 17.4-38.2-5.1-17.6-31.9-11.5-24.2 14.4z" style="fill:#fff"/><path class="st13" d="M209.7 256.3c-9.7 2.6-12.5 9.2-13.1 13.2s1.8 2.5 4.1-1.2c2.2-3.6 9.2-7.8 11.6-8.3s1.5-5.3-2.6-3.7zM195.3 295.5c-1.9-5.2-2.2-8.5-1.8-11.6.4-3.1 2.9-3.6 3.4.8s1.7 7.6 3 9.8c2.1 3.4-3.2 5.3-4.6 1z"/></svg>