<svg version="1.1" id="Layer_1" xmlns="http://www.w3.org/2000/svg" x="0" y="0" viewBox="0 0 251.2 239.4" style="enable-background:new 0 0 251.2 239.4" xml:space="preserve"><style>.st0{fill:#f87e77}.st1{fill:#ffb1a1}.st2{fill:#e16e5c}.st3{fill:#cc5341}</style><path class="st0" d="M68.6 125.9v100c0 7.2.9 10 7.8 10h144.9v-120l-79.2-38.3-73.5 48.3z"/><path class="st0" d="M232.5 162.7c12.1 23.8 5.9 59.1-16.6 75.1 45.3-12.8 32.4-66.2 16.6-75.1z"/><path class="st1" d="M240 204.2c-3.2 6.9 3 7.4 4.5 1.5s-1.4-8.2-4.5-1.5zM238.4 217.5c-5.3 7.2 2.5 8.6 4.5 2.7 2-5.9 0-8.8-4.5-2.7zM229.6 230.1c-6.2 3.7-.5 6.7 2.6 3.3s2.6-6.5-2.6-3.3z"/><path class="st2" d="M221.3 115.9v48.8c-7.2 28.3-17.8 42-39.3 33.4s-52.9-20.8-79.2 0c-5.5 5.1-1.1 8.5 5.3 8.7 6.4.2 26.6 5.7 54.9 20s44.8 13.9 52.8 11c8-2.9 33.1-28.3 19.2-75.1v-65l-7.3 10.8-6.5-4.2v11.6z"/><path class="st0" d="M97.9 92c-7.2-10.2-2.1-21.6 7.7-32.1s4.4-17.2-10-15.8c-14.5 1.4-25.5-.2-26-15.7S81.7 4.5 84.4 3c2.7-1.5 7.3-1.7 3.1 2.5-4.3 4.3-4.3 16.8-4.3 16.8l12 .8-5.1 8.3 42 .4-2.1 12.1-6 38.3L97.9 92z"/><path class="st2" d="M84.5 5.8c-8.8 11.4-7.5 31 18.5 30s25.3 22 13.6 31.3-6.9 20.5-6.9 20.5l22.9-14.4c-3.6-8.1-.7-11.6 2.9-15.5 19.6-21.6 1.4-47.3-24.9-42.8-16.7 3.1-20.3-1.6-20.3-8.3s-3.1-5.3-5.8-.8z"/><path class="st1" d="M71.1 15.2c-4 6.7 2.3 8.3 4.4 1.7s-.8-7.6-4.4-1.7zM70.8 32.1c1 7.8 8.3 2.8 5.8-1.8s-6.5-3-5.8 1.8zM87.4 40.7c-6.8-.6-4.8 6.4.8 6.1s5.7-5.5-.8-6.1zM112.1 43.8c-5.2-6.6-9.5-1.1-4.9 3.2 4.7 4.2 8.3 1 4.9-3.2zM113.5 55.6c-3.7 6.6 3.5 8.2 4.9 2.4 1.4-5.8-2-7.8-4.9-2.4zM97.2 67.5c-4.2 6.2 3.1 7.1 4.6 1.5 1.6-5.5-1.2-6.5-4.6-1.5zM99.1 83.3c.3 6.8 6.1 4.8 5.2-.6-.9-5.2-5.5-5.6-5.2.6z"/><path class="st0" d="M62.7 81.1C22.3 79.1 6.3 99.3 1.6 121c-3.8 19.2 16 26.6 30.6 24.8l-13.4-26.6 25.4-20.7-4-7.5 22.5-9.9z"/><path class="st2" d="M89.7 96.4c-22.2-22.9-44.5-19.2-66.5 3.8-18.7 21.2 1.1 44.8 12.4 46.5s14.3 3.4 17 5.4c2.7 2 7.5-1.9 3.6-6.6-3.9-4.7-19.8-16.2-17.9-24.2 1.9-8 15.6-17.1 35.4-3.6l11.5-7.9-.9-7.5 7.9.8-2.5-6.7z"/><path class="st1" d="M28.8 83.8c-6.7 4.1-.5 6.2 3.1 3.1s2.7-6.6-3.1-3.1zM14.8 99.6c-4 4.7 2.2 6.1 4.3 1.9s-.3-6.7-4.3-1.9zM4.3 107.2c-4.5 5.9 3.9 6.7 4.8 1.7s-1-6.7-4.8-1.7zM7 120.9c.2 8.2 5.4 4.1 5.1 0-.4-4-5.2-5.6-5.1 0zM.4 131.7c1.8 6.6 7.2 2.1 4.4-2.6s-5.9-2.6-4.4 2.6zM11.5 138.8c2.2 4.8 6 2.5 4.1-1.5-2-4.1-6.1-2.9-4.1 1.5z"/><path class="st3" d="M154.9 53.6 90 94.8c-8.4 5.2-7.9 6.9-10.8 11.2-2.9 4.3-14.8 19.3-14.8 19.3-3.3 5.2-.1 7.8 6.4 3.5s70.8-46.5 70.8-46.5l72.6 41.1c4.5 2.4 5.2 2 8.9-3.3 3.7-5.4 16.1-21.4 16.1-21.4 3.5-4.7-3-6.7-6.8-8.7-3.7-2-67-37.5-67-37.5-5-2.7-8.4-.3-10.5 1.1z"/><path class="st2" d="M214.5 68.9c4.4-2.8 18.5-6.5 17-27.3-1.4-18.9 10-34.6 19.7-39-.2-1.9-2.9-2.9-8-2.4-20.7 2.2-26.3 21.8-25.9 35.4.4 13.6-6.5 18.2-13.6 19.9s-13.6 2.4-20.7 18.8c-.8 1.7-1.5 4.4-.9 7.1 1.3 4.3 5.9 8.6 10.7 11.7 4.6-15.2 17.2-21.4 21.7-24.2z"/><path class="st0" d="M231.5 41.5c1.5 20.8-12.6 24.5-17 27.3-4.4 2.8-17 9-21.7 24.3 3 1.9 6 3.4 8.3 3.9 5.8 1.5 6.6 2.2 11.9-8.8 5.3-10.9 13.8-15.2 22.9-21.8 9-6.6 6.1-27.3 6.5-39.9.4-12.6 1.9-15.8 6.5-19.8 1.8-1.6 2.6-3 2.4-4.2-9.8 4.5-21.2 20.2-19.8 39z"/><path class="st1" d="M238.2 21.9c-1.1 7.7 6 5.3 5.8 0-.1-5.4-4.8-7-5.8 0zM235.4 37.7c-.2 9.5 6.7 5.3 6.1 0-.6-5.3-6-7.8-6.1 0zM235.2 58.4c-4.2 7.2 2.3 11.5 5 3 2.7-8.4-.8-10.2-5-3zM218 69.5c-8.8 6-.6 10.2 4.6 5.2s2.1-9.8-4.6-5.2zM208.6 86.5c-7.6 7.9 2.4 10.5 6.1 4.2 3.7-6.2-.2-10.3-6.1-4.2z"/><ellipse class="st3" cx="118.2" cy="160.5" rx="6.6" ry="8.2"/><ellipse class="st3" cx="173.1" cy="160.5" rx="6.6" ry="8.2"/><path class="st3" d="M146.4 176.8c8.2 0 11.2-5.1 12.4-7.7 1.1-2.6-1.6-5.1-3.2-1.4-1.6 3.8-4.8 6-9.2 6-4.3 0-7.6-2.3-9.2-6-1.6-3.8-4.3-1.3-3.2 1.4 1.2 2.6 4.2 7.7 12.4 7.7z"/><path class="st1" d="M85.4 167.5c-1.7 4.3 3.3 6.1 5.2 1.2l1.6-3.9c1.6-3.3-3.6-5.2-5.2-1.2l-1.6 3.9zM93.8 167.5c-1.7 4.3 3.3 6.1 5.2 1.2l1.6-3.9c1.6-3.3-3.6-5.2-5.2-1.2l-1.6 3.9zM102.1 167.5c-1.7 4.3 3.3 6.1 5.2 1.2l1.6-3.9c1.6-3.3-3.6-5.2-5.2-1.2l-1.6 3.9zM182.2 167.5c-1.7 4.3 3.3 6.1 5.2 1.2l1.6-3.9c1.6-3.3-3.6-5.2-5.2-1.2l-1.6 3.9zM190.5 167.5c-1.7 4.3 3.3 6.1 5.2 1.2l1.6-3.9c1.6-3.3-3.6-5.2-5.2-1.2l-1.6 3.9zM198.9 167.5c-1.7 4.3 3.3 6.1 5.2 1.2l1.6-3.9c1.6-3.3-3.6-5.2-5.2-1.2l-1.6 3.9z"/></svg>