<svg version="1.1" id="Layer_1" xmlns="http://www.w3.org/2000/svg" x="0" y="0" viewBox="0 0 195.9 194.8" style="enable-background:new 0 0 195.9 194.8" xml:space="preserve"><style>.st0{fill:#644d49}.st1{fill:#fc7c58}.st4{fill:#f7bdaa}.st6{fill:#ba9d97}.st7{fill:#95523b}.st8{fill:#fcd653}</style><path class="st0" d="M64.1 25.1C49.6 8.5 36.6 2.6 26 1.4s-12.4 3.4-14.3 9.3-3.8 28.9 9.6 43.9l32.9-17.1 9.9-12.4z"/><path class="st1" d="M54.3 115.7c6-3.4 19.9-7.9 34.3-1.6 14.4 6.4 50.4 14.7 63.1 1.3V69.7l-77-40-69.5 47V120c17.5 6 43.1-.9 49.1-4.3z"/><path d="M88.6 114.1c-14.4-6.4-28.3-1.8-34.3 1.6-6 3.4-31.6 10.3-49.2 4.3v44.6c0 9.7 4.6 9.6 12.9 9.6h133.5v-58.7c-12.5 13.4-48.5 5-62.9-1.4z" style="fill:#ffded7"/><path style="fill:#e76e42" d="M151.7 69.7v45.8l17.9-12V54.1z"/><path class="st4" d="m151.7 174.2 17.9-19.7v-51l-17.9 12z"/><path d="M90.9 7.1 27.2 50c-5.3 3.5-8.2 7.1-10.8 9.7C13.7 62.4.9 76.1.9 76.1c-2.9 3.3 1.8 6.6 7.3 3.3s67.2-44 67.2-44l69 39.8c4.9 3.1 6.6 2.7 11.5-1.5s19-18.6 19-18.6c4-4-.9-6.9-5.3-9.5S100.9 7.1 100.9 7.1c-4.2-2.9-7.9-1.4-10 0z" style="fill:#d45925"/><path class="st0" d="M152.3 48.5c-4.1 6.9-8.3 9.1-12.8 6.6l-1.1-.6L109 36.9l-4.8-2.8c-1.6-1.1-2.5-2.5-1.1-6.1 9.9-17.6 27.2-24.9 34.1-26.5 6.8-1.5 14.1-3.3 17 2 7.5 15.6 2.2 38.1-1.9 45z"/><path class="st6" d="M138.5 54.5 109 36.9c8.6-15 14.9-21.3 29-24.2 7.7-1.4 9.8 2.4 10.2 7.7.3 5.4 1 21.7-9.7 34.1zM27.2 50c-9.5-13.7-6.4-28.4-6.1-32 .3-3.7 4-4.4 9.1-3.8 5.1.6 14.5 2.1 25.6 16.5L27.2 50z"/><path class="st1" d="M194 174.2c-7.7 22.1-38.5 25.3-59.1 14.8-4.8-2.4-9.6-4-14.4-4.8-15.8-2.8-30.8 1.5-38.5 3.5-10.1 2.6-11.1-2-5-15.9 7.4-15.6 17.3-24.3 27.5-29 16.7-7.6 33.9-4.4 41-3 11.5 2.3 19.8 1.9 24.1-1.9v-12c14.2 3 32.1 26.2 24.4 48.3z"/><path class="st4" d="M120.5 184.1c-15.8-2.8-30.8 1.5-38.5 3.5-10.1 2.6-11.1-2-5-15.9 7.4-15.6 17.3-24.3 27.5-29 6.9 2.3 5.9 9.7 5.3 11.6 8.3-.2 14.3 10.3 6 18.7 4 2.9 5.3 8.3 4.7 11.1z"/><path class="st7" d="M71.7 107.6c18.7 0 15.4 13.9 4 18.4v3.2c4.7 4.4 10.9 4.1 14.8 1.4 3.9-2.7 6.8 1 4.1 4-6.1 6.4-16.5 5.4-22.8-.8-6.3 6.2-16.7 7.2-22.8.8-2.7-3 .2-6.7 4.1-4 3.9 2.7 10.1 3 14.8-1.4V126c-11.7-4.5-14.9-18.4 3.8-18.4z"/><path class="st8" d="M49 104.1c-2.6 2.4-5.2 3.7-7.6 4.2-1.5.3-2.9.4-4.2.2-3.7-.4-6.7-2.2-8.2-3.7-3-2.9-3.8-5.3-1.4-8.3 2.8-3.7 6.2-5.6 9.6-5.7 1.4-.1 2.8.1 4.2.6 2.6.9 5.2 2.7 7.6 5.4 1.3 1.4 2.4 4.6 0 7.3z"/><path class="st7" d="M41.4 91.5v16.9c-1.5.3-2.9.4-4.2.2V90.9c1.4-.1 2.8.1 4.2.6z"/><path class="st8" d="M94.5 104.1c2.6 2.4 5.2 3.7 7.6 4.2 1.5.3 2.9.4 4.2.2 3.7-.4 6.7-2.2 8.2-3.7 3-2.9 3.8-5.3 1.4-8.3-2.8-3.7-6.2-5.6-9.6-5.7-1.4-.1-2.8.1-4.2.6-2.6.9-5.2 2.7-7.6 5.4-1.3 1.4-2.4 4.6 0 7.3z"/><path class="st7" d="M102.1 91.5v16.9c1.5.3 2.9.4 4.2.2V90.9c-1.4-.1-2.8.1-4.2.6z"/></svg>