<svg version="1.1" id="Layer_1" xmlns="http://www.w3.org/2000/svg" x="0" y="0" viewBox="0 0 194.3 201.9" style="enable-background:new 0 0 194.3 201.9" xml:space="preserve"><style>.st3{fill:#7d4a2e}.st4{fill:#f49789}.st11{fill:#e4d8cd}.st12{fill:#a9c8a4}.st13{fill:#fff380}.st14{fill:#bdc1d1}.st15{fill:#ffb0a4}</style><path style="fill:#e6b265" d="M22 189.8 4.4 165.3V61.8l12-2.2-3.2 10.6 7.9 6.9z"/><path d="M170.1 75.4v105.3c0 8.9 0 11.2-10.4 11.2H28.8c-6 0-7.7-1.5-7.7-6.3V77.1l74.1-48.7 74.9 47z" style="fill:#f7c97d"/><path d="M70.3 4.7 4.4 55.6c-5.8 4.2-4.9 5.1-3.1 8 1.8 2.9 15.3 22.8 15.3 22.8 3.1 4.4 6 3.3 10.4 0s66.1-49.5 66.1-49.5l73.7 40c6.6 3.5 8.8-.7 4.4-7.5-4.4-6.9-12.6-19.7-12.6-19.7-2.7-4.4-8.8-6.4-13.1-8.4S77.2 4.7 77.2 4.7c-3.8-2.7-4.9-1.5-6.9 0z" style="fill:#956042"/><path class="st3" d="M66.9 117.8c4.1-8.1 9-4.6 12.4 1.8 2 4.2 6.4 0 4-3.3-9.2-12.7-17.9-7-20.9-1.1-3 4.7 1.9 8.3 4.5 2.6zM135.3 117.8c-4.1-8.1-9-4.6-12.4 1.8-2 4.2-6.4 0-4-3.3 9.2-12.7 17.9-7 20.9-1.1 3.1 4.7-1.9 8.3-4.5 2.6zM95.6 121.4c3.5 5.7 9.3 4.3 11.8 0 2.3-4.2 6.8-1.8 4.3 2.4-7.1 11.6-17.1 5.2-20 .3-2.6-4 1.8-6 3.9-2.7z"/><path class="st4" d="M49.6 124.7c-10.3-8.1-14.6 8.3.9 12.7 15.7-8.1 5.9-22.8-.9-12.7zM154.3 124.7c10.3-8.1 14.6 8.3-.9 12.7-15.7-8.1-5.9-22.8.9-12.7z"/><path d="M179.1 201.9h10.3c9.4-13 7.8-44.7-28.9-44.7l19.6 15.5.9 8.7 2.8-.3-4.7 20.8z" style="fill:#8bcf80"/><path d="M141.5 201.9h39.9c18.1-27.2-6-44.7-20.9-44.7-18.5 0-39.1 22.4-19 44.7z" style="fill:#b2e2a9"/><path d="M162.1 201.9c15.3-10 8.5-26.7-1.6-26.7s-10.5 6.3-10.5 7.7c0 1.4 1.1 5.6 5.8 5.6s2.5-2.9 1-4.1c-3.4-2.7 1.8-7.8 5.7-3.1 4 4.6 2.8 14-7.6 14-10.4 0-11.9-9-11.9-13.1 0-4.2 4.4-14 18.1-14 12.7 0 16.1 14.3 16.1 20.7 0 6.5-6 13-6 13h-9.1z" style="fill:#fff5ff"/><path d="M54.7 48.9c-16.6 17.2-27.9 13.4-34.9 7.9s-8.7-19 0-28.1l11.1-5.2 2-9.5c1.3-.5 18.2-4.4 27.9 1.7 2.5 1.6 4.5 3.4 5.6 5.6 3.4 6.2.6 14.9-11.7 27.6z" style="fill:#f3c77e"/><path d="M60.9 15.8c-9.8-6.2-26.6-2.3-27.9-1.7l-2 9.5-11.1 5.2c-8.7 9.1-7 22.6 0 28.1 1.5-1.7-1.3-3.5-1.6-6.5-.3-3.1.7-3.5 3.8-4.8.6 1.3 1.3 4.4 4.4 7.6 3.1 3.2 4-.5 2-2.4s-3.9-5.6-3.3-7.9c0 0 3.2-3.6 6.8-4 0 0-.9 5.1 2.1 9.1 3.1 4 5.6.4 3.7-1.7-1.9-2.1-3.2-4.5-2.7-8 .8-.3 3.5-2 9-2.3 0 0-1.6 5.3.7 7.6s6.2.9 4.4-1.1c-1.7-2-1.9-3.2-1.1-7.2 0 0 2.1-1.2 5.1.8 2.9 2 4.3.1 3.2-1.9-1.1-2-2.4-2.5-8.3-2.3.1-.9.7-3.6 1.9-5.8 1.2-.3 6.4-1.1 8 1.5 1.6 2.5 3.6 3.6 3.5 0s-3.4-5.3-9.5-5.7c2.4-4.1 6.1-5.5 8.8-1.5 2.7 4 5.8 3.6 5.8.9-1.3-2.1-3.2-3.9-5.7-5.5zM16.6 43c-.1-.8.5-5.9 2.2-8 .1.9.3 3.5 1 5.1-.1.1-1.8 1.2-3.2 2.9zm14.2-7.5c-4 1.3-7.3 3.2-7.7 3.5-.8-4-.2-6.5 0-7.3 2-1.4 6.5-3.3 7.7-3.3-.2 2.9-.4 6.4 0 7.1zM44 32.1c-2.9.1-9.2 1.9-9.2 1.9-1.2-3.1 0-6.8 0-6.8 5.4-2.2 10.5-1.7 11.3-1.6-1.4 2.5-2.1 5.4-2.1 6.5zM48 22c-3.4-1.2-10.2-.5-10.2-.5.5-3.3 3.8-6.4 3.8-6.4 4-.4 9.1.1 10.2.8C49.7 18 48 22 48 22z" style="fill:#e78c40"/><path d="M17.1 21.1c-2.4 10.3 8.9 11 17.2 5.1s11.5-12.3 6.6-15.3c-1.7-5-6-5.2-11.6-4.8C28.2-.3 21.9 0 16.8 1c3.8 2.3 2.1 5.8 0 8.1s-3.9 10.7.3 12z" style="fill:azure"/><path class="st11" d="M14.5 17.4c-.4-2.7 1.8-4.5 1.6-2.2s.7 3.8 1.6 4.1c3.2-2 7.4-3.2 10-3.1s1.2.8-2.2 1.7c-3.3.9-7 2.5-7.5 4.8s-2.3 3-1.1-1.7c-2.3-.9-2.4-3.6-2.4-3.6zM29.1 5.3c-3.3.7-4.9 3.4-5 4.5s1.3 1 2.1-.7 11.6-3.5 12.8 2c-2.4.3-4.2 1-5.3 2.7-1.1 1.7.3 1.5 2.8-.6s5.2-1.3 6.4 0c-.4-1.4-2-2.2-2-2.2-1.1-4.2-4.5-5.2-11.6-4.8l-.2-.9z"/><path class="st12" d="M26.7 22.4c1.9 1.7 2.8.8 1-1-1.8-1.8-2.9-.8-1 1z"/><path class="st13" d="M33.2 21.9c-2 2.7 0 3.2 1.4.7 1.3-2.5.5-3.4-1.4-.7z"/><path class="st14" d="M38.3 17.4c-2.9.2-3.4 1.4 0 1.5 3.4.1 2.9-1.7 0-1.5z"/><path class="st15" d="M24.1 25.5c-4.3-.5-3.4 1.1-.3 1.3s3.3-.9.3-1.3z"/><path class="st14" d="M27.7 11.9c1 2.5 2.6 1.7 1.4-.5-1.3-2.2-2.4-2-1.4.5z"/><path class="st15" d="M33.2 6.5c-2.3 3.4.1 3.8 1.8.6s-.4-2.7-1.8-.6z"/><path class="st13" d="M20.4 16.6c1.7 2 4 1.9 1.4-1s-3.1-1-1.4 1z"/><path class="st15" d="M17.3 10.1c2.1 2.8 3.6 2.3 1.2-.9s-2.9-1.4-1.2.9z"/><path class="st12" d="M19.7 6.1c3.2 1.1 3.8-.2.4-1.3s-1.8.8-.4 1.3z"/><path class="st14" d="M24.1 1.7c-1.5 2.2-.3 3.3 1.3.7s.5-3.4-1.3-.7z"/></svg>