<svg version="1.1" id="Layer_1" xmlns="http://www.w3.org/2000/svg" x="0" y="0" viewBox="0 0 168.4 203.7" style="enable-background:new 0 0 168.4 203.7" xml:space="preserve"><style>.st1{fill:#bc8960}.st3{fill:#e4b993}.st4{fill:#ad7e47}.st6{fill:#865924}.st7{fill:#ff9979}.st8{fill:#ffe07f}</style><path d="M163.9 63.8v106.4c0 4.7-1.3 9.3-3.8 13.2-4.8 7.5-13 19.1-18.5 19.6l4.7-135 17.6-4.2z" style="fill:#ae7e4b"/><path class="st1" d="M6 86.9v104.4c0 10.8 7.4 12.5 12 12.5h115.3c14.7 0 14.7-4.6 14.7-12.2V77.4L70.9 40.9 6 86.9z"/><path d="M86.5 23.3 24.8 63.8c-3.7 2.2-7.9 6.5-10.4 9.9C11.9 77 1.5 88.3 1.5 88.3c-3.2 4-.8 6.2 3.4 3.4s67.5-45.5 67.5-45.5l68 35.6c5.3 3 7.6 2.9 11.1-1.2 3.5-4 15.1-16.8 15.1-16.8 3.4-3.9 2.2-5.2-4.4-8.4-6.6-3.2-65-32.1-65-32.1-5.5-2.7-8.4-1.5-10.7 0z" style="fill:#875924"/><path class="st1" d="M154.3 15.9c-.1 4.1-.1 22.3-5.9 36.7-1.3 3.4-3 6.6-5 9.3-4.7 6.1-11.8 2.9-19.5-1.5-3.4-1.9-7.7-4.4-11.5-6.6-1.2-.7-2.3-1.3-3.4-1.9-3.5-2-6.2-3.5-7-3.9-2-1-2.9-4-1.5-7 9.9-21.9 26.2-35.3 39-40 5.7-2.1 9.3-.4 11.6 2.7 2.6 3.7 3.3 9.4 3.2 12.2z"/><path class="st3" d="M148.4 52.6c-1.3 3.4-3 6.6-5 9.3-4.7 6.1-11.8 2.9-19.5-1.5-3.4-1.9-7.7-4.4-11.5-6.6-1.2-.7-2.3-1.3-3.4-1.9l6-7.8c24.1-24 29.5-10.2 21.7-1.3 7.8-4.7 11.8 1.3 7.6 6.2 3.1 0 4.6 2.5 4.1 3.6z"/><path class="st4" d="M151 3.7c-22.3 10.4-33.9 27.7-38.6 50.2-5-2.8-9.3-5.3-10.5-5.9-2-1-2.9-4-1.5-7 9.9-21.9 26.2-35.3 39-40 5.7-2.2 9.3-.4 11.6 2.7z"/><path class="st1" d="M4.4 19.2c.5 4.1 2.1 22.2 9.1 36.1 1.6 3.2 3.6 6.3 5.8 8.8 5.2 5.6 12 1.8 19.3-3.2 3.2-2.2 7.2-5 10.9-7.6 1.1-.8 2.2-1.5 3.3-2.2 3.3-2.3 5.8-4 6.7-4.5 1.9-1.2 2.6-4.3.9-7.1C48.5 18.5 31.1 6.5 18 3c-5.9-1.6-9.3.4-11.3 3.7-2.5 4-2.6 9.7-2.3 12.5z"/><path class="st3" d="M13.5 55.2c1.6 3.3 3.6 6.3 5.8 8.8 5.2 5.6 12 1.8 19.3-3.2 3.2-2.2 7.2-5 10.9-7.6 1.1-.8 2.2-1.5 3.3-2.2l-6.7-7.3C20 22 15.7 36.2 24.4 44.4c-8.1-4-11.6 2.4-7 6.9-3.2.2-4.5 2.8-3.9 3.9z"/><path class="st4" d="M6.7 6.7c23.2 8.4 36.2 24.6 42.9 46.6 4.7-3.2 8.8-6.1 9.9-6.8 1.9-1.2 2.6-4.3.9-7.1C48.5 18.5 31.1 6.5 18 3c-5.9-1.6-9.3.4-11.3 3.7z"/><path d="M75.5 112.2c-15.4 9.3-23.7 16.9-23.7 26.5 0 10.4 14.7 10.2 20.3 10.2 5.7 0 15.1-3.2 18.6-6.2s.3-5.9-3-3.1c-3.3 2.8-31.1 9.7-31.1-1.1 0-10.8 18.4-20.8 21.9-22.9 3.5-2 .8-5.8-3-3.4z" style="fill:#9e6e34"/><path class="st6" d="M53.8 130.9c-4 0-6.4 2.5-6.4 5.8s3.7 4 6.4 4.2c2.7.2 7-2.5 7-6s-4.5-4-7-4z"/><circle class="st7" cx="17.2" cy="130.7" r="10.4"/><circle class="st7" cx="132.5" cy="130.7" r="10.4"/><circle class="st8" cx="36.2" cy="115.9" r="9.7"/><circle class="st6" cx="35" cy="114.8" r="6.3"/><circle class="st8" cx="111.3" cy="115.9" r="9.7"/><circle class="st6" cx="110.1" cy="114.8" r="6.3"/></svg>