<svg version="1.1" id="Layer_1" xmlns="http://www.w3.org/2000/svg" x="0" y="0" viewBox="0 0 265 238.4" style="enable-background:new 0 0 265 238.4" xml:space="preserve"><style>.st4{fill:#ffbdff}.st6{fill:#ff7aa4}.st8{fill:#ffbfd5}.st10{fill:#807bf5}.st14{fill:#ba8fac}.st15{fill:#ffeaff}.st17{fill:#e88c6f}.st18{fill:#ffdbab}.st20{fill:#ba9cb5}.st21{fill:#fcd0f2}.st22{fill:#b659d0}</style><path d="M69.5 153.6c-3.9-1.2-7.4 1.8-7.4 1.8l5.2 4.7 4.8-1.4-2.6-5.1z" style="fill:#a4c0bc"/><path d="M56.7 167.3c3.3 4.9 4.1 16.4 4.1 18.6-12.4-12.2-10.6-1-.4 7 .6 4.5.4 8.1.4 8.1l6.8-2.2 1.2-14.7 4.9.5v-13.1l-5.9 2.7c-1.1 1.4-1.3 4-1.3 4-1.2-4.6-5.2-10.9-6.1-11.9l-2.5-1-1.2 2z" style="fill:#91d390"/><path style="fill:#d57fee" d="M83.6 68.5v118.4l15 7.8V82.2z"/><path d="M98.6 82.2V197c0 8.5 2.6 10.6 10.9 10.6h140.6c10.3 0 9-8.8 9-12.4V68.7l-80.6-46.8-79.9 60.3z" style="fill:#eca2ff"/><path class="st4" d="M98.6 93.9c33.7 5.9 63.1-19.1 67.9-30.5 21.3 33.7 75.5 51.6 92.6 38.2V68.7l-80.6-46.8-79.9 60.3v11.7z"/><path d="M161.4 7.2 82.7 62.5c-3.4 2.4-2.3 4.9 1.6 9.5s11.3 14 11.3 14c2 2.9 4.7 3.6 9.6 0 4.9-3.6 78.5-55.7 78.5-55.7L256 71c4.9 2.8 7.8-1.5 3.9-6.2s-9.5-11.9-9.5-11.9c-3.3-4.6-6.9-6.7-13.4-10.3-6.5-3.6-66.6-36.1-66.6-36.1-2.9-1.8-5.6-1.7-9 .7z" style="fill:#7efad2"/><path class="st4" d="M137.9 21.5c-22.1-33.2-79-32.8-87.8 35.8-5.3 39.6-32.5 45.8-45.6 47.1-6.4.7-4.6 4.2-2.9 6.6 17.3 22.8 42.7 17.9 50 16.4s30.5-10 35.8-35.4-4.2-49.3 25.1-55.7l16.3 7.5 15.3-13.1-6.2-9.2z"/><ellipse class="st6" cx="137.9" cy="38.6" rx="6.2" ry="6.6"/><path class="st6" d="M133.4 34.1c-19.6-7.8-29.4 5.2-16 20.3s22 6.8 22.3-9.4l-6.3-10.9zM136.7 32.1C137 8.4 149 6 158.5 21.4s-1.7 22.7-14.9 20.1l-6.9-9.4z"/><path d="M71.3 134.2c-4.3-2.9-7.3 1.5-6.8 3.4-4.3-.8-5.5 5.6-2.3 8.3-2.6 6.2 3.1 7.2 4.8 5.9 3.5 3.6 6.8 1.2 7-.3 5 2.6 7.5-1.2 6.8-3.6 3.3.5 3.4-4.1.9-5.1.8-4-1.1-7.7-3.6-6.3-2.1-5.8-6.3-3.5-6.8-2.3z" style="fill:#ffa8c6"/><path class="st8" d="M70.8 147c-3-3.4-3.9-1.6-2.3.6-2.7 1-2.3 2.6.2 2.4.2 4.1 2.5 2.9 2.6.5 2.7 1 4.8-1.7 1.5-2.5.8-3.3.1-4-2-1zM63.9 143.9c-2.6-2.6-4.7-.5-1.9 1.5-3.2 2.2-.9 4.4 1.1 2.2 1.6 1.7 3.2 1 2-1.4 2.5-1.7 1.6-3.8-1.2-2.3zM65.6 137.1c-2.8-2-3 .8-.6 1.8-3.2 2.9.4 3.7 1.5 1.7 2.6 2 3.3.5 1.2-1.5 1-3-1.5-3.8-2.1-2z"/><path class="st8" d="M71.9 138.9c-4.3.1-2 2.7.1 2.1 1.4 2.8 3 1.6 2.9.1 2.8 1.5 2.5-.4.9-1.1 2-1.7 1-4-1.4-1.5-1-2.9-2.6-1.7-2.5.4zM79.7 145.1c-2.8-1.5-2.9 1.4-.9 2.1-1.5 2.3.8 3 2 .7 1.4 2.5 3.4 1.5 1.8-.4 3.1-1.6 1.4-4.2-.6-2.5-.3-2.2-2-4.1-2.3.1z"/><path d="M57.7 147.8c1.6-6.1-1.7-5.8-2.8-3.3-.2-2.7-2.6-4.2-3.2-4.3-.8-3.2-5-3.5-5.4 0-3.4-3.1-4.4 1.1-4.1 2.4-2.1 3 0 5.5.4 5.9 1.6 2.4.7 4.7 1.7 6.2.9 5.2 2.4 7.2 4.3 8.1 2.5 4.1 4.7 5.5 7.2 5.3 2.5-.2 6-1.8 6.3-5 .3-3.2-1.8-10.7-3.1-12-1.4-1.1-1.3-3.3-1.3-3.3z" style="fill:#6665e3"/><path class="st10" d="M43.7 137.7c-.7-5.6-4.3-5-5.6-3.6-1.4 1.4 1.5 4.4 3.1 5.7 1.7 1.3 3.1 1.5 2.5-2.1zM44.9 137.6c-.1-5.6 3.6-3.2 4-.8s-3.9 6.4-4 .8z"/><path class="st10" d="M49.3 145.1c-.9-4.3-3.2-5.4-4.5-3.8-1.2 1.6.9 4.3 2.9 5.5 2.1 1.2 1.9-.4 1.6-1.7zM40.8 140.6c-3.9-1.9-5.4 1.6-1.4 3.6 4.1 2.1 5.3-1.7 1.4-3.6zM50.1 139.2c.1 5.5 3.7 6.6 3.7.9s-3.9-5.9-3.7-.9z"/><path class="st10" d="M52 148.5c-.4-6.1 5.2-7 3 .1-1.8 5.2-2.8 3.1-3-.1zM44.5 147.2c-5-1.7-4.9 3.9-.6 4.5s3.8-3.4.6-4.5zM47.8 151.1c-1.1 5.4.8 5.8 2.3 5.3 1.5-.5 1.4-3.6 0-6.1-1.4-2.6-2-.7-2.3.8zM56.1 150.5c2-5.7 8.9-2 3.7 2.2-5.3 4.2-4.5-.6-3.7-2.2zM52.6 156.5c-.3 5 3 6.4 3 1.4-.1-5-2.9-4-3-1.4zM47 156.5c-3.4-5.6-6.5-.7-2.5 2.9s4.5.5 2.5-2.9z"/><path class="st10" d="M49.3 161c-6.8.1-1.9 7.8 2.6 6 4.5-1.7 3-6.1-2.6-6zM56 163.7c-1.2 4.6.7 5.2 2.6 4.6 2-.6.7-4.1 0-5.4s-2.2-.8-2.6.8zM58.6 155.6c-2.5 3.1 2.1 6.5 4.2 2.9 2.3-3.5.2-8.3-4.2-2.9z"/><path d="M72.1 175.7c.5 3.1-.1 4.8-.1 4.8-11.1-4.6-13.5 2.6-8.2 11.4 5.4 8.8 24 8.1 26-5.4s-6.5-12.4-10.6-5.9c.1-3.1-.7-6.5-.7-6.5l-6.4 1.6z" style="fill:#5ee99d"/><path d="M59.7 158.1c0 12.1 7 17.8 15.5 17.8s18-5.1 14.8-20.5c-1.8-7-5.6-4.6-9.3.7-6.1-8.2-9.8-9-11.8 1.5-7-5.5-9.2-4.6-9.2.5z" style="fill:#bab5ff"/><path d="M61.7 217.9h46.7c14.4 0 15.3-28.4-6.7-25 .2-13-17.8-15.4-22.9-4.3-14.1-5-18.1 6-18.1 9.2-11.9-3.8-19.3 20.1 1 20.1z" style="fill:#7dcda2"/><path class="st14" d="M69.9 204.8c-.6-3.5-4.4-1.4-3.3 1-3.7.1-3.2 3.5.5 3.4 1 3.9 3.8 1.4 3.8-1.6 3.1-.5 2.4-3.9-1-2.8zM91.1 194.7c-1.6-3.6-3.9-1.6-3.5.8-3.5 1-2.2 3.9.5 3.2.9 2.7 2.9 2.2 2.9-.9 3.4-.5 2.5-3.7.1-3.1zM104.3 205.8c-2.2-2.9-4.3-.1-2.7 1.8-3.9 1.6-1.1 4.8 1.7 2.8 2.4 3.1 5 1.2 3-1.7 3-2.9.7-4.7-2-2.9z"/><path class="st15" d="M68.9 206.8c-.4-2-1.2-1.3-1.1-.3-1.9.4-1.2 1.2 0 1.3-.1 1.4 1.2 1.5 1.1 0 1.6.1 1-1.3 0-1zM89.8 195.9c-.2-2.1-1.2-1.3-1-.1-1.7-.2-1.6 1-.1.9.3 1.5 1.1 1.4 1.1 0 1.4.4 1.6-.7 0-.8zM104.8 207.6c-.5-1.8-1.3-1.1-1.1 0-1.7.4-1.5 1.2 0 1.3.2 2.2 1.6.5 1.1-1.3z"/><path d="M111.4 233.6h39.8c14.7 0 14-21 .6-20.8 2.5-13.9-15.5-17.1-19.8-7.2-11.5-3.6-21.9 3.2-21.3 13.3-10 .2-15.5 14.7.7 14.7z" style="fill:#69e99d"/><path class="st17" d="M127.1 213.9c-2.9-3-4.5-.1-2.4 1.5-2 3.5.7 5.1 2.4 2.5 3 2.1 4.6-.4 2.7-2.4 2.2-2.5-.8-5-2.7-1.6zM117.3 224.1c-2.1-2.8-4.4-.2-2.3 1.7-2.6 2.8.5 4 2.1 2.2 2.9 2.4 4.4.5 2.3-1.7 2.3-2.4.2-3.9-2.1-2.2zM145.4 218.7c-3.2-3-5.1.7-2.5 2.3-2.2 3.2.2 5.2 2.5 2.4 3.9 2.1 3.7-.5 2.6-2.2 1.6-3.1-.1-4.7-2.6-2.5z"/><circle class="st18" cx="145.4" cy="220.9" r="1.2"/><circle class="st18" cx="127.1" cy="215.7" r="1.1"/><circle class="st18" cx="117.3" cy="226" r="1.1"/><path d="M253.5 238.4h-53.3c-17.1 0-15.5-20.8.6-20.6-2.1-21.9 25-21.7 28.6-10.1 7.2-10.1 27.2-7 23.7 12.5 11.2-3.9 19.8 18.2.4 18.2z" style="fill:#80cda2"/><path class="st20" d="M221.8 212.4c-1.8-3.4-4.1-1.3-3 1-3.4.6-3.4 4.1.4 3.5 1.1 3.7 4.1 2.6 3.6-.5 5-1.7 2-5-1-4zM239.3 225.2c-2.8-3.4-5.4-1.6-3.8 2.2-4.6 2.2-1.1 5.7 2 3.2 2.3 2.9 5.7 3.4 3.8-1.6 4.3-3.3 1.9-6-2-3.8zM203.7 224.3c-2.6-2.2-4.4 1.1-2 2.6-2.8 2.8.4 5.2 2 2.5 4.5 1.9 5.8-.5 2.9-2.8 1.9-2.9-1-4.8-2.9-2.3z"/><circle class="st21" cx="204" cy="227" r="1.3"/><circle class="st21" cx="220.8" cy="214.9" r="1.2"/><circle class="st21" cx="238.7" cy="227.8" r="1.2"/><path class="st22" d="M156.8 148.5c-5.8-9.2-17.1-10.7-24.2-1.4-3 4.3.6 9.5 4.9 4.5s11.1-3 13.8 1.2c2.8 4 8.4.6 5.5-4.3zM209.8 148.5c5.8-9.2 17.1-10.7 24.2-1.4 3 4.3-.6 9.5-4.9 4.5-4.3-5-11.1-3-13.8 1.2-2.8 4-8.4.6-5.5-4.3zM170.6 157.1c8.2 10.1 21.6 9 27.4-2.1 2.5-4.6-2.6-6.5-5.2-1.7-3.7 6.4-11.7 8.7-18.2.2-2.2-2.9-6.7-.1-4 3.6z"/><path class="st4" d="M128 157.3c-5.9-6.5-12.9-1.4-10.9 4.9-6.6 4.3-2.8 11.2 2.8 9.6-.1 6.5 7.9 6.9 9.9 1 7.5 2.4 8.9-7.1 4.9-9.2 2.3-6.7-4.4-7.8-6.7-6.3zM238.3 157.3c5.9-6.5 12.9-1.4 10.9 4.9 6.6 4.3 2.8 11.2-2.8 9.6.1 6.5-7.9 6.9-9.9 1-7.5 2.4-8.9-7.1-4.9-9.2-2.3-6.7 4.4-7.8 6.7-6.3z"/></svg>