<svg version="1.1" id="Layer_1" xmlns="http://www.w3.org/2000/svg" x="0" y="0" viewBox="0 0 211.1 228.9" style="enable-background:new 0 0 211.1 228.9" xml:space="preserve"><style>.st0{fill:#939d9f}.st2{fill:#707f7f}.st6{fill:#45504f}</style><path class="st0" d="M12.3 81.2v115.1l8.1 15.9 4.2-15.9 15.3 14 8.4-106.5z"/><path d="M34.5 98.6V210c0 6.4 2.6 7.4 5.7 7.4h146.4c7 0 7.3-3.8 7.3-9.3V86.5l-75.8-35.2-83.6 47.3z" style="fill:#aeb8ba"/><path class="st2" d="m11.2 73.8 82.5-42.2c5.8-3.3 8.8-3.5 15.9.2s61 31.4 61 31.4c4.9 2.3 8.6 4.6 10.5 6.3s15.1 13.3 15.1 13.3c5.1 5.4.2 8.6-6.7 5.3C182.7 84.7 120 56 120 56l-79.4 47.1c-5.4 3.3-7 2.8-12.3-2.1-5.2-4.9-19-18-19-18-3.5-3.2-4.6-5.8 1.9-9.2z"/><path d="M57.8 15.7H43.6c-7.4 0-9.2 4.2-9.2 9.3v15.6c-19.4 4.2-20.3 21.3-17.5 25s15.4 15.2 25.6 15.9 24-4.2 30.7-13.7c14.2-2.8 31.2-15.1 37-25.4 6.7-12.6.5-41.7-24-34.2-8.6-12.8-20.9-10.9-28.4 7.5z" style="fill:#d8a76f"/><path d="M81.6 17.8c-6.8 12.3-22.2 24-40.8 23-6.4-.2-8.2 1-8.9 5.5s.7 7.4 4.9 7.7c4.2.4 31 3.7 49.4-21.5-.7 9.1-9.5 26.6-13.3 31.7-3.9 5.1-11 12.1-20.7 14.7s-.4 3.8 4.4 2.1 14.2-2.7 27-28.8c4.2-8.5 8.4-25.7 8.2-34.5s2.2-12 8.4-8.6S109.6 21 110 24c.4 3 4.1 4 2.7-1.6S105.3 1 86.2 8.3c-2.5 3.5-2.8 6.6-4.6 9.5z" style="fill:#aa8159"/><path class="st2" d="m136.3 49 27.2-21.7 9.6 10.8v28l-11.5 1.1z"/><path class="st0" d="M139.1 53.4c24.2-28.1 39.2-25.4 27.7 16.4 10 4.5 10.4-5.7 11-10.4s4.6-51.8-17.9-40-31.3 21.5-30 26.8 9.2 7.2 9.2 7.2z"/><path d="M119.7 188.5c24.9 0 31.9-13.8 26.4-21.7l40.4-19.1c-4.1-22.6-17.2-34.7-33.4-34.7s-24.9 6.2-33.4 6.2-17.1-6.2-33.4-6.2S57 125.1 53 147.7l40.4 19.1c-5.5 8 1.5 21.7 26.3 21.7z" style="fill:#edffff"/><path class="st2" d="M119.7 159.5c17.4 0 35.5 14.6 51.6 14.6 13.1 0 21.4-11.4 16.1-24.2-5.3-12.8-15.8-27.7-34.3-27.7s-25.7 5-33.4 5-14.8-5-33.4-5-29 14.9-34.3 27.7 3 24.2 16.1 24.2c16.1 0 34.2-14.6 51.6-14.6z"/><path class="st6" d="M110.6 111.6c-7.5-3-31.4-7.8-37-8.6s-9.7 4.1-5.1 8.6c4.6 4.6 25.2 12.9 31 15.3 5.8 2.3 8.8 2.2 13.9-3.5s4.7-9.5-2.8-11.8z"/><ellipse transform="rotate(-45.001 86.563 146.062)" class="st6" cx="86.6" cy="146.1" rx="8.1" ry="7.6"/><path class="st6" d="M33.2 154.4c-4.7 0-4.6 2.6-.6 4s15.5 3.3 20 3.8 4.2-4.2.3-5.2-16.3-2.6-19.7-2.6zM31.7 168.7c-5.7 1.7-3.8 4.6 1.1 4.6s18.2-2.4 21.4-3.1c3.2-.7 3.6-5.4-1.8-4.6-5.3.7-17.8 2.3-20.7 3.1zM35.4 184c-4.4 3.8-3 7.4 3.9 3.9 6.9-3.5 16.3-8 19.9-10.1 3.6-2.1 1.6-6.1-3.2-4s-18.8 8.6-20.6 10.2zM129.2 111.6c7.5-3 31.4-7.8 37-8.6 5.6-.8 9.7 4.1 5.1 8.6s-25.2 12.9-31 15.3c-5.8 2.3-8.8 2.2-13.9-3.5-5-5.7-4.7-9.5 2.8-11.8z"/><ellipse transform="rotate(-45.001 153.304 146.063)" class="st6" cx="153.3" cy="146.1" rx="7.6" ry="8.1"/><path class="st6" d="M206.6 154.4c4.7 0 4.6 2.6.6 4-4.1 1.4-15.5 3.3-20 3.8s-4.2-4.2-.3-5.2 16.3-2.6 19.7-2.6zM208.1 168.7c5.7 1.7 3.8 4.6-1.1 4.6s-18.2-2.4-21.4-3.1c-3.2-.7-3.6-5.4 1.8-4.6 5.4.7 17.9 2.3 20.7 3.1zM203.8 183.5c4.4 3.8 1.1 6.2-5.8 2.7s-13.7-6.4-17.4-8.4-1.6-6.1 3.2-4c4.9 2.1 18.2 8.1 20 9.7zM119.7 175s1 1.6 5.3 4.2c4.2 2.6 5.4-1.2 4.4-2.7-1-1.5-3.5-3.2-5.6-4.3v-4.4c8.5-6.2 4.7-12.1-4-12.1s-12.4 5.9-4 12.1v4.4c-2.1 1.1-4.6 2.8-5.6 4.3s.1 5.3 4.4 2.7 5.1-4.2 5.1-4.2z"/><path class="st2" d="M70.5 229.7c-9.3 0-18.1-.2-26.1-.7-10.1-.7-18.9-2.1-25.8-4.6-3.7-1.3-6.8-3-9.4-5-2.2-1.8-4.1-4.3-5.6-7.1-5.9-11-5.4-27.5 8.8-33.3 1.4 3.4 2.7 5.5 4.3 6.6 2.7 1.9 6.1 1.4 11.6 1 2.4-.2 6.3-.1 11 .4 7.6.8 17.6 2.6 27.9 5.6 6.7 2 13.5 4.6 19.7 7.8.7.4 1.4.7 2 1.1 19.9 11.1 20.6 28.9-18.4 28.2z"/><path class="st6" d="M70.5 229.7c3.3-17.5 14.6-26.2 18.3-28.3 20 11.2 20.7 29-18.3 28.3zM67.1 192.4c-3.8 4.7-19.6 20.8-22.7 36.5-10.1-.7-18.9-2.1-25.8-4.6 1.5-8.7 6.5-21.8 20.7-37.5 7.6.8 17.6 2.6 27.8 5.6zM16.6 185.5c-9.5 8.5-13.2 20.2-13 26.7-5.9-11-5.4-27.5 8.8-33.3 1.3 3.4 2.6 5.4 4.2 6.6z"/></svg>