<svg version="1.1" id="Layer_1" xmlns="http://www.w3.org/2000/svg" x="0" y="0" viewBox="0 0 169.8 199" style="enable-background:new 0 0 169.8 199" xml:space="preserve"><style>.st1{fill:#b4dbf7}.st2{fill:#4080c5}.st3{fill:#e6f1ff}</style><path d="M162.3 54.7v113.2c0 5.6-.6 7.9-3.3 11.6-2.8 3.7-13.2 17.2-16.9 18.5V59.8l20.2-5.1z" style="fill:#95c8eb"/><path class="st1" d="M5.5 69.6v119.8c0 9.7 3.9 9.7 10.2 9.7h119c10.2 0 11-3.2 11-10.2V69.6L72.2 24.8 5.5 69.6z"/><ellipse class="st2" cx="46.1" cy="92.8" rx="6.8" ry="8"/><ellipse class="st3" cx="25.4" cy="106.1" rx="11.5" ry="8"/><ellipse class="st2" cx="97" cy="92.8" rx="6.8" ry="8"/><ellipse class="st3" cx="117.7" cy="106.1" rx="11.5" ry="8"/><path class="st2" d="M71.5 108.4s3.1 4.5 7.6 10 7.4 1.4 4.8-2.9c0 0-6.5-9.1-8.8-12.2 8.7-4.3 2-9.1-3.6-9.1s-12.3 4.8-3.6 9.1c-2.2 3.1-8.8 12.2-8.8 12.2-2.6 4.3.3 8.4 4.8 2.9s7.6-10 7.6-10z"/><path d="M91 5.3 30.3 43.2c-5.2 3.1-9.5 6.5-13.4 10.2S1.1 68.9 1.1 68.9c-3.1 3.7.3 8.6 6.8 3.7s65.4-41.3 65.4-41.3l64.9 43.3c4.9 3.5 6.8 3.6 10.8-.7 4-4.4 18.3-17.6 18.3-17.6 4.4-4.5 2.4-7-2.1-9.7-4.5-2.8-64.4-41.3-64.4-41.3-3.5-2.3-7-1.8-9.8 0z" style="fill:#e6a0f9"/><path class="st1" d="M141 52.4c-4.7 2.1-7.9-.2-12-2.8-4.1-2.6-12.8-9.7-14.9-11.5-2.1-1.8-4.2-5.5-4.1-7.9.8-23.8 22.2-35.3 39.8-20.1 17.7 15.3 8.5 34.7-8.8 42.3z"/><path class="st3" d="M129 49.6c-4.1-2.6-12.8-9.7-14.9-11.5 1.1-24.9 18.9-26.9 29.6-19.1 8.2 6 8.5 29.2-14.7 30.6z"/><path class="st1" d="M22 48.4c4.5 2.5 7.9.5 12.2-1.8C38.5 44.4 47.8 38 50 36.4c2.2-1.6 4.6-5.1 4.7-7.6 1.1-23.8-19.2-37-38-23.3-19 13.8-11.4 33.9 5.3 42.9z"/><path class="st3" d="M34.1 46.6c4.3-2.2 13.6-8.6 15.8-10.2 1-24.9-16.7-28.3-28-21.5-8.5 5.3-10.7 28.4 12.2 31.7z"/></svg>