<svg version="1.1" id="Layer_1" xmlns="http://www.w3.org/2000/svg" x="0" y="0" viewBox="0 0 185.8 201.8" style="enable-background:new 0 0 185.8 201.8" xml:space="preserve"><style>.st2{fill:#c95441}.st5{fill:#ffdac3}.st6{fill:#b13524}</style><path d="M5.8 53.8v117.3c0 7.5.8 10.9 4.2 15.1s12.3 14.6 15.7 15.1l4.5-139.2-24.4-8.3z" style="fill:#e87240"/><path d="M21.7 72.3v119c0 10.7 3.6 10.5 10 10.5h139.7c11.7 0 10.5-6.4 10.5-12v-119L98.3 22.7 21.7 72.3z" style="fill:#fa865e"/><path class="st2" d="M75.3 3.5 3 46.4c-4.6 2.7-3 4.7-.8 7.4S19 76.5 19 76.5c2.7 3.7 3.9 4.2 10.6-.2 6.7-4.4 72.2-44.4 72.2-44.4l78.7 42.2c6.1 3.4 6.8-.3 2.9-5.1-3.9-4.7-12.7-16.6-12.7-16.6-3.4-4.6-5.9-6.1-12-9.6S86.1 3.5 86.1 3.5C82 1 77.9 1.9 75.3 3.5z"/><path d="M59.2 1.2S39.6 10.6 29.7 18s-10 16.2-10 17.3c-9 0-8.6 6.2-3.5 7-1.9 5 1.1 7.3 5.4 3.9-.3 7.1 4.8 6.8 6.4 1.1 7.1 2.9 17.6-.6 22-3.2 4.4-2.5 20.9-13.3 23.3-15l-.8-12.5-11.9 1.3-1.4-16.7z" style="fill:#b53522"/><ellipse transform="rotate(-26.903 66.33 15.157)" cx="66.3" cy="15.2" rx="12.9" ry="15.7" style="fill:#e77a65"/><circle class="st5" cx="66.3" cy="5.4" r="2.4"/><ellipse class="st5" cx="60.8" cy="12.7" rx="1.8" ry="2.9"/><circle class="st5" cx="69" cy="17" r="2.4"/><circle class="st5" cx="75.1" cy="20.9" r="1.5"/><ellipse transform="rotate(-42.856 64.392 26.051)" class="st5" cx="64.4" cy="26.1" rx="1.6" ry="2.5"/><circle class="st2" cx="48.9" cy="137.8" r="12.6"/><ellipse transform="rotate(-36.489 54.243 138.837)" class="st5" cx="54.2" cy="138.8" rx="2" ry="3"/><ellipse transform="rotate(-36.489 43.653 135.547)" class="st5" cx="43.7" cy="135.6" rx="2" ry="2.3"/><ellipse transform="rotate(-71.38 51.933 131.742)" class="st5" cx="51.9" cy="131.7" rx="2" ry="3"/><circle class="st2" cx="162.2" cy="137.8" r="12.6"/><ellipse transform="rotate(-53.511 156.91 138.843)" class="st5" cx="156.9" cy="138.8" rx="3" ry="2"/><ellipse transform="rotate(-53.511 167.501 135.552)" class="st5" cx="167.5" cy="135.6" rx="2.3" ry="2"/><ellipse transform="rotate(-18.62 159.209 131.734)" class="st5" cx="159.2" cy="131.7" rx="3" ry="2"/><ellipse class="st6" cx="137.6" cy="117" rx="7.5" ry="9.2"/><ellipse class="st6" cx="86.8" cy="117" rx="7.5" ry="9.2"/><path class="st6" d="M132.1 103c5.9-4.5 11.3-1.8 14.1 1.4 2.2 2.7 6.1-.5 3-3.8-6.8-6.5-15.3-4.7-20.4-.6-2.9 2.5.1 5.5 3.3 3zM75.3 103.9c4.5 3.5 16.3 6.8 18.2 7.1 5.1.8 4.8-4.7 0-5-4.8-.3-10.6-4.8-15.2-5.2-4.5-.4-6.1.5-3 3.1zM68.9 133.8c3.3 4.2 9.6 10.6 16.6 10.6s30.5-.5 34.5-.8 4.5-.6 6-2.1c1.6-1.5.6-4.6-5.1-3.1s-23.7 1-32.1 1.1c-8.5.2-11.3-3-16.3-7.9-2.9-3.1-5.9-.5-3.6 2.2z"/></svg>