<svg version="1.1" id="Layer_1" xmlns="http://www.w3.org/2000/svg" x="0" y="0" viewBox="0 0 245.2 186.8" style="enable-background:new 0 0 245.2 186.8" xml:space="preserve"><style>.st2{fill:#9695b3}.st3{fill:#8586a4}.st4{fill:#f7dded}.st5{fill:#ffafdb}.st6{fill:#6ff6ff}</style><path d="M182.8 74.1v84.2c0 4.3-.9 6.7-8.2 14-7.4 7.3-12.2 14.5-22.1 14.5l6.2-100.6 24.1-12.1z" style="fill:#aeb0ca"/><path d="M21.2 84.9v94.4c0 7.8 3.5 7.5 8.3 7.5h122.9c8.6 0 8.3-2.4 8.3-9.4V95.5L80.4 51.8 21.2 84.9z" style="fill:#c3c3da"/><path class="st2" d="M180.2 83.3c-1 5-5.2 8.5-13.2 9.6-1 3.4-2.9 5.9-4.5 7.5-1.6 1.6-2.9 2.4-2.9 2.4-.3 1.4-1 2.3-2.2 2.9-5.8 3.1-21.1-9.8-25.6-14-4.5-4.2-41.1-31.1-49.9-33.5L21.2 89.3c-6.2 3.2-7-1.1-3.8-7.4 2.1-4.2 6.3-8.9 13.4-13.9C45.4 49.2 63.9 40.8 79 37.4c5.9-5.3 12.8-9 21-10.2 7.6-8.7 19-9.2 32.8-3.6 8.2-2.9 14.6-3 19.6-2 1.3-4.4 5.2-6.4 9.3-6.3-2.1-20.2 7-14.7 8.3-9.5 1.2 5.3.2 13 .2 13 15-11.4 18.8-5.5 18.1-3.6-.4 1-1.8 2.9-4 4.9-2.2 2-5.2 4.2-8.8 5.7.7 1.5 1.1 3 1.1 4.5 0 2.1-.8 4.2-2.7 6 3.1 4.4 4.8 9.9 2 15.4 13.6 11.2 19.4 20.6 4.3 31.6z"/><path class="st2" d="M161.8 15.3c-2.1-20.2 7-14.7 8.3-9.5s.2 13 .2 13c14.9-11.4 18.8-5.6 18.1-3.6-.7 2-5.7 7.6-12.8 10.6"/><path class="st3" d="M175.6 26.8c-.4 0-.7-.2-.9-.6-.2-.5 0-1 .5-1.3 7.1-3 11.7-8.5 12.2-10 .1-.2 0-.9-.7-1.4-1-.7-5-2.3-15.9 6-.3.2-.7.3-1.1.1-.3-.2-.5-.6-.5-1 0-.1 1-7.6-.2-12.7-.5-2.3-2.7-4.4-4.2-4.1-1.7.3-3.2 3.9-2.2 13.3.1.5-.3 1-.8 1-.5.1-1-.3-1-.8-1.3-11.9 1.4-14.9 3.8-15.4 2.8-.5 5.6 2.6 6.3 5.6.9 3.7.7 8.4.4 11.2 10-7.2 14.6-6.1 16.4-4.8 1.4 1 1.8 2.6 1.4 3.6-.8 2.3-6 8-13.3 11.1 0 .2-.1.2-.2.2zM155.3 107.1c-8.3 0-23.4-14.1-24.1-14.8-5-4.7-40.1-30.3-49.1-33.2l-60.5 31c-2.8 1.4-4.9 1.6-6.1.4-1.5-1.5-1.2-4.7 1-9 3.6-7.3 12.6-14.7 26.5-22 1.4-.8 3-1.6 4.6-2.5 15.8-8.9 42.2-23.7 76.1 2.9 24.5 19.2 37.6 34.3 36.9 42.5-.2 1.9-1.1 3.4-2.7 4.3-.8.2-1.6.4-2.6.4zM82 57.2h.3c9.3 2.5 46 29.7 50.3 33.7 7.1 6.7 20 16.3 24.4 13.9 1.1-.6 1.6-1.5 1.8-2.8.3-3.5-2.6-14.5-36.1-40.8-32.9-25.9-58.6-11.4-74-2.7-1.7.9-3.2 1.8-4.7 2.6-13.4 7.1-22.3 14.4-25.7 21.2-1.9 3.7-2 6.2-1.4 6.8.5.5 2 .3 3.9-.7l60.8-31.1c.1-.1.3-.1.4-.1z"/><path class="st3" d="M159.6 103.7c-.3 0-.7-.2-.8-.5-.3-.5-.1-1 .3-1.3.4-.2 8.7-5.2 7.6-16.5-2.7-29-52-47.2-61.9-48.7-12-1.9-48.7.3-73.3 31.9-.3.4-.9.5-1.3.2s-.5-.9-.2-1.3C55.2 35 92.8 32.9 105.1 34.8c10.5 1.6 60.6 19.9 63.5 50.4 1.2 12.6-8.4 18.3-8.5 18.3-.2.2-.4.2-.5.2z"/><path class="st3" d="M166.9 93.8c-.5 0-.9-.3-.9-.8-.1-.5.3-1 .8-1.1 7.1-.9 11.4-3.9 12.4-8.6 2.3-10.6-11.2-27.9-32.2-41.2-28.4-17.9-50.4-19.2-67.3-4.1-.4.3-1 .3-1.3-.1-.4-.4-.3-1 .1-1.3 17.4-15.6 40.9-14.3 69.6 3.9 22 13.9 35.6 31.6 33 43.2-.8 3.9-4 8.7-14 10.1h-.2z"/><path class="st3" d="M180.2 84.2c-.3 0-.6-.1-.8-.4-.3-.4-.2-1 .2-1.3 5.8-4.2 8.6-8.2 8.6-12.3 0-8.7-12.1-17.5-27.5-28.6l-4.1-3c-26.5-19.3-45.3-22.9-55.9-10.8-.3.4-.9.4-1.3.1-.4-.3-.4-.9-.1-1.3 11.4-13 31-9.5 58.4 10.5l4.1 3c15.8 11.4 28.3 20.5 28.3 30.2 0 4.8-3.1 9.3-9.4 13.9h-.5z"/><path class="st3" d="M175.9 52.8c-.1 0-.3 0-.4-.1-.5-.2-.6-.8-.4-1.3 5.7-11-8.6-21.8-11.6-23.8-3.6-2.5-13-9.1-30.3-3-.5.2-1-.1-1.2-.6-.2-.5.1-1 .6-1.2 18.2-6.5 28.3.6 32 3.2 3.2 2.2 18.6 13.9 12.2 26.3-.2.3-.5.5-.9.5z"/><path class="st3" d="M174 37.4c-.2 0-.5-.1-.7-.3-.4-.4-.4-1 0-1.3 1.6-1.6 2.4-3.5 2.4-5.5 0-3.2-2.2-7-6.2-10.7-3-2.8-7.2-4-10.9-3-2.7.7-4.6 2.6-5.4 5.3-.1.5-.7.8-1.2.7-.5-.1-.8-.7-.7-1.2.9-3.3 3.3-5.6 6.7-6.6 4.2-1.2 9.2.2 12.7 3.4 3 2.9 6.7 7.3 6.8 12.1 0 2.6-1 4.9-3 6.9-.1.1-.3.2-.5.2z"/><circle class="st3" cx="57.2" cy="131.5" r="5.4"/><path class="st3" d="M65.1 127.6h-.3l-17.7-2.4c-1.1-.1-1.9-1.1-1.7-2.2.1-1.1 1.1-1.9 2.2-1.7l17.7 2.4c1.1.1 1.9 1.1 1.7 2.2 0 1-.9 1.7-1.9 1.7z"/><ellipse class="st4" cx="39.9" cy="136.6" rx="6.6" ry="4.2"/><circle class="st3" cx="116.4" cy="131.5" r="5.4"/><path class="st3" d="M108.4 127.6c-1 0-1.8-.7-2-1.7-.1-1.1.6-2.1 1.7-2.2l17.7-2.4c1.1-.2 2.1.6 2.2 1.7.1 1.1-.6 2.1-1.7 2.2l-17.7 2.4h-.2z"/><ellipse class="st4" cx="133.7" cy="136.6" rx="6.6" ry="4.2"/><path class="st5" d="M214.9 112.4c2.2 1.6 10.6 8.6 28.8 5.7.7-2.1 1.1-4.3 1.5-6.6-11.3 3.8-22.7 0-27.5-3.2-4.9-3.2-12.3-8-26.2-3.7l-.8 5.2c14-4.9 22 .9 24.2 2.6z"/><path class="st6" d="M217.6 108.2c4.8 3.2 16.3 7 27.5 3.2.3-2.6.5-5.2.2-7.9-1.5.5-13.8 3.3-20.8-.7s-18.1-10.6-32.3-4.4l-.9 6.1c14-4.3 21.5.5 26.3 3.7z"/><path class="st5" d="M213.1 119.3c-6.8-4.2-10.7-6.5-23.3-4.4l-.8 5.1c11.4-1.8 17.3 1.4 22.2 4.6 4.8 3.2 14.1 5.9 27.2 5.1 1-1.6 2-3.4 2.9-5.5-9.5 1.2-21.4-.7-28.2-4.9z"/><path d="M214.9 112.4c-2.2-1.6-10.2-7.5-24.3-2.7l-.8 5.3c12.6-2.1 16.5.3 23.3 4.4 6.7 4.1 18.7 6.1 28.2 4.9.9-1.9 1.7-4 2.4-6.2-18.2 2.8-26.6-4.1-28.8-5.7z" style="fill:#fff9ff"/><path class="st6" d="M211.2 124.6c-4.8-3.2-10.8-6.4-22.2-4.6l-1 6.5c7.2-1.9 10.6-.5 20.6 5.4 9.9 5.9 18.2 5.2 24.4 4.7.9-.6 3.1-3.1 5.4-6.8-13.1.7-22.3-2-27.2-5.2z"/><path d="M182 168.6h-.4c-1.3-.2-2.2-1.4-2-2.7L189.8 98c.2-1.3 1.4-2.2 2.7-2 1.3.2 2.2 1.4 2 2.7l-10.2 67.9c-.1 1.2-1.2 2-2.3 2z" style="fill:#efeaf5"/><path class="st2" d="M91.8 136.9c-5.5 7.4 1.2 14.2 11.6 12.9 10 9.5 16.5 4.5 21.8 3.9s24.9 10.1 37.3 23.1c1.9 2.5 5.2 4.8 5.1-1.6-.1-6.4-14.7-17.9-24.5-24.1-9.8-6.2-20.4-5.8-25.8-5.2s-11.5-2-18-8.1c-4.8-4.1-6.4-2.8-7.5-.9z"/><path class="st3" d="M165.9 180.3c-1.7 0-3.5-2-4.2-2.9-12.3-12.9-31.4-23.3-36.4-22.8-1.1.1-2.2.4-3.4.8-4.8 1.3-10.8 2.9-18.8-4.6-5.9.6-11-1.3-13.2-4.9-1.6-2.8-1.2-6.3 1.1-9.5.6-.9 1.4-1.9 2.8-2.2 1.6-.3 3.5.7 6.1 2.9 6.3 5.8 12.1 8.4 17.3 7.9 10.2-1.1 19.1.7 26.4 5.3 8.6 5.4 24.9 17.6 24.9 24.9 0 1.1 0 4.3-1.9 5-.2 0-.5.1-.7.1zm-40.3-27.6c6.6 0 25.8 11.2 37.6 23.5 1.3 1.7 2.5 2.3 2.8 2.2 0 0 .7-.3.7-3.1-.1-5.3-12.4-16-24.1-23.3-7-4.4-15.5-6.1-25.2-5.1-5.8.6-12.1-2.2-18.8-8.3-2.5-2.2-3.9-2.5-4.5-2.4-.5.1-.9.5-1.4 1.3v.1c-1.9 2.6-2.3 5.3-1 7.4 1.8 3.1 6.4 4.6 11.7 4 .3 0 .6.1.8.3 7.5 7.2 12.7 5.7 17.4 4.5 1.3-.4 2.5-.7 3.7-.8-.1-.3.1-.3.3-.3zm-33.8-15.8z"/><path class="st3" d="M103.4 150.7c-.1 0-.3 0-.4-.1-.5-.2-.7-.8-.5-1.3l3-6.6c.2-.5.8-.7 1.3-.5.5.2.7.8.5 1.3l-3 6.6c-.2.4-.6.6-.9.6zM125.2 154.6c-.5 0-.9-.3-.9-.8-.1-.5.3-1 .8-1.1 3.7-.6 5.4-2.2 5.5-3.6.1-1-.7-1.8-2.1-2.2-.5-.1-.8-.7-.7-1.2.1-.5.7-.8 1.2-.7 2.2.6 3.6 2.3 3.5 4.2-.1 2-2.1 4.6-7.1 5.4h-.2z"/><path class="st2" d="M76.8 136.9c5.5 7.4-1.2 14.2-11.6 12.9-10 9.5-16.5 4.5-21.8 3.9s-24.9 10.1-37.3 23.1c-1.9 2.5-5.2 4.8-5.1-1.6.1-6.4 14.7-17.9 24.5-24.1 9.8-6.2 20.4-5.8 25.8-5.2s11.5-2 18-8.1c4.7-4.1 6.3-2.8 7.5-.9z"/><path class="st3" d="M2.7 180.3c-.2 0-.5 0-.7-.1-2-.7-2-3.9-1.9-5 .1-7.3 16.4-19.5 24.9-24.9 7.3-4.6 16.2-6.4 26.4-5.3 5.2.6 11.1-2.1 17.3-7.8 2.6-2.2 4.5-3.1 6.1-2.9 1.4.2 2.2 1.3 2.8 2.2 2.4 3.2 2.8 6.7 1.1 9.5-2.1 3.6-7.3 5.6-13.2 4.9-8.1 7.5-14 5.9-18.8 4.6-1.2-.3-2.4-.6-3.4-.8-5-.5-24.2 9.9-36.5 22.8-.7.8-2.4 2.8-4.1 2.8zm43-33.8c-7.5 0-14.1 1.8-19.8 5.4-11.6 7.3-24 18-24.1 23.3 0 2.9.7 3.1.7 3.1.4.1 1.5-.5 2.8-2.1 12.1-12.7 32.1-24.1 38.2-23.5 1.2.1 2.4.5 3.7.8 4.6 1.3 9.9 2.7 17.4-4.5.2-.2.5-.3.8-.3 5.3.7 9.9-.9 11.7-4 1.3-2.2.9-4.8-1-7.4v-.1c-.5-.8-.9-1.2-1.4-1.3-.7-.1-2 .2-4.6 2.4-6.6 6.1-13 8.9-18.8 8.3-2 0-3.8-.1-5.6-.1z"/><path class="st3" d="M65.2 150.7c-.4 0-.7-.2-.9-.6l-3-6.6c-.2-.5 0-1 .5-1.3.5-.2 1 0 1.3.5l3 6.6c.2.5 0 1-.5 1.3-.1.1-.2.1-.4.1zM43.4 154.6h-.1c-5.1-.8-7-3.4-7.1-5.4-.1-1.9 1.2-3.5 3.5-4.2.5-.1 1 .2 1.2.7.1.5-.2 1-.7 1.2-1.3.4-2.1 1.2-2.1 2.2.1 1.4 1.8 3.1 5.5 3.6.5.1.9.6.8 1.1-.1.5-.5.8-1 .8z"/></svg>