<svg version="1.1" id="Layer_1" xmlns="http://www.w3.org/2000/svg" x="0" y="0" viewBox="0 0 230.7 197.2" style="enable-background:new 0 0 230.7 197.2" xml:space="preserve"><style>.st0{fill:#e26c5c}.st1{fill:#f87e77}.st2{fill:#6cdb93}.st8{fill:#c95441}.st9{fill:#ffa99a}</style><path class="st0" d="M40.5 55.9v107.8c0 5 3.3 11.3 10.8 18.1s15.4 13 17.6 13.9l5.5-136.1-33.9-3.7z"/><path class="st1" d="M64.2 77.1v106.7c0 13.4 6.4 13.4 15.3 13.4h134.1c11 0 11.6-4.3 11.6-13.7V77.1L132 21.3 64.2 77.1z"/><path class="st2" d="M39.4 48.3c-5.9 4.7-3.7 8-1.3 10.4 2.4 2.5 19.5 21 19.5 21 4.2 5.1 5.9 6.8 12.9 1.3s67.2-47.5 67.2-47.5l83.5 47.7c6.1 3.6 13.1-.4 7.6-6.4-5.5-6.1-15.9-17.2-15.9-17.2-5.5-6.8-10.8-9.7-19.3-14.2C186 39.3 129.8 7.2 118.1.5c-1.3-.8-2.9-.7-4.2.1L39.4 48.3zM38.5 164.8c15.1-4.9 23.8 0 16.5 10.6-7.3 10.6-20.3 8.1-21.9 7.8-2.7 9.7-14.2 8.9-14.1.2-9.7-5.4-18-20-5-20.5s16.3-6.8 16.3-6.8l8.2 8.7z"/><path class="st1" d="M31.2 119.1c-9.5-9.6-17.8 2.9-16.6 13.5-13.8.2-14.6 8.4-13.3 14-4.8 3.9 5.4 14.7 11.5 12.6-2 7.5 7.4 11 16.7 5.2 8.5 4.9 14 .7 14-5.5 10.5-.9 10.6-8.3 9.5-13.4 6.2-5.2-.3-16.7-8.6-14.9-.4-13-8.7-15-13.2-11.5z"/><circle class="st8" cx="29.5" cy="144.1" r="7.8"/><ellipse class="st8" cx="108.7" cy="122.4" rx="6.1" ry="7.6"/><path class="st8" d="M96.4 97.8c9.4-8.4 17-6.5 22.7-1.6 2.8 2.6 0 6.8-3.6 3.2-3.6-3.5-10.9-4-15.7.9-3 3.5-6.6.7-3.4-2.5z"/><ellipse class="st8" cx="182.7" cy="122.4" rx="6.1" ry="7.6"/><path class="st8" d="M195 97.8c-9.4-8.4-17-6.5-22.7-1.6-2.8 2.6 0 6.8 3.6 3.2 3.6-3.5 10.9-4 15.7.9 3 3.5 6.6.7 3.4-2.5z"/><ellipse class="st9" cx="201.1" cy="129.7" rx="8.2" ry="5"/><ellipse class="st9" cx="90.5" cy="129.7" rx="8.2" ry="5"/><path class="st0" d="M161.6 137c0 1.9-.3 3.8-.8 5.5-2 6.8-7.6 11.6-14.1 11.6-6.6 0-12.2-4.8-14.2-11.6-.5-1.7-.8-3.6-.8-5.5 0-9.5 6.7-17.1 15-17.1 8.2 0 14.9 7.7 14.9 17.1z"/><path class="st9" d="M160.8 142.5c-2 6.8-7.6 11.6-14.1 11.6-6.6 0-12.2-4.8-14.2-11.6 3.5-3.4 8.6-5.5 14.2-5.5 5.5 0 10.6 2.2 14.1 5.5z"/></svg>