<svg version="1.1" id="Layer_1" xmlns="http://www.w3.org/2000/svg" x="0" y="0" viewBox="0 0 186.2 188.5" style="enable-background:new 0 0 186.2 188.5" xml:space="preserve"><style>.st1{fill:#8dc29c}.st3{fill:#ff72aa}.st4{fill:#415d4a}.st5{fill:#e9decd}</style><path d="M178.6 63.5v103.9c0 6-1.8 7.6-4.4 10.5s-10.8 9.1-10.8 9.1l1.2-124.8 8.7 6.6 5.3-5.3z" style="fill:#74b385"/><path class="st1" d="M7.5 64.5v113.3c0 10.7 3.6 10.7 10.9 10.7H156c11.6 0 10.9-6 10.9-14.2V70.8L84.8 18.9 7.5 64.5z"/><path d="M99.6 1.8 22 45.6c-5.5 3.2-6 3.9-10.6 8.5S1 65.8 1 65.8c-2.7 3.9.3 7.4 5.3 4.8S85 26.1 85 26.1l76.9 52.7c4.4 3.1 6.4 2.3 9.3-.6 2.9-2.9 13.6-15.1 13.6-15.1 4-4.4-.8-8.1-4-10.2-3.2-2.1-72-51.1-72-51.1-3.5-2.7-5.5-2.1-9.2 0z" style="fill:#6c997b"/><path class="st1" d="M43.2 21.7c4.4 5.2 7.3 9.3 8.1 10.6.8 1.3 2.2 4.6-2.1 7-4.3 2.3-5.4 3.1-9.3-1.2s-6.2-7.2-6.2-7.2c-6 3.8-12.8 1.1-14.7-1.4s-.7-5.2 2.8-6.6c3.4-1.4 9.6-7.3 11.9-11.5 2.3-4.2 7.5-4.9 10.8-2.1 3.3 2.7 2.2 8.6-1.3 12.4zM140.3 22.8c-4.4 5.2-8.9 10.9-9.7 12.2s-2.9 5.2 1.4 7.5 6.1 2.5 9.9-1.8c3.9-4.3 7.8-8.8 7.8-8.8 6 3.8 12.8 1.1 14.7-1.4 1.9-2.5.7-5.2-2.8-6.6-3.4-1.4-9.6-7.3-11.9-11.5-2.3-4.2-7.5-4.9-10.8-2.1-3.2 2.7-2.1 8.7 1.4 12.5z"/><circle class="st3" cx="80.1" cy="99.6" r="4.6"/><path class="st4" d="M62.3 107.6c10.1-1 9.6-10.1-1-14.3-10.6-4.1-24.1-6.5-35.2 4.8-8.7 8.8 3.8 16.3 12.1 14.1 4.3-.8 7.6-.3 7.6-.3-1.1 10.1 21.3 10.1 16.5-4.3zM119.7 93.1c27.8-2.5 18.7-24.2-.7-20.4-19.4 3.8-25.5 13.6-26.9 17.2-1.3 3.6 0 10.6 10.5 8.1 1.8 8.7 16.9 8.4 17.1-4.9zM132.2 141c-1 9.7-7.2 15.7-14.9 19.2-7 3.2-15.3 4.2-21.9 3.8-13.2-.6-16.6 8.2-28.7 8-.5 0-1 0-1.6-.1-13.4-1-17.3-12.3-16.2-20.6.6-4 1.2-9.6 5-16.1 3.5-6 9.7-12.7 21-19.4 2-1.2 4.1-2.3 6.4-3.5 3.1-1.5 6.5-2.3 9.9-2.6 11.1-1.1 22.9 3.3 31 10.4 6.7 5.8 10.8 13.2 10 20.9z"/><path class="st3" d="M117.3 160.1c-7 3.2-15.3 4.2-21.9 3.9-13.2-.6-16.6 8.2-28.7 8 4.9-29.3 39.9-31.2 50.6-11.9z"/><path class="st5" d="M122.2 120.1c-9.6 16.4-32.4 6-31-10.4 11.1-1 22.9 3.4 31 10.4zM53.9 135.4c3.5-6.1 9.7-12.8 21-19.5 20.2 16.2-9.1 36.2-21 19.5z"/></svg>