<svg version="1.1" id="Layer_1" xmlns="http://www.w3.org/2000/svg" x="0" y="0" viewBox="0 0 189.4 208.8" style="enable-background:new 0 0 189.4 208.8" xml:space="preserve"><style>.st2{fill:#956042}.st3{fill:#a46645}.st4{fill:#b17c61}.st5{fill:#79462b}</style><path d="M31.2 206.3s-6.7-5.8-10.2-9.3-13-15.1-13-15.1c-3.2-4.5-2.9-12.4-2.9-19V65.2l19.2-3.7 3.5 27.4 3.4 117.4z" style="fill:#af7a5f"/><path d="M27.7 88.9v106c0 14.4 8.3 13.8 12.5 13.8h133c11.7 0 11.1-2.7 11.1-14.1v-116L91 24.2 27.7 88.9z" style="fill:#bf8772"/><path class="st2" d="m63.3 2.4-61 57.2c-4.3 4-2.4 6.7 2.7 12s19.2 20 19.2 20c4 4.5 5.6 4 11.2-1.1s60.4-58 60.4-58l87 49.1c5.8 3.6 6.5-2.3 5-3.7-1.6-1.4-22.7-22.5-22.7-22.5-4.1-4.4-6.2-4.5-12.7-8.3s-80-45.8-80-45.8c-4.5-2.6-7.1-.8-9.1 1.1z"/><path class="st3" d="M23.3 110.4c-2.5 9.3-11.1 10.3-11.4.8-5.3 1.7-6.4-2.6-4.6-5.5-8.1 2-5.2-4.9-.8-7.4s9-2 5.3 5.9c5.9-3.9 6.7 1.7 6.3 3.9 3-4.6 6.6-2.9 5.2 2.3zM8 136.1c1.4-3.4 3.8-9.2 1.3-10.9s-6.5 5.9-8 11.7c-1.4 5.7 2.6 8.8 5.1 8-1.4 6.1 3.1 5.5 3.9 5-1.2 3.9 4.1 3.4 7.5-2.3 3.3-5.7-1.6-9.4-6.5-4.3 2.4-7.7-2-7.6-3.3-7.2zM12.4 161.9c-4.4 7.4-3.7 16.2 2.5 14.7 1.2 8.8 6.8 7.4 10.3 2.6 3.6-4.8 0-11.5-3.7-5.5-1-6.1-4.5-4.6-5.5-3.7 2.9-7.8.1-14.3-3.6-8.1z"/><path class="st4" d="M45 128.8c3.7-4.9-2-8.2-5.6-3.2-5.3 7.3-11.4 21.8-1 21.2-7.4 14.1-1.1 16.6 1.8 15.9-2.1 18 8.8 14.7 11.9 12.1 3.1-2.6 7.1-7.3 8-8.8s-1-7.3-5.6-2.1-8.6 8.2-8.6 8.2c-.7-6.8 1.3-11.5 2.9-14.6 1.5-3.1-1.9-6.8-6.7-2.6-.4-6.5 3.9-9.9 5.1-11.3 1.2-1.4-.7-7.5-5.3-4.2s-3.6.2 3.1-10.6zM175.7 128.8c14.1 12.9 17.9 23.5 8.6 25.8 8.5 11.3 3.8 26.5-8.6 13-2.3-2.5-6.1-6.4-4-8.9 2-2.4 5.5.7 8.6 2.6.8-3.9-4.5-5.7-5.8-10.4-1.3-4.7 3-6 5.2-3.7s3.9-.6 2.1-3c-1.8-2.4-8.7-9.9-11.2-11.9s1.2-7.3 5.1-3.5z"/><path class="st5" d="M82.7 120.2c-6.3-7.9-13.6-6-16.8 2.9-1.5 4.3-8.3 3.8-5.6-3.3 2.7-7.1 15.7-17.6 27.8-2.5 2.3 3.4-2.2 6.9-5.4 2.9zM143.2 119.2c6.3-7.9 13.6-6 16.8 2.9 1.5 4.3 8.3 3.8 5.6-3.3s-15.7-17.6-27.8-2.5c-2.3 3.4 2.2 6.9 5.4 2.9z"/><path class="st2" d="M76.8 95.3c-6.7-2.8-14.8-1.2-9.4 3.6s17.7 10.9 21.3 12.9c3.7 2 10.2-1.7 3.3-7.1-6.9-5.5-13.6-8.7-15.2-9.4zM148.3 93.3c6.7-2.8 14.8-1.2 9.4 3.6s-17.7 10.9-21.3 12.9c-3.7 2-10.2-1.7-3.3-7.1s13.6-8.7 15.2-9.4z"/><path d="M89.5 140.3c-1.3 2.7.6 6.3 2.2 9.8 1.6 3.5 5.4 15.2 6.9 20.5 1.5 5.3 7.1 11.3 14.8 9.9s9.4-8.5 9.4-13.8-2.2-13.6-3.6-14.9l-14.3-3-15.4-8.5z" style="fill:#ff827f"/><path d="M99.3 148.3c6.1 7.2 8 12.4 9.7 17.9s5.4 3.8 5.1-1.9c-.3-5.7-3.7-11.9-4.3-12.8l-10.5-3.2z" style="fill:#f57874"/><path class="st2" d="M116.8 118.5c8.5 4.4 22.9 13.3 21.4 22s-10.6 14.8-24.1 13.5c-13.5-1.3-22.8-10.3-24.7-13.1-2-2.8.4-6.2 4.7-2.9 4.3 3.4 15.2 10.5 24.9 10.2s12.8-6.2 12.7-8.6c-.1-2.4-5.2-9.7-18.6-16.7-3.2-1.6-1.4-7.2 3.7-4.4z"/><path class="st5" d="M131.6 132c-11.3-.1-11.1 5.9-8.3 8.9 2.8 3 9.6 5.2 12.8 1.7 3.1-3.5 5.8-10.6-4.5-10.6z"/></svg>