<svg version="1.1" id="Layer_1" xmlns="http://www.w3.org/2000/svg" x="0" y="0" viewBox="0 0 190 210" style="enable-background:new 0 0 190 210" xml:space="preserve"><style>.st1{fill:#bf8772}.st2{fill:#956042}.st3{fill:#a46645}.st4{fill:#b17c61}.st5{fill:#79462b}.st8{fill:#ae7c60}</style><path d="M158.8 207.7s6.7-5.8 10.2-9.3c3.5-3.5 13-15.2 13-15.2 3.2-4.5 2.9-12.4 2.9-19V66.5l-19.2-3.7-3.5 27.4-3.4 117.5z" style="fill:#af7a5f"/><path class="st1" d="M162.3 90.3v106c0 14.4-8.3 13.8-12.5 13.8h-133c-11.7 0-11.1-2.7-11.1-14.1V80L99 25.5l63.3 64.8z"/><path class="st2" d="m126.6 3.8 61 57.2c4.3 4 2.4 6.7-2.7 12s-19.2 20-19.2 20c-4 4.5-5.6 4-11.2-1.1s-60.4-58-60.4-58L7.2 83c-5.8 3.6-6.5-2.3-5-3.7 1.6-1.4 22.7-22.5 22.7-22.5 4.1-4.4 6.2-4.5 12.7-8.3s80-45.8 80-45.8c4.5-2.6 7.1-.7 9 1.1z"/><path class="st3" d="M166.7 111.8c2.5 9.3 11.1 10.3 11.4.8 5.3 1.7 6.4-2.6 4.6-5.5 8.1 2 5.2-4.9.8-7.4s-9-2-5.3 5.9c-5.9-3.9-6.7 1.7-6.3 3.9-3-4.6-6.7-2.9-5.2 2.3zM182 137.5c-1.4-3.4-3.8-9.2-1.3-10.9 2.5-1.8 6.5 5.9 8 11.7 1.4 5.7-2.6 8.8-5.1 8 1.4 6.1-3.1 5.5-3.9 5 1.2 3.9-4.1 3.4-7.5-2.3-3.3-5.7 1.6-9.4 6.5-4.3-2.4-7.7 2-7.6 3.3-7.2zM177.6 163.3c4.4 7.4 3.7 16.2-2.5 14.7-1.2 8.8-6.8 7.4-10.3 2.6-3.6-4.8 0-11.5 3.7-5.5 1-6.1 4.5-4.6 5.5-3.7-3-7.8-.1-14.3 3.6-8.1z"/><path class="st4" d="M145 130.2c-3.7-4.9 2-8.2 5.6-3.2 5.3 7.3 11.4 21.8 1 21.2 7.4 14.1 1.1 16.6-1.8 15.9 2.1 18-8.8 14.7-11.9 12.1s-7.1-7.3-8-8.8 1-7.3 5.6-2.1 8.6 8.2 8.6 8.2c.7-6.8-1.3-11.5-2.9-14.6s1.9-6.8 6.7-2.6c.4-6.5-3.9-9.9-5.1-11.3-1.2-1.4.7-7.5 5.3-4.2s3.6.3-3.1-10.6z"/><path class="st5" d="M107.3 121.6c6.3-7.9 13.6-6 16.8 2.9 1.5 4.3 8.3 3.8 5.6-3.3s-15.7-17.6-27.8-2.5c-2.4 3.4 2.2 6.9 5.4 2.9zM46.8 120.6c-6.3-7.9-13.6-6-16.8 2.9-1.5 4.3-8.3 3.8-5.6-3.3 2.7-7.1 15.7-17.6 27.8-2.5 2.3 3.4-2.2 6.9-5.4 2.9z"/><path d="M100.5 141.7c1.3 2.7-.6 6.3-2.2 9.8-1.6 3.5-5.4 15.2-6.9 20.5-1.5 5.3-7.1 11.3-14.8 9.9-7.7-1.4-9.4-8.5-9.4-13.8s2.2-13.6 3.6-14.9l14.3-3 15.4-8.5z" style="fill:#ff827f"/><path d="M90.6 149.7c-6.1 7.2-8 12.4-9.7 17.9-1.7 5.5-5.4 3.8-5.1-1.9.3-5.7 3.7-11.9 4.3-12.8l10.5-3.2z" style="fill:#f57874"/><path class="st2" d="M73.2 119.9c-8.5 4.4-22.9 13.3-21.4 22s10.6 14.8 24.1 13.5c13.5-1.3 22.8-10.3 24.7-13.1s-.4-6.2-4.7-2.9c-4.3 3.4-15.2 10.5-24.9 10.2s-12.8-6.2-12.7-8.6c.1-2.4 5.2-9.7 18.6-16.7 3.2-1.6 1.4-7.2-3.7-4.4z"/><path class="st5" d="M58.4 133.4c11.3-.1 11.1 5.9 8.3 8.9-2.8 3-9.6 5.2-12.8 1.7-3.1-3.4-5.9-10.6 4.5-10.6z"/><path class="st4" d="M18 133.9c-6.2 4.6-9.8 8.6-10.7 11-.9 2.4-.7 5 1.9 3.4 3.8-2.5 7.8.2 4.2 5.4s-5.3 8.8-4.1 8.8 4.6-5.1 6.8-3c2.2 2.1 1.8 4.1 1 7.2-.8 3.1 0 6.1 3.2 3.1 3.1-3 5.8-5.4 6.7-3.1.9 2.3-2.3 9.4-8.4 12.1s-10.1-4.1-8-10.2c-8.5 6.2-11.1-4.3-4.8-13.7-10.5 1.4-5.4-14.4 7-24.1 5.3-4.5 9 .1 5.2 3.1z"/><path class="st1" d="M178.6 40.1c-2.6 9.8-6.1 19-8.8 23.4-6.9 11-20.3-2.6-23.9-5.9-3.7-3.3-19.3-18.9-21-21.3l-.6-.9c-1.3-2.2-1.8-5 2-7.7 20.8-15.5 46.7-26.8 54-21.4 4.4 3.3 2.2 19.2-1.7 33.8z"/><path class="st5" d="M178.6 40.1c3.4-25.7-23.9-27.6-54.3-4.7-1.3-2.2-1.8-5 2-7.7 20.8-15.5 46.7-26.8 54-21.4 4.4 3.3 2.2 19.2-1.7 33.8z"/><path class="st8" d="M134.6 46.6c8.5-9.2 18.3-13.6 21.6-14.7 3.3-1.2 3 .7-.8 2.5-3.7 1.8-9.8 5.5-19.1 14l-1.7-1.8zM138.5 50.5c11.8-6.7 18.5-9.4 22-10.4s2.9 1.3-1.3 2.6-16.6 8.2-19 9.6l-1.7-1.8zM144.4 56.2c6.3-2.6 11.6-4.3 15.2-5.3 3.6-1 4.1 1.6 0 2.7s-10.3 3.6-13 4.7l-2.2-2.1z"/><path class="st1" d="M71 36c-.3.8-.8 1.5-1.4 2.1-.2.3-.5.5-.8.8-2.1 2-20.9 13.7-25.2 16.1-4.3 2.4-18.2 13.6-22.5 1.4-1.3-3.7-3.3-12-4.6-19.3-.4-2.3-.7-4.5-.9-6.5C14 15.6 14.3 2.1 19.5.4c9.2-3 33.1 10 49.9 29.8 2 2.3 2.2 4.2 1.6 5.8z"/><path class="st8" d="M57 46.8c-6.3-10.9-14.8-17.3-17.8-19.2-3-1.9-3 0 .2 2.6 3.3 2.6 8.3 7.5 15.5 17.9l2.1-1.3zM52.4 49.7c-10-9.1-15.9-13.3-19.1-15.1-3.2-1.7-3.1.6.7 2.8 3.7 2.2 14.4 11.7 16.4 13.6l2-1.3zM45.3 54c-5.6-3.9-10.3-6.8-13.7-8.6-3.3-1.8-4.4.6-.6 2.6s9.3 5.8 11.6 7.5l2.7-1.5z"/><path class="st5" d="M71 36C38.1 8.9 17.4 9 16.5 37.1c-.4-2.3-.7-4.5-.9-6.5C14 15.6 14.3 2.1 19.5.4c9.2-3 33.1 10 49.9 29.8 2 2.3 2.2 4.2 1.6 5.8z"/></svg>