<svg version="1.1" id="Layer_1" xmlns="http://www.w3.org/2000/svg" x="0" y="0" viewBox="0 0 198 185.5" style="enable-background:new 0 0 198 185.5" xml:space="preserve"><style>.st0{fill:#f1e1e2}.st1{fill:#4f537f}.st2{fill:#fff}.st4{fill:#4f5581}.st5{fill:#fffbfc}</style><path class="st0" d="M172.4 62.7v89l-16.9 9V83.3z"/><path class="st1" d="M153.5 164V82.6l20.9-25.4V153l-20.9 11zm4-80v73.4l12.9-6.8V68.3L157.5 84z"/><path class="st0" d="M28.6 128.1C15.1 130.7.9 149.6 2 178.5c.3 8.1 6.2 5.1 27.6-12.2"/><path class="st1" d="M4.9 184.8c-.7 0-1.3-.1-1.9-.4-2.7-1.2-2.8-4.7-2.9-5.8-.7-17.4 4-29.2 8.1-36.1 5.2-8.9 12.6-14.8 20.1-16.3 1.1-.2 2.1.5 2.3 1.6.2 1.1-.5 2.1-1.6 2.3-13.1 2.5-26 21.3-25 48.3.1 2 .5 2.3.5 2.3 2.5 1.1 17.5-10.9 23.9-16.1.9-.7 2.1-.6 2.8.3.7.9.6 2.1-.3 2.8-15.6 12.7-22.1 17.1-26 17.1z"/><path class="st2" d="M28.6 77.3V161c0 6.7 2.3 6.9 7.2 6.9h114c5.7 0 5.6-3.2 5.6-7.2V83.3L92.1 33.8 28.6 77.3z"/><path class="st1" d="M149.9 169.9h-114c-5.6 0-9.2-.6-9.2-8.9V76.2l65.5-44.9 65.4 51v78.5c0 2.2 0 4.3-1 6-1.2 2.1-3.3 3.1-6.7 3.1zM30.6 78.3V161c0 4.9.6 4.9 5.2 4.9h114c2.6 0 3.1-.8 3.2-1 .5-.8.5-2.4.5-4V84.3L92 36.2 30.6 78.3z"/><path class="st0" d="m92.1 33.8 63.4 49.5 24.9-30.2L115 2z"/><path class="st0" d="m26.1 79.1 66-45.3L115 2 46.8 48.2z"/><circle class="st4" cx="63.1" cy="106.1" r="18.6"/><ellipse transform="rotate(-30 60.097 99.982)" class="st5" cx="60.1" cy="100" rx="11.1" ry="7.3"/><ellipse transform="rotate(-35.119 71.8 113.241)" class="st5" cx="71.8" cy="113.2" rx="4" ry="3"/><ellipse transform="rotate(-5.188 64.292 119.105)" class="st5" cx="64.3" cy="119.1" rx="3.2" ry="2.2"/><ellipse class="st5" cx="56.2" cy="118.3" rx="1.9" ry="1.5"/><circle class="st4" cx="120.7" cy="106.1" r="18.6"/><ellipse transform="rotate(-30 117.613 99.985)" class="st5" cx="117.6" cy="100" rx="11.1" ry="7.3"/><ellipse transform="rotate(-35.119 129.311 113.242)" class="st5" cx="129.3" cy="113.2" rx="4" ry="3"/><ellipse transform="rotate(-5.188 121.809 119.105)" class="st5" cx="121.8" cy="119.1" rx="3.2" ry="2.2"/><ellipse class="st5" cx="113.7" cy="118.3" rx="1.9" ry="1.5"/><path class="st4" d="M47.2 96.5c-4.1-2-6-4.4-7.1-5.8-1.2-1.6-3.6-1-1.8 1.8 1.7 2.8 4.8 5.6 7.5 6.9l2.2-.7-.8-2.2zM44.9 102.3c-2.2-.1-5.1-.7-6.5-1.4-1.5-.8-2.8 1.2-.8 2.4 2 1.3 5.7 1.9 6.9 1.9l3.4-1.8-3-1.1zM137 97.1c4-2.4 5.8-4.6 7-6 1.5-1.7 3.9-.6 2.4 1.6-1.4 1.9-4.9 5.6-8 7.2h-2.8l1.4-2.8zM138.8 101.9c4.1.6 5.8-.4 7-1 1.6-.9 3.5 1 1 2.5s-4.5 1.8-7.5 1.6l-3-1.5 2.5-1.6z"/><path class="st1" d="M89.6 129.6c-.4 0-.8-.2-1.1-.5l-4.6-4.7c-.6-.6-.6-1.5 0-2.1.6-.6 1.5-.6 2.1 0l3.7 3.8 7.2-4.7c.7-.5 1.6-.3 2.1.4s.3 1.6-.4 2.1l-8.2 5.4c-.3.2-.6.3-.8.3zM99.7 156.5c-2.2 0-8.9 0-13.5-4.7-3.5-3.5-5.2-8.9-5.1-16.2 0-.6.5-1.1 1.1-1.2l26.8-3.9c.7-.1 1.3.4 1.4 1.1.1.7-.4 1.3-1.1 1.4l-25.7 3.7c.1 6 1.5 10.5 4.3 13.3 3.5 3.5 8.3 3.9 11.7 3.9 4.1 0 11.7 0 11.7-16.1 0-.7.6-1.2 1.2-1.2s1.2.6 1.2 1.2c.2 16.6-7.4 18.7-14 18.7z"/><path class="st2" d="M154.8 136.1c22.2-1.6 33.8-.7 36.4 11.2 2.6 11.9 8.8 32 1.2 35.6-7.6 3.6-18.4-10.5-18.4-10.5h-20.1c-4.8 0-8.4.5-17.1-18.9"/><path class="st1" d="M189.7 185.5c-3.1 0-6.7-1.7-10.6-5-2.8-2.3-5-4.9-6-6.1h-19.5c-5.9 0-10-.9-18.6-20.1-.5-1 0-2.2 1-2.6 1-.4 2.2 0 2.6 1 7.9 17.7 11 17.7 14.9 17.7h21.4l.6.8c2.6 3.3 11 12.2 16 9.9 5.1-2.4 1.2-18.5-1.1-28.1-.4-1.9-.9-3.6-1.2-5.3-2-9.2-9.7-11.4-34.3-9.6-1.1.1-2.1-.8-2.1-1.9-.1-1.1.8-2.1 1.9-2.1 20.6-1.4 35.4-1.4 38.5 12.7.4 1.6.8 3.4 1.2 5.2 3.1 12.8 6.9 28.8-1.1 32.6-1.2.6-2.4.9-3.6.9zM155.5 85.3c-.4 0-.9-.1-1.2-.4L90.9 35.3c-.8-.7-1-1.9-.4-2.7L113.4.8c.3-.4.8-.7 1.3-.8.5-.1 1.1.1 1.5.4l15.6 12.2c.9.7 1 1.9.3 2.8-.7.9-1.9 1-2.8.3l-14-10.9-20.5 28.6 60.4 47.2 22.3-27.1-35.9-28.1c-.9-.7-1-1.9-.3-2.8.7-.9 1.9-1 2.8-.3l37.5 29.4c.4.3.7.8.8 1.4.1.5-.1 1.1-.4 1.5l-24.8 30.2c-.5.2-1.1.5-1.7.5z"/><path class="st1" d="M26.1 81.1c-.5 0-1-.2-1.4-.6-.7-.7-.8-1.7-.3-2.5l8.2-12.1c.6-.9 1.9-1.2 2.8-.5.9.6 1.2 1.9.5 2.8l-2.3 3.4 57.1-39.2L106.8 10 48.2 49.7 40.6 61c-.6.9-1.9 1.2-2.8.5-.9-.6-1.2-1.9-.5-2.8L45.1 47c.1-.2.3-.4.5-.5L113.8.3c.8-.5 1.9-.4 2.6.3.7.7.8 1.8.2 2.6L93.7 34.9c-.1.2-.3.3-.5.5l-66 45.3c-.4.2-.7.4-1.1.4z"/></svg>