<svg version="1.1" id="Layer_1" xmlns="http://www.w3.org/2000/svg" x="0" y="0" viewBox="0 0 183.8 194.2" style="enable-background:new 0 0 183.8 194.2" xml:space="preserve"><style>.st2{fill:#3e4257}.st3{fill:#ffe46e}</style><path d="m23.6 192.2-14.5-14c-1.9-1.9-3-4.4-3-7.1V61.8l12.6-5.1L14.8 67l8 7.4.8 117.8z" style="fill:#51536e"/><path d="M176.6 66.8v117c0 10.2-3.3 10.4-11.3 10.4H29.1c-6.6 0-6.4-2.2-6.4-10.8V74.3l75.1-52.9 78.8 45.4z" style="fill:#606481"/><path class="st2" d="M72.4 2 3.2 53.9c-4.8 4-3.5 6.6-.8 9.1C5 65.5 19.5 79.6 19.5 79.6c4 4 7.5 2 10 0S98.2 27 98.2 27l78.5 44c4.4 2 11.4-1.8 4.1-7.6S164.5 48 164.5 48c-4.3-4.8-7-4.5-16.9-10S81.2 1.1 81.2 1.1c-3.8-2.3-7-.5-8.8.9zM123.3 142.1H89c-2 0-3.6-1.6-3.6-3.6s1.6-3.6 3.6-3.6h34.3c2 0 3.6 1.6 3.6 3.6.1 2-1.6 3.6-3.6 3.6z"/><circle class="st2" cx="68.9" cy="126.7" r="7"/><circle class="st2" cx="143" cy="126.7" r="7"/><path class="st3" d="M44.5 136H59v14.5H44.5zM154 136h14.5v14.5H154z"/></svg>