<svg version="1.1" id="Layer_1" xmlns="http://www.w3.org/2000/svg" x="0" y="0" viewBox="0 0 161.9 187.9" style="enable-background:new 0 0 161.9 187.9" xml:space="preserve"><style>.st0{fill:#315599}.st3{fill:#fff7ff}</style><path class="st0" d="m143.1 184.5 12.1-15.1c2.6-3.5 1.6-4.4 1.6-18.4V49.2l-12.3-3.6 3.9 10.3-3.9 8.4-1.4 120.2z"/><path d="M4.6 64.3v111.9c0 12 4 11.8 11.2 11.8H132c13.5 0 12.6-5.2 12.6-14.6v-109L66.3 17.8 4.6 64.3z" style="fill:#476cb3"/><path d="M78.3.6 21.2 41.2c-4.9 3.7-5.3 5-10 10.4S.9 64.9.9 64.9c-2.6 3.6.5 6.2 5.8 2 5.3-4.3 60.8-43.6 60.8-43.6l72.6 43.9c5.6 3.3 7.1.9 9.5-2.2 2.4-3.2 11.2-15.7 11.2-15.7 2.9-4.1-1.2-6-5.1-8.2S84.9 1.6 84.9 1.6c-3.4-1.9-5.1-2-6.6-1z" style="fill:#fb9eab"/><path class="st3" d="m101.1 24.9 26.1 16.7 2.3-9.2c17.3 2.7 18-10.6 6-15.9C139.1 0 128.3-3 119.8 6.2c-15.7-11.4-20.9 2.2-15.2 15.1l-3.5 3.6z"/><path class="st0" d="m19.7 149.7-3.5-1.4.7 3.5-2.7 2.9 3.8.6 1.7 3.6 1.8-4.5 4.5-.1-3.1-2.7.5-3.8zM22 136l-2.6-1.9v4.8l-3 1.3 3.7 1.5 1 3 1.8-3.3 3.9-.3-2.7-2.7 1.4-3.4zM109.9 142l-3.6-1.4 1.2 4.2-2.6 2.4 4.2.5 1.6 3.4 1.4-3.9 3.8-.4-3.2-3.1.4-4.1zM126 145.4l-3.1-3.6-.8 4.9-4.9 1.8 4.4 1.4v5l3.4-3.8 4.7 2.3-2.2-4.5 3.4-3.5zM112.4 155.3l-3.3-1.7v4.2l-4.2 2 5 1.2 1.9 4.3 2.3-4.1 4.7.5-3.7-3.7 1.4-3.6z"/><path class="st3" d="M69.4 147.2H57.9c-1.1 0-2.1-.9-2.1-2.1 0-1.1.9-2.1 2.1-2.1h11.5c1.1 0 2.1.9 2.1 2.1 0 1.2-.9 2.1-2.1 2.1z"/><ellipse transform="rotate(-75.322 39.244 131.247)" class="st3" cx="39.2" cy="131.3" rx="12" ry="8.5"/><path class="st3" d="M36.9 104.2c9.2-4.1 15.5.1 18.3 5.2s-1.8 7.4-3.8 2.2-7.8-6.6-11.6-3.5c-3.6 3-7.3-1.7-2.9-3.9z"/><ellipse transform="rotate(-75.322 90.291 136.632)" class="st3" cx="90.3" cy="136.6" rx="12" ry="8.5"/><path class="st3" d="M88 109.6c9.2-4.1 15.5.1 18.3 5.2 2.8 5.1-1.8 7.4-3.8 2.2-2-5.1-7.8-6.6-11.6-3.5-3.7 3-7.4-1.7-2.9-3.9z"/><path class="st0" d="m4.6 138.9 2.4.5 2.1-2.4.3 3.1 4.8 2.9-4 .7.2 4.1-3.2-3.1-2.6.8z"/></svg>