<svg version="1.1" id="Layer_1" xmlns="http://www.w3.org/2000/svg" x="0" y="0" viewBox="0 0 239.6 204.4" style="enable-background:new 0 0 239.6 204.4" xml:space="preserve"><style>.st5{fill:#6eb5f2}.st7{fill:#f1c5ae}.st10{fill:#40405c}.st11{fill:#b6ea84}</style><path d="M185.9 66.7v107c0 3.3-1 6.4-3 9-5.1 6.8-15.6 19.8-22.8 21.4V71.7l25.8-5z" style="fill:#fa7e7b"/><path d="M5.8 90.5v103.4c0 9.6 2.4 10.5 7.4 10.5h142.9c9 0 10-3.4 10-11.3V87.9L72.9 42.3 5.8 90.5z" style="fill:#fff"/><path d="M199.3 151.7v10.5c-7.2-8.4-13.1-9.7-19.2-10.5-.8 11.9 9.8 20.5 19.2 21.8v10.3c0 6.1 9 6.1 9 0v-43.4l-9 11.3z" style="fill:#56b778"/><path d="M213.2 93.9c2.2-14.9-3.7-22.9-5-23.2-1.3-.3-6.4 6.7-6.7 20.2-4.6-14.1-7.7-14.1-8.7-14.1s-1 5.9 1.9 18.6c-15.2-12.5-19.4-7.7-10.6 6.9-16.5-2.7-22.9.2-11.3 7.1-3.6 1.8-1.5 5.4 4.2 6.6-15.9 0-21.2 9.3 6.1 10.3-13.5 6.9-15.9 11.4.2 7.1-12.5 13.1-13.6 25.2 4.3 9.1-1.4 10.7 1.6 13.9 10.3-.5-.9 18 6 21.1 11.5 1.6 9 17.8 13.5 6.4 8.2-3 12.7 10.4 21.9 10.1 5.9-10.1 19.1 6.7 18.1-1.8 6.1-9.3 16.2 5.3 9.9-2.2-1.1-5.9 18.9-13.2 6.9-14.1-8.2-12 16.8-21.9 5.6-22.9-7.1-9.4z" style="fill:#f7e07f"/><ellipse cx="204.1" cy="117.9" rx="11.9" ry="15.7" style="fill:#d68165"/><path class="st5" d="M103.6 142c0 .8-.1 1.7-.1 2.5C102.3 156 92.6 165 80.8 165c-11.2 0-20.4-8.1-22.4-18.7-.3-1.4-.4-2.8-.4-4.3 0-12.7 10.2-23 22.8-23 12.6.1 22.8 10.4 22.8 23z"/><path d="M103.5 144.5C102.3 156 92.6 165 80.8 165c-11.2 0-20.4-8.1-22.4-18.7 5.4-5.5 13.9-9.1 23.5-9.1 8.5 0 16.2 2.8 21.6 7.3z" style="fill:#b3dbfa"/><ellipse class="st5" cx="44.5" cy="127.7" rx="5.6" ry="7.3"/><ellipse class="st5" cx="120.5" cy="127.7" rx="5.6" ry="7.3"/><circle class="st7" cx="35.9" cy="148.7" r="2.6"/><circle class="st7" cx="27.2" cy="138.5" r="2.6"/><circle class="st7" cx="22.9" cy="150" r="2.6"/><circle class="st7" cx="126.8" cy="148.7" r="2.6"/><circle class="st7" cx="135.5" cy="138.5" r="2.6"/><circle class="st7" cx="139.8" cy="150" r="2.6"/><path d="M95.5 16.7 29.6 57.5c-6.3 3.8-9 5.1-12.6 10.9S.9 90.3.9 90.3c-2.5 4 .4 6.1 4.8 3.3 4.4-2.8 69-42 69-42L160 94.9c4.2 2.4 5.5.7 8.5-3.1s21.7-27.2 21.7-27.2c3.3-4.3.8-5.3-5.8-8.3s-79.8-39.7-79.8-39.7c-3.6-1.7-6-1.8-9.1.1z" style="fill:#fbd787"/><path d="M61.6 19c0-2.9-1.6-7.4-1.8-8 3.1-3.8 1.3-16.7-6.2-6.2h-6.9c-3.1-7-8.8-7.3-7.9 6-.8 1.5-.8 8.1-.8 8.2v-.1l23.6.1z" style="fill:#616581"/><path class="st10" d="m47.9 14.1 1.9 2 2.1-2z"/><ellipse class="st11" cx="45.2" cy="12.8" rx="1.5" ry="2.3"/><ellipse class="st11" cx="54.3" cy="12.8" rx="1.5" ry="2.3"/><path class="st10" d="M58.5 15.2c-.2 0-.3-.1-.4-.2-.1-.2-.1-.5.2-.7 2.6-1.7 8.7-3.5 9-3.6.3-.1.5.1.6.3.1.3-.1.5-.3.6-.1 0-6.2 1.9-8.8 3.5-.1 0-.2.1-.3.1zM65.7 17.1h-.2c-.5-.2-3.7-.4-6.5 0-.3 0-.5-.1-.6-.4 0-.3.2-.5.4-.6 2.8-.4 6.3-.2 7 0 .3.1.4.4.3.6 0 .2-.2.4-.4.4zM41.2 15.2c-.1 0-.2 0-.3-.1-2.8-2-8.9-3.4-9.3-3.4-.3 0-.5-.3-.4-.6s.3-.5.6-.4c.5.1 6.8 1.5 9.8 3.6.2.2.3.5.1.7-.1.1-.3.2-.5.2zM33.8 17.1c-.2 0-.4-.2-.5-.4 0-.3.1-.5.4-.6.9-.2 4.6-.5 6.8-.2.3 0 .5.3.4.5 0 .3-.3.5-.5.4-2.1-.2-5.7.1-6.6.3.1 0 0 0 0 0z"/><path d="M61.7 19H38.3c-.6 0-1.2.5-1.2 1.2v36.3c0 2.1 2.2 3.4 4 2.5l19-9.2c1.7-.8 2.7-2.5 2.7-4.4V20.2c.1-.7-.4-1.2-1.1-1.2z" style="fill:#83cbfc"/></svg>