<svg version="1.1" id="Layer_1" xmlns="http://www.w3.org/2000/svg" x="0" y="0" viewBox="0 0 159.2 183" style="enable-background:new 0 0 159.2 183" xml:space="preserve"><style>.st3{fill:#f8f1f5}.st4{fill:#bf4e20}</style><path d="M7.2 51.8V148c0 14.2 3.1 15.2 5.2 17.3 2.1 2.1 14 13.8 14 13.8L38.9 74.8l-17-31.2-7 12.4-7.7-4.2z" style="fill:#eb7a31"/><linearGradient id="SVGID_1_" gradientUnits="userSpaceOnUse" x1="88.664" y1="25.67" x2="88.664" y2="182.943"><stop offset="0" style="stop-color:#ff696b"/><stop offset=".51" style="stop-color:#fb8e49"/><stop offset="1" style="stop-color:#ff764a"/></linearGradient><path d="M23.9 67.3v103.2c0 15.2 12.6 12.4 20.1 12.4h95.4c15 0 13.9-9.1 13.9-21.3V64.8l-68.1-41-61.3 43.5z" style="fill:url(#SVGID_1_)"/><path d="M64.5 1.7 3.2 43.6c-6.5 4.8-1.3 8.8 0 10.1C4.6 55 21.8 74.4 21.8 74.4c3.3 3.6 6.8 2.9 10.4 0s57.4-40.9 57.4-40.9L151.5 70c5.8 3.4 10.8-3.5 5.6-8.7-5.2-5.2-15.9-17.8-15.9-17.8-4.6-6.2-6.9-5.6-10.8-8.1C126.5 33 73.7 1.7 73.7 1.7c-4.4-3.1-7.6-1.2-9.2 0z" style="fill:#104b83"/><path class="st3" d="m153.4 137.8-14.6-8.8c-5.9-3.7 1-14.3 7.8-7.5 1.8-3.7 5.8-3.4 6.8-2.8v19.1zM36.7 136l13.7-7.2c6-2.9-.5-13.8-8.3-7.3-2.7-5.9-13.9-1.3-9.5 5.4-6.9 0-5.1 13.9 4.1 9.1z"/><path class="st4" d="M61.6 108.8c-4.3-5.3-9.2-2.9-11.4 1.1-2.2 4-8.4 2.3-5.5-3.5 2.9-5.9 13.7-11.7 20.8-2 2.8 4.3-.8 8.4-3.9 4.4zM120 110.8c4.3-5.3 9.2-2.9 11.4 1.1 2.2 4 8.4 2.3 5.5-3.5-2.9-5.9-13.7-11.7-20.8-2-2.8 4.3.8 8.4 3.9 4.4zM109.1 120.7c-.1 1-.3 2.1-.5 3.1-2.2 9.9-10.5 16.9-19.6 16.1-8-.7-14.3-7.3-16-15.8-.4-2.1-.6-4.4-.3-6.7 1-11.5 10-20.1 20.1-19.2 10 .9 17.3 11 16.3 22.5z"/><path d="M108.6 123.7c-2.2 9.9-10.5 16.9-19.6 16.1-8-.7-14.3-7.3-16-15.8 4.8-4.9 12.2-7.8 20.2-7 6.1.6 11.5 3.1 15.4 6.7z" style="fill:#ff6b6b"/></svg>