<svg version="1.1" id="Layer_1" xmlns="http://www.w3.org/2000/svg" x="0" y="0" viewBox="0 0 179.5 201.2" style="enable-background:new 0 0 179.5 201.2" xml:space="preserve"><style>.st0{fill:#ffeebf}.st1{fill:#f8885c}.st5{fill:#c15d32}</style><path class="st0" d="M112.8 121.5c-10.3-6.6-24.3-10.7-36.5-10.7s-22.2 2.4-32.7 8.4S18.4 134 3.2 131v43.5c0 7.5 1.6 9.7 7.8 9.7h127.5c9.2 0 7.8-4.6 7.8-10.8v-41.8c-5.6 1.4-23.2-3.5-33.5-10.1z"/><path class="st1" d="M43.7 119.2c10.5-5.9 20.5-8.4 32.7-8.4 12.2 0 26.2 4.1 36.5 10.7s27.8 11.6 33.5 10.2V69L78.3 19.7 3.2 78.1v53c15.2 2.9 29.9-6 40.5-11.9z"/><path d="m160.4 124.2-14.1 7.4v41.8l14.1-.3v-48.9z" style="fill:#f0da9e"/><path d="M160.4 124.2v-68l-14.1 12.7v62.7l14.1-7.4z" style="fill:#e37b44"/><path d="M89.5 2 25.4 51c-6.7 4.4-9.6 7.8-12.4 10.7-2.7 3-12 14.1-12 14.1-3.1 3.7 1.3 8.6 6.9 4 5.7-4.6 69.8-53.2 69.8-53.2L140 74.9c4.4 3.6 6.7 1.5 9.6-1.5 2.9-2.9 13.6-14.7 13.6-14.7 3.6-4.6-.2-7.3-5-10.9C153.4 44.3 99.7 2 99.7 2c-3.3-3.1-7.4-2.2-10.2 0z" style="fill:#c74619"/><path class="st1" d="m102.7 29.2 33.5 25.6c34.4-32.9-21.2-58.7-33.5-25.6z"/><path class="st0" d="M111.4 35.9c11-27.2 41.5-2 18.8 14.3l-18.8-14.3z"/><path class="st1" d="M55.7 30.1 22.8 54.8c-34.7-27 19.1-62.9 32.9-24.7z"/><path class="st0" d="M29 50.2C4.4 30.9 40.7 11.9 47.5 36.3L29 50.2z"/><path class="st5" d="M29.3 63.3c5.6 25.8 25.4 23 23.3-17.8L29.3 63.3zM62.6 38c-4 36.5 28.4 44.3 26.5-2.6l-11.4-8.9L62.6 38zM99.1 43.2c-4.9 38.5 17.4 50.3 23 17.9l-23-17.9zM3.2 161.6c4.2 5.3 10.2 8 12 5.6s-1.2-4.8-4.8-10.1-3.6-9.1-7.2-10.5v15zM9.2 125.1c-3.4 13.1 2.3 28.7 16.9 31 8.5 1 6.8-3.3 2.3-6.8s-12.3-13.6-12.6-24.2c-.2-4.9-4.5-6.4-6.6 0zM142.2 124.2c2.4 12.9.1 25.8-16.1 32.1-6.3 2.5-8.3-2.7-2.5-7.5 5.8-4.8 11.6-12.4 11.9-23.2.3-5.3 5.9-7.4 6.7-1.4zM137.2 161.6c-4.6 5.6.9 8.5 5.8 4.5 4.9-4 11.1-10.6 11.6-19.9.3-5.3-5.4-6.8-6.8-2.3-1.4 4.5-7.5 14.3-10.6 17.7z"/><path d="M179.5 157c0 3.8-.8 7.3-2.2 10.5-2.2 5.1-6 9.5-10.7 13.2-8.8 7.1-20.6 11.8-29.8 14.6-3.1 1-6 1.8-8.3 2.4-2.6.7-6 1.4-9.9 2-9.4 1.5-21.5 2.3-30.8.9-8.3-1.2-14.4-4.3-14.4-10.3 0-7.4 7.5-11.4 17.3-13.7 5.2-1.2 11-2 16.6-2.6 5-.5 9.8-.8 14-1.2 1-.1 1.9-.2 2.8-.3 9-.9 16.2-1.5 22.3-3.9 5.4-2.1 10-5.5 14-11.6v-19c2 .5 4.6 1.4 7.2 2.8 5.9 3.1 11.9 8.6 11.9 16.2z" style="fill:#f68960"/><path class="st5" d="M160.4 146.9v-9c2 .5 4.6 1.4 7.2 2.8 2.3 6.6-3.2 10-7.2 6.2zM160.4 157c0 20.3-17 35.3-14.1 11.6 5.5-2.1 10-5.5 14.1-11.6zM177.3 167.4c-2.2 5.2-6 9.5-10.7 13.2-2.8-21.4 5.6-30.7 10.7-13.2zM136.8 195.3c-3.1 1-6 1.8-8.3 2.4-2.6.7-6 1.4-9.9 2 9.4-18.4 19.4-24.6 18.2-4.4zM121.2 172.7c-6.3 22.8-21.8 25.5-14 1.2 5.1-.5 9.9-.9 14-1.2zM87.8 200.5c-8.3-1.2-14.4-4.3-14.4-10.3 0-7.4 7.5-11.4 17.3-13.7 3.5 10.8-.6 21.1-2.9 24z"/><ellipse class="st5" cx="38.6" cy="115.5" rx="7.6" ry="8.6"/><ellipse class="st5" cx="112.5" cy="115.5" rx="7.6" ry="8.6"/><path d="M56.9 130.1c0 4.6.6 7.8 3.2 11.3 2.5 3.5 5.7.3 6.9-2.7 1.2-3.1 1.7-6.4 1.7-8.6H56.9z" style="fill:#f5f7f6"/><path class="st5" d="M75.5 105.6c10.5 0 14.8 6.9 3.6 13.3v3.8c5.4 6.3 14.3 4.3 16.5 2.2 2.2-2.1 6.3 1.5 2.8 4.2-8.2 5.7-19.6 3.5-22.9-3.1-3.4 6.6-14.7 8.8-22.9 3.1-3.5-2.6.6-6.2 2.8-4.2 2.2 2.1 11 4.2 16.5-2.2v-3.8c-11.2-6.5-6.9-13.3 3.6-13.3z"/></svg>