<svg version="1.1" id="Layer_1" xmlns="http://www.w3.org/2000/svg" x="0" y="0" viewBox="0 0 229.7 186.5" style="enable-background:new 0 0 229.7 186.5" xml:space="preserve"><style>.st1{fill:#ffce9c}.st2{fill:#d19d70}.st3{fill:#b88c5f}.st4{fill:#05d67f}.st5{fill:#fcf1e0}</style><path d="M182.1 174.2c1.8 0 3.3-1.4 17.2-18l-17.2-14.3v32.3z" style="fill:#e6bb93"/><path class="st1" d="M38.6 94v73.7c0 6.1 1.8 6.5 6.5 6.5H182V77l-76.9-60-54.4 49.7L38.6 94z"/><path class="st2" d="M105 156.5c-2 4.9-7.5 5.1-10.5.5-2.9 5-11.9 4.4-13.5.3-2.4 3.2-7.4 3.3-9.6-.5-2.1 1.5-6.9.8-9.1-2.8-1.8.7-5.1-.5-6.9-3.2 0 .5.4 4.1 4.4 6.6s10.4 5.1 9.2 7.3c-1.2 2.1-10.2-1.7-15.7-6.9-5.5-5.1-5.1-23.4-5.1-26.1 0-2.8-.1-6.2 1.3-7.3-.7-.3-5.9-2-8.3-4.9-2.4-2.9-.3-4.4 2.4-2.9 2.7 1.5 6.6 4.5 12 4.2s14.4.2 16.7 5.2c2.1-1.5 7.9-1.5 11.3 4.6 1.8-1.4 8.8-3.3 11.1 2.2 1.6-2.2 8.3-4.4 10.3 2 2-6.3 8.7-4.2 10.3-2 2.2-5.5 9.2-3.7 11.1-2.2 3.4-6.1 9.2-6.1 11.3-4.6 2.2-5 11.3-5.4 16.8-5.1s9.3-2.8 12-4.2c2.7-1.5 4.8 0 2.4 2.9s-7.7 4.6-8.3 4.9c1.5 1 1.3 4.5 1.3 7.3s.4 21-5.1 26.1c-5.5 5.1-14.5 9-15.7 6.9-1.2-2.1 5.3-4.7 9.2-7.3 4-2.5 4.4-6.1 4.4-6.6-1.7 2.6-5 3.8-6.9 3.2-2.2 3.6-7 4.2-9.1 2.8-2.2 3.8-7.3 3.7-9.6.5-1.6 4.1-10.6 4.7-13.5-.3-3.1 4.6-8.6 4.3-10.6-.6zM65 61.5c4.8 3.8 11 10.1 14.6 12.4 3.5 2.3 6.3 2.5 2.5-2.8S67.8 57.3 67.3 56.9c-.5-.4-2.3 4.6-2.3 4.6zM143.6 55.9c-4.1 3.3-16 15.2-16.9 16.7-.9 1.5-2.7 6.1 2.3 1.9 4.9-4.2 19.5-15.3 19.5-15.3l-4.9-3.3z"/><path class="st2" d="M96 88.7c.9 4.6-2 15.2-3.5 20.4-1.5 5.2-1.4 8.4 3.2 9.5 4.6 1.1 7.1 1.6 8.9 4.8 4.1-4.1 6.3-4.4 9.5-4.4s5.2-5.6 3.5-9.6c-1.6-4.1-4.8-11.8-4.1-15.6.8-3.8 2.9-2.7 3.2-.1s6 10.5 6.2 20c.1 3.5-1.8 8.6-6.1 9-4.3.4-7.6 1.6-8.5 3.8-.9 2.2-6.2 2.8-8-.3-1.8-3-5.2-3.3-7.5-3.5-2.3-.3-7.7-3.9-5.1-14.2s2.8-12.6 2.4-15.4l5.9-4.4z"/><path class="st3" d="M144.6 109.5c2.5.9 4.1 1 9.1-2.3 5.1-3.3 22-12.8 22-12.8l-8.6-16.9-13.1 8.9-23.8 12.8 14.4 10.3z"/><path class="st4" d="M139.5 96.2c1 4.5 5.2 11.5 13.5 7 8.4-4.6 5.5-12.4.5-15l-13.7 6-.3 2z"/><path class="st2" d="M164 76.2c-3.5 3-25 17.9-30.9 18.7-5.9.8-6.4-3.4-5.3-8.5.7-3.8-3.8-4.6-4.5-.3-.7 4.3-.5 10.5 6.1 17s13.9 11 16.3 11 5.6-1.9.7-4.9S133 100 133 100c7.7-2.5 31.6-17.2 33.3-18.9l-2.3-4.9z"/><path class="st3" d="M65.6 109.5c-2.5.9-4.1 1-9.1-2.3-5.1-3.3-22-12.8-22-12.8l8.6-16.9 13.1 8.9L80 99.2l-14.4 10.3z"/><path class="st4" d="M70.7 96.2c-1 4.5-5.2 11.5-13.5 7-8.4-4.6-5.5-12.4-.5-15l13.7 6 .3 2z"/><path class="st2" d="M46.2 76.2c3.5 3 25 17.9 30.9 18.7s6.4-3.4 5.3-8.5c-.7-3.8 3.8-4.6 4.5-.3.7 4.3.5 10.5-6.1 17s-13.9 11-16.3 11c-2.5 0-5.6-1.9-.7-4.9S77 100 77 100c-7.7-2.5-31.6-17.2-33.3-18.9l2.5-4.9z"/><path class="st5" d="M149.5 126.1c1.6 1.9 2.4 5.3 2.4 6.9 8.1-4.3 4.3-10.2-2.4-6.9zM149.8 149.2c.6-3.4-1.9-5.9-.8-7.3 1.1-1.4 4.6-2.6 4.8.7s-1.9 5.8-4 6.6zM140.3 133c1.3 5.8 8.9 2.4 6.4-2.4-2.6-4.9-7.5-2.7-6.4 2.4zM144.8 147.8c-.3-5-4-8.1-5.1.4-.8 6.2 5.4 4.2 5.1-.4zM130.9 136.1c1.9 6.1 8.8 1.8 6.3-3.1-2.5-4.8-8.1-2.6-6.3 3.1zM129.7 149.4c0 5.3 7.2 6.6 7.1 0-.1-6.5-7.1-5.9-7.1 0zM118.7 150.6c.3 4.5 7.6 8.7 7.8 0 0-3.7-8.2-5.4-7.8 0zM118.7 136.1c-1.9 4.2-.9 8.1 1.7 8.1 2.6-.1 7.2-.6 4.1-7.6-1.7-3.5-4.7-2.6-5.8-.5zM107.7 151.4c-.1 4.1 3.3 5.2 5.4 1.5 2.1-3.6-5.3-7.4-5.4-1.5zM107.7 140.2c0 4.3 4.6 5.5 6.3 3.2s-.3-5.4-1.6-6.7c-1.4-1.3-4.7-.1-4.7 3.5zM60.5 126.1c-1.6 1.9-2.4 5.3-2.4 6.9-8.1-4.3-4.3-10.2 2.4-6.9zM60.2 149.2c-.6-3.4 1.9-5.9.8-7.3-1.1-1.4-4.6-2.6-4.8.7s1.9 5.8 4 6.6zM69.7 133c-1.3 5.8-8.9 2.4-6.4-2.4 2.6-4.9 7.5-2.7 6.4 2.4zM65.2 147.8c.3-5 4-8.1 5.1.4.8 6.2-5.4 4.2-5.1-.4zM79.1 136.1c-1.9 6.1-8.8 1.8-6.3-3.1 2.5-4.8 8.1-2.6 6.3 3.1zM80.3 149.4c0 5.3-7.2 6.6-7.1 0 .1-6.5 7.1-5.9 7.1 0zM91.3 150.6c-.3 4.5-7.6 8.7-7.8 0 0-3.7 8.2-5.4 7.8 0zM91.3 136.1c1.9 4.2.9 8.1-1.7 8.1-2.6-.1-7.2-.6-4.1-7.6 1.7-3.5 4.7-2.6 5.8-.5zM102.4 151.4c.1 4.1-3.3 5.2-5.4 1.5-2.2-3.6 5.2-7.4 5.4-1.5zM102.4 140.2c0 4.3-4.6 5.5-6.3 3.2s.3-5.4 1.6-6.7c1.3-1.3 4.7-.1 4.7 3.5z"/><path class="st2" d="M98.1 168.9h13.8c3.4 0 5 4.7-6.9 4.7s-10.8-4.7-6.9-4.7z"/><path d="M25.1 121.8c-1.2 21.9 1.8 43.6 6.2 51.8 2 3.6 4.5 3.8 4.5-3.7v-21c.9 5.1 2.9 10.9 2.9 11.3V98.8l-11.2 9.7-2.4 13.3z" style="fill:#6f4a30"/><path class="st1" d="M26.7 91.5c-30.9-14-36.6-6.7-8.4 21l8.4-10.6V91.5z"/><path d="M101.7 28.2C94.5 33.5 71.2 53.7 62 67.4S40.7 98 35.3 106.2s-14.5 38-14.9 53.6c-.2 8.6-3.3 9.2-5.2-3.1s-4.3-53.8 23.4-86.3C52 53 62.7 44.9 70.7 38.3s43.5-36 43.5-36c4.1-3.8 6.9-2.5 10 0 3.1 2.5 73 53.5 73 53.5 5.3 3.2 9.4 7.1 11.6 13.7 2.2 6.6 9.7 28.9 3 72.2-1.4 7-5.9 9.5-8.4 2.7-1.6 18.6-4.7 25-7.5 25.5s-5-12.5-5.2-14.4c-2.8 21.1-9 27.5-11.5 29.7s-7.5 2-5-6.4 4.8-38.9 3.1-55.7-7.9-41.2-20.8-54.3c-12.9-13.1-35.7-27.4-35.7-27.4-5 26.7-24.3 52.4-36.3 64.1S60.1 132.2 57.2 138s-4.9 4.5-3.7-4c1.2-8.5 8.6-23.3 16.8-34.6s31.4-39.6 31.4-71.2z" style="fill:#7f5839"/><path class="st1" d="M190.7 98.3c26.7-26.5 35-29.5 38.4-25.8 3.3 3.7-6.5 21-22.5 39.5-8.7 10.3-14 9.3-14 9.3.3-3.6-1.9-23-1.9-23z"/><path d="M191.6 107c6.8-7.2 17.2-16.6 19.8-14.7 2.5 2-17.9 20.3-19.1 21.8l-.7-7.1z" style="fill:#d29f6e"/></svg>