<svg version="1.1" id="Layer_1" xmlns="http://www.w3.org/2000/svg" x="0" y="0" viewBox="0 0 174.7 286.2" style="enable-background:new 0 0 174.7 286.2" xml:space="preserve"><style>.st2{fill:#ed7360}.st3{fill:#c04d40}.st5{fill:#f9cccf}.st6{fill:#fffffb}.st7{fill:#f8e1e2}.st10{fill:#f1eaea}</style><path d="M4.1 60.9v196.5c0 9.3 0 10.8 2.6 14S17.5 283 17.5 283c1.3 1.5 3.3 2.1 6 2.1V66.4L4.1 60.9z" style="fill:#e56e5c"/><path d="M17.5 78.6V278c0 7.7 4 7.1 12.5 7.1h133.2c7.8 0 6.7-5.2 6.7-11.3V71.9L89.7 16.7 17.5 78.6z" style="fill:#ff8277"/><path class="st2" d="M41.6 69.2s8.8 11.2 10.2 12.7c1.4 1.4 5-.7 3.1-1.7s-9.1-10.1-11-12.6l-2.3 1.6zM46.4 65.9c6.5 6.7 10.9 13.4 13.4 14.5s3.6-1.2 0-4C56.2 73.7 49 64.1 49 64.1l-2.6 1.8zM53.7 60.9l14.7 16.8 3-1.9-15.3-16.5zM61.3 55.8l14 16.6 2.5-1.6-14-16.7zM67.2 51.8l14.7 16.7v-5.3l-12.3-13zM128.7 50.8l-13 13.3 1.8 2.3 13.4-14zM134.2 54.5l-14 16.5 2.1 2.1 14.4-16.9zM141.5 59.4 126.6 76l2.5 1.7L144 61zM149.9 64.9l-16 15.2 3.4 1.5 15.2-15zM155.4 68.5l-13.3 14 4.8.9L157.5 70z"/><ellipse class="st3" cx="65.2" cy="126.6" rx="8.3" ry="10.6"/><ellipse class="st3" cx="132.7" cy="126.6" rx="8.3" ry="10.6"/><path d="M40.8 177.3c10.8 7 18.4 8 26.9 8h63.7c11.3 0 18.6-3 24.7-7.3 6.1-4.3 11.4.7 6.6 6.1s-10.9 10.6-31.7 10.6H67c-10.5 0-23.6-1.7-31.4-10.8-4.2-5.9.4-9.4 5.2-6.6z" style="fill:#ffdde2"/><path class="st5" d="M133.4 190.4H67.6c-13.9 0-24.2-3.7-33.5-12.1l.7-.7c9.1 8.2 19.2 11.9 32.8 11.9h65.9c11.8 0 22-4 30.3-11.9l.7.7c-8.6 8.1-19 12.1-31.1 12.1z"/><path class="st5" d="M97.3 185.5h1v9.2h-1zM90.5 185.5h1v9.2h-1zM84.1 185.3h1v9.5h-1zM77.7 185.3h1v9.5h-1zM103.9 185.3h1v9.5h-1zM109.5 185.3h1v9.5h-1zM116.7 185.3h1v9.5h-1zM121.3 185.3h1v9.5h-1zM73 185.3h1v9.5h-1z"/><path transform="rotate(-84.618 59.169 189.58) scale(1.00001)" class="st5" d="M54.4 189.1H64v1h-9.6z"/><path transform="rotate(-74.77 53.893 188.64)" class="st5" d="M49 188.1h9.8v1H49z"/><path transform="rotate(-67.67 48.28 186.857)" class="st5" d="M43.3 186.4h9.9v1h-9.9z"/><path transform="rotate(-55.424 42.746 184.004)" class="st5" d="M38 183.5h9.6v1H38z"/><path transform="rotate(-52.222 38.28 180.66)" class="st5" d="M34.1 180.2h8.4v1h-8.4z"/><path transform="matrix(.9958 -.09181 .09181 .9958 -16.82 13.588)" class="st5" d="M138.8 184.8h1v9.6h-1z"/><path transform="rotate(-15.377 144.732 188.762)" class="st5" d="M144.2 183.8h1v9.9h-1z"/><path transform="rotate(-26.1 149.732 187.275)" class="st5" d="M149.2 182.1h1v10.3h-1z"/><path transform="rotate(-36.251 155.591 184.259)" class="st5" d="M155.1 179.3h1v10h-1z"/><path transform="rotate(-37.303 159.839 180.917)" class="st5" d="M159.3 176.5h1v8.9h-1z"/><path class="st2" d="M82.7 166.1c-.1 0-.2 0-.3-.1-.5-.2-.8-.8-.6-1.3 2.3-6.5 3.7-22.2-2.3-27.9-.4-.4-.4-1 0-1.4.4-.4 1-.4 1.4 0 6.6 6.4 5.3 23 2.8 30.1-.2.3-.5.6-1 .6zM70.9 168.4c-.2 0-.3 0-.5-.1-.5-.3-.7-.9-.4-1.4 5.8-10.3 4.5-20.8 1.8-25-.3-.5-.2-1.1.3-1.4.5-.3 1.1-.2 1.4.3 3.1 4.6 4.5 16-1.7 27.1-.2.3-.5.5-.9.5zM62.3 164.8c-.2 0-.4-.1-.6-.2-.5-.3-.6-.9-.2-1.4 2.6-3.7 4.3-10.9 1.9-18-.2-.5.1-1.1.6-1.3.5-.2 1.1.1 1.3.6 2.6 7.8.8 15.6-2.2 19.8-.1.4-.4.5-.8.5zM53.3 160.7c-.2 0-.4-.1-.6-.2-.4-.3-.5-1-.2-1.4 1.5-1.8 2.9-11.1 1.7-16-.1-.5.2-1.1.7-1.2.5-.1 1.1.2 1.2.7 1.2 4.8 0 15.1-2.1 17.7-.1.3-.4.4-.7.4zM47.6 150.2c-.4 0-.9-.3-1-.8-.7-2.6-1.9-11.9-1.2-17.1.1-.5.6-.9 1.1-.9.5.1.9.6.9 1.1-.6 4.7.5 13.7 1.1 16.4.1.5-.2 1.1-.7 1.2-.1.1-.2.1-.2.1zM116.1 166.1c-.4 0-.8-.2-.9-.6-3.7-9.5-5.3-22 1.3-28.9.4-.4 1-.4 1.4 0s.4 1 0 1.4c-5.9 6.2-4.3 18-.9 26.9.2.5-.1 1.1-.6 1.3-.1-.1-.2-.1-.3-.1zM128.1 169.5c-.3 0-.6-.1-.8-.4-5.6-6.5-7.5-20.5-3.9-28.2.2-.5.8-.7 1.3-.5.5.2.7.8.5 1.3-3.3 7-1.5 20.2 3.6 26.1.4.4.3 1.1-.1 1.4-.1.3-.3.3-.6.3zM135.7 165.5c-.3 0-.7-.2-.9-.5-4.4-7.3-5.1-14.7-2.2-21.3.2-.5.8-.7 1.3-.5.5.2.7.8.5 1.3-3.3 7.6-.7 14.8 2.1 19.5.3.5.1 1.1-.3 1.4-.1.1-.3.1-.5.1zM142.2 160.5c-.6 0-1-.4-1-1v-16.6c0-.6.4-1 1-1s1 .4 1 1v16.6c0 .5-.4 1-1 1zM148.9 151.9h-.2c-.5-.1-.9-.6-.8-1.2l.2-1c.8-3.7 3-13.6 2.3-18.3-.1-.5.3-1.1.8-1.1.5-.1 1.1.3 1.1.8.8 5-1.4 14.8-2.3 19l-.2 1c0 .5-.4.8-.9.8zM164 173c-.6-.1-1-.5-1-1.1.4-5-.6-18-1.5-20.7-.2-.5.1-1.1.6-1.3.5-.2 1.1.1 1.3.6.9 2.8 2 16.2 1.6 21.5 0 .6-.5 1-1 1zM157.1 173c-.6 0-1-.5-1-1.1.3-4.4-1.6-11.6-2.1-12.6-.3-.3-.3-.8 0-1.2.3-.5.9-.6 1.4-.3 1.1.7 3 9.9 2.7 14.2 0 .6-.4 1-1 1zm-2.8-13.5zm0 0zM150.2 177.3c-.6 0-1-.4-1-1v-9.1c0-.6.4-1 1-1s1 .4 1 1v9.1c0 .6-.4 1-1 1zM144.2 204c-.6 0-1-.4-1-1v-6.6c0-.6.4-1 1-1s1 .4 1 1v6.6c0 .6-.5 1-1 1zM151 204c-.6 0-1-.4-1-1v-7.3c0-.6.4-1 1-1s1 .4 1 1v7.3c0 .6-.5 1-1 1zM157.1 202.5c-.6 0-1-.4-1-1v-7.1c0-.6.4-1 1-1s1 .4 1 1v7.1c0 .6-.4 1-1 1zM164 200.7c-.6 0-1-.4-1-1v-9.8c0-.6.4-1 1-1s1 .4 1 1v9.8c0 .6-.4 1-1 1zM88.4 218.1c-.6 0-1-.4-1-1v-11.9c0-.6.4-1 1-1s1 .4 1 1v11.9c0 .6-.5 1-1 1zM93.7 220.7c-.6 0-1-.4-1-1v-13.8c0-.6.4-1 1-1s1 .4 1 1v13.8c0 .5-.4 1-1 1zM98.6 222.3c-.6 0-1-.4-1-1v-15.4c0-.6.4-1 1-1s1 .4 1 1v15.4c0 .5-.5 1-1 1zM104.4 222.3c-.6 0-1-.4-1-1v-15.4c0-.6.4-1 1-1s1 .4 1 1v15.4c0 .5-.5 1-1 1zM110.7 218.1c-.5 0-1-.4-1-.9l-.7-11.9c0-.6.4-1 .9-1.1.5 0 1 .4 1.1.9l.7 11.9c0 .6-.4 1.1-1 1.1.1 0 0 0 0 0zM34.2 174c-.5 0-.9-.4-1-.9-1.5-11.9 1.1-22.7 1.6-23.8.2-.5.8-.8 1.3-.6.5.2.8.8.6 1.3 0 .1-2.9 10.6-1.4 22.8.1.5-.3 1-.9 1.1-.1.1-.1.1-.2.1zM40.8 174c-.5 0-1-.4-1-.9-.3-3.9.7-10.2 1.5-12.1.2-.5.8-.8 1.3-.5.5.2.8.8.5 1.3-.6 1.5-1.6 7.4-1.4 11.2.2.5-.2 1-.9 1 .1 0 .1 0 0 0zM47.6 177.8c-.6 0-1-.4-1-1v-10.2c0-.6.4-1 1-1s1 .4 1 1v10.2c0 .5-.5 1-1 1zM34.7 198.4c-.6 0-1-.4-1-1v-6.6c0-.6.4-1 1-1s1 .4 1 1v6.6c0 .6-.4 1-1 1zM40.8 202c-.6 0-1-.4-1-1v-6.9c0-.6.4-1 1-1s1 .4 1 1v6.9c0 .5-.4 1-1 1zM46.4 203c-.6 0-1-.4-1-1v-5.5c0-.6.4-1 1-1s1 .4 1 1v5.5c0 .6-.5 1-1 1zM53.9 204.7c-.6 0-1-.4-1-1V197c0-.6.4-1 1-1s1 .4 1 1v6.8c0 .5-.5.9-1 .9z"/><path class="st2" d="M99.2 259.2c-.4 0-.7-.2-.9-.5l-27.2-45.4c-.3-.5-.1-1.1.3-1.4.5-.3 1.1-.1 1.4.3l26.4 43.9 24.6-43.1c.3-.5.9-.6 1.4-.4.5.3.6.9.4 1.4l-25.5 44.6c-.2.4-.5.6-.9.6z"/><path class="st2" d="M99.2 259.2c-.5 0-.9-.3-1-.8L90 221.5c-.1-.5.2-1.1.8-1.2.5-.1 1.1.2 1.2.8l7.2 32.4 7-34c.1-.5.6-.9 1.2-.8.5.1.9.6.8 1.2l-7.9 38.5c-.2.4-.6.8-1.1.8zM140.2 239.5c-.4 0-.8-.3-.9-.7-.8-2.3-3.6-12.9-2.5-23.2.1-.5.6-.9 1.1-.9.5.1.9.6.9 1.1-1.2 11.2 2.4 22.2 2.4 22.3.2.5-.1 1.1-.6 1.3-.1.1-.2.1-.4.1zM152 232.9c-.3 0-.5-.1-.7-.3-2.5-2.7-10.3-14.3-11.6-19.5-.1-.5.2-1.1.7-1.2.5-.1 1.1.2 1.2.7 1.2 4.8 8.8 16.2 11.1 18.6.4.4.4 1 0 1.4-.2.2-.5.3-.7.3zM169.9 229.1h-.1c-13.6-1.7-23.5-10.8-27.9-18.1-.3-.5-.1-1.1.4-1.4.5-.3 1.1-.1 1.4.4 4.1 6.9 13.5 15.6 26.4 17.2.5.1.9.6.9 1.1-.2.4-.6.8-1.1.8zM169.9 220.3h-.2c-8.7-1.4-18.1-7.8-22.3-13.3-.3-.4-.2-1.1.2-1.4.4-.3 1.1-.2 1.4.2 3.8 5 12.9 11.2 21 12.5.5.1.9.6.8 1.1 0 .5-.5.9-.9.9zM24 221.1h-.6c-.6 0-1-.5-1-1s.5-1 1-1c11.3.3 22-9.4 23.3-12.6.2-.5.8-.8 1.3-.5.5.2.8.8.5 1.3-1.6 4.2-12.9 13.8-24.5 13.8zM24.1 229.2h-1.4c-.6 0-1-.5-1-1s.5-1 1-1c15.9.6 27.5-10.1 31.5-17.4.3-.5.9-.7 1.4-.4.5.3.7.9.4 1.4-4.1 7.5-15.9 18.4-31.9 18.4zM44.3 233.6c-.3 0-.7-.2-.9-.5-.3-.5-.1-1.1.4-1.4 4.1-2.3 10.7-11.9 13.4-19.3.2-.5.8-.8 1.3-.6.5.2.8.8.6 1.3-2.8 7.9-9.7 17.8-14.3 20.3-.2.1-.3.2-.5.2zM57.6 239.5c-.2 0-.3 0-.5-.1-.5-.3-.7-.9-.4-1.4.8-1.5 2.8-11.1 2.8-19.8 0-.6.4-1 1-1s1 .4 1 1c0 8.8-2 18.7-3 20.7-.2.4-.6.6-.9.6z"/><path class="st2" d="M99.1 286.1c-.6 0-1-.4-1-1 0-24.3-41-45.2-74.6-45.2-.6 0-1-.4-1-1s.4-1 1-1c17.1 0 36.3 5.2 51.3 13.9 13 7.5 21.4 16.9 24.2 26.4 2.7-9.4 10.9-18.8 23.3-26.4 14.3-8.7 32.1-14 47.5-14 .6 0 1 .4 1 1s-.4 1-1 1c-30.8 0-69.9 21.3-69.9 45.2.2.6-.3 1.1-.8 1.1z"/><path class="st2" d="M102.9 286.1h-.2c-.5-.1-.9-.6-.8-1.2 1.2-6.6 7.5-13.9 17.8-20.6 14.1-9.1 36.5-17 50.4-13.6.5.1.9.7.7 1.2-.1.5-.7.9-1.2.7-11.6-2.9-32.6 2.9-48.8 13.4-9.8 6.3-15.8 13.2-16.9 19.3-.1.4-.5.8-1 .8z"/><path class="st2" d="M111.5 286.1c-.2 0-.4-.1-.6-.2-.5-.3-.6-.9-.2-1.4 7.7-11 22.5-16.4 33.6-18.9 12.2-2.8 23.2-3.2 25.6-3 .6 0 1 .5.9 1.1 0 .5-.5 1-1.1.9-5-.4-43.8 1.5-57.4 21.1-.2.2-.5.4-.8.4zM123 286.1c-.4 0-.7-.2-.9-.6-.2-.5 0-1.1.5-1.3 23.3-11.3 45.6-9.7 47.8-8.7.5.2.7.8.5 1.3-.2.5-.8.7-1.3.5-1.5-.6-22.8-2.6-46 8.7-.3.1-.5.1-.6.1zM95.3 286.1c-.4 0-.8-.2-.9-.6-8.2-20.8-40-36.2-70.8-34.3-.5 0-1-.4-1.1-.9 0-.6.4-1 .9-1.1 31.6-1.9 64.2 14 72.8 35.6.2.5 0 1.1-.6 1.3h-.3z"/><path class="st2" d="M87.1 286.1c-.2 0-.5-.1-.7-.3-17.2-15.5-37.2-22.2-62.9-21.3-.5 0-1-.4-1-1s.4-1 1-1c26.3-.9 46.8 6 64.3 21.8.4.4.4 1 .1 1.4-.2.3-.5.4-.8.4zM73 286.1c-.2 0-.3 0-.4-.1-17.4-8.7-34.7-12.1-48.7-9.6h-.3c-.5.1-1.1-.3-1.2-.8-.1-.5.3-1.1.8-1.2h.2c14.6-2.7 31.9.7 49.9 9.8.5.2.7.8.4 1.3.1.4-.3.6-.7.6z"/><path class="st6" d="M84 253.9c-5.7-4.5-18.6-24-27.4-37.5-2.3-3.5-4.3-6.7-5.8-9l5.1-.4.8-3.2 7.5 6.2c.5 1.6 1.3 3.7 2.3 5.9 5.5 11.9 17.5 30.5 19.6 33.6 2.5 3.5 5 10.1-2.1 4.4z"/><path class="st7" d="M66.5 215.8c-1.1-.2-5.8-.8-9.9.6-2.3-3.5-4.3-6.7-5.8-9l5.1-.4.8-3.2 7.5 6.2c.4 1.5 1.2 3.6 2.3 5.8z"/><path class="st6" d="M113.5 253.9c5.7-4.5 18.6-24 27.4-37.5 2.3-3.5 4.3-6.7 5.8-9l-5.1-.4-.8-3.2-7.5 6.2c-.5 1.6-1.3 3.7-2.3 5.9-5.5 11.9-17.5 30.5-19.6 33.6-2.6 3.5-5.1 10.1 2.1 4.4z"/><path class="st7" d="M130.9 215.8c1.1-.2 5.8-.8 9.9.6 2.3-3.5 4.3-6.7 5.8-9l-5.1-.4-.8-3.2-7.5 6.2c-.4 1.5-1.2 3.6-2.3 5.8z"/><path class="st6" d="M142.1 179c9-7.4 21.8-23 27.8-33.7V71.9l-7.4-5.1c-5.9 11.9-18.8 19.6-34.1 8.6-15.3-10.9-10.7-20.9-3.6-27.2L98.4 30.8 73 47.8c9.9 13.1 8.3 21-3.5 27.8-11.8 6.7-23.2 5.9-31-4.3l-21.1 7.3V196c6 8.5 15.9 13 31.3 13.4 12-.1 15.5 3.2 19.3 4.1 3.9.9 8.7 3.6 11.9 6.6 3.2 3 12.7 5.5 19.3 5.5 6.7 0 15.9-2.7 20.1-6.3 4.1-3.6 11.6-8.8 17.5-8.8s25-.9 33-5.2V178c-1.5 17.8-14.6 25.7-29.2 20.9-5.4-2-7.5-12.5 1.5-19.9zm-96.6 20.6c-19.8-3.2-18.2-30.4-16.3-52.4 2.7 5 10.6 18.4 24.1 29.2 13.5 10.7 12 26.3-7.8 23.2zm14.1-39.9c-8.8-10.9-23.3-26.7-20.2-44.9 10.1 10.7 42.7 11.7 50 8.6 5.1 16.9 4.3 26.6-1.2 33.8-5.6 7.2-19.8 13.4-28.6 2.5zm39 59.3c-6.7 0-12.3-2.6-18.3-12.3 6.7 0 11.8 2.4 18.3 2.4s14.6-3.5 18.6-2.4c-2.3 9-12.8 12.3-18.6 12.3zm14.4-20.3H85.5c-8.8 0-12.8-3.9-12.8-10s5.8-9.6 12.2-9.6c6.4 0 7.1 3.3 14.5 3.3s6.2-3.8 14.6-3.8 10.8 6.3 10.8 9.4c-.1 3.2-.6 10.7-11.8 10.7zm2.1-37.3c-14.7-9.4-9.6-24-7-37.5 14.2 3.1 41.5.1 49.5-8.7 4.6 10.6-3.8 24.1-11 34.8-7.3 10.7-16.8 20.8-31.5 11.4z"/><path d="M17.5 195.9c-5.6-6.6-11.8-17.4-13.3-20.8V60.9l13.3 17.6v117.4z" style="fill:#f6e6e9"/><path d="M79.8 1.9 3.3 53.4c-4.1 2.9-4.3 5-1.4 9.5s11.8 18.9 11.8 18.9c1.4 3.1 4.9 4.6 10.7-.5 7-5.8 73.8-50.5 73.8-50.5l67 44.4c6.1 4 12.7 3.4 8.4-3.1-4.3-6.4-11.4-18-11.4-18-2.9-5.3-6.1-7.1-11.4-10.9L90.6 1.9c-5.3-3.6-8.9-1.2-10.8 0z" style="fill:#fff"/><path class="st10" d="M74.6 126.5c-12.2 0-27.9-1.1-43.4-16.4-.6-.6-.6-1.5 0-2.1.6-.6 1.5-.6 2.1 0 15.9 15.7 32.4 15.6 44.4 15.5 5.9 0 12.3-.5 14.3-3.4 1.1-1.6 1.1-4.2-.2-7.9-.3-.8.1-1.6.9-1.9.8-.3 1.6.1 1.9.9 1.7 4.6 1.6 8.1-.1 10.6-2.7 3.8-8.6 4.6-16.7 4.7h-3.2zM123.7 127c-4 0-7.3-.3-9.7-.6-3.9-.5-9.1-1.9-11.4-5.8-1.4-2.4-1.5-5.3-.1-8.7.3-.8 1.2-1.1 2-.8.8.3 1.1 1.2.8 2-1 2.4-1 4.5-.1 6 1.3 2.2 4.6 3.8 9.2 4.4 9.3 1.3 32.9 2.3 50.8-15.4.6-.6 1.5-.6 2.1 0s.6 1.5 0 2.1c-14.2 13.9-31.6 16.8-43.6 16.8zM98.7 112.3c-1.9 0-3-2.6-3.7-4.5-.2-.5.1-1.1.6-1.3.5-.2 1.1.1 1.3.6 1 3 1.8 3.1 1.8 3.1.2 0 1-.5 1.8-3.1.2-.5.7-.8 1.3-.6.5.2.8.7.6 1.3-.9 3-2.2 4.5-3.7 4.5.1 0 0 0 0 0z"/></svg>