<svg version="1.1" id="Layer_1" xmlns="http://www.w3.org/2000/svg" x="0" y="0" viewBox="0 0 162.6 184.9" style="enable-background:new 0 0 162.6 184.9" xml:space="preserve"><style>.st3{fill:#fd8179}.st4{fill:#ed7265}.st6{fill:#dc5b4c}.st7{fill:#ffcf18}.st8{fill:#e5b057}</style><path d="M157.6 70.3v89.9c0 5.8-.6 7.7-3.5 12.1-2.9 4.4-4.6 12.5-15.4 12.5l5.6-108.2 13.3-6.3z" style="fill:#f0ba6b"/><path d="M138.7 184.9H16.4c-6 0-11.5-1-11.5-9.1V81.7l68.8-59.1 72.8 63.8V175.5c-.1 4.8.6 9.4-7.8 9.4z" style="fill:#fcce81"/><path d="M80.5 2.5 18.7 52.4c-4.6 3.5-5.8 4.7-8.3 9.6S.9 79.1.9 79.1c-2.7 5.2.4 10.2 7.2 4.6s65.4-53 65.4-53l66.7 59.6c4.6 4.7 7.2 3.7 9.9-.6s11.1-19.4 11.1-19.4c2.7-5.1 1.2-6.7-2.8-9.6-4-3-66.7-58.2-66.7-58.2-3.8-3.4-7.2-3.3-11.2 0z" style="fill:#fff"/><path class="st3" d="M32.1 184.9H16.4c-2.2 0-4.3-.1-6.1-.7-2.7-.8-4.8-2.6-5.3-6.4-.1-.6-.1-1.3-.1-2v-5l7-.9 20.2 15zM138.7 184.9h-25.5l17.6-15 15.7 1.6v3.9c-.1 4.9.6 9.5-7.8 9.5z"/><path class="st4" d="M10.3 184.2c-2.7-.8-4.8-2.6-5.3-6.4 2.7 2.2 4.6 4.9 5.3 6.4zM4.8 170.8c4.6 5.8 9.2 11.8 10.2 14.1h3.5c-5.5-9-10.5-13.8-11.1-14.4l-2.6.3zM135.6 170.4c-5.9 4.8-10.1 12.7-11.2 14.5h3.9c3.9-7.2 9.2-13.2 10.4-14.2l-3.1-.3zM142.3 171.1c-4.2 3.1-8.2 12.6-8.6 13.8h3.4c.5-3.2 3.7-9.4 8.2-13.5l-3-.3z"/><path class="st3" d="M4.8 158.3c10.9 1 23.4-4.6 28.8-10.7l-.6-6.3-10-3.7-4.6-.7v-1.7H13l-8-2.7-.2 25.8z"/><path class="st4" d="M5 146.7c3.8 5.5 4.9 5.4 5.3 4.6.4-.8-1.1-3.1-5.3-8.1v3.5zM5 135.5c5.9 7.5 12.6 16.2 13.8 17.9 1.2 1.7 4.1.8 1.8-1.7C18.4 149.1 6.4 133 6.4 133L5 135.5zM14 136.5c3.1 3 10.1 12.3 11.2 13.6 1.4 1.6 3.6.5 1.7-1.9-1.9-2.4-9-10.9-9.8-11.7-.7-.8-3.1 0-3.1 0z"/><path class="st3" d="M146.4 129.7v27.5c-2.6 1-5.4 1.4-8.4 1.5-1 0-2.1 0-3.2-.1-6.4-.5-13-2.8-18.3-6.3-.8-.6-1.6-1.1-2.4-1.7-2.1-1.7-3.9-3.5-5.3-5.5l7.5-6.9h5l2.7-2.7 22.4-5.8z"/><path class="st4" d="M130.5 136.3c-5.1 5.1-8.1 7.6-13.9 16-.8-.6-1.6-1.1-2.4-1.7 5.6-8.9 10.9-13 10.9-13l5.4-1.3zM135.9 134.2c-5.5 5.1-14.9 18.1-14.2 19.7s4-1.8 17-19.7h-2.8zM146.4 131.4c-4.2 2.4-11.5 15.3-13.1 17.6-1.6 2.3-.3 4.1 2 .7 2.3-3.4 6.7-11.4 11.1-14.4v-3.9zM138.1 158.6c-1.1.1-2.2.1-3.2 0 1.4-5.5 8.3-12 9.5-11.1 1.1.9-5.8 7.4-6.3 11.1z"/><path d="M146.4 157.2c3.9-3.2 11.2-9.7 11.2-10.2v-26.7l-11.2 9.5v27.4z" style="fill:#e46b58"/><path class="st6" d="M153.9 123.3c-3.6 4.9-5.4 10.3-3.8 10.8 1.6.6 2.9-4.2 4.2-6.6 1.3-2.4 3.3-4.2 3.3-4.2v-3.1l-3.7 3.1zM157.6 130.2c-2.9 4.5-7.6 12-8.8 14-1.2 2 .8 4 2.4 1.1 1.6-2.9 6.4-10 6.4-10v-5.1z"/><path class="st3" d="m7.2 113.1 2.3 4.2 28 12.2 25.9-12.7-1.9-4.4-37.7-13.2-13.5 8.6z"/><path class="st4" d="m11.6 108.9 6.2 12.1 7.2 3.1-11.8-18.2zM21.5 111.3l9.7 14.2 4.1.3-9.7-13.5zM32.4 117.3l7 9.1 4.1-1.9-8.2-8zM43.2 118.6l5.4 3.7 4.2-1.9-6-3.9z"/><path class="st7" d="M15.3 104.6c7.9 16.6 31.5 18.7 43.3 9.7l-.2-3-34.6-12.1-8.5 5.4z"/><path class="st3" d="m80 116.5 24.9 13 17.4-5.6 14.9-10L120 99.2l-18.8 5.9z"/><path class="st4" d="m86.2 118.1 3.3-3.8 3.7 1.9-4.8 4.7zM94.8 117.1l-3.8 5.2 3.5 1.8 6.2-7.6zM107 116.9c-.2.3-7.7 9.6-7.7 9.6l2.9 1.5 9-11.1H107zM115.3 115.4l-7.6 11.2 5.7-2.1 7.2-12.3zM129.1 107l-9.1 15.5 6.8-3.5 5.1-9.6z"/><path class="st7" d="M126.8 105c-11 21.6-34 15.5-41.8 8.8l16.2-8.7 18.8-5.9 6.8 5.8z"/><path class="st3" d="m43.3 55.2 10.9 17.5 16.9 14.6L82.7 79l17.7-24.3-26.8-24z"/><path class="st4" d="M72.3 31.7v22.2c0 5 3.3 4.5 3.3-3.3V32.5l-2-1.8-1.3 1zM78.3 34.9s-1 26.4 1.4 27.6c2.4 1.1 1.4-24.3 1.2-25.3l-2.6-2.3zM86.2 42c-.2 9.7-.8 21 .3 21.2 1.1.2 1.6-3.6 2.4-18.7L86.2 42zM95 62.2c1.4-10.1-.3-11.4-1.2-11.3-.9.1-1.3 5.2-1.6 15.1l2.8-3.8zM69.6 33.9c.1 7.1 1.2 22.2-.7 23.2s-1.6-14.3-2-21.1l2.7-2.1zM64.7 37.9c.5 10.6.3 24.1-1.6 24.1-1.9 0-1.3-14.2-1.3-21.7l2.9-2.4zM56.5 44.5c.7 8.4 2.4 18.7 0 18.7s-3-14.8-2.7-16.5l2.7-2.2zM47.5 62c-1.5-8.4.1-9.9 1.3-9.4s2.4 5.4.9 12.8L47.5 62zM60.2 77.9c-1.5-11.6-.9-14.1.6-13.5s2.2 9.3 2 15.8l-2.6-2.3zM66.9 83.7c-1.3-14.6-.9-20.4.7-20.1 1.6.3 2.3 18.5 2 22.5l-2.7-2.4zM75.6 84c1.6-12.6 1.1-21.4-.5-21.5s-1.4 7.6-1.5 12.2c-.1 4.6-1.2 9.9-1.3 11.6l3.3-2.3zM82.7 79c1.2-7.5 1.7-15 0-15.1-1.7-.1-1.8.6-2.9 17.1l2.9-2z"/><path class="st8" d="M139.7 111.4c-1.5-1.5-8-8.2-14.8-13.6-6.8-5.4-24.5 3.6-34.5 9s-15.5-2.4-15.5-8.3c0-6 18-13.6 23-16.4 5-2.9 10.4-4.8 8.6-8.2-1.8-3.4-14.5 5-26.7 11.3 9.8-8.2 15.7-16 22.7-28.7l-4.5-4C87.2 71.3 77 83.2 71.4 83.2c-5.5 0-14-9.7-25.9-29.8l-4.2 3.4c7.8 14.7 12.5 19 20.4 28.2-.6-.4-15.6-8.4-20.7-11.3-5.2-2.9-6.6 1.3-3.5 3.2C43.3 81.3 68 93 68 98.4c0 5.4-3.3 9.7-8.3 9.7-5 0-20.6-8-30.4-11.4-9.9-3.4-16.9 4.7-24.4 13.3v7.7c1.4 1.6 28.1 14 32.5 14 4.4 0 8.9-2.7 19.7-8.4-.1.9-2.1 9.4-2.1 14.3-.1 4.9 6 6.9 7.8 9.9 1.9 3 4.7 3.5 9 3.5 4.2 0 6.4-.4 7.9-3.2 1.5-2.8 6.4-5.1 8.6-7.3 2.1-2.2.3-9.9-2.5-16.8 1.9.4 8.6 3.6 12.1 5.3 3.6 1.8 6.2 4 13.3 1.4 8.3-2.4 22.2-9.8 26.5-12.8 4.3-2.9 3.5-4.7 2-6.2zM37.4 125.8c-6-.2-22.2-8.3-25.2-10.1-3-1.8-3-2.4-.8-4.6 7.9-8.6 14.8-8.6 20.7-6.3 5.8 2.3 14.4 6.2 28 11.2-1.1 1-16.7 10-22.7 9.8zm43.3 13.7c-2.2.2-4.1 1.4-4.6 3.5s-1 2-4.3 2-4.5-.6-4.8-1.9c-.2-1.3-1.3-2.6-3.7-3.1-2.4-.5-3.4-1.8-2.9-5.1s3.6-14.3 7.1-22.2c1.8-4.2 5.6-5.9 8 0 2.5 5.9 6.3 18.3 7 21.2.8 2.9.4 5.4-1.8 5.6zm50.8-24.4c-3.3 3.2-17.5 8.5-22.6 9.7s-8.2-.5-12-1.9c-3.8-1.4-13.2-5.9-14-6.7 8.9-2.1 22.8-8.5 28.7-11.4 5.9-2.8 9.4-2.1 13.3 1.1 3.9 3.2 9.9 6.1 6.6 9.2z"/><path class="st8" d="M4.8 129.1c15.9 5.1 19.1 5.5 24.7 7.3 5.5 1.8 8.4 5.4 8.4 13.1 6.6 3.1 30.9 14.3 33.7 14.3s32.5-13.8 33.2-14.3c.6-10.5 5.5-12.5 15.2-14.9 9.6-2.4 22.6-6.9 26.4-7v4.8c-10.1 3.2-35.2 8.6-35.2 11.8 0 3.2.6 9.8-3.5 11.8s-31.9 11.9-33.4 13.9v10.7H103c8.6 0 11-2 15-5.4 4-3.4 9.1-10.2 16.1-8.4 7 1.8 12.3 2.6 12.3 2.6v6.1c-9.2-3-14.6-4.5-17.5-1.4s-11.5 10.8-13.1 10.8H29.3c-3.8 0-5.7-2.1-7.8-3.9s-8.9-8.5-11.7-8c-2.8.6-5 1.2-5 1.2v-5.5c6.3-3.6 6.3-3.6 9.5-1.2s13.6 13.2 23.2 13.2H68V170l-31.5-13.7c-4.1-2.2-4.5-4.3-4.7-9.1-.2-4.8-2.7-4.8-6.3-6-3.6-1.2-20.7-5.6-20.7-5.6v-6.5z"/><path d="M146.4 127.6c1.8-3 10-8.4 11.2-9v4.8c-4.2 2.8-10.2 7.9-11.2 9v-4.8z" style="fill:#d2993f"/></svg>