<svg version="1.1" id="Layer_1" xmlns="http://www.w3.org/2000/svg" x="0" y="0" viewBox="0 0 237.5 207.1" style="enable-background:new 0 0 237.5 207.1" xml:space="preserve"><style>.st2{fill:#89a2ba}.st3{fill:#6e88a4}.st6{fill:#d2906e}.st7{fill:#486880}.st8{fill:#305270}.st9{fill:#7689a3}.st10{fill:#fffcff}.st11{fill:#c35b4f}.st12{fill:#5d2725}</style><path d="M34.2 89.5v84.2c0 6.6.7 9.4 2.7 11.2 2.1 1.8 15.2 21.4 19.5 21.4l-1-105.1-21.2-11.7z" style="fill:#a3b7ca"/><path d="M52.7 110.1v89c0 5.9 3 8 8 8h127.8c8.2 0 8-5.5 8-12.6v-88.3L121.2 59l-68.5 51.1z" style="fill:#bacbde"/><path class="st2" d="M42 76.7 32.4 83c-4.2 2.7-2.4 6.1 0 9 2.4 2.9 16.5 19.2 16.5 19.2 2.4 2.9 5.6 3.3 10.2-.6 4.5-3.9 64.4-48.6 64.4-48.6l69.5 45.6c5.4 3.6 10.8-1.8 5.2-7.8-5.6-6.1-22.3-26-22.3-26l-49.2-35.7-3 5-5.5-10.8-25.5 8.3L42 76.7z"/><path class="st3" d="m39 86.8-2.4 2.1c3.9 4 5.9 6.2 9.8 3.3s64.7-48.8 64.7-48.8l68.4 43.5c2.8 1.5 4.7-.5.7-3.2-4.1-2.6-73.6-51.5-73.6-51.5L39 86.8z"/><path d="m108.9 39.8-66 49.7c-1.6 1.4-2.2 1-3.2.3s-1.5-1-1.5-3.9V72.2C23.5 59.6 17.9 52.6 17.9 38.9S32.6 0 70.7 0c16.3 0 30 11.3 38.1 11.3S131.3 1 156.3 1 199 23.3 199 41.1s-17.5 28.7-17.5 28.7v14.5c0 1.5-1.6.5-6.2-2.5s-66.4-42-66.4-42z" style="fill:#da8342"/><path d="M46.8 86.6V66.3c-17-9-18.7-18.4-18.7-27.8s10.1-28.2 39.3-28.2c15.1 0 30.3 11.3 41.1 11.3s32.8-10.3 48.4-10.3 31.7 13.1 31.7 30c0 8-5.3 16.8-13.8 24.8v15.8l-65.9-42.1-62.1 46.8z" style="fill:#ebb28e"/><circle class="st6" cx="55.9" cy="31.3" r="1.8"/><circle class="st6" cx="58.9" cy="45.2" r="1.8"/><circle class="st6" cx="86.1" cy="40.8" r="1.8"/><circle class="st6" cx="61.3" cy="55.6" r="1.8"/><circle class="st6" cx="100.6" cy="33.6" r="1.8"/><circle class="st6" cx="170.1" cy="40.2" r="1.8"/><circle class="st6" cx="161.8" cy="68" r="1.8"/><circle class="st6" cx="140.9" cy="45.2" r="1.8"/><circle class="st6" cx="146.6" cy="30.9" r=".9"/><circle class="st6" cx="136.2" cy="53.4" r=".9"/><circle class="st6" cx="77.5" cy="61.2" r=".9"/><circle class="st6" cx="69.9" cy="67.3" r=".9"/><circle class="st6" cx="156.9" cy="52.5" r=".9"/><circle class="st6" cx="56.4" cy="76.7" r="1.8"/><path class="st3" d="M111.1 51.5 49 96.9c-2.2 1.7-2.1 2.7-.6 4.5 1.6 1.8 2.7 4.8 7 1.8s63.1-47.6 63.1-47.6l68.2 43.2c3.6 2.1 4.4-.6 1.5-2.6-2.9-2-71.1-45.4-71.1-45.4-2-1.3-4.2-.5-6 .7z"/><path class="st2" d="M39.4 115.3v55.5c0 4.4.5 6.4 2.9 9.2 2.5 2.8 4.2 4.6 4.2-1.7v-55.9c0-4.1-.4-4.1-2.1-6.5-1.7-2.3-5-5.2-5-.6z"/><path class="st7" d="M48.2 159.3c-5.3 10.3-28.8 13.3-31.6 13.3S0 171.8 0 157c0-14.7 13-17.1 18.4-18.6 5.4-1.5 15.8-5 24.5 2 3.9 3.2 7.2 5.9 7.6 10.1.2 2.4-.4 5.1-2.3 8.8z"/><path class="st8" d="M48.2 159.3c-5.3 10.3-28.8 13.3-31.6 13.3S0 171.8 0 157c5 8.5 24.6 5.2 30.7 3.2 6-2 17.7-6.4 19.9-9.7.1 2.4-.5 5.1-2.4 8.8z"/><path class="st7" d="M237.5 157.7c0 .9-.1 1.8-.3 2.7-2.1 9.8-14.9 18.9-40.7 9v-34.3c18.6 4.5 41.2 11.9 41 22.6z"/><path class="st8" d="M237.1 160.4c-2.1 9.8-14.9 18.9-40.7 9v-10.5c22.9 9.8 37.4 5.3 40.7 1.5z"/><path class="st9" d="M124.2 193.5c-1.8 0-3.7-.1-5.5-.3-19.9-2-37.3-14.7-50.3-36.8-.4-.6-.2-1.5.5-1.8.6-.4 1.5-.2 1.8.5 12.6 21.3 29.3 33.6 48.3 35.5 21.9 2.2 45.8-9.7 67.4-33.4.5-.5 1.3-.6 1.9-.1s.6 1.3.1 1.9c-20.4 22.4-43 34.5-64.2 34.5z"/><path class="st9" d="M65.9 160.6c-.2 0-.5-.1-.7-.2-.6-.4-.8-1.2-.4-1.8 1.5-2.4 4.1-4.7 5.5-5.9l.1-.1c.6-.5 1.4-.4 1.9.1.5.6.4 1.4-.1 1.9l-.1.1c-1.3 1.1-3.7 3.2-4.9 5.2-.4.5-.8.7-1.3.7zM189 164.6c-.6 0-1.2-.5-1.3-1.1l-.1-.5c-.3-2.1-1-6.4-4.1-9.9-.5-.6-.4-1.4.1-1.9.6-.5 1.4-.4 1.9.1 3.7 4.1 4.4 9 4.8 11.3l.1.5c.1.7-.4 1.4-1.1 1.5h-.3z"/><path class="st10" d="M122.1 140.8c0 14.3-10.2 25.8-22.8 25.8-2.6 0-5.1-.5-7.5-1.4-4.9-1.9-9-5.6-11.7-10.4-2.3-4-3.6-8.8-3.6-13.9 0-14.2 10.2-25.8 22.8-25.8 12.6-.1 22.8 11.5 22.8 25.7z"/><path class="st11" d="M98.6 164.5c-2.1 1-4.5 1.1-6.7.7-4.9-1.9-9-5.6-11.7-10.4-2.4-5.7-1.7-11.8 1.2-15.8l7.2 9 1.4-1.5v-11.9c5.5-.1 11.2 3.9 14 10.2 3.5 8 1.1 16.8-5.4 19.7z"/><ellipse transform="rotate(-24.02 92.22 152.722)" class="st12" cx="92.2" cy="152.7" rx="6.3" ry="7.4"/><path class="st10" d="M179.8 140.8c0 14.3-10.2 25.8-22.8 25.8-2.6 0-5.1-.5-7.5-1.4-4.9-1.9-9-5.6-11.7-10.4-2.3-4-3.6-8.8-3.6-13.9 0-14.2 10.2-25.8 22.8-25.8 12.5-.1 22.8 11.5 22.8 25.7z"/><path class="st11" d="M156.2 164.5c-2.1 1-4.5 1.1-6.7.7-4.9-1.9-9-5.6-11.7-10.4-2.4-5.7-1.7-11.8 1.2-15.8l7.2 9 1.4-1.5v-11.9c5.5-.1 11.2 3.9 14 10.2 3.5 8 1.1 16.8-5.4 19.7z"/><ellipse transform="rotate(-24.02 149.883 152.72)" class="st12" cx="149.9" cy="152.7" rx="6.3" ry="7.4"/><path class="st7" d="M78 114.1c12.2-10.7 20-12 26.1-4.3 1.7 2.4 5.9 1.2 3.7-2.7-8.5-13.5-23.4-7.8-29.8 7zM178.1 114.1c-12.2-10.7-20-12-26.1-4.3-1.7 2.4-5.9 1.2-3.7-2.7 8.5-13.5 23.4-7.8 29.8 7z"/></svg>