<svg version="1.1" id="Layer_1" xmlns="http://www.w3.org/2000/svg" x="0" y="0" viewBox="0 0 163.4 188.5" style="enable-background:new 0 0 163.4 188.5" xml:space="preserve"><style>.st3{fill:#664e48}.st5{fill:#f48078}</style><path d="M7.6 69.6v81c0 15.6 2.3 16.4 5.3 20 3 3.6 8.2 10.4 8.2 10.4l18.6-46.7-19.6-68-7.3 8.3-5.2-5z" style="fill:#ec943a"/><path d="M20.2 78.9v95.2c0 14.3 8.6 14.3 15.3 14.3H147c14.6 0 11.6-8.7 11.6-15.7V82.5L83.3 18.2 20.2 78.9z" style="fill:#f9a451"/><path d="M71.8 1.6 3 61.1c-3.9 3.5-3.5 4.7-1.4 7.4s12.1 16.8 12.1 16.8c2.9 3.9 5.1 3.9 8.8-.2s64.7-58.3 64.7-58.3l69.2 60c5.5 4.9 9.4 2.3 5.1-4.3s-9.2-14.4-9.2-14.4c-1.6-1.8-9.4-8.6-11.1-10.3 5.8-6.2 16.2-16.6 16.2-16.6 3.9-4.1.8-6.4-2.5-9.7-3.3-3.3-30.2-27.3-30.2-27.3-4.3-3.3-6.6-.6-10.3 3.1s-13.8 14.8-13.8 14.8L78.5 1.6c-2.6-2.5-4.7-1.7-6.7 0z" style="fill:#ff634b"/><path class="st3" d="m100.7 22.1 40.5 35.8 4.4-4.7-39.5-37z"/><path d="M125.3 135.5c-13.5-12-25.9-23.2-40.4-23.2s-17.4 10.9-17.4 15c0 4.2 6.2 16 24.7 19.7 18.5 3.7 31.6-1.8 34.7-4.7l-1.6-6.8z" style="fill:#fcc283"/><ellipse transform="rotate(-79.863 124.753 138.863)" class="st3" cx="124.8" cy="138.9" rx="5" ry="6.7"/><ellipse class="st3" cx="54.1" cy="115.2" rx="6.5" ry="7.2"/><ellipse class="st3" cx="126.9" cy="115.2" rx="6.5" ry="7.2"/><circle class="st5" cx="39.4" cy="129.3" r="7.4"/><circle class="st5" cx="143.2" cy="129.3" r="7.4"/></svg>