<svg version="1.1" id="Layer_1" xmlns="http://www.w3.org/2000/svg" x="0" y="0" viewBox="0 0 213 246.1" style="enable-background:new 0 0 213 246.1" xml:space="preserve"><style>.st0{fill:#b3b5cc}.st3{fill:#fff}.st4{fill:#606681}</style><path class="st0" d="M185.2 234.5H40.7c-5.1 0-8.8.1-8.8-6.9v-110l76.6-63.4 82.8 63.4v106.6c0 7.9 1.1 10.3-6.1 10.3z"/><path d="M5.1 86.1v104.4c0 9 1.4 10.6 5.1 13.7 3.7 3 21.8 16.5 21.8 16.5V99.3L5.1 86.1z" style="fill:#999fb5"/><path d="M78.9 21.3 3.4 80.8c-4.8 3.9-3.6 4.6-1.7 6.9s26.9 30.6 26.9 30.6c3.5 3.9 5.3 3.7 10.8-.5s72.4-54.6 72.4-54.6l76.3 57c4.6 3.5 8.7-.2 3.4-5.8-5.3-5.6-24-26.9-24-26.9-4-4.6-5.4-5.8-14.6-12.7S87 23.4 87 23.4c-5.5-4.2-6-3.7-8.1-2.1z" style="fill:#7f84a4"/><path class="st3" d="M185.3 228.2c0 2.1-.1 4.2-.2 6.3H47.8c-.1-2.1-.2-4.2-.2-6.3 0-47.8 30.8-86.6 68.9-86.6 38 0 68.8 38.8 68.8 86.6z"/><path class="st4" d="M18.5 200.8c1.4 2.4 5.8 1 3.6-2-2.5-3.9 2.4-5.9 3.7-2.4s4.4 4.7 4.8 1.5c.4-3.2 5.1-3 4.5.5-.6 3.5 1.9 2.8 2.4.5s5-1.6 4 2.4c-1 3.9 2.5 3.9 3.5 1.6 1-2.4 6-.4 3.5 3.5s.3 4.3 1.5 5.4c1.1 1.1.7 1.8.9 2.9s.6 1.1 2.4 1c3.1-.1 2.6 3.2 0 3.2-3 .4-3.7 4.4-1.1 5 2.9.6 2.1 4.5-.4 3.7-2.5-.8-4 3.6-2.7 4.9 1.3 1.3.2 5.2-2.6 3.7-2.8-1.5-5.8 1.3-4.4 3.6 1.4 2.3-1.7 4.7-3.1 1.9s-4.5-2.1-4.2 1.9c.3 4-3.8 3.7-3.9 0-.1-3.7-3.5-3.4-3.3-.8.2 2.6-4.3 4.4-4 0 .3-4.4-2.2-4.2-3.1-2.6-1 1.6-3.1 5.8-5.3 4.3s.1-4.6 1.9-6.3-1.1-4.4-2.8-2.2-4.8 0-2-2.2 1.1-4.4-1.1-2.4c-2.2 2.1-5 2.5-5.7.9s-.1-3.4 3.4-4.4c3.5-1 2.3-2.6-.4-2.4-2.7.2-4 0-4.1-1.6-.1-1.6.9-1.8 3.6-1.9s3.3-2.6.3-2.6c-4.6.2-4-3.4-.8-3.6 3.7-.1 4.9-1 4.8-2.4-.1-1.4-.9-2.1-2.7-2.3-3-.3-2.5-5.6 2.3-4.4 3.3 1 5.2.1 3.6-3.7s1.2-5.3 3-2.2z"/><ellipse class="st3" cx="23.8" cy="222.3" rx="6.8" ry="9.1"/><ellipse transform="rotate(-34.855 41.606 217.143)" class="st3" cx="41.6" cy="217.1" rx="7.1" ry="8.6"/><ellipse transform="rotate(-34.855 42.755 214.663)" class="st4" cx="42.7" cy="214.6" rx="2.4" ry="2.8"/><ellipse class="st4" cx="25" cy="220.4" rx="2.7" ry="3.3"/><path class="st0" d="M129.2 56.5c2.9-34.8 12.2-47.2 16.6-52.3s7.3.5 8.4 4.6c1 4.1 11.6 46-1.4 66.1l-23.6-18.4zM41.6 68.8c-5.9-15.2-6.4-44-1.7-60.9 3.3-11.3 8.8-8.1 11.3-5.1s11.6 13 17 54.7c.9 7.9-2.4 10.8-4.2 13.3-1.8 2.5-7.5 7.5-14.8 4.6-3.4-1.4-6.3-3.8-7.6-6.6z"/><path class="st4" d="M14.6 136.1c-6.1 2.2-1.4 4.6 3.9 3.3 5.4-1.3 23.6-3.3 29.1-3.5s4.5-6-.8-5.5-22.7 2.9-32.2 5.7zM13.1 157.2c-5.8 3.8-2.3 5.5 5.4 1.8s27.3-9.3 31.2-11.3 2-7.1-4.3-4.5-26.3 10.5-32.3 14zM207.7 135.5c4.8 1.7 6.1 5.9-1.5 4.3-7.6-1.5-23.7-3.2-29.7-3.4s-6.3-5.4.5-5.3c6.8.1 25.7 2.7 30.7 4.4zM209.5 156.5c4.8 3.3 5.1 7.1-2.7 3.5s-27.5-11.1-32.5-12.6-3.2-6.1 3.3-4.4c6.5 1.8 26.9 10.4 31.9 13.5z"/><ellipse class="st4" cx="112.1" cy="122.2" rx="12.4" ry="5.7"/><ellipse transform="rotate(-60 77.896 120.676)" class="st4" cx="77.9" cy="120.7" rx="5.1" ry="4.3"/><ellipse transform="rotate(-30 145.946 120.678)" class="st4" cx="146" cy="120.7" rx="4.3" ry="5.1"/><path class="st0" d="M68.7 196.6c3.2-5 5.4-4.6 8.1-2s7.3-.9 2.9-4.3-10.4-4.6-14.4 3.6c-1.9 4.2 1.2 6.4 3.4 2.7zM91.6 186.1c8-11.1 15.4-4.8 16.6-2.4 2.7 5.9-2.2 6.8-4.4 3.3-2.2-3.4-5.1-2.3-7.6 2-2.5 4.4-7.4 1-4.6-2.9zM79.4 174.4c5.6-11.3 13.2-9.9 17.6-5.6 3.3 3.3-.4 8-4 4.2s-6.6-2.6-8.8 2.6-7 2.9-4.8-1.2zM105.9 165.3c8.6-9.8 11.7-9.7 19.5-.9 2.3 2.8-.7 7-3.9 3.4-3.2-3.5-6.1-7.2-11.9.2-2.6 3.4-6.6.9-3.7-2.7zM136.9 167.9c11.4-5.2 17.3-3.1 19.2 6.2.6 3.2-4.1 5.5-5.2.9s-3.1-5.5-11.4-3.3c-3.7 1.2-5.1-2.7-2.6-3.8zM120.4 182.4c8.5-7.4 13.7-4.5 16.8 2 1.7 3.4-2.7 6.4-4.5 2.4-1.9-4-4.6-4.7-8.1-1.4-3.5 3.3-7.6.3-4.2-3zM151.9 186.7c9.1-6.1 15-1.2 15.5 4.8s-4.7 4.3-4.7 0-4.9-2.4-7.8-.4c-2.8 1.9-6.4-1.8-3-4.4z"/></svg>