<svg version="1.1" id="Layer_1" xmlns="http://www.w3.org/2000/svg" x="0" y="0" viewBox="0 0 589 627.7" style="enable-background:new 0 0 589 627.7" xml:space="preserve"><style>.st0{fill:#fa8b85}.st1{fill:#fff}.st2{fill:#c08475}.st3{fill:#facf8b}.st4{fill:#e2d6d4}.st5{fill:#ffe572}.st6{fill:#ffebd1}.st8{fill:#f27c4c}.st9{fill:#fa865e}.st10{fill:#fa895b}.st12{fill:#f57b4c}</style><path class="st0" d="M273.8 159.2c13.2-15.4 23.8-18 27.6-8.6 12.7-3.4 18 4.1 8.6 13.8l-20.1 1.7 2.6-8.5-18.7 1.6z"/><path class="st1" d="m360.5 209-43.9-23.2c.1-1.1.2-2.2.2-3.3 0-15.4-12.5-27.8-27.8-27.8-15.4 0-27.8 12.5-27.8 27.8 0 9.4 4.6 17.6 11.7 22.7-2 7.7-3.6 21 4.2 31.7 0 0 64.5 14.7 79 4.7s17.4-26 4.4-32.6z"/><path class="st2" d="M282.2 174.8c0 3.9 3.9 7.2 7.7 7.2 3.7 0 6.2-2.5 7.5-4.9 1.3-2.4-1.5-5.7-3.8-2.2s-7.5 5-8.7-.2c-.8-3-2.5-3.3-2.7.1z"/><path class="st3" d="M270.5 182.5c0-6.5-7-7.1-12.9-3.6-5.9 3.5-.2 6.9 2.3 8.1s10.6 2.1 10.6-4.5z"/><path class="st4" d="M361.7 215c-2.5 0-2.7 4.1 0 4.1h5.6c2.8 0 2.9-4.1 0-4.1h-5.6zM367.3 226c2.8 0 2.9-4.1 0-4.1h-6.2c-3.1 0-3.2 4.1 0 4.1h6.2zM285 212.4c2.9 8.6 10.9 17.3 20.7 22.1 9.9 4.8 14 2.3 12.9-2.7 22 8 30.3-.9 24.6-9.9 9.3-3.6 5.6-10 3.5-11.6s-4.6-1.2-3.1 2.2c1.6 3.5-1.1 7.7-6.5 4.6s-6.5.8-1.7 3.4c11.3 6.4 3 15.4-16.8 6.6-4.2-6-8-4-5.6-.3 2.3 3.6 1.4 9.4-7.6 2.9s-14.2-12-16.2-17.8c-1.9-5.8-5.6-2.8-4.2.5z"/><path class="st5" d="M519.3 330.2v236.3H30.5V330.2l299.3-15.9 21.9 12.6 13.9-15.3 17.3 13.3 17.2-13.3zM204.3 235.6H112V99.5L155.7 68l5.2 26.9 16.5-23.5 26.9 32.7z"/><path class="st6" d="M361 382.1h124.4v153.4H361zM56.4 382.1h124.4v153.4H56.4z"/><path style="fill:#ffd32c" d="M584.4 514.3V269.6l-23.9-23.9-41.2 84.5v255.7l28.8-37.6h21.2z"/><path class="st8" d="m519.3 566.5 14-14.2V450.7c0-75.1 22.2-67.1 25.5-66.4 3.2.6 17.7.3 17.7 63.8v67.4l5.2-6.4c5.2 2.3 7.4 2.7 7.4 10.9v19.3c0 2.8.4 3.6-4.7 8.3-5.1 4.6-47.7 47.6-47.7 47.6-5.3 5.3-5.3 7.1-18.4 7.1H4c-6.5 0-3.3-4.1-2-9.4 1.3-5.2 6-22.2 7.1-23.6s9.3-8.6 11.3-10.2c2-1.5 6-1.3 10.2-1.3v8.6h488.7z"/><path class="st9" d="m558.8 252.2 19.7 21.2c4.8 6.3 13.4-1.2 7.3-7.9-6.1-6.6-22.2-28.3-22.2-28.3l-62.7-1.5H68l-37.5 94.7 133.3 2.9h357.1l37.9-81.1z"/><path class="st8" d="M195.1 240.1c-4.6 9.6-36.9 86.7-36.9 86.7h-36l37.6-84.7c3.6-7.9-4.9-11.5-10.2-2-5.3 9.6-38 85.9-38 85.9H80.1l35.9-83.2c3.3-7.2-3-7.9-8.9-7.9h-34c-9.5 0-9.5 2-13.5 10.5-3.9 8.6-35.3 78.8-35.3 78.8-4.3 9.9-.3 10.5 10.2 10.5h121.3c12.5 0 11.5-6.3 15.5-16.8 3.9-10.5 33.3-75.8 33.3-75.8 3-7.7-4.9-11.6-9.5-2zm-159.2 85 33.3-81.4h35.9l-35.9 81.4H35.9zM243.2 239.4l-36.7 86c-4.2 9.7 7.1 12.3 11.1 1.6 5.2-14 35.8-85.2 35.8-85.2 3.3-6.9-6.7-10.6-10.2-2.4zM288.3 239.4l-36.7 86c-4.2 9.7 7.1 12.3 11.1 1.6 5.2-14 35.8-85.2 35.8-85.2 3.3-6.9-6.7-10.6-10.2-2.4zM333.4 239.4l-36.7 86c-4.2 9.7 7.1 12.3 11.1 1.6 5.2-14 35.8-85.2 35.8-85.2 3.3-6.9-6.7-10.6-10.2-2.4zM378.5 239.4l-36.7 86c-4.2 9.7 7.1 12.3 11.1 1.6 5.2-14 35.8-85.2 35.8-85.2 3.3-6.9-6.7-10.6-10.2-2.4zM423.6 239.4l-36.7 86c-4.2 9.7 7.1 12.3 11.1 1.6 5.2-14 35.8-85.2 35.8-85.2 3.2-6.9-6.7-10.6-10.2-2.4zM468.7 239.4l-36.7 86c-4.2 9.7 7.1 12.3 11.1 1.6 5.2-14 35.8-85.2 35.8-85.2 3.2-6.9-6.7-10.6-10.2-2.4zM508.7 241.3 473.8 326c-2.9 6.7 5.8 10.8 10 1.1s36.7-85.8 36.7-85.8h33.4L517 328.2c-2.4 5.3 6.6 10.2 11.5.4 4.9-9.7 36.1-86.5 36.1-86.5 5.3 8 11.1 13.7 13.5 11.9 2.4-1.8-5.5-10.6-8.8-15.7-3.3-5.1-5.1-4.9-11.7-4.9s-51.8.2-65.9 3.3c-14.4 3.3 1.8 5.5 17 4.6z"/><path class="st9" d="M152.2 1h5.8c3.1 0 5.4 1.2 8 7.2s35.4 81.2 35.4 81.2c5 0 7.8.9 7.8 6.7s-.7 8-10.9 8h-79L105 98.3l12.8-12.6L152.2 1z"/><path class="st8" d="m124 82.5 32-74.8c2.8-7.3-5.3-11.6-9.1-2.8S112 85.6 112 85.6c-9.5 0-11.3 3.9-11.3 11.2s3.9 12 13 12 17.2-1 17-4.7-10.3-5.4-18.3-4.7l-.4-4.6c16.3-1.2 25.2-2.6 29.9-4.1 4.7-1.4 5.3-7.3-2-7.5-7.4-.2-15.9-.7-15.9-.7zM195.8 84.2c-5.9-1.6-8.9-1-15 0s-7.1 7.1 0 7.3c7.1.2 15.8 0 15.8 0 4.5 0 9.4-4.6-.8-7.3z"/><circle class="st10" cx="158.8" cy="159" r="30"/><circle cx="158.8" cy="159" r="21.2" style="fill:#ffcb8b"/><path class="st10" d="m158.1 156.6-5.5-5.5c-3.5-3.5 1.2-6.7 4.4-3.5l6.3 6.3c3.1 3.1.7 5.2-1.5 7.5l-8.6 8.6c-3.3 3.3-8.4-.5-4.1-4.7 4.3-4.3 9-8.7 9-8.7z"/><path class="st12" d="M185.4 426.3v-39.8c0-4.7-3.8-8.4-8.4-8.4H60.4c-4.7 0-8.4 3.8-8.4 8.4V531.9c0 4.6 3.8 8.4 8.4 8.4H177c4.7 0 8.4-3.8 8.4-8.4V426.3zm-8.1-40.2v31.4h-31.1v-31.4h31.1zm-76.2 73.2v-32.9h36.4v32.9h-36.4zm36.4 8.7v29.2h-36.4V468h36.4zm-36.4-50.4v-31.4h36.4v31.4h-36.4zm-41-31.5h32.3v31.4H60.1v-31.4zm0 40.2h32.3v32.9H60.1v-32.9zm0 41.7h32.3v29.2H60.1V468zm0 64.4V506h32.3v26.4H60.1zm41 0V506h36.4v26.4h-36.4zm76.2 0h-31.1V506h31.1v26.4zm0-35.1h-31.1V468h31.1v29.3zm0-38h-31.1v-32.9h31.1v32.9zM489.9 426.3v-39.8c0-4.7-3.8-8.4-8.4-8.4H365c-4.7 0-8.4 3.8-8.4 8.4V531.9c0 4.6 3.8 8.4 8.4 8.4h116.5c4.7 0 8.4-3.8 8.4-8.4V426.3zm-8-40.2v31.4h-31.1v-31.4h31.1zm-76.3 73.2v-32.9H442v32.9h-36.4zM442 468v29.2h-36.4V468H442zm-36.4-50.4v-31.4H442v31.4h-36.4zm-41-31.5h32.3v31.4h-32.3v-31.4zm0 40.2h32.3v32.9h-32.3v-32.9zm0 41.7h32.3v29.2h-32.3V468zm0 64.4V506h32.3v26.4h-32.3zm41 0V506H442v26.4h-36.4zm76.3 0h-31.1V506h31.1v26.4zm0-35.1h-31.1V468h31.1v29.3zm0-38h-31.1v-32.9h31.1v32.9z"/><circle class="st8" cx="228.7" cy="445" r="9.7"/><circle class="st8" cx="316.9" cy="445" r="9.7"/><path class="st8" d="M268.1 446.4c-3.8 4.2-9 8.3-16.1 8.3-6.4 0-5 6.4 0 6.4 9.6 0 15.2-2.7 20.7-9.8 11.5 12.9 20.7 13.7 26.2 9.8s.8-7.8-4.9-5.6-14.4-6.9-18-10.5c-3.6-3.6-6.4-.2-7.9 1.4z"/><path class="st0" d="M246.6 542c-9.6-12.1-20.1-14.6-22.3-6.1-12.1-3.6-17.2 4.9-8.1 10.5l13.6 1.4.8-6 12.1 7 3.9-6.8z"/><path class="st1" d="M258.8 563.3c0-13.6-11-24.7-24.7-24.7-13.6 0-24.7 11-24.7 24.7 0 1.6.2 3.1.4 4.6-16.3 8.2-39.3 18.8-39.3 18.8-10.5 5.4-5.5 18.3 6.7 27.8 28.8 24.2 79.6 16 71.7-31.4 6.1-4.6 9.9-11.7 9.9-19.8z"/><ellipse class="st2" cx="235.2" cy="556.8" rx="3.1" ry="4.6"/><path class="st3" d="M249.9 563.3c0-6.2 6.9-6.6 11.3-3.5s3.1 6.6-1.8 8.1c-5 1.6-9.5.1-9.5-4.6z"/><path class="st4" d="M166.9 591.7c-2.8 0-3.1 3.1-.1 3.2 3.1.1 4.3 0 4.3 0 2.4 0 2.8-3.2.3-3.2h-4.5zM166.9 597.8c-2.8 0-3.1 3.1-.1 3.2s4.3 0 4.3 0c2.4 0 2.8-3.2.3-3.2h-4.5zM234.2 588.1c-2.1 5.3-8.1 13.5-15.3 16.4-7.2 2.9-8.5.9-6.1-2.2 2.4-3.1-.1-5.7-3.3-1.9-3.2 3.8-18.1 5.6-19.5 1.9-1.4-3.6 2.8-5.1 5.1-6.4 2.3-1.2 1.1-5.2-3.2-2.7-4.3 2.6-7.2-.8-5.3-3.7 1.9-2.9-2-5.2-3.8-1.4-1.8 3.8-.9 8.3 3.1 9-3.2 9.9 7.9 14.8 22.1 9.6.3 4.9 9.6 3.7 15.5 0s12.3-11.2 14.2-15.2c1.8-4.1-1.6-7.2-3.5-3.4z"/><path class="st0" d="M489 532.7c11.1-14 19-12.7 20.3-6.9 11-3.1 15.5 6.1 6.3 9.6l-13 2.5-.6-6.9-13 1.7z"/><path class="st3" d="M505.2 601.7v8.4c-6.4 2.3-4.2 6.8 1 6.8s5-3 5-6.6v-10.6l-3.4-3.9.1 4.5-2.7 1.4z"/><path class="st1" d="m554.9 569.9-33.6-17.4c.1-.9.2-1.8.2-2.7 0-11.4-9.3-20.7-20.7-20.7-11.4 0-20.7 9.3-20.7 20.7 0 6.5 3 12.3 7.7 16.1-6.8 44.1 41.2 42.9 56.8 31.8 15.5-11.1 20.4-22.1 10.3-27.8z"/><path class="st2" d="M494.6 544.7c1.9 6.2 8.7 6.5 10.9.9.9-2.3-.2-2.7-1.5-.7s-5.1 3.4-6.1-.6c-.3-4-4.4-3.4-3.3.4z"/><path class="st3" d="M487.3 549.6c0-4.9-5.1-5.7-9.3-3.2s-1.5 4.9 0 6c1.4 1 9.3 2.9 9.3-2.8z"/><path class="st4" d="M555.4 573.8c-2.9 0-2.2 3.3 0 3.3h3.7c2.5 0 2.5-3.3 0-3.3h-3.7zM555.4 579.3c-2.9 0-2.2 3.3 0 3.3h3.7c2.5 0 2.5-3.3 0-3.3h-3.7zM497.6 572.5c4.2 9.4 11.7 14.4 15.7 16.3s8.8 2.5 9.2-1.7c14.2 4 23.9 1 19.6-8.7 5.6-1.7 3.6-6.8 1.5-8.1-2.1-1.3-3.9-.6-2.5 1.5 1.4 2.2.8 5.8-4.1 3.8-4.9-2-3.9 1.4-.7 2.9s4.9 7.3-4.2 6.6c-9.1-.8-9.5-2.8-11.1-4.5-1.6-1.7-3.4 0-2 2.4s1.3 5.7-5.3 2.3c-6.6-3.5-10.8-9.4-12.9-13.7-2-4.3-4.8-2.1-3.2.9z"/><path class="st3" d="M524.6 600.1v9.2h-4.9c-2.7 0-3.3 4.6.7 4.2.3 5.3 4.1 4.3 6.3 2.2 2.3-2.1 3.6-3.1 3.6-6.9v-9.1c0-3.5-5.7-4.1-5.7.4z"/></svg>