<svg version="1.1" id="Layer_1" xmlns="http://www.w3.org/2000/svg" x="0" y="0" viewBox="0 0 175.2 182.1" style="enable-background:new 0 0 175.2 182.1" xml:space="preserve"><style>.st2{fill:#f8e285}.st3{fill:#ffca85}.st4{fill:#f77b69}.st5{fill:#e99dfb}.st6{fill:#b2daf8}.st7{fill:#a4e588}.st10{fill:#b49696}.st11{fill:#fbc7ca}</style><path d="M162.1 52.6v91c0 8-1 10.6-4.5 15.3-3.5 4.7-12.2 15.7-15 16.6V56.7l19.5-4.1z" style="fill:#e3d1d2"/><path d="M6.4 66.5v101.2c0 9.6 4.1 9 9.6 9h120c9.4 0 9.2-3.5 9.2-10.7V68.1L72 24.2 6.4 66.5z" style="fill:#fff"/><path class="st2" d="M90.7 1.2 67.4 14.9 51.6 44.1c12.5-7.3 22.9-13.3 22.9-13.3L94.8 0c-1.5 0-2.9.5-4.1 1.2z"/><path class="st3" d="m36.4 33.1-15.7 29c8.7-5.1 20.6-12 30.9-18l15.8-29.2-31 18.2z"/><path class="st4" d="M29 37.5c-8 4.6-10.6 7-13.1 10.6-2.6 3.6-13.6 17.5-13.6 17.5-2.4 3.6-2.1 8.6 6.8 3.3 1.9-1.2 6.1-3.6 11.5-6.8l15.7-29-7.3 4.4z"/><path class="st5" d="M162.1 40.9c-1.5-.9-7.1-4.3-14.3-8.8l-22.1 31.2L142 73.6c4.9 3.3 6.3 1.2 8.6-2.1 2.4-3.3 16.8-21.1 16.8-21.1 3-3.8.2-6.2-5.3-9.5z"/><path class="st6" d="M119.5 14.5 96.6 44.9l29.1 18.5 22.1-31.2c-8.4-5.3-19-11.9-28.3-17.7z"/><path class="st7" d="M98.2 1.2C97 .4 95.8 0 94.8 0L74.5 30.8l22.1 14 22.9-30.3C107.7 7.2 98.2 1.2 98.2 1.2z"/><path d="M1.8 24.2c6.3 6.5 19.1 15.6 24.3 18.6 5.2 3 29.6 16.7 35.8 19.9 6.1 3.2 13.4 3.8 16.2-3.9s-1.1-11-9.5-14.7-52.8-21.7-57.9-22.8S1.5 18.7.4 20s0 2.8 1.4 4.2z" style="fill:#f99fab"/><path style="fill:none" d="m130.4 160.1-.4.6h.4z"/><path class="st3" d="M119.2 160.7v-5.9l-7.8 12.7v14.6h4.8l3.3-5v-9.6h6.1l4.4-6.8z"/><path class="st7" d="M138.2 182.1v-6.9l-4.2 6.9z"/><path class="st4" d="m119.2 150.9-4.4-4.4-3.4 3.3v17.7l7.8-12.7z"/><path class="st5" d="M157.2 182.1v-4.8l-3.4 4.8z"/><path class="st2" d="M119.5 182.1v-5l-3.3 5z"/><path class="st6" d="m175.2 150-4.3-4.3-3.6 4v11h-8l-9.8 13.2v8.2h4.3l3.4-4.8v-9.9h7.1l10.9-15.3z"/><path class="st3" d="m133.7 146.5-3.3 3.4v10.2l6.7-10.4z"/><path class="st5" d="M164.3 167.4h3.4v14.7h7.5v-30z"/><path class="st7" d="M157.3 160.7v-10.5l-2.3-2-5.5 8.9v3.6h-2.2l-4.4 6.9h6.6v6.3l9.8-13.2z"/><path class="st2" d="m152.9 146.5-3.4 3.3v7.3l5.5-8.9zM138.1 160.7v-10l-1-1-6.7 10.4v.6h-.4l-4.4 6.8h4.9v14.6h3.5l4.2-6.9v-7.6h4.7l4.4-6.9z"/><ellipse class="st10" cx="44.1" cy="109.2" rx="7" ry="8.4"/><ellipse class="st10" cx="95.9" cy="109.2" rx="7" ry="8.4"/><path class="st11" d="M26.3 113.4c0-6.8-2.4-7-6.1-2.9-7.3-1-8.1.2-5.1 5.3-4.9 4.2-2.3 6.5 4.3 5.5 3.5 6.2 7 5.9 7-1 6.6-.8 5.3-4-.1-6.9zM122.4 113.4c0-6.8 2.4-7 6.1-2.9 7.3-1 8.1.2 5.1 5.3 4.9 4.2 2.3 6.5-4.3 5.5-3.5 6.2-7 5.9-7-1-6.6-.8-5.3-4 .1-6.9z"/><path class="st10" d="M36.4 97.6c6.7-5.9 10.9-3.3 12.6-1.7 3 2.9 8.4.5 4.3-3.6-6.5-5.6-15.2-5.2-21 1.3-2.8 3.5.8 7.2 4.1 4zM104.3 91.9c-7 2.6-14.9 6-18.1 9.2s.3 5.4 4.4 2.6c4.1-2.9 15.2-6.4 17.3-7.7 3.5-2 1.7-6.1-3.6-4.1zM110.4 122.3c-3.3 2.4-6.5 6-11.6 6h-33c-4.8 0-6.4 2-6.4 3.5 0 1.6 1.8 2.4 6.6 2.4h31.3c8.8 0 12.2-2.8 17.7-8.6 2.7-3-.8-6.3-4.6-3.3z"/></svg>