<svg version="1.1" id="Layer_1" xmlns="http://www.w3.org/2000/svg" x="0" y="0" viewBox="0 0 167.1 210.4" style="enable-background:new 0 0 167.1 210.4" xml:space="preserve"><style>.st1{fill:#fff}.st2{fill:#b69fa0}.st6{fill:#ffd5d4}</style><path style="fill:#eedcdd" d="M23.5 73.1v111.3L9.6 168.9V55.6z"/><path class="st1" d="m23.5 73.1 73.1-52.6 68 51v103.3c0 8.3-1 10.6-13 10.6H23.5V73.1z"/><path class="st1" d="M111.5 194.8c-3.5 3-8.6 5.8-15.8 8.2-8 2.7-18.6 5-32.4 6.7-4.5.6-8.8.7-12.9.6-5.5-.2-10.6-.9-15.3-2.1-33.6-8.4-45.2-41-25.5-62.2v16.5c1.5 2.1 3 4 4.6 5.7 1.2 1.2 2.3 2.3 3.6 3.3 2.3 1.8 4.6 3.3 7.1 4.5 1.6.8 3.3 1.5 5 2 16.1 5.3 34.2-.4 44.7-4.8 15.4-6.5 36.8-10.8 41.8 1.4 2.6 6.3 2.8 13.6-4.9 20.2z"/><path class="st2" d="M56.7 181.4c-.1 10.5 5.2 16 8.1 18.3 2.9 2.3 6.4 1.5 5.8-5.8s.1-18 .1-18l-14 5.5zM111.5 194.8c-3.5 3-8.6 5.8-15.8 8.2-10.2-9.7-11.7-18.4-9.1-20.7 2.6-2.3 7.2 1.1 12.3 5.8 5.2 4.8 12.6 6.7 12.6 6.7zM50.3 210.4c-5.5-.2-10.6-.9-15.3-2.1.1-3.4.4-9.2 1.9-13.6 2.3-6.7 8.1-6.5 8.4-2.3.3 4.2.9 9 5 18zM29.9 178c-4.8 4.4-5.8 8.6-6.8 11.1-1.9 4.7-7.8 7.5-7.5-2.6.1-5.3 1.1-10.7 2.3-15 2.3 1.8 4.6 3.3 7.1 4.5 1.5.8 3.2 1.5 4.9 2z"/><path d="M29 179.8c17.4 4.9 31 1.8 41.9-2.4 10.8-4.3 39.4-18.2 45.1.9 1.2 5.2 4.1 5.9 3.8 0-1.8-19-28.6-15-43.1-8.2-8.8 4.1-28.8 10.1-43.1 6.9-6.6-1.9-9.5 1.6-4.6 2.8z" style="fill:#e9dedf"/><path class="st2" d="M23.5 150.5C38 164.9 47.8 165.3 52 165.3s7.4-4.3 1.5-6.3c-6-2-15.7-7.8-20.1-14-4.5-6.2-8.1-12-9.9-13.8v19.3z"/><path d="M23.5 131.2c-7.1-8.2-10.1-6.8-9.4.5.7 7.3 6.4 15.9 9.4 18.8v-19.3z" style="fill:#a88d90"/><path class="st2" d="M34.3 122.7c1.4 8.8 8 17.7 16.3 21s8.5-3.3 3.8-6-7.8-8.4-8.6-11.8c-.8-3.4-3.8-8.7-6.7-10.3s-5.7 1.4-4.8 7.1z"/><path d="M77.8 1.1 6.9 51.8c-3.7 2.7-1.7 4.8-.7 6.2s15 20.1 15 20.1c3.1 4.3 6 2.3 9.2 0C33.7 75.8 97.6 28 97.6 28l63.5 44.7c4.8 3.3 7.7.1 4.1-4.5-3.5-4.7-13.3-19.7-13.3-19.7-1.6-2.7-3.7-5.2-11.5-9.6-7.8-4.4-57.9-37.7-57.9-37.7-2.9-1.9-3.1-1.2-4.7-.1z" style="fill:#dfbfc1"/><path class="st2" d="M164.5 144.2c-5.1 8.8-15.8 13.4-21 14.8s-3.6 6.1 1.7 6.1 14.6-2.4 19.2-7.2v-13.7zM142.8 137.9c-6 5.4-.5 8.4 5.3 5.2s14.6-10.8 15.3-21.5c.7-10.7-6.3-6.6-8.8-1.2-2.5 5.4-3 8.1-5.4 11.3-2.3 3.1-4.9 4.6-6.4 6.2z"/><circle class="st6" cx="56" cy="122.4" r="7.1"/><circle class="st6" cx="141.8" cy="122.4" r="7.1"/><path class="st2" d="M74.4 104.7c-3.8 7-9.9 5.8-13.2 3-2.7-2.3-6.5 1-2.9 3.7 7.3 5.2 15.8 2.9 19.9-4 1.9-3.1-1.7-6.6-3.8-2.7zM123.1 104.7c3.8 7 9.9 5.8 13.2 3 2.7-2.3 6.5 1 2.9 3.7-7.3 5.2-15.8 2.9-19.9-4-1.9-3.1 1.7-6.6 3.8-2.7zM99.2 127.5c12.7 10.5 20.6 2.8 23.4-.3 2.3-2.7-1.7-5.5-4.1-2.1-2.8 3.1-10.6 3.8-15.8-1.1v-2.1c9.9-8.3 5.5-12.9-3.4-12.9s-13.4 4.6-3.4 12.9v2.1c-5.2 4.9-13 4.2-15.8 1.1-2.4-3.4-6.4-.5-4.1 2.1 2.5 3.1 10.5 10.8 23.2.3zM84.6 37.8c4.4 42.8 23.6 39.4 28.4 1.1L97.6 28.1l-13 9.7zM51.1 62.8c4.9 28.6 23.6 29 23.6-17.6L51.1 62.8zM123.7 46.4c-.5 43.3 16.6 46.8 23.4 16.4l-23.4-16.4z"/><path class="st1" d="m42.1 49.3 22.2-14.6c3.5-2.4 5.2-11.7 2.1-18.1-3.1-6.4-21.6-17.9-35.9-5s-6.1 29.6-4.1 32.8c2.7 4.5 6.3 5.3 15.7 4.9z"/><path class="st6" d="M42.1 49.3c-13.1-10-8-22.5-1.3-27 8.4-5.1 22.6-5.1 23.6 12.4L42.1 49.3z"/><path class="st1" d="m139.6 48.4-24-17.9c-5.4-4.3-1.7-13.8 2.3-17.8 5.8-5.8 21.3-12.9 34.6 0 12.1 12.1 4.1 29.1 1.5 33-2.4 3.9-8.3 3.9-14.4 2.7z"/><path class="st6" d="M117.4 31.9c0-14.8 17.6-15.2 24.2-8.5 6.6 6.6 6.9 20.8-3.1 24.3l-21.1-15.8z"/></svg>