<svg version="1.1" id="Layer_1" xmlns="http://www.w3.org/2000/svg" x="0" y="0" viewBox="0 0 227.4 190" style="enable-background:new 0 0 227.4 190" xml:space="preserve"><style>.st0{fill:#ecdcdd}.st1{fill:#fff}.st2{fill:#f6c6c6}.st3{fill:#d6c3c7}.st4{fill:#464a6c}</style><path class="st0" d="m73.7 187.5-14.8-14.6c-2.6-2.6-1.8-6.1-1.8-16.9V55.2l15.2 15.9 1.4 116.4z"/><path class="st1" d="M214.4 190H82c-5.5 0-9.7 0-9.7-9.3V71.1L148 31.8l75.7 34.8v113.1c0 6.2.7 10.3-9.3 10.3z"/><path class="st0" d="M66.8 157.8c0 4.7 2.1 8.9 5.5 11.7v-23.4c-3.3 2.8-5.5 7-5.5 11.7z"/><path class="st2" d="M97.5 157.8c0-8.5-6.9-15.3-15.3-15.3-3.8 0-7.2 1.4-9.9 3.6v23.4c2.7 2.2 6.1 3.6 9.9 3.6 8.4.1 15.3-6.8 15.3-15.3zM223.7 142.9v30c-1 .2-2.1.3-3.2.3-8.5 0-15.3-6.9-15.3-15.3s6.9-15.3 15.3-15.3c1.1-.1 2.1 0 3.2.3z"/><path class="st3" d="M202.8 144.4c-5.3 7.8-31.3 13-41.8-7.1l5.1-2.7c5.8 9.5 17.4 14.5 27.7 9.2l9 .6z"/><path class="st4" d="M183.7 127.9c-2.8 2.2-16.7 8.2-19.2 9.4-2.5 1.2-4.2.5-5.7-3.3s-1-6.2 3.5-8.4 36.1-15.4 39.9-17.2c3.8-1.8 5.5-.7 7.4 3.5 12.2 27.1-22 54.3-25.9 16z"/><path class="st3" d="M119.6 151.3c-12.8 3.2-33.5-14-26.2-35.4l5.4 1.8c-2.8 10.8 2.5 24.6 13.5 28.4l7.3 5.2z"/><path class="st4" d="M115.9 125.9c-3.5-.6-17.5-6.4-20-7.4-2.6-1-3.2-2.7-1.5-6.4s3.8-5 8.5-3.2c4.7 1.8 36.1 15.5 40 17s4.3 3.5 2.5 7.7c-11.8 25.4-47.9 24.2-29.5-7.7zM153.3 155.2c3 5.7 9.8 8.5 11.9 9.2 4.6 1.4 6.4-2.5 2.3-4.2-3.3-1.4-8.8-4.5-11.8-10.2-.9-1.9-2.3-1.7-2.5-1.7s-1.5-.2-2.5 1.7c-3 5.8-8.5 8.9-11.8 10.2-4.1 1.7-2.3 5.7 2.3 4.2 2.3-.7 9.1-3.5 12.1-9.2z"/><path class="st3" d="M147.5 101.7c-9.1-8.6-17.7-15.3-23.1-17.6-4.6-1.9-3.2 2.5.3 4.8s16.8 13.7 19.9 16.9c3.1 3.3 8.2 1.9 8-3.5-.2-5.4-1.1-10.8-1.2-11.4 5.1 2.8 8.5 5.4 10.6 7.9 2.1 2.5 6.1.6 5.9-3.2-.2-3.9-1-9.9-2.1-12 14.4 7.3 21.1 3.1 16.6-6s-9.4-15.2-12-17.5-6.8 1.3-3.5 4.4c3.3 3.1 9.8 11.6 11.3 14.9 1.4 3.3 1.3 5.6-13.9-1.4-3.7-1.6-6.7-.3-4.2 4.4s2.6 9.8 2.7 10.5c-7.1-6.8-12.6-8.8-14.4-9.3-1.9-.5-4.2.5-2.8 5.1 1.4 4.5 2.3 8.7 1.9 13z"/><path class="st3" d="M124.9 10.6 57 49c-5.1 3.1-5.1 4.4-1.9 8.6s14.5 16.6 14.5 16.6c2.7 3.6 5.1 1.9 15.3-3.8 10.3-5.7 66.9-34.8 66.9-34.8l68.8 34c6.9 3.1 9-.6 4.4-5.7-3.5-3.9-11.7-13.1-15.3-17.1-1.1-1.3-2.5-2.3-4.1-3.1l-69.8-33.1c-4.1-1.7-6-2.8-10.9 0z"/><path class="st1" d="M113.1 35.1c-.5.4-1.2.9-2 1.5-4.2 2.8-12.5 7.5-19 10.6-1.1.5-2.2 1-3.1 1.4-4.2 2-7.4.9-13.4-3.8-15.7-13.7-9-34.5 2.2-41.5s25.7-1.5 32.7 6.8c6.8 8.2 5.7 22.3 2.6 25zM212.9 37.1c-2.7 4.9-5.5 10.9-13.3 10.3-1.3-.1-2.9-.5-4.8-1-7.7-2.3-19.2-7.8-25.2-11.7-1.3-.9-2.4-1.7-3-2.4-1.5-1.3-2.8-6.4.3-14.7C170.8 7 186.3-2.6 200.8 4.1c18.3 8.4 14.8 28.2 12.1 33z"/><path class="st3" d="M194.9 46.4c-7.7-2.3-19.3-7.8-25.2-11.7 2-18.2 18-21.8 25.2-17.2 7.2 4.6 11.3 17.9 0 28.9zM111 36.6c-4.2 2.8-12.5 7.5-19 10.6-18-7.8-16.4-26.3-5.5-31.9 12.2-5.9 25 4.9 24.5 21.3z"/><path class="st1" d="M57 75C33.4 61.9 0 79.5 0 110.9s28.1 40.5 38.7 40.6 15.5 1.2 18.3 7V75z"/><path class="st3" d="M57 93.5c-14.8-9-39.2-.4-39.2 19.4s17.7 19.6 19.6 19.6c1.9 0 12.5-3.2 12.5-12 0-5.9-5.9-10.1-5.8-5.9.1 4.2-3.5 9.1-8.4 9.1s-8.8-6.2-8.8-12.4 8.3-12.9 17-12.9 13.1 4.9 13.2 5.8V93.5z"/></svg>