<svg id="Layer_1" data-name="Layer 1" xmlns="http://www.w3.org/2000/svg" viewBox="0 0 495.76 500.63"><defs><clipPath id="clip-path" transform="translate(-711.46 -305.08)"><path d="M717.87 474.81v294.51a13.4 13.4 0 0 0 13.41 13.4h403.65A29 29 0 0 0 1157 772.5l34.08-40.12a19.92 19.92 0 0 0 4.73-12.88V418.89l-277.26-71.23z" fill="none"/></clipPath><style>.cls-7{fill:#fcb3c1}.cls-8{fill:#5f959d}</style></defs><path d="M717.11 474.81v294.51a13.4 13.4 0 0 0 13.4 13.4h403.65a29 29 0 0 0 22.1-10.22l34.07-40.12a19.87 19.87 0 0 0 4.73-12.88V418.89l-277.27-71.23z" transform="translate(-711.46 -305.08)" fill="#bff1f8"/><g clip-path="url(#clip-path)"><path fill="#98dde9" d="M436.59 90.16h55.15v410.47h-55.15z"/></g><path d="m958.29 307.09-194.2 108-52 58.45a2.73 2.73 0 0 0-.45 2.88l3.72 7.34a2.73 2.73 0 0 0 3.85 1.31l196-111.34 226.26 100.58a12.79 12.79 0 0 0 14.31-2.8l48.42-49.9a10.6 10.6 0 0 0-3.48-17.14l-228.11-98.09a16.48 16.48 0 0 0-14.32.71z" transform="translate(-711.46 -305.08)" fill="#eea6fd"/><path d="M206.07 352.79c6 8.81-6.29 24.2-18.89 24.51-15.28.39-12.73-9.4-12.73-9.4s-.17 8-16.38 7.53c-16.6-.52-8.36-19.25-3.09-19.41" stroke-linecap="round" stroke-linejoin="round" stroke="#98dde9" stroke-width="7" fill="none"/><circle class="cls-7" cx="61.85" cy="332.11" r="36.01"/><circle class="cls-7" cx="308.24" cy="332.11" r="36.01"/><ellipse class="cls-8" cx="117.28" cy="298.83" rx="11.8" ry="12.8"/><path class="cls-8" d="M805.8 576.55h35.42a.88.88 0 0 0 .88-.91c-.12-2.76-1.77-10.78-17.12-10.45-19.5.43-20.32 8.06-20.06 10.57a.87.87 0 0 0 .88.79zm159.35 27.35c0 7.07-4.11 12.8-11.18 12.8a12.8 12.8 0 1 1 0-25.59c7.03 0 11.18 5.73 11.18 12.79zm12.07-27.35h-35.47a.88.88 0 0 1-.88-.91c.12-2.76 1.78-10.78 17.14-10.45 19.52.43 20.35 8.06 20.09 10.57a.89.89 0 0 1-.88.79z" transform="translate(-711.46 -305.08)"/><path d="M185.2 325.62c-3.89 0-15.64-4.36-17.79-15.85 8.22.34 7.86 0 17.9.85 11.23 1 13.87 1.58 13.87 8.09s-5.94 6.91-13.98 6.91z" stroke="#5f959d" stroke-width="8" fill="#fcb3c1" stroke-linecap="round" stroke-linejoin="round"/></svg>