<svg xmlns="http://www.w3.org/2000/svg" xmlns:xlink="http://www.w3.org/1999/xlink" viewBox="0 0 554.79 530.75"><defs><style>.cls-1,.cls-7,.cls-8,.cls-9{fill:none;}.cls-2{fill:#fbfffb;stroke:#fbfffb;}.cls-10,.cls-2,.cls-7,.cls-8,.cls-9{stroke-miterlimit:10;}.cls-3{clip-path:url(#clip-path);}.cls-4{fill:#e9f5f1;}.cls-5{fill:#7a4ecf;}.cls-6{fill:#f7ce2f;}.cls-10,.cls-7,.cls-8,.cls-9{stroke:#e2be14;stroke-linecap:round;}.cls-7{stroke-width:5px;}.cls-10,.cls-8{stroke-width:6px;}.cls-9{stroke-width:7px;}.cls-10{fill:#e2be14;}.cls-11{fill:#ffb5c3;}</style><clipPath id="clip-path" transform="translate(-668.85 -290.27)"><path class="cls-1" d="M700.26,421.19V700.66a20.61,20.61,0,0,0,7,15.46L772,773.32a25.36,25.36,0,0,0,16.76,6.34h396.16a18.88,18.88,0,0,0,18.88-18.59l4.32-290.86L998.21,346.89Z"/></clipPath></defs><g id="Layer_1" data-name="Layer 1"><path class="cls-2" d="M700.38,419.4V698.87a20.65,20.65,0,0,0,7,15.46l64.75,57.2a25.27,25.27,0,0,0,16.76,6.34H1185a18.87,18.87,0,0,0,18.87-18.59l4.32-290.85L998.34,345.11Z" transform="translate(-668.85 -290.27)"/><g class="cls-3"><rect class="cls-4" y="96.45" width="101.11" height="434.3"/></g><path class="cls-5" d="M923.38,293.14,699.14,410.21A9.18,9.18,0,0,0,697,424.84l66.54,62.61a14.16,14.16,0,0,0,15.82,2.1l221.16-114.32,208.19,97.43a5.59,5.59,0,0,0,6.12-1l2.68-2.48a5.59,5.59,0,0,0-.07-8.29l-65.54-61a53.07,53.07,0,0,0-12.08-8.44L946,293A24.45,24.45,0,0,0,923.38,293.14Z" transform="translate(-668.85 -290.27)"/><path class="cls-5" d="M935.49,709.53s11.14,3.07,24.63-7.83,13.16-15.32,23.71-16,11.57,8.17,19.74,8.17,8.52-8.92,21.11-8.21,10,8.86,21.11,16c9.61,6.21,15,8.63,25.53,8.23,0,0-38.81,16.62-67.92,16.28S935.49,709.53,935.49,709.53Z" transform="translate(-668.85 -290.27)"/><path class="cls-6" d="M811.84,349.86A3,3,0,0,1,815.1,346c12.19,1.58,43.32,12.45,64.26,51.68,25.27,47.35,25.66,116,25.66,116s26.55-42.53,43.41-42.36c19.23.19,25,23.46,25,23.46s18.68-27.91,28-28.08c11.57-.21,29.66,30.13,29.66,30.13s9.53-25.2,23-25.51c17.57-.42,42.4,38.78,42.4,38.78s11.58-35.4,23.94-35.23c14.19.19,45,41.87,45,41.87s19.91-31.15,36.25-31.15,21.94,39.49,21.94,67.59c0,24.56-15.26,135.28-115.34,135.28-65.53,0-69.83-35.56-104.9-35.72-38.46-.17-45.78,36.59-104.53,36.58-59.24,0-121-54.62-121-132.24C777.87,496.71,833.13,419.84,811.84,349.86Z" transform="translate(-668.85 -290.27)"/><path class="cls-7" d="M815.13,350.23s31.17,40.32,28.61,77.09-23.48,72-25,100.08" transform="translate(-668.85 -290.27)"/><path class="cls-7" d="M814.13,348.53c20.3,80.6-32.94,144.53-34.19,209.68-.92,47.74,37,127.31,118.95,128.41,36.6,0,55.07-15.53,55.07-15.53" transform="translate(-668.85 -290.27)"/><line class="cls-7" x1="159.7" y1="144.96" x2="158.04" y2="153.39"/><line class="cls-7" x1="151.28" y1="173.17" x2="148.98" y2="180.96"/><line class="cls-7" x1="145.02" y1="193.86" x2="141.32" y2="203.17"/><path class="cls-7" d="M805.32,509.4s-2.94,7.54-2.94,13.66" transform="translate(-668.85 -290.27)"/><path class="cls-7" d="M800.21,538.26s-2.42,7.4-1.78,13.78" transform="translate(-668.85 -290.27)"/><path class="cls-7" d="M800.21,569.91s-.64,3.71,0,5.62" transform="translate(-668.85 -290.27)"/><path class="cls-8" d="M893.91,448.13s29.32,88.64-16.85,89c-21.7.16-28.72-17.24-28.85-25.92s8.17-13.79,15.32-13.53,15.67,7.15,9.82,17.36" transform="translate(-668.85 -290.27)"/><path class="cls-8" d="M971.28,496.38c-3.79-11.1-11.87-22.42-22.34-22.42-11.49,0-41.64,33-44.83,50.64s4.74,32.17,24.4,31,27.33-14.16,26.94-25.79c-.26-7.53-7.92-13.53-13.41-13.53s-13,3.83-11.74,16.21" transform="translate(-668.85 -290.27)"/><path class="cls-8" d="M945.62,550.64s39.77-6.28,39.83,20.93c0,12.64-6,17.88-18.64,17.24s-14.55-7.92-14.43-14,6.51-8.68,10.47-7.66" transform="translate(-668.85 -290.27)"/><path class="cls-9" d="M1053.41,471.3c5.19,1.85,42.59,28.49,39.53,54.7s-18.64,26.19-31.83,26c-11.92-.13-26.2-6.59-26.22-21.91a13.26,13.26,0,0,1,13-13.55c9.41-.16,12.92,5,13.26,13.21" transform="translate(-668.85 -290.27)"/><path class="cls-8" d="M1045.32,549.23s-30.61,3.43-30.64,24.39c0,15.24,13.41,19.8,20.21,19.78,7.25,0,15.92-3.44,15.92-14.17,0-8.8-7.41-13.66-14.94-10.34" transform="translate(-668.85 -290.27)"/><path class="cls-10" d="M1180.89,655.83a63.3,63.3,0,0,0,12.75-16" transform="translate(-668.85 -290.27)"/><path class="cls-10" d="M1200.17,629.15a58.23,58.23,0,0,0,9.19-20.68" transform="translate(-668.85 -290.27)"/><path class="cls-8" d="M1214.83,592.89s5.64-17.61,5.51-43-6-61.78-19.53-61.4-34.6,30.64-34.85,33.7" transform="translate(-668.85 -290.27)"/><path class="cls-8" d="M1219.31,568.51s-3.47-25.25-25.78-24.38c-19.66.76-25,12.89-25.53,23.49s5.62,15.57,15.7,15.19,10.92-4.45,11.11-11c.13-4.34-4.6-9.7-9.45-8.36" transform="translate(-668.85 -290.27)"/><path class="cls-4" d="M841.53,603.32c-.15,5.45,22.13,30.64,55.15,28.59s51.41-19.4,52.43-32-31-27.19-55.49-27.19C872.51,572.72,841.87,591.4,841.53,603.32Z" transform="translate(-668.85 -290.27)"/><path class="cls-4" d="M1052.6,599.23c-.5,8.85,27.57,32.92,54.8,32.8s52.09-17.66,53.11-29.65-31-28.25-47.32-29.66S1053.28,587,1052.6,599.23Z" transform="translate(-668.85 -290.27)"/><path class="cls-11" d="M811.92,678c-17.08,0-27.19,14.26-18.34,21.72s33.51,9.51,36-1.35S822.66,678,811.92,678Z" transform="translate(-668.85 -290.27)"/></g></svg>