<svg id="Layer_1" data-name="Layer 1" xmlns="http://www.w3.org/2000/svg" xmlns:xlink="http://www.w3.org/1999/xlink" viewBox="0 0 544.3 568.21"><defs><style>.cls-1,.cls-8{fill:none;}.cls-2{fill:#fbfffc;}.cls-3{clip-path:url(#clip-path);}.cls-4{fill:#f5efea;}.cls-5{fill:#eb5aa8;}.cls-6{fill:#f6ab9e;}.cls-7{fill:#b09593;}.cls-8{stroke:#b09593;stroke-linecap:round;stroke-miterlimit:10;stroke-width:11px;}</style><clipPath id="clip-path" transform="translate(-19.74 -156.1)"><path class="cls-1" d="M234,184.76,57.88,312.11a18.61,18.61,0,0,0-7.63,14.77L48,613.93a18.62,18.62,0,0,0,4.79,12.75l46.34,51.45A18.64,18.64,0,0,0,113,684.3H534.17a18.65,18.65,0,0,0,18.64-18.64V365.51a18.63,18.63,0,0,0-9.38-16.17L254.29,183.64A18.63,18.63,0,0,0,234,184.76Z"/></clipPath></defs><path class="cls-2" d="M235,184.76,58.88,312.11a18.61,18.61,0,0,0-7.63,14.77L49,613.93a18.62,18.62,0,0,0,4.79,12.75l46.34,51.45A18.64,18.64,0,0,0,114,684.3H535.17a18.65,18.65,0,0,0,18.64-18.64V365.51a18.63,18.63,0,0,0-9.38-16.17L255.29,183.64A18.63,18.63,0,0,0,235,184.76Z" transform="translate(-19.74 -156.1)"/><g class="cls-3"><path class="cls-4" d="M102.62,360.88V671A13.13,13.13,0,0,0,112,683.6l47,14.18L56.41,724.31,19.74,631,26,321.53Z" transform="translate(-19.74 -156.1)"/></g><path class="cls-5" d="M241.07,159.62,36.72,312.7a8.24,8.24,0,0,0-.79,12.5L96.64,384a10.14,10.14,0,0,0,13.22.76L307.74,233.07,553.1,363.69a5,5,0,0,0,5.89-.91l3.64-3.72a5,5,0,0,0,0-6.93l-59.57-61.76a36.19,36.19,0,0,0-8.94-6.76L259.94,158.19A17.6,17.6,0,0,0,241.07,159.62Z" transform="translate(-19.74 -156.1)"/><ellipse class="cls-6" cx="174.56" cy="373.47" rx="41.29" ry="42.48"/><ellipse class="cls-6" cx="455.7" cy="373.47" rx="41.29" ry="42.48"/><ellipse class="cls-7" cx="265.4" cy="492.9" rx="20.72" ry="14.91" transform="translate(-271.42 551.28) rotate(-84.23)"/><ellipse class="cls-7" cx="414.66" cy="491.9" rx="14.91" ry="20.72" transform="translate(-68.27 -110.7) rotate(-5.92)"/><path class="cls-8" d="M318.17,506.76s9.16,13.42,22.58,13.12,24.83-11.63,24.83-11.63" transform="translate(-19.74 -156.1)"/></svg>