<svg id="Layer_1" data-name="Layer 1" xmlns="http://www.w3.org/2000/svg" viewBox="0 0 198.06 181.12"><defs><style>.cls-3{fill:#906c5e}.cls-4{fill:#c89f87}.cls-5{fill:#d9b9a8}.cls-6{fill:#f4a497}.cls-7{fill:#7c584c}</style></defs><path d="M204.1 378.54s.14 111.43-.29 116.79 19.71 15.8 19.71 15.8l.29-116.5Z" transform="translate(-199.26 -330.88)" style="fill:#b78a70"/><path d="M219.31 395.06s.5 106.83.73 110.56 4.49 6.38 6.52 6.38 139.25-.87 142.58-1 6.52-1.59 6.38-5.5-.58-108-.58-108l-72.16-42.61Z" transform="translate(-199.26 -330.88)" style="fill:#c79e86"/><path class="cls-3" d="M300.67 362.46a5.12 5.12 0 0 1 5 .12c11.92 7.05 63.31 37.35 67.29 38.56 4.5 1.37 8-1.37 4.31-6.46s-23.27-23.79-29.77-28.1c-5.8-3.87-51.6-29.95-60.87-35.23a3.62 3.62 0 0 0-3.34-.12c-11.4 5.42-76.2 36.25-79.6 38.57-3.72 2.54-5.87 5.68-3.33 9s16.85 18 19.2 20 8.43 2.55 12.93-.2c3.98-2.43 56.02-29.76 68.18-36.14Z" transform="translate(-199.26 -330.88)"/><path class="cls-4" d="M230.14 336.69c-9.79 5.1-10.38 30.37-7.25 37.81s7.2 6.19 11.93 3.88 31-17.59 31-17.59 8.23-3.14 1.57-10.78-23.1-20.68-37.25-13.32ZM351.81 334.33c-6.4-3.37-23.82 1.83-31.32 8.66s-6.83 10.16-4.16 12a91.89 91.89 0 0 0 9 4.82s23.5 14 28.74 16.15c4 1.66 6.05-3.88 6.57-8.81.36-3.83 3.5-26.33-8.83-32.82Z" transform="translate(-199.26 -330.88)"/><path class="cls-5" d="M234.06 378.81s-5.5-25.88 3.33-30.36c12.34-6.27 28.4 12.34 28.4 12.34ZM319.83 356.65s12.66-13.83 24.32-9.66 5.33 26.65 5.33 26.65Z" transform="translate(-199.26 -330.88)"/><path class="cls-3" d="M309.43 477.74h-.84c-3.61-.24-6.2-2.61-7.77-4.62a13.75 13.75 0 0 1-5.24 3.63c-5.13 2.06-10.17-2.8-10.38-3a2 2 0 0 1 2.8-2.85c.07.06 3.44 3.21 6.09 2.14 3.87-1.55 4.84-4.22 4.85-4.25a2 2 0 0 1 1.79-1.37 2 2 0 0 1 1.93 1.16s2.33 4.92 6.2 5.18c3.7.26 5.09-2.05 5.15-2.15a2 2 0 0 1 3.51 1.92 9.09 9.09 0 0 1-8.09 4.21Z" transform="translate(-199.26 -330.88)"/><path class="cls-6" d="M349.54 451.64c-1.91-.4-6 6.29-3.72 10.05 1.47 2.46 3.72-10.05 3.72-10.05ZM357.48 451.64c-1.91-.4-6 6.29-3.72 10.05 1.47 2.46 3.72-10.05 3.72-10.05ZM365.94 451.64c-1.91-.4-6 6.29-3.72 10.05 1.47 2.46 3.72-10.05 3.72-10.05ZM247.27 463.4c1.91.41 6-6.29 3.72-10-1.47-2.51-3.72 10-3.72 10ZM239.34 463.4c1.9.41 6-6.29 3.71-10-1.47-2.51-3.71 10-3.71 10ZM230.87 463.4c1.91.41 6-6.29 3.72-10-1.47-2.51-3.72 10-3.72 10Z" transform="translate(-199.26 -330.88)"/><path class="cls-7" d="M335.54 440.93c-4 .31-7.11 3.46-6.63 5.86s4.3 4.75 7.67 4.67c2.44-.06 7.06-1.38 5.54-6.3a6.24 6.24 0 0 0-6.58-4.23ZM264.29 441c3.92.79 6.64 4.29 5.87 6.61s-4.84 4.21-8.17 3.72c-2.42-.35-6.84-2.22-4.74-6.92a6.23 6.23 0 0 1 7.04-3.41ZM300.54 438.12c-5-.17-17.39 3.68-17.39 12.65s11.75 18.2 17.66 18.11 16.95-10.58 16.77-18.2-9.15-12.29-17.04-12.56ZM360 438.39c0-2.16 10.62-6.47 18.75-7.8a86.17 86.17 0 0 1 13.69-1.25s-22.67 6.7-26.05 8.22c-5.03 2.24-6.39.83-6.39.83ZM364.36 443.12c1-1.91 12.41-.83 20.24 1.74a86.22 86.22 0 0 1 12.71 5.22s-23.2-4.53-26.9-4.74c-5.41-.34-6.05-2.22-6.05-2.22ZM241.17 440.82c0-2.16-10.63-6.47-18.76-7.8s-22.63-2.89-22.63-2.89 31.62 8.35 35 9.87c4.97 2.24 6.39.82 6.39.82ZM236.75 445.55c-1-1.91-12.4-.83-20.23 1.75a86.09 86.09 0 0 0-12.72 5.22s23.2-4.52 26.91-4.75c5.45-.31 6.04-2.22 6.04-2.22Z" transform="translate(-199.26 -330.88)"/></svg>