<svg id="Layer_1" data-name="Layer 1" xmlns="http://www.w3.org/2000/svg" viewBox="0 0 537.21 556.52"><defs><clipPath id="clip-path" transform="translate(-682.38 -266.04)"><path d="M726.57 432.91v286a33.34 33.34 0 0 0 6.55 19.84L775 798.69a35.12 35.12 0 0 0 28.23 14.22L1188 813a14.61 14.61 0 0 0 14.54-14.62V515.91l-263-219z" fill="none"/></clipPath><style>.cls-4{fill:#f7b3b1}</style></defs><path d="M726.57 432.91v286a33.34 33.34 0 0 0 6.55 19.84L775 798.69a35.12 35.12 0 0 0 28.23 14.22L1188 813a14.61 14.61 0 0 0 14.54-14.62V515.91l-263-219z" transform="translate(-682.38 -266.04)" fill="#72789b"/><g clip-path="url(#clip-path)"><ellipse class="cls-4" cx="107" cy="442.64" rx="26.81" ry="25.53"/><path fill="#596187" d="M0 148.52h92.94v408H0z"/><ellipse class="cls-4" cx="510.4" cy="443.74" rx="26.81" ry="25.53"/></g><path d="M924 269.92 715 426.49a10.89 10.89 0 0 0-2.27 15.13l50.87 72.69a13.27 13.27 0 0 0 18.29 3.08l200.3-145.13a13.6 13.6 0 0 1 16 .35l201.11 158a5 5 0 0 0 7.19-1.17l4.34-6.51a5 5 0 0 0-.08-5.62l-49.24-70.78a96.17 96.17 0 0 0-18.35-19.53L948 270.3a19.84 19.84 0 0 0-24-.38z" transform="translate(-682.38 -266.04)" fill="#f36e72"/><path d="M302.85 324.86c-30.19.23-47-18.09-68.93-17.07s-29.15 19.77-30.17 30.17c-2.14 21.86 1.78 46.52 64.72 39.5 0 0-37.66 66.68-84.64 64.13s-52.08-40.31-52.59-78.63 31.65-133.78 95-133.79c40.68 0 35.74 11.75 79.14 11.75s49.37-11.75 77.11-11.75c61.28 0 101.11 73.54 101.11 130.22 0 39.32-1.53 86.29-50.56 84.25s-81.7-63.7-81.7-63.7 58.34 9.32 59.24-28.72c.73-31.16-12.28-43.43-31.68-42.92-37.81 1.02-40.78 16.29-76.05 16.56z" stroke-width="16" stroke-linejoin="round" stroke-linecap="round" fill="#acb3d1" stroke="#acb3d1"/><path d="M272.85 393.45c1.54 5.08 6.73 8.51 13.37 8.35 10.66-.27 17.86-12 21.41-17.59a2.88 2.88 0 0 1 4.85-.06c3.88 5.94 12.08 18.53 20.84 18.53 8.47 0 12.81-3.87 13.83-8.72" stroke="#484d75" stroke-width="12" stroke-linejoin="round" stroke-linecap="round" fill="none"/><path d="M173.19 420.85c-16.68-18.93-19.48-35.23-20.17-67.23s31-100.77 73.22-100.77c42.55 0 41.32 8.54 82 8.54s46.69-7.83 84.81-7.83c30 0 69.47 57.85 71.17 104.14 1.58 42.88-26.21 70.13-26.21 70.13" stroke-width="18" stroke="#72789b" stroke-linecap="round" fill="none"/><path d="M425.9 367.96c-.64 10-11.77 17.1-11.77 17.1s-14.42 9.19-14.55 11.1 3.19 6.9 11.1 6.73c10.89-.24 16-25.11 16-54s-19.58-58.77-45.45-59.06-52.26 11.66-77.45 11.66-47-12.53-69.1-12.53c-29.4 0-46.06 33.85-47.06 58.36s6.64 59.16 20.64 59.19c1.95 0 14.83-6.18 12.51-6.51-5.49-.76-14.62 8.51-26.5-8.22" stroke="#72789b" stroke-width="16" stroke-linecap="round" fill="none"/></svg>