<svg id="Layer_1" data-name="Layer 1" xmlns="http://www.w3.org/2000/svg" xmlns:xlink="http://www.w3.org/1999/xlink" viewBox="0 0 450.87 444.69"><defs><style>.cls-1,.cls-11,.cls-6{fill:none;}.cls-2{fill:#cf9c7d;}.cls-3{clip-path:url(#clip-path);}.cls-4{fill:#c18666;}.cls-5{clip-path:url(#clip-path-2);}.cls-6{stroke:#a7714f;stroke-miterlimit:10;stroke-width:17px;}.cls-7{fill:#438c3d;}.cls-8{fill:#fca18f;}.cls-9{fill:#8f5e3d;}.cls-10{fill:#f9e7db;}.cls-11{stroke:#8f5e3d;stroke-linecap:round;stroke-linejoin:round;stroke-width:8px;}</style><clipPath id="clip-path" transform="translate(-717.64 -312.5)"><path class="cls-1" d="M728.85,492.17l-2.4,244.74a14.93,14.93,0,0,0,15,15.09l346.32-1.9a20.93,20.93,0,0,0,16.49-8.2l33.25-43.43a19,19,0,0,0,3.92-11.54V475.32l-207.58-118Z"/></clipPath><clipPath id="clip-path-2" transform="translate(-717.64 -312.5)"><rect class="cls-1" x="1099.57" y="464.09" width="68.94" height="293.11"/></clipPath></defs><path class="cls-2" d="M728.85,492.17l-2.4,244.74a14.93,14.93,0,0,0,15,15.09l346.32-1.9a20.93,20.93,0,0,0,16.49-8.2l33.25-43.43a19,19,0,0,0,3.92-11.54V475.32l-207.58-118Z" transform="translate(-717.64 -312.5)"/><g class="cls-3"><rect class="cls-4" x="381.94" y="151.59" width="68.94" height="293.11"/><g class="cls-5"><line class="cls-6" x1="437.09" y1="205.8" x2="367.64" y2="275.16"/><line class="cls-6" x1="437.09" y1="266.44" x2="367.64" y2="335.8"/><line class="cls-6" x1="437.09" y1="323.54" x2="367.64" y2="392.9"/></g></g><path class="cls-7" d="M952.4,315.3,770.78,433.19a47.53,47.53,0,0,0-11.6,10.63L718.4,495.77a3.61,3.61,0,0,0-.76,2.21v9.18a3.58,3.58,0,0,0,5.43,3.07L912.49,391.57a5.28,5.28,0,0,1,6.2.42l168.62,144.69a10.45,10.45,0,0,0,14.84-1.49l48.35-64a7.29,7.29,0,0,0-1.18-10L973.22,316.48A17.82,17.82,0,0,0,952.4,315.3Z" transform="translate(-717.64 -312.5)"/><ellipse class="cls-8" cx="772.72" cy="634.94" rx="23.15" ry="16.38" transform="translate(-738.14 -286.69) rotate(-1.89)"/><ellipse class="cls-8" cx="1043.54" cy="635.63" rx="16.68" ry="22.14" transform="translate(-361.32 1333.44) rotate(-87.12)"/><ellipse class="cls-9" cx="109.85" cy="284.96" rx="37.53" ry="36.16"/><circle class="cls-10" cx="116.74" cy="273.8" r="12.77"/><ellipse class="cls-9" cx="270.45" cy="284.96" rx="37.53" ry="36.16"/><circle class="cls-10" cx="277.34" cy="273.8" r="12.77"/><path class="cls-11" d="M877.45,618.3s3.83,9.17,13.53,9.19c12.76,0,15.59-17.11,15.59-17.11s2.54,17.88,16.32,17.11S938,619,938,619" transform="translate(-717.64 -312.5)"/><path class="cls-9" d="M906,588.55c9.58-.22,15.58,2.3,15.45,6.9s-7,16.21-14.67,16.21c-7.29,0-16.86-6.8-17.25-14.2S898.74,588.72,906,588.55Z" transform="translate(-717.64 -312.5)"/></svg>