<svg xmlns="http://www.w3.org/2000/svg" viewBox="0 0 656.57 105.92"><defs><style>.cls-1{fill:#9cc992;}</style></defs><g id="Layer_1" data-name="Layer 1"><path class="cls-1" d="M1122.84,591.55a31.9,31.9,0,0,0-24.34-16.87c-17.77-2.32-31,11.87-31,11.87s-5.64-12.74-22.14-17.67-32.31,4.64-32.31,4.64-13.09-26-47.5-23.17c-24.61,2-35.62,22.88-35.62,22.88s-21.43-10.14-39.1,3.18-15.35,28.68-15.35,28.68-17.37-7-31.28-1.74a34.18,34.18,0,0,0-18.82,17.09,61.58,61.58,0,0,0-26.64-5.67c-15.06.29-23.17,7.69-23.17,7.69S765.6,612,752,608.27s-27.39-1.74-27.39-1.74-12.45-21.72-42.25-21.62c-26.1.08-36.52,19.6-36.52,19.6s-11.3-13-34.46-7.82-25.49,19.4-25.49,19.4-13.33-9.86-32.44-4.92c-16.79,4.34-20.56,20-20.56,20s-23.46-12.45-46.92,0c-18.88,10-19.69,24.91-19.69,24.91h656.57Z" transform="translate(-466.27 -550.13)"/></g></svg>