<svg id="Layer_1" data-name="Layer 1" xmlns="http://www.w3.org/2000/svg" xmlns:xlink="http://www.w3.org/1999/xlink" viewBox="0 0 101.94 105.51"><defs><style>.cls-1,.cls-11,.cls-3,.cls-4,.cls-6,.cls-9{fill:none;}.cls-2{fill:#fc7b72;}.cls-3,.cls-4{stroke:#fcde6b;}.cls-11,.cls-3,.cls-4,.cls-6,.cls-7,.cls-9{stroke-linecap:round;}.cls-11,.cls-3{stroke-width:4px;}.cls-4{stroke-width:5px;}.cls-5,.cls-7{fill:#eebb6b;}.cls-11,.cls-6,.cls-7{stroke:#c99f57;}.cls-6,.cls-7{stroke-linejoin:round;}.cls-6,.cls-9{stroke-width:2px;}.cls-7{stroke-width:3px;}.cls-8{fill:#fcde6b;}.cls-9{stroke:#93351b;stroke-miterlimit:10;}.cls-10{clip-path:url(#clip-path);}</style><clipPath id="clip-path" transform="translate(-241.85 -367.86)"><path class="cls-1" d="M275.54,379.08c12.75,0,23.93,24.6,23.93,24.6s37.34.89,43.15,10.51-10.28,45.17-43.6,44.05-42.93-19.58-43.38-37.3S260.32,379.1,275.54,379.08Z"/></clipPath></defs><path class="cls-2" d="M264.58,386.46s-3.79-2.79-2.9-9.17,3.69-9.84,7.49-9.39,5.14,4.25,5.14,4.25,1.45-3.69,4.58-3,4.36,5.37,4.36,5.37a3.17,3.17,0,0,1,4.36-.78c2.8,1.56,1.35,12.85-4.36,14.87S264.58,386.46,264.58,386.46Z" transform="translate(-241.85 -367.86)"/><polyline class="cls-3" points="45.77 84.78 41.07 96.64 36.75 101.55"/><polyline class="cls-4" points="31.68 96.64 41.07 96.64 43.87 103.01"/><path class="cls-5" d="M261.57,437.67s-15.21,2.79-16.1-4.81,2.23-5.81,2.23-5.81-6.15-2.35-5.36-8.5,9.27-6.37,14.86-3.8S261.57,437.67,261.57,437.67Z" transform="translate(-241.85 -367.86)"/><path class="cls-6" d="M253.55,437.14s-8.53-.93-8.42-6.18,5.37-3,5.37-3-8.95-4.47-7.49-10.06,13.52-3.14,13.52-3.14" transform="translate(-241.85 -367.86)"/><path class="cls-5" d="M275.54,379.08c12.75,0,23.93,24.6,23.93,24.6s37.34.89,43.15,10.51-10.28,45.17-43.6,44.05-42.93-19.58-43.38-37.3S260.32,379.1,275.54,379.08Z" transform="translate(-241.85 -367.86)"/><line class="cls-4" x1="66.44" y1="85.6" x2="57.68" y2="75.36"/><polyline class="cls-4" points="54.49 80.16 61.44 80.16 63.15 73.53"/><path class="cls-7" d="M281.47,415.31s13.64-20.13,20.23-25.49c7.69-6.26,19.23-14.65,26.28-10.29S319.14,400,319.14,400s8.66-9.79,14.52-4.14c6.61,6.38-11.5,16.88-11.5,16.88s10.54-9.16,11.42-2.68-5.27,15-20.36,17.55" transform="translate(-241.85 -367.86)"/><path class="cls-8" d="M256.42,401.11s-6.71-1.57-6.59-4.25,4.24-4.59,8-3.91,8.87,3.65,8.5,7.15a7.75,7.75,0,0,1-3.7,6c-2.12,1.45-7,4.81-8.72,2S256.42,401.11,256.42,401.11Z" transform="translate(-241.85 -367.86)"/><line class="cls-9" x1="35.82" y1="19.94" x2="28.45" y2="22.6"/><line class="cls-9" x1="31.09" y1="24.83" x2="31.09" y2="22.29"/><g class="cls-10"><path class="cls-11" d="M255.93,415.61a70.13,70.13,0,0,0,2.77,16.62c3.45,10.77,12.29,21.55,16.1,23" transform="translate(-241.85 -367.86)"/></g></svg>