<svg xmlns="http://www.w3.org/2000/svg" viewBox="0 0 233.97 260.86"><defs><style>.cls-1{fill:#93ccba;}.cls-2{fill:#b9eada;}.cls-3{fill:#9cc992;}.cls-4{fill:#f9b3a4;}.cls-5{fill:#f27b61;}.cls-6{fill:#5e8cd3;}.cls-7{fill:#cfebfe;}.cls-8{fill:#ffc7da;}.cls-9{fill:#fff;}</style></defs><g id="Layer_1" data-name="Layer 1"><path class="cls-1" d="M905.73,558.43s1.07,67.75.71,83.44S905,688.23,905,688.23s-24.61,38.86-31.74,43.86l1.07-143.7Z" transform="translate(-677.07 -471.58)"/><path class="cls-2" d="M682.51,599.8v64.89c0,8.3,1.73,49.6,2.31,63.31a4.64,4.64,0,0,0,4.64,4.44H873.28l1.07-144.05L771.66,546.31Z" transform="translate(-677.07 -471.58)"/><path class="cls-3" d="M734.77,667l-.81,0c-10.66-.47-15.05-9.07-15.89-13.56a3.5,3.5,0,0,1,6.88-1.3,9.79,9.79,0,0,0,9.32,7.87c7.43.33,9.31-7.1,9.5-8a3.5,3.5,0,0,1,6.84,1.47C749.6,658.22,745,667,734.77,667Z" transform="translate(-677.07 -471.58)"/><path class="cls-3" d="M773.77,669.36a13.18,13.18,0,0,1-10.16-5.29,3.5,3.5,0,0,1,5.65-4.13c.12.16,2.08,2.67,4.93,2.39a4.62,4.62,0,0,0,3.73-2.76,3.47,3.47,0,0,1,4.48-2.05,3.52,3.52,0,0,1,2.07,4.52,11.58,11.58,0,0,1-9.61,7.26A10.23,10.23,0,0,1,773.77,669.36Z" transform="translate(-677.07 -471.58)"/><path class="cls-3" d="M818.3,664.81H818a16.47,16.47,0,0,1-16.2-13.06,3.5,3.5,0,0,1,6.87-1.34,9.45,9.45,0,0,0,9.48,7.4c6.22.1,8.17-6.84,8.19-6.91a3.5,3.5,0,1,1,6.76,1.81C831.93,656.92,827.39,664.81,818.3,664.81Z" transform="translate(-677.07 -471.58)"/><path class="cls-4" d="M711.77,661.06c-5.46-.45-11.24,4.24-9.1,11.61s14.41,7.72,16.17-.87C720.09,665.66,717.47,661.54,711.77,661.06Z" transform="translate(-677.07 -471.58)"/><path class="cls-4" d="M841.58,677c5.45.46,11.23-4.24,9.09-11.61s-14.41-7.71-16.16.88C833.25,672.41,835.87,676.53,841.58,677Z" transform="translate(-677.07 -471.58)"/><path class="cls-5" d="M769.52,554.51s89.5,40.65,93.06,42.08,10,6.42,16.41-1.43,27.81-29.24,30-31.73,3.92-7.85-1.43-10.7-99.84-45.18-99.84-45.18c-1.59-.21-4.45-.73-7.07,1.69-3,2.8-79.43,47-83.73,50.08s-36.41,38.42-38,40.41-2.68,4.82-1.08,6.61c2.62,2.92,23.51-12.14,28.43-14.75S769.52,554.51,769.52,554.51Z" transform="translate(-677.07 -471.58)"/><path class="cls-6" d="M856.43,503.7s4.22-2,4.7-5.5-1.84-4.38-1.84-4.38,4.62-1.43,4.54-5-2.7-2.63-2.7-2.63,2.3-3.18,1-5.65-4.78-1.2-4.78-1.2l-4.3-2.39s-1.43-5.81-6.52-5.33-3.75,7.88-3.75,7.88l9.4,2.55,2.55,6.21,0,15.24Z" transform="translate(-677.07 -471.58)"/><path class="cls-7" d="M854.83,503.49A39.3,39.3,0,0,0,857,492c.11-6-.92-7.75-.92-7.75s5.59-5.7,1.94-9.35-8.09,4.34-8.09,4.34-9-3.54-16.31-.46-11,7.82-10,14.36c1.14,7.64,10.6,11.06,17.33,11.4A67.32,67.32,0,0,0,854.83,503.49Z" transform="translate(-677.07 -471.58)"/><path class="cls-8" d="M828.09,500.2a19.76,19.76,0,0,0,3.13-9.13c.18-3.72-1.8-7-3.37-8.92a11.33,11.33,0,0,0-4.26,11A10.91,10.91,0,0,0,828.09,500.2Z" transform="translate(-677.07 -471.58)"/><path class="cls-9" d="M842.56,483.15c-3.35.6-6.46,5.2-3,9,2.72,3,9.22,1.79,9.46-3.45S844.63,482.78,842.56,483.15Z" transform="translate(-677.07 -471.58)"/><path class="cls-6" d="M842.81,485c-2.3.39-4,3.14-2.07,6.05,1.6,2.38,6.37,1.19,6.53-2.31S844.25,484.74,842.81,485Z" transform="translate(-677.07 -471.58)"/><path class="cls-2" d="M826.92,549.78,858.39,563s2.5,1.32,2.5-4.85,0-45.88.29-49.55c.44-6-.29-8.38-5.88-8.24-4.7.13-21.47.15-23.53.15s-5.14.59-5.14,5.29S826.92,549.78,826.92,549.78Z" transform="translate(-677.07 -471.58)"/></g></svg>