<svg id="Layer_1" data-name="Layer 1" xmlns="http://www.w3.org/2000/svg" version="1.1" viewBox="0 0 1821.66 1691.37"><defs><clipPath id="clip-path" transform="translate(-11.19 260.14)"><path d="M188.6 246.55v843.17a96.74 96.74 0 0 0 32.29 72.15l170.2 152a106.65 106.65 0 0 0 71.06 27.13h1232a36.59 36.59 0 0 0 36.58-36.59V363l-680.18-480z" fill="none"/></clipPath><style>.cls-2{fill:#f2ce96}.cls-5{fill:#e3be80}.cls-7{fill:#a37f43}</style></defs><path class="cls-2" d="M188.6 246.55v843.17a96.74 96.74 0 0 0 32.29 72.15l170.2 152a106.65 106.65 0 0 0 71.06 27.13h1232a36.59 36.59 0 0 0 36.58-36.59V363l-680.18-480z" transform="translate(-11.19 260.14)"/><g clip-path="url(#clip-path)"><path d="M296.85 845s132.77-373.79 431-373.79 388.08 202.22 388.08 202.22 114.39-208.34 363.58-202.22 332.94 186.83 332.94 186.83l20.42 773.17-1517.64-40.83z" transform="translate(-11.19 260.14)" fill="#fde7c1"/><path class="cls-5" d="M427.85 1390.38H11.19V95.4h367.66v1092.8a410.18 410.18 0 0 0 18.4 121.49z" transform="translate(-11.19 260.14)"/></g><path d="m898.25-252.88-718.7 475.29a23.9 23.9 0 0 0-2.84 37.6l199.07 179.08a35.38 35.38 0 0 0 42.57 3.22L1134.3-27.15l600 413.07a10.25 10.25 0 0 0 14.87-3.61l7.11-13.33a10.25 10.25 0 0 0-2.28-12.53L1534.72 157a393.46 393.46 0 0 0-41.16-32.68l-546.24-377a44.44 44.44 0 0 0-49.07-.2z" transform="translate(-11.19 260.14)" fill="#bb9559"/><circle class="cls-7" cx="738.77" cy="913.8" r="125.23"/><circle class="cls-7" cx="1457.23" cy="913.8" r="125.23"/><path d="M710 839.37s-16.85 3.32-31.19 29.37m745.33-29.37s-16.85 3.32-31.15 29.37" stroke="#fcfefc" stroke-linecap="round" stroke-miterlimit="10" stroke-width="40" fill="none"/><path d="M1124.6 643.79c-68.94 0-112.83 33.51-111.83 87.47C1013.85 790 1057.7 893 1124.6 893c72.51 0 117.52-128.73 118-173.57.4-47.98-49.07-75.64-118-75.64z" transform="translate(-11.19 260.14)" fill="#f4cd64"/><path class="cls-5" d="M1103.91 293v8.68l30.9 31.41a14.58 14.58 0 0 0 14.81-2.3c7.15-5.87 2.81-13.79 2.81-13.79l-31.15-32.93h-8.43a8.94 8.94 0 0 0-8.94 8.93zm124.86-8.91s-11.24-3.58-16.34 3.06-1.54 14.81-1.54 14.81l25.28 24.76s10.72 3.83 18.89-3.06 0-14.53 0-14.53zm-15.32-79.66c-10.52 7.67-3.77 15.06-3.77 15.06l30.32 35.74s16.6 7.15 23 2.3 0-21.44 0-21.44l-30.89-32.94a17.29 17.29 0 0 0-18.66 1.28z" transform="translate(-11.19 260.14)"/><path class="cls-2" d="m554.89 1073.45-17.7 8.51s-1.7 50.38 23.15 53.44 12.26-57.53-5.45-61.95zm79.32 47.32c8.51-3.41 21.11 7.49 24.51 19.06s8.51 29.62-4.42 35.4-22.13-15.61-26.21-27.55-2.39-23.51 6.12-26.91zM982.47 1198s-3.41 16.34 9.87 35.41 16 19.06 26.55 14 5.45-16-4.76-31-22.13-23.47-31.66-18.41zm91.53 33.06c10.22-4.08 12.6 16.34 19.07 19.23s11.91 23.33 3.74 27.41-19.74 7.49-24.85-1.7-11.57-23.15-9.19-34.72 11.23-10.22 11.23-10.22zm50.77-100.42c-4.09 2-4.77 26.21 5.44 44.25s11.92 14 20.09 12.26 6.13-21.45 0-34.72-21.45-23.83-25.53-21.79zm319.49-27.49c11.91-1.17 13.27 18.89 14 26.81s5.36 30.13-10.21 31.91-16.86-24.76-17.37-32.17.55-25.27 13.58-26.55zm57.95-73.79c8.73-1.82 16.09 8.17 17.88 19.41s9.44 38.8-3.32 40.85-27.83-19.55-27.58-30.46.81-27.25 13.02-29.8zm69.96 26.04c13.31-.19 11 34.22 10.21 42.13s-1.78 29.36-12 28.34-18.25-22.64-16.59-37.78c1.78-16.35 1.02-32.43 18.38-32.69z" transform="translate(-11.19 260.14)"/></svg>