<svg xmlns="http://www.w3.org/2000/svg" viewBox="0 0 215.05 228"><defs><style>.cls-2{fill:#babcd1}.cls-3{fill:#5e6289}</style></defs><g id="Layer_1" data-name="Layer 1"><path fill="#999cba" d="m185.34 224.02 23.34-34.49-.71-42.62-22.29 30.02-.34 47.09"/><path class="cls-2" d="M867.68 660.75v44.33a6.74 6.74 0 0 1-6.74 6.74H693.32a4.47 4.47 0 0 1-4.48-4.48v-46.59s178.84-1.23 178.84 0z" transform="translate(-681.99 -483.82)"/><path class="cls-3" d="M6.92 109.34v68.21h178.81v-65.69L95.38 62.48 6.92 109.34z"/><path class="cls-2" d="M763 626.58c-.63 8.82-15.13 12.13-27.1 12.55s-24.38.68-24.38-10 .42-17.65 6.73-17.44 45.31 7.54 44.75 14.89zm26.93 1.05c.63 8.82 15.13 12.13 27.11 12.55s24.37.68 24.37-10-.42-17.65-6.72-17.44-45.28 7.54-44.76 14.89z" transform="translate(-681.99 -483.82)"/><path class="cls-3" d="M774.19 682.14a2.3 2.3 0 0 1-.81-.14 2.5 2.5 0 0 1-1.56-3.16c.15-.45 3.85-11.05 12.88-12.52 13.25-2.17 21.89 7.48 22.25 7.89a2.5 2.5 0 1 1-3.75 3.3c-.29-.32-7.23-8-17.7-6.26-6 1-8.92 9.12-9 9.2a2.49 2.49 0 0 1-2.31 1.69z" transform="translate(-681.99 -483.82)"/><path fill="#515580" d="m185.68 111.23 22.29-30.27v65.95l-22.29 30.61v-66.29z"/><path d="m896.44 560.15-25.77 38.66A3.62 3.62 0 0 1 866 600l-88-45a3.59 3.59 0 0 0-3.27 0l-87.42 44.19a3.61 3.61 0 0 1-2.5.28h-.07a3.6 3.6 0 0 1-2.73-3.32v-1.1a3.62 3.62 0 0 1 .59-2.17l24.12-36.43a3.68 3.68 0 0 1 1.34-1.2l89.71-46.95a11 11 0 0 1 10.32.06L895.14 555a3.59 3.59 0 0 1 1.3 5.15z" transform="translate(-681.99 -483.82)" fill="#767a9d"/><path class="cls-3" d="M722 483.87c-8.78-1.65-12.71 45.45-13.1 57.78-.28 8.89-.55 21.39-.69 27.67a2.45 2.45 0 0 0 3.48 2.27c8.86-4.13 31.49-14.86 35.8-18.56 5.4-4.62-3.08-20.59-9.24-39.08S728.15 485 722 483.87zm141.17 3.36c8.78-1.65 12.71 45.45 13.1 57.78.28 8.89.55 21.39.69 27.67a2.45 2.45 0 0 1-3.48 2.27c-8.86-4.13-31.49-14.86-35.8-18.56-5.4-4.62 3.08-20.59 9.24-39.08s10.08-28.93 16.25-30.08z" transform="translate(-681.99 -483.82)"/></g></svg>