<svg id="Layer_1" data-name="Layer 1" xmlns="http://www.w3.org/2000/svg" viewBox="0 0 215.29 220.99"><defs><style>.cls-1{fill:#fccf9d}.cls-2{fill:#fee9d2}.cls-6{fill:#c28149}.cls-9{fill:#75564a}.cls-10{fill:#715145}</style></defs><path class="cls-1" d="M248.55 453.22c17.52-1.47 38.8-22.26 69.06-24.23s49.48 22.76 71.26 23.25a25.85 25.85 0 0 0 14.34-3.86c.06-27.12 0-68.91-.56-72.31l-94.31-33.45-88.59 35.56s-.75 23.65-.75 31c0 3.22 0 20.37.09 39.26a59.8 59.8 0 0 0 29.46 4.78Z" transform="translate(-189.69 -289.86)"/><path class="cls-2" d="M225.48 510.46c3.76.45 169.34.45 173.25.3s3.92-3 3.92-4.67.3-24.26.45-36.16c0-3.25.08-11.37.11-21.55a25.85 25.85 0 0 1-14.34 3.86c-21.78-.49-41-25.21-71.26-23.25s-51.54 22.76-69.06 24.23a59.8 59.8 0 0 1-29.46-4.75c.09 24.53.27 52 .61 55.6s2.01 5.93 5.78 6.39Z" transform="translate(-189.69 -289.86)"/><path d="m223.93 450.36 1-74.31L195 359.33c-.57 3.34-1.45 55-1.65 77.73a29.88 29.88 0 0 1 16.53 6 48.21 48.21 0 0 0 14.05 7.3Z" transform="translate(-189.69 -289.86)" style="fill:#f2bd83"/><path d="M193.73 483.3a9.21 9.21 0 0 0 3.52 8c3 2.61 25.87 18.16 25.87 18.16l.81-59.07a48.21 48.21 0 0 1-14-7.29 29.88 29.88 0 0 0-16.53-6v7.44c-.06 15.25.33 35.76.33 38.76Z" transform="translate(-189.69 -289.86)" style="fill:#f7d7b3"/><path d="M307.63 350.47s-75.55 32.74-78.65 33.9a9.92 9.92 0 0 1-9.69-1.16c-3.49-2.33-25.76-18.41-27.9-20.15s-2.9-6.2 1.55-8.14 77.69-33.71 80.21-34.68 6.2-1.93 11.82 0 73.81 26 78.07 27.51 37.58 24.61 39.91 26 3.68 6.79-1.74 5-93.58-28.28-93.58-28.28Z" transform="translate(-189.69 -289.86)" style="fill:#e7a966"/><path class="cls-6" d="M245.64 439.37a2.46 2.46 0 0 1-.92-.17 2.51 2.51 0 0 1-1.41-3.24c.5-1.27 5.09-12.39 12.91-12.63s12.7 8.27 12.91 8.63a2.5 2.5 0 0 1-4.36 2.46c0-.06-3.61-6.24-8.4-6.09-3.58.11-7.21 6.42-8.4 9.46a2.51 2.51 0 0 1-2.33 1.58ZM387.84 441.11a2.51 2.51 0 0 1-2.21-1.31c-1.93-3.61-5.91-9.07-8.33-9.36s-6.23 3.51-8.17 6.16a2.5 2.5 0 0 1-4-3c.66-.91 6.67-8.9 12.81-8.17 5.84.7 11.14 10.08 12.14 11.95a2.49 2.49 0 0 1-2.2 3.68Z" transform="translate(-189.69 -289.86)"/><path class="cls-2" d="M374.08 407.23c-2.32 3.86 1.7 9.25 6.2 10.66 6.2 1.93 10.08.58 11.43-2.33s-1.4-8-6.36-9.95c-3.35-1.32-8.94-2.25-11.27 1.62ZM257.7 407.62c2.32 3.86-1.69 9.25-6.2 10.65-6.19 1.94-10.07.58-11.43-2.32s1.41-8 6.37-9.95c3.32-1.32 8.94-2.26 11.26 1.62Z" transform="translate(-189.69 -289.86)"/><path d="M304 455.47s1.75 14.14 7.56 17.43 13.37 1.55 16.46-3.48 1.36-15.89 1.36-15.89l-12.59-3.68Z" transform="translate(-189.69 -289.86)" style="fill:#f9c6c1"/><path class="cls-6" d="M334.22 451.75c-1.11-.38-9.76-3.37-15.17-4.19l-.59-10.25a2.5 2.5 0 0 0-5 .29l.58 10.06c-5.14 1-12.3 4.14-13.24 4.56a2.5 2.5 0 1 0 2 4.56 128.41 128.41 0 0 1 14-4.74c.79 0 12.95 3.46 15.76 4.43a2.5 2.5 0 1 0 1.64-4.72Z" transform="translate(-189.69 -289.86)"/><path class="cls-6" d="M329.8 430.37c.83 6.36-7.46 11.11-14.13 10.39-9.19-1-13.47-4.95-13.6-9.51s6.37-9.62 13.94-9.38c5.09.13 12.99 2.13 13.79 8.5Z" transform="translate(-189.69 -289.86)"/><path d="M233.63 312.28c-2.75-1.86-4.82-8.31-2.7-11.58 0 0-3.28-8.42-.42-10.31 2-1.32 8.39 4.87 8.39 4.87a32.9 32.9 0 0 1 5.76-.55 24.55 24.55 0 0 1 5.81.74s4.54-5.94 7.62-5.58c1.85.22 2 7.12.56 10 0 0 2 6.89-2.6 11.91-3.18 3.44-18.92 3.22-22.42.5Z" transform="translate(-189.69 -289.86)" style="fill:#906c5f"/><path class="cls-9" d="M233.74 307.51c.32-1-8.3-2.68-9.23-2s1.56 1.69 3.82 2.07c1.45.24 5.14.82 5.41-.07ZM234.85 308.71c0-.35-8.4-.84-9.63.56-.44.51 9.87.98 9.63-.56ZM254.21 307.51c-.31-1 8.3-2.68 9.24-2s-1.57 1.69-3.82 2.07c-1.46.24-5.14.82-5.42-.07ZM253.1 308.71c.06-.35 8.41-.84 9.64.56.44.51-9.87.98-9.64-.56Z" transform="translate(-189.69 -289.86)"/><path class="cls-10" d="M237.4 306.24c-.63 0-1.3-1.27-1.32-2.63s.53-2.2 1.36-2.22 1.32 1.83 1.32 2.78-.31 2.12-1.36 2.07ZM251.55 306.24c.63 0 1.3-1.27 1.32-2.63s-.53-2.2-1.36-2.22-1.32 1.83-1.32 2.78.31 2.12 1.36 2.07ZM241.89 306.24c0-.39 1.08-1 2.15-1a2.34 2.34 0 0 1 2 .92c.2.36-1 1.89-2 1.85s-2.17-1.18-2.15-1.77Z" transform="translate(-189.69 -289.86)"/><path class="cls-1" d="M261.8 315.76c0 1.57-.07 16.8-.1 23.43a5.22 5.22 0 0 1-2.68 4.55l-26.48 14.77a3.72 3.72 0 0 1-5.54-3.28c.09-11.58.27-35 .27-37.37 0-3.1-.32-7.19 2.11-7.13 5.51.13 28.81 0 30.72 0 2.08 0 1.74 2.76 1.7 5.03Z" transform="translate(-189.69 -289.86)"/></svg>