<svg xmlns="http://www.w3.org/2000/svg" xmlns:xlink="http://www.w3.org/1999/xlink" viewBox="0 0 644.39 593.83"><defs><style>.cls-1,.cls-11,.cls-6{fill:none;}.cls-2{fill:#ffe989;}.cls-3{clip-path:url(#clip-path);}.cls-4{fill:#f0d168;}.cls-5{fill:#f7b95c;}.cls-11,.cls-6{stroke:#5c3a14;stroke-linecap:round;stroke-miterlimit:10;}.cls-6{stroke-width:9px;}.cls-7{fill:#7b6e5b;}.cls-8{fill:#feea8a;}.cls-9{fill:#f6b5b1;}.cls-10{fill:#5c3a14;}.cls-11{stroke-width:8px;}</style><clipPath id="clip-path" transform="translate(56.3 29.52)"><path class="cls-1" d="M31.88,224.76V534.21S29.83,554.1,45.4,554.56s444.57-.7,444.57-.7,5,.21,13.62-8.79c12.12-12.65,43.11-40.44,43.11-40.44s7.43-6.13,7.37-31c-.07-31,0-272.21,0-272.21l-257.16-177Z"/></clipPath></defs><g id="Layer_1" data-name="Layer 1"><path class="cls-2" d="M33.09,226.19V535.63S31,555.52,46.61,556s439.57-.69,439.57-.69,5,.2,13.62-8.79c12.13-12.66,43.11-40.44,43.11-40.44s7.43-6.13,7.38-31c-.08-31,1.32-271.55,1.32-271.55L293.12,25.91Z" transform="translate(56.3 29.52)"/><g id="House_Clip" data-name="House Clip"><g class="cls-3"><path id="Shadow" class="cls-4" d="M504.06,222.29l-2.62,310.83s-.44,27.07-21,31,102.18-53.27,102.18-53.27L584.41,255l3.68-80.65Z" transform="translate(56.3 29.52)"/></g></g><path id="Roof" class="cls-5" d="M554.77,162,311,22.85s-6.65-4.77-11.32-4.77c-6.79,0-14.15,4.77-14.15,4.77L86.33,152.06a61.44,61.44,0,0,0-11.27,6.16C70,161.89,24,212.43,24,212.43s-4.86,4.15-5.16,9.12-.36,7.86-.36,7.86-.42,7.62,3.82,5.69S234.2,102.37,234.2,102.37L479.43,247.31s9,6.26,17.83,0c11.43-8.11,67.28-58.25,67.28-58.25S579.12,176.45,554.77,162Z" transform="translate(56.3 29.52)"/><path class="cls-6" d="M194.66,393s6.62,18.44,24.72,18.44c19.9,0,25.24-30.95,25.24-30.95s7.4,30.72,27.75,30.72C289.13,411.21,295,393,295,393" transform="translate(56.3 29.52)"/><path class="cls-7" d="M379.94,16.08S371.65-34,386.07-29.19s18.1,23.26,18.1,23.26,7.3-4.6,14.6.34c0,0,7.13-26,20.92-22.49s3.2,44,3.2,44Z" transform="translate(56.3 29.52)"/><polygon class="cls-8" points="432.69 44.59 503.08 44.91 499.07 189.32 430.93 154.53 432.69 44.59"/></g><g id="Flip"><line class="cls-9" y1="490.13" x2="599.85" y2="488.05"/><line class="cls-9" x1="599.85" y1="490.13" y2="488.05"/><path class="cls-9" d="M243.25,334.75s25.52-1.21,25.74,17.34-13.37,27.28-25.74,27.36" transform="translate(56.3 29.52)"/><line class="cls-9" x1="599.85" y1="490.13" y2="488.05"/><line class="cls-9" y1="490.13" x2="599.85" y2="488.05"/><path class="cls-9" d="M244,334.75s-25.52-1.21-25.75,17.34,13.38,27.28,25.75,27.36" transform="translate(56.3 29.52)"/></g><g id="More_Deets" data-name="More Deets"><ellipse class="cls-10" cx="218.59" cy="366.63" rx="18.68" ry="18.22"/><ellipse class="cls-10" cx="395.61" cy="366.63" rx="18.68" ry="18.22"/><ellipse class="cls-9" cx="159.17" cy="420.52" rx="36.3" ry="34.16"/><ellipse class="cls-9" cx="458.22" cy="417.17" rx="36.3" ry="34.16"/><path class="cls-11" d="M389.66,366.45s22.81-25.37,106.43-25.05" transform="translate(56.3 29.52)"/><path class="cls-11" d="M391.92,393.27s43.38-11.71,69.76,1.87" transform="translate(56.3 29.52)"/><path class="cls-11" d="M110.18,366.45S78,338.13,10.3,341.71" transform="translate(56.3 29.52)"/><path class="cls-11" d="M111.37,391.11s-62-3.57-78.56,4" transform="translate(56.3 29.52)"/></g></svg>