<svg id="Layer_1" data-name="Layer 1" xmlns="http://www.w3.org/2000/svg" viewBox="0 0 169.67 172.47"><defs><style>.cls-4{fill:#c0813c}</style></defs><path d="M215.82 380.08s-1.4 98.67-1.28 100.89a12.2 12.2 0 0 0 1.51 6.29c1.28 2.1 10.14 18.75 15.26 20.27l1.52-110.79Z" transform="translate(-212.67 -335.59)" style="fill:#e6a660"/><path d="M228.8 394s-.87 104.54-.87 107.44 1.45 6.38 6.38 6.53 137.52.2 140.78-.56 3.51-3.76 3.77-6.52-.51-96.66-.51-96.66l-68.54-45.19Z" transform="translate(-212.67 -335.59)" style="fill:#f4b773"/><path d="M308.75 367.11a3.82 3.82 0 0 1 3.69.21c10.33 6.48 62 38.9 65.94 41.14 4.35 2.48 4.66-2.18 3.11-5.29s-10.26-18.95-12.43-22.06S303.38 338.34 301 337s-4.81-2.24-9.28 0-73.8 35.56-76.72 37.45-2.75 4.81-1.38 7.22 12.56 19.09 13.59 20.46 3.09 2.41 7.39.52c3.88-1.71 62.76-30.05 74.15-35.54Z" transform="translate(-212.67 -335.59)" style="fill:#f18761"/><path class="cls-4" d="m258.93 433.34 11.16 15.52a4.09 4.09 0 0 0 6.56.11l11-14.31a3.73 3.73 0 0 0-2.93-6l-23.68.36a2.74 2.74 0 0 0-2.11 4.32ZM324.45 443.81l11.16 15.52a4.09 4.09 0 0 0 6.56.11l11-14.31a3.73 3.73 0 0 0-2.94-6l-23.67.37a2.73 2.73 0 0 0-2.11 4.31ZM291.12 471.54c-3.58-2.08-3.79-12.47 2.23-18.49 6.24-6.24 16-5.13 20.73-.89s5.12 13.14-4.91 18.72c-9.56 5.31-15.37 2.22-18.05.66Z" transform="translate(-212.67 -335.59)"/><path d="M292.18 470.05c-1.76 2.44 1.14 9.39 6.9 11.63a11.38 11.38 0 0 0 14-5.48c1.87-4.18-.44-10.23-8.73-11-7.89-.71-10.85 3.03-12.17 4.85Z" transform="translate(-212.67 -335.59)" style="fill:#d69d5e"/></svg>