<svg id="Layer_1" data-name="Layer 1" xmlns="http://www.w3.org/2000/svg" xmlns:xlink="http://www.w3.org/1999/xlink" viewBox="0 0 421.94 441.41"><defs><style>.cls-1,.cls-7,.cls-8,.cls-9{fill:none;}.cls-2{fill:#b1ebf5;}.cls-3{clip-path:url(#clip-path);}.cls-4{fill:#8fd5e7;}.cls-5{fill:#dcf4fc;}.cls-6{fill:#f59288;}.cls-7{stroke:#f3756b;stroke-width:12px;}.cls-7,.cls-8,.cls-9{stroke-linecap:round;stroke-miterlimit:10;}.cls-8,.cls-9{stroke:#3d8d99;}.cls-8{stroke-width:8px;}.cls-9{stroke-width:7px;}.cls-10{fill:#3d8d99;}</style><clipPath id="clip-path" transform="translate(-452.95 -371.44)"><path class="cls-1" d="M462.81,536.09V780.17a11.74,11.74,0,0,0,11.74,11.74H772.46a33.65,33.65,0,0,0,25.16-11.29l33.72-37.89a22.8,22.8,0,0,0,5.77-15.15V509L622.64,420.68Z"/></clipPath></defs><path class="cls-2" d="M462.81,536.09V780.17a11.74,11.74,0,0,0,11.74,11.74H772.46a33.65,33.65,0,0,0,25.16-11.29l33.72-37.89a22.8,22.8,0,0,0,5.77-15.15V509L622.64,420.68Z" transform="translate(-452.95 -371.44)"/><g class="cls-3"><path class="cls-4" d="M791.66,543.74V776.6a20.54,20.54,0,0,1-1.95,8.75l-12.86,27.5,98-60.76-11.23-264Z" transform="translate(-452.95 -371.44)"/></g><path class="cls-5" d="M677.14,373.1l-171.47,110a59.79,59.79,0,0,0-11.08,9.17L454.12,538a4.25,4.25,0,0,0-1.09,3.73l1,5.18a4.26,4.26,0,0,0,6.35,2.87l169.15-103.3L782.47,562.05a11.2,11.2,0,0,0,14.46-1l52.89-54.35A7.83,7.83,0,0,0,849,495L689.33,373.59A10.75,10.75,0,0,0,677.14,373.1Z" transform="translate(-452.95 -371.44)"/><path class="cls-6" d="M498.55,669.87c4.87,1.49,22.47-.37,26.64-15.49,2-7.4-3.31-12.44-8-13.7-5.7-1.53-13.28,3.15-13.28,3.15s-2.46-7.22-10.12-7.74c-6.22-.43-9.28,4-10.05,9C482.47,653.46,486,666,498.55,669.87Z" transform="translate(-452.95 -371.44)"/><path class="cls-6" d="M750.33,669.87c-4.86,1.49-22.47-.37-26.64-15.49-2-7.4,3.31-12.44,8-13.7,5.71-1.53,13.28,3.15,13.28,3.15s2.47-7.22,10.13-7.74c6.21-.43,9.27,4,10,9C766.42,653.46,762.84,666,750.33,669.87Z" transform="translate(-452.95 -371.44)"/><path class="cls-6" d="M589.45,687.92c.68.34-3.07,59.4,34.38,59.4,24.68,0,22.81-25,22.64-34.21s2.72-27.58,8-28.09l-31.32-9.36Z" transform="translate(-452.95 -371.44)"/><path class="cls-7" d="M620.09,678s-4.26,27.75-1.37,42.9" transform="translate(-452.95 -371.44)"/><path class="cls-8" d="M586.38,635.21s-6.51,9.64-24.89,12.64c-16.16,2.64-16.34,8-16.21,11.81.3,9,15.83,30.38,38,28.08s28.21-13.78,41.74-13,16.73,9.19,32.05,8.43,29.36-15.58,29.36-26.3" transform="translate(-452.95 -371.44)"/><line class="cls-9" x1="114.47" y1="293.01" x2="121.62" y2="298.24"/><line class="cls-9" x1="198.98" y1="297.99" x2="209.07" y2="287.71"/><circle class="cls-10" cx="81.17" cy="254.01" r="14.13"/><circle class="cls-10" cx="256.16" cy="254.01" r="14.13"/></svg>