<svg id="Layer_1" data-name="Layer 1" xmlns="http://www.w3.org/2000/svg" xmlns:xlink="http://www.w3.org/1999/xlink" viewBox="0 0 584.96 542.51"><defs><style>.cls-1,.cls-7{fill:none;}.cls-2{fill:#f9f08c;}.cls-3{clip-path:url(#clip-path);}.cls-4{fill:#f39991;}.cls-5{fill:#f0d168;}.cls-6{fill:#a86b4e;}.cls-7{stroke:#a86b4e;stroke-linecap:round;stroke-miterlimit:10;stroke-width:12px;}.cls-8{fill:#fff;}</style><clipPath id="clip-path" transform="translate(-3.96 -21.8)"><path class="cls-1" d="M10.42,234.87v300s-2.24,19.29,14.8,19.73,464.46,0,464.46,0,5.48.19,14.91-8.53C517.87,533.81,571,483.75,571,483.75s8.14-5.94,8.07-30c-.08-30.06.07-209.42.07-209.42L300.56,40.7Z"/></clipPath></defs><path id="House" class="cls-2" d="M9.37,236.13v300s-2.24,19.29,14.8,19.74,464.46,0,464.46,0,5.48.2,14.91-8.52C516.81,535.07,569.91,485,569.91,485s8.13-5.94,8.07-30c-.08-30.06.06-209.42.06-209.42L299.5,42Z" transform="translate(-3.96 -21.8)"/><g id="House_Clip" data-name="House Clip"><g class="cls-3"><circle class="cls-4" cx="66.76" cy="448.22" r="66.76"/><circle class="cls-4" cx="438" cy="379.32" r="70.52"/><path id="Shadow" class="cls-5" d="M504.06,255l-2.62,278.17s-.44,27.07-21,31,102.18-53.27,102.18-53.27L584.41,255l3.5-57.64Z" transform="translate(-3.96 -21.8)"/></g></g><ellipse class="cls-6" cx="149.36" cy="380.41" rx="19.43" ry="23.14"/><ellipse class="cls-6" cx="342.15" cy="324.95" rx="21.4" ry="24.02"/><path class="cls-7" d="M241.74,403.27s34.94,16,36.25-22.46" transform="translate(-3.96 -21.8)"/><path class="cls-8" d="M577.51,251.22,560,265.64l-1.21,1-49.25,40.48a16.08,16.08,0,0,1-3.47,2.19h0l-1,1.2c-23.58,28.82-69,10-90.39-20.09s-54.15-44.55-79.48-55S282.79,193,278,172.51c-1.86-7.93-9.45-16.77-18.07-24.64l-31-21.4c-4.7,5-25,26.82-56.15,62.2-35.81,40.61-67.25,36.68-95.2,38.43s-32.75,11.79-48.91,21c-10.47,5.94-16.77,5.28-19.91,4.09l-.74.41c-4.47,2.35-4-6.93-4-6.93s0-3.47.37-9.58,5.44-11.11,5.44-11.11,49.32-51.2,54.69-55.67a62.18,62.18,0,0,1,11.87-7.5L291.75,27.61s7.75-5.81,14.9-5.81c4.92,0,11.93,5.81,11.93,5.81l258.93,178C603.17,223.24,577.51,251.22,577.51,251.22Z" transform="translate(-3.96 -21.8)"/><path class="cls-8" d="M560.08,266s-.46.23-1.3.68l1.21-1Z" transform="translate(-3.96 -21.8)"/></svg>