<svg id="Layer_1" data-name="Layer 1" xmlns="http://www.w3.org/2000/svg" viewBox="0 0 91.96 98.36"><defs><style>.cls-1{fill:#ff0015;}.cls-2{fill:#f5ed7e;}.cls-3{fill:none;stroke:#d91f02;stroke-linecap:round;stroke-miterlimit:10;stroke-width:2px;}</style></defs><path class="cls-1" d="M165.23,632.72c16.88-.93,39.5-13.56,42.48-43.08,1.09-10.74-.44-19.53-5.51-20.27-5.33-.79-10.29,4-10.29,4s5.67-28-4.62-30.11-16.84,8.5-16.84,8.5-2.09-17.29-10-17.29c-16.1,0-22.21,32.49-22.21,32.49s-2.54-4.62-9.09-3.28-14.59,11.18-12.82,31.9C117.92,614.16,130.05,634.66,165.23,632.72Z" transform="translate(-116.09 -534.49)"/><path class="cls-2" d="M169.65,630.6c12.78-1.16,24.25-15.76,26.53-24.9,2.66-10.67.3-13.56-3.73-14s-5.21,2.54-5.21,2.54-1-26.65-16.1-22.22c-8.58,2.53-8.35,9.69-8.35,9.69a6.71,6.71,0,0,0-7.49-1.88c-4.77,1.64-4.73,11.27-4.73,11.27s-3.58-3.27-7.31-2.23-7.41,7.12-4.45,19C141.81,619.85,150,632.39,169.65,630.6Z" transform="translate(-116.09 -534.49)"/><line class="cls-3" x1="34.91" y1="69.93" x2="41.95" y2="70.94"/><line class="cls-3" x1="37.76" y1="70.94" x2="40.22" y2="77.37"/><line class="cls-3" x1="53.69" y1="68.59" x2="59.95" y2="65.29"/><line class="cls-3" x1="59.95" y1="73.06" x2="57.27" y2="66.94"/><path class="cls-3" d="M163.63,616.6a3.61,3.61,0,0,0,3.85,1.63,4,4,0,0,0,3.08-3.25" transform="translate(-116.09 -534.49)"/></svg>