<svg id="Layer_1" data-name="Layer 1" xmlns="http://www.w3.org/2000/svg" viewBox="0 0 95.49 91.16"><defs><style>.cls-1{fill:#ff0014;}.cls-2{fill:#f7ec7f;}.cls-3{fill:none;stroke:#c51d00;stroke-linecap:round;stroke-miterlimit:10;stroke-width:2px;}</style></defs><path class="cls-1" d="M40.49,100.82c8.25.15,35.69-8.64,45.17-39.1,9-29.18-3.73-51.19-14.27-52-16.18-1.24-26.1,17.79-26.1,17.79s-1.53-12.64-9.12-12.3c-10.34.49-12.33,14.86-12.33,14.86s-4.37-7-9.57-6.67c-7.93.45-25.38,16.35-20,38.21C.38,86.85,12.82,100.31,40.49,100.82Z" transform="translate(6.76 -9.66)"/><path class="cls-2" d="M42.84,94.15c7.06-1.1,24-7.05,30-24,5.57-15.82-5.22-24.68-10.08-25-11.27-.89-17.18,8.46-17.18,8.46s-2.25-5-6.67-5.19-6.54,6.09-6.54,6.09S29.82,48,24.2,49s-17.72,11.61-14,26.07S26.69,96.73,42.84,94.15Z" transform="translate(6.76 -9.66)"/><line class="cls-3" x1="33.54" y1="58.72" x2="42.56" y2="60.31"/><line class="cls-3" x1="39.33" y1="64.94" x2="39.5" y2="59.77"/><line class="cls-3" x1="56.45" y1="58.17" x2="49.22" y2="59.81"/><line class="cls-3" x1="52.91" y1="65.74" x2="52.83" y2="58.98"/><path class="cls-3" d="M35.18,81.34a2.52,2.52,0,0,0,2.29,2.14c2,0,3.37-2.25,3.37-2.25" transform="translate(6.76 -9.66)"/></svg>