<svg id="Layer_1" data-name="Layer 1" xmlns="http://www.w3.org/2000/svg" viewBox="0 0 86.06 79.5"><defs><style>.cls-1{fill:#ff0014;}.cls-2{fill:#f7ec7f;}.cls-3{fill:none;stroke-miterlimit:10;}.cls-3,.cls-4{stroke:#c51d00;stroke-linecap:round;stroke-width:2px;}.cls-4{fill:#c51d00;stroke-linejoin:round;}</style></defs><path class="cls-1" d="M40.49,100.82C101,97.18,102.73,4.25,51.77,33.45c.06-4.25-2.84-12-11-12.08C33.5,21.33,29.14,31.44,30.32,36-13.29,8.8-3.84,103.47,40.49,100.82Z" transform="translate(-2.02 -21.37)"/><path class="cls-2" d="M44.77,94.15c33.78-3,44.79-73.63,2.71-40.61,0,0-2.25-5-6.67-5.19s-6.54,6.09-6.54,6.09C5.51,32.09,4.65,98.41,44.77,94.15Z" transform="translate(-2.02 -21.37)"/><line class="cls-3" x1="27.96" y1="45.39" x2="32.71" y2="48.59"/><line class="cls-3" x1="30.55" y1="53.22" x2="30.72" y2="48.05"/><line class="cls-3" x1="49.2" y1="44.5" x2="42.1" y2="48.09"/><line class="cls-3" x1="44.13" y1="54.03" x2="44.05" y2="47.27"/><path class="cls-4" d="M38.19,80.94c.17,1.16,3.63,3.45,4.8,3.55,2,0,2.47-3.66,2.47-3.66Z" transform="translate(-2.02 -21.37)"/></svg>