<svg id="Layer_1" data-name="Layer 1" xmlns="http://www.w3.org/2000/svg" viewBox="0 0 777.48 679.06"><defs><style>.cls-1{fill:#ea9638;}.cls-2{fill:#f2cf5f;}.cls-3{fill:none;stroke:#5b3c12;stroke-linecap:round;stroke-miterlimit:10;stroke-width:30px;}.cls-4{fill:#5b3c12;}</style></defs><path class="cls-1" d="M448.28,728.3c171.67,0,356.93-151.66,374.55-337.79,13.65-144.25-6.89-343.15-93.45-340.85S599.94,190.6,599.94,190.6,579.12,41.71,434.49,49.53C318.83,55.79,289,216.64,289,216.64S255.26,48.13,153.38,52.72,49.57,218.85,49.21,290.94,105.22,728.38,448.28,728.3Z" transform="translate(-49.21 -49.23)"/><path class="cls-2" d="M443.1,681.57c137.49,0,363.44-90.38,357.52-346.21-2.69-116-27.2-205.15-96.51-203.3s-110.3,119.05-110.3,119.05S547.89,131.72,432.06,138c-92.63,5-143.61,127.93-143.61,127.93S243.39,128.45,161.81,132.13,92.14,273,91.85,330.77C91.4,428.81,168.37,681.64,443.1,681.57Z" transform="translate(-49.21 -49.23)"/><path class="cls-3" d="M266.74,392.55s7.41-31.23,41.94-31.23c39.51,0,42.13,33.79,42.13,33.79" transform="translate(-49.21 -49.23)"/><path class="cls-3" d="M523.58,386.21S531,355,565.52,355c39.51,0,42.13,33.79,42.13,33.79" transform="translate(-49.21 -49.23)"/><path class="cls-4" d="M362.61,453.07c-3.64.06-4.79,3.47-4.84,7.11-.34,23.78,11.61,83.52,95.39,83.52,86.27,0,93.93-65.36,95-85.5.21-4.11-.5-8-4.62-7.94Z" transform="translate(-49.21 -49.23)"/></svg>