<svg id="Layer_1" data-name="Layer 1" xmlns="http://www.w3.org/2000/svg" viewBox="0 0 87.42 103.47"><defs><style>.cls-1{fill:#ff0014;}.cls-2{fill:#f7ec7f;}.cls-3{fill:none;stroke:#c51d00;stroke-linecap:round;stroke-miterlimit:10;stroke-width:2px;}</style></defs><path class="cls-1" d="M-262.6,598.88c5.73-5.93,18-32,2.17-59.7-15.21-26.48-40-32.16-47.78-25-11.93,11-4.77,31.23-4.77,31.23s-10.29-7.5-15.21-1.71c-6.7,7.9,2.46,19.15,2.46,19.15s-8.07-1.55-11.4,2.46c-5.07,6.11-5.33,29.71,14.31,40.7C-300.16,618.71-281.83,618.78-262.6,598.88Z" transform="translate(340.04 -511.35)"/><path class="cls-2" d="M-265.88,592.62c4-5.92,11.18-22.36,2.84-38.31-7.78-14.86-21.62-13-25.2-9.69-8.33,7.64-5.51,18.34-5.51,18.34s-5.22-1.79-8.35,1.34,0,8.94,0,8.94-6.41-2.53-9.54,2.24-3.58,20.87,9.54,28S-275,606.19-265.88,592.62Z" transform="translate(340.04 -511.35)"/><line class="cls-3" x1="44.35" y1="75.46" x2="51.66" y2="69.94"/><line class="cls-3" x1="52.85" y1="75.46" x2="49.18" y2="71.81"/><line class="cls-3" x1="59.56" y1="58.32" x2="55.83" y2="64.73"/><line class="cls-3" x1="62.69" y1="66.07" x2="57.69" y2="61.52"/><path class="cls-3" d="M-280.48,589.49a2.52,2.52,0,0,0,3.13-.22c1.37-1.4.65-4,.65-4" transform="translate(340.04 -511.35)"/></svg>