<svg xmlns="http://www.w3.org/2000/svg" viewBox="0 0 51.36 62.93"><defs><style>.cls-1{fill:#97c289;}.cls-2{fill:#f9b3b9;}</style></defs><g id="Layer_1" data-name="Layer 1"><path class="cls-1" d="M784.11,614.55a31.42,31.42,0,0,1,9.27,5.13l-3.57-9.25,9.13-2.56,2.6,6.76c3-5.08,8.42-11.58,15-7.1,6.77,4.64.65,15.08-4.24,19.31a87.17,87.17,0,0,1-9.37,6.43,30.94,30.94,0,0,1-3.18.4h0c-4.67.4-13.66.43-21.26-3.83C767.63,623.76,775.63,611.87,784.11,614.55Z" transform="translate(-768.15 -570.91)"/><path class="cls-2" d="M800.67,582.18c5.53.85,9.78,10.47,7.24,18.73S795,615.32,783,612.77s-12.32-14.87-9.75-21.1c0,0-7.38-3.25-4.34-9.28,2.6-5.14,8.43-1.34,8.43-1.34s-2.41-5.52,3.82-8.21c5.11-2.21,8,2.51,8,2.51s2.59-5.88,8.43-4.1C803,572.91,801.47,579.53,800.67,582.18Z" transform="translate(-768.15 -570.91)"/></g></svg>