<svg xmlns="http://www.w3.org/2000/svg" viewBox="0 0 47.41 70.15"><g data-name="Layer 1"><path d="M33.98 44.04a33.33 33.33 0 0 0-6.8 8.76V42.1l-9.43 1v7.8c-4.62-4-12-8.39-16.51-1.34-4.65 7.29 4.81 15.43 10.9 17.79a82.16 82.16 0 0 0 11.06 2.84s1.21-.24 3.11-.83c4.5-1.42 12.9-4.87 18.46-12.11 7.91-10.35-3.84-19.21-10.79-13.21z" fill="#62d0af"/><path d="M5.08 14.84s-6.09 10.62-2.36 19.17 14.35 15.62 26 11.49S41 29.78 40.51 25.36c0 0 6.86-5.51 4.13-13S34.42 6.95 34.42 6.95A8.47 8.47 0 0 0 27.15.07C21.65-.81 18.6 4.4 18.6 4.4s-5-5.11-10.71-1.58c-4.81 3.08-3.9 9.27-2.81 12.02z" fill="#e3a8fd"/></g></svg>