<svg xmlns="http://www.w3.org/2000/svg" viewBox="0 0 47.41 70.15"><defs><style>.cls-1{fill:#62d0af;}.cls-2{fill:#e3a8fd;}</style></defs><g id="Layer_1" data-name="Layer 1"><path class="cls-1" d="M803.9,611.14a33.33,33.33,0,0,0-6.8,8.76V609.2l-9.43,1V618c-4.62-4-12-8.39-16.51-1.34-4.65,7.29,4.81,15.43,10.9,17.79a82.16,82.16,0,0,0,11.06,2.84s1.21-.24,3.11-.83h0c4.5-1.42,12.9-4.87,18.46-12.11C822.6,614,810.85,605.14,803.9,611.14Z" transform="translate(-769.92 -567.1)"/><path class="cls-2" d="M775,581.94s-6.09,10.62-2.36,19.17,14.35,15.62,26,11.49,12.28-15.72,11.79-20.14c0,0,6.86-5.51,4.13-13s-10.22-5.41-10.22-5.41a8.47,8.47,0,0,0-7.27-6.88c-5.5-.88-8.55,4.33-8.55,4.33s-5-5.11-10.71-1.58C773,573,773.91,579.19,775,581.94Z" transform="translate(-769.92 -567.1)"/></g></svg>