<svg id="Layer_1" data-name="Layer 1" xmlns="http://www.w3.org/2000/svg" viewBox="0 0 602.67 560.03"><defs><clipPath id="clip-path" transform="translate(-451.4 -279.55)"><path d="M488.85 497.79v264.79a14.22 14.22 0 0 0 7.15 12.33l56 32.24a11.07 11.07 0 0 0 5.42 1.47l388.92 2.7V511.06L708.09 379.32z" fill="none"/></clipPath><style>.cls-7{fill:#8a6aea}.cls-8{fill:#fdc1b6}.cls-11{fill:#fcfffa}</style></defs><path d="M934.81 279.57c29.58-1.47 110.64 54.47 117.79 175.32s-12.94 161.81-32 162.78-86.13 4.37-92.77-1.93-10-286.8-9.53-294.29-3.92-40.85 16.51-41.88z" transform="translate(-451.4 -279.55)" fill="#cfccd1"/><path d="M978.53 724.11c-4.41.18-15.22 2.51-14.54-5.49s5.11-189.79 5.11-189.79 1.07-19.06 8.37-19.74 12.74 40.85 11.72 53.78 2 149.28 2 154.9c.13 9.01-12.66 6.34-12.66 6.34z" transform="translate(-451.4 -279.55)" fill="#b9a7bd"/><path d="M488.85 506.51v255.83a14.64 14.64 0 0 0 7.34 12.66l55 31.64a14.67 14.67 0 0 0 7.2 2l373.24 2.6a14.64 14.64 0 0 0 14.73-14.64V519.7a14.62 14.62 0 0 0-7.55-12.81l-223.72-123.7a14.64 14.64 0 0 0-14-.07L496.53 493.64a14.63 14.63 0 0 0-7.68 12.87z" transform="translate(-451.4 -279.55)" fill="#e8e3e8"/><g clip-path="url(#clip-path)"><path d="m574 836.51-122.6 3.06V467.83h102.13l-.2 329c0 7.76.33 7.82 3.61 14.86z" transform="translate(-451.4 -279.55)" fill="#cdcbd0"/></g><path id="Roof" class="cls-7" d="m480.53 495 57 48.21a17.35 17.35 0 0 0 20.73 1.22l196.81-130L945.44 518.5a6.22 6.22 0 0 0 8.71-3l.53-1.23a6.22 6.22 0 0 0-1.86-7.34l-38-30.39a79.79 79.79 0 0 0-11.68-7.77L696.73 356.43a13.06 13.06 0 0 0-13.15.39L481.39 482.7a7.64 7.64 0 0 0-.86 12.3z" transform="translate(-451.4 -279.55)"/><path class="cls-7" d="M787.32 412.77S829.44 355 862.13 362c42.13 8.93 37.27 105.7 35.23 107.23s-110.04-56.46-110.04-56.46zm-233.11 47.74s-10.72-87.57 27.79-99.83 65.87 40.21 65.87 40.21z" transform="translate(-451.4 -279.55)"/><path class="cls-8" d="M593.28 402.81c16.18-9.06 53.45 16.15 49.11 28.66s-43 26.29-49.09 29.35-11.3 3.9-12.32-9.63-1.62-40.59 12.3-48.38zm266.04-4.34c14.68 7.53 14.17 43.53 13.28 48s-2.05 8.17-10.6 3.19-31.53-18.77-38.3-21.83-9.19-8.17-4.08-12.77 25.53-23.87 39.7-16.59z" transform="translate(-451.4 -279.55)"/><ellipse class="cls-8" cx="139.06" cy="448.86" rx="36" ry="34.89"/><ellipse class="cls-8" cx="457.02" cy="441.94" rx="36" ry="34.89"/><path d="m124.94 437.13-6.3 16.86m20.42-16-7.49 19.23m24.89-16.09-8 16.68m300.85-27.87-10.04 16.09m23.03-11.79-10.56 16.17m24.69-16.17-9.54 19.75" style="stroke:#8a6aea;stroke-linecap:round;stroke-miterlimit:10;stroke-width:7px;fill:none"/><path d="M191.79 456.71c6 4.42 15.65 9.94 40.72 5.55 40.47-7.09 66.43-45 66.43-45s25.49 41.06 84.38 49.62c22.76 3.3 31.93-4.13 31.93-4.13" stroke-width="10" stroke="#8a6aea" stroke-linecap="round" stroke-miterlimit="10" fill="none"/><path class="cls-7" d="M747.06 697.62s-17.7-3.24-17.87-14.81 15.08-14.45 22.23-4.58c0 0 4.3-6 14.52-5s14.29 22.79-12.75 24.43" transform="translate(-451.4 -279.55)"/><ellipse class="cls-11" cx="206.57" cy="373.9" rx="59.96" ry="59.13"/><ellipse class="cls-11" cx="388.18" cy="373.9" rx="59.96" ry="59.13"/><circle class="cls-7" cx="208.94" cy="373.9" r="45.7"/><circle class="cls-7" cx="390.38" cy="373.9" r="45.7"/></svg>