<svg id="Layer_1" data-name="Layer 1" xmlns="http://www.w3.org/2000/svg" viewBox="0 0 353.33 313.42"><defs><style>.cls-1{fill:#cba9d0;}.cls-2{fill:#b992c3;}.cls-3{fill:#e67eb0;}.cls-4{fill:#9869aa;}.cls-5{fill:#f5d7e9;}.cls-6{fill:#feeb98;}.cls-7{fill:#fef8e5;}.cls-8{fill:#6f6075;}.cls-9{fill:#cae2be;}.cls-10{fill:#9cc993;}.cls-11{fill:#ee8770;}.cls-12{fill:#53baac;}.cls-13{fill:#f191bc;}.cls-14{fill:#f4adce;}</style></defs><path class="cls-1" d="M163.23,398.69v123a5.66,5.66,0,0,0,5.67,5.66H439a5.66,5.66,0,0,0,5.67-5.66V410.83a5.66,5.66,0,0,0-3.5-5.23l-188.4-78.16a5.67,5.67,0,0,0-5.73.82l-81.71,66A5.65,5.65,0,0,0,163.23,398.69Z" transform="translate(-120.39 -264.88)"/><polygon class="cls-2" points="7.73 101.42 42.84 131.1 42.84 262.49 7.73 233.37 7.73 101.42"/><path class="cls-3" d="M121.77,370.36l35.28,36.79a6.42,6.42,0,0,0,8.94.75l87.14-72.07,199.23,81s4.89.78,2.5-3.75c-2.19-4.13-25.92-42.41-30.14-49.19a3.64,3.64,0,0,0-1.76-1.48l-195.7-79.54a8.55,8.55,0,0,0-8.44,1.15L122.34,361A7.56,7.56,0,0,0,121.77,370.36Z" transform="translate(-120.39 -264.88)"/><path class="cls-4" d="M254.15,465.56c-14.54,0-23.78-13.42-24.17-14a4,4,0,0,1,6.62-4.49c.09.12,7.31,10.48,17.55,10.48,10,0,15.88-10.09,15.94-10.19a4,4,0,0,1,7,3.91C276.74,451.86,268.92,465.56,254.15,465.56Z" transform="translate(-120.39 -264.88)"/><path class="cls-4" d="M310.49,479.5a18.58,18.58,0,0,1-16-8.81,4,4,0,0,1,7-3.92,10.54,10.54,0,0,0,9,4.73c5.72,0,8-5.71,8.05-5.95a4,4,0,0,1,7.51,2.75C325.88,468.76,321.87,479.5,310.49,479.5Z" transform="translate(-120.39 -264.88)"/><path class="cls-4" d="M369.5,466.37c-16.39,0-24.16-14.35-24.49-15a4,4,0,0,1,7.07-3.75c.25.46,5.94,10.72,17.42,10.72,11.19,0,16-11.72,16.19-12.22a4,4,0,0,1,7.45,2.92C392.87,449.78,386.2,466.37,369.5,466.37Z" transform="translate(-120.39 -264.88)"/><path class="cls-5" d="M209.43,461c-6.24,1.32-13.91,6.86-12.13,20s16.83,15.93,23.46,11.6,10.57-11.81,7.37-21.31C225.07,462.13,216.85,459.37,209.43,461Z" transform="translate(-120.39 -264.88)"/><path class="cls-5" d="M412.3,460.46c-6.24,1.33-13.91,6.86-12.12,20s16.82,15.94,23.45,11.6,10.57-11.81,7.37-21.31C427.94,461.64,419.73,458.89,412.3,460.46Z" transform="translate(-120.39 -264.88)"/><path class="cls-6" d="M329.15,292.84s-1.61-9.8,1.76-16.68,11-11.56,18-11.26c6.82.28,13.61,4.24,17.71,11.41,3.44,6,2.34,14.48,2,18.73Z" transform="translate(-120.39 -264.88)"/><path class="cls-7" d="M334.56,289.91s-.58-8.48,4.83-13,14.05-3.95,17.71-.58,5,9.65,3.36,14.78Z" transform="translate(-120.39 -264.88)"/><path class="cls-8" d="M340.52,281.8a1.59,1.59,0,0,1,2.87-.56c.82,1,.79,2.4.12,2.9C342,285.27,340.21,283.3,340.52,281.8Z" transform="translate(-120.39 -264.88)"/><path class="cls-8" d="M355.65,281.8a1.6,1.6,0,0,0-2.87-.56c-.82,1-.79,2.4-.12,2.9C354.17,285.27,356,283.3,355.65,281.8Z" transform="translate(-120.39 -264.88)"/><path class="cls-8" d="M346.6,285a.71.71,0,0,0,0,1,2.42,2.42,0,0,0,1.81.6,2,2,0,0,0,1.61-.76.71.71,0,0,0-.15-1l-.43-.34a1.94,1.94,0,0,0-2.57.17Z" transform="translate(-120.39 -264.88)"/><path class="cls-8" d="M338.66,266.65c-1.33-1.72-5.27-.58-9.36,3.66s-7.61,8.78-5.13,11.56,8.2-1.61,11.42-5.71S340.12,268.55,338.66,266.65Z" transform="translate(-120.39 -264.88)"/><path class="cls-8" d="M360.11,269.35c-1.89,1.08-1.29,5.14,2.36,9.77s7.67,8.72,10.76,6.63-.48-8.33-4.11-12.07S362.19,268.16,360.11,269.35Z" transform="translate(-120.39 -264.88)"/><path class="cls-5" d="M324.59,291.81V338.5a4.16,4.16,0,0,0,2.62,3.86l41,15.58a2.39,2.39,0,0,0,3.27-2.21V291.38a3,3,0,0,0-2.95-2.94H328A3.37,3.37,0,0,0,324.59,291.81Z" transform="translate(-120.39 -264.88)"/><path class="cls-9" d="M168.84,554.51c-2.47,0-9.21-4.25-8.86-13.23s7.8-21.25,26.58-19.72a19.07,19.07,0,0,1,8.73-16.64c8.71-5.84,21.26-1.18,21.26-1.18a25.43,25.43,0,0,1,20.66-5.91c12.28,2.13,15.47,10.63,15.47,10.63s9.44-2.48,17,3.3,6.73,12.64,6.73,12.64,12.51-4.25,19,2.36S303,546,298.61,550.61s-8.62,3.9-16.89,3.9Z" transform="translate(-120.39 -264.88)"/><path class="cls-10" d="M468.44,533.57c-4.13-3.34-13.12,3.77-16.11,6.33l-.23-8.83-8.84,1.35-.06,6.89a68.07,68.07,0,0,0-7.92-3.34c-6.72-2.31-13.16,3.94-7.59,10.29S444,555.67,444,555.67l9.9-.09a61.29,61.29,0,0,0,11.15-7.5C471.71,542.7,473.44,537.61,468.44,533.57Z" transform="translate(-120.39 -264.88)"/><path class="cls-11" d="M437.36,496.45s2.92-5.84,8.79-5.79c6.24.06,8.65,6.1,8.65,6.1s4.51-6.35,10.57-4.81,10.67,10.29,7.11,22.88-12.78,19.32-25.57,19.7a26,26,0,0,1-24.22-14.13c-3.36-6.63-6-21.63,3.18-25.66C433.07,491.57,437.36,496.45,437.36,496.45Z" transform="translate(-120.39 -264.88)"/><path class="cls-6" d="M441.72,509.25s1.06-5.57,6.54-5.28,5.48,5.86,5.48,5.86,4.52-2.6,7.88,1.44.29,11.82-5.09,15-13.94,3.18-18.17-.48-7.75-10.15-4.71-15C436.25,506.66,441.72,509.25,441.72,509.25Z" transform="translate(-120.39 -264.88)"/><path class="cls-12" d="M419.42,554.57v-11s-9.06,2.91-9.44,2.53l0,8.26c-2.68-1.27-11.29-4.72-15.43,1.07-4.45,6.24,4.41,15.91,18.25,22.83,0,0,24-7.28,25.47-17.55C440.14,547.73,423.44,548.26,419.42,554.57Z" transform="translate(-120.39 -264.88)"/><path class="cls-13" d="M412.31,550.31c-7,0-13.19-7.69-15.38-12.08s-2.6-11.33-2.6-11.33l6.24-8.3,11.89-3.32,10.1,1.79,5.56,5.12,2.56,4.22s.32,8.48-3.86,14.85S417.53,550.34,412.31,550.31Z" transform="translate(-120.39 -264.88)"/><path class="cls-14" d="M412.85,537.7a30.31,30.31,0,0,1-4.46,0c-6.21-.4-10.73-2.69-12.72-6.43a10.11,10.11,0,0,1-.59-9c1.83-4.27,6.42-6.88,9.78-7.82,4.45-1.23,12.93-1.24,17.19.6a2.16,2.16,0,0,1,.69.49,13.69,13.69,0,0,1,7.19,6.46,8.64,8.64,0,0,1-1,8.88C426.08,534.87,419.24,537.2,412.85,537.7Zm-6.34-19.49-.58.15c-2.71.75-6,2.76-7.18,5.54a6.16,6.16,0,0,0,.46,5.53c1.29,2.44,4.73,4,9.44,4.32,6.89.46,14.67-1.9,17-5.14a4.6,4.6,0,0,0,.65-4.89c-1.31-2.88-5.16-4.94-8-5.21-3.59-.34-8.25,1.31-10,3.53a2.41,2.41,0,0,0-.48,2.5c.37,1,.85,1.18,1,1.23,1.41.4,4.21-1.08,5.65-2.21A2,2,0,1,1,417,526.7c-.53.42-5.29,4-9.22,2.91a5.52,5.52,0,0,1-3.7-3.71,6.46,6.46,0,0,1,1.08-6.31A10.1,10.1,0,0,1,406.51,518.21Z" transform="translate(-120.39 -264.88)"/></svg>