<svg xmlns="http://www.w3.org/2000/svg" viewBox="0 0 353.33 313.42"><defs><style>.cls-5{fill:#ffd7f9}.cls-6{fill:#feeb97}</style></defs><g id="Layer_1" data-name="Layer 1"><path d="M660.23 579v123a5.66 5.66 0 0 0 5.66 5.67H936a5.67 5.67 0 0 0 5.67-5.67V591.17a5.66 5.66 0 0 0-3.49-5.23l-188.4-78.17a5.64 5.64 0 0 0-5.73.83l-81.72 66a5.68 5.68 0 0 0-2.1 4.4z" transform="translate(-617.39 -445.22)" fill="#e3a8fd"/><path fill="#d68ff5" d="m7.73 101.42 35.11 29.68v131.39L7.73 233.37V101.42z"/><path d="m618.76 550.69 35.29 36.79a6.42 6.42 0 0 0 8.94.75l87.13-72.07 199.23 81s4.9.78 2.5-3.75c-2.18-4.12-25.92-42.4-30.13-49.19a3.72 3.72 0 0 0-1.77-1.48l-195.69-79.52a8.57 8.57 0 0 0-8.44 1.15l-96.48 76.92a7.56 7.56 0 0 0-.58 9.4z" transform="translate(-617.39 -445.22)" fill="#f87ac1"/><path d="M751.15 645.89c-14.54 0-23.79-13.41-24.17-14a4 4 0 0 1 6.62-4.5c.08.12 7.3 10.48 17.55 10.48 10 0 15.88-10.09 15.93-10.19a4 4 0 0 1 7 3.91c-.35.61-8.17 14.3-22.93 14.3zm56.33 13.94a18.57 18.57 0 0 1-16-8.8 4 4 0 0 1 7-3.92 10.58 10.58 0 0 0 9 4.72c5.72 0 8-5.7 8-6a4 4 0 0 1 7.51 2.76c-.11.51-4.13 11.24-15.51 11.24zm59.01-13.13c-16.38 0-24.16-14.35-24.48-15a4 4 0 0 1 7.06-3.76c.25.47 5.94 10.72 17.42 10.72 11.19 0 16-11.72 16.2-12.22a4 4 0 0 1 7.45 2.92c-.28.75-6.94 17.34-23.65 17.34z" transform="translate(-617.39 -445.22)" style="fill:#aa66c8"/><path class="cls-5" d="M706.42 641.28c-6.23 1.33-13.91 6.86-12.12 20s16.82 15.94 23.45 11.6 10.58-11.81 7.38-21.31c-3.07-9.11-11.28-11.86-18.71-10.29zm202.87-.48c-6.23 1.32-13.91 6.85-12.12 20s16.83 15.94 23.46 11.61S931.2 660.6 928 651.1c-3.07-9.1-11.28-11.88-18.71-10.3z" transform="translate(-617.39 -445.22)"/><path class="cls-6" d="M826.14 473.18s-1.61-9.81 1.76-16.68 11-11.56 18-11.27c6.82.28 13.6 4.24 17.7 11.41 3.45 6 2.34 14.49 2 18.73z" transform="translate(-617.39 -445.22)"/><path d="M831.56 470.25s-.59-8.49 4.83-13 14-4 17.7-.59 5 9.66 3.36 14.78z" transform="translate(-617.39 -445.22)" fill="#fef7e4"/><path d="M837.51 462.14a1.6 1.6 0 0 1 2.87-.56c.82 1 .79 2.4.12 2.9-1.5 1.12-3.3-.85-2.99-2.34zm15.13 0a1.59 1.59 0 0 0-2.87-.56c-.82 1-.79 2.4-.12 2.9 1.51 1.12 3.35-.85 2.99-2.34zm-9.05 3.14a.71.71 0 0 0 0 1 2.39 2.39 0 0 0 1.81.61 2 2 0 0 0 1.6-.77.7.7 0 0 0-.14-1l-.44-.34a1.92 1.92 0 0 0-2.56.16zM835.65 447c-1.32-1.73-5.26-.59-9.36 3.65s-7.61 8.78-5.12 11.56 8.19-1.61 11.41-5.7 4.54-7.62 3.07-9.51zm21.46 2.68c-1.89 1.08-1.29 5.14 2.36 9.77s7.67 8.73 10.76 6.64-.49-8.34-4.12-12.08-6.92-5.52-9-4.33z" transform="translate(-617.39 -445.22)" style="fill:#6e5f74"/><path class="cls-5" d="M821.59 472.14v46.7a4.14 4.14 0 0 0 2.61 3.85l41 15.58a2.38 2.38 0 0 0 3.26-2.21v-64.34a3 3 0 0 0-3-3H825a3.37 3.37 0 0 0-3.41 3.42z" transform="translate(-617.39 -445.22)"/><path d="M965.44 713.9c-4.13-3.34-13.12 3.77-16.11 6.33l-.23-8.83-8.84 1.35-.07 6.9a65.48 65.48 0 0 0-7.91-3.34c-6.73-2.31-13.17 3.94-7.59 10.28S941 736 941 736l9.89-.1a60.81 60.81 0 0 0 11.15-7.49c6.67-5.41 8.4-10.47 3.4-14.51z" transform="translate(-617.39 -445.22)" fill="#9cc992"/><path d="M934.35 676.78s2.93-5.84 8.79-5.78c6.25.06 8.65 6.09 8.65 6.09s4.52-6.34 10.57-4.81 10.67 10.29 7.12 22.88-12.79 19.32-25.57 19.7a25.94 25.94 0 0 1-24.22-14.13c-3.37-6.63-6-21.63 3.17-25.66 7.21-3.17 11.49 1.71 11.49 1.71z" transform="translate(-617.39 -445.22)" fill="#ee8770"/><path class="cls-6" d="M938.72 689.59s1.06-5.58 6.53-5.29 5.48 5.86 5.48 5.86 4.52-2.59 7.88 1.44.29 11.83-5.09 15-13.94 3.17-18.17-.48-7.75-10.15-4.71-15c2.6-4.12 8.08-1.53 8.08-1.53z" transform="translate(-617.39 -445.22)"/><path d="M916.42 734.91v-11s-9.06 2.92-9.45 2.53l.06 8.27c-2.69-1.28-11.3-4.73-15.44 1.07-4.45 6.23 4.42 15.91 18.26 22.83 0 0 24-7.28 25.46-17.56 1.82-12.99-14.88-12.45-18.89-6.14z" transform="translate(-617.39 -445.22)" fill="#48c0ae"/><path d="M909.3 730.65c-7 0-13.18-7.69-15.38-12.09s-2.59-11.33-2.59-11.33l6.24-8.3c8.47-3.39 21.54-5 27.55 3.59l2.56 4.22s.31 8.48-3.86 14.85-9.29 9.09-14.52 9.06z" transform="translate(-617.39 -445.22)" fill="#ff8fc8"/><path d="M909.85 718a31.91 31.91 0 0 1-4.47 0c-6.21-.41-10.72-2.69-12.71-6.44a10.12 10.12 0 0 1-.6-9c1.84-4.28 6.42-6.89 9.79-7.82 4.44-1.24 12.92-1.24 17.19.6 3 1.64 6.43 3.56 7.87 6.95a8.6 8.6 0 0 1-1 8.88c-2.85 4.03-9.68 6.36-16.07 6.83zm-6.35-19.5-.58.15c-2.71.75-6 2.76-7.17 5.55a6.16 6.16 0 0 0 .45 5.53c1.3 2.43 4.74 4 9.45 4.32 6.89.45 14.66-1.9 17-5.15a4.6 4.6 0 0 0 .66-4.89c-1.32-2.88-5.17-4.94-8-5.21-3.59-.33-8.24 1.32-10 3.53a2.43 2.43 0 0 0-.48 2.5c.38 1 .86 1.18 1 1.23 1.4.41 4.2-1.08 5.65-2.21A2 2 0 0 1 914 707c-.53.41-5.29 4-9.22 2.91a5.54 5.54 0 0 1-3.7-3.72 6.44 6.44 0 0 1 1.08-6.31 10 10 0 0 1 1.34-1.34z" transform="translate(-617.39 -445.22)" fill="#fcadd5"/></g></svg>