<svg id="Layer_1" data-name="Layer 1" xmlns="http://www.w3.org/2000/svg" viewBox="0 0 242.53 293.43"><defs><style>.cls-2{fill:#f6b3ba}.cls-6{fill:#bb766b}</style></defs><path d="M413.35 423.49s2.12 107.51 2.12 114.78-36.28 27.86-36.28 27.86L377.32 432Z" transform="translate(-175.69 -273.95)" style="fill:#f2a0a7"/><path class="cls-2" d="M179.56 449.53s-1.22 99.68 0 107 3.93 10.9 10 10.9 178.38-.6 185.65-.6 9.38-4.55 9.08-15.45-2.12-105.73-2.12-105.73l-103-49.67Z" transform="translate(-175.69 -273.95)"/><path d="M278.32 403.18S371 447.54 378 450s13-4 16-6 18.61-14.68 21.73-17.16 5.19-6.85-5.4-11.84-96.84-42.8-99.75-44.26-8.72 2.5-11.84 3.95-90.84 46.39-94.74 48.68-24.73 19.53-27.22 22.44-.42 8.93 5.4 6.65 96.14-49.28 96.14-49.28Z" transform="translate(-175.69 -273.95)" style="fill:#a98274"/><path d="M372.88 341.34a8.29 8.29 0 0 0-1.14-2.35 11.69 11.69 0 0 0-3.17-3.05 14.86 14.86 0 0 0-7.63-2.42 12.15 12.15 0 0 0-8 2.55 11.29 11.29 0 0 0-1.54 1.47l-.22.27a10 10 0 0 1-1.45-3 18.4 18.4 0 0 1-.57-5.21 24.72 24.72 0 0 1 2.9-10.5l.12-.23a19.76 19.76 0 0 0 4.38 3 14.29 14.29 0 0 0 7.22 1.57 9.8 9.8 0 0 0 4-1.11 9 9 0 0 0 3.24-2.87 7.49 7.49 0 0 0 1.38-4.48 8.62 8.62 0 0 0-1.34-4.35 12.45 12.45 0 0 0-6.33-5 11.86 11.86 0 0 0-8.22.05c-.33.14-.67.28-1 .44l-.94.53-.87.61-.71.56a24.85 24.85 0 0 0-2.57 2.45l-.23.27v-.06a18.07 18.07 0 0 1-2.19-5.38 21.78 21.78 0 0 1 .48-11.7 33.48 33.48 0 0 1 5.81-10.69 49.76 49.76 0 0 1 8.81-8.71 47.66 47.66 0 0 0-9.69 8 35.05 35.05 0 0 0-6.9 10.74 23.84 23.84 0 0 0-1.35 13 25.18 25.18 0 0 0 2 6.4 15.79 15.79 0 0 0 .74 1.41c-.55.8-1.07 1.61-1.54 2.45a30.33 30.33 0 0 0-4 13.37 24.62 24.62 0 0 0 .68 7.22 18 18 0 0 0 3.61 6.81c.3.37.61.71.93 1.06a23 23 0 0 0-1.06 4.76 32.08 32.08 0 0 0 0 6.86 60.68 60.68 0 0 0 2.11 10.42l5.47 3.51v-2.15l-.08-.36a61.25 61.25 0 0 1-1.93-11.84 26.64 26.64 0 0 1 .53-6.92 23.33 23.33 0 0 0 5.87 2.78 15.83 15.83 0 0 0 3.92.69 11.58 11.58 0 0 0 4.39-.6 9.63 9.63 0 0 0 4-2.65 10.79 10.79 0 0 0 1.34-1.88c.1-.18.17-.29.28-.52a7.17 7.17 0 0 0 .3-.69 6.72 6.72 0 0 0 .37-1.5 7 7 0 0 0-.21-3.03Zm-17.7-26.81a21.57 21.57 0 0 1 1.88-1.94l.51-.43.4-.3.41-.26.43-.22a5.8 5.8 0 0 1 4-.15 6.89 6.89 0 0 1 3.54 2.38 3.36 3.36 0 0 1 .62 1.52 2.24 2.24 0 0 1-.35 1.43 4.35 4.35 0 0 1-3.31 2 10.27 10.27 0 0 1-5-.75 15.72 15.72 0 0 1-4-2.36c.36-.31.61-.62.87-.92Zm11.17 28.85-.1.16a3.51 3.51 0 0 1-.48.66 2.83 2.83 0 0 1-1.18.76 6.81 6.81 0 0 1-4-.22 17.45 17.45 0 0 1-4.83-2.48l.45-.52a5.07 5.07 0 0 1 .74-.66 5.61 5.61 0 0 1 3.76-1 8.51 8.51 0 0 1 4.14 1.44 4.81 4.81 0 0 1 1.31 1.26c.23.44.2.63.19.6Z" transform="translate(-175.69 -273.95)" style="fill:#e7e0e9"/><path class="cls-2" d="M338 353.84c-3.64-1.72-7.46-.38-7.84 7.46s-.38 40.14 0 43.78 6.29 5.92 12.22 8.41 16.07 7.26 20.09 7.65 5.16-2.87 5.16-7.46S367 382.52 367 380s-.4-7.65-6.51-11.47S338 353.84 338 353.84Z" transform="translate(-175.69 -273.95)"/><ellipse cx="99.5" cy="235.49" rx="25.63" ry="19.11" style="fill:#fbd9dc"/><path class="cls-6" d="M283.06 501.88c-3.78 0-3.78 15.94 0 15.94s4-15.94 0-15.94ZM264.84 501.47c-3.77 0-3.77 15.94 0 15.94s4.01-15.94 0-15.94Z" transform="translate(-175.69 -273.95)"/><ellipse class="cls-6" cx="52.2" cy="227.93" rx="6.49" ry="7.36"/><ellipse class="cls-6" cx="147.49" cy="226.94" rx="6.49" ry="7.36"/></svg>