<svg id="Layer_1" data-name="Layer 1" xmlns="http://www.w3.org/2000/svg" xmlns:xlink="http://www.w3.org/1999/xlink" viewBox="0 0 495.76 500.63"><defs><style>.cls-1,.cls-6{fill:none;}.cls-2{fill:#bff1f8;}.cls-3{clip-path:url(#clip-path);}.cls-4{fill:#98dde9;}.cls-5{fill:#eea6fd;}.cls-6{stroke:#98dde9;stroke-width:7px;}.cls-6,.cls-9{stroke-linecap:round;stroke-linejoin:round;}.cls-7,.cls-9{fill:#fcb3c1;}.cls-8{fill:#5f959d;}.cls-9{stroke:#5f959d;stroke-width:8px;}</style><clipPath id="clip-path" transform="translate(-711.46 -305.08)"><path class="cls-1" d="M717.87,474.81V769.32a13.4,13.4,0,0,0,13.41,13.4h403.65A29,29,0,0,0,1157,772.5l34.08-40.12a19.92,19.92,0,0,0,4.73-12.88V418.89L918.55,347.66Z"/></clipPath></defs><path class="cls-2" d="M717.11,474.81V769.32a13.4,13.4,0,0,0,13.4,13.4h403.65a29,29,0,0,0,22.1-10.22l34.07-40.12a19.87,19.87,0,0,0,4.73-12.88V418.89L917.79,347.66Z" transform="translate(-711.46 -305.08)"/><g class="cls-3"><rect class="cls-4" x="436.59" y="90.16" width="55.15" height="410.47"/></g><path class="cls-5" d="M958.29,307.09l-194.2,108-52,58.45a2.73,2.73,0,0,0-.45,2.88l3.72,7.34a2.73,2.73,0,0,0,3.85,1.31l196-111.34,226.26,100.58a12.79,12.79,0,0,0,14.31-2.8l48.42-49.9a10.6,10.6,0,0,0-3.48-17.14L972.61,306.38A16.48,16.48,0,0,0,958.29,307.09Z" transform="translate(-711.46 -305.08)"/><path class="cls-6" d="M917.53,657.87c6,8.81-6.29,24.2-18.89,24.51-15.28.39-12.73-9.4-12.73-9.4s-.17,8-16.38,7.53c-16.6-.52-8.36-19.25-3.09-19.41" transform="translate(-711.46 -305.08)"/><circle class="cls-7" cx="61.85" cy="332.11" r="36.01"/><circle class="cls-7" cx="308.24" cy="332.11" r="36.01"/><ellipse class="cls-8" cx="117.28" cy="298.83" rx="11.8" ry="12.8"/><path class="cls-8" d="M805.8,576.55h35.42a.88.88,0,0,0,.88-.91c-.12-2.76-1.77-10.78-17.12-10.45-19.5.43-20.32,8.06-20.06,10.57A.87.87,0,0,0,805.8,576.55Z" transform="translate(-711.46 -305.08)"/><path class="cls-8" d="M965.15,603.9c0,7.07-4.11,12.8-11.18,12.8a12.8,12.8,0,1,1,0-25.59C961,591.11,965.15,596.84,965.15,603.9Z" transform="translate(-711.46 -305.08)"/><path class="cls-8" d="M977.22,576.55H941.75a.88.88,0,0,1-.88-.91c.12-2.76,1.78-10.78,17.14-10.45,19.52.43,20.35,8.06,20.09,10.57A.89.89,0,0,1,977.22,576.55Z" transform="translate(-711.46 -305.08)"/><path class="cls-9" d="M896.66,630.7c-3.89,0-15.64-4.36-17.79-15.85,8.22.34,7.86,0,17.9.85,11.23,1,13.87,1.58,13.87,8.09S904.7,630.7,896.66,630.7Z" transform="translate(-711.46 -305.08)"/></svg>