<svg id="Layer_1" data-name="Layer 1" xmlns="http://www.w3.org/2000/svg" xmlns:xlink="http://www.w3.org/1999/xlink" viewBox="0 0 561.63 540.87"><defs><style>.cls-1,.cls-6{fill:none;}.cls-2{fill:#4593f7;}.cls-3{clip-path:url(#clip-path);}.cls-4{fill:#217be8;}.cls-5{fill:#fc6678;}.cls-6{stroke:#1b60b2;stroke-linecap:round;stroke-linejoin:round;stroke-width:11px;}.cls-7{fill:#fcf9e3;}.cls-8{fill:#1b60b2;}.cls-9{clip-path:url(#clip-path-2);}.cls-10{clip-path:url(#clip-path-3);}</style><clipPath id="clip-path" transform="translate(-662.47 -270.88)"><path class="cls-1" d="M715.57,453V731.82a17.39,17.39,0,0,0,3.67,10.67L760.91,796a17.38,17.38,0,0,0,13.7,6.69h418.92a17.36,17.36,0,0,0,17.36-17.36V517.37a17.37,17.37,0,0,0-5.87-13L1023.4,344.13a17.35,17.35,0,0,0-17.12-3.4l-279,95.84A17.36,17.36,0,0,0,715.57,453Z"/></clipPath><clipPath id="clip-path-2" transform="translate(-662.47 -270.88)"><ellipse class="cls-1" cx="1088.15" cy="629.72" rx="64.98" ry="63.15"/></clipPath><clipPath id="clip-path-3" transform="translate(-662.47 -270.88)"><ellipse class="cls-1" cx="879.02" cy="629.02" rx="64.79" ry="63.15"/></clipPath></defs><path class="cls-2" d="M715.57,453V731.82a17.39,17.39,0,0,0,3.67,10.67L760.91,796a17.38,17.38,0,0,0,13.7,6.69h418.92a17.36,17.36,0,0,0,17.36-17.36V517.37a17.37,17.37,0,0,0-5.87-13L1023.4,344.13a17.35,17.35,0,0,0-17.12-3.4l-279,95.84A17.36,17.36,0,0,0,715.57,453Z" transform="translate(-662.47 -270.88)"/><g class="cls-3"><rect class="cls-4" y="124.27" width="97.02" height="416.6"/></g><path class="cls-5" d="M974.31,272.48,707.45,416.06a12.71,12.71,0,0,0-6.68,11.19v8.26a12.71,12.71,0,0,0,2.36,7.38l41.39,58a11,11,0,0,0,14.42,3.17l257.4-146.73,189.19,168.79a11.18,11.18,0,0,0,15.58-.79h0a11.18,11.18,0,0,0,1.24-13.61L1185,453.05a37.88,37.88,0,0,0-6.48-7.69l-188.89-171A13.4,13.4,0,0,0,974.31,272.48Z" transform="translate(-662.47 -270.88)"/><path class="cls-6" d="M818.72,693.36s75.58,46.47,169,43.92,168.52-48,168.52-48" transform="translate(-662.47 -270.88)"/><ellipse class="cls-7" cx="323.18" cy="483.12" rx="10.14" ry="8.62"/><path class="cls-8" d="M918.27,511.83c-3.8,14.43-33.53,11.37-54.36,6.26-8.57-2.11-24.12-11.89-22.08-23s17-15.83,32.3-14.18C895.44,483.24,921.19,500.73,918.27,511.83Z" transform="translate(-662.47 -270.88)"/><ellipse class="cls-8" cx="1079.82" cy="534.79" rx="38.3" ry="20.86" transform="translate(-749.9 -35.33) rotate(-11.97)"/><path class="cls-8" d="M969.77,663a14.94,14.94,0,0,0-2.8,4.15c-1,2.29-1.69,5.44,1.16,7,3.15,1.68,5.82-1.9,7.26-4.5a15.46,15.46,0,0,0,1.7-4.86c.38-2.23.57-5.24-1-5.69S971.44,661.17,969.77,663Z" transform="translate(-662.47 -270.88)"/><path class="cls-8" d="M995.15,666.16a15.32,15.32,0,0,0,1.81,4.68c1.3,2.13,3.5,4.5,6.38,3,3.17-1.63,1.76-5.86.45-8.53a15.29,15.29,0,0,0-3-4.16c-1.61-1.59-4-3.47-5.26-2.41S994.65,663.78,995.15,666.16Z" transform="translate(-662.47 -270.88)"/><ellipse class="cls-5" cx="216.55" cy="358.14" rx="64.79" ry="63.15"/><ellipse class="cls-5" cx="425.68" cy="358.84" rx="64.98" ry="63.15"/><g class="cls-9"><polygon class="cls-8" points="496.68 354.9 374.83 420.29 417.36 437.29 503.83 396.1 496.68 354.9"/></g><circle class="cls-8" cx="461.53" cy="355.16" r="15.74"/><ellipse class="cls-8" cx="182.55" cy="352.62" rx="15.32" ry="15.61"/><g class="cls-10"><polygon class="cls-8" points="146.38 358.84 263.15 408.69 240.68 433.54 126.98 406.65 146.38 358.84"/></g></svg>