<svg id="Layer_1" data-name="Layer 1" xmlns="http://www.w3.org/2000/svg" xmlns:xlink="http://www.w3.org/1999/xlink" viewBox="0 0 494.09 516.52"><defs><style>.cls-1,.cls-8{fill:none;}.cls-2{fill:#76c7d0;}.cls-3{fill:#d0eefb;}.cls-4{fill:#e4f8fc;}.cls-5{fill:#66b4bf;}.cls-6{clip-path:url(#clip-path);}.cls-7{fill:#4da0aa;}.cls-8{stroke:#4da0aa;stroke-linecap:round;stroke-miterlimit:10;stroke-width:9px;}.cls-9{fill:#f59288;}.cls-10{fill:#f9f189;}.cls-11{clip-path:url(#clip-path-2);}.cls-12{fill:#b1defa;}.cls-13{clip-path:url(#clip-path-3);}.cls-14{clip-path:url(#clip-path-4);}.cls-15{clip-path:url(#clip-path-5);}.cls-16{clip-path:url(#clip-path-6);}.cls-17{clip-path:url(#clip-path-7);}</style><clipPath id="clip-path" transform="translate(-41.27 -163.75)"><ellipse class="cls-1" cx="339.86" cy="507.59" rx="46.67" ry="35.57" transform="translate(-232.03 722.3) rotate(-76.77)"/></clipPath><clipPath id="clip-path-2" transform="translate(-41.27 -163.75)"><polygon class="cls-1" points="60.88 492.64 60.88 417.94 89.2 442.85 89.2 517 60.88 492.64"/></clipPath><clipPath id="clip-path-3" transform="translate(-41.27 -163.75)"><polygon class="cls-1" points="60.88 515.39 89.2 540.75 89.2 613.49 60.88 589.94 60.88 515.39"/></clipPath><clipPath id="clip-path-4" transform="translate(-41.27 -163.75)"><polygon class="cls-1" points="60.88 313.57 89.2 339.1 89.2 418.21 60.88 392.66 60.88 313.57"/></clipPath><clipPath id="clip-path-5" transform="translate(-41.27 -163.75)"><polygon class="cls-1" points="106.2 353.03 131.24 375.58 131.24 454.58 106.2 432.23 106.2 353.03"/></clipPath><clipPath id="clip-path-6" transform="translate(-41.27 -163.75)"><polygon class="cls-1" points="106.2 456.67 131.44 479.33 131.24 554.27 104.41 530.8 106.2 456.67"/></clipPath><clipPath id="clip-path-7" transform="translate(-41.27 -163.75)"><polygon class="cls-1" points="106.2 555.06 131.44 577.61 131.24 651.36 104.41 629 106.2 555.06"/></clipPath></defs><path class="cls-2" d="M50,602.39l86.58,73.82a17,17,0,0,0,11,4.06H518.38a17,17,0,0,0,17-17V375.76a17,17,0,0,0-5.71-12.7l-80.87-71.8a18.18,18.18,0,0,0-2.29-1.71L248.91,166.33a17,17,0,0,0-18.2.14L64.06,274A46.37,46.37,0,0,0,42.85,312.7L41.27,583.25A25,25,0,0,0,50,602.39Z" transform="translate(-41.27 -163.75)"/><polygon class="cls-3" points="281.23 94.81 107.71 204.82 107.71 499.53 479.34 499.53 479.34 217.34 281.23 94.81"/><polygon class="cls-4" points="111.14 72.89 191.34 20.72 222.34 46.81 141.65 99.43 111.14 72.89"/><polygon class="cls-4" points="153.26 109.56 183.3 135.49 264.02 83.32 236.02 59.37 153.26 109.56"/><polygon class="cls-4" points="94.74 83.03 123.06 108.37 53 154.88 23.19 128.94 94.74 83.03"/><polygon class="cls-4" points="138.37 120.79 167.74 145.53 95.93 192.15 66.42 166.21 138.37 120.79"/><polygon class="cls-4" points="19.61 149.81 47.93 175.35 47.93 254.46 19.61 228.91 19.61 149.81"/><polygon class="cls-4" points="64.93 189.27 89.97 211.83 89.97 290.83 64.93 268.47 64.93 189.27"/><polygon class="cls-4" points="64.93 292.92 90.16 315.58 89.97 390.51 63.14 367.05 64.93 292.92"/><polygon class="cls-4" points="64.93 391.3 90.16 413.86 89.97 487.6 63.14 465.24 64.93 391.3"/><polygon class="cls-4" points="19.61 351.63 47.93 376.99 47.93 449.74 19.61 426.19 19.61 351.63"/><polygon class="cls-4" points="19.61 328.89 19.61 254.19 47.93 279.1 47.93 353.25 19.61 328.89"/><path class="cls-4" d="M60.88,313.57" transform="translate(-41.27 -163.75)"/><ellipse class="cls-5" cx="339.86" cy="507.59" rx="46.67" ry="35.57" transform="translate(-273.3 558.54) rotate(-76.77)"/><g class="cls-6"><path class="cls-7" d="M288.32,526.57s18.41-31.6,52.61-29,58.87,32.9,58.87,32.9L402,439.56l-110-9.09Z" transform="translate(-41.27 -163.75)"/></g><path class="cls-8" d="M228.08,494.7s3.32-24,26.27-24.4,30.73,22.07,30.73,22.07" transform="translate(-41.27 -163.75)"/><path class="cls-8" d="M396.76,491.09s7.92-21.38,30.83-20c23.58,1.43,26.18,23.67,26.18,23.67" transform="translate(-41.27 -163.75)"/><path class="cls-9" d="M184,528.82s-4.47-18,4.47-21.23,12.53,12,12.53,12,9.54-11.93,17.29-6,0,18.18,0,18.18,8.94,5.37,5.36,13.72S208,551.78,208,551.78s-1.75,10.42-7.15,10.43c-7.66,0-9.39-13.41-9.39-13.41s-14.31,8.05-19.08-.9S184,528.82,184,528.82Z" transform="translate(-41.27 -163.75)"/><path class="cls-9" d="M462.62,515.85S465,500.5,476,500.5s10,14,10,14,10.44-5.07,13.12,1.34-7.6,14.91-7.6,14.91,4,12.22-1.79,16.1-12.67-4.47-12.67-4.47-2.38,10.13-12.07,7.9-4-15.61-4-15.61S449.2,533,449.06,524.35,462.62,515.85,462.62,515.85Z" transform="translate(-41.27 -163.75)"/><ellipse class="cls-10" cx="157.13" cy="370.54" rx="7.1" ry="7.3"/><ellipse class="cls-10" cx="433.05" cy="361.8" rx="7.1" ry="7.3"/><g class="cls-11"><path class="cls-12" d="M73.7,426.41S87.42,473.82,81,485.89c0,0-6.71-25.94-21.32-22.06s-4.17,36.67-4.17,36.67L90.7,521.07l3.57-76.92-8.34-10.88Z" transform="translate(-41.27 -163.75)"/><path class="cls-9" d="M79.22,477.84s-9.84,2.39-9.39,9.84,9.39,12.22,9.39,12.22-.92,14.23,7.13,16.49c0,0,6.88,3.34,7.33-12.76s0-27.13,0-27.13,1.49-8.05-6.41-7.6S79.22,477.84,79.22,477.84Z" transform="translate(-41.27 -163.75)"/><ellipse class="cls-10" cx="48.08" cy="328.7" rx="6.26" ry="7.01"/></g><g class="cls-13"><path class="cls-12" d="M80.71,526.29s-9.24,19.08-8.5,40.39c0,0-8-27.72-16.1-28.32s0,60.82,0,60.82l30.41,18.64,5.37-3.43,2.53-43.08s-8.2-1.35-16.25,12.37c0,0,6.56-19.83,15.66-26.68S80.71,526.29,80.71,526.29Z" transform="translate(-41.27 -163.75)"/></g><g class="cls-14"><path class="cls-12" d="M72.51,415.23s-7-33.09,7.15-35.48,16.4,34.74,16.4,34.74L94,426Z" transform="translate(-41.27 -163.75)"/></g><g class="cls-15"><path class="cls-9" d="M139.29,407.93s-20.68-2.24-21.37,10.28,18.24,22.66,18.24,22.66Z" transform="translate(-41.27 -163.75)"/></g><g class="cls-16"><path class="cls-12" d="M108.43,451.75s14,7.68,9.49,24.9a44.91,44.91,0,0,1-21.41,27.72s11.78,10,13.56,19.08-7,18.14-7,18.14l10.28,5.27s-2.83-10.73,2.54-16.7,21.76-6.26,21.76-6.26l-1.79,37.27L96.51,546.26l-3.28-43.08,4.32-45.46,6.86-9.84Z" transform="translate(-41.27 -163.75)"/><path class="cls-9" d="M136,508.85s-18.6-6.26-19.09,4.62c-.35,7.8,6.27,15.65,6.27,15.65s-6.41,15.06.45,18.48,13-9.83,13-9.83Z" transform="translate(-41.27 -163.75)"/><ellipse class="cls-10" cx="92.5" cy="360.82" rx="6.11" ry="8.42"/></g><g class="cls-17"><path class="cls-12" d="M120.66,560.87s5.07,32.35,5.07,58.58c0,0-2.24-10.13-10.14-9.39s-9.39,24.75-9.39,24.75L133,657l2.24-87.5Z" transform="translate(-41.27 -163.75)"/><ellipse class="cls-9" cx="62.81" cy="467.4" rx="13.84" ry="14.98"/></g></svg>