<svg id="Layer_1" data-name="Layer 1" xmlns="http://www.w3.org/2000/svg" viewBox="0 0 584.96 591.58"><defs><clipPath id="clip-path" transform="translate(-3.96 27.27)"><path class="cls-1" d="M31.88 224.76v309.45s-2.05 19.89 13.52 20.35 444.57-.7 444.57-.7 5 .21 13.62-8.79c12.12-12.65 43.11-40.44 43.11-40.44s7.43-6.13 7.37-31c-.07-31 0-272.21 0-272.21l-257.16-177z"/></clipPath><clipPath id="clip-path-2" transform="translate(-3.96 27.27)"><path class="cls-1" d="M151.26 61.36c31.31.45 40-8.37 42.85-28.26 4.46-31-16.3-36.61-30.48-31.82-15.33 5.18-16.54-.18-32.46-.6-14.49-.39-24.4 11.91-24.38 22.21.02 13-2.51 37.79 44.47 38.47z"/></clipPath><style>.cls-1{fill:none}.cls-4{fill:#f39991}.cls-6{fill:#a86b4e}.cls-10{fill:#edbda2}</style></defs><path d="M33.09 226.19v309.44S31 555.52 46.61 556s439.57-.69 439.57-.69 5 .2 13.62-8.79c12.13-12.66 43.11-40.44 43.11-40.44s7.43-6.13 7.38-31c-.08-31 1.32-271.55 1.32-271.55L293.12 25.91z" transform="translate(-3.96 27.27)" fill="#ffe989"/><g clip-path="url(#clip-path)" id="House_Clip" data-name="House Clip"><circle class="cls-4" cx="66.76" cy="497.29" r="66.76"/><circle class="cls-4" cx="438" cy="428.39" r="70.52"/><path id="Shadow" d="m504.06 222.29-2.62 310.83s-.44 27.07-21 31 102.18-53.27 102.18-53.27L584.41 255l3.68-80.65z" transform="translate(-3.96 27.27)" fill="#f0d168"/></g><ellipse class="cls-6" cx="149.36" cy="429.48" rx="19.43" ry="23.14"/><ellipse class="cls-6" cx="342.15" cy="374.02" rx="21.4" ry="24.02"/><path d="M237.78 430.54s34.94 16 36.25-22.46" stroke-linecap="round" stroke-miterlimit="10" stroke="#a86b4e" stroke-width="12" fill="none"/><path d="M151.26 61.36c31.31.45 40-8.37 42.85-28.26 4.46-31-16.3-36.61-30.48-31.82-15.33 5.18-16.54-.18-32.46-.6-14.49-.39-24.4 11.91-24.38 22.21.02 13-2.51 37.79 44.47 38.47z" transform="translate(-3.96 27.27)" fill="#f7d0be"/><g clip-path="url(#clip-path-2)"><path class="cls-10" d="M144.34 13c-1.31.81 5.55-19.75 33.47-18.73s58.21 30.64 37.79 46-27 27.45-30.43 19.28S173.55 53 173.55 53 187 41.13 186.7 24.48c0 0-2.7-31.97-42.36-11.48z" transform="translate(-3.96 27.27)"/><path class="cls-10" d="M147.68 3.87s-27.36-6.13-41.91 10.21C94 27.34 124.53-14.26 124.53-14.26z" transform="translate(-3.96 27.27)"/></g><path d="M182.74-27.27A56.37 56.37 0 0 1 166.49-1c-5.72 5.33-10.43 2.42-20.77 10.21 0 0-7.82-29.13 10.22-31.53 5.74-.75 8.17 2.61 26.8-4.95z" transform="translate(-3.96 27.27)" fill="#92c783"/><path fill="#fdef8f" d="M98.62 77.73h90.21v116.09H98.62z"/><path d="M577.51 251.22 560 265.64l-1.21 1-49.25 40.48a16.08 16.08 0 0 1-3.47 2.19l-1 1.2c-23.58 28.82-69 10-90.39-20.09s-54.15-44.55-79.48-55S282.79 193 278 172.51c-1.86-7.93-9.45-16.77-18.07-24.64l-31-21.4c-4.7 5-25 26.82-56.15 62.2-35.81 40.61-67.25 36.68-95.2 38.43s-32.75 11.79-48.91 21c-10.47 5.94-16.77 5.28-19.91 4.09l-.74.41c-4.47 2.35-4-6.93-4-6.93s0-3.47.37-9.58 5.44-11.11 5.44-11.11 49.32-51.2 54.69-55.67a62.18 62.18 0 0 1 11.87-7.5l215.36-134.2s7.75-5.81 14.9-5.81c4.92 0 11.93 5.81 11.93 5.81l258.93 178c25.66 17.63 0 45.61 0 45.61z" transform="translate(-3.96 27.27)" fill="#fff"/><path d="M463.09 85.44c16.61 11.82 59.12 40.67 17.36 112.77-4.41 7.61-49.79-4-81.19-24.89-20.75-13.8-61.79-53.07-47.49-73.83C372 70.15 421.55 55.91 463.09 85.44z" transform="translate(-3.96 27.27)" fill="#f7ee8c"/><circle cx="432.83" cy="117.31" r="4.6" fill="#fcf3ca"/><path d="M457.34 131.86s18.38 18.39 22.21 40.6" stroke="#fcf3ca" stroke-width="7" stroke-linecap="round" stroke-miterlimit="10" fill="none"/></svg>