<svg id="Layer_1" data-name="Layer 1" xmlns="http://www.w3.org/2000/svg" xmlns:xlink="http://www.w3.org/1999/xlink" viewBox="0 0 584.96 591.58"><defs><style>.cls-1,.cls-16,.cls-7{fill:none;}.cls-2{fill:#ffe989;}.cls-3{clip-path:url(#clip-path);}.cls-4{fill:#f39991;}.cls-5{fill:#f0d168;}.cls-6{fill:#a86b4e;}.cls-7{stroke:#a86b4e;stroke-width:12px;}.cls-16,.cls-7{stroke-linecap:round;stroke-miterlimit:10;}.cls-8{fill:#f7d0be;}.cls-9{clip-path:url(#clip-path-2);}.cls-10{fill:#edbda2;}.cls-11{fill:#92c783;}.cls-12{fill:#fdef8f;}.cls-13{fill:#fff;}.cls-14{fill:#f7ee8c;}.cls-15{fill:#fcf3ca;}.cls-16{stroke:#fcf3ca;stroke-width:7px;}</style><clipPath id="clip-path" transform="translate(-3.96 27.27)"><path class="cls-1" d="M31.88,224.76V534.21S29.83,554.1,45.4,554.56s444.57-.7,444.57-.7,5,.21,13.62-8.79c12.12-12.65,43.11-40.44,43.11-40.44s7.43-6.13,7.37-31c-.07-31,0-272.21,0-272.21l-257.16-177Z"/></clipPath><clipPath id="clip-path-2" transform="translate(-3.96 27.27)"><path class="cls-1" d="M151.26,61.36c31.31.45,40-8.37,42.85-28.26,4.46-31-16.3-36.61-30.48-31.82-15.33,5.18-16.54-.18-32.46-.6-14.49-.39-24.4,11.91-24.38,22.21C106.81,35.89,104.28,60.68,151.26,61.36Z"/></clipPath></defs><path class="cls-2" d="M33.09,226.19V535.63S31,555.52,46.61,556s439.57-.69,439.57-.69,5,.2,13.62-8.79c12.13-12.66,43.11-40.44,43.11-40.44s7.43-6.13,7.38-31c-.08-31,1.32-271.55,1.32-271.55L293.12,25.91Z" transform="translate(-3.96 27.27)"/><g id="House_Clip" data-name="House Clip"><g class="cls-3"><circle class="cls-4" cx="66.76" cy="497.29" r="66.76"/><circle class="cls-4" cx="438" cy="428.39" r="70.52"/><path id="Shadow" class="cls-5" d="M504.06,222.29l-2.62,310.83s-.44,27.07-21,31,102.18-53.27,102.18-53.27L584.41,255l3.68-80.65Z" transform="translate(-3.96 27.27)"/></g></g><ellipse class="cls-6" cx="149.36" cy="429.48" rx="19.43" ry="23.14"/><ellipse class="cls-6" cx="342.15" cy="374.02" rx="21.4" ry="24.02"/><path class="cls-7" d="M241.74,403.27s34.94,16,36.25-22.46" transform="translate(-3.96 27.27)"/><path class="cls-8" d="M151.26,61.36c31.31.45,40-8.37,42.85-28.26,4.46-31-16.3-36.61-30.48-31.82-15.33,5.18-16.54-.18-32.46-.6-14.49-.39-24.4,11.91-24.38,22.21C106.81,35.89,104.28,60.68,151.26,61.36Z" transform="translate(-3.96 27.27)"/><g class="cls-9"><path class="cls-10" d="M144.34,13c-1.31.81,5.55-19.75,33.47-18.73s58.21,30.64,37.79,46-27,27.45-30.43,19.28S173.55,53,173.55,53,187,41.13,186.7,24.48C186.7,24.48,184-7.49,144.34,13Z" transform="translate(-3.96 27.27)"/><path class="cls-10" d="M147.68,3.87s-27.36-6.13-41.91,10.21C94,27.34,124.53-14.26,124.53-14.26Z" transform="translate(-3.96 27.27)"/></g><path class="cls-11" d="M182.74-27.27A56.37,56.37,0,0,1,166.49-1c-5.72,5.33-10.43,2.42-20.77,10.21,0,0-7.82-29.13,10.22-31.53C161.68-23.07,164.11-19.71,182.74-27.27Z" transform="translate(-3.96 27.27)"/><rect class="cls-12" x="98.62" y="77.73" width="90.21" height="116.09"/><path class="cls-13" d="M577.51,251.22,560,265.64l-1.21,1-49.25,40.48a16.08,16.08,0,0,1-3.47,2.19h0l-1,1.2c-23.58,28.82-69,10-90.39-20.09s-54.15-44.55-79.48-55S282.79,193,278,172.51c-1.86-7.93-9.45-16.77-18.07-24.64l-31-21.4c-4.7,5-25,26.82-56.15,62.2-35.81,40.61-67.25,36.68-95.2,38.43s-32.75,11.79-48.91,21c-10.47,5.94-16.77,5.28-19.91,4.09l-.74.41c-4.47,2.35-4-6.93-4-6.93s0-3.47.37-9.58,5.44-11.11,5.44-11.11,49.32-51.2,54.69-55.67a62.18,62.18,0,0,1,11.87-7.5L291.75,27.61s7.75-5.81,14.9-5.81c4.92,0,11.93,5.81,11.93,5.81l258.93,178C603.17,223.24,577.51,251.22,577.51,251.22Z" transform="translate(-3.96 27.27)"/><path class="cls-14" d="M463.09,85.44c16.61,11.82,59.12,40.67,17.36,112.77-4.41,7.61-49.79-4-81.19-24.89-20.75-13.8-61.79-53.07-47.49-73.83C372,70.15,421.55,55.91,463.09,85.44Z" transform="translate(-3.96 27.27)"/><circle class="cls-15" cx="432.83" cy="117.31" r="4.6"/><path class="cls-16" d="M461.3,104.59s18.38,18.39,22.21,40.6" transform="translate(-3.96 27.27)"/></svg>