<svg id="Layer_1" data-name="Layer 1" xmlns="http://www.w3.org/2000/svg" viewBox="0 0 256.82 264.91"><defs><clipPath id="clip-path" transform="translate(-168.94 -289.07)"><path d="M363.22 290.93c-1.27-2.11-3.65-2.23-5.79-1.34s-18.15 11.66-18.86 14.51 4.36 6.14 4.36 6.14l27.23-.35a3.85 3.85 0 0 0 2.4-5.43c-1.69-4.19-8.56-12.2-9.34-13.53Z" style="fill:none"/></clipPath><style>.cls-2{fill:#efc17b}.cls-3{fill:#fdd597}.cls-4{fill:#a98274}.cls-6{fill:#feeb98}.cls-7{fill:#f2dd7d}</style></defs><path class="cls-2" d="M420.36 370.68s3.94 54.88 2.91 108.06c-.58 29.91-.29 32.83-2.34 34.88s-63.37 24.89-63.37 24.89l-1.14-152.95Z" transform="translate(-168.94 -289.07)"/><path class="cls-3" d="M177.07 395.47s.68 132.68.68 136.1 1.37 8.21 7.69 8.21 161.88.59 170.12-.86 9.92-4.27 9.92-9.74-1.37-132.85-1.37-132.85l-86.85-72.84Z" transform="translate(-168.94 -289.07)"/><path class="cls-4" d="M298 447c-4.61.68-8.84 7.46-4.42 14.38 3.75 5.85 14.45 2.29 13.39-5.28-.97-6.75-5.77-9.54-8.97-9.1ZM228.2 449c4.61.68 8.84 7.47 4.42 14.38-3.74 5.85-14.44 2.29-13.38-5.28.95-6.8 5.76-9.59 8.96-9.1ZM272.74 475.71c-5 0-8.87-2.73-11.18-4.9-2.59 2.3-6.88 5.23-11.16 4.18a10.35 10.35 0 0 1-7.92-12.41 3 3 0 0 1 5.88 1.21 4.29 4.29 0 0 0 3.47 5.37c1.93.47 5.62-2.4 7.55-4.65a3 3 0 0 1 4.73.21s4.26 5.79 9.89 4.88a4.42 4.42 0 0 0 3.32-1.84 4.8 4.8 0 0 0 .4-3.66 3 3 0 0 1 5.72-1.81 10.72 10.72 0 0 1-1 8.62 10.24 10.24 0 0 1-7.48 4.62 14.2 14.2 0 0 1-2.22.18ZM318.6 459.12c-.07-2.44 11.41-3 17.39-3.12s17.78 2 19 4.62c0 0-5.71 2.35-18.47 2.56-8.82.15-17.78.42-17.92-4.06ZM316.52 467.9c1-2.26 11.62 2 17.11 4.38S349 481.54 349 484.39c0 0-6.17-.23-17.87-5.35-8.13-3.53-16.35-7.04-14.61-11.14ZM210.3 464.27c.25-2.44-11.82-3.73-18.11-4.26s-18.9.87-20.37 3.36c0 0 5.85 2.72 19.3 3.77 9.3.73 18.73 1.59 19.18-2.87ZM211.89 473.16c-.84-2.31-12.39 1.26-18.34 3.26s-16.81 8.22-17.05 11.07c0 0 6.52.17 19.21-4.17 8.78-3 17.73-5.93 16.18-10.16Z" transform="translate(-168.94 -289.07)"/><path d="M261 451.52c-5.14.45-10.59 2.72-8.55 6.79s5.29 6.84 9 6.84 8.82-4.13 9.77-8.61-8.14-5.2-10.22-5.02Z" transform="translate(-168.94 -289.07)" style="fill:#f6b3b6"/><path class="cls-4" d="M276.53 330.68s76.29 68.32 80.16 70.74 5.55 4.34 10.86 1.45 51.18-26.8 53.6-28.25 7.53-5.55 2.44-9.66-72.22-68.08-75.35-70.5-10.63-4.83-19.56.49-50 22.45-56.74 25.35-97 68.61-100.67 71.94c-4.83 4.35-1.66 10.83 5.1 8.18s100.16-69.74 100.16-69.74Z" transform="translate(-168.94 -289.07)"/><path class="cls-6" d="M363.22 290.93c-1.27-2.11-3.65-2.23-5.79-1.34s-18.15 11.66-18.86 14.51 4.36 6.14 4.36 6.14l27.23-.35a3.85 3.85 0 0 0 2.4-5.43c-1.69-4.19-8.56-12.2-9.34-13.53Z" transform="translate(-168.94 -289.07)"/><ellipse class="cls-7" cx="195.01" cy="8.84" rx="3.75" ry="3.52"/><ellipse class="cls-7" cx="350.73" cy="305.32" rx="3.52" ry="4.47" transform="rotate(-88.52 117.937 247.464)"/><ellipse class="cls-7" cx="349.58" cy="293.13" rx="3.52" ry="4.47" transform="rotate(-88.52 116.797 235.279)" style="clip-path:url(#clip-path)"/><path class="cls-2" d="M375.46 314.56c0-2.43-.19-7.67-3.51-7.91s-14.39-.91-14.39-.91l3 55.08s14.1-9.11 15.63-10.37-.73-35.89-.73-35.89Z" transform="translate(-168.94 -289.07)"/><path class="cls-3" d="M338 305.53c1.71 0 16.55.09 18.44 0s5.13.27 5.13 5.94c0 6.38.45 47.67.45 47.67s-1.89 3.42-3.69 3.51-24.38-24.2-24.38-24.2.36-27.79.36-29.41a3.43 3.43 0 0 1 3.69-3.51Z" transform="translate(-168.94 -289.07)"/><path d="M295 513.38s-10.22-6.71-19.74-1.72c-9 4.72-8.15 14.59-8.15 14.59s-12.37-1.66-16.36 9.65c-3.86 10.94 4.56 17 9.93 17.59s59.63 0 63.28 0 12.44-5.79 9.87-15.66-10.94-11.15-10.94-11.15a18.16 18.16 0 0 0-10.08-15.45 16.38 16.38 0 0 0-17.81 2.15Z" transform="translate(-168.94 -289.07)" style="fill:#ee8770"/><path class="cls-6" d="M292.53 528.49s6.33-4.23 12.22-1.09c5.58 3 5.05 9.21 5.05 9.21s7.66-1.05 10.14 6.09c2.39 6.9-2.83 10.69-6.15 11.1s-36.93 0-39.19 0-7.7-3.66-6.11-9.88 6.77-7 6.77-7a11.49 11.49 0 0 1 6.25-9.75 10 10 0 0 1 11.02 1.32Z" transform="translate(-168.94 -289.07)"/></svg>