<svg id="Layer_1" data-name="Layer 1" xmlns="http://www.w3.org/2000/svg" xmlns:xlink="http://www.w3.org/1999/xlink" viewBox="0 0 87.32 92.38"><defs><style>.cls-1,.cls-8{fill:none;}.cls-2{fill:#e7e2e8;}.cls-3{clip-path:url(#clip-path);}.cls-4{fill:#cdcbd0;}.cls-5{fill:#951224;}.cls-6{fill:#fdfffc;}.cls-7{fill:#f77178;}.cls-8{stroke:#951224;stroke-linecap:round;stroke-miterlimit:10;}</style><clipPath id="clip-path" transform="translate(-917.91 -493.87)"><path class="cls-1" d="M919.32,533.28V580.7a3.38,3.38,0,0,0,3.38,3.39h69.39a3.82,3.82,0,0,0,2.92-1.37l5.42-6.53a4.19,4.19,0,0,0,1-2.69V518.21l-41-16.08Z"/></clipPath></defs><path class="cls-2" d="M919.32,533.28V580.7a3.38,3.38,0,0,0,3.38,3.39h69.39a3.82,3.82,0,0,0,2.92-1.37l5.42-6.53a4.19,4.19,0,0,0,1-2.69V518.21l-41-16.08Z" transform="translate(-917.91 -493.87)"/><g class="cls-3"><rect class="cls-4" x="75.96" y="15.15" width="11.36" height="77.23"/></g><path class="cls-5" d="M965.07,494.64l-38.38,27.79a14.14,14.14,0,0,0-2.88,2.69l-5.34,6.57a2,2,0,0,0-.56,1.49v3.21a1.06,1.06,0,0,0,1.69.85l38.53-29.5L992.2,530a3.1,3.1,0,0,0,3.92-.54l8.52-10.32a2.24,2.24,0,0,0-.49-3.3l-33.22-21.27A6.26,6.26,0,0,0,965.07,494.64Z" transform="translate(-917.91 -493.87)"/><ellipse class="cls-6" cx="9.85" cy="80.12" rx="6.56" ry="6.33"/><ellipse class="cls-7" cx="21.63" cy="71.98" rx="6.29" ry="6.18"/><ellipse class="cls-7" cx="51.67" cy="72.05" rx="6.48" ry="6.18"/><ellipse class="cls-6" cx="63.21" cy="80.04" rx="6.34" ry="6.1"/><circle class="cls-5" cx="51.49" cy="72.05" r="2.43"/><circle class="cls-5" cx="21.72" cy="71.87" r="2.43"/><path class="cls-5" d="M937.48,551.12c1.36-1.7,5.66.22,8.35,2.36s4.67,3.61,3.49,5.07c-1.46,1.81-5-.19-7.72-1.78S936.07,552.87,937.48,551.12Z" transform="translate(-917.91 -493.87)"/><path class="cls-5" d="M971.09,550.5c2.26,2.24-1,4.19-3.42,6s-6.3,3.82-7.85,1.79c-1.37-1.82,2.52-4.66,4.59-5.81S969.93,549.35,971.09,550.5Z" transform="translate(-917.91 -493.87)"/><path class="cls-8" d="M947.31,570.68s.7,1.31,3.13,1.15,2.52-1.66,3.83-1.63,1.3,1.53,3.47,1.5a3.26,3.26,0,0,0,2.88-1.27" transform="translate(-917.91 -493.87)"/></svg>