<svg id="Layer_1" data-name="Layer 1" xmlns="http://www.w3.org/2000/svg" viewBox="0 0 421.94 441.41"><defs><clipPath id="clip-path" transform="translate(-452.95 -371.44)"><path d="M462.81 536.09v244.08a11.74 11.74 0 0 0 11.74 11.74h297.91a33.65 33.65 0 0 0 25.16-11.29l33.72-37.89a22.8 22.8 0 0 0 5.77-15.15V509l-214.47-88.32z" fill="none"/></clipPath><style>.cls-10{fill:#3d8d99}</style></defs><path d="M462.81 536.09v244.08a11.74 11.74 0 0 0 11.74 11.74h297.91a33.65 33.65 0 0 0 25.16-11.29l33.72-37.89a22.8 22.8 0 0 0 5.77-15.15V509l-214.47-88.32z" transform="translate(-452.95 -371.44)" fill="#b1ebf5"/><g clip-path="url(#clip-path)"><path d="M791.66 543.74V776.6a20.54 20.54 0 0 1-1.95 8.75l-12.86 27.5 98-60.76-11.23-264z" transform="translate(-452.95 -371.44)" fill="#8fd5e7"/></g><path d="m677.14 373.1-171.47 110a59.79 59.79 0 0 0-11.08 9.17L454.12 538a4.25 4.25 0 0 0-1.09 3.73l1 5.18a4.26 4.26 0 0 0 6.35 2.87l169.15-103.3 152.94 115.57a11.2 11.2 0 0 0 14.46-1l52.89-54.35A7.83 7.83 0 0 0 849 495L689.33 373.59a10.75 10.75 0 0 0-12.19-.49z" transform="translate(-452.95 -371.44)" fill="#dcf4fc"/><path d="M498.55 669.87c4.87 1.49 22.47-.37 26.64-15.49 2-7.4-3.31-12.44-8-13.7-5.7-1.53-13.28 3.15-13.28 3.15s-2.46-7.22-10.12-7.74c-6.22-.43-9.28 4-10.05 9-1.27 8.37 2.26 20.91 14.81 24.78zm251.78 0c-4.86 1.49-22.47-.37-26.64-15.49-2-7.4 3.31-12.44 8-13.7 5.71-1.53 13.28 3.15 13.28 3.15s2.47-7.22 10.13-7.74c6.21-.43 9.27 4 10 9 1.32 8.37-2.26 20.91-14.77 24.78zm-160.88 18.05c.68.34-3.07 59.4 34.38 59.4 24.68 0 22.81-25 22.64-34.21s2.72-27.58 8-28.09l-31.32-9.36z" transform="translate(-452.95 -371.44)" style="fill:#f59288"/><path d="M167.14 306.56s-4.26 27.75-1.37 42.9" stroke-linecap="round" stroke-miterlimit="10" stroke="#f3756b" stroke-width="12" fill="none"/><path d="M133.43 263.77s-6.51 9.64-24.89 12.64c-16.16 2.64-16.34 8-16.21 11.81.3 9 15.83 30.38 38 28.08s28.21-13.78 41.74-13 16.73 9.19 32.05 8.43 29.36-15.58 29.36-26.3" stroke-width="8" stroke="#3d8d99" stroke-linecap="round" stroke-miterlimit="10" fill="none"/><path d="m114.47 293.01 7.15 5.23m77.36-.25 10.09-10.28" style="stroke-linecap:round;stroke-miterlimit:10;stroke:#3d8d99;stroke-width:7px;fill:none"/><circle class="cls-10" cx="81.17" cy="254.01" r="14.13"/><circle class="cls-10" cx="256.16" cy="254.01" r="14.13"/></svg>