<svg id="Layer_1" data-name="Layer 1" xmlns="http://www.w3.org/2000/svg" viewBox="0 0 200.73 208.8"><defs><style>.cls-3{fill:#ebf0f4}.cls-5{fill:#3d437f}.cls-6{fill:#f4a497}</style></defs><path d="M354.11 318.24c-4.7-.39-11.62 2.95-12.4 9.93a11.73 11.73 0 0 0 4.5 10.93 3.88 3.88 0 0 1 1.48 3.13l-.15 8.34c3.52-1.46 8.88-4.17 12.08-6v-2.46a4.24 4.24 0 0 1 1.44-3.13 11.4 11.4 0 0 0 3.95-8.37c.13-5.67-3.34-11.74-10.9-12.37Z" transform="translate(-197.58 -317.38)" style="fill:#f0827b"/><path d="m347.54 349.75-.37 21.08L359.4 379l.22-35.22a102 102 0 0 1-12.08 5.97Z" transform="translate(-197.58 -317.38)" style="fill:#ffe3ba"/><path class="cls-3" d="M201.28 377.48s-.49 121.63-.49 123.37a9.55 9.55 0 0 0 2.23 6.2c1.74 2 19.33 17.89 19.33 17.89l4-8-1.08-125Z" transform="translate(-197.58 -317.38)"/><path d="M219.64 400.36s0 118.1.5 120.58 1.74 4.72 4.71 4.72 164.09 1 166.65.24 3.55-2.73 3.3-5.45.5-99.74.5-99.74l-89.57-77.15Z" transform="translate(-197.58 -317.38)" style="fill:#fff"/><path class="cls-5" d="M306.31 352.86a3 3 0 0 1 3.66.2c11.93 10 80.6 67.55 83.09 69.14 2.73 1.73 6.23 2 5-2.24s-24.83-29.3-27.81-32.63-79-65.78-80.75-67.6c-3.29-3.47-5.84-2.48-8.07-1s-78.15 51.95-80.63 53.78-5 4.52-1.49 8.25c2.28 2.44 16.2 20.64 18.36 22.62s5.88 3.93 10.91.95c4.55-2.68 66.05-43.68 77.73-51.47ZM276.22 445.53c-10.67 0-15.61-11-15.82-11.43a2.5 2.5 0 0 1 4.58-2c.06.12 3.88 8.44 11.24 8.44h.09c7.58-.06 10.18-7.23 10.29-7.54a2.5 2.5 0 0 1 4.73 1.62c-.15.44-3.8 10.83-15 10.92ZM339.64 445.53c10.67 0 15.61-11 15.81-11.43a2.5 2.5 0 1 0-4.57-2c-.06.12-3.88 8.44-11.25 8.44h-.08c-7.59-.06-10.19-7.23-10.29-7.54a2.5 2.5 0 0 0-4.74 1.62c.15.44 3.81 10.83 15 10.92ZM309.45 451.48c-4.58 0-8.5-4.05-8.95-4.53a2.5 2.5 0 0 1 3.64-3.42c.78.82 3.47 3.13 5.55 2.94s3.48-3.13 3.49-3.16a2.5 2.5 0 0 1 4.63 1.91c-.1.23-2.4 5.74-7.65 6.23Z" transform="translate(-197.58 -317.38)"/><path class="cls-6" d="M302.68 435.08c-.53 6 11.4 4.59 11.57-.18s-11-6.37-11.57.18ZM247.17 437c-14-.13-20.07 11.05-19.54 22.1.38 7.77 7.61 15.94 17.59 16.35 12.91.53 20-8.92 20.6-17.59.77-10.86-9.02-20.75-18.65-20.86ZM372.51 475.89c13.73-2.6 17.53-14.75 14.85-25.49-1.88-7.54-10.57-14.15-20.44-12.6-12.76 2-17.85 12.65-16.77 21.26 1.36 10.82 12.9 18.62 22.36 16.83Z" transform="translate(-197.58 -317.38)"/><path class="cls-3" d="M282.65 327.59s.46-3.18 1.27-3.18 1.57 3 1.57 3 2.2.12 2.2 1-2.2 1.57-2.2 1.57-.23 2.66-1.39 2.84-1.63-2.72-1.63-2.72-2.73-.19-2.85-1.58c-.06-.82 3.03-.93 3.03-.93ZM287.17 338.72c-.77-.91-3.26 1.32-2.49 2.32 1.16 1.5 4.69.29 2.49-2.32ZM338.53 369.15c-.77-.91-3.25 1.32-2.49 2.32 1.16 1.53 4.7.29 2.49-2.32ZM300 341.56c-1.79 0-4.4 4.17 0 4s2.59-3.98 0-4ZM271.63 333.2c-.93-.29-3 .85-2.19 3.8s5.1-2.88 2.19-3.8ZM279.29 352.05c-1.3-.34-2.55 2.2-.47 2.55s1.8-2.21.47-2.55ZM380 403.07c-1.3-.34-2.55 2.2-.46 2.55s1.75-2.2.46-2.55ZM244.23 351.82c-1.3-1.11-3.68 1.95-1.92 3.44s3.28-2.26 1.92-3.44ZM361.7 385.66c-1.17-2.09-6.11-.53-4.5 2.27s5.73-.08 4.5-2.27ZM243.11 382.66c-.29-1.21-3-.34-2.6 1.29s2.91-.01 2.6-1.29ZM243.21 368.56c-.54-.85-3.09.93-1.53 2.38s2.42-.94 1.53-2.38ZM265.84 367.92c-1.2-1.17-2.72 2.55-1.39 2.78s3.31-.92 1.39-2.78ZM349.47 374.67c-1.21-1.17-2.72 2.55-1.39 2.78s3.3-.92 1.39-2.78ZM254.31 373c-.84 0-2.49 3.07-.23 3.13s1.68-3.13.23-3.13ZM326.92 357.15c-1.33.12-1.16 1.91 0 2.26s1.91-2.41 0-2.26ZM226.38 368.11c-2.42 1.28.8 5.71 3.42 4 2.04-1.25-.93-5.32-3.42-4ZM256.63 353.31s0-4.68.87-4.74 2.09 4.29 2.09 4.29 2.84 0 3.13 1-3.42 2.09-3.42 2.09.34 3.3-.47 3.65-1.91-3.48-1.91-3.48-3.36-.29-3.48-1.27 3.19-1.54 3.19-1.54ZM224.24 382.64c-1.21.17-.41 5.1-.41 5.1s-2.54.06-2.43 1.1 3.36 1 3.36 1 .58 3.88 1.74 3.88.38-4.47.38-4.47 3.21-1.56 3.27-2.6-3.94-.18-3.94-.18-.75-4-1.97-3.83Z" transform="translate(-197.58 -317.38)"/></svg>