<svg id="Layer_1" data-name="Layer 1" xmlns="http://www.w3.org/2000/svg" xmlns:xlink="http://www.w3.org/1999/xlink" viewBox="0 0 1821.66 1691.37"><defs><style>.cls-1,.cls-8{fill:none;}.cls-2{fill:#f2ce96;}.cls-3{clip-path:url(#clip-path);}.cls-4{fill:#fde7c1;}.cls-5{fill:#e3be80;}.cls-6{fill:#bb9559;}.cls-7{fill:#a37f43;}.cls-8{stroke:#fcfefc;stroke-linecap:round;stroke-miterlimit:10;stroke-width:40px;}.cls-9{fill:#f4cd64;}</style><clipPath id="clip-path" transform="translate(-11.19 260.14)"><path class="cls-1" d="M188.6,246.55v843.17a96.74,96.74,0,0,0,32.29,72.15l170.2,152A106.65,106.65,0,0,0,462.15,1341h1232a36.59,36.59,0,0,0,36.58-36.59V363L1050.55-117Z"/></clipPath></defs><path class="cls-2" d="M188.6,246.55v843.17a96.74,96.74,0,0,0,32.29,72.15l170.2,152A106.65,106.65,0,0,0,462.15,1341h1232a36.59,36.59,0,0,0,36.58-36.59V363L1050.55-117Z" transform="translate(-11.19 260.14)"/><g class="cls-3"><path class="cls-4" d="M296.85,845s132.77-373.79,431-373.79,388.08,202.22,388.08,202.22,114.39-208.34,363.58-202.22,332.94,186.83,332.94,186.83l20.42,773.17L315.23,1390.38Z" transform="translate(-11.19 260.14)"/><path class="cls-5" d="M427.85,1390.38H11.19V95.4H378.85V1188.2a410.18,410.18,0,0,0,18.4,121.49Z" transform="translate(-11.19 260.14)"/></g><path class="cls-6" d="M898.25-252.88,179.55,222.41a23.9,23.9,0,0,0-2.84,37.6L375.78,439.09a35.38,35.38,0,0,0,42.57,3.22L1134.3-27.15l600,413.07a10.25,10.25,0,0,0,14.87-3.61l7.11-13.33a10.25,10.25,0,0,0-2.28-12.53L1534.72,157a393.46,393.46,0,0,0-41.16-32.68l-546.24-377A44.44,44.44,0,0,0,898.25-252.88Z" transform="translate(-11.19 260.14)"/><circle class="cls-7" cx="738.77" cy="913.8" r="125.23"/><circle class="cls-7" cx="1457.23" cy="913.8" r="125.23"/><path class="cls-8" d="M721.19,579.23S704.34,582.55,690,608.6" transform="translate(-11.19 260.14)"/><path class="cls-8" d="M1435.33,579.23s-16.85,3.32-31.15,29.37" transform="translate(-11.19 260.14)"/><path class="cls-9" d="M1124.6,643.79c-68.94,0-112.83,33.51-111.83,87.47C1013.85,790,1057.7,893,1124.6,893c72.51,0,117.52-128.73,118-173.57C1243,671.45,1193.53,643.79,1124.6,643.79Z" transform="translate(-11.19 260.14)"/><path class="cls-5" d="M1103.91,293v8.68l30.9,31.41a14.58,14.58,0,0,0,14.81-2.3c7.15-5.87,2.81-13.79,2.81-13.79l-31.15-32.93h-8.43A8.94,8.94,0,0,0,1103.91,293Z" transform="translate(-11.19 260.14)"/><path class="cls-5" d="M1228.77,284.09s-11.24-3.58-16.34,3.06-1.54,14.81-1.54,14.81l25.28,24.76s10.72,3.83,18.89-3.06,0-14.53,0-14.53Z" transform="translate(-11.19 260.14)"/><path class="cls-5" d="M1213.45,204.43c-10.52,7.67-3.77,15.06-3.77,15.06L1240,255.23s16.6,7.15,23,2.3,0-21.44,0-21.44l-30.89-32.94A17.29,17.29,0,0,0,1213.45,204.43Z" transform="translate(-11.19 260.14)"/><path class="cls-2" d="M554.89,1073.45l-17.7,8.51s-1.7,50.38,23.15,53.44S572.6,1077.87,554.89,1073.45Z" transform="translate(-11.19 260.14)"/><path class="cls-2" d="M634.21,1120.77c8.51-3.41,21.11,7.49,24.51,19.06s8.51,29.62-4.42,35.4-22.13-15.61-26.21-27.55S625.7,1124.17,634.21,1120.77Z" transform="translate(-11.19 260.14)"/><path class="cls-2" d="M982.47,1198s-3.41,16.34,9.87,35.41,16,19.06,26.55,14,5.45-16-4.76-31S992,1192.94,982.47,1198Z" transform="translate(-11.19 260.14)"/><path class="cls-2" d="M1074,1231.06c10.22-4.08,12.6,16.34,19.07,19.23s11.91,23.33,3.74,27.41-19.74,7.49-24.85-1.7-11.57-23.15-9.19-34.72S1074,1231.06,1074,1231.06Z" transform="translate(-11.19 260.14)"/><path class="cls-2" d="M1124.77,1130.64c-4.09,2-4.77,26.21,5.44,44.25s11.92,14,20.09,12.26,6.13-21.45,0-34.72S1128.85,1128.6,1124.77,1130.64Z" transform="translate(-11.19 260.14)"/><path class="cls-2" d="M1444.26,1103.15c11.91-1.17,13.27,18.89,14,26.81s5.36,30.13-10.21,31.91-16.86-24.76-17.37-32.17S1431.23,1104.43,1444.26,1103.15Z" transform="translate(-11.19 260.14)"/><path class="cls-2" d="M1502.21,1029.36c8.73-1.82,16.09,8.17,17.88,19.41s9.44,38.8-3.32,40.85-27.83-19.55-27.58-30.46S1490,1031.91,1502.21,1029.36Z" transform="translate(-11.19 260.14)"/><path class="cls-2" d="M1572.17,1055.4c13.31-.19,11,34.22,10.21,42.13s-1.78,29.36-12,28.34-18.25-22.64-16.59-37.78C1555.57,1071.74,1554.81,1055.66,1572.17,1055.4Z" transform="translate(-11.19 260.14)"/></svg>