<svg id="Layer_1" data-name="Layer 1" xmlns="http://www.w3.org/2000/svg" viewBox="0 0 346.9 302.7"><defs><style>.cls-1{fill:#cbeef8;}.cls-2{fill:#aedeeb;}</style></defs><path class="cls-1" d="M926,396.59c-58.19,16.81-87.31,52-92.92,88.53s1.87,44.84-6.94,65.39-37.9,40.84-40.3,75c-1.74,24.77,21.62,60.26,84.61,64.53s98.49-12.75,120.11-32.23,29-46.81,55.9-75.64c16.25-17.37,89.3-31.66,84-85.84s-57.12-85.41-90.75-96.09S960.72,386.55,926,396.59Z" transform="translate(-783.78 -388.99)"/><path class="cls-2" d="M880.29,604.3a8.28,8.28,0,0,1-3.07,2.65,11.11,11.11,0,0,1-4,1.15,10.59,10.59,0,0,1-4.18-.37,11.4,11.4,0,0,1-3.85-2l1.55-.1a14.64,14.64,0,0,1-4.38,3.55,12.61,12.61,0,0,1-5.57,1.47,14.41,14.41,0,0,1-5.7-1.15,17.46,17.46,0,0,1-2.57-1.35,14.05,14.05,0,0,1-1.19-.83,10.44,10.44,0,0,1-1.18-1l2.95.07c-.28.28-.44.42-.65.6a6.38,6.38,0,0,1-.6.46,12.09,12.09,0,0,1-1.25.81,14.88,14.88,0,0,1-2.71,1.12,15.17,15.17,0,0,1-5.67.47,17.65,17.65,0,0,1-5.31-1.44,8.83,8.83,0,0,1-2.36-1.57,3.3,3.3,0,0,1-1.18-2.62h.4a3,3,0,0,0,1.63,1.41,9.6,9.6,0,0,0,2.21.59,23.88,23.88,0,0,0,4.69.18,15.82,15.82,0,0,0,4.33-.91,18.31,18.31,0,0,0,2-.89c.3-.18.61-.34.9-.54l.41-.29.32-.23.37-.27a1.87,1.87,0,0,1,2.57.34c.15.19.46.5.71.75s.55.5.84.75a11.14,11.14,0,0,0,1.87,1.26,10.08,10.08,0,0,0,4.25,1.27,9.83,9.83,0,0,0,4.4-.81,12.55,12.55,0,0,0,3.87-2.56l.08-.08a1.06,1.06,0,0,1,1.46,0,10.3,10.3,0,0,0,3,1.88,8.88,8.88,0,0,0,3.54.7,9.89,9.89,0,0,0,3.65-.64,7.81,7.81,0,0,0,3.11-2.07Z" transform="translate(-783.78 -388.99)"/><path class="cls-2" d="M879.39,522.38a10.33,10.33,0,0,0,3.82,1.8,12.81,12.81,0,0,0,4.13.29,11.77,11.77,0,0,0,3.87-1,10.48,10.48,0,0,0,1.7-1,7.38,7.38,0,0,0,.77-.58,5.87,5.87,0,0,0,.61-.59l2.62.35s.09.1.17.16a3,3,0,0,0,.26.22,4.12,4.12,0,0,0,.6.39,6.73,6.73,0,0,0,1.37.54,14.34,14.34,0,0,0,3.1.51,18.41,18.41,0,0,0,3.48,0,11.3,11.3,0,0,0,3.57-1.05l.33.23a6.5,6.5,0,0,1-2.93,3.36,10.61,10.61,0,0,1-4.3,1.42,8.83,8.83,0,0,1-4.71-.63,8.61,8.61,0,0,1-2.12-1.36,8.51,8.51,0,0,1-.89-.91c-.14-.16-.28-.34-.41-.52s-.23-.33-.41-.65l2.62.35a10.19,10.19,0,0,1-1.11.81c-.35.22-.72.43-1.09.62a14,14,0,0,1-2.29.92,13.57,13.57,0,0,1-4.81.5,13.87,13.87,0,0,1-4.55-1.16,10,10,0,0,1-3.7-2.73Z" transform="translate(-783.78 -388.99)"/><path class="cls-2" d="M935.61,570.63a13.57,13.57,0,0,0,4.24,1.07,14.44,14.44,0,0,0,4.31-.26,11.67,11.67,0,0,0,3.82-1.7,19.5,19.5,0,0,0,3.28-2.67,1.2,1.2,0,0,1,1.52-.14l.13.09a12,12,0,0,0,1.75,1,14.76,14.76,0,0,0,2,.74,14.12,14.12,0,0,0,4.06.61,12.55,12.55,0,0,0,4-.66,14.65,14.65,0,0,0,1.82-.78c.29-.14.56-.31.84-.46A6.26,6.26,0,0,0,968,567l2.77.22s.13.12.22.19l.32.25c.23.17.47.32.71.48a11.63,11.63,0,0,0,1.56.84,14.15,14.15,0,0,0,3.55,1,9.08,9.08,0,0,0,1.79.12,10.37,10.37,0,0,0,1.87-.26,16,16,0,0,0,3.82-1.49l.29.28a10.12,10.12,0,0,1-3.27,3.17,9.3,9.3,0,0,1-2.19,1,8.91,8.91,0,0,1-2.44.41,13.29,13.29,0,0,1-4.78-.57,12,12,0,0,1-2.28-1,10.9,10.9,0,0,1-1.08-.68,8.75,8.75,0,0,1-1.09-.92l2.76.21a11.42,11.42,0,0,1-2.44,1.29,13.55,13.55,0,0,1-2.48.73,17.38,17.38,0,0,1-5.08.28,17.79,17.79,0,0,1-4.85-1.15,15.43,15.43,0,0,1-4.34-2.53l1.65,0a22.78,22.78,0,0,1-4,2.64,13.66,13.66,0,0,1-4.59,1.43,15.67,15.67,0,0,1-4.69-.26,13.33,13.33,0,0,1-4.3-1.7Z" transform="translate(-783.78 -388.99)"/><path class="cls-2" d="M931.7,638.2a10.78,10.78,0,0,0,2.83,1.25,6.64,6.64,0,0,0,1.44.23,6.74,6.74,0,0,0,1.4-.12,9.12,9.12,0,0,0,2.72-.87,7.89,7.89,0,0,0,1.16-.69l.5-.41a2.92,2.92,0,0,0,.34-.38l2.59.22c0-.06.05,0,.11.06l.19.12a2.3,2.3,0,0,0,.44.23,6.15,6.15,0,0,0,1,.33c.66.16,1.35.31,2.12.47a7.65,7.65,0,0,0,2.22.17,10.53,10.53,0,0,0,2.72-.59l.31.25a5,5,0,0,1-1.91,2.85,7,7,0,0,1-7,.6,7.75,7.75,0,0,1-2.26-1.76,7.43,7.43,0,0,1-.68-.9l2.6.22a7.15,7.15,0,0,1-.89.66c-.28.17-.56.33-.84.47a10.62,10.62,0,0,1-1.75.66,10.87,10.87,0,0,1-3.57.35,7.51,7.51,0,0,1-1.79-.29,8.28,8.28,0,0,1-1.63-.71,9.49,9.49,0,0,1-2.61-2.13Z" transform="translate(-783.78 -388.99)"/><path class="cls-2" d="M1010.93,536.8a8.7,8.7,0,0,0,3.42,1.75,10.74,10.74,0,0,0,3.74.29,13.13,13.13,0,0,0,5.24-1.58,7.53,7.53,0,0,0,1.38-1A1.26,1.26,0,0,1,1026,536l.49.13a17.51,17.51,0,0,0,2.84.43,22.28,22.28,0,0,0,2.64.12,8.3,8.3,0,0,0,2.57-.57,9.66,9.66,0,0,0,2.65-1.68l.37.13a5.49,5.49,0,0,1-1.36,3.61,7.14,7.14,0,0,1-3.44,2.27,8.33,8.33,0,0,1-4,.19,13.82,13.82,0,0,1-3.61-1.34l1.72-.21a13.53,13.53,0,0,1-2.15,1,16.68,16.68,0,0,1-2.16.64,14,14,0,0,1-4.41.24,11.89,11.89,0,0,1-4.19-1.2,8.45,8.45,0,0,1-3.25-2.73Z" transform="translate(-783.78 -388.99)"/><path class="cls-2" d="M1007.85,486.81a11.71,11.71,0,0,0,3.49,2,9.05,9.05,0,0,0,3.86.59,12.09,12.09,0,0,0,3.79-.92,13,13,0,0,0,3.28-1.92,1.14,1.14,0,0,1,1.36-.08l.16.11a6.8,6.8,0,0,0,1.35.66,9.54,9.54,0,0,0,1.57.41,9.84,9.84,0,0,0,3.25,0,8.52,8.52,0,0,0,4.19-2.12,7,7,0,0,0,.54-.55,4.68,4.68,0,0,0,.4-.51,1.39,1.39,0,0,1,1.82-.61l1.26.6s.18.16.29.25l.38.32c.27.21.56.4.84.6a14.78,14.78,0,0,0,1.83,1,15.83,15.83,0,0,0,4.12,1.28,15.29,15.29,0,0,0,4.48.15,10.13,10.13,0,0,0,4.38-1.57l.33.24a8.24,8.24,0,0,1-4,3.64,13.71,13.71,0,0,1-2.66.84,18.44,18.44,0,0,1-2.77.28,14.39,14.39,0,0,1-5.56-1.07,12.66,12.66,0,0,1-2.52-1.45,11.15,11.15,0,0,1-1.13-.95c-.17-.17-.35-.35-.52-.54a6.39,6.39,0,0,1-.55-.67h3.07a7.11,7.11,0,0,1-.87.87c-.29.24-.58.47-.88.68a12.83,12.83,0,0,1-1.88,1.13,12.46,12.46,0,0,1-4.16,1.18,12.64,12.64,0,0,1-4.25-.3,11.25,11.25,0,0,1-2-.73,9.77,9.77,0,0,1-.94-.53,6.77,6.77,0,0,1-.95-.69l1.52,0a14.63,14.63,0,0,1-4.13,1.9,14,14,0,0,1-4.41.53,10.49,10.49,0,0,1-4.26-1.17,12,12,0,0,1-3.39-2.64Z" transform="translate(-783.78 -388.99)"/><path class="cls-2" d="M900.58,452.12a15.51,15.51,0,0,0,4.39,1.35,13.93,13.93,0,0,0,4.51,0,17.4,17.4,0,0,0,7.95-3.67,1.16,1.16,0,0,1,1.46-.06l.12.09a10,10,0,0,0,1.78,1,12.66,12.66,0,0,0,2,.72,10.5,10.5,0,0,0,4.09.23,10.89,10.89,0,0,0,3.82-1.43,14.69,14.69,0,0,0,1.72-1.2,15.84,15.84,0,0,0,1.5-1.34,2,2,0,0,1,2.85-.05h0l.15.15c.11.1.42.38.66.56s.52.41.8.59a14.57,14.57,0,0,0,1.77,1,12.45,12.45,0,0,0,1.92.67,13.7,13.7,0,0,0,2.08.31,16.62,16.62,0,0,0,4.44-.27,13.86,13.86,0,0,0,4.36-1.64l.3.27a8.41,8.41,0,0,1-1.7,2,11.16,11.16,0,0,1-2.18,1.48,14.08,14.08,0,0,1-5.12,1.54,12.53,12.53,0,0,1-5.57-.59,12,12,0,0,1-2.57-1.25,13.69,13.69,0,0,1-1.16-.84,11.39,11.39,0,0,1-1.14-1.1l3,.1a13.54,13.54,0,0,1-2.16,1.64,19.69,19.69,0,0,1-2.31,1.24,14.85,14.85,0,0,1-5.15,1.34,13.49,13.49,0,0,1-9.79-3.32l1.58,0a18.38,18.38,0,0,1-9.34,3.28,15.26,15.26,0,0,1-4.87-.54,15.54,15.54,0,0,1-4.4-2Z" transform="translate(-783.78 -388.99)"/><path class="cls-2" d="M960.1,390.94c3.42-.59,6.86-1,10.32-1.37s6.93-.57,10.44-.58a65.5,65.5,0,0,1,10.41.46c1.71.28,3.42.61,5.11,1.06a32.18,32.18,0,0,1,5,1.66l0,.4a34.79,34.79,0,0,1-5.27.74c-1.74.13-3.46.16-5.18.13a36.79,36.79,0,0,1-5.13-.48c-1.7-.29-3.41-.62-5.08-.78s-3.38-.28-5.09-.37-3.42-.19-5.14-.24c-3.44-.17-6.89-.19-10.34-.23Z" transform="translate(-783.78 -388.99)"/><path class="cls-2" d="M1012.4,393.8a4.63,4.63,0,0,1,1.61-1.11,5.17,5.17,0,0,1,1.61-.44c1.08-.18,2.06.5,3,.86a20,20,0,0,1,2.92,1.3,14,14,0,0,1,2.62,1.86l-.18.36a26.27,26.27,0,0,0-3-.3c-.5,0-1-.05-1.48,0s-1,0-1.47,0a12.74,12.74,0,0,0-1.48.14,3,3,0,0,1-1.43-.16,6.26,6.26,0,0,1-1.39-.74,6,6,0,0,1-1.39-1.29Z" transform="translate(-783.78 -388.99)"/><path class="cls-2" d="M986,661.33a12.23,12.23,0,0,1-3,4.75c-1.21,1.34-2.94,2-4.47,2.93s-3.11,1.79-4.74,2.57c-.83.37-1.65.73-2.51,1a12.55,12.55,0,0,1-2.64.71l-.11-.38a24,24,0,0,0,4.18-3.06c.66-.58,1.32-1.14,2-1.73s1.3-1.15,2-1.73c1.29-1.17,2.34-2.65,3.89-3.49a13.79,13.79,0,0,1,5.19-1.92Z" transform="translate(-783.78 -388.99)"/><path class="cls-2" d="M831.38,518.49a91.92,91.92,0,0,1,.22,9.82,64.81,64.81,0,0,1-1,9.8,67.68,67.68,0,0,1-7,18.44,129.27,129.27,0,0,1-10.75,16.53c-1,1.29-2,2.62-3.05,3.88l-3.09,3.8-1.52,1.88-1.45,1.93c-1,1.27-1.87,2.61-2.79,3.93A84,84,0,0,0,792,605.43a63.26,63.26,0,0,0-2.81,9c-.43,1.52-.63,3.08-.94,4.61s-.44,3.1-.48,4.66a40.23,40.23,0,0,0,0,4.66l.2,2.31c.06.78.24,1.55.34,2.33a59.44,59.44,0,0,0,2.29,9.22,72.85,72.85,0,0,0,3.7,8.87,67.64,67.64,0,0,0,4.85,8.41l-.3.26A57.39,57.39,0,0,1,788,643.26a53.94,53.94,0,0,1-3.14-9.55c-.17-.83-.38-1.64-.49-2.49l-.35-2.54a46,46,0,0,1-.17-5.12c0-1.71.23-3.39.39-5.08s.53-3.35,1-5a63,63,0,0,1,3.2-9.55,91.5,91.5,0,0,1,10-17.27c1-1.33,1.94-2.68,3-4l1.55-1.94,1.61-1.88,3.21-3.69c1.07-1.21,2.07-2.48,3.11-3.72a127.28,127.28,0,0,0,11.06-15.91,66.48,66.48,0,0,0,7.61-17.7,64.11,64.11,0,0,0,1.34-9.6,90.6,90.6,0,0,0,.18-9.75Z" transform="translate(-783.78 -388.99)"/><path class="cls-2" d="M877.56,690.51c7.31-.09,14.62-.31,21.9-.82a158.62,158.62,0,0,0,21.6-2.58c3.57-.71,7.11-1.5,10.63-2.4l5.28-1.29,5.27-1.26q5.28-1.21,10.52-2.65a104,104,0,0,0,10.35-3.35l.22.33a41.43,41.43,0,0,1-9.62,5.66c-1.68.78-3.42,1.43-5.15,2.11s-3.5,1.22-5.27,1.76c-7.08,2.22-14.43,3.2-21.7,4.24a160.33,160.33,0,0,1-22.06,1.43c-7.35,0-14.67-.24-22-.78Z" transform="translate(-783.78 -388.99)"/></svg>