<svg id="Layer_1" data-name="Layer 1" xmlns="http://www.w3.org/2000/svg" viewBox="0 0 275.36 221.41"><defs><style>.cls-4{fill:#c18e53}.cls-8{fill:#a68478}</style></defs><path d="M175.79 377.13c-1.5 5-4.23 7.09-4.23 24.13S169.79 488.4 174 498s14.86 12.13 27.41 12.54 156.55 1 166.5-.41 12.28-7.91 12.14-18.54-.14-109.91-2.18-113.6-103.37-47.45-103.37-47.45Z" transform="translate(-159.54 -289.54)" style="fill:#feeb98"/><path d="M427 342.84s1.62 117.48 1.39 124.2-2.55 12.74-7.18 17.15-49 24.82-49 24.82l-2.93-143.69Z" transform="translate(-159.54 -289.54)" style="fill:#f5d68a"/><path d="M161.06 375.76c-2.06 2.62-2.59 8.05 2.05 8.59s12.82-1.63 18-4.77 5.32-1.36 4.91 1.5-5.32 12.55 0 18.68 15.89 6.09 20 .55c3.79-5.05.31-18.78.69-24.19s2.32-11.41 10.83-14.7 54.53-23 54.53-23 16.43 5.22 19.33 8.9-2.71 14.3.77 19.14 12.83 7.92 20.15 1.54c0 0 3.29 4.45 2.9 8.51s-4.83 14.7.39 22 17.21 6.77 21.46 2.52 6.77-11 6-16.44c0 0 5.81 4.26 9.67 2.32s5.42-6.76 5.42-6.76 13.92 7 16.82 8.31 6.24 2.13 10 0 44.74-38.28 48.22-42 1.54-7.54-4.26-11-90.49-39.64-94.16-41.38-9.86-5.6-17.59-1.35-133.58 67.53-139 70.77c-8.19 4.88-14.87 9.39-17.13 12.26Z" transform="translate(-159.54 -289.54)" style="fill:#906c5e"/><path class="cls-4" d="M232 457.45a17.47 17.47 0 0 1-2-.11c-10.1-1.08-16.13-8.73-16.56-21a3.51 3.51 0 0 1 3.38-3.62h.12a3.5 3.5 0 0 1 3.5 3.38c.21 6 2.16 13.38 10.31 14.25 2.66.28 4.67-.28 6.13-1.74 2.2-2.18 3.28-6.48 2.8-11.22a3.5 3.5 0 0 1 7-.7c.7 6.88-1.11 13.2-4.82 16.89a13.52 13.52 0 0 1-9.86 3.87ZM314.74 457.45a13.47 13.47 0 0 1-9.81-3.84c-3.72-3.69-5.52-10-4.83-16.89a3.5 3.5 0 0 1 7 .7c-.48 4.74.59 9 2.79 11.22 1.47 1.46 3.47 2 6.14 1.74 8.14-.87 10.1-8.23 10.31-14.25a3.5 3.5 0 0 1 3.49-3.38h.13a3.5 3.5 0 0 1 3.37 3.62c-.42 12.24-6.45 19.89-16.55 21a17.64 17.64 0 0 1-2.04.08ZM266 462a12.85 12.85 0 0 1-10.79-6.07 3.5 3.5 0 0 1 6-3.57 5.94 5.94 0 0 0 5 2.64c2.94-.1 4.44-4 4.46-4.05a3.5 3.5 0 0 1 6.14-.82c1 1.46 4 4.46 6.36 4.37a7.11 7.11 0 0 0 5.16-2.71 3.52 3.52 0 0 1 4.88-.79 3.48 3.48 0 0 1 .84 4.83 14.18 14.18 0 0 1-10.65 5.67c-3.59.13-6.67-1.72-8.86-3.6a11.09 11.09 0 0 1-8.12 4.09Z" transform="translate(-159.54 -289.54)"/><path d="M182.82 446.16c-3.29-1.69-3.95 3.3-2.92 7.63s4 5.37 4.71 2.36-.2-9.15-1.79-9.99Z" transform="translate(-159.54 -289.54)" style="fill:#fff7cf"/><path d="M217.39 349.63s.19-43.12 0-49.12 1.54-10.63 7.92-10.82 23.21-.2 26.88 0 6.19 2.7 6.38 7 0 30.35 0 30.35Z" transform="translate(-159.54 -289.54)" style="fill:#ef7b62"/><path d="M227.07 298.33c-3.14-2.45-4.25 4.05-3.61 9.8s3.55 7.32 4.48 3.41.64-12.03-.87-13.21Z" transform="translate(-159.54 -289.54)" style="fill:#f39986"/><path class="cls-8" d="M403.36 338.58c3.72-2.4.75-5.73-3.06-7s-6.85 1.19-5.26 3.46 6.52 4.7 8.32 3.54ZM365.86 314.81c-5.77-2.41-7.65 1.66-4.12 4.79s18.57 9.88 21.45 10.41c5.95 1.1 6.68-2.46 2.3-5.2a213.5 213.5 0 0 0-19.63-10Z" transform="translate(-159.54 -289.54)"/></svg>