<?xml version="1.0" encoding="utf-8"?>
<!-- Generator: Adobe Illustrator 26.0.0, SVG Export Plug-In . SVG Version: 6.00 Build 0)  -->
<svg version="1.1" id="Layer_1" xmlns="http://www.w3.org/2000/svg" xmlns:xlink="http://www.w3.org/1999/xlink" x="0px" y="0px"
	 viewBox="0 0 617.4 602.2" style="enable-background:new 0 0 617.4 602.2;" xml:space="preserve">
<style type="text/css">
	.st0{fill:#D8648E;}
	.st1{fill:#6E6583;}
	.st2{fill:#F07E8E;}
	.st3{display:none;fill:#B05F9A;}
	.st4{fill:#F9CAA2;}
	.st5{fill:#71698C;}
	.st6{fill:#827098;}
	.st7{fill:none;}
	.st8{fill:#F7A7B6;}
	.st9{fill:none;stroke:#F07E8E;stroke-width:6;stroke-linecap:round;stroke-miterlimit:10;}
	.st10{fill:none;stroke:#6E6583;stroke-width:7;stroke-linecap:round;stroke-miterlimit:10;}
</style>
<polygon class="st0" points="23.4,249 38.1,242.4 81,311.1 79.5,585 6.7,528.9 6.7,269.2 "/>
<path class="st1" d="M73.5,565.7c3.8,0.2,20.8-7,25.2-7c112.7,0,463.8-4.5,467.5-2c4.5,3,14.6,13.1,14.6,13.1l7.2,25.6
	c0.1,0.3,0.1,0.7,0.1,1c0,2.1-1.7,3.8-3.7,3.8c-52.2,0.2-500,2-508.5,2c-9.1,0-16.2-0.5-20.2-3.5s-50.9-52.4-54.5-59
	c-2.2-4.1-1.2-14.1,0.6-23.1c0.8-3.9,2.5-9.2,5-6.1l8,7.9c0,0-1-106.6,3.4-120.3c4.5-13.6,20.3-20.7,31.5,0s7.6,154.1,7.6,154.1
	S68.9,565.3,73.5,565.7z"/>
<path class="st2" d="M561.6,559.6c0,3.7-3,6.7-6.7,6.7H76.7c0,0,0,0,0,0c-4.3,0-7.7-3.5-7.7-7.7l1-236.4l490,6.1L561.6,559.6
	C561.6,559.6,561.6,559.6,561.6,559.6z"/>
<polygon class="st2" points="477.5,97.9 478.4,238 386.5,238.7 386.5,98.3 "/>
<path class="st3" d="M273.6,475.8c10.5,7.3,28.2,10.9,39.3,1.9c2.7-2.2,4.7-5.1,5.7-8.3c1.1,3.4,3.2,6.3,6,8.4
	c11.5,8.9,29.9,5.3,40.8-1.9s13.7-17.3,11.3-18.7s-6.8,3-16.2,2.3c-6.8-0.5-10.9-8.2-21.6-11.2c-12.9-3.7-19.6,7.7-19.6,7.7
	c-0.2,0.4-0.4,0.9-0.5,1.3c-0.2-0.6-0.4-1.2-0.7-1.8c0,0-6.6-11.5-19-7.8c-10.3,3.1-14.3,10.9-20.8,11.3c-9.1,0.7-13.2-3.8-15.6-2.3
	S263.2,468.5,273.6,475.8z"/>
<ellipse class="st3" cx="273.8" cy="435.9" rx="10" ry="10.1"/>
<ellipse class="st3" cx="366.5" cy="436.2" rx="9.9" ry="10.1"/>
<rect x="105.1" y="380.9" class="st4" width="123" height="153.4"/>
<path class="st5" d="M227.7,377.7H105.5c-2.4,0-4.4,2-4.4,4.4v152.3c0,2.4,2,4.4,4.4,4.4h122.2l0,0c2.4,0,4.4-2,4.4-4.4V382.1
	C232,379.7,230.1,377.7,227.7,377.7z M109,416.2c-0.5,0-1-0.4-1-0.9v-29.6c0-0.6,0.4-1,1-1h30.5c0.6,0,1,0.4,1,1v29.5
	c0,0.6-0.4,1-1,1L109,416.2L109,416.2z M185.7,494.8c0,0.5-0.4,1-1,1h-36.4c-0.6,0-1-0.4-1-1v-29.3c0-0.6,0.4-1,1-1h36.3
	c0.6,0,1,0.4,1,1L185.7,494.8L185.7,494.8z M148.4,502.7h36.3c0.6,0,1,0.4,1,1v27.1c0,0.6-0.4,1-1,1h-36.2c-0.6,0-1-0.4-1-1v-27.1
	C147.5,503.1,147.9,502.7,148.4,502.7z M147.5,424.2c0-0.5,0.4-1,1-1h36.3c0.6,0,1,0.4,1,1v32.3c0,0.6-0.4,1-1,1h-36.2
	c-0.6,0-1-0.4-1-1V424.2L147.5,424.2z M185.7,415.2c0,0.5-0.4,1-1,1h-36.3c-0.6,0-1-0.4-1-1v-29.6c0-0.6,0.4-1,1-1h36.3
	c0.6,0,1,0.4,1,1V415.2L185.7,415.2z M193.6,457.5c-0.5,0-1-0.4-1-1v-32.4c0-0.6,0.4-1,1-1h30.5c0.6,0,1,0.4,1,1v32.3
	c0,0.6-0.4,1-1,1L193.6,457.5L193.6,457.5z M192.7,465.5c0-0.5,0.4-1,1-1h30.5c0.6,0,1,0.4,1,1v29.3c0,0.6-0.4,1-1,1h-30.4
	c-0.6,0-1-0.4-1-1V465.5L192.7,465.5z M139.5,464.5c0.5,0,1,0.4,1,1v29.3c0,0.6-0.4,1-1,1H109c-0.6,0-1-0.4-1-1v-29.3
	c0-0.6,0.4-1,1-1L139.5,464.5L139.5,464.5z M140.5,456.5c0,0.5-0.4,1-1,1H109c-0.6,0-1-0.4-1-1v-32.4c0-0.6,0.4-1,1-1h30.5
	c0.6,0,1,0.4,1,1L140.5,456.5L140.5,456.5z M193.6,384.7h30.5c0.6,0,1,0.4,1,1v29.6c0,0.6-0.4,1-1,1h-30.4c-0.6,0-1-0.4-1-1v-29.6
	C192.7,385.1,193.1,384.7,193.6,384.7z M224.1,502.8c0.5,0,1,0.4,1,0.9v27.2c0,0.6-0.4,1-1,1h-30.5c-0.6,0-1-0.4-1-1v-27.1
	c0-0.6,0.4-1,1-1L224.1,502.8L224.1,502.8z M140.5,530.8c0,0.5-0.4,0.9-1,1H109c-0.6,0-1-0.4-1-1v-27.1c0-0.6,0.4-1,1-1h30.4
	c0.6,0,1,0.4,1,1L140.5,530.8L140.5,530.8z"/>
<rect x="409.1" y="380.9" class="st4" width="123" height="153.4"/>
<path class="st5" d="M409.6,377.7c-2.4,0-4.4,2-4.4,4.4v152.3l0,0c0,2.4,2,4.4,4.4,4.4h122.2c0,0,0,0,0,0c2.4,0,4.4-2,4.4-4.4V382.1
	l0,0c0-2.4-2-4.4-4.4-4.4H409.6C409.6,377.7,409.6,377.7,409.6,377.7z M528.2,416.3h-30.4c-0.6,0-1-0.4-1-1v-29.6c0-0.6,0.4-1,1-1
	h30.4c0.6,0,1,0.4,1,1v29.6C529.2,415.8,528.8,416.3,528.2,416.3z M451.6,494.8v-29.3c0-0.6,0.4-1,1-1h36.3c0.6,0,1,0.4,1,1v29.3
	c0,0.6-0.4,1-1,1h-36.3C452,495.8,451.6,495.3,451.6,494.8z M489.8,503.7v27.2c0,0.6-0.4,1-1,1h-36.3c-0.6,0-1-0.4-1-1v-27.1
	c0-0.6,0.4-1,1-1h36.3C489.4,502.7,489.8,503.2,489.8,503.7z M488.8,423.2c0.5,0,1,0.4,1,1v32.4c0,0.6-0.4,1-1,1h-36.3
	c-0.6,0-1-0.4-1-1v-32.4c0-0.6,0.4-1,1-1L488.8,423.2L488.8,423.2z M452.6,416.2c-0.5,0-1-0.4-1-0.9v-29.6c0-0.6,0.4-1,1-1h36.3
	c0.6,0,1,0.4,1,1v29.5c0,0.6-0.4,1-1,1L452.6,416.2L452.6,416.2z M444.6,456.5c0,0.5-0.4,1-1,1h-30.5c-0.6,0-1-0.4-1-1v-32.4
	c0-0.6,0.4-1,1-1h30.5c0.6,0,1,0.4,1,1L444.6,456.5L444.6,456.5z M443.6,464.5c0.5,0,1,0.4,1,1v29.4c0,0.6-0.4,1-1,1h-30.5
	c-0.6,0-1-0.4-1-1v-29.3c0-0.6,0.4-1,1-1L443.6,464.5L443.6,464.5z M496.8,465.5c0-0.5,0.4-1,1-1h30.4c0.6,0,1,0.4,1,1v29.4
	c0,0.6-0.4,1-1,1h-30.5c-0.6,0-1-0.4-1-1L496.8,465.5L496.8,465.5z M497.8,457.5c-0.5,0-1-0.4-1-1v-32.4c0-0.6,0.4-1,1-1h30.4
	c0.6,0,1,0.4,1,1v32.4c0,0.6-0.4,1-1,1L497.8,457.5L497.8,457.5z M444.6,385.7v29.6c0,0.6-0.4,1-1,1h-30.5c-0.6,0-1-0.4-1-1v-29.6
	c0-0.6,0.4-1,1-1h30.5C444.2,384.7,444.6,385.1,444.6,385.7z M413.2,502.7h30.5c0.6,0,1,0.4,1,1v27.1c0,0.6-0.4,1-1,1h-30.4
	c-0.6,0-1-0.4-1-1v-27.1C412.2,503.1,412.6,502.7,413.2,502.7z M496.8,530.8v-27.1c0-0.6,0.4-1,1-1h30.4c0.6,0,1,0.4,1,1v27.1
	c0,0.6-0.4,1-1,1h-30.4C497.2,531.8,496.8,531.3,496.8,530.8z"/>
<circle class="st4" cx="431.4" cy="158.1" r="24.9"/>
<path class="st1" d="M401.4,158.1L401.4,158.1c0,16.6,13.4,30,30,30s30-13.4,30-30s-13.4-30-30-30S401.4,141.5,401.4,158.1z
	 M409,158.1C409,158.1,409,158.1,409,158.1c0-12.4,10-22.4,22.4-22.4c12.4,0,22.4,10,22.4,22.4s-10,22.4-22.4,22.4
	C419.1,180.5,409,170.5,409,158.1z"/>
<path class="st1" d="M429.3,164.3l-8.1-7.8c0,0-0.1-0.1-0.1-0.1c-1.2-1.2-1.1-3.1,0-4.2c1.2-1.2,3.1-1.1,4.2,0l5.9,5.7l9.3-10
	c1.1-1.2,3-1.3,4.2-0.2s1.3,3,0.2,4.2l-11.4,12.2c-0.5,0.6-1.3,1-2.1,1h-0.1C430.6,165.2,429.9,164.8,429.3,164.3z"/>
<path class="st6" d="M483.7,103l-0.4-12.1l-7.8-2.6l-38-87.4c0,0-5.2-2.5-9,0.8s-40.6,86.5-40.6,86.5c-4.7,0.7-7.4,1.5-7.7,3
	c-0.2,2.9,0,5.9,0.5,8.8c0.5,2.7,2.9,2.9,5.2,3.2s90.2,0.6,90.2,0.6L483.7,103z"/>
<path class="st1" d="M434.8,5.1l35.8,80.1c-6.5-0.9-15.1-1.8-24.7-2.1c-1.7-0.1-3,1.2-3.1,2.9c-0.1,1.7,1.2,3,2.9,3.1
	c11.8,0.4,23.6,1.7,35.2,3.8c0.7,1.9,1,6.1,0.3,7.4c-2.1,0.6-9.9,0.2-16.1-0.6c0,0-0.1,0-0.1,0c-1.6-0.2-3.1,1-3.3,2.7
	c-0.2,1.6,1,3.1,2.7,3.3c4.2,0.6,8.4,0.9,12.6,1c6.5,0,7.8-1.2,8.3-1.8c3.9-3.6,2.4-13.7-0.1-16.6c-0.4-0.5-1-0.9-1.7-1
	c-0.2-0.1-2.3-0.5-5.8-1.1c0-0.1-0.1-0.3-0.1-0.4L440.3,2.7c0,0,0,0,0,0c-0.7-1.5-2.5-2.2-4-1.5C434.8,1.8,434.1,3.6,434.8,5.1z"/>
<path class="st1" d="M390.3,83.9c-1.7,0-3,1.3-3,3c0,1.7,1.3,3,3,3l20.3,0.3l0,0c1.7,0,3-1.3,3-3s-1.3-3-3-3L390.3,83.9L390.3,83.9z
	"/>
<path class="st7" d="M479.3,233.3c0.3-0.1,0.7-0.2,1-0.2h-1.1L479.3,233.3z"/>
<path class="st6" d="M517.1,331l46.5-3.5l-39.9-90.3l-43-1.9l-454,0L16,245c0,0-10.4,18.6-13,21.9s-0.4,5.5,2,7.4c0,0,0,0,0,0
	c1.8,1.6,4.5,1.4,6-0.4c1.5-1.5,19.8-25.7,19.8-25.7l36.8,83.9l368.6-1.3L517.1,331z"/>
<path class="st5" d="M391.4,235.3h-6.7l41.2,95.9c0.5,1.1,1.5,1.8,2.7,1.9l41.4,2.1h0.1h2.1h2.1l4.5,0.1c5.5,0.1,12.6,0.2,20.5,0.2
	c5.4,0,11.1-0.1,16.7-0.2c2.2,0,4.3-0.1,6.5-0.2c5.2-0.2,10.4-0.4,15.1-0.8l27.2-2.2c0.3,0,0.7-0.1,1-0.2c1.6-0.7,2.3-2.5,1.6-4
	l-40.1-91.8c-0.5-1.1-1.5-1.8-2.7-1.8l-44.2-1c-0.3,0-0.7,0.1-1,0.2l-0.1-0.2l0,0c-0.6,0-1.2,0.1-1.7,0.3c-2.2,0.9-3.2,3.5-2.3,5.7
	l38.2,90c-14.5,0.3-28.8,0-37.3-0.1l-39.8-93.7h-6.5l39.8,93.6l-38.8-1.9L391.4,235.3z M481.8,239.2l40.6,0.9l37.6,86.1l-22.9,1.9
	c-5.4,0.4-11.2,0.7-17.2,0.9L481.8,239.2z"/>
<polygon class="st5" points="343.3,235.3 336.8,235.3 377.4,331 383.9,331 "/>
<polygon class="st5" points="297.6,235.3 291,235.3 331.8,331.2 338.3,331.1 "/>
<polygon class="st5" points="254.8,235.3 248.3,235.3 289.1,331.3 295.6,331.3 "/>
<polygon class="st5" points="209.5,235.3 202.9,235.3 243.8,331.5 250.3,331.5 "/>
<polygon class="st5" points="164.3,235.3 157.8,235.3 198.7,331.6 205.2,331.6 "/>
<polygon class="st5" points="113.2,235.3 154.2,331.8 160.7,331.8 119.8,235.3 "/>
<path class="st1" d="M11.1,246c-1.1,1.2-1.1,3.1,0.2,4.2c1.2,1.1,3.1,1.1,4.2-0.2l8.6-9.3l40.7,89.5l0,0c0.7,1.5,2.5,2.2,4,1.5
	s2.2-2.5,1.5-4L29.5,238c10.2-0.3,27.1-0.2,41.4,0.1l39.9,93.8h6.5l-39.8-93.6c9.6,0.3,17,0.7,18.9,1.1c0.2,0,0.4,0.1,0.6,0.1
	c1.4,0,2.7-1,3-2.4c0.3-1.6-0.7-3.2-2.3-3.5c-6.4-1.3-55.5-2.2-72-1.3c-1,0.2-1.9,0.6-2.7,1.2L11.1,246L11.1,246z"/>
<image style="display:none;overflow:visible;" width="1920" height="1080" xlink:href="../../../../ShareX/Screenshots/2021-10/chrome_zK1pEeHvml.png"  transform="matrix(0.75 0 0 0.75 -69.7329 -247.496)">
</image>
<path class="st8" d="M282.4,472.7c0,0-19.1,44.4,9,46c28.1,1.7,40.5-21.1,39.7-44.2L282.4,472.7z"/>
<path class="st9" d="M306.3,474.6c0,0-5.6,9.5-6.8,23.1"/>
<path class="st10" d="M253.8,454.3c0,0,13.2,20.6,60.7,20.2s76.4-20.2,76.4-20.2"/>
<circle class="st1" cx="279.4" cy="436.4" r="6.8"/>
<circle class="st1" cx="366.1" cy="436.4" r="6.8"/>
</svg>
