<svg id="Layer_1" data-name="Layer 1" xmlns="http://www.w3.org/2000/svg" viewBox="0 0 3300 128.92"><defs><style>.cls-1{fill:#bf9177;}.cls-2{fill:#d0dbeb;}</style></defs><path class="cls-1" d="M1850.38,361H1835a3.17,3.17,0,0,0-2.86,1.8l-59.44,125.3a1.28,1.28,0,0,0,1.16,1.82h16.24a2.64,2.64,0,0,0,2.38-1.51l59.34-125.08A1.63,1.63,0,0,0,1850.38,361Z" transform="translate(1378.73 -360.95)"/><path class="cls-1" d="M1717.67,361h-15.34a3.16,3.16,0,0,0-2.86,1.8L1640,488.05a1.27,1.27,0,0,0,1.15,1.82h16.24a2.65,2.65,0,0,0,2.39-1.51l59.33-125.08A1.63,1.63,0,0,0,1717.67,361Z" transform="translate(1378.73 -360.95)"/><path class="cls-1" d="M1581.83,361h-15.34a3.16,3.16,0,0,0-2.86,1.8l-59.44,125.3a1.27,1.27,0,0,0,1.15,1.82h16.25a2.65,2.65,0,0,0,2.38-1.51l59.33-125.08A1.63,1.63,0,0,0,1581.83,361Z" transform="translate(1378.73 -360.95)"/><path class="cls-1" d="M1445.86,361h-15.35a3.15,3.15,0,0,0-2.85,1.8l-59.44,125.3a1.27,1.27,0,0,0,1.15,1.82h16.24a2.63,2.63,0,0,0,2.38-1.51l59.34-125.08A1.63,1.63,0,0,0,1445.86,361Z" transform="translate(1378.73 -360.95)"/><path class="cls-1" d="M1331,361h-15.34a3.17,3.17,0,0,0-2.86,1.8l-59.43,125.3a1.27,1.27,0,0,0,1.15,1.82h16.24a2.64,2.64,0,0,0,2.38-1.51l59.34-125.08A1.63,1.63,0,0,0,1331,361Z" transform="translate(1378.73 -360.95)"/><path class="cls-1" d="M1195.29,361H1180a3.17,3.17,0,0,0-2.86,1.8l-59.44,125.3a1.28,1.28,0,0,0,1.16,1.82h16.24a2.64,2.64,0,0,0,2.38-1.51l59.34-125.08A1.63,1.63,0,0,0,1195.29,361Z" transform="translate(1378.73 -360.95)"/><path class="cls-1" d="M1058,361h-15.34a3.17,3.17,0,0,0-2.86,1.8l-59.43,125.3a1.27,1.27,0,0,0,1.15,1.82h16.24a2.64,2.64,0,0,0,2.38-1.51l59.34-125.08A1.63,1.63,0,0,0,1058,361Z" transform="translate(1378.73 -360.95)"/><path class="cls-1" d="M930,361H914.61a3.15,3.15,0,0,0-2.86,1.8l-59.44,125.3a1.27,1.27,0,0,0,1.15,1.82H869.7a2.65,2.65,0,0,0,2.39-1.51l59.33-125.08A1.63,1.63,0,0,0,930,361Z" transform="translate(1378.73 -360.95)"/><path class="cls-1" d="M796.36,361H781a3.15,3.15,0,0,0-2.85,1.8l-59.44,125.3a1.27,1.27,0,0,0,1.15,1.82h16.24a2.63,2.63,0,0,0,2.38-1.51l59.34-125.08A1.63,1.63,0,0,0,796.36,361Z" transform="translate(1378.73 -360.95)"/><path class="cls-1" d="M662.84,361H647.5a3.15,3.15,0,0,0-2.86,1.8L585.2,488.05a1.27,1.27,0,0,0,1.15,1.82h16.24a2.65,2.65,0,0,0,2.39-1.51l59.33-125.08A1.63,1.63,0,0,0,662.84,361Z" transform="translate(1378.73 -360.95)"/><path class="cls-1" d="M527.31,361H512a3.16,3.16,0,0,0-2.86,1.8l-59.44,125.3a1.28,1.28,0,0,0,1.16,1.82h16.24a2.65,2.65,0,0,0,2.38-1.51l59.34-125.08A1.63,1.63,0,0,0,527.31,361Z" transform="translate(1378.73 -360.95)"/><path class="cls-1" d="M393.46,361H378.12a3.17,3.17,0,0,0-2.86,1.8l-59.44,125.3a1.28,1.28,0,0,0,1.16,1.82h16.24a2.64,2.64,0,0,0,2.38-1.51l59.34-125.08A1.63,1.63,0,0,0,393.46,361Z" transform="translate(1378.73 -360.95)"/><path class="cls-1" d="M277.68,361H262.34a3.16,3.16,0,0,0-2.86,1.8L200,488.05a1.28,1.28,0,0,0,1.16,1.82h16.24a2.64,2.64,0,0,0,2.38-1.51l59.34-125.08A1.63,1.63,0,0,0,277.68,361Z" transform="translate(1378.73 -360.95)"/><path class="cls-1" d="M143.7,361H128.36a3.17,3.17,0,0,0-2.86,1.8L66.07,488.05a1.27,1.27,0,0,0,1.15,1.82H83.46a2.63,2.63,0,0,0,2.38-1.51l59.34-125.08A1.63,1.63,0,0,0,143.7,361Z" transform="translate(1378.73 -360.95)"/><path class="cls-1" d="M5.68,361H-9.66a3.15,3.15,0,0,0-2.86,1.8L-72,488.05a1.27,1.27,0,0,0,1.15,1.82h16.24a2.65,2.65,0,0,0,2.39-1.51L7.15,363.28A1.63,1.63,0,0,0,5.68,361Z" transform="translate(1378.73 -360.95)"/><path class="cls-1" d="M-125.5,361h-15.34a3.15,3.15,0,0,0-2.86,1.8l-59.44,125.3a1.27,1.27,0,0,0,1.15,1.82h16.24a2.65,2.65,0,0,0,2.39-1.51L-124,363.28A1.63,1.63,0,0,0-125.5,361Z" transform="translate(1378.73 -360.95)"/><path class="cls-1" d="M-261.72,361h-15.35a3.15,3.15,0,0,0-2.85,1.8l-59.44,125.3a1.27,1.27,0,0,0,1.15,1.82H-322a2.63,2.63,0,0,0,2.38-1.51l59.34-125.08A1.63,1.63,0,0,0-261.72,361Z" transform="translate(1378.73 -360.95)"/><path class="cls-1" d="M-393.24,361h-15.34a3.17,3.17,0,0,0-2.86,1.8l-59.43,125.3a1.27,1.27,0,0,0,1.15,1.82h16.24a2.64,2.64,0,0,0,2.38-1.51l59.34-125.08A1.63,1.63,0,0,0-393.24,361Z" transform="translate(1378.73 -360.95)"/><path class="cls-1" d="M-532.36,361H-547.7a3.15,3.15,0,0,0-2.86,1.8L-610,488.05a1.27,1.27,0,0,0,1.15,1.82h16.24a2.65,2.65,0,0,0,2.39-1.51l59.33-125.08A1.63,1.63,0,0,0-532.36,361Z" transform="translate(1378.73 -360.95)"/><path class="cls-1" d="M-664.21,361h-15.34a3.17,3.17,0,0,0-2.86,1.8l-59.43,125.3a1.27,1.27,0,0,0,1.15,1.82h16.24a2.64,2.64,0,0,0,2.38-1.51l59.34-125.08A1.63,1.63,0,0,0-664.21,361Z" transform="translate(1378.73 -360.95)"/><path class="cls-1" d="M-779.7,361H-795a3.16,3.16,0,0,0-2.86,1.8l-59.44,125.3a1.27,1.27,0,0,0,1.15,1.82h16.25a2.65,2.65,0,0,0,2.38-1.51l59.33-125.08A1.63,1.63,0,0,0-779.7,361Z" transform="translate(1378.73 -360.95)"/><path class="cls-1" d="M-914.49,361h-15.34a3.15,3.15,0,0,0-2.86,1.8l-59.44,125.3a1.27,1.27,0,0,0,1.15,1.82h16.24a2.65,2.65,0,0,0,2.39-1.51L-913,363.28A1.63,1.63,0,0,0-914.49,361Z" transform="translate(1378.73 -360.95)"/><path class="cls-1" d="M-1050,361h-15.34a3.17,3.17,0,0,0-2.86,1.8l-59.43,125.3a1.27,1.27,0,0,0,1.15,1.82h16.24a2.63,2.63,0,0,0,2.38-1.51l59.34-125.08A1.63,1.63,0,0,0-1050,361Z" transform="translate(1378.73 -360.95)"/><path class="cls-1" d="M-1183.94,361h-15.34a3.17,3.17,0,0,0-2.86,1.8l-59.43,125.3a1.27,1.27,0,0,0,1.15,1.82h16.24a2.63,2.63,0,0,0,2.38-1.51l59.34-125.08A1.63,1.63,0,0,0-1183.94,361Z" transform="translate(1378.73 -360.95)"/><rect class="cls-2" y="19.92" width="3300" height="13"/><rect class="cls-2" y="101.48" width="3300" height="13"/><path class="cls-1" d="M1921.27,456.48l-15,31.57a1.27,1.27,0,0,0,1.15,1.82h13.82Z" transform="translate(1378.73 -360.95)"/><path class="cls-1" d="M-1318.24,361h-15.34a3.15,3.15,0,0,0-2.86,1.8l-42.29,89.14v38h.24a2.65,2.65,0,0,0,2.39-1.51l59.33-125.08A1.63,1.63,0,0,0-1318.24,361Z" transform="translate(1378.73 -360.95)"/></svg>