<svg id="Layer_1" data-name="Layer 1" xmlns="http://www.w3.org/2000/svg" viewBox="0 0 3381.57 128.92"><defs><style>.cls-1{fill:#bf9177;}.cls-2{fill:#d0dbeb;}</style></defs><path class="cls-1" d="M1853.42,356.17h-15.34a3.18,3.18,0,0,0-2.86,1.81l-59.43,125.3a1.27,1.27,0,0,0,1.15,1.82h16.24a2.63,2.63,0,0,0,2.38-1.51l59.34-125.08A1.64,1.64,0,0,0,1853.42,356.17Z" transform="translate(1392.96 -356.17)"/><path class="cls-1" d="M1987,356.17h-15.35a3.16,3.16,0,0,0-2.85,1.81l-59.44,125.3a1.27,1.27,0,0,0,1.15,1.82h16.24a2.63,2.63,0,0,0,2.38-1.51l59.34-125.08A1.64,1.64,0,0,0,1987,356.17Z" transform="translate(1392.96 -356.17)"/><path class="cls-1" d="M1720.71,356.17h-15.34a3.18,3.18,0,0,0-2.86,1.81l-59.43,125.3a1.27,1.27,0,0,0,1.15,1.82h16.24a2.64,2.64,0,0,0,2.38-1.51l59.34-125.08A1.64,1.64,0,0,0,1720.71,356.17Z" transform="translate(1392.96 -356.17)"/><path class="cls-1" d="M1584.87,356.17h-15.34a3.18,3.18,0,0,0-2.86,1.81l-59.43,125.3a1.27,1.27,0,0,0,1.15,1.82h16.24a2.64,2.64,0,0,0,2.38-1.51l59.34-125.08A1.64,1.64,0,0,0,1584.87,356.17Z" transform="translate(1392.96 -356.17)"/><path class="cls-1" d="M1448.9,356.17h-15.34a3.16,3.16,0,0,0-2.86,1.81l-59.44,125.3a1.28,1.28,0,0,0,1.15,1.82h16.24a2.65,2.65,0,0,0,2.39-1.51l59.33-125.08A1.63,1.63,0,0,0,1448.9,356.17Z" transform="translate(1392.96 -356.17)"/><path class="cls-1" d="M1334,356.17h-15.34a3.18,3.18,0,0,0-2.86,1.81l-59.43,125.3a1.27,1.27,0,0,0,1.15,1.82h16.24a2.63,2.63,0,0,0,2.38-1.51l59.34-125.08A1.64,1.64,0,0,0,1334,356.17Z" transform="translate(1392.96 -356.17)"/><path class="cls-1" d="M1198.33,356.17H1183a3.18,3.18,0,0,0-2.86,1.81l-59.43,125.3a1.27,1.27,0,0,0,1.15,1.82h16.24a2.63,2.63,0,0,0,2.38-1.51l59.34-125.08A1.64,1.64,0,0,0,1198.33,356.17Z" transform="translate(1392.96 -356.17)"/><path class="cls-1" d="M1061,356.17h-15.35a3.18,3.18,0,0,0-2.86,1.81l-59.43,125.3a1.27,1.27,0,0,0,1.15,1.82h16.24a2.63,2.63,0,0,0,2.38-1.51l59.34-125.08A1.64,1.64,0,0,0,1061,356.17Z" transform="translate(1392.96 -356.17)"/><path class="cls-1" d="M933,356.17H917.65a3.17,3.17,0,0,0-2.86,1.81l-59.44,125.3a1.28,1.28,0,0,0,1.16,1.82h16.24a2.64,2.64,0,0,0,2.38-1.51l59.34-125.08A1.64,1.64,0,0,0,933,356.17Z" transform="translate(1392.96 -356.17)"/><path class="cls-1" d="M799.4,356.17H784.06A3.16,3.16,0,0,0,781.2,358l-59.44,125.3a1.28,1.28,0,0,0,1.15,1.82h16.24a2.65,2.65,0,0,0,2.39-1.51l59.33-125.08A1.63,1.63,0,0,0,799.4,356.17Z" transform="translate(1392.96 -356.17)"/><path class="cls-1" d="M665.88,356.17H650.54a3.17,3.17,0,0,0-2.86,1.81l-59.44,125.3a1.28,1.28,0,0,0,1.15,1.82h16.25a2.65,2.65,0,0,0,2.38-1.51l59.33-125.08A1.63,1.63,0,0,0,665.88,356.17Z" transform="translate(1392.96 -356.17)"/><path class="cls-1" d="M530.35,356.17H515a3.18,3.18,0,0,0-2.86,1.81l-59.43,125.3a1.27,1.27,0,0,0,1.15,1.82h16.24a2.63,2.63,0,0,0,2.38-1.51l59.34-125.08A1.64,1.64,0,0,0,530.35,356.17Z" transform="translate(1392.96 -356.17)"/><path class="cls-1" d="M396.5,356.17H381.16A3.18,3.18,0,0,0,378.3,358l-59.43,125.3A1.27,1.27,0,0,0,320,485.1h16.24a2.63,2.63,0,0,0,2.38-1.51L398,358.51A1.64,1.64,0,0,0,396.5,356.17Z" transform="translate(1392.96 -356.17)"/><path class="cls-1" d="M280.72,356.17H265.38a3.18,3.18,0,0,0-2.86,1.81l-59.43,125.3a1.27,1.27,0,0,0,1.15,1.82h16.24a2.63,2.63,0,0,0,2.38-1.51L282.2,358.51A1.64,1.64,0,0,0,280.72,356.17Z" transform="translate(1392.96 -356.17)"/><path class="cls-1" d="M146.75,356.17H131.41a3.16,3.16,0,0,0-2.86,1.81L69.11,483.28a1.28,1.28,0,0,0,1.15,1.82H86.5a2.65,2.65,0,0,0,2.39-1.51l59.33-125.08A1.63,1.63,0,0,0,146.75,356.17Z" transform="translate(1392.96 -356.17)"/><path class="cls-1" d="M8.72,356.17H-6.62A3.17,3.17,0,0,0-9.48,358l-59.44,125.3a1.28,1.28,0,0,0,1.16,1.82h16.24a2.64,2.64,0,0,0,2.38-1.51L10.2,358.51A1.64,1.64,0,0,0,8.72,356.17Z" transform="translate(1392.96 -356.17)"/><path class="cls-1" d="M-122.46,356.17H-137.8a3.17,3.17,0,0,0-2.86,1.81l-59.44,125.3a1.28,1.28,0,0,0,1.15,1.82h16.25a2.65,2.65,0,0,0,2.38-1.51L-121,358.51A1.64,1.64,0,0,0-122.46,356.17Z" transform="translate(1392.96 -356.17)"/><path class="cls-1" d="M-258.68,356.17H-274a3.16,3.16,0,0,0-2.86,1.81l-59.44,125.3a1.28,1.28,0,0,0,1.15,1.82h16.24a2.65,2.65,0,0,0,2.39-1.51l59.33-125.08A1.63,1.63,0,0,0-258.68,356.17Z" transform="translate(1392.96 -356.17)"/><path class="cls-1" d="M-390.2,356.17h-15.34A3.18,3.18,0,0,0-408.4,358l-59.43,125.3a1.27,1.27,0,0,0,1.15,1.82h16.24a2.63,2.63,0,0,0,2.38-1.51l59.34-125.08A1.64,1.64,0,0,0-390.2,356.17Z" transform="translate(1392.96 -356.17)"/><path class="cls-1" d="M-529.32,356.17h-15.34a3.17,3.17,0,0,0-2.86,1.81L-607,483.28a1.28,1.28,0,0,0,1.16,1.82h16.24a2.64,2.64,0,0,0,2.38-1.51l59.34-125.08A1.64,1.64,0,0,0-529.32,356.17Z" transform="translate(1392.96 -356.17)"/><path class="cls-1" d="M-661.17,356.17h-15.34a3.18,3.18,0,0,0-2.86,1.81l-59.43,125.3a1.27,1.27,0,0,0,1.15,1.82h16.24a2.63,2.63,0,0,0,2.38-1.51l59.34-125.08A1.64,1.64,0,0,0-661.17,356.17Z" transform="translate(1392.96 -356.17)"/><path class="cls-1" d="M-776.66,356.17H-792a3.18,3.18,0,0,0-2.86,1.81l-59.43,125.3a1.27,1.27,0,0,0,1.15,1.82h16.24a2.64,2.64,0,0,0,2.38-1.51l59.34-125.08A1.64,1.64,0,0,0-776.66,356.17Z" transform="translate(1392.96 -356.17)"/><path class="cls-1" d="M-911.45,356.17h-15.34a3.17,3.17,0,0,0-2.86,1.81l-59.44,125.3a1.28,1.28,0,0,0,1.15,1.82h16.25a2.65,2.65,0,0,0,2.38-1.51L-910,358.51A1.63,1.63,0,0,0-911.45,356.17Z" transform="translate(1392.96 -356.17)"/><path class="cls-1" d="M-1046.95,356.17h-15.34a3.16,3.16,0,0,0-2.86,1.81l-59.44,125.3a1.28,1.28,0,0,0,1.15,1.82h16.24a2.65,2.65,0,0,0,2.39-1.51l59.33-125.08A1.63,1.63,0,0,0-1046.95,356.17Z" transform="translate(1392.96 -356.17)"/><path class="cls-1" d="M-1180.89,356.17h-15.35a3.16,3.16,0,0,0-2.85,1.81l-59.44,125.3a1.28,1.28,0,0,0,1.15,1.82h16.24a2.63,2.63,0,0,0,2.38-1.51l59.34-125.08A1.64,1.64,0,0,0-1180.89,356.17Z" transform="translate(1392.96 -356.17)"/><path class="cls-1" d="M-1315.2,356.17h-15.34a3.17,3.17,0,0,0-2.86,1.81l-59.44,125.3a1.28,1.28,0,0,0,1.16,1.82h16.24a2.64,2.64,0,0,0,2.38-1.51l59.34-125.08A1.64,1.64,0,0,0-1315.2,356.17Z" transform="translate(1392.96 -356.17)"/><rect class="cls-2" x="6.3" y="19.92" width="3326.09" height="13"/><rect class="cls-2" x="6.3" y="101.48" width="3326.09" height="13"/></svg>