<svg id="Layer_1" data-name="Layer 1" xmlns="http://www.w3.org/2000/svg" viewBox="0 0 179.7 292.09"><defs><style>.cls-1{fill:#f6e291;}.cls-2{fill:#e5cf7e;}</style></defs><path class="cls-1" d="M293.71,255.62c-1.16,2.38-17,40.68-17,40.68s-36.12-14.12-39-15.78-6.64.42-4.57,5.4l15.78,37.78s-36.53,15.77-39.44,17.85-2.49,6.23,1.24,7.47,36.95,16.61,36.95,16.61-15.13,39-16.28,41.93.51,4.56,4.66,3.32,40.27-17,40.27-17,18,36,21.26,37.91,5-.2,6.18-3.1S319,391.37,319,391.37s35.7,17,39,17.85,4.57-1.66,2.9-6.23-16.19-39-16.19-39,37.78-14.53,40.27-15.78,4.15-5.4-2.49-8.3-36.95-15.36-36.95-15.36,16.19-36.95,16.61-40.27-2.49-7.47-8.72-3.74-34,17.3-34,17.3-17-39.3-18.27-42.2S295.68,251.6,293.71,255.62Z" transform="translate(-207.53 -253)"/><path class="cls-2" d="M302.89,322.47c-.61-13.8-7.58-18-9.43-3-.17,1.43-.41,84.24-.41,86.28,0,4.93.65,135.56,1.68,137.54s6.76,2.71,8.6,0C304.85,541.09,303.06,326.25,302.89,322.47Z" transform="translate(-207.53 -253)"/><path class="cls-2" d="M321.94,339.93c7.22-11.78,3.8-19.16-6.15-7.74-.39.45-18.25,26.58-18.25,26.58l.13,17.8S321.38,340.84,321.94,339.93Z" transform="translate(-207.53 -253)"/><path class="cls-2" d="M271.18,353.28c-7.85-11.37-16-11.23-9.56,2.5.25.54,7.93,13,16.91,27.43,6.41,10.33,13.47,21.7,19,30.54,5.37,8.64-2.64-23.44-2.64-23.44S271.78,354.16,271.18,353.28Z" transform="translate(-207.53 -253)"/></svg>