<svg id="Layer_1" data-name="Layer 1" xmlns="http://www.w3.org/2000/svg" viewBox="0 0 143.24 218.42"><defs><style>.cls-1{fill:#78bfe0;}.cls-2{fill:#4a73b8;}</style></defs><path class="cls-1" d="M304,289.17c-9.91,0-54.21,28.16-57,31.62s-10.15,47.34-12,51.95-8.07,6.91-8.3,9.68-2.3,26,2.77,29.26,33.64.23,36.18,1.62,2.3,8.75,8.75,11.29,48.4,3.45,55.31,0,9-10.14,11.06-11.29,18.44,2.36,22.36-2.63,8.06-36.78,5.3-44.62-15.68-15.44-18.9-19.35-1.84-25.12-5.53-32S311.63,289.17,304,289.17Z" transform="translate(-226.16 -289.17)"/><path class="cls-2" d="M327.74,355.84c-1.45,1.65-13.65,18.72-27.18,37.76,0-15.83-.55-53.5-.74-57-.69-12.91-8.52-16.83-10.6-2.77-.19,1.33-.31,12.46-.37,26-4.36-7.79-7.83-13.92-8.57-15.14-6.74-11-15.49-10.76-10.64,2.59.63,1.72,9.9,19.16,19.14,36.37,0,15.41,0,28.89,0,30.79,0,4.61-.23,89.64.92,91.48s7.61,2.54,9.68,0c1.71-2.08,1.23-66.55,1.14-94.91a67.89,67.89,0,0,0,9.2-10.38c11.58-16.69,22.84-33,24.45-35.52C344.05,349.91,340.84,340.89,327.74,355.84Z" transform="translate(-226.16 -289.17)"/></svg>