<svg xmlns="http://www.w3.org/2000/svg" viewBox="0 0 160.88 218.53"><defs><style>.cls-1{fill:#ffc7da;}.cls-2{fill:#d58aa3;}</style></defs><g id="Layer_1" data-name="Layer 1"><path class="cls-1" d="M786.07,665.39s-49.28-26.1-65.87-76.86c-16.91-51.73,7.16-86.1,32.94-92.54s46,18.83,46,18.83,22.49-16.73,46-8.89,40.67,41.25,23,75.28C839.4,636.63,786.07,665.39,786.07,665.39Z" transform="translate(-714.56 -494.94)"/><path class="cls-2" d="M833.67,574.79c-2.89-2.52-11.91,9.39-17.87,16.07-4.34,4.87-17,18.68-23.6,25.78.62-17,1.27-37.14,1.41-41.2.61-17.5-.45-18.87-2.43-18.71-2.53-.18-4.52,7.1-5.3,13.17-.43,3.29-1.47,16-1.86,22.87-6.7-10.44-18.42-28.68-19.9-30.9-2.1-3.14-4.76-8.65-7.85-6.8-3.5,2.1,6,18.63,10.66,27.52,3.48,6.57,11.48,20,16,29-.4,6.88-.69,11.94-.69,11.94l-2.53,51.07-1.08,35.73,2,1.72a6.11,6.11,0,0,0,8.14-.26l1.9-1.82s.51-52.76.89-74.37c4.36-5.83,11.32-15.09,17.52-23.08C819.05,599.7,837,577.67,833.67,574.79Z" transform="translate(-714.56 -494.94)"/></g></svg>