<svg xmlns="http://www.w3.org/2000/svg" viewBox="0 0 238.27 302.41"><defs><style>.cls-1{fill:#c9f1c0;}.cls-2{fill:#9cc992;}.cls-3{fill:#fff;}</style></defs><g id="Layer_1" data-name="Layer 1"><path class="cls-1" d="M803.19,449c-19.48,0-46.71,17.78-62.21,45s-36.15,76.3-26.52,111.51,45.17,60.6,86,60.6c28.29,0,62.74-9.51,79.23-37.83,19.76-33.94,4.64-86.63-14.56-123.27C850.54,477.06,832.06,449,803.19,449Z" transform="translate(-677.16 -448.95)"/><path class="cls-2" d="M842.43,608.23c2.84-4.16,9.86-17.61,7.71-19.61-1.6-1.49-5.95.63-8.73,3.67-3.79,4.15-10.72,13.33-16,20.78-4.46,6.35-11.26,17.06-15.27,23.46.4-25.41.9-56,.87-60.31-.06-6.91,1.52-23-4.45-23.14-3-.1-6.46,5.68-7.38,12.28-.58,4.14-2.79,29.77-4.41,56.26-5.55-6.47-14.94-17.48-20-23.52-7.44-8.92-15.31-17.63-17.85-19.66-2-1.6-5.34-3.09-6.94-1.6-2.16,2,2.54,10,5.66,13.95,4.47,5.66,29.18,37.13,38.2,47-.5,10.15-.84,19.79-.89,27.69-.19,32.25.27,70.39,1.4,78.4s14.13,10.74,15,2.42.28-65.17.28-76c0-2.27.06-7.41.15-14.17C818.56,644,837.1,616,842.43,608.23Z" transform="translate(-677.16 -448.95)"/><path class="cls-3" d="M915.42,648.71l-12-.17c.06-6.12-2-23-12-27.2-6.58-2.77-13.35-1.69-21.93-.33-8.89,1.42-20,3.18-33.64.73-12.47-2.23-24-10.8-31.55-17.59l-1.43-1.31c-13.76,3.48-26.81,2.23-34.64-.2-2.51-.77-5.42-1.81-8.51-2.91-15.29-5.44-38.4-13.67-52.93-4.82-20.27,12.34-17.57,36.18-17.44,37.19l-11.9,1.53c-.18-1.32-3.93-32.51,23.1-49,19.41-11.82,45.76-2.44,63.19,3.77,3.1,1.1,5.77,2.05,8,2.75a52.61,52.61,0,0,0,21.3,1.34,124.57,124.57,0,0,1-12.57-17.58,51.72,51.72,0,0,1-6.78-32.66c1.43-10.79,6.48-20,13.85-25.16a20.81,20.81,0,0,1,16.82-3.46A41.42,41.42,0,0,1,811.8,508c8.05-4.89,17.26-3.78,24.65,3,11.89,10.91,18,35.67,6,60.07a58.42,58.42,0,0,1-26.74,27.08c7.34,6.06,15.1,10.52,22.28,11.81,11.69,2.09,20.81.63,29.63-.77,9.64-1.53,18.74-3,28.49,1.13C915.61,618.54,915.44,647.48,915.42,648.71ZM796.12,526a11.1,11.1,0,0,0-1.64,1c-9.42,6.65-13.22,25.52-3.63,42a115.81,115.81,0,0,0,15.34,20.31,46.83,46.83,0,0,0,25.46-23.48c7-14.18,7.74-35.77-3.31-45.9-5.15-4.72-9-2.36-10.31-1.59-.82.5-1.61,1-2.35,1.58,5.84,5.41,9.83,13.59,10.9,22.92,1.72,14.87-5.46,19.18-8.63,20.34-6.53,2.39-14.71-1-19.44-8.12-4.27-6.41-5.77-15.62-3.9-24A33.43,33.43,0,0,1,796.12,526Zm11.77,3a21.27,21.27,0,0,0-1.56,4.55c-1.42,6.38.28,11.94,2.17,14.77s4.79,3.78,5.33,3.51c.26-.16,1.47-2.13.83-7.69C814,537.92,811.43,532.45,807.89,529Z" transform="translate(-677.16 -448.95)"/></g></svg>