<svg id="Layer_1" data-name="Layer 1" xmlns="http://www.w3.org/2000/svg" viewBox="0 0 184.96 222.1"><defs><style>.cls-1{fill:#93b2de;}.cls-2{fill:#628dc9;}</style></defs><path class="cls-1" d="M324.65,326.21s-11.8-20.12-30.53-18.73-30.18,18.73-30.18,18.73-19.08-7.28-28.79,3.12-11.45,20.12-11.45,20.12S203.59,354,205,371.31s14.22,28.79,14.22,28.79-16.65,11.1-8.67,27.75S231,439,231,439s-4.63,12.49,8.18,25.35c13,13.05,28.94,4.48,28.94,4.48s7.74,14.69,16.76,15.73S299,478.15,299,478.15s16,6.93,28.44.69,10.06-16.3,10.06-16.3,18.73,9.36,27.06,1,2.77-21.51,2.77-21.51,17.35,0,20.12-13.53-4.16-20.46-4.16-20.46,9.3-14.26,5.81-29.85C384.2,356.39,366.62,354,366.62,354s.49-11.65-13.68-21.08C335.63,321.35,324.65,326.21,324.65,326.21Z" transform="translate(-204.9 -307.41)"/><path class="cls-2" d="M298.32,528.78c-19.63,8-4.82-52.16-8.13-56.53,2.21-.81-56.86-82.25-36.43-70.24.65-.15,9.85,19.61,10.71,17.21l-.3-9.15c5.7-8.31,6,21.78,10,24l14.06,23c3.67,2.52-2.57-51.61-2.73-53.7C285,397,249,366.94,260.35,364.41c5,2.63,18.08,27,23.89,26a.91.91,0,0,0,.7-.94c-.17-6.58-.58-22.45,1.61-27.95,10.08-18.62,7.52,73.74,12.9,72.6,1.9.41,27.13-82.06,31.67-68l-14,41c1.29,5.45,32.46-29.75,33.75-22.25-23.73,25.62-38.42,25.58-49.76,65.2C299.17,463.49,306.91,518.64,298.32,528.78Z" transform="translate(-204.9 -307.41)"/></svg>