<svg id="Layer_1" data-name="Layer 1" xmlns="http://www.w3.org/2000/svg" viewBox="0 0 133.46 207.73"><defs><style>.cls-1{fill:#cae2be;}.cls-2{fill:#9cc993;}</style></defs><path class="cls-1" d="M291.61,308.33s20.54-39.15,50-29.16,25.94,74.75,7.69,112.32-37.11,60.32-47.66,59.77-61.05-47.09-69.26-84.84,4.88-61.77,27.07-67.82C277.73,293.6,291.61,308.33,291.61,308.33Z" transform="translate(-229.87 -277.54)"/><path class="cls-2" d="M327.52,368.85c-2.78-1.23-6.67,5.11-8.61,8.6-1.15,2.07-6.22,12.62-10.17,20.88-.09-18.66-1.29-53.68-2.19-62.3-.75-7.18-5.14-11.45-5.72-2.33-.14,2.24-1.37,28.06-2.31,49.17-6.29-10.16-29.65-47.13-33.47-41.95-2.07,2.8,24.66,42.06,33.05,51.52-.36,8.27-.63,14.79-.68,17.18,0,1.63-.09,5-.15,9.34-5-9.6-12.09-23-13-24.68-1.36-2.43-4.27-3.3-4.08,0s1.75,10.29,5.24,17.48a208.08,208.08,0,0,0,11.71,20.44c-.24,19.91-.47,45.72-.21,49.65.39,6,11.84,3.1,12.62-1.17.63-3.46-.55-41-.82-62.53,1.38-3,3.05-6.74,3.89-8.72,1.55-3.69,11.39-23.89,12.77-28.76C326,378.33,329.26,369.62,327.52,368.85Z" transform="translate(-229.87 -277.54)"/></svg>