<svg id="Layer_1" data-name="Layer 1" xmlns="http://www.w3.org/2000/svg" viewBox="0 0 91.84 186.34"><defs><style>.cls-1{fill:#cae2be;}.cls-2{fill:#9cc993;}</style></defs><path class="cls-1" d="M251.06,344c0,4.86.39,119.2,1,122.69s1,8,7.57,8.95,63.24,1,68.51.78,12.45-2.72,12.84-11.26,3.11-119,1.36-126.4-7-11.45-13.59-11.65-59.34,1-65.05,1.36S251.05,335.05,251.06,344Z" transform="translate(-251.06 -327.07)"/><path class="cls-2" d="M317.66,422.42c-1,1.72-8.08,15.09-13.05,24.69-.06-4.38-.11-7.72-.15-9.35-.2-8.73-3.18-72.34-3.41-75.91-.58-9.13-5-4.86-5.72,2.33-.9,8.61-2.1,43.63-2.19,62.3-3.95-8.27-9-18.82-10.17-20.88-1.94-3.5-5.83-9.84-8.61-8.61-1.74.77,1.52,9.48,2.18,11.82,1.38,4.88,11.22,25.07,12.77,28.76.84,2,2.52,5.7,3.89,8.72-.27,21.49-1.45,59.08-.82,62.54.78,4.27,12.23,7.18,12.62,1.16.26-3.92,0-29.74-.21-49.64A209.32,209.32,0,0,0,316.5,439.9c3.49-7.19,5.05-14.17,5.24-17.48S319,420,317.66,422.42Z" transform="translate(-251.06 -327.07)"/></svg>