<svg id="Layer_1" data-name="Layer 1" xmlns="http://www.w3.org/2000/svg" viewBox="0 0 192.5 231.16"><defs><style>.cls-1{fill:#93b2de;}.cls-2{fill:#628dc9;}</style></defs><path class="cls-1" d="M269.37,322.33s12.27-20.94,31.77-19.5,31.4,19.5,31.4,19.5,19.86-7.58,30,3.25,11.91,20.94,11.91,20.94,20.94,4.69,19.5,22.74-14.8,30-14.8,30,17.33,11.55,9,28.88-21.3,11.55-21.3,11.55,4.82,13-8.51,26.38c-13.52,13.59-30.12,4.67-30.12,4.67s-8.06,15.28-17.45,16.37-14.68-6.62-14.68-6.62-16.61,7.22-29.6.72-10.47-17-10.47-17-19.5,9.75-28.16,1.08S225,442.91,225,442.91s-18.05,0-20.94-14.08,4.33-21.3,4.33-21.3-9.68-14.84-6-31.06c5.09-22.73,23.38-25.26,23.38-25.26s-.5-12.12,14.24-21.94C257.93,317.28,269.37,322.33,269.37,322.33Z" transform="translate(-201.49 -302.76)"/><path class="cls-2" d="M296.76,533.15c20.44,8.37,5-54.28,8.47-58.83-2.3-.84,59.18-85.6,37.91-73.11-.67-.15-10.25,20.42-11.14,17.92l.3-9.52c-5.93-8.65-6.28,22.67-10.38,25l-14.64,23.92c-3.81,2.62,2.69-53.71,2.85-55.89.51-6.57,38-37.88,26.15-40.51-5.19,2.74-18.81,28.11-24.86,27.05a1,1,0,0,1-.73-1c.18-6.85.6-23.37-1.67-29.1-10.49-19.37-7.83,76.76-13.43,75.56-2,.43-28.24-85.4-33-70.78l14.56,42.67c-1.34,5.68-33.78-31-35.12-23.15,24.69,26.66,40,26.62,51.78,67.86C295.88,465.2,287.83,522.6,296.76,533.15Z" transform="translate(-201.49 -302.76)"/></svg>