<svg id="Layer_1" data-name="Layer 1" xmlns="http://www.w3.org/2000/svg" viewBox="0 0 131.06 161.03"><defs><style>.cls-1{fill:#9b6d5f;}.cls-2{fill:#71cb69;}</style></defs><path class="cls-1" d="M749.28,680.6v13a5.7,5.7,0,0,0,2.16,4.53,14.52,14.52,0,0,0,9.07,2.94,19.49,19.49,0,0,0,8.64-1.92,5.84,5.84,0,0,0,3.28-5.24v-16Z" transform="translate(-696.76 -540)"/><path class="cls-2" d="M820.57,676.85c-24.57,13.28-58.36,12.6-58.36,12.6s-33.7.68-58.21-12.6,21.11-65.7,21.11-65.7c-8.85-15.66,15-39.49,15-39.49C735,559.4,753.7,540.34,762.21,540c8.53.34,27.3,19.4,22.18,31.66,0,0,23.89,23.83,15,39.49C799.41,611.15,845.14,663.57,820.57,676.85Z" transform="translate(-696.76 -540)"/></svg>