<svg id="Layer_1" data-name="Layer 1" xmlns="http://www.w3.org/2000/svg" viewBox="0 0 234.52 197.41"><defs><style>.cls-1{fill:#f8c6d0;}.cls-2{fill:#eba5b0;}</style></defs><path class="cls-1" d="M296.27,304.09s7.27-4.82,13.6-4.71,11.23,4.36,11.23,4.36a18.36,18.36,0,0,1,11.22-3.43c6.23.42,9.56,6.24,9.56,6.24s11.32-2.81,19.11,1.66c4,2.27,4.57,8.1,4.57,8.1s10.07-.62,16.54,5.66,6.64,15.27,6.64,15.27,10.24,2.69,12,8.62-.18,12.75-.18,12.75,11.5,7.54,12.93,18.31S411,393.44,411,393.44s5.57,12.22,1.61,20.66-9,7.54-9,7.54-.07,8.74-6.68,12.63c-5.47,3.21-13.4.75-13.4.75s-4.82,6.64-11.36,7.18c-5.22.43-9.87-4-9.87-4s-5.39,3.57-11.14,3.39a8.7,8.7,0,0,1-7.71-5.19s-7,2.34-11.31,1.44-8.62-5.75-8.62-5.75-8.48,3.75-17.55,2.35c-7.1-1.09-15.48-4.73-15.48-4.73a21.49,21.49,0,0,1-9.14,4.91c-6.26,1.32-13.35-2.45-13.35-2.45a22.11,22.11,0,0,1-13.63,6.57,12.46,12.46,0,0,1-12.66-6s-6.55,2.25-12.75.14-7.52-7-7.52-7-8.57,2.37-16.22-.4-7.65-8.17-7.65-8.17-7-.4-9.89-4.22a14.66,14.66,0,0,1-2.63-8.71s-5.28-3.22-5.54-8.3a16.41,16.41,0,0,1,4.74-12.4S181.92,372,187.59,365s10.55-8.17,10.55-8.17.4-7.54,5.14-12c4.49-4.22,11.21-4.75,11.21-4.75s2.11-7.39,7.52-11.21a25.06,25.06,0,0,1,12-4.09s2.51-5,7.12-7.38S252,315.78,252,315.78s5.4-5.94,10.41-7.65,12.53-.79,12.53-.79,5.54-4.09,10.42-4.62S296.27,304.09,296.27,304.09Z" transform="translate(-179.53 -299.37)"/><path class="cls-2" d="M292.35,369.42c-1.72,4.8-4.37,97.37-4.37,103.69s-1,20.88,2.92,23.07,10-1.94,11.17-6.32l1.21-4.37s-.73-55.12-1-69.93-1.21-44.2-1.7-46.63l-.49-2.43S295.75,360,292.35,369.42Z" transform="translate(-179.53 -299.37)"/><path class="cls-2" d="M296.84,438.94c2.43-5.58,8.14-20.47,18.1-32.13s31.85-29.16,45.67-36.41c10.4-5.46,16.2-6.82,18.07-6.14s-.51,3.75-4.43,5.8-31.07,17.86-44.16,31.2c-18.08,18.41-29.5,43-32.57,50.81Z" transform="translate(-179.53 -299.37)"/><path class="cls-2" d="M349.35,365.62c1.71-.85,5.46-1.36,3.58,2.39s-6.47,15.18-6.47,15.18l-16.88,13.12s6.47-14.49,9.88-19.43S348,366.31,349.35,365.62Z" transform="translate(-179.53 -299.37)"/><path class="cls-2" d="M296.06,417.8A84.6,84.6,0,0,0,286,405.32c-10.85-10.83-33.32-25-47.67-31.13-10.8-4.61-16.69-5.5-18.51-4.67s.81,3.69,4.88,5.42,32.78,14,46.9,26.26c9.31,8.08,17.13,18,23.16,26.94C301.31,437.94,301.55,425.93,296.06,417.8Z" transform="translate(-179.53 -299.37)"/><path class="cls-2" d="M243.64,364.09c-1.49-.8-4.86-.31-2.47,3s10.5,16.61,10.5,16.61l17,9.64s-8.79-12.75-12.53-17.11C252,371.42,245.76,365.21,243.64,364.09Z" transform="translate(-179.53 -299.37)"/></svg>