<svg xmlns="http://www.w3.org/2000/svg" viewBox="0 0 159.07 207.25"><defs><style>.cls-1{fill:#c9f1c0;}.cls-2{fill:#9cc992;}</style></defs><g id="Layer_1" data-name="Layer 1"><path class="cls-1" d="M768.53,499.68c-12.67,3.9-21.44,18-18.52,29.74a16.43,16.43,0,0,0-12.19,9.75c-3.9,8.77,0,14.13,0,14.13s-11.21,2.44-15.11,16.09,2,22.59,2,22.59-12.4,11.61-9.05,26,14.56,18.89,14.56,18.89.39,13.58,12.79,21.25,23.22,3.15,23.22,3.15,5.31,8.66,14.76,11.41a21.79,21.79,0,0,0,16.92-2.16,18.76,18.76,0,0,0,18.1,3c10.43-3.79,10-11.27,10-11.27s11.61,2.76,19.28-3.34S868.54,589,868.54,589s8.27-12.2,4.72-27.35-16.33-18.1-16.33-18.1-.2-10.83-8.85-16.73S829,524.29,829,524.29,824.27,518,818.56,516s-12.4-.59-12.4-.59-5.7-12.43-15.74-15.76S768.53,499.68,768.53,499.68Z" transform="translate(-715.07 -498.2)"/><path class="cls-2" d="M847.34,559.12c-1.67-1.31-5.16,1.72-8,4.81a54.85,54.85,0,0,0-6.47,8.47c-5.33,8.52-20.11,32-22.34,34.88a70,70,0,0,0-4,5.87l.14-51.45s.26-12-5.19-11.93c-4.48.08-4.23,12.77-4.23,16.75,0,.82-.11,3.68-.29,7.7-1.11-1.63-2.18-3.15-2.92-4.35-4.41-7.12-11.28-18.1-16.91-18.1-3,2.11,6.48,20.47,12.26,29.47,1.44,2.25,3,4.44,4.62,6.55.21.26,1.12,1.7,2.15,3.29-.73,15-1.55,31.13-1.55,31.13l-1,25.35c-2.33-2.57-5.7-6.17-8.15-8.41-1.3-1.19-3.37-3.24-5.67-5.57.33-3.75.71-8.64.81-12.16.2-6.5.22-11.08-2.29-11.66-3.36-.77-5,8.61-5.35,12.62a39.12,39.12,0,0,0-.17,4c-2.6-2.69-4.75-4.95-5.59-5.81-2.85-3-4.77-1.37-4.77-1.37-2.39,1.71,5.45,11.42,6.64,13.29s14.82,18.74,18.74,23.17c2.2,2.49,4.06,4.49,5.27,5.77l-.89,23.37v16.54s2.95,5.86,8.59,3.56a8.86,8.86,0,0,0,5.86-7.33l-.31-22.94.12-45.71c5.19-7.57,14.5-21.22,18.6-27.5,5.84-8.94,16.69-25.64,19.56-31.12C846.39,567,849.89,561.13,847.34,559.12Z" transform="translate(-715.07 -498.2)"/></g></svg>