<svg id="Layer_1" data-name="Layer 1" xmlns="http://www.w3.org/2000/svg" viewBox="0 0 224.25 211.7"><defs><style>.cls-1{fill:#d0cad2;}.cls-2{fill:#e7e0e9;}.cls-3{fill:#b1a4b6;}.cls-4{fill:#f6b3ba;}.cls-5{fill:#f0827a;}.cls-6{fill:#fff;}</style></defs><path class="cls-1" d="M191.1,393.37s.25,105.79.48,109a11.26,11.26,0,0,0,4.07,7.66c3,2.5,16.45,15.3,20.2,16.4l3-3.94-1.91-109Z" transform="translate(-185.11 -316.35)"/><path class="cls-2" d="M213.13,412.29s-.48,104.19,0,108.5,1.92,6.23,6.47,6.71,176.76,1,180.35,0,4.55-3.36,4.55-5.75,1-113.29,1-113.29l-96.29-63Z" transform="translate(-185.11 -316.35)"/><path class="cls-3" d="M291.27,479.44a2,2,0,0,1-1.17-3.63c3-2.14,8-6.58,8.65-9.4.72-3-2.5-8.08-3.69-9.64a2,2,0,0,1,3.18-2.43c.58.77,5.7,7.65,4.39,13-1.26,5.17-9.29,11.05-10.2,11.7A2,2,0,0,1,291.27,479.44Z" transform="translate(-185.11 -316.35)"/><path class="cls-3" d="M322.57,471.58a2,2,0,0,1-1.42-.58c-3.41-3.42-11.93-5.24-19.74-2.24A2,2,0,1,1,300,465c8.6-3.3,18.92-1.94,24,3.15a2,2,0,0,1,0,2.83A2,2,0,0,1,322.57,471.58Z" transform="translate(-185.11 -316.35)"/><path class="cls-3" d="M342.91,435.8c-3.09.23-6.2,4.8-5.76,10.37.38,4.76,3.45,8.57,6.53,8.57,4.19,0,6.73-4.21,6.53-9.47C350,439,346.37,435.54,342.91,435.8Z" transform="translate(-185.11 -316.35)"/><path class="cls-3" d="M280.16,433.9c-3.09-.17-6.76,4-7,9.55-.23,4.77,2.34,8.94,5.39,9.34,4.16.53,7.22-3.33,7.68-8.58C286.75,438,283.62,434.08,280.16,433.9Z" transform="translate(-185.11 -316.35)"/><ellipse class="cls-4" cx="69.23" cy="147.76" rx="11.94" ry="12.35"/><ellipse class="cls-4" cx="180.17" cy="153.73" rx="11.94" ry="12.35"/><path class="cls-5" d="M306.6,352.86a5.94,5.94,0,0,1,6.7-.16c16.67,10.74,89,57.36,92.19,58.64,3.56,1.43,5.48-1.44,2.12-5.51s-22.27-21.42-25.15-24.72S292.17,323.44,290,322a6.43,6.43,0,0,0-7.4-.24c-2.42,1.68-94.15,62.75-95.82,64.19a6.16,6.16,0,0,0-.24,8.18c2.39,2.6,21.31,21.28,23.23,22.71s4.07,1.44,7.19-.36C219.72,414.89,290.38,364.44,306.6,352.86Z" transform="translate(-185.11 -316.35)"/><path class="cls-6" d="M285.92,330.94c-7.08-1.57-17.1,7.86-14.94,15.33s16.31,7.46,21.22,2.55S294.79,332.91,285.92,330.94Z" transform="translate(-185.11 -316.35)"/><path class="cls-6" d="M221.07,374c-5.33-3.18-13.11.63-17.48,5.87-3.84,4.59-4.32,10.95-.57,13.59,3.95,2.78,13.14.36,17.27-4.36S225.85,376.86,221.07,374Z" transform="translate(-185.11 -316.35)"/><path class="cls-2" d="M336.13,340.54s-1.62,11.55.23,17.13c2.18,6.58,15.26,7.46,17.13,1.09,1.58-5.39.78-17.26.78-17.26Z" transform="translate(-185.11 -316.35)"/><path class="cls-5" d="M323.75,332.36c-.24,6.31,5.72,11.66,22.42,12.77,15.26,1,22.26-.06,23.13-5.92,1.09-7.39-7.09-20.24-19.62-22.5S324.09,323.1,323.75,332.36Z" transform="translate(-185.11 -316.35)"/><path class="cls-6" d="M343.29,330.91a4.26,4.26,0,1,0-1.48,8.38,4.36,4.36,0,0,0,5-3.66A4.27,4.27,0,0,0,343.29,330.91Z" transform="translate(-185.11 -316.35)"/><path class="cls-6" d="M360,336.09a3.41,3.41,0,0,0-3.78,2.32,3.28,3.28,0,0,0,2.69,3.67,3.2,3.2,0,0,0,3.67-2.61A3.08,3.08,0,0,0,360,336.09Z" transform="translate(-185.11 -316.35)"/><path class="cls-6" d="M358.21,333.25c1.79-.78,3.21-3.55,1.66-6.9-1-2.12-4.64-4.76-7.41-3.53s-2.54,5-1.18,7.28S355.66,334.36,358.21,333.25Z" transform="translate(-185.11 -316.35)"/><path class="cls-6" d="M335.92,318.3a22.22,22.22,0,0,0-9.72,7.39,6.16,6.16,0,0,0,7.32,2.93c2.36-.7,5.37-4.45,4.09-8A5.05,5.05,0,0,0,335.92,318.3Z" transform="translate(-185.11 -316.35)"/><path class="cls-6" d="M376.12,393c-.11-5.92-2.36-14.51-13-20.41-9.87-5.48-17.92-4.33-22.83-2.51C351.77,377.44,364.76,385.77,376.12,393Z" transform="translate(-185.11 -316.35)"/><path class="cls-6" d="M281.82,370.54c-5.52-4.64-16.53-10.36-30.68.29-10.15,7.64-10,20.34-8.86,27.87C254.52,390,269.24,379.52,281.82,370.54Z" transform="translate(-185.11 -316.35)"/></svg>