<svg xmlns="http://www.w3.org/2000/svg" viewBox="0 0 193.77 353.32"><defs><style>.cls-4{fill:#515681}.cls-5{fill:#f5837a}</style></defs><g id="Layer_1" data-name="Layer 1"><path d="M696.22 502S696 732.91 696 737.12s.18 8 2.93 12.26 15.18 22 15.18 22V518.07z" transform="translate(-692.46 -420.7)" fill="#ebf1f4"/><path d="M711.64 764.11c.37 2.95.62 9.71 9.71 9.87s144.4-.4 150.13 0 9-1.7 9-6.92 1.61-258.95 1.61-258.95l-77-63.39-93.52 75.4s-.46 239.88.07 243.99z" transform="translate(-692.46 -420.7)" fill="#fff"/><path d="M742.93 712.59c-12.57.82-18.54 10.29-18.67 20.86s8.48 19.58 18.67 19.72 21-5.59 21.58-19.86-12.68-21.31-21.58-20.72zm111.27 1.96c-12.58.82-18.54 10.29-18.67 20.86S844 755 854.2 755.13s21-5.59 21.58-19.86S863.1 714 854.2 714.55z" transform="translate(-692.46 -420.7)" style="fill:#fdcbcb"/><path class="cls-4" d="M796.49 727.77a2.35 2.35 0 0 1-1.56-4.11c.16-.15 4-3.54 5.08-4.45 2.35-1.93 5.09-2.17 7.16-.64 1.53 1.13 5.23 4.45 5.39 4.59a2.35 2.35 0 0 1-3.15 3.5c-1-.91-3.92-3.47-5-4.3-.33-.25-1.09.27-1.36.49-1 .85-4.92 4.3-5 4.33a2.32 2.32 0 0 1-1.56.59zm-10.86-53.95c1.22-4.35-12-9.35-19.42-9.53s-17.44 1.43-17.26 7.55 8.45 7.55 18.34 7.55 17.08-1.08 18.34-5.57zm32.73 4.49c-2.73-4.75.9-10.8 11-15.46s18.39-4.07 21.24-.8c3.47 4-4.34 10.69-10.45 13.92s-18.98 7.24-21.79 2.34z" transform="translate(-692.46 -420.7)"/><path class="cls-5" d="M767.33 684.28c-14.71 1-21.69 12.17-21.85 24.67s9.92 23.16 21.85 23.32 24.6-6.61 25.23-23.48-14.82-25.2-25.23-24.51z" transform="translate(-692.46 -420.7)"/><path class="cls-4" d="M768.53 702.4c-3.71.25-5.47 3.07-5.51 6.23a5.79 5.79 0 0 0 5.51 5.88c3 0 6.21-1.66 6.37-5.92a6.07 6.07 0 0 0-6.37-6.19z" transform="translate(-692.46 -420.7)"/><path class="cls-5" d="M838.29 683.59c14.91.95 22 11.94 22.14 24.21a22.85 22.85 0 0 1-22.14 22.88c-12.08.16-24.94-6.48-25.58-23s15.03-24.77 25.58-24.09z" transform="translate(-692.46 -420.7)"/><path class="cls-4" d="M837.07 701.37c3.76.24 5.55 3 5.59 6.11a5.77 5.77 0 0 1-5.59 5.78c-3.05 0-6.3-1.64-6.46-5.82s3.8-6.24 6.46-6.07zm-32.6-249.81a2.67 2.67 0 0 1 3.4 0c10.67 8.72 68.09 55.64 70.81 57.85 3 2.43 9.45 3 7-1.29s-14.89-21.9-17-24.47-71.71-59.55-74-61.26-5-2.72-8.44 0-89.89 71.13-91.61 72.42-3.16 3.62-1.21 6.51 14.68 20 15.91 21.62 3.76 3 8.17-.58c4.02-3.24 75-61.06 86.97-70.8z" transform="translate(-692.46 -420.7)"/></g></svg>