<svg xmlns="http://www.w3.org/2000/svg" viewBox="0 0 241.63 328.49"><defs><style>.cls-1{fill:#babcd1;}.cls-2{fill:#a4a8bf;}.cls-3{fill:#596fe9;}.cls-4{fill:#323c95;}.cls-5{fill:#444ea5;}.cls-6{fill:#3e50b8;}</style></defs><g id="Layer_1" data-name="Layer 1"><path class="cls-1" d="M714.47,541.42V761.89h190a5.11,5.11,0,0,0,5.11-5.11V475.43l-11-11Z" transform="translate(-669.25 -433.4)"/><path class="cls-2" d="M673.42,520.64V730.3a9.58,9.58,0,0,0,4.4,8.06l36.65,23.53V541.42S674.18,521.4,673.42,520.64Z" transform="translate(-669.25 -433.4)"/><path class="cls-3" d="M670.07,522.88l35.17,24.53a9.59,9.59,0,0,0,9.09,1.28l194.15-73.26a3.7,3.7,0,0,0,1.16-6.23L878.9,441.78a7.71,7.71,0,0,0-7.91-1.44L673.11,515.52C670.55,516.51,667.86,521.23,670.07,522.88Z" transform="translate(-669.25 -433.4)"/><path class="cls-4" d="M896.13,467,875,447.63a2.2,2.2,0,0,0-2.26-.44l-85.57,31.94a2.22,2.22,0,0,0-.76,3.67l21.86,21a2.22,2.22,0,0,0,1.53.61,2.05,2.05,0,0,0,.81-.16l84.85-33.56a2.21,2.21,0,0,0,.68-3.68ZM886,461.8l-7.34,2.84-5.64-5.14,7.36-2.85Zm-67.71,18.88,8-3.1,5.64,5.14-8,3.1Zm2.51,6.35-7.87,3-5.63-5.14,7.87-3Zm8.62-10.66,7.89-3.05,5.64,5.14-7.89,3.05Zm11-4.26,7.81-3,5.64,5.14-7.81,3Zm10.93-4.23,8-3.1,5.64,5.14-8,3.1Zm11.13-4.31,7.41-2.86,5.63,5.14-7.4,2.86Zm10.8-13.4,4.61,4.22-7.35,2.85L865.87,453Zm-10.6,4,4.73,4.32L860,461.31l-4.81-4.39Zm-10.65,4,4.85,4.42-8,3.1-4.94-4.5Zm-11.25,4.2,5,4.53-7.8,3-5-4.61Zm-11,4.12,5.08,4.64L827,474.11l-5.17-4.71Zm-11.13,4.16,5.2,4.74-8,3.1-5.28-4.82Zm-11.25,4.2,5.32,4.85-7.87,3-5.4-4.92Zm-18,6.72,6.9-2.57,5.43,4.95-7,2.72Zm7.7,7.39,7.11-2.75,5.64,5.14-7.3,2.83ZM810,501.24l-5-4.84,7.39-2.86,5.17,4.72Zm5.47-8.91,7.87-3,5.1,4.65L820.6,497Zm16.08.38-5.08-4.63,8-3.1,5,4.59Zm11.06-4.37-5-4.57,7.88-3,5,4.52ZM853.52,484l-4.94-4.5,7.8-3,4.89,4.45Zm10.85-4.29-4.86-4.44,8-3.1,4.81,4.39Zm11.06-4.38-4.8-4.37,7.41-2.86,4.75,4.32Zm10.46-4.14-4.72-4.3,7.33-2.84,4.67,4.27Z" transform="translate(-669.25 -433.4)"/><path class="cls-5" d="M716.11,443.63l-.27,28.84,4-2.56.25-26.63,19,14.36,3.6-2.29-20.52-15.48a6.35,6.35,0,0,0-1.49-4.76c-2.22-3-7-1.85-8.49,1.6a4.64,4.64,0,0,0,.47,4.45A5.67,5.67,0,0,0,716.11,443.63Z" transform="translate(-669.25 -433.4)"/><path class="cls-5" d="M737.2,494.71V509c0,2.09.9,4.8,4.47,2.71s5.91-3.7,5.91-3.7l.12-17.73Z" transform="translate(-669.25 -433.4)"/><path class="cls-2" d="M691.46,485.61a2.77,2.77,0,0,0-.43,4.29c4.49,4.46,15.72,13.11,34.49,12,25.16-1.44,39.12-19.95,40.9-34.2,1.28-10.28-2.52-19.7-4.73-24.15a2.76,2.76,0,0,0-4-1.07Z" transform="translate(-669.25 -433.4)"/><rect class="cls-6" x="99.87" y="145.66" width="25.58" height="71.71" rx="3.9"/><rect class="cls-6" x="176.19" y="145.66" width="25.58" height="71.71" rx="3.9"/><path class="cls-6" d="M834.6,661.57H805.54a3.5,3.5,0,0,1,0-7H834.6a3.5,3.5,0,0,1,0,7Z" transform="translate(-669.25 -433.4)"/></g></svg>