<svg xmlns="http://www.w3.org/2000/svg" viewBox="0 0 243.14 206.67"><defs><style>.cls-1{fill:#feeb97;}.cls-2{fill:#edcd79;}.cls-3{fill:#9cc992;}.cls-4{fill:#ffb699;}.cls-5{fill:#cdae5e;}</style></defs><g id="Layer_1" data-name="Layer 1"><path class="cls-1" d="M911.36,587.08l-.46,109.77a6.31,6.31,0,0,1-6.24,6.29C872.57,703.48,727,705,723.23,705c-4.27,0-8.4.3-11.35-3s-8.39-9.28-8.39-9.28V577l95.92-38.31Z" transform="translate(-673.23 -498.35)"/><path class="cls-2" d="M708.74,579.31V699.19l-30.31-30.31a5.78,5.78,0,0,1-1.69-4.16L678.41,547Z" transform="translate(-673.23 -498.35)"/><path class="cls-3" d="M710.61,585.82l89-40.54a3.22,3.22,0,0,1,2.6,0l106.13,44.93a7.84,7.84,0,0,0,4.44.49l.27,0a4.06,4.06,0,0,0,3.3-4.25h0a7.57,7.57,0,0,0-1.71-4.3l-27.2-33.15a3.45,3.45,0,0,0-1.27-1L773.35,498.58a2.75,2.75,0,0,0-2.23,0l-96,44.79a3.1,3.1,0,0,0-1,4.94l33.3,36.84A2.82,2.82,0,0,0,710.61,585.82Z" transform="translate(-673.23 -498.35)"/><path class="cls-4" d="M891.91,645.84c6.52.41,12.56,6.89,8.59,13s-16,5.79-18.34-1.9S887.81,645.59,891.91,645.84Z" transform="translate(-673.23 -498.35)"/><path class="cls-4" d="M739.3,649.33c-6.53.41-12.57,6.89-8.59,13s16,5.79,18.33-1.9S743.4,649.07,739.3,649.33Z" transform="translate(-673.23 -498.35)"/><path class="cls-5" d="M800.52,661.89a15.68,15.68,0,0,1-7.79-2,3.5,3.5,0,0,1,3.69-6,8.84,8.84,0,0,0,7.85.15c2.54-1.15,4.78-4.48,5.43-5.67a3.5,3.5,0,0,1,3.07-1.82h0a3.49,3.49,0,0,1,3.07,1.88c.57,1.06,2.68,4.08,5.44,5,4.36,1.49,8.77-1.4,8.82-1.43a3.5,3.5,0,0,1,4,5.78c-.3.2-7.32,4.91-15,2.27a15.83,15.83,0,0,1-6.21-4.1,17.39,17.39,0,0,1-5.69,4.44A15.94,15.94,0,0,1,800.52,661.89Z" transform="translate(-673.23 -498.35)"/><path class="cls-5" d="M859.06,654.39c-14.28,0-18.95-13.32-19.42-20.46a3.5,3.5,0,0,1,7-.46c.1,1.45,1.37,14.24,12.84,13.92,11.82-.3,12.24-11.76,12.25-12.25a3.5,3.5,0,0,1,7,.17c-.16,6.44-4.35,18.71-19.07,19.08Z" transform="translate(-673.23 -498.35)"/><path class="cls-5" d="M770.06,654.39h-.58c-14.72-.37-18.91-12.64-19.07-19.08a3.5,3.5,0,0,1,7-.19c.05,1.24.77,12,12.25,12.27,4.88.12,8.36-2,10.65-6.37a22.19,22.19,0,0,0,2.2-7.56,3.5,3.5,0,0,1,7,.47C789,641.07,784.35,654.39,770.06,654.39Z" transform="translate(-673.23 -498.35)"/></g></svg>