<svg id="Layer_1" data-name="Layer 1" xmlns="http://www.w3.org/2000/svg" viewBox="0 0 242.99 218.69"><defs><style>.cls-1{fill:#5e638a;}.cls-2{fill:#777a9d;}.cls-3{fill:#4f537a;}.cls-4{fill:#f9c9ca;}</style></defs><path class="cls-1" d="M179,383s.42,113.49,1.23,117.15,1.23,5.65,4,8.89,19.42,18.69,25.83,20.77l-1.59-130.4Z" transform="translate(-176.23 -311.66)"/><path class="cls-2" d="M414.75,401s.35,115.73,0,119.08-1.38,8-8.31,8.72-189.6,2-194.79,1.34a9.45,9.45,0,0,1-8.31-9.39c0-4.35-.08-116.84-.08-116.84l98-69.46Z" transform="translate(-176.23 -311.66)"/><path class="cls-3" d="M307.18,340.27a3.4,3.4,0,0,0-3.58.14c-12.91,8.71-93.11,63.83-95.33,65.23-2.42,1.51-5.27,1.9-8.61-.87C195,401,178.72,386.89,177.11,385s-1-4.45,1.55-6.37c3.47-2.62,95.16-63.13,97.36-64.85,2.63-2.06,5.84-3.34,10.28-.38,4.83,3.21,105,61.15,107.83,64.18s23.7,20.45,24.74,22.63c1.36,2.84-1.47,4.87-4.43,2.59C411.72,400.71,321.24,348.26,307.18,340.27Z" transform="translate(-176.23 -311.66)"/><path class="cls-3" d="M279.93,441.29a3.74,3.74,0,0,0-5,1.87c0,.07-3.26,6.9-9.49,7.44-6.45.56-11.72-5.79-11.77-5.85a3.72,3.72,0,0,0-5.28-.56,3.83,3.83,0,0,0-.55,5.32c.3.37,7.08,8.7,16.78,8.7.48,0,1,0,1.46-.06h0c10.69-.93,15.48-11.42,15.68-11.87A3.81,3.81,0,0,0,279.93,441.29Z" transform="translate(-176.23 -311.66)"/><path class="cls-3" d="M370.41,442.31a3.7,3.7,0,0,0-2.84-.28,3.76,3.76,0,0,0-2.23,1.85c-.16.31-4,7.48-11,6.69-7.26-.81-10.16-7.83-10.27-8.13a3.74,3.74,0,0,0-4.87-2.12,3.81,3.81,0,0,0-2.11,4.91c.19.47,4.64,11.55,16.42,12.87a16.44,16.44,0,0,0,2,.11c10.79,0,16.26-10.34,16.5-10.81A3.8,3.8,0,0,0,370.41,442.31Z" transform="translate(-176.23 -311.66)"/><path class="cls-4" d="M230,450.27c-5.11,1-11.41,5.35-9.95,15.61s13.81,12.44,19.25,9.06,8.68-9.22,6-16.64C242.81,451.19,236.07,449,230,450.27Z" transform="translate(-176.23 -311.66)"/><path class="cls-4" d="M384,449.46c-5.11,1-11.41,5.36-9.94,15.61s13.8,12.45,19.24,9.06,8.68-9.22,6.05-16.64C396.79,450.38,390.05,448.23,384,449.46Z" transform="translate(-176.23 -311.66)"/><path class="cls-3" d="M319.16,484.27c-6,0-3-9.75-7.21-12.09s-11.76,3.71-18.87.77c-5.91-2.45-5.5-13.27,3.29-19.21,6.84-4.61,19.37-5.71,26-1.41,7.92,5.12,8.45,14.87,2.19,20.28C321,475.66,325.26,484.28,319.16,484.27Z" transform="translate(-176.23 -311.66)"/></svg>