<svg id="Layer_1" data-name="Layer 1" xmlns="http://www.w3.org/2000/svg" viewBox="0 0 196.52 199.16"><defs><style>.cls-1{fill:#d674ac;}.cls-2{fill:#e08fbc;}.cls-3{fill:#fcd798;}.cls-4{fill:#c7569b;}.cls-5{fill:#afdce4;}</style></defs><path class="cls-1" d="M389.35,487.12c-.11,4-.94,5.24-3.08,8.16-3.56,4.86-15.67,19.74-20,22.8l-.81-109.2,23.82-23.53S389.43,484.17,389.35,487.12Z" transform="translate(-199.59 -321.04)"/><path class="cls-2" d="M369.16,410s.95,102.52-1.37,106.44c-1.19,2-2,3.18-7.26,3.67s-151.48-1-153.48-2-3.5-2.68-3.25-6.11,1.56-109.24,1.56-109.24l79.22-53.37Z" transform="translate(-199.59 -321.04)"/><path class="cls-3" d="M283.33,355.47a3.08,3.08,0,0,0-3.6-.1c-11,7.66-71.65,53.08-76,53.82-4.76.82-4.85-3.19-3.26-5.4s22.8-25.34,25.78-27.78,73.88-52.69,76-54.1c1.88-1.22,5.38-1.23,8.18.38,3.25,1.87,83.22,56.79,84.4,58.25s1.9,3.2.16,5.13-21,23.76-22.57,25.27c-2.89,2.83-5.89,3.7-8.59,1.94C361.48,411.31,293.21,363,283.33,355.47Z" transform="translate(-199.59 -321.04)"/><path class="cls-4" d="M320.29,469.05c-6.31,0-12.19-2.32-16-6.37s-5.2-9.17-4.43-15.2a19.47,19.47,0,0,1,7.86-13.33c5.63-4.21,12.79-5.44,15.86-4.95a3,3,0,1,1-.95,5.92c-1.44-.23-6.95.57-11.31,3.84a13.35,13.35,0,0,0-5.51,9.28c-.55,4.26.41,7.73,2.85,10.33,2.87,3.06,7.8,4.76,12.88,4.44a11.91,11.91,0,0,0,9.72-6.15,8.25,8.25,0,0,0-.34-8.39c-2.16-3.5-6.05-3.86-9-3-2.68.76-4.54,2.51-4.54,4.25,0,.82.25,1,.38,1.14.86.74,3.12.77,4.09.62a3,3,0,0,1,.91,5.93c-.57.09-5.68.78-8.91-2a7.22,7.22,0,0,1-2.47-5.7c0-4.48,3.57-8.51,8.9-10,6.31-1.8,12.47.42,15.7,5.65a14.24,14.24,0,0,1,.57,14.3A18,18,0,0,1,321.93,469C321.38,469,320.84,469.05,320.29,469.05Z" transform="translate(-199.59 -321.04)"/><path class="cls-4" d="M254.3,469.05c-6.31,0-12.2-2.32-16-6.37s-5.21-9.17-4.43-15.2a19.4,19.4,0,0,1,7.86-13.33c5.62-4.21,12.79-5.44,15.86-4.95a3,3,0,1,1-1,5.92c-1.44-.23-6.95.57-11.31,3.84a13.31,13.31,0,0,0-5.51,9.28c-.55,4.26.41,7.73,2.85,10.33,2.87,3.06,7.8,4.76,12.88,4.44a11.91,11.91,0,0,0,9.72-6.15,8.25,8.25,0,0,0-.34-8.39c-2.16-3.5-6.05-3.86-9-3-2.68.76-4.54,2.51-4.54,4.25,0,.82.25,1,.37,1.14.87.74,3.13.77,4.1.62a3,3,0,0,1,.91,5.93c-.57.09-5.68.78-8.91-2a7.22,7.22,0,0,1-2.47-5.7c0-4.48,3.57-8.51,8.9-10,6.31-1.8,12.47.42,15.7,5.65a14.24,14.24,0,0,1,.57,14.3A18,18,0,0,1,255.94,469C255.39,469,254.85,469.05,254.3,469.05Z" transform="translate(-199.59 -321.04)"/><path class="cls-4" d="M299,470.45H275.68a3.08,3.08,0,1,1,0-6.16H299a3.08,3.08,0,0,1,0,6.16Z" transform="translate(-199.59 -321.04)"/><path class="cls-5" d="M339.11,486.91s1.8-4.14,4.24-3,1,8.82-1.37,10-8.82-2.24-8.23-5.65S339.11,486.91,339.11,486.91Z" transform="translate(-199.59 -321.04)"/><path class="cls-5" d="M235.49,467.33s.56-6.42,5.32-6.38c5.71.05,4.53,11.26,4,14.7a1.46,1.46,0,0,1-1.14,1.22c-3.06.65-12.33,2.15-14.29-3.09C226.92,467.12,235.49,467.33,235.49,467.33Z" transform="translate(-199.59 -321.04)"/><path class="cls-5" d="M336.87,466.84s7.26-2.85,8.76,1.66c1.81,5.41-8.57,10.32-13.2,10.44a1.59,1.59,0,0,1-1.52-.68c-1.62-2.69-6.27-11.26-1.72-14.52S336.87,466.84,336.87,466.84Z" transform="translate(-199.59 -321.04)"/></svg>