<svg id="Layer_1" data-name="Layer 1" xmlns="http://www.w3.org/2000/svg" viewBox="0 0 282.74 250.31"><defs><style>.cls-1{fill:#f6ea93;}.cls-2{fill:#eddc7c;}.cls-3{fill:#f6a868;}.cls-4{fill:#aa7143;}.cls-5{fill:#f8bfb3;}</style></defs><path class="cls-1" d="M398.61,385.26s.39,144.71,0,148.65-1.55,9.46-9.33,10.25-213.08,2.37-218.91,1.58a11,11,0,0,1-9.34-11c0-5.13-.09-137.42-.09-137.42l127.59-69.81Z" transform="translate(-156.36 -295.65)"/><path class="cls-2" d="M429.73,358.45S434,484.62,433.23,489s-1.16,6.7-4.28,10.65S401,540.22,393.6,543l-2.38-171.52Z" transform="translate(-156.36 -295.65)"/><path class="cls-3" d="M285.52,336.54s105.31,56.61,108.81,58.19,5.84.78,9.73-2.76,31.51-29.58,33.84-31.55,1.17-3.94-2.72-7.49S327,299.48,324.7,297.11s-6.22-2-11.66,2-110.15,55-114.2,58.19-41,38.64-42.18,41,1.17,5.52,5.44,3.16S285.52,336.54,285.52,336.54Z" transform="translate(-156.36 -295.65)"/><path class="cls-4" d="M231.84,467.82c-11.72,1-20.09-9.29-20.44-9.73a3.31,3.31,0,0,1,.48-4.61,3.21,3.21,0,0,1,4.54.48c.08.09,6.61,8,14.87,7.33,8.07-.71,12.09-9.35,12.13-9.44a3.22,3.22,0,0,1,4.28-1.62,3.3,3.3,0,0,1,1.61,4.33C249.08,455.06,243.73,466.78,231.84,467.82Z" transform="translate(-156.36 -295.65)"/><path class="cls-4" d="M277.4,477.35a15,15,0,0,1-12.9-7.21,3.3,3.3,0,0,1,1.25-4.46,3.21,3.21,0,0,1,4.39,1.24,8.5,8.5,0,0,0,7.26,3.88c4.62,0,6.43-4.68,6.5-4.88a3.25,3.25,0,0,1,4.16-1.92,3.29,3.29,0,0,1,1.92,4.18C289.84,468.55,286.59,477.35,277.4,477.35Z" transform="translate(-156.36 -295.65)"/><path class="cls-4" d="M321.46,466.58c-13.17-1.48-18.14-13.87-18.35-14.39a3.31,3.31,0,0,1,1.82-4.26,3.22,3.22,0,0,1,4.19,1.84c.16.39,3.82,9.26,13.05,10.3,9,1,13.89-8.11,14.1-8.5a3.22,3.22,0,0,1,4.36-1.36,3.3,3.3,0,0,1,1.36,4.42C341.71,455.18,334.88,468.09,321.46,466.58Z" transform="translate(-156.36 -295.65)"/><path class="cls-5" d="M194.38,468.37c-7.46,1.53-16.65,7.92-14.51,23.07s20.14,18.4,28.07,13.4,12.66-13.64,8.83-24.6C213.1,469.73,203.27,466.55,194.38,468.37Z" transform="translate(-156.36 -295.65)"/><path class="cls-5" d="M355.52,461.92c-7.68,1.57-17.13,8.15-14.93,23.77s20.72,18.95,28.88,13.8,13-14.05,9.08-25.34C374.77,463.32,364.66,460.05,355.52,461.92Z" transform="translate(-156.36 -295.65)"/></svg>