<svg id="Layer_1" data-name="Layer 1" xmlns="http://www.w3.org/2000/svg" viewBox="0 0 214.29 242.36"><defs><style>.cls-1{fill:#edcd78;}.cls-2{fill:#feeb98;}.cls-3{fill:#e3bd62;}.cls-4{fill:#fff;}.cls-5{fill:#b78a70;}.cls-6{fill:#f4a497;}.cls-7{fill:#9eca7d;}.cls-8{fill:#85bf63;}</style></defs><path class="cls-1" d="M194.17,383.93s0,110.7.26,114.28a10.92,10.92,0,0,0,4.1,7.94c2.05,1.54,12.8,12.8,17.41,14.59l1.79-114.18Z" transform="translate(-190.49 -280.28)"/><path class="cls-2" d="M213,402.25s-1.52,110.33-.76,114.14,5.33,5.84,12.19,6.09S391,522.74,395,522s4.07-4.57,4.07-7.87.25-90.39.25-90.39l-93.18-81Z" transform="translate(-190.49 -280.28)"/><path class="cls-3" d="M311.86,352.9s84.83,74.72,88.65,76.63,5-3.1,3.82-4.77-19.57-26-22.68-30.31-79.41-77.82-81.42-79.52-5.12-2.78-9.14-.07-97.16,63.67-99.33,65.22-1.39,3.71.93,6.49,18.57,24.76,21.36,26.46,4.64,1.09,7.58-.77S311.86,352.9,311.86,352.9Z" transform="translate(-190.49 -280.28)"/><path class="cls-4" d="M279.17,492.79s-1.76,13.75,6.2,18.26c9.22,5.23,13.3-5.32,13.3-5.32S301,516.18,310.46,516c10.11-.18,11.62-10.91,11.62-10.91s5.5,8.34,13.39,4.43,3.81-18.88,3.81-18.88-16.94,8.16-29,7.89S279.17,492.79,279.17,492.79Z" transform="translate(-190.49 -280.28)"/><path class="cls-5" d="M337.35,463.73a1.63,1.63,0,0,0,2.22,1.31c6.34-2.52,26.8-10.68,30-12.47,3.77-2.13,3.59-8.2-.85-9.6-6.44-2-10.38,4.72-10.38,4.72a8.33,8.33,0,0,0-6.29.06,7.25,7.25,0,0,0-3.48,4.35s-6.17-.59-9.33,2.77C337,457.23,337.06,461.28,337.35,463.73Z" transform="translate(-190.49 -280.28)"/><ellipse class="cls-5" cx="163.08" cy="194.44" rx="8.84" ry="9.58"/><path class="cls-5" d="M279.37,464.51a1.63,1.63,0,0,1-2.22,1.32c-6.34-2.52-26.8-10.68-30-12.47-3.77-2.13-3.59-8.2.85-9.6,6.45-2,10.38,4.72,10.38,4.72a8.33,8.33,0,0,1,6.29.06,7.24,7.24,0,0,1,3.48,4.34s6.17-.58,9.33,2.77C279.72,458,279.66,462.07,279.37,464.51Z" transform="translate(-190.49 -280.28)"/><ellipse class="cls-5" cx="70.7" cy="193.65" rx="8.84" ry="9.58"/><ellipse class="cls-6" cx="184.28" cy="211.7" rx="13.17" ry="12.84"/><ellipse class="cls-6" cx="49.35" cy="212.29" rx="13.17" ry="12.84"/><path class="cls-5" d="M315.84,484.49a2,2,0,0,1-1.67-3.1l4.12-6.28a2,2,0,1,1,3.34,2.2l-4.12,6.27A2,2,0,0,1,315.84,484.49Z" transform="translate(-190.49 -280.28)"/><path class="cls-5" d="M307.2,500.18h-.74a75.37,75.37,0,0,1-28-6,2.05,2.05,0,0,1,1.72-3.73,72.4,72.4,0,0,0,26.38,5.66h.67a63.7,63.7,0,0,0,30.48-7.56,2.05,2.05,0,1,1,2.15,3.5C339.27,492.35,326.31,500.18,307.2,500.18Z" transform="translate(-190.49 -280.28)"/><path class="cls-5" d="M302.51,486.25a2,2,0,0,1-1.64-.84l-4.31-6.08a2,2,0,0,1,3.26-2.32l4.32,6.08a2,2,0,0,1-.48,2.79A2,2,0,0,1,302.51,486.25Z" transform="translate(-190.49 -280.28)"/><path class="cls-7" d="M308.79,307.75a13.49,13.49,0,0,0-3.43,4l-1.65-1.66-5.4-12.59a22.77,22.77,0,0,1,3.67,3.92c1.9,2.54,10.13,4.82,15.45-1s2.91-13.55-.63-17.09-16-6.08-21.4,4.81a19.54,19.54,0,0,0-2.28,11.46c-3.79-1.72-8.36-1.76-8.86-.44-.64,1.64,1.9,6.07,5.44,8.35a13.43,13.43,0,0,0,6,2.08l.06,3.94a7.72,7.72,0,0,0-3.86-1.26c-3.29-.16-6.82,1.44-6.73,2.55.12,1.29,3.22,3.41,6.29,3.77a9.63,9.63,0,0,0,5.32-.85l8.57-.81a11.46,11.46,0,0,0,9.11-2.66c3.32-3,5.19-7.94,4-8.92C317.12,304.2,312.11,305.14,308.79,307.75Z" transform="translate(-190.49 -280.28)"/><path class="cls-8" d="M302.93,310.65a2,2,0,0,1-1.6-.8c-.23-.31-5.69-7.68-4.72-14.67a12.14,12.14,0,0,1,5.65-8.89,9.46,9.46,0,0,1,8.14-.87,7.4,7.4,0,0,1,4.79,5.72c.53,2.74-.25,5.7-1.88,7.18a5.86,5.86,0,0,1-5.45,1.4,4.22,4.22,0,0,1-3-2.82,2,2,0,1,1,3.83-1.15.92.92,0,0,0,.46.16,2,2,0,0,0,1.48-.55,4.33,4.33,0,0,0,.65-3.46,3.41,3.41,0,0,0-2.25-2.73,5.36,5.36,0,0,0-4.7.56,8.19,8.19,0,0,0-3.74,6c-.74,5.34,3.92,11.66,4,11.72a2,2,0,0,1-1.6,3.2Z" transform="translate(-190.49 -280.28)"/><path class="cls-2" d="M291.09,314.86a1.1,1.1,0,0,1,.31-1.46c2.47-1.72,10-6.49,15.34-4.6,4.74,1.67,3.93,8.84,3.93,8.84s5.92-1.62,8.83,1.22c2.7,2.63,0,9.82,0,9.82s6.67-1,7.05,6.43c.34,6.55-8.29,13.31-11.86,15.82a1.7,1.7,0,0,1-2.43-.53Z" transform="translate(-190.49 -280.28)"/></svg>