<svg id="Layer_1" data-name="Layer 1" xmlns="http://www.w3.org/2000/svg" viewBox="0 0 213.66 185.42"><defs><style>.cls-1{fill:#3c63ac;}.cls-2{fill:#577cbe;}.cls-3{fill:#284d8e;}.cls-4{fill:#f7bebf;}</style></defs><path class="cls-1" d="M396,383.23c1.2,5.51,2.33,101.91,0,106.24s-24.22,22.15-24.22,22.15l-1.09-119.07Z" transform="translate(-190.32 -328.36)"/><path class="cls-2" d="M375.35,398.88s2.33,99.25,2,103.24S375,513.23,363.7,513.67s-160.2-.55-164.53-.55-5.33-5-5.66-12.84-2.66-91.74,1-96.4,86.59-53,86.59-53Z" transform="translate(-190.32 -328.36)"/><path class="cls-3" d="M282.08,358s83.07,44.27,87.34,46.4,7.73,1.47,12.66-2.53,16.4-14.13,19.2-16.93,4.93-6.4-1.6-10.13-86.12-43.86-88.78-45.19-7.87-2.39-13.73,1.2c-8.37,5.12-77.46,44.92-80.39,46.66s-23.59,24-25.73,26.52.4,7.74,7.73,3.74S282.08,358,282.08,358Z" transform="translate(-190.32 -328.36)"/><path class="cls-3" d="M276.51,417.35l-26.18-19.73a2.59,2.59,0,0,1-.75-3.37,2.5,2.5,0,0,1,3.65-.71l25.35,19.11a2.11,2.11,0,0,0,2.42.1l27.08-17.31a2.5,2.5,0,0,1,2.69,4.21l-28.06,17.94A5.42,5.42,0,0,1,276.51,417.35Z" transform="translate(-190.32 -328.36)"/><path class="cls-3" d="M256.44,415.13c-4.9-1.2-9.54,4.78-5.77,10,2.39,3.33,9.22,2.76,10.7-2.69A6.55,6.55,0,0,0,256.44,415.13Z" transform="translate(-190.32 -328.36)"/><path class="cls-3" d="M304.92,415.13c4.9-1.2,9.54,4.78,5.77,10-2.39,3.33-9.22,2.76-10.7-2.69A6.55,6.55,0,0,1,304.92,415.13Z" transform="translate(-190.32 -328.36)"/><path class="cls-3" d="M280,438.11c-5.72,0-10.2-5.09-10.39-5.31a2.5,2.5,0,0,1,3.78-3.27c.88,1,3.77,3.58,6.61,3.58h0c2.88,0,6.76-3.67,7.88-4.95a2.5,2.5,0,0,1,3.76,3.31c-.6.67-6,6.59-11.59,6.64Z" transform="translate(-190.32 -328.36)"/><path class="cls-4" d="M330.79,425.28s3.33-7,9.19-4.76,3,14.06-5.2,19.49c0,0-18.64-3.45-14.06-14.06C323.15,420.3,330.79,425.28,330.79,425.28Z" transform="translate(-190.32 -328.36)"/><path class="cls-4" d="M231.8,425.28s-3.61-7.62-9.19-4.76c-6.28,3.21-3,14.06,5.21,19.49,0,0,18.07-5.95,13.06-14.06C238.17,421.56,231.8,425.28,231.8,425.28Z" transform="translate(-190.32 -328.36)"/></svg>