<svg id="Layer_1" data-name="Layer 1" xmlns="http://www.w3.org/2000/svg" viewBox="0 0 232.62 231.98"><defs><style>.cls-1{fill:#edcd78;}.cls-2{fill:#feeb98;}.cls-3{fill:#a55441;}.cls-4{fill:#f4a497;}.cls-5{fill:#e7e0e9;}.cls-6{fill:#b0a5b3;}</style></defs><path class="cls-1" d="M408.8,384.21V495.63a13.18,13.18,0,0,1-3.85,9.3L375,535V409.26Z" transform="translate(-180.77 -304.68)"/><path class="cls-2" d="M376.23,409.26V531.65a5,5,0,0,1-5,5H190.86a5,5,0,0,1-5-5V424.29l95.19-60.83Z" transform="translate(-180.77 -304.68)"/><path class="cls-3" d="M340.61,482.78l-.33,0a2.46,2.46,0,0,1-1.77-1.12c-.06-.1-6.62-10-15.66-10.6-8.83-.53-14.55,8.16-14.61,8.25a2.5,2.5,0,0,1-4.21-2.7c.29-.46,7.33-11.27,19.12-10.54,8.53.52,14.92,7,17.83,10.55l11.09-9.94a2.5,2.5,0,0,1,3.34,3.72l-13.13,11.77A2.52,2.52,0,0,1,340.61,482.78Z" transform="translate(-180.77 -304.68)"/><path class="cls-3" d="M220.21,482.78l.33,0a2.46,2.46,0,0,0,1.77-1.12c.06-.1,6.62-10,15.66-10.6,8.83-.53,14.55,8.16,14.61,8.25a2.5,2.5,0,0,0,4.21-2.7c-.3-.46-7.34-11.27-19.12-10.54-8.53.52-14.92,7-17.83,10.55l-11.09-9.94a2.5,2.5,0,1,0-3.34,3.72l13.13,11.77A2.51,2.51,0,0,0,220.21,482.78Z" transform="translate(-180.77 -304.68)"/><path class="cls-3" d="M336.16,491.41a2.27,2.27,0,0,0-2.24,2.52,2.31,2.31,0,0,0,4.6-.23A2.19,2.19,0,0,0,336.16,491.41Z" transform="translate(-180.77 -304.68)"/><path class="cls-3" d="M350.55,485.16a2.26,2.26,0,0,0-2.23,2.52,2.31,2.31,0,0,0,4.6-.23A2.2,2.2,0,0,0,350.55,485.16Z" transform="translate(-180.77 -304.68)"/><path class="cls-3" d="M347,496.46a2.26,2.26,0,0,0-2.23,2.52,2.31,2.31,0,0,0,4.6-.23A2.2,2.2,0,0,0,347,496.46Z" transform="translate(-180.77 -304.68)"/><path class="cls-3" d="M207.46,487.17a2.26,2.26,0,0,0-2.23,2.52,2.31,2.31,0,0,0,4.6-.23A2.2,2.2,0,0,0,207.46,487.17Z" transform="translate(-180.77 -304.68)"/><path class="cls-3" d="M222,492.82a2.26,2.26,0,0,0-2.23,2.53,2.31,2.31,0,1,0,2.23-2.53Z" transform="translate(-180.77 -304.68)"/><path class="cls-3" d="M210.59,498.05a2.27,2.27,0,0,0-2.23,2.53,2.3,2.3,0,0,0,4.59-.23A2.19,2.19,0,0,0,210.59,498.05Z" transform="translate(-180.77 -304.68)"/><path class="cls-4" d="M271.18,479.51,288.36,478c4.84-.6,5.59,1.12,5.59,4.82,0,6-.58,17.52-12.11,18.26s-14.48-11-15.18-16.8C266.45,482.51,266.65,479.86,271.18,479.51Z" transform="translate(-180.77 -304.68)"/><path class="cls-3" d="M281.05,370.26s-88.63,55.6-91.44,57.34-7,3.66-8.55,1.19,3.29-6.47,6.21-9.05c1.44-1.27,26.69-25.16,31.65-28.27,15.08-9.46,86.12-52.18,88.8-54,3.82-2.65,9.39-5.23,15.58-1.63s84.42,42.57,86.27,43.53,6,3.88,2.37,8-30,29.36-31.67,30.94-6.15,2.54-12.32-.85C360.56,413.36,281.05,370.26,281.05,370.26Z" transform="translate(-180.77 -304.68)"/><path class="cls-5" d="M337.7,322.9l-1.05-2.19a3.91,3.91,0,0,1-4.4.21c-2.22-1.48-1.51-8.34,2.73-12s6.17-4.26,9.44-4.26,4.47,3.83,4.47,3.83a34.22,34.22,0,0,1,7.22-.76,42.64,42.64,0,0,1,6.77.81,9.52,9.52,0,0,1,6.05-3.13c3.7-.28,6.69,2.27,8.63,6.11s2.24,9.5-1.09,10.56-5.87-2.51-5.87-2.51l-.81,2.93Z" transform="translate(-180.77 -304.68)"/><path class="cls-6" d="M362,315.3c-2.18-1-2.27,3-1.24,4.37C362.94,320.72,363.07,316.6,362,315.3Z" transform="translate(-180.77 -304.68)"/><path class="cls-6" d="M348.88,315.3c-2.18-1-2.27,3-1.24,4.37C349.79,320.72,349.92,316.6,348.88,315.3Z" transform="translate(-180.77 -304.68)"/><path class="cls-6" d="M355.32,317.74c-.83.06-1.46,1.1-1.38,2.51s.9,1.89,1.65,1.84,1.32-1.13,1.25-2.26S356.49,317.67,355.32,317.74Z" transform="translate(-180.77 -304.68)"/><path class="cls-6" d="M338.77,315.71h-.1c-.3.9-.64,1.7-1,2.51s-.63,1.67-1,2.49l.4.84c.1-.15.21-.31.3-.46a10.14,10.14,0,0,0,1.26-2.53A5.3,5.3,0,0,0,338.77,315.71Z" transform="translate(-180.77 -304.68)"/><path class="cls-6" d="M370.39,319.11a29.83,29.83,0,0,1-1.32-2.79H369a6.57,6.57,0,0,0,.51,3.19,7.92,7.92,0,0,0,.74,1.45l.38-1.38.08.11C370.59,319.5,370.49,319.3,370.39,319.11Z" transform="translate(-180.77 -304.68)"/><path class="cls-2" d="M335.77,325.55v43.14a5,5,0,0,0,2.91,4.51l29.21,13.13c1.79.92,4.66,2.33,4.41-4.32s-.6-54.72-.6-57.18-1.79-3.32-3.77-3.28-27.43.57-29,.55S335.77,323.17,335.77,325.55Z" transform="translate(-180.77 -304.68)"/></svg>