<svg id="Layer_1" data-name="Layer 1" xmlns="http://www.w3.org/2000/svg" viewBox="0 0 200.74 202.78"><defs><style>.cls-1{fill:#ebf0f4;}.cls-2{fill:#fff;}.cls-3{fill:#f0827b;}.cls-4{fill:#e8c28e;}.cls-5{fill:#7b6341;}</style></defs><path class="cls-1" d="M395.23,342.3s1.33,90.63,1.15,96.83c-.17,5.8-.6,7.08-2.4,9.47-3,4-21.22,30-28.75,30.36C358.4,479.28,368,355,368,355Z" transform="translate(-197.23 -277.31)"/><path class="cls-2" d="M371.45,360.91S371,470.6,370.37,473.53s-1.88,5.23-5.86,5.44-153.34,1.46-156.06,1-4.18-2.51-4.6-5.85S203,367.05,203,367.05l83.88-63.59Z" transform="translate(-197.23 -277.31)"/><path class="cls-3" d="M285.29,308.25a2.75,2.75,0,0,1,3.26-.05c11.5,8.27,79.46,57.08,80.61,57.72a4.94,4.94,0,0,0,6-.56c2.38-2.1,20.16-19.74,21.56-21.28s2.1-3.92-.7-6.3S315.41,278.85,313.73,278a9.34,9.34,0,0,0-9.24,1.26c-3.5,2.66-79.51,63.41-82,65.09s-23.1,22.4-24.64,24.22,0,4.62,3.64,2.8C204.8,369.71,273.8,317,285.29,308.25Z" transform="translate(-197.23 -277.31)"/><path class="cls-4" d="M235.52,336.17c-1.61-1.13-3.87-5.16-2.58-11.61s17.57-20.8,26.6-20.47,11.29,6.61,11.29,6.61Z" transform="translate(-197.23 -277.31)"/><path class="cls-4" d="M325.63,302c-3.38,3.09-4.83,9.51,2.74,18.22s23.71,19,32.4,16.92c6-1.45,7.42-8.38,7.58-9.83s1.61-12.09-11.28-22.08S331.11,297,325.63,302Z" transform="translate(-197.23 -277.31)"/><path class="cls-5" d="M259.27,394.77a2.63,2.63,0,0,1-.77-.12l-24.06-7.84a2.5,2.5,0,0,1,1.55-4.75l24.06,7.83a2.5,2.5,0,0,1-.78,4.88Z" transform="translate(-197.23 -277.31)"/><path class="cls-5" d="M316.73,395.27a2.5,2.5,0,0,1-.83-4.86l23.5-8.33a2.5,2.5,0,1,1,1.67,4.71l-23.51,8.33A2.39,2.39,0,0,1,316.73,395.27Z" transform="translate(-197.23 -277.31)"/><path class="cls-5" d="M278.05,417.65a2.5,2.5,0,0,1-1.61-4.41c2.38-2,8.28-6.68,11.69-6.68s9.29,4.58,11.66,6.54a2.5,2.5,0,1,1-3.18,3.86c-3.39-2.8-7.36-5.32-8.5-5.4-1.12.09-5.08,2.66-8.44,5.5A2.49,2.49,0,0,1,278.05,417.65Z" transform="translate(-197.23 -277.31)"/><path class="cls-3" d="M271.66,361l11.27,19.57a3.35,3.35,0,0,0,5.63.29l13.73-19a3.06,3.06,0,0,0-2.52-4.85l-26,.33A2.42,2.42,0,0,0,271.66,361Z" transform="translate(-197.23 -277.31)"/><ellipse class="cls-5" cx="55.05" cy="122.5" rx="6.97" ry="8.4"/><ellipse class="cls-5" cx="125.96" cy="122.5" rx="6.97" ry="8.4"/><path class="cls-3" d="M231.68,407.69c4.82,4.47,15.73,9.52,17,9.87s2.3,1.84,1.15,3.1-12.28,17-17.33,34.43c-1.33,4.59-5.17,3.33-6.55,0-1.08-2.62-3.46-14.25-3.13-25.26.38-12.62,3.36-20.88,3.94-21.91S229.24,405.42,231.68,407.69Z" transform="translate(-197.23 -277.31)"/><path class="cls-3" d="M344.23,408.11c-4.82,4.47-15.72,9.53-17,9.87s-2.3,1.84-1.15,3.1,12.28,17,17.33,34.43c1.33,4.59,5.17,3.33,6.54,0,1.09-2.62,3.47-14.25,3.14-25.26-.38-12.61-3.37-20.88-3.94-21.91S346.67,405.84,344.23,408.11Z" transform="translate(-197.23 -277.31)"/><path class="cls-5" d="M335.45,303.53c-3,3.16.26,12,7.75,17.49s17.09,7.23,20.25,4.33-.4-11.83-8.15-17.74S338.15,300.72,335.45,303.53Z" transform="translate(-197.23 -277.31)"/><path class="cls-5" d="M237.25,321.51c-1.28,2.63-1.29,3.83,2.13,2.91s18.54-12.62,18.54-15.91-7.66.77-9.89,2.48S239.46,317,237.25,321.51Z" transform="translate(-197.23 -277.31)"/></svg>