<svg id="Layer_1" data-name="Layer 1" xmlns="http://www.w3.org/2000/svg" viewBox="0 0 248.15 225.96"><defs><style>.cls-1{fill:#aca5d2;}.cls-2{fill:#9691c6;}.cls-3{fill:#6e7bbb;}.cls-4{fill:#eec1dc;}.cls-5{fill:#d0c9e5;}.cls-6{fill:#5c59a4;}</style></defs><path class="cls-1" d="M206.2,375.88s1.34,114.43,1.34,119.74-1.16,17.09,10.12,17.42,182.83.33,187-.33,8-2.82,8-10.79-.5-133.38-.5-133.38L300.28,318.46Z" transform="translate(-173.01 -287.3)"/><path class="cls-2" d="M178.67,355.1V481.52c0,3.65,2,6.14,4.15,8S212,511.41,212,511.41l-1.27-134.75Z" transform="translate(-173.01 -287.3)"/><path class="cls-3" d="M304.41,325.4s105.47,47.53,109.17,49,9.46.2,7-4.94-29-26.51-32.46-29.59S280,289.69,276.49,288.25s-7.6-1.65-12.33,2.26-84.68,57.55-88.18,60-3.9,5.34-1.23,7.81,30.63,25.48,32.27,26.92,3.91,1.44,9.66-2.05S304.41,325.4,304.41,325.4Z" transform="translate(-173.01 -287.3)"/><path class="cls-4" d="M238.19,419.16c-9.17,1-11.87,9.37-10.78,15s6.88,11.4,14.06,10.46c6.25-.81,13.48-8,10.63-17C250.07,421.19,244,418.53,238.19,419.16Z" transform="translate(-173.01 -287.3)"/><path class="cls-4" d="M386.34,419.16c-9.17,1-11.87,9.37-10.78,15s6.88,11.4,14.06,10.46c6.25-.81,13.48-8,10.63-17C398.22,421.19,392.12,418.53,386.34,419.16Z" transform="translate(-173.01 -287.3)"/><path class="cls-5" d="M315.78,473.7c-17-.13-32.07-13.67-32.07-31.94s12.74-35.78,34-36c18.53-.22,30.59,18.64,31.31,32.83C349.64,451.21,341.71,473.89,315.78,473.7Z" transform="translate(-173.01 -287.3)"/><path class="cls-6" d="M316.46,404.79c-5.78.31-17.49,3-16.24,11.4.75,5.06,10.78,12.5,16.24,12.34S334.12,421,333,412.75,319.3,404.63,316.46,404.79Z" transform="translate(-173.01 -287.3)"/><path class="cls-6" d="M265.25,424.36l-.61,0c-7.82-.3-12.53-9.38-13-10.41a3,3,0,0,1,5.38-2.67c.9,1.8,4.27,6.95,7.9,7.09,5.95.23,8.6-5.36,8.71-5.59a3,3,0,0,1,5.47,2.47C278.88,415.61,274.84,424.36,265.25,424.36Z" transform="translate(-173.01 -287.3)"/><path class="cls-6" d="M365.67,422.16c-7.63,0-13.6-9.26-14.26-10.32a3,3,0,1,1,5.1-3.17c1.22,2,5.51,7.49,9.16,7.49h.09c3.72-.09,7.24-4.61,8.27-6.35a3,3,0,0,1,5.16,3.06c-.55.93-5.59,9.09-13.28,9.29Z" transform="translate(-173.01 -287.3)"/><path class="cls-6" d="M336.19,437.23a3,3,0,0,0-4.24-.09c-.18.17-4.46,4.15-8.4,1.57-2.28-1.49-3.39-5.87-3.84-9.86a44,44,0,0,0,.28-6.78,3,3,0,0,0-3-2.87h-.14a3,3,0,0,0-2.73,2.13,3.05,3.05,0,0,0-.65,1.73,46.88,46.88,0,0,0,.17,5.72c-.51,3.71-1.62,7.54-3.72,8.92-3.95,2.58-8.22-1.4-8.39-1.56a3,3,0,0,0-4.18,4.31,15,15,0,0,0,9.76,4.12,10.92,10.92,0,0,0,9.33-5.23,11.59,11.59,0,0,0,3.82,4.38,10.94,10.94,0,0,0,6.08,1.85,15,15,0,0,0,9.77-4.12A3,3,0,0,0,336.19,437.23Z" transform="translate(-173.01 -287.3)"/><path class="cls-1" d="M218.34,304.76c-19.2,11.57-8.83,41.13-3.31,47.51,3.3,3.81,5.89,4.93,13.3-.08,6.61-4.47,34.24-22.26,38-26.33,3.26-3.49,1-8-2-10.91S238.21,292.8,218.34,304.76Z" transform="translate(-173.01 -287.3)"/><path class="cls-5" d="M261.58,329.74c-2.84-3-18.27-18-32.27-7.73-11.72,8.61-2.07,26.59-.27,29.71C235.11,347.65,252.72,336.24,261.58,329.74Z" transform="translate(-173.01 -287.3)"/><path class="cls-1" d="M377.12,297.93c18.75,8.59,12.47,36.89,8.12,43.34-2.59,3.86-4.83,5.16-12.13,1.34-6.51-3.4-33.61-16.82-37.5-20.15-3.35-2.87-1.74-7.23.62-10.25S357.72,289.05,377.12,297.93Z" transform="translate(-173.01 -287.3)"/><path class="cls-5" d="M340.39,325.51C342.66,322.46,355.11,307,369,315c11.61,6.67,4.75,24.24,3.45,27.29C366.44,339.16,349.16,330.55,340.39,325.51Z" transform="translate(-173.01 -287.3)"/></svg>