<svg xmlns="http://www.w3.org/2000/svg" viewBox="0 0 214.1 261"><defs><style>.cls-1{fill:#d2e1e8}.cls-4{fill:#6a787e}</style></defs><g id="Layer_1" data-name="Layer 1"><path class="cls-1" d="M733.88 489.74c-.23-5.16 2-6.64.88-12s-9.8-12.24-19.83-11.58-17.17 7.89-17.1 16.08 5.6 11 8.26 13.56 1.91 5.16 3.83 7.59c1.61 2.06 3.62 2.69 6.2 2.58a1.76 1.76 0 0 0 1.65-1.56c.28-2.22 1-6.31 2.25-6.84 1.63-.68 2.25 4.56 2.44 6.71a.84.84 0 0 0 1 .76l1.89-.25a1.15 1.15 0 0 0 1-1.18c-.06-2 0-6.24 1.38-6.63s2.19 3 2.61 5a1.22 1.22 0 0 0 1.78.83 6.43 6.43 0 0 0 3.35-6c-.04-3.24-1.47-4.5-1.59-7.07zm-22.16-2a4.41 4.41 0 0 1-4.8-3.72 4.21 4.21 0 0 1 5.17-4.68 4.54 4.54 0 0 1 3.14 4.42 4.09 4.09 0 0 1-3.51 3.98zm12.1 1.86c-1 .73-1.39-1.24-3.22-1-1 .16-1.21 1.75-2.72 1.09-.61-.27.18-4.42 2.33-4.42 2.48.04 4.65 3.57 3.61 4.33zm4.76-3.94a3.52 3.52 0 0 1-3.75-3.22c-.36-2.41 1.79-4.81 4-4.06a3.93 3.93 0 0 1 2.46 3.84 3.45 3.45 0 0 1-2.71 3.44zm8.78 18.68c-1.55 0-3.75.72-3.56 3.77a3.71 3.71 0 0 0 4.82 3.31 3.14 3.14 0 0 0 2.2-4c-.31-1.32-1.08-3.11-3.46-3.08zm-16.47 28.5s-2-5 3.2-6.48 4-7.2 8.74-8.64 8.8 7.17 8.1 13.13-20.04 1.99-20.04 1.99z" transform="translate(-682.42 -466.1)"/><path d="M683.38 580.09v111.27c0 4.2-.79 7.52 3.13 11.25s19.59 10.9 19.59 10.9V596.15z" transform="translate(-682.42 -466.1)" fill="#ebf1f4"/><path d="M892.62 597.18s.59 87.44.59 97.43-1.37 20-14.89 20h-168c-4.1 0-8.42-3.08-8.41-11.56v-112l93.75-50.36z" transform="translate(-682.42 -466.1)" fill="#fff"/><path class="cls-4" d="M802.78 668.12c-11.33 0-17.43-9.63-17.68-10a3 3 0 0 1 5.08-3.18c.09.13 4.7 7.2 12.62 7.22 6.61 0 9.61-8.88 9.64-9a3 3 0 0 1 5.71 1.85c-.15.53-4.4 13.11-15.37 13.11zm-45.15-30.87c-5.41.23-9.3 7.58-5.52 13.34 4.66 7.08 13.51 3.38 14.46-2.93a8.82 8.82 0 0 0-8.94-10.41zm83.61 17.18c5.41-.23 9.3-7.58 5.52-13.33-4.66-7.09-13.51-3.39-14.46 2.92a8.82 8.82 0 0 0 8.94 10.41z" transform="translate(-682.42 -466.1)"/><path d="M734.48 649.84c-8.1.43-12.39 6.54-12.39 12.6 0 7.64 4.08 13.28 12.25 13.28 8.46 0 12.7-6.81 12.74-12.89s-5.33-13.37-12.6-12.99zm128.8 0c8.1.43 12.4 6.54 12.4 12.6 0 7.64-4.09 13.28-12.25 13.28-8.46 0-12.7-6.81-12.74-12.89s5.31-13.37 12.59-12.99z" transform="translate(-682.42 -466.1)" style="fill:#ffb5c3"/><path class="cls-1" d="M795.4 545s-77.5 45.37-81.77 48.19-9.8 8.36-17.09 1.58-9-6.54-12.23-10.82-2.27-8 2.76-11.81 75.25-44.61 78.69-46.87 9-7 18 0 71.08 41.5 76.93 45.52 26.22 17.23 31.95 21c4.48 3 4.52 6.09 2.87 8s-5.62.42-14.42-4.64C872 590 795.4 545 795.4 545z" transform="translate(-682.42 -466.1)"/><path d="M726.75 720.75c-.48.06-2 .11-4.21.16V691.8s0-5.12-6.42-10.09c-5.63-4.36-15.66-3.47-19.54-1-8.5 5.48-7.58 11.44-7.58 11.44v28.76c-1.58 0-2.74-.09-3.31-.16-4.57-.55-3.72 5.37-1.31 5.82 1.67.32 40.87 1.11 43.34-.39s1.63-5.75-.97-5.43z" transform="translate(-682.42 -466.1)" fill="#cfc9d1"/><path d="M716.29 693.3a7 7 0 0 1-2.14 2.11 2.68 2.68 0 0 1-2.62.34 3 3 0 0 1-1.32-2.25 12.06 12.06 0 0 1-.12-2.94l-1-.06a19.11 19.11 0 0 1-.37 2.92 6.26 6.26 0 0 1-1.05 2.57 1.38 1.38 0 0 1-1 .57 1 1 0 0 1-.93-.42 5.6 5.6 0 0 1-1-2.6l-.26-1.85-.48 1.78a6.81 6.81 0 0 1-1.6 3.15c-.42.37-1 .71-1.48.48a1.81 1.81 0 0 1-1-1.33 5 5 0 0 1-.09-1.63c.2-.16.39-.33.58-.51a9 9 0 0 0 2.16-3.24 4.21 4.21 0 0 0 .36-2 1.19 1.19 0 0 0-.25-.65.73.73 0 0 0-.48-.26.77.77 0 0 0-.44.11 2.14 2.14 0 0 0-.74.86 13.72 13.72 0 0 0-1.21 3.63q-.12.62-.21 1.23a15.65 15.65 0 0 1-6 3.58v.09a13.28 13.28 0 0 0 5.85-2.55 6.36 6.36 0 0 0 .11 1.44 2.19 2.19 0 0 0 1.13 1.6 1.41 1.41 0 0 0 1 0 2.55 2.55 0 0 0 .88-.5 6.24 6.24 0 0 0 1.5-2.05 4.84 4.84 0 0 0 .77 1.79 2.36 2.36 0 0 0 .73.63 1.81 1.81 0 0 0 1 .17 2.43 2.43 0 0 0 1.64-.86 5.86 5.86 0 0 0 1.13-2.24 5.67 5.67 0 0 0 .39.83 2.72 2.72 0 0 0 1.3 1.18 3.27 3.27 0 0 0 3.2-.63 6.54 6.54 0 0 0 2-2.45zm-14.55-4.49a1.85 1.85 0 0 1 .42-.48.59.59 0 0 1 0 .14 3.91 3.91 0 0 1-.35 1.61 9 9 0 0 1-1.68 2.75c.05-.22.1-.45.16-.67a13.54 13.54 0 0 1 1.45-3.35zm8.49 13.82c-1.56 0-3.11.25-4.66.4q-4.65.44-9.3 1v.1c3.12-.05 6.23-.14 9.34-.25 1.56 0 3.12 0 4.67-.2a34.88 34.88 0 0 0 4.63-.75v-.1a36.81 36.81 0 0 0-4.68-.2zm-8.4 5.25a30.85 30.85 0 0 0-4.36.45v.1a32.39 32.39 0 0 0 4.36.45c1.46.06 2.91 0 4.37-.1q4.35-.13 8.72-.35v-.1c-2.91-.15-5.82-.26-8.72-.35-1.46-.06-2.91-.17-4.37-.1zm3.99 5.12c-2.22.09-4.43.21-6.65.35v.1c2.22.15 4.43.26 6.65.35a28.33 28.33 0 0 0 3.32.1 17.1 17.1 0 0 0 3.32-.45v-.1a18.79 18.79 0 0 0-3.32-.45c-1.14-.12-2.21.01-3.32.1zm-5.39 7.38c-1.52-.07-3 0-4.55.1q-4.14.12-8.28.32c-.62-.09-1.25-.17-1.87-.22a3.19 3.19 0 0 0-1 0 2.12 2.12 0 0 0-1 .5v.1a5.1 5.1 0 0 0 2 .24 54.36 54.36 0 0 1 5.79-.25h-.47l4.79.18c1.52.05 3 .17 4.55.1a35.22 35.22 0 0 0 4.55-.45v-.1a35.22 35.22 0 0 0-4.51-.52z" transform="translate(-682.42 -466.1)" style="fill:#a29aa4"/><path class="cls-4" d="M742.51 555s-.08-20.94 0-23.52-.89-5.6-5.24-5.6-12.78.59-14.91.52-6.91.29-6.69 7.74 0 29.19 0 31.4 0 7.23 7.1 2.66 19.74-13.2 19.74-13.2z" transform="translate(-682.42 -466.1)"/></g></svg>