<svg id="Layer_1" data-name="Layer 1" xmlns="http://www.w3.org/2000/svg" viewBox="0 0 231.71 229.4"><defs><style>.cls-1{fill:#584d9b;}.cls-2{fill:#6a5ba4;}.cls-3{fill:#b7b0d8;}.cls-4{fill:#fff;}.cls-5{fill:#e7a966;}.cls-6{fill:#8d6332;}.cls-7{fill:#4bb9ab;}.cls-8{fill:#feeb98;}</style></defs><path class="cls-1" d="M185.56,363s-.22,114.35,0,118.18.42,7,5.11,10.86,18.75,12.92,18.75,12.92l1.26-126Z" transform="translate(-180.56 -285.74)"/><path class="cls-2" d="M386.79,375.31s-.85,119.88-.85,122.44-1.49,9.79-8.31,9.79-160.13-.85-163.75-1.06-6.6-1.7-6.6-8.3,1.91-117.34,1.91-117.34l90.51-68.56Z" transform="translate(-180.56 -285.74)"/><circle class="cls-3" cx="57.63" cy="130.68" r="11.81"/><circle class="cls-4" cx="71.53" cy="112.65" r="5.65"/><circle class="cls-3" cx="184.29" cy="129.68" r="11.81"/><circle class="cls-4" cx="166.39" cy="111.65" r="5.65"/><path class="cls-4" d="M300.29,426.71h-.12c-31.64,0-62.2-8.28-62.51-8.36a2,2,0,0,1,1.06-3.86c.3.09,30.36,8.21,61.45,8.22h.11c43.62,0,59.84-8.25,60-8.34a2,2,0,0,1,1.88,3.54C361.48,418.26,345.12,426.71,300.29,426.71Z" transform="translate(-180.56 -285.74)"/><path class="cls-4" d="M299.26,322.56a3.41,3.41,0,0,1,4.06-.08c12.47,8.91,77.53,55.38,82.89,58.18,5.92,3.1,10.43-3.1,5.92-8.46-2.1-2.5-22.62-22.35-46.79-41.07-27.74-21.5-57.16-41.22-61.49-43.38-5.93-3-10.21-3-17.26,2.35s-78.71,60.66-82.66,64.32-4.8,6.21-.56,10.72,18.13,16.78,24,20.88c4.61,3.24,8.18,1.13,11.56-1.41C222,382.31,286.94,332.08,299.26,322.56Z" transform="translate(-180.56 -285.74)"/><path class="cls-5" d="M253.73,317.43a8.16,8.16,0,0,0,5-4.89,12,12,0,0,0-.21-7.57s2.26-10.15-.58-10.44-8.23,4.87-8.23,4.87a25.41,25.41,0,0,0-4.15-.6,28.5,28.5,0,0,0-4,.26s-8.39-6.27-9.49-4.59c-2,3.1.23,10,.23,10s-1.42,2.05-.66,7c.55,3.59,4.6,6,4.6,6-3.74,2.56-5.36,7.48-5.94,9.77-.19.77-1.3-5.72-3.92-6.76s-8.21,3.5-7.59,5.45c.69,2.21,3.82-1.33,5.33-1.21s1.51,3,2.49,5c.9,1.79,3.34,5.89,12.65,6.74a3.74,3.74,0,0,1-.29-.72,9.5,9.5,0,0,1-.24-2.37v-2.38a0,0,0,0,1,0,0,.05.05,0,0,1,0,0v0a27.72,27.72,0,0,1,1.1,4.49,2.64,2.64,0,0,0,.31.82.89.89,0,0,0,.16.25c.63,0,1.29.07,2,.07,1.07,0,2.06,0,3-.05a5.05,5.05,0,0,1-.56-2.15l0-6.34a0,0,0,0,1,.09,0v0a16.1,16.1,0,0,1,.67,3.15,30.1,30.1,0,0,1,.21,3.14,4.76,4.76,0,0,0,.53,2.16,35.43,35.43,0,0,0,4.43-.51,3.14,3.14,0,0,1-.87-1.49,8.46,8.46,0,0,1-.22-2.4l0-2.39a.05.05,0,0,1,0-.05s0,0,0,0v0a9.8,9.8,0,0,1,.67,2.4,16.43,16.43,0,0,0,.39,2.12,2.49,2.49,0,0,0,.33.83,2.14,2.14,0,0,0,.53.65l.1.07c5.2-1.19,7.56-3.66,7.75-7.19C259.87,323.29,253.73,317.43,253.73,317.43Z" transform="translate(-180.56 -285.74)"/><path class="cls-6" d="M224.63,305.69c-.09.5,10.08,5.22,11.34,4.36S224.86,304.43,224.63,305.69Z" transform="translate(-180.56 -285.74)"/><path class="cls-6" d="M237.32,312.21c-.4-.4-9.59,2.12-9.32,3.24S238.49,313.38,237.32,312.21Z" transform="translate(-180.56 -285.74)"/><path class="cls-6" d="M266.64,305.29c.09.49-8.31,3.86-9.57,3S266.42,304,266.64,305.29Z" transform="translate(-180.56 -285.74)"/><path class="cls-6" d="M257.06,310.28c.4-.4,8-.63,7.74.49S255.89,311.45,257.06,310.28Z" transform="translate(-180.56 -285.74)"/><path class="cls-6" d="M252.11,307.85c-1.36,0-1.7,3.95,0,3.95S253.34,307.85,252.11,307.85Z" transform="translate(-180.56 -285.74)"/><path class="cls-6" d="M243.09,307.85c-1.36,0-1.7,3.95,0,3.95S244.32,307.85,243.09,307.85Z" transform="translate(-180.56 -285.74)"/><path class="cls-6" d="M246.5,311.35c.28-.5,2.67-.51,3.11-.08.23.23-.78,1.61-1.49,1.59S246.38,311.58,246.5,311.35Z" transform="translate(-180.56 -285.74)"/><path class="cls-7" d="M390.87,494.11l.29,9s6-10.3,14.44-10.52c10.38-.28,8,13-2.6,17.83s-15.34,4.77-15.34,4.77-14.8-.61-18.61-8.23,5.34-9.59,9.67-7.86a38.43,38.43,0,0,1,7.52,4.05l-.45-11.26Z" transform="translate(-180.56 -285.74)"/><path class="cls-8" d="M376.89,474.24c-1.19,1.2-10.72,4.27-11.23,7.51s3.24,6.48,8,7.67c0,0-2.73,8-1,10.75s5.63,1.87,8.53.34,4.78-4.61,6.65-4.61,7.51,4.78,12.62,3.93,3.91-9.35,2.9-11.94c-.81-2.09-1.53-3.07-1.36-4.27s8.18-4.94,8.69-9.38-5.11-6-8.69-5.45-5.8,1-5.8,1-4.44-5.12-7.16-6.82-6.48-1.54-8.53,2.05A49.14,49.14,0,0,0,376.89,474.24Z" transform="translate(-180.56 -285.74)"/></svg>