<svg id="Layer_1" data-name="Layer 1" xmlns="http://www.w3.org/2000/svg" viewBox="0 0 249.29 238.5"><defs><style>.cls-1{fill:#d0cad2;}.cls-2{fill:#e7e0e9;}.cls-3{fill:#7c82a5;}.cls-4{fill:#f9c7c1;}</style></defs><path class="cls-1" d="M416.18,379.78c1.15,17.47.05,112.84,0,119.43,0,5.69-.73,8.93-4.45,12.68S386.7,539,377.54,541a35,35,0,0,1-6.05.7l2-142.21Z" transform="translate(-173.24 -303.22)"/><path class="cls-2" d="M379.37,408.61c.61,5.26,2,64.66,2.23,79.26s-1,40.3-1.11,43.74-1.25,10.12-9,10.12c-10.52,0-181.67-.21-184.91-.41s-9.1-.6-9.3-12.14,0-125.42,0-125.42L285,341.15Z" transform="translate(-173.24 -303.22)"/><path class="cls-3" d="M278.33,351a5.15,5.15,0,0,1,5.67.28l89.41,65.44c2.83,2.06,8.51,4.64,13.15,0s29.91-29,33.26-32.42,3.87-7.55,0-10.9-87.93-66.28-90.25-67.83a17,17,0,0,0-17.28,0c-8,4.39-93.62,55.19-99.94,59.06S177,398.75,174.58,401.24c-3.15,3.24-.64,10.2,6.6,6.62C187.09,404.93,262.46,360.38,278.33,351Z" transform="translate(-173.24 -303.22)"/><path class="cls-3" d="M266.06,485.79c-9.73-.17-19.78,6.85-17.8,14.61s10.48,14.92,17.8,14.92,18.58-10.2,18.88-18S274.41,485.94,266.06,485.79Z" transform="translate(-173.24 -303.22)"/><path class="cls-3" d="M297.73,473.92c1,1.56,4.55,3.34,11.32,2.2,8.84-1.48,14.42-5.55,13.79-7.37-1-2.86-7.85-.92-12.53,0s-9.21,1.42-11,1.8A2.14,2.14,0,0,0,297.73,473.92Z" transform="translate(-173.24 -303.22)"/><path class="cls-4" d="M322.89,494.18c-.61-1.13,0-9.32,3.79-12.52,2.53-2.13,6.4,1.4,3,7.19C328.28,491.24,324.09,496.38,322.89,494.18Z" transform="translate(-173.24 -303.22)"/><path class="cls-4" d="M333.37,493.66c-.62-1.07-.06-8.89,3.73-12,2.52-2.05,6.4,1.3,3,6.84C338.74,490.83,334.57,495.75,333.37,493.66Z" transform="translate(-173.24 -303.22)"/><path class="cls-4" d="M344.17,492.23c-.55-1,0-8.38,3.42-11.26,2.28-1.92,5.77,1.26,2.71,6.47C349,489.59,345.25,494.21,344.17,492.23Z" transform="translate(-173.24 -303.22)"/><path class="cls-4" d="M190.73,495.9c-.61-1.13,0-9.32,3.79-12.52,2.54-2.13,6.4,1.39,3,7.19C196.12,493,191.93,498.09,190.73,495.9Z" transform="translate(-173.24 -303.22)"/><path class="cls-4" d="M201.34,495.73c-.65-1.05-.3-8.88,3.4-12.06,2.46-2.12,6.43,1.12,3.22,6.76C206.64,492.75,202.61,497.79,201.34,495.73Z" transform="translate(-173.24 -303.22)"/><path class="cls-4" d="M212.62,494.38c-.6-1-.39-8.38,2.9-11.41,2.19-2,5.82,1,3,6.34C217.35,491.51,213.79,496.3,212.62,494.38Z" transform="translate(-173.24 -303.22)"/><path class="cls-3" d="M309.08,473.92c-4.87.75-6.48,5.54-5.79,9.09s4.7,5.22,8.09,4.62,5.9-4.49,5.05-8.69A6.54,6.54,0,0,0,309.08,473.92Z" transform="translate(-173.24 -303.22)"/><path class="cls-3" d="M242.89,474.76c-1,1.56-4.55,3.34-11.33,2.2-8.83-1.48-14.41-5.55-13.79-7.38,1-2.85,7.86-.91,12.53,0s9.22,1.43,11,1.81A2.15,2.15,0,0,1,242.89,474.76Z" transform="translate(-173.24 -303.22)"/><path class="cls-3" d="M231.53,474.76c4.88.75,6.49,5.54,5.8,9.09s-4.71,5.22-8.09,4.62-5.91-4.49-5.05-8.69A6.53,6.53,0,0,1,231.53,474.76Z" transform="translate(-173.24 -303.22)"/><path class="cls-3" d="M308.25,502.89a3.5,3.5,0,1,0-3.69,5.95,14.8,14.8,0,0,1,1.71,1.21A56.33,56.33,0,0,1,289,518.64c-10.67,3-28.59,0-28.77-.07a3.5,3.5,0,0,0-1.17,6.9,117.82,117.82,0,0,0,17.82,1.47,54.52,54.52,0,0,0,14-1.55,63.06,63.06,0,0,0,18.59-9,20.21,20.21,0,0,1,.16,2.59,3.5,3.5,0,0,0,7,0C316.65,509.34,312.16,505.32,308.25,502.89Z" transform="translate(-173.24 -303.22)"/></svg>