<svg xmlns="http://www.w3.org/2000/svg" viewBox="0 0 289.68 258.53"><defs><style>.cls-1{fill:#b7ea9a;}.cls-2{fill:#97d474;}.cls-3{fill:#ed8883;}.cls-4{fill:#76a65b;}.cls-5{fill:#97c289;}.cls-6{fill:#6c955f;}.cls-7{fill:#ffc1be;}.cls-8{fill:#71aa64;}</style></defs><g id="Layer_1" data-name="Layer 1"><path class="cls-1" d="M877.15,587.86s.57,113.89.34,119.81c-.1,2.61-.13,12.65-7.55,13.39-10.3,1-54.44,2-76.56,1.72-31.24-.34-115.36.69-122.91-2.4s-7.21-4.81-7.21-27.13,1.37-103.33,1.37-103.33l121.54-79.65Z" transform="translate(-652.35 -474.19)"/><polygon class="cls-2" points="266.68 84.14 265.15 211 219.9 246.41 224.79 113.67 266.68 84.14"/><path class="cls-3" d="M783.22,519.4s-112.88,76.07-119.75,80.11-16.59-4.85-7.29-11.73S822.06,476.11,822.06,476.11a12.56,12.56,0,0,1,15.37,1.62l80.92,72.42s8.9,7.29,1.21,14.57-38.84,31.15-38.84,31.15-5.66,4.86-13.35-2S783.22,519.4,783.22,519.4Z" transform="translate(-652.35 -474.19)"/><path class="cls-4" d="M709.46,662c-8.45,0-15.81-4.22-20.88-12a4.5,4.5,0,1,1,7.55-4.9c2.54,3.92,7.16,8.46,14.67,7.87,8.93-.7,12.31-6.54,13.53-10a4.5,4.5,0,0,1,8.48,3c-1.57,4.4-6.79,14.76-21.3,15.91C710.82,662,710.14,662,709.46,662Z" transform="translate(-652.35 -474.19)"/><path class="cls-4" d="M815.75,663.4a28.52,28.52,0,0,1-4.12-.31,22.44,22.44,0,0,1-18.9-16.8,4.5,4.5,0,0,1,8.69-2.36A13.34,13.34,0,0,0,813,654.19c8.69,1.31,13.67-3.78,16.31-8.29a4.5,4.5,0,1,1,7.76,4.56C834.64,654.57,828,663.4,815.75,663.4Z" transform="translate(-652.35 -474.19)"/><path class="cls-4" d="M758.66,649.47c-4.48,2.91-5.08,12.11.85,14.89s11.62-.12,10.53-8.59S761.06,647.92,758.66,649.47Z" transform="translate(-652.35 -474.19)"/><path class="cls-5" d="M887.31,519s3.25,1.57,3,4-4.95,10.09-18,12.87-19.47,0-22.47-6.73c-2.67-6-.19-15-.19-15s-6.24-3.07-5.65-10.19,6.63-9.1,10.49-8.71,7.23,5,7.23,5a9.11,9.11,0,0,1,4.06-1.58,11.51,11.51,0,0,1,4.35.59s2.08-5.54,6.23-6.14,10.4,4.95,10,9.6-1.78,5.74-1.78,5.74a28.41,28.41,0,0,1,2.57,5.15A14.5,14.5,0,0,1,887.31,519Z" transform="translate(-652.35 -474.19)"/><path class="cls-6" d="M851.8,502.13c-2,1-1.12,4.39.86,5.58s3.92-.77,2.93-3.24S853,501.53,851.8,502.13Z" transform="translate(-652.35 -474.19)"/><path class="cls-6" d="M879.8,498c2.26-.06,3.06,3.35,1.87,5.33s-3.82,1.17-4.11-1.48S878.48,498,879.8,498Z" transform="translate(-652.35 -474.19)"/><path class="cls-6" d="M864.44,505.44c-.51.72.34,2,1.59,2.95a3.39,3.39,0,0,0,4.25-.08,4.55,4.55,0,0,0,1.22-3.51c0-1.38-1.19-1.09-1.33-.08s-.39,2.3-1.64,2.47a2.12,2.12,0,0,1-2.39-1.36C865.63,504.87,864.72,505,864.44,505.44Z" transform="translate(-652.35 -474.19)"/><path class="cls-7" d="M856.89,516.19c-.83,1.28-3.17,2.69-4.63,1.89s-1.13-3.72.27-5.18,3.93-2.53,5-1C858.19,512.88,857.92,514.63,856.89,516.19Z" transform="translate(-652.35 -474.19)"/><path class="cls-7" d="M878.5,508.79c-.22,2.12,1.36,3.77,3,3.09s2.37-2.57.86-4S878.65,507.27,878.5,508.79Z" transform="translate(-652.35 -474.19)"/><path class="cls-8" d="M839.34,696.12s-1.9-14.06,9.1-19.58c15-7.54,24.71,4.19,24.71,4.19a11.59,11.59,0,0,1,5.1-.46,7.4,7.4,0,0,1,5,2.48s1.19-1.49,4.27-1.49a7.3,7.3,0,0,1,5,2,5.21,5.21,0,0,1,4.68-1.89,9.39,9.39,0,0,1,5.46,2.29s13.72-11.24,24-3.09,5.86,21.68,5.86,21.68,6.07,2.09,6.27,6.46a20.55,20.55,0,0,1-1.1,7.66A8.26,8.26,0,0,1,942,723.5a18.62,18.62,0,0,1-2.1,9.22l-107.1-.42s-7.34-.84-8.17-7.55,2.72-9.22,2.72-9.22-.21-4.19,1.47-7.12,6.08-4.2,6.08-4.2-.63-3.14.83-5.24A8.32,8.32,0,0,1,839.34,696.12Z" transform="translate(-652.35 -474.19)"/></g></svg>