<svg id="Layer_1" data-name="Layer 1" xmlns="http://www.w3.org/2000/svg" viewBox="0 0 247.9 205.13"><defs><style>.cls-1{fill:#777a9d;}.cls-2{fill:#5e638a;}.cls-3{fill:#e7e0e9;}</style></defs><path class="cls-1" d="M390.07,436.21s15.91-9.17,26.29-1.9,3.28,26.63-5.54,32.16a31.51,31.51,0,0,1-18.68,4.33Z" transform="translate(-173.61 -318.96)"/><path class="cls-2" d="M395,460.47h-.14a1.5,1.5,0,0,1-1.35-1.63,16.17,16.17,0,0,1,4.88-9.36,21.66,21.66,0,0,1,11.46-5.68,1.5,1.5,0,0,1,.35,3,18.88,18.88,0,0,0-9.72,4.86,13.35,13.35,0,0,0-4,7.48A1.51,1.51,0,0,1,395,460.47Z" transform="translate(-173.61 -318.96)"/><polygon class="cls-1" points="225.22 82.79 130.4 29.33 44.69 86.7 44.95 202.17 226 201.7 225.22 82.79"/><polygon class="cls-2" points="10.74 60.38 98.38 3.54 132.85 28.28 44.17 85.65 44.43 199.97 9.96 173.8 10.74 60.38"/><path class="cls-3" d="M303.2,475.36a48.08,48.08,0,0,1-12-1.18,29.57,29.57,0,0,1-17-12.86,3,3,0,0,1,5.23-2.94,23.89,23.89,0,0,0,13.35,10c5.51,1.49,14.84,1,24.72.41,8.29-.46,16.86-.94,24.73-.39a3,3,0,1,1-.43,6c-7.49-.53-15.87-.06-24,.39C312.67,475.08,307.7,475.36,303.2,475.36Z" transform="translate(-173.61 -318.96)"/><path class="cls-1" d="M205.05,432.26s-15.91-9.17-26.29-1.9-3.29,26.63,5.53,32.17A31.56,31.56,0,0,0,203,466.85Z" transform="translate(-173.61 -318.96)"/><path class="cls-2" d="M200.14,456.53h.15a1.5,1.5,0,0,0,1.35-1.63,16.13,16.13,0,0,0-4.89-9.35,21.59,21.59,0,0,0-11.45-5.69,1.51,1.51,0,0,0-1.66,1.32,1.49,1.49,0,0,0,1.31,1.66,18.85,18.85,0,0,1,9.72,4.87,13.32,13.32,0,0,1,4,7.48A1.5,1.5,0,0,0,200.14,456.53Z" transform="translate(-173.61 -318.96)"/><path class="cls-3" d="M303.59,438.76c-3.57.19-8.17,3.89-7,10.36.87,4.62,3.14,8.32,8.35,8.63,5,.28,6.95-5.57,6.55-11.13S307.16,438.57,303.59,438.76Z" transform="translate(-173.61 -318.96)"/><path class="cls-3" d="M336.49,438.75c3.58,0,8.4,3.38,7.59,9.91-.59,4.67-2.62,8.5-7.8,9.13-4.94.59-7.28-5.12-7.23-10.7S332.91,438.78,336.49,438.75Z" transform="translate(-173.61 -318.96)"/><path class="cls-3" d="M402.23,401.22c0-1.67-1.34-3.06-2.55-4l-38.22-28.67-87.59-49.31a2.44,2.44,0,0,0-2.55.07l-89.6,58a2,2,0,0,0-.9,1.65v50.22a16.75,16.75,0,0,1,6-1.55V386.08a.26.26,0,0,1,.42-.21l11.11,8.4a.73.73,0,0,1,.29.58l.73,107.69-12.07-9.49a1.25,1.25,0,0,1-.48-1V463.92a27.46,27.46,0,0,1-2.53-1.39,17.27,17.27,0,0,1-3.47-3v35.28a1.57,1.57,0,0,0,.61,1.25l33.67,26.47,2.8,1.54H396.06a6.74,6.74,0,0,0,4.36-1.5,6.42,6.42,0,0,0,2.31-5ZM202,389.06a.54.54,0,0,1-.64,0l-11.91-9a.38.38,0,0,1,0-.62l81.7-52.85a.39.39,0,0,1,.45,0l9.57,7.55a.24.24,0,0,1,0,.39ZM215.1,514.91l-9.7-7.63-.73-107.79a.22.22,0,0,1,.35-.17l9.52,7.19a1.44,1.44,0,0,1,.56,1.13Zm2.79-113.38-10.79-8.17a.31.31,0,0,1,0-.51l79.06-54.46a.39.39,0,0,1,.46,0l12.65,10a.26.26,0,0,1,0,.42l-80.68,52.74A.6.6,0,0,1,217.89,401.53ZM395.64,518.08H223.4a2.3,2.3,0,0,1-2.3-2.3v-107a3.1,3.1,0,0,1,1.41-2.61l81.4-53.21a3.87,3.87,0,0,1,4-.14l86.65,48.71a3.21,3.21,0,0,1,1.65,2.81l.49,112.27C396.73,517.22,396.4,518.08,395.64,518.08Z" transform="translate(-173.61 -318.96)"/></svg>