<svg id="Layer_1" data-name="Layer 1" xmlns="http://www.w3.org/2000/svg" viewBox="0 0 253.52 250.59"><defs><style>.cls-1{fill:#584d9b;}.cls-2{fill:#dab3d5;}.cls-3{fill:#f1d8ea;}.cls-4{fill:#ffeaa5;}.cls-5{fill:#f8cbe1;}</style></defs><path class="cls-1" d="M338.4,369.06s-.31-35.6,0-40.47c.23-3.65-.73-18.16,5.1-24.29,10.93-11.49,28.87-6.79,34.46.37,4.16,5.33,5.18,17.53,5.18,25.13v66.83c0,4.57-1.83,7.71-5.48,5.91S339.52,376.92,338.4,369.06Z" transform="translate(-170.88 -297.36)"/><path class="cls-2" d="M174.93,406.75c.36-2.36-1.14,59.29-1,71.05.18,13.77-.34,35,5.4,40.38,8.51,8,40.13,26.53,40.13,26.53l5.63,2.23-4.22-122.12Z" transform="translate(-170.88 -297.36)"/><path class="cls-3" d="M214.38,431.44c0,11.46,1.52,94.43,1.52,100.8s2.8,14.25,12,15.27,174.6,0,180.71-.26,11.71-2,12-14.25-1.28-106.65-1.28-106.65L314.15,356.61Z" transform="translate(-170.88 -297.36)"/><path class="cls-4" d="M314.48,363.85a6,6,0,0,1,7.1-.16C338.79,375.85,412,427.51,416.42,430c5.05,2.79,10.8-3.31,6.45-7.14s-131.93-91.49-137-94.46A14.32,14.32,0,0,0,269,329.93c-5.4,4.53-91.66,68.32-96.37,72.67s.87,9.59,8.72,15.51,21.26,14.47,26.48,18.13,11.51,1.92,20.74-5.58C236.63,424.11,299,375.87,314.48,363.85Z" transform="translate(-170.88 -297.36)"/><path class="cls-1" d="M296.68,467.51c-3.48,0-6.82,4-6.82,9.4s3,8.72,6.82,8.72,5.76-4.53,5.76-9.06S300.17,467.51,296.68,467.51Z" transform="translate(-170.88 -297.36)"/><path class="cls-5" d="M282.93,488.83a3.19,3.19,0,0,0-3.38-2.84,2.88,2.88,0,0,0-3.14,2.84c0,1.57,1.63,2.39,3.26,2.39S282.93,490.28,282.93,488.83Z" transform="translate(-170.88 -297.36)"/><path class="cls-5" d="M272.46,504.24a3.18,3.18,0,0,0,3.29-2.95,2.88,2.88,0,0,0-2.37-3.51c-1.55-.22-2.6,1.28-2.83,2.9S271,504,272.46,504.24Z" transform="translate(-170.88 -297.36)"/><path class="cls-5" d="M288.18,496.17a3.18,3.18,0,0,0-1.16,4.26,2.88,2.88,0,0,0,3.88,1.67c1.43-.66,1.5-2.49.82-4S289.49,495.56,288.18,496.17Z" transform="translate(-170.88 -297.36)"/><path class="cls-5" d="M380,487.38a3.18,3.18,0,0,1,2.62-3.55,2.87,2.87,0,0,1,3.72,2c.37,1.53-1,2.71-2.61,3.1S380.31,488.79,380,487.38Z" transform="translate(-170.88 -297.36)"/><path class="cls-5" d="M393.78,498.89a3.19,3.19,0,0,1-3.89-2.09,2.88,2.88,0,0,1,1.47-4c1.46-.59,2.83.63,3.43,2.14S395.13,498.35,393.78,498.89Z" transform="translate(-170.88 -297.36)"/><path class="cls-5" d="M376.61,493.75a3.19,3.19,0,0,1,2.13,3.87,2.87,2.87,0,0,1-3.38,2.54c-1.55-.3-2-2.06-1.73-3.66S375.18,493.48,376.61,493.75Z" transform="translate(-170.88 -297.36)"/><path class="cls-1" d="M363,468.52c3.48,0,6.82,4,6.82,9.39s-3,8.72-6.82,8.72-5.76-4.53-5.76-9.06S359.55,468.52,363,468.52Z" transform="translate(-170.88 -297.36)"/><path class="cls-1" d="M320.05,478.24c.15-2.17,4.87-4.86,9.73-4.69s8.05,2,8.22,3.85-4.36,6.88-8.72,7.05S319.88,480.76,320.05,478.24Z" transform="translate(-170.88 -297.36)"/><path class="cls-1" d="M307.81,501.54a2.5,2.5,0,0,1,0-5c3.1,0,16.58-5.06,18.51-15.72a2.5,2.5,0,0,1,4.88-.19c.13.49,3.48,12.4,15.86,14.09a2.5,2.5,0,1,1-.68,4.95A23.44,23.44,0,0,1,329,487.91C323.73,497.37,311.81,501.54,307.81,501.54Z" transform="translate(-170.88 -297.36)"/><path class="cls-1" d="M265.62,369.06s.3-35.6,0-40.47-.76-23.75-11.27-27.51c-12-4.28-22.71-1.57-28.3,5.59-4.16,5.33-5.17,15.53-5.17,23.13v66.83c0,4.57,2,7.65,5.48,5.91C231.34,400.07,264.49,376.92,265.62,369.06Z" transform="translate(-170.88 -297.36)"/></svg>