<svg id="Layer_1" data-name="Layer 1" xmlns="http://www.w3.org/2000/svg" viewBox="0 0 230.09 226.13"><defs><style>.cls-1{fill:#ebf0f4;}.cls-2{fill:#fff;}.cls-3{fill:#ada5b0;}.cls-4{fill:#f9cbcc;}.cls-5{fill:#f0827b;}.cls-6{fill:#babdd1;}.cls-7{fill:#7c82a5;}.cls-8{fill:#e7e0e9;}.cls-9{fill:#feeb98;}.cls-10{fill:#5e638a;}</style></defs><path class="cls-1" d="M392,391.23s-1,115.3-1,118.62-3.31,5.59-5.79,7-22.57,8.85-25.67,9.29-1-.19-1-.19l-1.24-117.36Z" transform="translate(-180.55 -308.58)"/><path class="cls-2" d="M365.73,412.14s1.24,102.05.41,105.37-1.24,8-7.66,8.47-162.91,0-166.22,0-6.84-2.68-6.84-6.4,1.35-105.37,1.35-105.37L279,361.42Z" transform="translate(-180.55 -308.58)"/><path class="cls-3" d="M271.1,490.16a9.93,9.93,0,0,1-5.71-2.09,6.23,6.23,0,0,0-2.75-1.29,6.48,6.48,0,0,0-3.18.84,9.44,9.44,0,0,1-5.38,1.08,6,6,0,0,1-5.14-3.92,6.31,6.31,0,0,1,1.06-6,2.5,2.5,0,0,1,3.75,3.3,1.5,1.5,0,0,0-.07,1.12c.16.37.81.53,1.19.59a5.25,5.25,0,0,0,2.59-.73,11,11,0,0,1,5.69-1.22,10.66,10.66,0,0,1,5,2.09,5.36,5.36,0,0,0,3,1.26,4.92,4.92,0,0,0,2.74-1.09,10.3,10.3,0,0,1,5.49-1.93,18.5,18.5,0,0,1,5.3.91c2.36.63,4.81,1.29,6.28.44.58-.33.9-.67.94-1,.1-.77-.78-2.13-1.46-2.81a2.5,2.5,0,0,1,3.52-3.55c.34.34,3.36,3.43,2.9,7a6.3,6.3,0,0,1-3.41,4.68c-3.26,1.88-7,.87-10.07.05a16.06,16.06,0,0,0-3.85-.74,5.75,5.75,0,0,0-3,1.19A9.64,9.64,0,0,1,271.1,490.16Zm-17.37-8.08h0Z" transform="translate(-180.55 -308.58)"/><path class="cls-4" d="M269.71,460.27c-6.33.2-10.76,5.33-9.85,9.55s5.73,6.64,11.06,6.64,10.56-4.62,10.36-9S274.64,460.11,269.71,460.27Z" transform="translate(-180.55 -308.58)"/><path class="cls-3" d="M328.85,472.44c-1.38.76-2.42,3.62,1.81,3.72s15.58-4,15.79-5.53S335.38,468.82,328.85,472.44Z" transform="translate(-180.55 -308.58)"/><path class="cls-3" d="M330.42,478.88c-2.88,0-3.05,3,.18,4.48s13.17,2.11,15,1.27S338.37,478.88,330.42,478.88Z" transform="translate(-180.55 -308.58)"/><path class="cls-3" d="M222.08,472.44c1.57.76,2.75,3.62-2.06,3.72s-17.75-4-18-5.53S214.64,468.82,222.08,472.44Z" transform="translate(-180.55 -308.58)"/><path class="cls-3" d="M222.54,480.1c2.42-.21,2.83,2.76.24,4.48s-10.91,3.06-12.53,2.36S215.85,480.68,222.54,480.1Z" transform="translate(-180.55 -308.58)"/><ellipse class="cls-5" cx="48.74" cy="149.9" rx="8.95" ry="9.27"/><ellipse class="cls-5" cx="137.74" cy="149.9" rx="8.95" ry="9.27"/><path class="cls-6" d="M399.47,531.58c1.44-1,17-16.86,8.75-23.9s-19.31.1-19.31.1,2.9-7.87-1.86-10.77-14.7,3.73-14.7,3.73,3.52-9.73-4.76-12.63-22.77,13.46-22.77,13.46a8.4,8.4,0,0,0-6.21-1.87c-8.46.94-20.91,13.25-24.22,24.64s10.35,10.35,10.35,10.35l66.86-.21A13.93,13.93,0,0,0,399.47,531.58Z" transform="translate(-180.55 -308.58)"/><path class="cls-7" d="M353.45,504.09c-1.44-1-6.37,6-4.12,7.86S356.63,506.33,353.45,504.09Z" transform="translate(-180.55 -308.58)"/><path class="cls-7" d="M371.23,515.13c-1.56-1.8-8.69,7.26-6.22,9.43S373.66,517.94,371.23,515.13Z" transform="translate(-180.55 -308.58)"/><path class="cls-7" d="M384.89,514.9c-1.63-1.72-8.79,3.79-6.55,6S387.7,517.84,384.89,514.9Z" transform="translate(-180.55 -308.58)"/><path class="cls-7" d="M400.24,519.44c-1.37-1.05-5.8,1.87-4.12,3.93S403.42,521.87,400.24,519.44Z" transform="translate(-180.55 -308.58)"/><path class="cls-7" d="M333.8,513.63c1.64.29-1.13,8.8-3.75,7.3S330.61,513.07,333.8,513.63Z" transform="translate(-180.55 -308.58)"/><path class="cls-7" d="M343.9,521.65c1.38.65-2.24,7.71-4.86,6.4S341.47,520.49,343.9,521.65Z" transform="translate(-180.55 -308.58)"/><path class="cls-7" d="M227.82,320.41s-3.54-7.17,0-10S236.5,312,236.5,312Z" transform="translate(-180.55 -308.58)"/><path class="cls-7" d="M246.69,311.83s6.76-4.65,10.09-2.83-.6,9.29-.6,9.29Z" transform="translate(-180.55 -308.58)"/><path class="cls-8" d="M236.4,310.52c-1.72,1-9.79,8.75-10.6,9.79-1.7,2.16-1.21,5.17.6,7.57,2.17,2.85,6.15,7.13,15.94,7.33s14.64-4.48,16.11-6.55c1-1.35,4.28-5.62,1.1-9.13-3.36-3.72-9.91-8.08-10.89-8.69C244.67,308.4,240.53,308.09,236.4,310.52Z" transform="translate(-180.55 -308.58)"/><path class="cls-7" d="M242.25,318s6.16-3.93,9.18-2-1.31,8.47-4.59,10.29a9,9,0,0,1-6.71.5c-2-.7-10.95-4.62-8.38-8.67S242.25,318,242.25,318Z" transform="translate(-180.55 -308.58)"/><path class="cls-9" d="M247,318.31c-1.65.07-2.07,4.69,0,4.8S249.43,318.2,247,318.31Z" transform="translate(-180.55 -308.58)"/><path class="cls-9" d="M238.1,318.47c1.65.07,2.06,4.7,0,4.81S235.62,318.36,238.1,318.47Z" transform="translate(-180.55 -308.58)"/><path class="cls-10" d="M245.64,326.93c-.23,1.64-4.31,1.64-4.2-.42S246,324.47,245.64,326.93Z" transform="translate(-180.55 -308.58)"/><path class="cls-7" d="M259.52,363.49s.07-28.35.07-29.82.67-4.88-1.47-4.88c-2.94,0-29.88.2-31.29.2s-1.8,1.74-2,5.28c-.26,4.62-.47,45.33-.47,45.33Z" transform="translate(-180.55 -308.58)"/><path class="cls-7" d="M274.92,366.6a4.6,4.6,0,0,1,4.81,0c13.65,8.48,81,50.36,82.89,51.29,2.07,1,5.59,1.66,8.28-.62s22.77-21.32,24.43-23,4.35-5,.83-8.08S314.39,332,312.94,330.78s-5.59-1.44-8.07,0-88.4,53.21-92.13,54.86-29.82,25.36-31.07,26.8c-3,3.52.33,10.05,7.63,5.08C195.56,413.25,261,375,274.92,366.6Z" transform="translate(-180.55 -308.58)"/></svg>