<svg id="Layer_1" data-name="Layer 1" xmlns="http://www.w3.org/2000/svg" xmlns:xlink="http://www.w3.org/1999/xlink" viewBox="0 0 273.39 249.11"><defs><style>.cls-1{fill:none;}.cls-2{fill:#4f537a;}.cls-3{fill:#5e638a;}.cls-4{fill:#3c4065;}.cls-5{fill:#f9c9ca;}.cls-6{fill:#fff;}.cls-7{clip-path:url(#clip-path);}.cls-8{clip-path:url(#clip-path-2);}</style><clipPath id="clip-path" transform="translate(-161.38 -296.42)"><path class="cls-1" d="M213.05,303.67c-13,7.38-23.83,34-18.65,52.16,2.63,9.2,8.71,14.77,16.94,9,5.09-3.58,48.59-33.35,48.59-33.35s6.85-4.42-.45-11C250.55,312.47,225.92,296.35,213.05,303.67Z"/></clipPath><clipPath id="clip-path-2" transform="translate(-161.38 -296.42)"><path class="cls-1" d="M372.64,300.23c13.93,4.69,14.62,24.35,14.93,39.76.14,6.7,0,18.82-7.92,14.77-4.91-2.5-51.69-27.39-51.69-27.39s-6.57-2-1-8.71C333.76,310.48,357.72,295.21,372.64,300.23Z"/></clipPath></defs><path class="cls-2" d="M167.45,518.48c.16,5.13.54,6,3.68,8.49,5.29,4.1,14.47,13.28,21.09,16.53l.17-152L167,371.62S167.35,515.41,167.45,518.48Z" transform="translate(-161.38 -296.42)"/><path class="cls-3" d="M189,389.29s0,148.05,1,151.07,2.68,4.36,9.71,5,202.56-1.35,205.23-2.69,4.69-3.69,4.35-8.39-1.32-160.09-1.32-160.09L294.77,322.62Z" transform="translate(-161.38 -296.42)"/><path class="cls-4" d="M391,415.1c3.5-.63,7-1.17,10.48-1.66s7-1,10.5-1.36,7-.77,10.54-1.12c1.75-.19,3.51-.32,5.27-.44l2.65-.14a5.62,5.62,0,0,1,2.68.39,2.73,2.73,0,0,1,1.41,3.6,2.68,2.68,0,0,1-1,1.21h0a5.61,5.61,0,0,1-2.58.79l-2.62.27c-1.75.17-3.5.31-5.25.43l-10.5.76-10.51.74-10.51.67a2.09,2.09,0,0,1-.51-4.15Z" transform="translate(-161.38 -296.42)"/><path class="cls-4" d="M396.66,426.61c2.49.24,4.92.6,7.38.95s4.89.78,7.32,1.27,4.87,1,7.29,1.62c1.22.29,2.43.63,3.63,1l1.8.62a3.63,3.63,0,0,1,1.65,1.08,2.34,2.34,0,0,1-.32,3.3,2.27,2.27,0,0,1-.89.45l-.15,0a3.24,3.24,0,0,1-1.84-.1l-1.72-.48-3.47-1c-2.31-.66-4.67-1.26-7-1.85l-14.23-3.49a1.75,1.75,0,0,1,.58-3.44Z" transform="translate(-161.38 -296.42)"/><path class="cls-4" d="M229.66,415.1c-3.5-.63-7-1.17-10.48-1.66s-7-1-10.51-1.36-7-.77-10.53-1.12c-1.76-.19-3.52-.32-5.28-.44l-2.64-.14a5.62,5.62,0,0,0-2.68.39,2.72,2.72,0,0,0-1.41,3.6,2.66,2.66,0,0,0,1,1.21h0a5.57,5.57,0,0,0,2.58.79l2.62.27c1.74.17,3.49.31,5.24.43l10.51.76,10.51.74,10.5.67a2.09,2.09,0,0,0,.52-4.15Z" transform="translate(-161.38 -296.42)"/><path class="cls-4" d="M224,426.61c-2.49.24-4.92.6-7.38.95s-4.89.78-7.33,1.27-4.86,1-7.29,1.62c-1.22.29-2.42.63-3.63,1l-1.8.62a3.63,3.63,0,0,0-1.65,1.08,2.35,2.35,0,0,0,.32,3.3,2.31,2.31,0,0,0,.9.45l.14,0a3.23,3.23,0,0,0,1.84-.1l1.72-.48,3.47-1c2.32-.66,4.68-1.26,7-1.85l14.22-3.49a1.75,1.75,0,0,0-.57-3.44Z" transform="translate(-161.38 -296.42)"/><path class="cls-4" d="M367.21,429.77a3,3,0,0,1-2.79-1.9c0-.1-4.17-10.18-12.14-10.18-8.32,0-14.22,9.57-14.28,9.67a3,3,0,0,1-5.14-3.09c.31-.52,7.68-12.58,19.42-12.58,12.07,0,17.5,13.4,17.72,14a3,3,0,0,1-1.68,3.89A2.93,2.93,0,0,1,367.21,429.77Z" transform="translate(-161.38 -296.42)"/><path class="cls-4" d="M247.05,429.77a3,3,0,0,0,2.79-1.9c0-.1,4.17-10.18,12.15-10.18,8.31,0,14.21,9.57,14.27,9.67a3,3,0,0,0,5.14-3.09c-.31-.52-7.68-12.58-19.41-12.58-12.08,0-17.51,13.4-17.73,14a3,3,0,0,0,1.69,3.89A2.84,2.84,0,0,0,247.05,429.77Z" transform="translate(-161.38 -296.42)"/><path class="cls-4" d="M307.9,438.67l-.35,0c-5.3-.4-10.21-8.3-11.59-10.72a3,3,0,1,1,5.21-3h0c2.22,3.86,5.54,7.61,6.84,7.71,1.23-.2,4.5-4.22,6.66-8.27a3,3,0,1,1,5.3,2.82C314.59,437.35,310,438.67,307.9,438.67Z" transform="translate(-161.38 -296.42)"/><path class="cls-5" d="M230.48,439.25s2-6.05,5.86-5.73c4.62.37,4.51,10.07-.12,13.59-3.12,2.37-13.16-.87-12.85-5.74C223.62,437.51,230.48,439.25,230.48,439.25Z" transform="translate(-161.38 -296.42)"/><path class="cls-5" d="M382.74,435.18s4.93-3.36,7.54-1c3.08,2.83-2.07,11-7.54,11.2-3.67.16-9.73-8.39-6.55-12.09C378.72,430.39,382.74,435.18,382.74,435.18Z" transform="translate(-161.38 -296.42)"/><path class="cls-6" d="M295.57,330.31a4.9,4.9,0,0,1,4.29-.11C313,336.7,400.92,377,405.76,378.84c8.26,3.08,8.86-5,7-6.86s-25-24.42-28.58-26.5-104.49-47.1-107.06-48.29c-2.24-1-4.79-1.29-8,.94-3.46,2.43-105.1,66.14-106.51,67.41-2,1.82-1.29,4.54.34,6.62,2.43,3.11,21.14,22.42,23.1,24.25,1.73,1.61,4.11,1.54,7.15-.34C196.83,393.84,283.71,336.88,295.57,330.31Z" transform="translate(-161.38 -296.42)"/><path class="cls-3" d="M213.05,303.67c-13,7.38-23.83,34-18.65,52.16,2.63,9.2,8.71,14.77,16.94,9,5.09-3.58,48.59-33.35,48.59-33.35s6.85-4.42-.45-11C250.55,312.47,225.92,296.35,213.05,303.67Z" transform="translate(-161.38 -296.42)"/><g class="cls-7"><path class="cls-5" d="M218,365.58s-7.46-20.72-6.09-33.21,9.75-16.91,21.63-13.25S259,337.4,259,337.4Z" transform="translate(-161.38 -296.42)"/><path class="cls-2" d="M205.25,306s-7.58,12.4-6.08,36.28,6.69,30.13,6.69,30.13l-11-2.13-8.53-28.94L197,311.66Z" transform="translate(-161.38 -296.42)"/></g><path class="cls-3" d="M372.64,300.23c13.93,4.69,14.62,24.35,14.93,39.76.14,6.7,0,18.82-7.92,14.77-4.91-2.5-51.69-27.39-51.69-27.39s-6.57-2-1-8.71C333.76,310.48,357.72,295.21,372.64,300.23Z" transform="translate(-161.38 -296.42)"/><g class="cls-8"><path class="cls-5" d="M330.76,333.13S342,321.71,353.3,317s19.95-.16,20.87,12.49c.84,11.69-3.2,24.22-3.2,24.22Z" transform="translate(-161.38 -296.42)"/></g></svg>