<svg id="Layer_1" data-name="Layer 1" xmlns="http://www.w3.org/2000/svg" viewBox="0 0 194.86 203.07"><defs><style>.cls-1{fill:#f4a08f;}.cls-2{fill:#f6b2a4;}.cls-3{fill:#7d9fd3;}.cls-4{fill:#ba6a59;}.cls-5{fill:#f1a392;}.cls-6{fill:#fcdfd8;}</style></defs><path class="cls-1" d="M203.08,376.7s0,110.7.25,114.29a20.53,20.53,0,0,0,3.29,9.49c3,4.15,14.37,17.86,19,19.66l1-120.8Z" transform="translate(-200.07 -319.48)"/><path class="cls-2" d="M223.82,402.21s-1.37,110.34-.68,114.14,4.78,5.84,10.92,6.1,147.09,0,150.79-.38c5.32-.58,5.79-4.7,5.79-8s0-101.32,0-101.32l-83.28-70.07Z" transform="translate(-200.07 -319.48)"/><path class="cls-3" d="M306.14,354.84a5.29,5.29,0,0,1,6.22.3c14.15,11.42,73.77,59.47,76.65,61.07,5.14,2.86,7.44-2.52,4.85-5.08-1.29-1.27-22.5-24.7-25.36-28.4s-76-60.43-77.84-61.87-4.57-2.29-8,.24S203,374.94,201.11,376.39s-1.09,3.33,1,5.72,19.06,22.29,21.55,23.7,4.1.81,6.6-.94C232.5,403.35,291.58,364.43,306.14,354.84Z" transform="translate(-200.07 -319.48)"/><path class="cls-4" d="M306.57,510a9.34,9.34,0,0,1-2.22-.27,16,16,0,0,1-6.22-3.57,9.67,9.67,0,0,0-2.16-1.5,8.15,8.15,0,0,0-2.49.06,10.75,10.75,0,0,1-4.18-.08c-2.82-.79-4.73-4.59-5.09-5.35a2,2,0,0,1,1-2.66,2,2,0,0,1,2.65,1h0c.64,1.35,1.86,3,2.54,3.19a7.4,7.4,0,0,0,2.65,0,11.39,11.39,0,0,1,3.82,0,9.85,9.85,0,0,1,3.82,2.3,12.58,12.58,0,0,0,4.63,2.78c2.06.49,3.68-.28,5.41-1.11a16.73,16.73,0,0,1,2.32-1c1.3-.39,3.41-.33,6.74-.2,2.57.1,6.09.24,7.18-.18,2.4-.92,3.77-4.25,4.09-5.45a2,2,0,0,1,3.87,1c-.07.25-1.7,6.32-6.53,8.16-1.72.66-4.59.61-8.77.45a31.13,31.13,0,0,0-5.43,0,13.6,13.6,0,0,0-1.74.75A13.53,13.53,0,0,1,306.57,510Z" transform="translate(-200.07 -319.48)"/><path class="cls-4" d="M288.21,464.57a2,2,0,0,0-2.8-.42c-.06,0-6.32,4.67-10.49,7.29a92.05,92.05,0,0,1-13.61,6.86,2,2,0,0,0,.72,3.86,1.89,1.89,0,0,0,.73-.14c.2-.07,3.35-1.31,7.35-3.31,0,.4.05,7.92,6.11,7.8s9.85-7.71,9.46-17.61l2.11-1.54A2,2,0,0,0,288.21,464.57Z" transform="translate(-200.07 -319.48)"/><path class="cls-4" d="M330.43,464.57a2,2,0,0,1,2.79-.42c.07,0,6.33,4.67,10.49,7.29a92.43,92.43,0,0,0,13.62,6.86,2,2,0,0,1-.73,3.86,1.84,1.84,0,0,1-.72-.14c-.2-.07-3.35-1.31-7.36-3.31,0,.4,0,7.92-6.11,7.8s-9.84-7.71-9.46-17.61l-2.1-1.54A2,2,0,0,1,330.43,464.57Z" transform="translate(-200.07 -319.48)"/><path class="cls-5" d="M276,492.46a6.39,6.39,0,0,1-6.09-3.8,1.5,1.5,0,0,1,2.8-1.08c.1.24,1,2.23,4.06,1.83s5.66-4.7,6.46-6.33a1.5,1.5,0,1,1,2.69,1.33c-.36.74-3.73,7.31-8.76,8A7.9,7.9,0,0,1,276,492.46Z" transform="translate(-200.07 -319.48)"/><path class="cls-5" d="M341.54,492.46a6.39,6.39,0,0,0,6.09-3.8,1.5,1.5,0,0,0-2.8-1.08c-.1.24-1,2.23-4.06,1.83s-5.66-4.7-6.46-6.33a1.5,1.5,0,1,0-2.69,1.33c.36.74,3.72,7.31,8.76,8A7.8,7.8,0,0,0,341.54,492.46Z" transform="translate(-200.07 -319.48)"/><path class="cls-6" d="M241.74,497.24a1.51,1.51,0,0,1-1.29-2.27l4.38-7.38a1.51,1.51,0,0,1,2.06-.52,1.49,1.49,0,0,1,.52,2.05L243,496.51A1.5,1.5,0,0,1,241.74,497.24Z" transform="translate(-200.07 -319.48)"/><path class="cls-6" d="M248.89,499.08a1.52,1.52,0,0,1-.79-.22,1.5,1.5,0,0,1-.49-2.06l5.19-8.42a1.5,1.5,0,0,1,2.56,1.57l-5.19,8.42A1.51,1.51,0,0,1,248.89,499.08Z" transform="translate(-200.07 -319.48)"/><path class="cls-6" d="M257.31,500.24a1.47,1.47,0,0,1-.8-.24,1.5,1.5,0,0,1-.47-2.07l5.19-8.18a1.5,1.5,0,0,1,2.54,1.6l-5.19,8.19A1.52,1.52,0,0,1,257.31,500.24Z" transform="translate(-200.07 -319.48)"/><path class="cls-6" d="M359.37,497.24a1.48,1.48,0,0,1-.76-.21,1.5,1.5,0,0,1-.53-2.06l4.38-7.38a1.51,1.51,0,0,1,2.06-.52,1.49,1.49,0,0,1,.52,2.05l-4.38,7.39A1.5,1.5,0,0,1,359.37,497.24Z" transform="translate(-200.07 -319.48)"/><path class="cls-6" d="M366.52,499.08a1.52,1.52,0,0,1-.79-.22,1.5,1.5,0,0,1-.49-2.06l5.19-8.42A1.5,1.5,0,0,1,373,490l-5.19,8.42A1.51,1.51,0,0,1,366.52,499.08Z" transform="translate(-200.07 -319.48)"/><path class="cls-6" d="M374.94,500.24a1.47,1.47,0,0,1-.8-.24,1.5,1.5,0,0,1-.47-2.07l5.19-8.18a1.5,1.5,0,0,1,2.54,1.6l-5.19,8.19A1.52,1.52,0,0,1,374.94,500.24Z" transform="translate(-200.07 -319.48)"/></svg>