<svg xmlns="http://www.w3.org/2000/svg" viewBox="0 0 394.68 268.12"><g data-name="Layer 1"><path d="M264.11 92.98s.24 137.63.13 142.69c-.1 4.41-3.17 8.29-9.25 8.29s-188.73.67-193.68 0-7-3.65-7-8.58-3.72-120.78 3.38-124.16S168.5 33.88 168.5 33.88z" fill="#f9b3b9"/><path d="M314.45 77.76s-1.8 137.62-1.8 141.66-53.7 23.88-53.7 23.88l2.65-151.88z" fill="#ea939b"/><path d="M172.11 39.42c-.89-.61-3.29-.88-5.57.58-13.19 8.49-102.11 74.49-107.7 76.86-6 2.59-11.53 1.85-13.25-1.88s6.31-8 16.63-15.49S191.11 7.7 197.97 3.97s12.4-5.85 19-1.72 94.37 67.09 97.81 70.26 6.2 8.4 0 11.84-39.81 18-42 19.15-3.72 1.79-7.71-.27c-3.7-1.91-81.22-55.67-92.96-63.81z" fill="#b7ea9a"/><path d="m702.82 616.59-11.11-5.84c-2.26-1-6.66-1.7-7.85.49-.76 1.41-.92 4 4.52 7.54l2.56 1.51a10.09 10.09 0 0 0-2 6c-.35 4.81 3.07 12.16 10.93 11.65 7.59-.49 10.42-6.79 8.89-14.06a11 11 0 0 0-5.94-7.29zm80.82-1.1 11.49-5c2.33-.87 6.77-1.22 7.8 1 .66 1.46.63 4.07-5 7.2l-2.71 1.31a10 10 0 0 1 1.58 6.1c0 4.83-3.93 11.91-11.73 10.85-7.54-1-9.91-7.52-7.87-14.66a11 11 0 0 1 6.44-6.8zm-58.81 27.44c-.65 2.31 1.79 5.06 6.25 5.51s10.11.29 14.28-1.34 8.18-4.61 9.24-6.87c1.71-3.62-.43-7.36-4.85-4.32s-6.39 4.26-9.63 4.69c-6.47.85-8.74-1-11.83-.38-1.6.32-2.98 1-3.46 2.71z" transform="translate(-591.89 -463.51)" style="fill:#ad555d"/><path d="M812.9 648.65a.92.92 0 0 1 1.42.36c1.17 2.68 4 9.84 2.54 13.71-1.91 5.12-9.21 4.9-10.22-.79-1.18-6.56 4.05-11.52 6.26-13.28zm72.91-3.52a.92.92 0 0 0-1.38.47c-.95 2.78-3.16 10.14-1.41 13.88 2.32 4.94 9.58 4.12 10.12-1.63.63-6.63-4.98-11.14-7.33-12.72zm-214.25 22.79a.93.93 0 0 1 1.43-.34c2.28 1.84 8.08 6.89 8.59 11a5.27 5.27 0 0 1-9.43 4c-4.07-5.27-1.73-12.08-.59-14.66zm27.08 6.85a1.37 1.37 0 0 1 2-.24c2.15 1.85 6.77 6.29 6.71 10.25-.08 6.21-8.64 7.13-10.25 2.76a13.37 13.37 0 0 1 1.54-12.77zm175.51-54.38a1.54 1.54 0 0 1 2.11.94c1 3.13 2.88 10.32.44 14.26-3.81 6.18-12.81 2-11.77-3.31a15.9 15.9 0 0 1 9.22-11.89zm-79.26 49.8a.91.91 0 0 1 1.38.12c1.56 2.16 5.5 8.25 4.27 13.3s-10.07 5.48-10.68-.62c-.65-6.44 3.32-11.11 5.03-12.8zm38.64-4.55a1.2 1.2 0 0 0-1.64-.94c-2.32 1-6.95 3.33-9.3 7.79-2.08 4-.89 11.19 5.35 9.73 7.11-1.66 6.18-12.6 5.59-16.58z" transform="translate(-591.89 -463.51)" style="fill:#82595d"/><path d="M602.77 729c-6.57-.62-11.81-4.56-10.74-14.55s13.2-19.27 24.26-17.85c0 0 1.43-11.77 13.21-16.41s21.41 2.5 21.41 2.5 9.78-9.83 22.14-5.54 12.75 15.27 12.75 15.27 17.16.76 22.58 15.65-.12 20.82-7.57 21.07-98.04-.14-98.04-.14zm227.38 2.58c-2.93 0-10.89-5-10.47-15.63s9.21-25.11 31.39-23.29A22.58 22.58 0 0 1 861.39 673c10.29-6.9 25.11-1.4 25.11-1.4s9.91-9.48 24.42-7 18.27 12.55 18.27 12.55 11.16-2.93 20.09 3.91 8 14.92 8 14.92 14.78-5 22.46 2.79 8.92 22.74 3.76 28.18-10.18 4.61-19.94 4.61z" transform="translate(-591.89 -463.51)" style="fill:#c9f1c0"/></g></svg>