<svg id="Layer_1" data-name="Layer 1" xmlns="http://www.w3.org/2000/svg" xmlns:xlink="http://www.w3.org/1999/xlink" viewBox="0 0 262 270.26"><defs><style>.cls-1{fill:none;}.cls-2{fill:#e9bcb8;}.cls-3{fill:#dcaaa5;}.cls-4{fill:#f6e291;}.cls-5{fill:#e5cf7e;}.cls-6{fill:#cd938e;}.cls-7{clip-path:url(#clip-path);}.cls-8{fill:#b87771;}.cls-9{fill:#fbd7d0;}</style><clipPath id="clip-path" transform="translate(-166.49 -285.58)"><ellipse class="cls-1" cx="231.68" cy="520.74" rx="28.12" ry="28.59"/></clipPath></defs><path class="cls-2" d="M230.45,412.31S230.19,523,231,525.82s1.81,7.26,7.77,7.78,173.9,1,177.27.51,5.18-2.85,5.44-6.73-.77-120-.77-120l-98.49-51.57Z" transform="translate(-166.49 -285.58)"/><path class="cls-3" d="M203.35,394.17s1.18,110.14,1.44,113a9.27,9.27,0,0,0,3.63,6.74c2.08,1.55,24.29,18.23,27.31,19L234.6,415.68Z" transform="translate(-166.49 -285.58)"/><path class="cls-4" d="M246.77,328.22a12.12,12.12,0,0,1,1.88-8.6,16.77,16.77,0,0,1,4.19-4,18.11,18.11,0,0,1,8-1.63c11.58-.2,14.06,14.06,14.06,14.06Z" transform="translate(-166.49 -285.58)"/><path class="cls-4" d="M262.45,323.13a3.5,3.5,0,0,1-2.52-5.93c4.77-4.94,9-9,9.81-12.37a13.78,13.78,0,0,0-1.56-6,18.87,18.87,0,0,1-1.95-7c-.12-1.93.87-6.42,3.12-6.27,2.46.16,4.52,8.82,5.23,10.41a20.53,20.53,0,0,1,2.17,9c0,3.23-4,9-11.79,17.05A3.48,3.48,0,0,1,262.45,323.13Zm7.32-18.39Z" transform="translate(-166.49 -285.58)"/><path class="cls-5" d="M276.21,303.21c-1.38-.68-2.65,1.87-.89,3.3S279.11,304.63,276.21,303.21Z" transform="translate(-166.49 -285.58)"/><path class="cls-5" d="M271,317.72l4.23-5.37c.7-.85,1.45-3.27.6-4s-2.71.54-3.42,1.39l-4.52,5.51c-.08,0-.15-.1-.23-.13-5.19-2.64-12.28-.83-12.58-.76a2,2,0,0,0-1.5,2c.14,5.26-3,10.18-3.05,10.26a2,2,0,0,0,.59,2.76,2,2,0,0,0,1.09.33,2,2,0,0,0,1.67-.91A25.3,25.3,0,0,0,257.58,318a20.45,20.45,0,0,1,3.86-.26,23.33,23.33,0,0,1-3.38,7.49,2,2,0,1,0,3.2,2.4,27.78,27.78,0,0,0,4.11-9.11c.18.07.35.13.52.21a7.26,7.26,0,0,1,.89.56,1.42,1.42,0,0,0,.24.25,2.64,2.64,0,0,0,.35.23c2.63,2.28,4.93,6.6,5.69,8.33.45,1,.63,1.92,1.63,1.47a2.08,2.08,0,0,0,.93-2.74C275.32,326.13,274.28,321.07,271,317.72Z" transform="translate(-166.49 -285.58)"/><path class="cls-6" d="M323,363.64a6.53,6.53,0,0,1,6.6-.24c16.63,9,89.31,48,94.14,49.52,5.9,1.85,5.9-4.63,2.27-7.22s-23-17.78-29-22.29c-9.33-7-96.14-51.32-98.48-52.61a7.57,7.57,0,0,0-7.77,0c-2.59,1.55-89.15,57.79-91.23,59.61a4.62,4.62,0,0,0,.78,7.19c2.59,1.62,25.92,21,28.25,22.61s5.18,1.29,9.59-2.07C242,415.16,307.57,373.44,323,363.64Z" transform="translate(-166.49 -285.58)"/><path class="cls-2" d="M244.07,330.28c-.06,3.63-1.3,47.43,0,50.54s4.66,2.59,7.51,1,18.76-10.63,23.59-17.88c2.49-3.74,2.92-30.57,2.66-33.94s-2.06-4.77-4.65-5-23.51-.13-25.84.38S244.1,328.47,244.07,330.28Z" transform="translate(-166.49 -285.58)"/><path class="cls-4" d="M231.68,492.14a28.37,28.37,0,0,0-28.12,28.6,28.8,28.8,0,0,0,5,16.29,27.67,27.67,0,0,1-8.21.08c-2.33-.52-6.35-2.43-9.89-4.12-3.83-1.81-7.44-3.53-9.91-4-5.07-1.07-11.42,1.24-12.13,1.51a3,3,0,1,0,2.11,5.61c1.48-.55,5.93-1.85,8.79-1.25,1.76.37,5.22,2,8.56,3.6,4,1.91,8.17,3.89,11.17,4.55a20.8,20.8,0,0,0,4.52.42,56.12,56.12,0,0,0,9.71-1,27.72,27.72,0,0,0,18.39,7,28.6,28.6,0,0,0,0-57.19Z" transform="translate(-166.49 -285.58)"/><g class="cls-7"><path class="cls-5" d="M218.63,488.79c3.14,16.16,17.81,46.57,32,61.58l3.63-3.44c-13.42-14.17-27.78-43.92-30.73-59.09Z" transform="translate(-166.49 -285.58)"/><path class="cls-5" d="M224.84,526.32a91.33,91.33,0,0,1-8-31.66l-5,.18a84.33,84.33,0,0,0,1.79,13.26c-4.44.4-16.09,1.25-23.42-.15l-.94,4.91a64.59,64.59,0,0,0,11.54.87c6,0,11.57-.48,14-.71.49,1.87,1.06,3.83,1.72,5.84-4.91.41-15.68,1.1-22.62-.22l-.93,4.91a64.48,64.48,0,0,0,11.54.86c5.8,0,11.29-.45,13.79-.69.62,1.57,1.31,3.16,2.06,4.74.31.66.63,1.31,1,1.95-5.28.41-15.09.92-21.55-.31l-.94,4.91a64.67,64.67,0,0,0,11.55.86c5.6,0,10.91-.42,13.52-.66a101.75,101.75,0,0,0,15.37,20.63l3.5-3.58A100.62,100.62,0,0,1,224.84,526.32Z" transform="translate(-166.49 -285.58)"/><path class="cls-5" d="M263.37,523.76c-3,.44-8.41,1.47-11.07,2-1.31-1.82-2.56-3.69-3.73-5.58a85.25,85.25,0,0,0,16.19-3.4L263.14,512a85.31,85.31,0,0,1-17.31,3.39c-.82-1.51-1.6-3-2.32-4.51,4.63-.06,12.21-.55,18.36-2.92l-1.8-4.66c-6.5,2.49-15.24,2.63-18.83,2.57-3.16-7.48-5-14.29-5.25-18.78l-5,.3c.7,11.59,10.17,36,26.14,51.74l3.51-3.56a70.91,70.91,0,0,1-4.94-5.42c2.73-.52,6.22-1.17,8.36-1.48Z" transform="translate(-166.49 -285.58)"/></g><path class="cls-8" d="M332.23,476.37c-3.68,0-6.94-4.46-8.17-6.38a3,3,0,1,1,5.05-3.24h0a13.88,13.88,0,0,0,3.16,3.55,11.24,11.24,0,0,0,2.86-3,3,3,0,0,1,5,3.37C339.2,472,336,476.37,332.23,476.37Z" transform="translate(-166.49 -285.58)"/><ellipse class="cls-9" cx="109.94" cy="188.58" rx="10.9" ry="11.08"/><path class="cls-8" d="M305,456.06a8.41,8.41,0,0,0-7.23,4.16,17.69,17.69,0,0,1-4.87-4.05,2,2,0,0,0-3,2.6c.69.8,3.6,4.05,6.72,5.26,0,.21,0,.42,0,.63a8.46,8.46,0,1,0,8.46-8.6Z" transform="translate(-166.49 -285.58)"/><ellipse class="cls-9" cx="223.08" cy="189.73" rx="10.9" ry="11.08"/><path class="cls-8" d="M361.94,456.06a8.41,8.41,0,0,1,7.23,4.16,17.69,17.69,0,0,0,4.87-4.05,2,2,0,0,1,3,2.6c-.69.8-3.6,4.05-6.72,5.26,0,.21,0,.42,0,.63a8.46,8.46,0,1,1-8.46-8.6Z" transform="translate(-166.49 -285.58)"/></svg>