<svg id="Layer_1" data-name="Layer 1" xmlns="http://www.w3.org/2000/svg" viewBox="0 0 207.41 210.08"><defs><style>.cls-1{fill:#f7eded;}.cls-2{fill:#fff;}.cls-3{fill:#aeabaa;}.cls-4{fill:#c4c4c3;}.cls-5{fill:#f7b9bb;}</style></defs><path class="cls-1" d="M195.71,374.24s.18,121.53.38,123.5.65,3.66,3.41,6.82,15.8,18.93,18.48,18.62l.81-128.83Z" transform="translate(-193.79 -315.92)"/><path class="cls-2" d="M215.63,392.78s-.2,124.63,0,126.41.59,3.94,3.16,4.14,171,.39,173.35-.59,3.94-2.37,3.94-5.72.39-116,.39-116L306,339.14Z" transform="translate(-193.79 -315.92)"/><path class="cls-3" d="M305.84,346.49a3.82,3.82,0,0,1,4.1.11c13.12,8.79,86.16,57.67,88.31,58.21,2.37.59,4.13-1.38,2-4.14S380.7,379,378.13,375.62s-85.19-57.19-86.77-58.37-5.92-2-8.08-.6-86.78,53.25-88.16,54.24a3.88,3.88,0,0,0-.79,4.93c1,1.57,17.55,20.7,18.54,21.89s3,1.57,5.72.39C221.1,397,292.65,354.36,305.84,346.49Z" transform="translate(-193.79 -315.92)"/><path class="cls-4" d="M397.73,466.92a2.52,2.52,0,0,0-2.51,2.49c0,3-.87,11.93-4.54,16.37s-11.84,10.4-17.22,14.32c-4,2.89-5.74,4.2-6.5,5.15-1.88,2.33-1.74,5.68-1.62,8.38,0,.61.05,1.2.05,1.74a4.55,4.55,0,0,1-3.18,4.59c-3.69,1-20.25.78-23.54-3-.48-.79-.86-4.35-.82-7.61a2.51,2.51,0,0,0-2.47-2.53h0a2.49,2.49,0,0,0-2.5,2.47,30.45,30.45,0,0,0,1,8.91,9.22,9.22,0,0,1-5.5,2.6c-4.56.61-15.15.17-18.27-2.83-1.51-1.45-1.86-7-1.62-10.29a2.5,2.5,0,0,0-5-.36,30.36,30.36,0,0,0,1,10.52,10.2,10.2,0,0,1-2,2.41c-2,.66-13.65.76-20.3,0-2.93-.35-6.51-4.31-9.38-7.48-2.31-2.55-4.31-4.76-6.35-5.84-2.65-1.4-5.37-1.53-8.82-1.7a60.57,60.57,0,0,1-11.9-1.54c-9.41-2.24-16.82-11.59-23.42-21.36-4.78-7.08-4.95-30.56-4.61-39a2.5,2.5,0,0,0-5-.2c-.14,3.28-1.11,32.31,5.46,42,7.16,10.61,15.32,20.79,26.4,23.42a64,64,0,0,0,12.81,1.67c2.94.14,5.07.25,6.73,1.13,1.26.67,3.15,2.76,5,4.77,3.61,4,7.71,8.52,12.5,9.09,2,.25,7.45.6,12.64.6,4.85,0,9.5-.31,11-1.32a11.12,11.12,0,0,0,2.26-2.18c4,3.06,11.35,3.75,16.48,3.75a44.05,44.05,0,0,0,5.1-.26,14.25,14.25,0,0,0,8.1-3.78c4.46,2.71,12,3.48,18,3.48a41.75,41.75,0,0,0,8.44-.66,9.53,9.53,0,0,0,6.87-9.41c0-.61,0-1.27-.05-2-.08-1.76-.18-4.18.5-5,.49-.56,3.19-2.52,5.57-4.26,5.91-4.31,14-10.22,18.12-15.17,5.55-6.71,5.68-19,5.69-19.53A2.52,2.52,0,0,0,397.73,466.92Z" transform="translate(-193.79 -315.92)"/><path class="cls-3" d="M311.75,478.44s5.66,6.86,12.89,2.17-.73-27.84-11.09-27.36-22.37,22.56-14.21,27.6C306.57,485.3,311.75,478.44,311.75,478.44Z" transform="translate(-193.79 -315.92)"/><ellipse class="cls-3" cx="76.16" cy="130.64" rx="20.58" ry="29.9"/><ellipse class="cls-3" cx="158.21" cy="130.64" rx="20.58" ry="29.9"/><circle class="cls-5" cx="45.8" cy="160.91" r="9.79"/><circle class="cls-5" cx="185.77" cy="159.74" r="9.79"/></svg>