<svg id="Layer_1" data-name="Layer 1" xmlns="http://www.w3.org/2000/svg" xmlns:xlink="http://www.w3.org/1999/xlink" viewBox="0 0 144.62 128.98"><defs><style>.cls-1,.cls-7,.cls-8{fill:none;}.cls-2{fill:#5fa3a4;}.cls-3{clip-path:url(#clip-path);}.cls-4{fill:#faeec9;}.cls-5{fill:#458f91;}.cls-6{fill:#307779;}.cls-7,.cls-8{stroke:#307779;stroke-linecap:round;}.cls-7{stroke-miterlimit:10;stroke-width:3px;}.cls-8{stroke-linejoin:round;stroke-width:2px;}</style><clipPath id="clip-path" transform="translate(-887.8 -510)"><path class="cls-1" d="M894.81,559.06l-1.7,68.28a3.44,3.44,0,0,0,3.38,3.53l103.78,1.94a6.07,6.07,0,0,0,4-1.43l16.64-14.1,1.53-65.62-60-31.4Z"/></clipPath></defs><path class="cls-2" d="M894.81,559.06l-1.7,68.28a3.44,3.44,0,0,0,3.38,3.53l103.78,1.94a6.07,6.07,0,0,0,4-1.43l16.64-14.1,1.53-65.62-60-31.4Z" transform="translate(-887.8 -510)"/><g class="cls-3"><path class="cls-4" d="M890,595.32S902.21,577.7,922.38,578c19.41.24,27.45,11.61,27.45,11.61s9.1-9.66,25.49-9.66c16.59,0,29.53,12.35,29.53,12.35l3.06,44.93L887.8,639Z" transform="translate(-887.8 -510)"/><rect class="cls-5" x="115.77" y="46.08" width="28.85" height="76.77"/></g><path class="cls-2" d="M951.74,532.26" transform="translate(-887.8 -510)"/><path class="cls-6" d="M894.37,561.75l-.85-1.22a2.33,2.33,0,0,1,.43-3.12L912,542.08a29.05,29.05,0,0,1,5.29-3.57l53.21-27.89a5.39,5.39,0,0,1,5.79.49l50.56,38.49a2.88,2.88,0,0,1,.1,4.5L1007.89,570a4.18,4.18,0,0,1-5.17.14l-51-37.86L897,562.38A2,2,0,0,1,894.37,561.75Z" transform="translate(-887.8 -510)"/><line class="cls-7" x1="21.69" y1="93.74" x2="43.9" y2="92.85"/><line class="cls-7" x1="79.52" y1="93.74" x2="100.83" y2="96.3"/><path class="cls-8" d="M933.23,617s10.7,2.05,15.07,2c4.6,0,16.21-1,16.21-1" transform="translate(-887.8 -510)"/></svg>