<svg id="Layer_1" data-name="Layer 1" xmlns="http://www.w3.org/2000/svg" viewBox="0 0 288.1 346.86"><defs><style>.cls-1{fill:#a4a8be;}.cls-2{fill:#babcd0;}.cls-3{fill:#7c82a5;}.cls-4{fill:#bce1e8;}.cls-5{fill:#cae2be;}</style></defs><path class="cls-1" d="M166.5,343.75v188.4c0,2.14-.31,4.16,3.37,8.68S208,583.66,208,583.66l5.5-23.35V376Z" transform="translate(-154.01 -247.53)"/><path class="cls-2" d="M203.45,383.1s0,179.4,1.26,190.66,4.24,12.77,16.28,13,199.05.84,206.56-.83,7.51-5,7.51-9.18.5-214.78.5-214.78l-82.91-69.84Z" transform="translate(-154.01 -247.53)"/><path class="cls-3" d="M354.75,304.16s74.5,61.85,78.69,64.55,10.82,2.84,8-5.27S396.91,313,386,303.5s-59.39-49.65-63.58-53-7.58-3.92-12.05-1.22S166,330.38,163.53,331.91c-5.18,3.2-7,7.38-5.3,11.93,2,5.35,34.34,44.91,35.91,46.32,5.93,5.35,11.85-.16,14.78-2C213.4,385.28,354.75,304.16,354.75,304.16Z" transform="translate(-154.01 -247.53)"/><path class="cls-3" d="M292.6,459.94a4.49,4.49,0,0,0-6.36,0c-4.08,4.08-20.12,12.17-29.28,16.32a4.5,4.5,0,0,0,1.86,8.6,4.58,4.58,0,0,0,1.86-.4c.9-.42,4.32-2,8.66-4.11,0,.77,0,1.49,0,2.09,0,7,.91,8.49,2,9.58a4.69,4.69,0,0,0,3.36,1.44,5,5,0,0,0,1.32-.19h0c4.56-1.35,5.3-7.13,5.42-13.18.05-2.23,0-4.41-.08-6,4.71-2.68,9-5.45,11.3-7.75A4.5,4.5,0,0,0,292.6,459.94Z" transform="translate(-154.01 -247.53)"/><path class="cls-3" d="M357,459.94a4.5,4.5,0,0,1,6.37,0c4.08,4.08,20.12,12.17,29.27,16.32a4.5,4.5,0,0,1-3.71,8.2c-.91-.42-4.33-2-8.66-4.11,0,.77,0,1.49,0,2.09,0,7-.92,8.49-2,9.58a4.71,4.71,0,0,1-3.37,1.44,4.88,4.88,0,0,1-1.31-.19h0c-4.56-1.35-5.3-7.13-5.43-13.18,0-2.23,0-4.41.09-6-4.71-2.68-9-5.45-11.31-7.75A4.52,4.52,0,0,1,357,459.94Z" transform="translate(-154.01 -247.53)"/><path class="cls-3" d="M313.36,494.49a4.34,4.34,0,0,1-1.72-.35,4.49,4.49,0,0,1-2.44-5.86c.54-1.32,5.61-13,15.57-13.66,1.4-.09,8.68,0,14.46,10.53a4.5,4.5,0,0,1-7.89,4.33c-1.52-2.74-4.56-6-5.95-5.88-3.48.24-6.81,5.57-7.87,8.12A4.53,4.53,0,0,1,313.36,494.49Z" transform="translate(-154.01 -247.53)"/><path class="cls-4" d="M244.5,497c.87,3.53,4.55,4.41,10.33,4.08s7.82-3.73,7-6.43-4.41-5-10.64-4.33C246.59,490.82,243.63,493.5,244.5,497Z" transform="translate(-154.01 -247.53)"/><path class="cls-4" d="M404.28,497c-.87,3.53-4.55,4.41-10.33,4.08s-7.82-3.73-7-6.43,4.41-5,10.64-4.33C402.19,490.82,405.15,493.5,404.28,497Z" transform="translate(-154.01 -247.53)"/><path class="cls-5" d="M203.32,550.35s-11.14-7.3-21.52-1.87c-9.82,5.15-8.88,15.9-8.88,15.9s-13.49-1.8-17.84,10.53c-4.21,11.92,5,18.47,10.82,19.17s65,0,69,0,13.56-6.31,10.76-17.07-11.93-12.16-11.93-12.16,0-11.46-11-16.84A17.84,17.84,0,0,0,203.32,550.35Z" transform="translate(-154.01 -247.53)"/></svg>