<svg id="Layer_1" data-name="Layer 1" xmlns="http://www.w3.org/2000/svg" viewBox="0 0 180.74 185.95"><defs><style>.cls-1{fill:#9bd1c0;}.cls-2{fill:#c1e2da;}.cls-3{fill:#fff;}.cls-4{fill:#f9c5bd;}.cls-5{fill:#f3b2a6;}.cls-6{fill:#6faf9b;}.cls-7{fill:#f2b0a5;}</style></defs><path class="cls-1" d="M380.73,333.7s.46,108.13.46,110.44,0,5.31-2.54,8.31-15,17.14-22.19,18.39-2.07-130-2.07-130Z" transform="translate(-207.29 -285.6)"/><path class="cls-2" d="M360.17,352.41V466.08c0,2.78-.69,4.63-4.62,4.86s-137.47.92-140,.46-4.16-2.31-4.39-6.24-.92-102.58-.92-102.58l76.47-53.37Z" transform="translate(-207.29 -285.6)"/><path class="cls-3" d="M283.76,316.87a3.81,3.81,0,0,1,4.14-.17c11.89,7,69.69,41.15,71.35,42.18,1.84,1.16,3.69.47,6-1.61s20.8-21.72,21.95-23.11,1.39-3.23-1.15-5.08-74.63-41.59-76-42.51-3.46-1.62-5.31,0-73.93,51.29-76,52.68-19.87,21.48-21,23.33.23,5.55,3.92,3.93C214.94,365.05,272.2,325,283.76,316.87Z" transform="translate(-207.29 -285.6)"/><path class="cls-4" d="M271,418.3s0,15.45,5.33,22.79,19.39,6.31,21.19-2.58-1.93-15.43-2.57-21.75a16.93,16.93,0,0,1-12.36-2.46S276.87,419.33,271,418.3Z" transform="translate(-207.29 -285.6)"/><path class="cls-5" d="M286.83,439.16a2,2,0,0,1-1.75-1c-2.66-4.81-4.56-11.93-5.06-19-.3-4.14-.26-7,.11-8a2,2,0,0,1,3.8,1.23,30.79,30.79,0,0,0,.08,6.48c.46,6.45,2.21,13.11,4.57,17.37a2,2,0,0,1-1.75,3Z" transform="translate(-207.29 -285.6)"/><path class="cls-6" d="M299.4,413.39a2,2,0,0,0-2.81-.29c-.18.14-4.44,3.51-9,1.1s-3.87-8.89-3.87-8.95a2,2,0,0,0-4-.48,15.93,15.93,0,0,0-.06,2.12,2,2,0,0,0-.17.81c0,.23-.07,5.71-4.59,7.41a6.14,6.14,0,0,1-6.57-1.64,2,2,0,0,0-3,2.61,10.58,10.58,0,0,0,7.49,3.44,9.93,9.93,0,0,0,3.51-.66,10.25,10.25,0,0,0,5.46-4.7,10.42,10.42,0,0,0,3.95,3.59,11.35,11.35,0,0,0,5.31,1.33,13.93,13.93,0,0,0,8.12-2.88A2,2,0,0,0,299.4,413.39Z" transform="translate(-207.29 -285.6)"/><path class="cls-4" d="M218.4,409.3c0,5.23,6.41,7.81,12.37,7.42s11.12-4.44,10.56-9.84c-.36-3.52-5.56-6.18-11.07-6S218.41,404.4,218.4,409.3Z" transform="translate(-207.29 -285.6)"/><path class="cls-7" d="M224.22,407.72c-1.65.27-2.18,4,0,3.84S226.52,407.33,224.22,407.72Z" transform="translate(-207.29 -285.6)"/><path class="cls-7" d="M237.14,408.41c1.35-1,.19-4.52-1.7-3.45S235.24,409.77,237.14,408.41Z" transform="translate(-207.29 -285.6)"/><path class="cls-7" d="M228.91,413.44c1.48.41,2.79-1.52.88-2.2S226.83,412.86,228.91,413.44Z" transform="translate(-207.29 -285.6)"/><path class="cls-4" d="M346.72,409c.31-5.21-6-8.17-11.92-8.12s-11.36,3.79-11.12,9.21c.17,3.54,5.2,6.5,10.71,6.65S346.43,413.88,346.72,409Z" transform="translate(-207.29 -285.6)"/><path class="cls-7" d="M340.82,410.23c1.66-.18,2.4-3.84.22-3.84S338.5,410.48,340.82,410.23Z" transform="translate(-207.29 -285.6)"/><path class="cls-7" d="M328,408.79c-1.4.9-.45,4.51,1.5,3.54S329.93,407.54,328,408.79Z" transform="translate(-207.29 -285.6)"/><path class="cls-7" d="M336.47,404.25c-1.46-.5-2.88,1.35-1,2.14S338.51,404.94,336.47,404.25Z" transform="translate(-207.29 -285.6)"/><path class="cls-6" d="M248.55,404.22c6.73,3.47,13.15-.85,15.52-6.71s-.36-13.4-7.59-16.44c-4.71-2-10.65,1.15-13.08,6.43S242.23,401,248.55,404.22Z" transform="translate(-207.29 -285.6)"/><path class="cls-3" d="M246.18,389.8c-.94,4.65,3.52,4.87,6.15,2.28s4.29-6.59,2.5-8C253.26,382.85,247.17,384.86,246.18,389.8Z" transform="translate(-207.29 -285.6)"/><path class="cls-6" d="M309.23,404.22c6.73,3.47,13.16-.85,15.52-6.71s-.36-13.4-7.58-16.44c-4.72-2-10.66,1.15-13.09,6.43S302.91,401,309.23,404.22Z" transform="translate(-207.29 -285.6)"/><path class="cls-3" d="M306.86,389.8c-.94,4.65,3.52,4.87,6.15,2.28s4.29-6.59,2.51-8C313.94,382.85,307.85,384.86,306.86,389.8Z" transform="translate(-207.29 -285.6)"/><path class="cls-4" d="M272.37,401.68c-.15,2.3,4.34,7.48,9.65,7.48s9.17-5.79,8.93-9.16-5.67-5.31-9.89-4.95S272.61,398.07,272.37,401.68Z" transform="translate(-207.29 -285.6)"/></svg>