<svg xmlns="http://www.w3.org/2000/svg" viewBox="0 0 300.39 331.14"><g data-name="Layer 1"><path d="M291.24 129.26s1.12 158 1.12 164.58-6.59 11.19-13.17 17.12-26.66 17.78-26.66 17.78l-2.29-170.56z" fill="#ed74b2"/><path d="M8.62 173.78S9.87 309.2 9.87 315.47s-1.88 15.67 12.54 15.67 219.06-1.25 224.7-1.25 9.86-2.71 10.28-10c.28-5.05-1-149.84-1-149.84l-130.54-67.11z" fill="#ff8fc8"/><path d="M125.13 115.08s120 62.65 124.57 64.71 9.91 3.58 15.89-3.25 30.93-42.72 33-45.11 3.25-6.84-1.37-9.23c-4.15-2.15-109.66-57.48-130.68-68.5a7.52 7.52 0 0 0-7.19.1c-19.42 10.87-111.57 62.45-114.16 64.13a31.07 31.07 0 0 0-8.55 8.54c-2.39 3.59-33.84 44.81-35.37 47.16-3 4.64-.49 10.84 6.72 9.16 5.84-1.4 117.14-67.71 117.14-67.71z" fill="#bd6be1"/><path d="M680.51 688.45c-12.17.25-14.67 14.09-9 20.23 6.86 7.51 20.49 2.89 21-6.36s-5.67-13.99-12-13.87zM857.74 705c11.77-3.11 10.94-17.15 4-21.8-8.44-5.68-20.59 2-18.89 11.12s8.77 12.25 14.89 10.68z" transform="translate(-639.76 -431.61)" style="fill:#ffcce6"/><path d="M698.13 689.09a4.32 4.32 0 0 1-1.54-.28 4.49 4.49 0 0 1-2.69-5.75c.25-.68 6.23-16.76 21.09-18.06 12.69-1.11 20 8.62 22.11 13.93a4.5 4.5 0 0 1-8.37 3.31c-.15-.35-3.85-9.09-13-8.28S702.4 686 702.36 686.14a4.52 4.52 0 0 1-4.23 2.95zm66.22 13.65c-7.1 0-12.85-10-15-14.26a4.5 4.5 0 0 1 8-4c2.07 4.12 5.3 8.4 6.9 9.21 1.59-.93 4.7-5.5 6.64-9.83a4.5 4.5 0 0 1 8.22 3.67c-2 4.55-7.54 15.21-14.76 15.21zm68.36-15.52a4.5 4.5 0 0 1-4.16-2.77c0-.09-4.37-10.1-12.72-10.89-3.56-.34-6.67 1.09-9.53 4.37a23 23 0 0 0-3.64 5.88 4.5 4.5 0 0 1-8.4-3.23 30.86 30.86 0 0 1 5-8.3c4.79-5.65 10.81-8.31 17.38-7.68 13.77 1.31 19.93 15.78 20.18 16.4a4.49 4.49 0 0 1-2.43 5.88 4.54 4.54 0 0 1-1.68.34z" transform="translate(-639.76 -431.61)" style="fill:#9d47c3"/><path d="M207.79 58.62h-.16a3.51 3.51 0 0 1-3.34-3.66 193.94 193.94 0 0 0-.3-21.08c-1-12.45-3.13-22.1-4.7-25.8a3.5 3.5 0 1 1 6.44-2.74c1.85 4.34 4.18 14.68 5.24 28a201.69 201.69 0 0 1 .32 22 3.5 3.5 0 0 1-3.5 3.28z" fill="#fed597"/><path d="M202.96 66.88h-.16a3.5 3.5 0 0 1-3.34-3.66 214.15 214.15 0 0 0-2.75-39 59.89 59.89 0 0 0-3.17-11.78 3.5 3.5 0 1 1 6.47-2.67 65 65 0 0 1 3.61 13.34 216.5 216.5 0 0 1 2.83 40.39 3.49 3.49 0 0 1-3.49 3.38z" fill="#ee8770"/><path d="M230.71 61.68h-.07a3.5 3.5 0 0 1-3.43-3.57c0-.11.21-11.19 1-24.47a70.24 70.24 0 0 1 6.55-26.25 3.502 3.502 0 0 1 6.26 3.14 62.78 62.78 0 0 0-5.78 23.53c-.79 13.13-1 24.07-1 24.18a3.51 3.51 0 0 1-3.53 3.44z" fill="#e3a8fd"/><path d="M219.49 60.39a3.51 3.51 0 0 1-3.48-3.15c0-.48-1.15-11.82-1-25.1a213.09 213.09 0 0 1 2.15-29.34 3.5 3.5 0 0 1 6.85 1.43 213.85 213.85 0 0 0-2 28c-.1 12.88 1 24.24 1 24.35a3.51 3.51 0 0 1-3.17 3.81z" fill="#b7ea9a"/><path d="M213.48 58.83a3.5 3.5 0 0 1-3.46-3.54c.1-8.62-.49-42-1-48.17a3.513 3.513 0 0 1 7-.61c.58 6.69 1.14 41.13 1 48.86a3.5 3.5 0 0 1-3.54 3.46z" fill="#feeb97"/><path d="M225.04 59.98a3.49 3.49 0 0 1-3.49-3.34c0-.1-.43-9.68-.43-21.78 0-12.28 2-23.29 3.83-28.32a3.5 3.5 0 0 1 6.57 2.41c-1.37 3.73-3.4 13.71-3.4 25.91 0 11.94.41 21.37.42 21.47a3.51 3.51 0 0 1-3.34 3.65z" fill="#c1e0fc"/><path d="M236.12 49.6c1.73.43 3.28 5.91 3.28 13.8s.4 44.81.66 48.35-1.82 5.64-3.55 8.94-6.11 9.59-6.11 9.59l-3.35-1-1.31-79.89s8.28-.32 10.38.21z" fill="#a4a8bf"/><path d="M201.04 49.39c-1.84 0-5 .17-6 4.19s-.67 56.21-.67 58.39.17 5.87 3.52 7.38 24.5 11.24 26.51 11.92a5.54 5.54 0 0 0 6-1s.38-72 0-76-2-4.87-2-4.87z" fill="#babcd1"/></g></svg>