<svg id="Layer_1" data-name="Layer 1" xmlns="http://www.w3.org/2000/svg" viewBox="0 0 209.19 238.69"><defs><style>.cls-1{fill:#80b075;}.cls-2{fill:#9cc993;}.cls-3{fill:#b7d9ad;}.cls-4{fill:#f6e291;}.cls-5{fill:#69995d;}.cls-6{fill:#bd7f65;}</style></defs><path class="cls-1" d="M394.62,504.12c-.1,5.78-.69,6.14-2.28,9.58-2.65,5.7-21.56,26.06-28.39,25.81l.64-156.44L396.08,372S394.68,500.65,394.62,504.12Z" transform="translate(-193.65 -301.5)"/><path class="cls-2" d="M372,392.56s.28,131.65-.84,137c-1.43,6.86-4.95,9.81-10.38,10.39s-143,.2-149.38-1.14-10-4.77-11.32-11.47c-1.5-7.51,0-134.37,0-134.37l91.65-62.77Z" transform="translate(-193.65 -301.5)"/><path class="cls-3" d="M341.26,470.26c.15-1,.35-2,.56-3s.45-2,.71-3l.82-2.94a14.42,14.42,0,0,1,.47-1.45c.09-.24.19-.48.29-.71a1,1,0,0,1,.72-.59l.08,0a3.62,3.62,0,0,1,3.78,1.17.93.93,0,0,1,.23.88c-.06.25-.12.5-.19.75a14.9,14.9,0,0,1-.49,1.47l-1.11,2.9c-.37,1-.79,1.92-1.21,2.86s-.86,1.89-1.36,2.81a1.76,1.76,0,0,1-3.3-1.08Z" transform="translate(-193.65 -301.5)"/><path class="cls-3" d="M350.32,472.15c0-1,.08-2.06.17-3.08s.18-2,.32-3.05l.43-3c.07-.5.16-1,.28-1.5.06-.25.13-.49.2-.74a1,1,0,0,1,.63-.67l.08,0a3.61,3.61,0,0,1,3.9.67.9.9,0,0,1,.34.84c0,.26-.05.52-.09.77a13.34,13.34,0,0,1-.3,1.53l-.72,3c-.25,1-.54,2-.84,3s-.61,2-1,3a1.77,1.77,0,0,1-3.42-.65Z" transform="translate(-193.65 -301.5)"/><path class="cls-3" d="M359.06,471.36c.06-1,.18-2.06.31-3.08s.28-2,.47-3l.57-3c.09-.5.21-1,.35-1.49.07-.24.16-.48.24-.73a1,1,0,0,1,.66-.64l.08,0a3.63,3.63,0,0,1,3.86.86.89.89,0,0,1,.3.86c0,.25-.07.51-.12.76-.1.51-.22,1-.37,1.51l-.87,3c-.3,1-.63,2-1,2.95s-.72,2-1.13,2.91a1.77,1.77,0,0,1-2.32.93,1.79,1.79,0,0,1-1.07-1.74Z" transform="translate(-193.65 -301.5)"/><path class="cls-4" d="M261.13,502.62c1.91,3.81,6.18,6.08,8.9,3.45s6.23-8.19,12.62-9.17c8.26-1.27,18.12-1.92,23.16-10.47,6.3-10.67,3.95-27.82-13.08-30.39-15.3-2.32-28.05,6.91-33.14,21.24A31,31,0,0,0,261.13,502.62Z" transform="translate(-193.65 -301.5)"/><path class="cls-5" d="M326.72,466.93c-7.46,0-10.21-7.08-10.63-10.88a2.5,2.5,0,0,1,5-.55c.08.68.94,6.53,5.84,6.42,5.29-.14,5.36-6.17,5.35-6.85a2.5,2.5,0,0,1,5-.11c.1,4-1.92,11.74-10.22,12Z" transform="translate(-193.65 -301.5)"/><path class="cls-3" d="M209.19,470.85c.15-1,.34-2,.56-3s.45-2,.71-3l.82-2.94a12.41,12.41,0,0,1,.47-1.46c.09-.24.19-.47.29-.71a1,1,0,0,1,.71-.58l.08,0a3.61,3.61,0,0,1,3.78,1.17.86.86,0,0,1,.23.87c-.05.26-.11.51-.18.76-.14.49-.3,1-.49,1.47l-1.11,2.9c-.38,1-.79,1.91-1.21,2.86S213,471,212.49,472a1.77,1.77,0,0,1-3.31-1.08Z" transform="translate(-193.65 -301.5)"/><path class="cls-3" d="M218.24,472.74c0-1,.09-2.06.17-3.08s.19-2,.33-3.05l.43-3c.07-.5.16-1,.28-1.5.06-.25.13-.5.2-.74a.94.94,0,0,1,.63-.67l.08,0a3.63,3.63,0,0,1,3.9.68.92.92,0,0,1,.34.84c0,.26,0,.52-.09.77a13.17,13.17,0,0,1-.3,1.52l-.73,3c-.24,1-.54,2-.83,3s-.62,2-1,3a1.77,1.77,0,0,1-3.42-.65Z" transform="translate(-193.65 -301.5)"/><path class="cls-3" d="M227,471.94c.07-1,.18-2.05.32-3.07s.28-2,.46-3l.58-3a12.88,12.88,0,0,1,.35-1.49c.07-.24.15-.49.23-.73a1,1,0,0,1,.66-.64l.08,0a3.63,3.63,0,0,1,3.87.86.91.91,0,0,1,.3.86c0,.25-.08.51-.13.76a13.29,13.29,0,0,1-.37,1.51l-.86,3c-.3,1-.64,2-1,2.95s-.71,1.95-1.12,2.91A1.77,1.77,0,0,1,227,472Z" transform="translate(-193.65 -301.5)"/><path class="cls-5" d="M249.31,467.46c7.39-1,9.19-8.36,9.11-12.17a2.5,2.5,0,1,0-5,.1c0,.69-.07,6.59-4.95,7.13-5.26.56-6.12-5.41-6.2-6.1a2.5,2.5,0,0,0-5,.56c.43,4,3.44,11.38,11.7,10.51Z" transform="translate(-193.65 -301.5)"/><path class="cls-6" d="M294,339.32c-1.08-.94-3.94-.94-5.11-.16-18.85,12.52-81.09,56.76-89.44,60.15-4.66,1.89-7.24-1.71-4.83-5.93,1.53-2.67,23.82-23.93,26.9-26.8s90.61-62.06,92.84-63.71a6.49,6.49,0,0,1,7.7-.21c3.37,2.2,78.37,64.62,79.59,66.35s2,3.75.17,6-21.31,22.54-22.9,24.31c-3,3.32-6.1,4.34-8.89,2.28C367.47,399.77,304.18,348.22,294,339.32Z" transform="translate(-193.65 -301.5)"/></svg>