<svg id="Layer_1" data-name="Layer 1" xmlns="http://www.w3.org/2000/svg" viewBox="0 0 214.4 241.55"><defs><style>.cls-1{fill:#e7a966;}.cls-2{fill:#d39959;}.cls-3{fill:#5e638a;}.cls-4{fill:#3d437f;}.cls-5{fill:#414782;}.cls-6{fill:#ba8142;}</style></defs><path class="cls-1" d="M214.57,423.16S214.37,532,215,535s2,6.72,6.91,7.31,168.35-.39,172.5-1,6.52-3.55,6.91-7.7,1.58-106.11-.39-110.06L299.53,372.77Z" transform="translate(-190.06 -300.94)"/><path class="cls-2" d="M194.62,410.51v102c0,2.76.33,5.12,3.95,9.43,2.25,2.67,16.59,19.81,21.53,20l-2.17-116.78Z" transform="translate(-190.06 -300.94)"/><path class="cls-3" d="M299.9,379a5,5,0,0,1,4.92-.2c14.94,7.77,91.58,47.54,95.68,47.89,4.55.4,5.14-3.16,2-6.12S383.31,405.77,380.35,403s-89.51-48-94.25-49.79-9.49-.59-13.63,2.17S195,402.8,192.22,404.78s-2.74,4.54-.77,6.52,20.75,16.31,23.12,17.34,4.74,1.23,8.1-.94C225.68,425.76,286.93,387.19,299.9,379Z" transform="translate(-190.06 -300.94)"/><polygon class="cls-4" points="57.88 28.97 57.74 36.03 54.58 36.03 54.58 29.57 57.88 28.97"/><path class="cls-4" d="M250.2,308.23a8,8,0,0,0-2.23-4.77c-3.44-3.45-7.45-3.24-7.78-.14-.23,2.16.09,5.33-1.23,7.18a21.38,21.38,0,0,0-2.74,5.61,13.37,13.37,0,0,0,1.4,10.25,10.67,10.67,0,0,0,9.18,4.93c7.56,0,10-6.67,10.68-10.11s-1-9.19-2.84-10.9C252.2,308,250.2,308.23,250.2,308.23Z" transform="translate(-190.06 -300.94)"/><path class="cls-5" d="M235.18,395.54c5.86,2.17,20.6-7.94,24.75-13,0,0,.48-45.07-.66-47.34s-23.43.29-23.43.29-2.16,31.74-1.8,43.74C234.19,383.82,234.18,395.17,235.18,395.54Z" transform="translate(-190.06 -300.94)"/><path class="cls-3" d="M234.14,354.44c.38,1,3.31,4.53,6.71,3.49s4.16-6.89,6.23-7.27,2.46,1.7,4.26,1.42,3.81-3.4,4.37-6.61,2.81-1.9,4.41-2.65c1.13-.53.68-4.78.31-7.27a2.11,2.11,0,0,0-2.11-1.79l-20.52.15a3.36,3.36,0,0,0-3.33,3.12C234.08,342.28,233.44,352.56,234.14,354.44Z" transform="translate(-190.06 -300.94)"/><path class="cls-3" d="M249.26,319.19s-.57-5.11-4.82-5.77a12.43,12.43,0,0,1-3.21,5.29c-2.46,2.36-3.87,6.14-2.46,9.17s7.47,4.44,10.78,3.3,6.61-3.77,6.8-8.12-1.8-5.58-3.21-5.86S249.26,319.19,249.26,319.19Z" transform="translate(-190.06 -300.94)"/><path class="cls-6" d="M304.74,462.89c-1.88,1.9-8.69,8.48-9.78,13.94-.72,3.65,1.09,7.39,7.39,7.39s18-1.09,20.86-2.61,2.83-3.91,2-6.3-8-12.09-10.4-13.83S307.79,459.82,304.74,462.89Z" transform="translate(-190.06 -300.94)"/><path class="cls-6" d="M334.85,463.9c-2.46,3.35-2.14,6.11,1.06,7.47,5.26,2.23,28.42,1.36,34.34-1.74,4.14-2.18,5.43-5.63,4.26-10.28s-5.69-11-8.78-12.93c-3.92-2.49-8.76-1.17-12.84,1.39C348.23,450.71,337.47,460.34,334.85,463.9Z" transform="translate(-190.06 -300.94)"/><path class="cls-6" d="M286.88,462.75c2.46,3.34,2.14,6.11-1.06,7.47-5.26,2.23-28.42,1.35-34.33-1.75-4.15-2.18-5.44-5.63-4.27-10.28s5.69-11,8.78-12.92c3.92-2.5,8.76-1.17,12.85,1.38C273.5,449.56,284.27,459.18,286.88,462.75Z" transform="translate(-190.06 -300.94)"/><path class="cls-6" d="M274.23,495.62s2-5.82-.68-7.95c-3.15-2.48-13.33-5.67-17.07-5.53-5.33.19-4.88,4.53-4.17,8.05.88,4.26,7.86,20.65,13.68,22.5,3.74,1.18,6.21-6.5,6.21-6.5l6.4.68s-.78,7,.87,9.41c2.33,3.39,14.45,7,19.3,5.11s5-9.67,5-9.67l10.28.09s.49,5.24,3.3,7.67c3,2.57,19.69.77,21.05-2.23s1.55-8.83,1.55-8.83l9.11-3.3s4,6.89,7.67,7.28,10.47-9.51,12.41-16.88,2.23-13.58-3.3-14.16-18.44,2.87-20.19,6.17-1.24,7.8-1.24,7.8l-6.6,2.91a23.41,23.41,0,0,0-4.62-7.08c-2.91-2.82-17.68-.39-19.91,2.32-1.76,2.14-1.75,6.79-1.75,6.79H301.1s.3-6.6-2.61-9.61-13.4-2.41-15.53-.67-3.68,7.37-3.68,7.37Z" transform="translate(-190.06 -300.94)"/></svg>