<svg id="Layer_1" data-name="Layer 1" xmlns="http://www.w3.org/2000/svg" viewBox="0 0 244.79 216.31"><defs><style>.cls-1{fill:#f2c57b;}.cls-2{fill:#fcd798;}.cls-3{fill:#b37e3e;}.cls-4{fill:#b489bd;}</style></defs><path class="cls-1" d="M411,388.11s.32,108,0,110.56-1.6,7.05-5.12,9.94-25.56,17.58-29.14,18.65l-1-122.49Z" transform="translate(-174.78 -312.81)"/><path class="cls-2" d="M381.51,406.7s1.6,111.2.64,115.69-9.29,6.73-16.34,6.73-173.71,0-177.55-1.28a9.06,9.06,0,0,1-6.09-9c0-4.16-.64-121.78-.64-121.78l99.35-55.44Z" transform="translate(-174.78 -312.81)"/><path class="cls-3" d="M205.71,415.13c3.86-3.37,9.75,6.7,18.62,4.79,7.67-1.65,10.56-15.64,24.15-17.1a19.84,19.84,0,0,1,19,8.74,13.79,13.79,0,0,1,.67,2,12.48,12.48,0,0,1,.55-1.48s6.2-9.42,19.68-8.58c16.24,1,15.38,13.31,21.47,16.27,7.8,3.79,17.1-6.78,21.3-4.89,4.82,2.17-1.53,17.38-12.38,25.36s-33.26,7.95-44.76-1.94a19.2,19.2,0,0,1-6-9.4,19.58,19.58,0,0,1-5.67,9.29c-11.08,10.07-33.82,10-44.28,1.91S201.48,418.84,205.71,415.13Z" transform="translate(-174.78 -312.81)"/><ellipse class="cls-3" cx="48.75" cy="83.05" rx="6.1" ry="6.35"/><ellipse class="cls-3" cx="143.03" cy="83.05" rx="6.1" ry="6.35"/><path class="cls-4" d="M274.15,348.93a7,7,0,0,1,7.45.37c17.37,12.19,91.63,64.28,94.46,65.41,3.21,1.28,6.09.64,10.9-2.57s28.52-20.51,31.41-23.07,0-5.47-2.57-8-96-65.05-98-67-6.81-1.61-10,.64-96.15,55.12-99.35,57.36-33.33,22.44-33.65,25.64,2.88,5.13,6.09,3.53C183.7,399.84,256.47,358.88,274.15,348.93Z" transform="translate(-174.78 -312.81)"/></svg>