<svg xmlns="http://www.w3.org/2000/svg" viewBox="0 0 342.05 208.57"><defs><style>.cls-1{fill:#cfc9d1;}.cls-2{fill:#e7e0e9;}.cls-3{fill:#608dcf;}.cls-4{fill:#ffbab5;}</style></defs><g id="Layer_1" data-name="Layer 1"><path class="cls-1" d="M955,603.37s.3,66,.09,69.16-1.09,5.24-5.16,8.31c-2.9,2.19-27,18.24-27,18.24V621.83Z" transform="translate(-618.95 -492.74)"/><path class="cls-2" d="M925.14,627.64s.42,56.65,0,63.08.21,10.59-12,10.59L632,701.1c-4.56,0-7.47,0-7.88-6.23s0-49.38,0-49.38l182.16-81.34Z" transform="translate(-618.95 -492.74)"/><path class="cls-3" d="M804.78,569.91s107.11,58.8,112.81,61.77,7.28.58,11.5-2.65,26.28-21.08,29.51-23.8,3.72-7.19-1.74-10.67-106.62-56.78-109.35-58.27-8.43-2.72-15.38,0S700,589.36,689.56,593.82s-32.71,16-36.76,19.09c-8.41,6.43-27.93,25.43-31,28.55-4.52,4.55-3.55,10.85,2.4,8.29S804.78,569.91,804.78,569.91Z" transform="translate(-618.95 -492.74)"/><path class="cls-3" d="M733.89,643.86c-4.93,0-9.28,6.86-5.08,11.89a6.8,6.8,0,0,0,12-2.09C742.23,648.3,739.27,643.86,733.89,643.86Z" transform="translate(-618.95 -492.74)"/><path class="cls-3" d="M815,658.28c4.83-1,7.67-8.61,2.53-12.67a6.79,6.79,0,0,0-11.27,4.49C805.91,655.65,809.73,659.39,815,658.28Z" transform="translate(-618.95 -492.74)"/><path class="cls-4" d="M835,673.63c6.24.54,12.31-5.57,7.42-10.86s-13.35-3.52-15.3.68C824.83,668.44,828.21,673,835,673.63Z" transform="translate(-618.95 -492.74)"/><path class="cls-4" d="M716.29,675.79c-6.24.54-12.31-5.57-7.42-10.86s13.35-3.53,15.3.68C726.48,670.6,723.1,675.2,716.29,675.79Z" transform="translate(-618.95 -492.74)"/><path class="cls-3" d="M783.94,665.36l-5.38-5.24,3.27-3.09a2.5,2.5,0,0,0-3.43-3.64L775,656.63l-4.36-4.25a2.5,2.5,0,1,0-3.49,3.58l4.22,4.11-5.58,5.27A2.5,2.5,0,0,0,769.2,669l5.72-5.41,5.53,5.39a2.5,2.5,0,1,0,3.49-3.59Z" transform="translate(-618.95 -492.74)"/><path class="cls-2" d="M894,587.4c.05-3,.31-70.36.31-74.42s-1-20.24-15.74-20.24c-11.87,0-15.23,10.32-15.23,15.43v65.7c0,2.4-.46,5.11,3.45,7.51s19.32,9.24,21.43,10.29C891.56,593.3,894,592.56,894,587.4Z" transform="translate(-618.95 -492.74)"/><path class="cls-2" d="M709.43,591.19c0-3-.3-70.35-.3-74.41s1-20.25,15.73-20.25c11.88,0,15.24,10.32,15.24,15.44v65.69c0,2.41.45,5.12-3.46,7.52s-19.31,9.24-21.43,10.28C711.92,597.09,709.51,596.36,709.43,591.19Z" transform="translate(-618.95 -492.74)"/></g></svg>