<svg id="Layer_1" data-name="Layer 1" xmlns="http://www.w3.org/2000/svg" viewBox="0 0 259.41 234.56"><defs><style>.cls-1{fill:#6c98a5;}.cls-2{fill:#568592;}.cls-3{fill:#42707d;}.cls-4{fill:#f2decc;}.cls-5{fill:#fef8e5;}.cls-6{fill:#fff;}.cls-7{fill:#f6f9f9;}</style></defs><path class="cls-1" d="M388.69,455a4.8,4.8,0,0,1-.32.54A4.8,4.8,0,0,0,388.69,455Z" transform="translate(-167.36 -261.88)"/><path class="cls-1" d="M301.28,290.75l-88,58.56v48.48c7.39-9,22.64-22.87,46.91-23.21,33.26-.47,42.77,16.87,42.77,16.87s15.2-19,48-16.16c20.44,1.78,32.29,10.3,38.32,16.46V334.84Z" transform="translate(-167.36 -261.88)"/><path class="cls-2" d="M418.83,321.86V425.62a13,13,0,0,1-3.55,8.95L386.57,457l1-114.54Z" transform="translate(-167.36 -261.88)"/><path class="cls-3" d="M303.12,299.05s-85.41,53.52-88,55.2-6.5,3.52-7.91,1.14,3.55-7.62,7.62-13.16c1.07-1.45,22.8-25.57,27.39-28.56,13.94-9.11,80.77-46.74,83.24-48.52,3.54-2.55,8.69-5,14.41-1.57s81.52,56.08,83.24,57,5.73,4.45,2.36,8.4-28.35,26.23-30,27.63c-2.52,2.16-6.09,2.09-11.79-1.17C376.87,351.53,303.12,299.05,303.12,299.05Z" transform="translate(-167.36 -261.88)"/><path class="cls-4" d="M389.28,452.65v-60.9c-6-6.16-17.88-14.68-38.32-16.46-32.79-2.85-48,16.16-48,16.16s-9.51-17.34-42.77-16.87c-24.27.34-39.52,14.17-46.91,23.21v54.86a4.73,4.73,0,0,0,4.62,4.82H384.65A4.73,4.73,0,0,0,389.28,452.65Z" transform="translate(-167.36 -261.88)"/><path class="cls-5" d="M278.31,435.49s-2.4-2.12-1-4.7,3.32-7.11,5.72-6.64,6.09,10.23,4.34,11.62S279.78,436.41,278.31,435.49Z" transform="translate(-167.36 -261.88)"/><path class="cls-5" d="M328.11,436.65s2.39-2.12,1-4.7-3.32-7.1-5.72-6.64-6.09,10.24-4.33,11.62S326.63,437.57,328.11,436.65Z" transform="translate(-167.36 -261.88)"/><path class="cls-3" d="M365.9,418.39h-.14c-19.2-.92-32.45-2.91-32.58-2.93a2.9,2.9,0,0,1,.87-5.74c.13,0,13.1,2,32,2.88a2.9,2.9,0,0,1-.14,5.79Z" transform="translate(-167.36 -261.88)"/><path class="cls-3" d="M241,418.39h.14c19.2-.92,32.45-2.91,32.58-2.93a2.9,2.9,0,0,0-.87-5.74c-.13,0-13.11,2-32,2.88a2.9,2.9,0,0,0,.14,5.79Z" transform="translate(-167.36 -261.88)"/><path class="cls-3" d="M303.46,440.92a160.11,160.11,0,0,1-26.9-2.2,2.9,2.9,0,1,1,1.08-5.7c14.76,2.81,37.11,2.81,50.84,0a2.9,2.9,0,1,1,1.16,5.68C322.42,440.19,311.84,440.92,303.46,440.92Z" transform="translate(-167.36 -261.88)"/><path class="cls-6" d="M190,424.75s0-4.76,4.35-5.07a5.5,5.5,0,0,1,5.69,3,85.88,85.88,0,0,1,26.65,11.45c9.05,6.11,17.36,16,17.36,16s8.08-.1,9.73,3.63-5.9,10.15-5.9,10.15-2.12,8.84-6.42,14.7-11.29,10.15-11.29,10.15-.51,7.14-4.24,7.66S216,490.3,216,490.3s-14.87-2.73-25-9.32c-7.45-4.86-15.46-14.32-15.46-14.32s-6.8-2.35-8-4.63,4.76-7.25,4.76-7.25a40.77,40.77,0,0,1,6-17.29A67.71,67.71,0,0,1,190,424.75Z" transform="translate(-167.36 -261.88)"/><path class="cls-7" d="M195.47,443.74a4.08,4.08,0,0,0,.94,3.61,39,39,0,0,0,5,4.92c1.54,1,3.44.14,3.23-1.41s-4.56-5.82-5.91-7.17S195.75,442.75,195.47,443.74Z" transform="translate(-167.36 -261.88)"/><path class="cls-7" d="M230.1,457.4a3.83,3.83,0,0,0-3.21-1.63c-1.59-.11-5.82,0-7.21.1a1.72,1.72,0,0,0-1,3c1.19.92,7.27.72,9.16.67S230.55,458.28,230.1,457.4Z" transform="translate(-167.36 -261.88)"/><path class="cls-7" d="M222.25,471.15c.28-.72-.1-1.75-.79-2.9a17.28,17.28,0,0,0-4.12-4.42,1.66,1.66,0,0,0-2.46,1.94c.61,1.59,3.16,4.52,4.26,5.67A2,2,0,0,0,222.25,471.15Z" transform="translate(-167.36 -261.88)"/><path class="cls-1" d="M237.92,271.07c-9.77,5.15-6.38,36.11-3.24,43.55s7.2,6.19,11.92,3.88,29.89-18.61,29.89-18.61,7.56-4.53,2.66-9.75C272.21,282.75,249.15,265.15,237.92,271.07Z" transform="translate(-167.36 -261.88)"/><path class="cls-1" d="M392.14,273.64c-5.76-3.57-27,5.92-36.23,13.36-7.89,6.36-9.49,11.78-7.81,14.54,3,4.88,26.41,22.79,35.29,26.4,4,1.63,9.58-1,11.23-8C395.5,316.18,400.82,279,392.14,273.64Z" transform="translate(-167.36 -261.88)"/></svg>