<svg id="Layer_1" data-name="Layer 1" xmlns="http://www.w3.org/2000/svg" xmlns:xlink="http://www.w3.org/1999/xlink" viewBox="0 0 227.07 223.35"><defs><style>.cls-1{fill:none;}.cls-2{fill:#f2bd83;}.cls-3{clip-path:url(#clip-path);}.cls-4{fill:#f7d7b3;}.cls-5{fill:#fccf9d;}.cls-6{clip-path:url(#clip-path-2);}.cls-7{fill:#fee9d2;}.cls-8{fill:#c2824a;}.cls-9{fill:#f6b2a4;}.cls-10{fill:#e7a966;}</style><clipPath id="clip-path" transform="translate(-183.93 -309.19)"><path class="cls-1" d="M400.54,382.13s.45,118-.23,120.24-21.39,22.29-28.82,22.74l-.9-124Z"/></clipPath><clipPath id="clip-path-2" transform="translate(-183.93 -309.19)"><path class="cls-1" d="M377.57,400.15s.68,117.08,0,120.23-3.6,4.28-6.08,4.73-166.39.45-169.55-.45-6.53-2.25-6.53-9.23.45-106.54.45-106.54l89.62-69.09Z"/></clipPath></defs><path class="cls-2" d="M400.54,382.13s.45,118-.23,120.24-21.39,22.29-28.82,22.74l-.9-124Z" transform="translate(-183.93 -309.19)"/><g class="cls-3"><path class="cls-4" d="M406.63,434.89s-5.54-2.84-14.17,1.73c-3.47,1.83-7.81,5.3-14.67,10.5l-2.32,2.25-.6,78.45,18-4.73,13.29-19.82Z" transform="translate(-183.93 -309.19)"/></g><path class="cls-5" d="M377.57,400.15s.68,117.08,0,120.23-3.6,4.28-6.08,4.73-166.39.45-169.55-.45-6.53-2.25-6.53-9.23.45-106.54.45-106.54l89.62-69.09Z" transform="translate(-183.93 -309.19)"/><g class="cls-6"><path class="cls-7" d="M183.93,446.31s12.83,8.55,35.35,4.72,37.38-19.36,61.47-19.36,41,20.71,68.68,22.29,36.7-15.54,36.7-15.54L386,531.87l-198,.67Z" transform="translate(-183.93 -309.19)"/></g><path class="cls-8" d="M279,428.63c-8.2.28-19.78,2.23-19,10.06.75,7.47,13.25,16.37,19.17,16.29s17.68-10.83,17.5-17.51S286.86,428.37,279,428.63Z" transform="translate(-183.93 -309.19)"/><path class="cls-8" d="M264,471.15c-7.62,0-13.29-4.85-15.81-8.43a3.27,3.27,0,0,1,5.35-3.76c.23.34,5.88,8.18,15,4.8,6.93-2.57,7.09-10.79,7.1-11.14a3.26,3.26,0,0,1,3.26-3.24h0a3.26,3.26,0,0,1,3.25,3.26c0,.53-.13,13.08-11.36,17.24A19.49,19.49,0,0,1,264,471.15Z" transform="translate(-183.93 -309.19)"/><path class="cls-8" d="M293.46,471.12a18.89,18.89,0,0,1-6.69-1.28c-11-4.16-11.09-16.67-11.09-17.2a3.23,3.23,0,1,1,6.45,0c0,.33.16,8.6,6.93,11.16,8.85,3.36,14.33-4.45,14.56-4.79a3.23,3.23,0,0,1,5.33,3.65C306.49,466.25,300.93,471.12,293.46,471.12Z" transform="translate(-183.93 -309.19)"/><ellipse class="cls-8" cx="53.11" cy="121.14" rx="8.26" ry="8.88"/><ellipse class="cls-9" cx="34.02" cy="143.93" rx="16.01" ry="13.91"/><ellipse class="cls-9" cx="351.57" cy="452.41" rx="13.91" ry="16.01" transform="translate(-307.19 463.87) rotate(-86.18)"/><ellipse class="cls-8" cx="145.89" cy="121.14" rx="8.26" ry="8.88"/><path class="cls-7" d="M318.21,405.79c-3,3.78-1.6,8.88,3,10.3s16.23.31,19.19-5.15c2.23-4.13-1.21-8.66-6.84-9.62C328.49,400.44,320.65,402.73,318.21,405.79Z" transform="translate(-183.93 -309.19)"/><path class="cls-7" d="M246,405.79c3,3.78,1.59,8.88-3,10.3s-16.22.31-19.19-5.15c-2.23-4.13,1.21-8.66,6.84-9.62C235.72,400.44,243.56,402.73,246,405.79Z" transform="translate(-183.93 -309.19)"/><path class="cls-10" d="M285.48,345.88S372.17,407.13,374,408s4.95,1.8,7.43,0,26.79-25.45,28.6-27,1.12-5.18-1.58-7.21S320.16,311,318.35,309.85s-4.5-.9-7.43,1.36-86,64.84-88.49,66.87-26.89,24.52-28.59,27c-3.38,4.95.22,9,4.28,7.43S285.48,345.88,285.48,345.88Z" transform="translate(-183.93 -309.19)"/></svg>