<svg id="Layer_1" data-name="Layer 1" xmlns="http://www.w3.org/2000/svg" viewBox="0 0 238.29 228.06"><defs><style>.cls-1{fill:#96d3f2;}.cls-2{fill:#78bfe0;}.cls-3{fill:#be88bb;}.cls-4{fill:#5198ba;}.cls-5{fill:#fad5d1;}</style></defs><path class="cls-1" d="M205.39,391.47s-.34,129.08,0,132.59,1.35,8.44,8.11,9.15,185.09,2.11,190.16,1.41,8.11-5.28,8.11-9.85.08-122.58.08-122.58l-93.25-67.4Z" transform="translate(-178.73 -306.75)"/><path class="cls-2" d="M182.73,358.69S180.65,486.1,181.32,490s1,6,3.72,9.5,18.25,30.22,24.71,32.68l2.06-153Z" transform="translate(-178.73 -306.75)"/><path class="cls-3" d="M321.21,342.88s-103.4,49.66-106.44,51.06-5.07.71-8.45-2.46-24.39-27.55-26.42-29.31-1.44-6.52,1.94-9.68,100.09-42.69,104.33-44.78c2.62-1.3,5.41-1.76,10.14,1.76s80.36,47.95,83.89,50.77,35.63,38,36.64,40.08-2.29,7.68-6,5.57S321.21,342.88,321.21,342.88Z" transform="translate(-178.73 -306.75)"/><path class="cls-4" d="M350.26,465.11c10.18.91,17.45-8.28,17.75-8.68a3,3,0,0,0-.41-4.11,2.74,2.74,0,0,0-4,.43c-.07.08-5.74,7.17-12.91,6.53-7-.62-10.5-8.34-10.54-8.41a2.76,2.76,0,0,0-3.71-1.45,3,3,0,0,0-1.4,3.86C335.28,453.73,339.93,464.19,350.26,465.11Z" transform="translate(-178.73 -306.75)"/><path class="cls-4" d="M310.69,473.61a13,13,0,0,0,11.2-6.43,3,3,0,0,0-1.09-4,2.76,2.76,0,0,0-3.81,1.11,7.37,7.37,0,0,1-6.3,3.46c-4,0-5.59-4.17-5.66-4.35a2.78,2.78,0,0,0-3.6-1.71,2.94,2.94,0,0,0-1.67,3.72C299.87,465.76,302.7,473.61,310.69,473.61Z" transform="translate(-178.73 -306.75)"/><path class="cls-4" d="M272.41,464c11.44-1.32,15.76-12.37,15.94-12.85a3,3,0,0,0-1.58-3.79,2.77,2.77,0,0,0-3.64,1.64c-.14.35-3.32,8.26-11.33,9.18-7.81.91-12.08-7.22-12.25-7.57a2.76,2.76,0,0,0-3.8-1.21,3,3,0,0,0-1.17,3.93C254.82,453.83,260.76,465.35,272.41,464Z" transform="translate(-178.73 -306.75)"/><path class="cls-5" d="M382.8,465.6c6.48,1.37,14.46,7.06,12.6,20.58S377.91,502.59,371,498.13s-11-12.16-7.67-21.94C366.54,466.82,375.08,464,382.8,465.6Z" transform="translate(-178.73 -306.75)"/><path class="cls-5" d="M242.83,459.85c6.67,1.4,14.87,7.27,13,21.2s-18,16.91-25.09,12.31-11.31-12.53-7.89-22.61C226.1,461.1,234.88,458.18,242.83,459.85Z" transform="translate(-178.73 -306.75)"/></svg>