<svg id="Layer_1" data-name="Layer 1" xmlns="http://www.w3.org/2000/svg" viewBox="0 0 201.95 205.33"><defs><style>.cls-1{fill:#a0d3c1;}.cls-2{fill:#bcdfd5;}.cls-3{fill:#c9a959;}.cls-4{fill:#739a8c;}.cls-5{fill:#f5b3c2;}</style></defs><path class="cls-1" d="M203.29,384.31s-.15,105.14,0,107.9c.23,4.32.68,5.68,2.27,7.73s25.33,23.18,29.08,23.63,3.4-9.78,3.4-9.78l-1.13-114.48Z" transform="translate(-196.46 -319.16)"/><path class="cls-2" d="M228.73,405.89s-.23,102,0,106.09.91,12.26,9.09,12.49,144.47-2.05,147.65-2.05,6.13-2,6.13-7.26V407.48l-87.91-58.15Z" transform="translate(-196.46 -319.16)"/><path class="cls-3" d="M310.89,356.69a3.19,3.19,0,0,0-3.65.09c-11.16,8.17-70.64,51.76-72.6,53.43-2.5,2.13-5.68,3.18-7.95,1.36s-26.81-26.8-28.85-28.62-1.82-4.09.68-6.13,72.92-54.52,75.41-56.11,7.05-2.5,10.45,0,64.46,41.57,66.5,42.7,45.26,42.48,46.86,44.3.4,6.13-3.88,4.09C392.17,411,323,364.68,310.89,356.69Z" transform="translate(-196.46 -319.16)"/><path class="cls-4" d="M276.59,440.6c-8.71.18-8.35,16.37,0,16.71C286.85,457.73,286.07,440.41,276.59,440.6Z" transform="translate(-196.46 -319.16)"/><path class="cls-4" d="M341.56,440.6c8.72.18,8.35,16.37,0,16.71C331.3,457.73,332.08,440.41,341.56,440.6Z" transform="translate(-196.46 -319.16)"/><path class="cls-4" d="M308.79,465a7.68,7.68,0,0,1-1.06-.08c-6.51-.93-10.05-7.27-10.19-7.54a2.5,2.5,0,1,1,4.38-2.4c0,.07,2.52,4.42,6.52,5,2.26.33,5.22-2.53,6.08-3.56a2.5,2.5,0,0,1,3.85,3.19C317.88,460.17,313.76,465,308.79,465Z" transform="translate(-196.46 -319.16)"/><path class="cls-5" d="M353.09,462s-.45-6.46,2.6-6.84,5.37,5.86,5.37,5.86,6.35,0,7.34,2.23S365,467,365,467s3.46,5.08.8,6.78c-1.91,1.22-6.61-1.73-6.61-1.73s-2.46,2.77-5.12,1.65c-2.29-1-1-5.67-1-5.67s-5.17-.78-5.17-2.91S353.09,462,353.09,462Z" transform="translate(-196.46 -319.16)"/><path class="cls-5" d="M263.86,460.5s1.25-7.49-2-8.33-6.48,6.16-6.48,6.16-6.83-.83-8.16,1.67,3.24,4.82,3.24,4.82-4.33,5.5-1.66,7.83c1.91,1.67,7.32-1.17,7.32-1.17s2.32,3.55,5.33,2.58c2.58-.83,1.74-6.49,1.74-6.49s5.66-.25,5.91-2.75S263.86,460.5,263.86,460.5Z" transform="translate(-196.46 -319.16)"/></svg>