<svg id="Layer_1" data-name="Layer 1" xmlns="http://www.w3.org/2000/svg" viewBox="0 0 213.41 243.9"><defs><style>.cls-1{fill:#584d9b;}.cls-2{fill:#6a5ba4;}.cls-3{fill:#b7b0d8;}.cls-4{fill:#fff;}.cls-5{fill:#6f6372;}.cls-6{fill:#ada5af;}.cls-7{fill:#403642;}.cls-8{fill:#e7a966;}.cls-9{fill:#8d6332;}</style></defs><path class="cls-1" d="M195.23,398.46s-.21,114.35,0,118.19.43,7,5.11,10.86,18.76,12.92,18.76,12.92l1.26-126Z" transform="translate(-190.23 -299.15)"/><path class="cls-2" d="M396.46,410.81s-.85,119.89-.85,122.45-1.49,9.79-8.3,9.79S227.17,542.2,223.55,542s-6.6-1.71-6.6-8.31,1.92-117.33,1.92-117.33l90.51-68.57Z" transform="translate(-190.23 -299.15)"/><circle class="cls-3" cx="57.63" cy="152.78" r="11.81"/><circle class="cls-4" cx="71.53" cy="134.75" r="5.65"/><circle class="cls-3" cx="184.29" cy="151.77" r="11.81"/><circle class="cls-4" cx="166.39" cy="133.75" r="5.65"/><path class="cls-4" d="M310,462.21h-.12c-31.64,0-62.2-8.27-62.5-8.35a2,2,0,0,1,1-3.86c.3.08,30.37,8.2,61.46,8.21H310c43.62,0,59.83-8.25,60-8.33a2,2,0,0,1,1.88,3.53C371.15,453.77,354.8,462.21,310,462.21Z" transform="translate(-190.23 -299.15)"/><path class="cls-4" d="M308.93,358.06A3.41,3.41,0,0,1,313,358c12.47,8.91,77.53,55.37,82.88,58.18,5.93,3.1,10.44-3.11,5.93-8.47-2.1-2.49-22.63-22.34-46.79-41.07-27.74-21.5-57.17-41.21-61.49-43.37-5.93-3-10.21-3-17.26,2.35s-78.71,60.65-82.66,64.32-4.8,6.21-.57,10.72,18.14,16.77,24,20.88c4.62,3.24,8.18,1.12,11.57-1.41C231.65,417.82,296.62,367.59,308.93,358.06Z" transform="translate(-190.23 -299.15)"/><path class="cls-4" d="M339.35,323.84c-2.75-2-4.81-9.15-2.69-12.74,0,0-3.28-9.28-.43-11.36,2-1.46,8.4,5.36,8.4,5.36a29.79,29.79,0,0,1,5.76-.61,22.2,22.2,0,0,1,5.8.82s4.54-6.54,7.62-6.14c1.85.24,2.05,7.83.57,11,0,0,2,7.58-2.6,13.12C358.6,327.09,342.85,326.8,339.35,323.84Z" transform="translate(-190.23 -299.15)"/><path class="cls-5" d="M363.82,299.2c-3.07-.41-7.61,6.14-7.61,6.14a22.33,22.33,0,0,0-5.81-.82,29.79,29.79,0,0,0-5.76.61s-6.4-6.83-8.4-5.37c-2.85,2.09.42,11.34.42,11.34a7.46,7.46,0,0,0-.85,4.59c1.53.37,6.67,1.79,8.93-2.3.95-1.71.88-3.81,2.17-4.41,1.83-.85,5.7,0,8.12,4.48s6,6.82,8.37,7.35a17,17,0,0,0,1-10.61C365.87,307,365.68,299.44,363.82,299.2Z" transform="translate(-190.23 -299.15)"/><path class="cls-6" d="M339,317.13c.72-1-13.43-3.39-15.12-2.82s2.3,1.8,6,2.39C332.25,317.08,338.32,318,339,317.13Z" transform="translate(-190.23 -299.15)"/><path class="cls-6" d="M339.31,319.39c-.3-.35-12,2.7-12.79,4.74C326.25,324.86,340.64,321,339.31,319.39Z" transform="translate(-190.23 -299.15)"/><path class="cls-6" d="M361.78,317.78c-.15-1.38,13.81-1.94,14.44-1.15C377.74,318.53,361.94,319.25,361.78,317.78Z" transform="translate(-190.23 -299.15)"/><path class="cls-6" d="M361.78,320.1c-.7.91,10.12,3.72,11.51,3.74C376.73,323.89,362.69,318.9,361.78,320.1Z" transform="translate(-190.23 -299.15)"/><path class="cls-7" d="M343.12,317.2c-.63,0-1.3-1.4-1.32-2.9s.53-2.43,1.36-2.45,1.32,2,1.32,3.06S344.17,317.25,343.12,317.2Z" transform="translate(-190.23 -299.15)"/><path class="cls-7" d="M357.27,317.2c.64,0,1.31-1.4,1.33-2.9s-.54-2.43-1.36-2.45-1.33,2-1.33,3.06S356.23,317.25,357.27,317.2Z" transform="translate(-190.23 -299.15)"/><path class="cls-7" d="M347.61,317.2c0-.44,1.09-1.06,2.15-1.06a2.3,2.3,0,0,1,2,1c.19.4-1,2.08-2,2A2.75,2.75,0,0,1,347.61,317.2Z" transform="translate(-190.23 -299.15)"/><path class="cls-3" d="M336.58,327.29c0,2,.08,34.5.08,34.5l27.52,19.38s-.25-48.67-.25-51.77.25-7.19-1.67-7.13c-4.36.13-22.82,0-24.33,0C336.27,322.26,336.55,325,336.58,327.29Z" transform="translate(-190.23 -299.15)"/><path class="cls-8" d="M264.4,353.94a8.16,8.16,0,0,0,5-4.9,12.05,12.05,0,0,0-.21-7.57s2.26-10.15-.58-10.44-8.24,4.87-8.24,4.87a25.65,25.65,0,0,0-4.14-.59,29.3,29.3,0,0,0-4,.25s-8.39-6.27-9.5-4.58c-2,3.1.24,10,.24,10s-1.42,2.05-.66,7c.55,3.59,4.6,5.95,4.6,5.95-3.74,2.57-5.36,7.48-5.94,9.78-.19.77-1.3-5.72-3.92-6.76s-8.21,3.49-7.6,5.45c.7,2.2,3.83-1.33,5.34-1.22s1.51,3,2.49,5c.9,1.78,3.33,5.89,12.64,6.74a4,4,0,0,1-.28-.72,10,10,0,0,1-.25-2.38l0-2.37a0,0,0,0,1,0-.05.05.05,0,0,1,0,0v0a27.6,27.6,0,0,1,1.09,4.49,2.92,2.92,0,0,0,.32.82,1.32,1.32,0,0,0,.16.25c.63,0,1.28.06,2,.07,1.07,0,2.06,0,3,0a5.09,5.09,0,0,1-.56-2.16v-6.34a.05.05,0,0,1,.05-.05.07.07,0,0,1,.05,0h0a15.67,15.67,0,0,1,.68,3.16,27.43,27.43,0,0,1,.2,3.14,5,5,0,0,0,.53,2.16,35.38,35.38,0,0,0,4.44-.51,3.06,3.06,0,0,1-.87-1.49,8.46,8.46,0,0,1-.22-2.4l0-2.39a0,0,0,0,1,0-.05.05.05,0,0,1,.05,0v0a9.24,9.24,0,0,1,.66,2.4,18.25,18.25,0,0,0,.4,2.12,2.65,2.65,0,0,0,.32.82,2.06,2.06,0,0,0,.54.65l.1.08c5.2-1.2,7.55-3.66,7.75-7.19C270.55,359.8,264.4,353.94,264.4,353.94Z" transform="translate(-190.23 -299.15)"/><path class="cls-9" d="M235.31,342.2c-.09.49,10.07,5.21,11.33,4.36S235.53,340.94,235.31,342.2Z" transform="translate(-190.23 -299.15)"/><path class="cls-9" d="M248,348.72c-.39-.4-9.58,2.11-9.31,3.24S249.16,349.89,248,348.72Z" transform="translate(-190.23 -299.15)"/><path class="cls-9" d="M277.32,341.79c.09.5-8.31,3.87-9.57,3S277.1,340.53,277.32,341.79Z" transform="translate(-190.23 -299.15)"/><path class="cls-9" d="M267.74,346.79c.4-.4,8-.63,7.74.49S266.57,348,267.74,346.79Z" transform="translate(-190.23 -299.15)"/><path class="cls-9" d="M262.79,344.35c-1.36,0-1.7,3.95,0,3.95S264,344.35,262.79,344.35Z" transform="translate(-190.23 -299.15)"/><path class="cls-9" d="M253.77,344.35c-1.36,0-1.7,3.95,0,3.95S255,344.35,253.77,344.35Z" transform="translate(-190.23 -299.15)"/><path class="cls-9" d="M257.18,347.86c.28-.5,2.67-.51,3.11-.08.22.23-.78,1.61-1.49,1.58S257.06,348.09,257.18,347.86Z" transform="translate(-190.23 -299.15)"/></svg>