<svg xmlns="http://www.w3.org/2000/svg" viewBox="0 0 232.62 231.98"><defs><style>.cls-1{fill:#edcd79;}.cls-2{fill:#feeb97;}.cls-3{fill:#a45240;}.cls-4{fill:#fea697;}.cls-5{fill:#e7e0e9;}.cls-6{fill:#b0a6b3;}</style></defs><g id="Layer_1" data-name="Layer 1"><path class="cls-1" d="M899.45,560.06V671.47a13.2,13.2,0,0,1-3.85,9.31l-30,30.06V585.11Z" transform="translate(-671.42 -480.52)"/><path class="cls-2" d="M866.88,585.11V707.5a5,5,0,0,1-5,5H681.51a5,5,0,0,1-5-5V600.14l95.18-60.84Z" transform="translate(-671.42 -480.52)"/><path class="cls-3" d="M831.26,658.62l-.33,0a2.5,2.5,0,0,1-1.77-1.12c-.06-.1-6.62-10.05-15.66-10.6-8.83-.53-14.55,8.16-14.61,8.24a2.5,2.5,0,0,1-4.21-2.69c.29-.46,7.33-11.28,19.12-10.54,8.52.52,14.91,7,17.83,10.54l11.09-9.94a2.5,2.5,0,0,1,3.34,3.72L832.93,658A2.47,2.47,0,0,1,831.26,658.62Z" transform="translate(-671.42 -480.52)"/><path class="cls-3" d="M710.85,658.62l.34,0a2.54,2.54,0,0,0,1.77-1.12c.06-.1,6.62-10.05,15.66-10.6,8.83-.53,14.55,8.16,14.6,8.24a2.5,2.5,0,0,0,4.22-2.69c-.3-.46-7.34-11.28-19.13-10.54-8.52.52-14.91,7-17.83,10.54l-11.09-9.94a2.5,2.5,0,1,0-3.33,3.72L709.18,658A2.49,2.49,0,0,0,710.85,658.62Z" transform="translate(-671.42 -480.52)"/><path class="cls-3" d="M826.8,667.25a2.27,2.27,0,0,0-2.23,2.53,2.31,2.31,0,0,0,4.6-.23A2.2,2.2,0,0,0,826.8,667.25Z" transform="translate(-671.42 -480.52)"/><path class="cls-3" d="M841.2,661a2.28,2.28,0,0,0-2.24,2.53,2.24,2.24,0,0,0,2.31,2.06,2.3,2.3,0,1,0-.07-4.59Z" transform="translate(-671.42 -480.52)"/><path class="cls-3" d="M837.6,672.3a2.27,2.27,0,0,0-2.23,2.53,2.31,2.31,0,0,0,4.6-.23A2.2,2.2,0,0,0,837.6,672.3Z" transform="translate(-671.42 -480.52)"/><path class="cls-3" d="M698.11,663a2.28,2.28,0,0,0-2.24,2.53,2.31,2.31,0,0,0,4.6-.23A2.2,2.2,0,0,0,698.11,663Z" transform="translate(-671.42 -480.52)"/><path class="cls-3" d="M712.6,668.67a2.26,2.26,0,0,0-2.23,2.52A2.31,2.31,0,0,0,715,671,2.19,2.19,0,0,0,712.6,668.67Z" transform="translate(-671.42 -480.52)"/><path class="cls-3" d="M701.24,673.9a2.27,2.27,0,0,0-2.24,2.53,2.31,2.31,0,0,0,4.6-.24A2.19,2.19,0,0,0,701.24,673.9Z" transform="translate(-671.42 -480.52)"/><path class="cls-4" d="M761.83,655.36,779,653.81c4.83-.61,5.59,1.12,5.59,4.81,0,6-.58,17.53-12.12,18.27s-14.47-11-15.17-16.81C757.1,658.35,757.3,655.7,761.83,655.36Z" transform="translate(-671.42 -480.52)"/><path class="cls-3" d="M771.69,546.1s-88.62,55.61-91.44,57.35-7,3.66-8.54,1.18,3.29-6.46,6.21-9c1.44-1.28,26.69-25.16,31.65-28.27,15.08-9.47,86.12-52.18,88.79-54,3.83-2.64,9.4-5.23,15.58-1.63s84.42,42.58,86.28,43.53,6,3.88,2.36,8-30,29.36-31.66,30.93-6.15,2.55-12.32-.84C851.21,589.21,771.69,546.1,771.69,546.1Z" transform="translate(-671.42 -480.52)"/><path class="cls-5" d="M828.35,498.75l-1.05-2.2a3.93,3.93,0,0,1-4.4.22c-2.22-1.48-1.51-8.34,2.72-12s6.18-4.26,9.45-4.26,4.47,3.84,4.47,3.84a33.39,33.39,0,0,1,7.22-.76,42,42,0,0,1,6.77.8,9.48,9.48,0,0,1,6-3.12c3.71-.29,6.69,2.27,8.63,6.1s2.25,9.51-1.08,10.56-5.87-2.51-5.87-2.51l-.81,2.94Z" transform="translate(-671.42 -480.52)"/><path class="cls-6" d="M852.68,491.14c-2.19-1-2.27,3.05-1.25,4.37C853.59,496.57,853.72,492.44,852.68,491.14Z" transform="translate(-671.42 -480.52)"/><path class="cls-6" d="M839.53,491.14c-2.19-1-2.27,3.05-1.25,4.37C840.44,496.57,840.57,492.44,839.53,491.14Z" transform="translate(-671.42 -480.52)"/><path class="cls-6" d="M846,493.59c-.83.05-1.47,1.09-1.38,2.51s.9,1.89,1.65,1.84,1.32-1.14,1.25-2.26S847.14,493.52,846,493.59Z" transform="translate(-671.42 -480.52)"/><path class="cls-6" d="M829.41,491.56h-.1a25.7,25.7,0,0,1-1,2.51c-.37.8-.64,1.66-1,2.48l.4.85c.1-.16.21-.31.3-.47a10.25,10.25,0,0,0,1.26-2.52A5.21,5.21,0,0,0,829.41,491.56Z" transform="translate(-671.42 -480.52)"/><path class="cls-6" d="M861,495c-.46-.91-.92-1.81-1.32-2.79h-.1a6.73,6.73,0,0,0,.51,3.2,7,7,0,0,0,.75,1.44l.38-1.38.08.11C861.23,495.35,861.14,495.15,861,495Z" transform="translate(-671.42 -480.52)"/><path class="cls-2" d="M826.42,501.4v43.14a5,5,0,0,0,2.91,4.51l29.2,13.13c1.8.91,4.67,2.32,4.42-4.33s-.6-54.72-.6-57.18-1.8-3.31-3.78-3.27-27.42.57-29,.54S826.42,499,826.42,501.4Z" transform="translate(-671.42 -480.52)"/></g></svg>