<svg id="Layer_1" data-name="Layer 1" xmlns="http://www.w3.org/2000/svg" viewBox="0 0 257.27 265.71"><defs><style>.cls-1{fill:#be88bb;}.cls-2{fill:#f191bc;}.cls-3{fill:#a53970;}.cls-4{fill:#6876b8;}</style></defs><path class="cls-1" d="M179.52,402.09S178.31,433,179.9,468s2.66,48.27,5.84,53.68,17.73,18.92,27,24.34a63.59,63.59,0,0,0,16.62,7l-9.61-40.47-2.23-93Z" transform="translate(-169.03 -287.95)"/><path class="cls-2" d="M214,431.06s-3.35,103.49,3.1,112.41,10.59,10.19,19.82,10.19h163c7,0,18.79-4.78,18.47-20.38s1.59-97.44-1.59-101.58-91.39-78.65-91.39-78.65Z" transform="translate(-169.03 -287.95)"/><path class="cls-3" d="M404.59,512a36,36,0,0,0-15.08-3.21,37,37,0,0,0-6.62.76l-.06,0c-7.9,1.66-13.84,5.74-19.63,9.73a75.58,75.58,0,0,1-9.54,5.93c-10,4.92-23.8,3.33-27.37-3.16-3-5.46-.92-9,2.71-14.25.5-.74,1-1.46,1.46-2.18a14.17,14.17,0,0,0,1.73-10.91,14.87,14.87,0,0,0-1.76-4.22l2.73.14h.17a3.5,3.5,0,0,0,.17-7l-22.9-1.13a3.55,3.55,0,0,0-3.67,3.33,3.5,3.5,0,0,0,3.32,3.67l9.61.47a3,3,0,0,0,.29.2c2.83,1.62,4.65,3.76,5.24,6.2a7.18,7.18,0,0,1-.8,5.45c-.43.66-.89,1.33-1.36,2-3.5,5.09-8.3,12.07-3.07,21.59,3.63,6.62,11.86,9.69,20.53,9.69a37.08,37.08,0,0,0,16.07-3.62A85.25,85.25,0,0,0,367.18,525c4.76-3.29,9.34-6.43,14.89-8.09l9.76,14.23a3.5,3.5,0,0,0,2.89,1.52,3.43,3.43,0,0,0,2-.62,3.51,3.51,0,0,0,.91-4.87l-7.87-11.45a29.07,29.07,0,0,1,12.06,2.63,3.5,3.5,0,1,0,2.79-6.42Z" transform="translate(-169.03 -287.95)"/><path class="cls-3" d="M285.91,471.76l-22.25-6.51a3.5,3.5,0,1,0-2,6.71l9.45,2.77a8.86,8.86,0,0,0-1.22,5.64c.41,3.38,2.46,6.63,5.75,6.57,4-.06,6-3.15,5.78-7.19a12.46,12.46,0,0,0-.28-2.08l2.77.81a3.76,3.76,0,0,0,1,.14,3.5,3.5,0,0,0,1-6.86Z" transform="translate(-169.03 -287.95)"/><path class="cls-3" d="M388.63,467.54a3.51,3.51,0,0,0-4.34-2.38L362,471.68a3.5,3.5,0,0,0,1,6.86,3.76,3.76,0,0,0,1-.14l2.31-.68a11,11,0,0,0-.6,3.19c-.22,4,1.77,7.13,5.77,7.2,3.29.05,5.34-3.19,5.75-6.57a8.27,8.27,0,0,0-1.88-6.47l10.89-3.19A3.5,3.5,0,0,0,388.63,467.54Z" transform="translate(-169.03 -287.95)"/><path class="cls-4" d="M324.26,361.4a4.76,4.76,0,0,1,5.91.31C345,374.82,412.75,435,415.94,437.36c3.58,2.68,9.38,1.75,10.34-2.63s-28.07-28.17-32.66-32.23-99.68-86.87-101.82-89-4.48-3-9.6.64-107.8,75.78-110.46,77.49a5.42,5.42,0,0,0-1.28,8.32c2.56,2.77,35.11,33.83,37.35,35.86s5.66,5,11.95.32C225.4,431.91,307.25,373.53,324.26,361.4Z" transform="translate(-169.03 -287.95)"/><path class="cls-2" d="M363.92,298c-.45-.45-1.17-1.13-2.05-1.93V288l-4.49.21V292l-4-3.48a2.29,2.29,0,0,0-3.27.25c-2.84,3.35-8.8,10.38-10.05,11.9-1.65,2,.35,3.07,2.71,3.07.27,0,.72,0,1.3-.05V327l17-12.74-.1-12c1.2-.12,2.08-.23,2.46-.29C365.46,301.61,366.28,300.32,363.92,298Z" transform="translate(-169.03 -287.95)"/><path class="cls-4" d="M387.88,327.77c-3.48-3.79-14.56-13.9-19.28-18.18a3.81,3.81,0,0,0-4.63-.38c-7.81,5-29.66,19.07-30.05,23.69-.22,2.75,4.63,3.54,9.09,3.66v24.51l37.77,35.66V335c2.09-.12,3.61-.2,4.21-.22C388.15,334.61,392.36,332.64,387.88,327.77Z" transform="translate(-169.03 -287.95)"/></svg>