<svg xmlns="http://www.w3.org/2000/svg" viewBox="0 0 316.35 266.15"><defs><style>.cls-4{fill:#fff}.cls-5{fill:#6a6c9f}</style></defs><g id="Layer_1" data-name="Layer 1"><path d="M657.4 577.84s-1.64 34.44 0 56.84 3.55 29.52 5.19 34.17 6.26 7.46 12.3 11.36c16.93 10.93 66.53 49.78 73.91 53.33s-.11-114.65-.11-114.65z" transform="translate(-637.39 -469.6)" fill="#a2caee"/><path d="M927.28 603.81V726.4c0 9.36-6.4 9.36-23.14 9.36H764.45c-11.7 0-19.34-.34-19.34-10.32 0-16.75-2.23-106.48-2.23-106.48l99.22-76.7z" transform="translate(-637.39 -469.6)" fill="#c1e0fc"/><path d="m722.84 651.21-44.14-29.29a3 3 0 0 0-4.66 2.33l-1.86 33a3 3 0 0 0 1.43 2.73l46 28.09a3 3 0 0 0 1.56.44 3 3 0 0 0 3-3v-31.8a3 3 0 0 0-1.33-2.5zm-43.1-21.4L695.08 640l-1.6 25.14-15.21-9.29zm38.44 50.4-18.92-11.55 1.58-24.84 17.34 11.5z" transform="translate(-637.39 -469.6)" fill="#81b0d9"/><path class="cls-4" d="M799.9 625.51c-11.85.28-28 11-28.06 30.22 0 16.06 14.23 28.68 28.06 28.28s28.47-12.22 28.46-28.28-11.86-30.61-28.46-30.22z" transform="translate(-637.39 -469.6)"/><path class="cls-5" d="M800.05 648.41a8.25 8.25 0 0 0-7.69 8.28 7.87 7.87 0 0 0 7.69 7.75c3.79-.11 7.8-3.35 7.8-7.75s-3.25-8.39-7.8-8.28z" transform="translate(-637.39 -469.6)"/><path class="cls-4" d="M882.91 624.51c11.85.28 28 11 28.06 30.22 0 16.06-14.23 28.68-28.06 28.28s-28.47-12.22-28.46-28.28 11.86-30.61 28.46-30.22z" transform="translate(-637.39 -469.6)"/><path class="cls-5" d="M882.77 647.41a8.25 8.25 0 0 1 7.69 8.28 7.87 7.87 0 0 1-7.69 7.75c-3.79-.11-7.8-3.35-7.8-7.75s3.25-8.39 7.8-8.28zm-40 17.72a8.26 8.26 0 0 0-7.69 8.28 7.86 7.86 0 0 0 7.69 7.75c3.79-.11 7.8-3.35 7.8-7.75s-3.25-8.41-7.8-8.28z" transform="translate(-637.39 -469.6)"/><path d="M946.53 598.83c-2.79-2.62-23.07-17.58-44.71-33.33-.19-10.68-.51-30.39-.5-35.57 0-8.72-4-10.08-8.83-10.5s-15.8.27-23.3.32c-6 0-7.59 3-7.78 7.5-.07 1.54-.09 5.06-.08 9-6.57-4.7-11.58-8.27-14-9.93-12.24-8.5-60.25-41.76-79.53-51.65-13-6.65-20.27-8.18-33.89 4.34-11.71 10.75-84.1 74.83-89.54 81s-12.59 12.88 0 21.07 75.22 51.59 82.72 56.52c5.87 3.86 11.72 3.92 16.19-.85 9.51-10.18 99.51-85.24 99.51-85.24s76.46 55.5 85.71 60.8c9.43 5.41 16.65 3.9 21.84 2.09 6.96-2.47 1.97-10.13-3.81-15.57z" transform="translate(-637.39 -469.6)" fill="#8485f4"/></g></svg>