<svg xmlns="http://www.w3.org/2000/svg" viewBox="0 0 277.57 295.99"><defs><style>.cls-1{fill:#feeb97;}.cls-2{fill:#edcd79;}.cls-3{fill:#ee8770;}.cls-4{fill:#fff;}.cls-5{fill:#b98c4b;}.cls-6{fill:#f9b3b9;}.cls-7{fill:#b07c5e;}.cls-8{fill:#cca38c;}.cls-9{fill:#a36847;}.cls-10{fill:#9cc992;}</style></defs><g id="Layer_1" data-name="Layer 1"><path class="cls-1" d="M743.78,735.18s5.74,8.61,18.44,9.43c10.73.69,117,.21,149.82,0A9.72,9.72,0,0,0,921.7,735L923,578.11l-89.6-57.62-88.62,49.22Z" transform="translate(-651.06 -448.98)"/><path class="cls-2" d="M685.18,511V670.73a8.45,8.45,0,0,0,2.36,5.85l56.24,58.6,1-165.47Z" transform="translate(-651.06 -448.98)"/><path class="cls-3" d="M679.4,511.12l65.36,67.59a3.85,3.85,0,0,0,4.71.63l84.07-50.54a4.66,4.66,0,0,1,4.93.1l83,54.45a4.6,4.6,0,0,0,3.75.6h0a4.62,4.62,0,0,0,3.41-4.47v-2.8a4.65,4.65,0,0,0-1.25-3.17l-67.15-71.35a4.82,4.82,0,0,0-1-.8l-86.59-51.72a4.63,4.63,0,0,0-4.85.06l-87.66,55.44A3.88,3.88,0,0,0,679.4,511.12Z" transform="translate(-651.06 -448.98)"/><circle class="cls-4" cx="145.55" cy="198" r="23.14"/><circle class="cls-5" cx="145.55" cy="198" r="6.36"/><circle class="cls-4" cx="231.22" cy="198" r="23.14"/><circle class="cls-5" cx="231.22" cy="198" r="6.36"/><path class="cls-6" d="M829,657.5s-2.41,24.13,9.85,24.22,8.42-25,8.42-25Z" transform="translate(-651.06 -448.98)"/><path class="cls-5" d="M825.52,657.24c-.29-1.57,1.8-1.76,3-1.76h19c1.88,0,6.27,2,4.21,2.75s-10.21,1.2-14.41,1.27S826,659.51,825.52,657.24Z" transform="translate(-651.06 -448.98)"/><path class="cls-7" d="M733.27,459.87s-1.8-4-4.87-5.18-7.37,1.57-10.67,5.18-3.53,8.08-2.12,9.63a8.56,8.56,0,0,0,7.38,3.32C727.31,472.66,733.27,459.87,733.27,459.87Z" transform="translate(-651.06 -448.98)"/><path class="cls-7" d="M749.52,458.92s1.41-4.31,5.25-5.18,9.19,3.85,11.38,6.36,3.38,6,2.28,8.63-7.14,6.13-7.14,6.13Z" transform="translate(-651.06 -448.98)"/><path class="cls-8" d="M763.26,478.68A20.35,20.35,0,0,0,760,465.36c-5.26-8-11.93-9.22-18.31-9.22-8.22,0-16.23,5.79-18.89,12.54a19.53,19.53,0,0,0,.25,14.19Z" transform="translate(-651.06 -448.98)"/><path class="cls-9" d="M737.51,467.84c-.2,1.17,3.45,3.22,3.45,3.22s3.3-1.88,3.38-3.22-2.2-1.8-3.42-1.8S737.74,466.43,737.51,467.84Z" transform="translate(-651.06 -448.98)"/><ellipse class="cls-9" cx="98.95" cy="17.42" rx="1.68" ry="2.15"/><ellipse class="cls-9" cx="81.37" cy="18.26" rx="1.68" ry="2.15"/><path class="cls-2" d="M720.85,473.79h18v50.4s-14.49-10.2-18-15.71Z" transform="translate(-651.06 -448.98)"/><path class="cls-1" d="M738.81,473.79v50.4s4.08,1.84,12-3.47a79,79,0,0,0,14.69-13.46V473.79Z" transform="translate(-651.06 -448.98)"/><path class="cls-10" d="M705.53,673.68c-1.14-3.59-8.64,3.26-10.76,5.54-.72.78-1.68,1.95-2.64,3.16.07-8.34-.13-12.45-.13-12.45l-10-2.12s-1,13.86,0,22.17c.16,1.37.32,2.57.47,3.65-3.66-3.82-9-7.41-10.74-8-2.28-.78-6.52-1.51-4.07,4.53s18.75,18.09,20.7,18.58c0,0,2.73-4.67,3.44-15.73a51.18,51.18,0,0,0,7.49-5.62C703.41,683.46,706.67,677.27,705.53,673.68Z" transform="translate(-651.06 -448.98)"/><path class="cls-1" d="M725.34,633.43c-.25-.74-1.21-.89-2-.92L710,632c2.12-1.56,6.55-5.79,5.82-8.39-.45-1.64-4.08-1.26-5.73-.84-3,.78-4.89,1.07-7.05,2.39,3.08-3,6.46-10.61,4.33-11.59A28.15,28.15,0,0,0,696.54,619l1.17-4-4.71,1.6c.08-3.72.15-7.44.23-11.17a3.3,3.3,0,0,0-1.51-2.93c-1.93-1.15-3.7.62-4.68,2.29-3.32,5.65-2.6,10.74-2.64,16.8-2.85-4.72-7.92-12.15-10.59-11.84-2.88.75,1.06,9.37.11,9.89-.41.22-6.47-7.62-8.13-7.2-1.23.32-.7,4.93,2.06,10.39-2.14-.58-9.25-4.63-9.21-2.48a8.71,8.71,0,0,0,3.74,6.66c-2.59-.58-6.54-1.56-8.06-.85-1.76,2.32,5.18,8.76,9.74,11.51a26.16,26.16,0,0,0-8.75,1.7A18.19,18.19,0,0,0,660.4,643l-5.57,2.71h0a2.66,2.66,0,0,0,1.05,5c2.07,0,4.52-.89,6.27.34a56.91,56.91,0,0,0-9.16,5.4c-1,.71-2,1.53-1.88,3a3.21,3.21,0,0,0,2.57,2.78c2.56.56,4.73-1,6.67-2.51-.7,2.46-1.41,4.92-2.11,7.38-.29,1-.52,2.22.2,3a2.88,2.88,0,0,0,2.57.44,24.07,24.07,0,0,0,7.88-2.86c.45,1.07-.12,2.28-.75,3.25a5.26,5.26,0,0,0-1.27,3.18c.11,1.16,1.67,2.12,2.45,1.25.66,2.68-1.22,6.28,1.2,7.8a2.92,2.92,0,0,0,2.71.12c2.72-1.23,3.33-4.54,5.63-6.11a21.16,21.16,0,0,0,.71,8.41,1,1,0,0,0,1.57.47,15.65,15.65,0,0,0,4.67-7.42,34.34,34.34,0,0,0,4.07,4.61c.89.84,1.92,1.68,3.38,1.17a3.43,3.43,0,0,0,1.89-1.74,8.69,8.69,0,0,0,.38-4.75c.26,1.84,3.34,1.66,4.22,0s.32-3.63,0-5.46a28.44,28.44,0,0,1-.43-3.32c.52.53,1,1,1.6,1.55,2.59,2.38,6.31,4.61,9.41,2.94a20.59,20.59,0,0,0-5.49-10.87,40.51,40.51,0,0,0,12.85,3.84,3,3,0,0,0,2.78-1.09c1.25-1.66,0-3.3-1.31-4.41a26.47,26.47,0,0,0-5.67-3.76,2,2,0,0,0,2-2.27c-.31-1.44-1.82-2.27-3.23-2.71,2.54.34,5.76.34,6.77-2.11a3.76,3.76,0,0,0-.47-3.49c-1.23-1.83-3.29-2.59-5.27-3.3,3.14.73,7.2.47,7.26-1.36s-3.8-2.63-7.69-3.72a15.62,15.62,0,0,0,11.62-3.07C725,634.87,725.6,634.15,725.34,633.43Z" transform="translate(-651.06 -448.98)"/><path class="cls-5" d="M684.42,626.59c-9,2.59-14.68,13.87-13.28,23.65s11.54,19.11,21.67,12.7,9.79-18.29,8-24.93S692.41,624.31,684.42,626.59Z" transform="translate(-651.06 -448.98)"/></g></svg>