<svg id="Layer_1" data-name="Layer 1" xmlns="http://www.w3.org/2000/svg" viewBox="0 0 243.88 257.95"><defs><style>.cls-1{fill:#9eca7d;}.cls-2{fill:#b9d799;}.cls-3{fill:#ee8d52;}.cls-4{fill:#70a750;}.cls-5{fill:#fff;}.cls-6{fill:#6f6372;}.cls-7{fill:#f5a897;}.cls-8{fill:#f7b7ab;}</style></defs><path class="cls-1" d="M410.62,347.05s.23,161.85,0,166.07-2.21,4.87-5.09,6.43-34.7,17.71-34.7,17.71L370.27,369Z" transform="translate(-174.63 -292.43)"/><path class="cls-2" d="M205.53,378.09s-.86,144.67-.66,149.88c.22,6,2.66,10.2,8,10.2H369.31c2.29,0,5.62-2.88,5.62-6.21s-.22-158.53-.22-158.53l-82.49-47.89Z" transform="translate(-174.63 -292.43)"/><path class="cls-3" d="M290.42,332.34a2.78,2.78,0,0,1,2.89,0c9.88,6,67.14,40.56,72.07,43.64,5.39,3.37,7.75,2.7,13.82-1s32.71-23.27,37.1-26.64,1.68-6.75-3-10.12-72.5-40.8-76.89-42.83-6.74-4.72-11.8-1.35-74.19,43.84-78.91,46.88-25,17.53-28.67,20.23-15.63,14.29-15.36,17.55c.42,5.06,6.26,2.69,10.64.66C216.3,377.5,280,338.7,290.42,332.34Z" transform="translate(-174.63 -292.43)"/><path class="cls-4" d="M334.64,402.33c-8,1.34-23.18,6.55-25.72,15.05C318,414.45,330.16,411.31,334.64,402.33Z" transform="translate(-174.63 -292.43)"/><path class="cls-4" d="M248,405.5c8,1.33,23.17,6.54,25.72,15C264.59,417.61,252.47,414.48,248,405.5Z" transform="translate(-174.63 -292.43)"/><path class="cls-4" d="M271,434.17c-10.78-17.66-39.56-15-50,2.28s.79,43.71,25.24,44.56S283.18,454.15,271,434.17Z" transform="translate(-174.63 -292.43)"/><path class="cls-5" d="M236.5,427.67C219,433.74,216,459,229.22,471.17s37.75,7.08,43-13.83S256.36,420.81,236.5,427.67Z" transform="translate(-174.63 -292.43)"/><path class="cls-4" d="M324.39,478c19.05,8.07,40.87-10.9,39.3-31S337.57,412,317.2,425.52,302.84,468.89,324.39,478Z" transform="translate(-174.63 -292.43)"/><path class="cls-5" d="M356.2,464.19c10.72-15.16-1.6-38.45-19.44-40.58s-34.8,16.25-26.92,36.33S344.07,481.35,356.2,464.19Z" transform="translate(-174.63 -292.43)"/><path class="cls-4" d="M282.24,483.05a7.62,7.62,0,0,1-4.27-1.3,6.45,6.45,0,0,1-2.65-4.34,13.65,13.65,0,0,1,1.68-9,2,2,0,0,1,3.27,2.31,9.87,9.87,0,0,0-1,5.93,2.55,2.55,0,0,0,.94,1.75c2.9,1.93,7.05-1.17,9-3.57a2,2,0,0,1,1.64-.75,2,2,0,0,1,1.57.88s3.48,5,7.37,3.85a4.1,4.1,0,0,0,2.72-2.67,6.53,6.53,0,0,0-.7-5.69,2,2,0,0,1,3.33-2.22,10.54,10.54,0,0,1,1.13,9.28,8.14,8.14,0,0,1-5.37,5.14c-4.51,1.3-8.21-1.5-10.2-3.55C288.27,481.4,285.24,483.05,282.24,483.05Z" transform="translate(-174.63 -292.43)"/><path class="cls-4" d="M194.48,522.63s-7.34-.2-9,4.33c-1.81,5,12.61,12.91,16,14.22s5.15.1,7.67-2,13.61-12,13.3-17.74-6.95-5.65-9.57-3.13S194.48,522.63,194.48,522.63Z" transform="translate(-174.63 -292.43)"/><path class="cls-3" d="M201.42,487s5.41-6.14,11-2.92,3.36,11.68,3.36,11.68,10.77,0,11.42,9.55-10.08,10.11-10.08,10.11,1.47,7.59-5.46,9.55-10.2-3-10.2-3a9.78,9.78,0,0,1-11.15,2c-6.65-3-3.09-9.17-3.09-9.17s-12.73-.09-12.54-9.46,12-8.89,12-8.89-5-9.55,3.18-13.11S201.42,487,201.42,487Z" transform="translate(-174.63 -292.43)"/><path class="cls-6" d="M204.3,497.6c-1.36-.74-4,.73-6.44.64s-3.61,1.82-3.89,4.13-2.53,3.4-1.75,5.53c.49,1.33,2.7.84,3.45,2s5,2.87,8,.7c2.65-1.92,3.49-1.41,3.9-2.85.34-1.22-.73-2.48-1.26-4.58S206.58,498.84,204.3,497.6Z" transform="translate(-174.63 -292.43)"/><path class="cls-7" d="M342.43,517.78s-.51,21.37-.51,22.52a7.08,7.08,0,0,0,2.43,4.61l4.76,4,.48-29.82Z" transform="translate(-174.63 -292.43)"/><path class="cls-8" d="M348.19,520.73s-.52,24-.52,25.46,1.54,3.71,4.61,4,34.81.51,36-.51.64-29.31.64-29.31l-20.86-14Z" transform="translate(-174.63 -292.43)"/><path class="cls-3" d="M368.15,508.83s-17,15.35-20.09,15.09-9-6.14-9-7.8,21.11-17.4,24.18-17.4,24.83,17,25.09,17.78,2.81,6.4.89,6.66S368.15,508.83,368.15,508.83Z" transform="translate(-174.63 -292.43)"/></svg>