<svg id="Layer_1" data-name="Layer 1" xmlns="http://www.w3.org/2000/svg" xmlns:xlink="http://www.w3.org/1999/xlink" viewBox="0 0 293.85 269.71"><defs><style>.cls-1,.cls-9{fill:none;}.cls-2{fill:#efd775;}.cls-3{fill:#fff;}.cls-4{fill:#f6e292;}.cls-5{fill:#aa7042;}.cls-6{fill:#bd7f64;}.cls-7{clip-path:url(#clip-path);}.cls-8{fill:#ab6d52;}.cls-9{stroke:#b1c1bc;stroke-miterlimit:10;stroke-width:5px;}.cls-10{fill:#b7ea9a;}.cls-11{fill:#f5a767;}.cls-12{fill:#ee8b7a;}.cls-13{fill:#b1fad6;}.cls-14{fill:#ff94a8;}.cls-15{fill:#fe95a8;}.cls-16{fill:#fdb3a3;}.cls-17{fill:#e49f67;}</style><clipPath id="clip-path" transform="translate(-810.86 -407.02)"><path class="cls-1" d="M1052.89,642.18s-1.69,18.49-3.6,22.51c0,0-11.62,8.87-31.9,8.45s-28.85-9-28.85-9-4.23-15.43-3.8-24.09l2.64-.32,4.23.53,16.78,11.53h14.07l17.85-5.07,10-4.32Z"/></clipPath></defs><path class="cls-2" d="M1056.23,610c-.11,4.69-.09,5.74-1.78,8.52-2.8,4.61-22.34,30.33-30.71,32.26V505.88L1056.43,481S1056.29,607.23,1056.23,610Z" transform="translate(-810.86 -407.02)"/><path class="cls-3" d="M1087.3,575.73c12.08,9.79,23,33.61,14.18,53-11.84,25.89-48.13,28.59-62,3.24-12.15-22.21-1.31-42.87,6-51.11C1055.85,569.12,1072.61,563.82,1087.3,575.73Z" transform="translate(-810.86 -407.02)"/><path class="cls-4" d="M1072.93,594.14c-15-2.13-31.81,12.27-25.88,32.45s41.39,21.21,46.25-2.3C1096.77,607.48,1087.45,596.2,1072.93,594.14Z" transform="translate(-810.86 -407.02)"/><path class="cls-5" d="M1074.32,619.65h-.25c-3-.17-4.6-3.22-5.08-5a1.5,1.5,0,0,1,2.89-.79c.2.7,1.06,2.71,2.37,2.78s2.42-2.69,2.6-3.37a1.5,1.5,0,1,1,2.9.73C1079.21,616.13,1077.47,619.65,1074.32,619.65Z" transform="translate(-810.86 -407.02)"/><ellipse class="cls-5" cx="274.62" cy="204.7" rx="3.13" ry="3.4"/><ellipse class="cls-5" cx="251.64" cy="205.76" rx="3.13" ry="3.4"/><path class="cls-4" d="M1029.51,504.25s0,140.89-1,143.52-2.63,3.79-9.54,4.37-191.56,1.49-197.07.48c-4.35-.8-7.08-3.51-7.38-9.56-.21-4.09.31-132.86.31-132.86l97.87-66.64Z" transform="translate(-810.86 -407.02)"/><path class="cls-6" d="M1052.89,642.18s-1.69,18.49-3.6,22.51c0,0-11.62,8.87-31.9,8.45s-28.85-9-28.85-9-4.23-15.43-3.8-24.09l2.64-.32,4.23.53,16.78,11.53h14.07l17.85-5.07,10-4.32Z" transform="translate(-810.86 -407.02)"/><g class="cls-7"><path class="cls-8" d="M995.63,644.36c.3,2.27.52,4.55.77,6.82l.66,6.83.59,6.83q.14,1.71.24,3.42c0,.57,0,1.14,0,1.71a4.32,4.32,0,0,1-.32,1.74,1.13,1.13,0,0,1-1.49.58,1.16,1.16,0,0,1-.53-.47,4.24,4.24,0,0,1-.51-1.68c-.08-.57-.15-1.14-.19-1.71-.07-1.14-.12-2.28-.16-3.42l-.21-6.85-.12-6.86c0-2.29-.07-4.57,0-6.86a.64.64,0,0,1,1.28-.08Z" transform="translate(-810.86 -407.02)"/><path class="cls-8" d="M1009.18,648.38c.22,2.28.34,4.57.5,6.85l.38,6.85.3,6.85c.06,1.14.09,2.28.11,3.42,0,.57,0,1.14-.06,1.71a4.26,4.26,0,0,1-.39,1.72,1.14,1.14,0,0,1-1.52.53,1.18,1.18,0,0,1-.5-.49,4.35,4.35,0,0,1-.45-1.71c0-.57-.1-1.14-.12-1.71,0-1.14,0-2.28,0-3.42l.07-6.86.15-6.86c.08-2.28.12-4.57.26-6.85a.64.64,0,0,1,1.28,0Z" transform="translate(-810.86 -407.02)"/><path class="cls-8" d="M1021.35,648.74c.11,2.28.12,4.57.17,6.86l.06,6.86,0,6.85c0,1.14,0,2.28-.06,3.43,0,.57-.08,1.14-.14,1.71a4.35,4.35,0,0,1-.47,1.7,1.14,1.14,0,0,1-2-.07,4.28,4.28,0,0,1-.36-1.72c0-.57,0-1.15,0-1.72q0-1.71.15-3.42l.39-6.84.48-6.85c.19-2.27.34-4.56.59-6.83a.64.64,0,0,1,.71-.57A.63.63,0,0,1,1021.35,648.74Z" transform="translate(-810.86 -407.02)"/><path class="cls-8" d="M1032.9,647.44c.17,2.29.25,4.57.37,6.86l.25,6.85.17,6.85c0,1.15,0,2.29,0,3.43q0,.86-.09,1.71a4.35,4.35,0,0,1-.42,1.72,1.15,1.15,0,0,1-1.53.49,1.13,1.13,0,0,1-.49-.5,4.3,4.3,0,0,1-.42-1.71c0-.57-.07-1.15-.08-1.72,0-1.14,0-2.28,0-3.42l.2-6.86.29-6.85c.12-2.28.21-4.57.39-6.85a.64.64,0,0,1,1.28,0Z" transform="translate(-810.86 -407.02)"/><path class="cls-8" d="M1044.62,643.63c.22,2.28.34,4.56.5,6.84l.39,6.85.31,6.85c0,1.14.09,2.28.11,3.42,0,.58,0,1.15-.06,1.72a4.17,4.17,0,0,1-.39,1.72,1.14,1.14,0,0,1-2,0,4.53,4.53,0,0,1-.45-1.71c0-.57-.1-1.14-.11-1.71,0-1.14,0-2.29,0-3.43l.06-6.85.14-6.86c.08-2.29.12-4.57.26-6.86a.64.64,0,0,1,1.28,0Z" transform="translate(-810.86 -407.02)"/><path class="cls-8" d="M1051.82,644.11a89.66,89.66,0,0,1-10.08,6.32c-1.75,1-3.54,1.82-5.38,2.63a27.34,27.34,0,0,1-2.81,1.11,12.38,12.38,0,0,1-1.48.39,3.24,3.24,0,0,1-1.58,0,1.14,1.14,0,0,1-.83-1.39,1.06,1.06,0,0,1,.27-.5l.06-.06a3.06,3.06,0,0,1,1.25-.8c.44-.16.87-.37,1.32-.53l2.69-1c1.81-.67,3.58-1.45,5.36-2.22,3.55-1.57,7-3.34,10.52-5.1h0a.64.64,0,0,1,.67,1.09Z" transform="translate(-810.86 -407.02)"/><path class="cls-8" d="M1008.72,655.92a34.66,34.66,0,0,1-6.88-2.08,49.11,49.11,0,0,1-6.4-3.22,51.44,51.44,0,0,1-5.87-4.1c-1-.72-1.82-1.54-2.72-2.33s-1.7-1.68-2.56-2.51l1.93-.89c.47,3.69,1,7.41,1.76,11.07a81.35,81.35,0,0,0,2.74,10.75l-.32-.51a20.06,20.06,0,0,0,2.71,2,28.37,28.37,0,0,0,3.06,1.69,40.09,40.09,0,0,0,6.61,2.42c2.3.66,4.64,1.19,7,1.71s4.73.93,7,1.67h0a1,1,0,0,1,.66,1.29,1,1,0,0,1-.93.71,34.39,34.39,0,0,1-7.39-.75,73.13,73.13,0,0,1-7.23-1.75,39.43,39.43,0,0,1-7-2.77,31.08,31.08,0,0,1-3.29-1.93,21.31,21.31,0,0,1-3.09-2.44l-.22-.21-.09-.29a83.74,83.74,0,0,1-2.64-11.17c-.65-3.74-1.17-7.48-1.57-11.27l-.35-3.3,2.28,2.42a62.32,62.32,0,0,0,5,4.79,48.36,48.36,0,0,0,5.52,4.13,47.36,47.36,0,0,0,6.06,3.31,34.23,34.23,0,0,0,6.46,2.27h.05a.64.64,0,0,1-.26,1.26Z" transform="translate(-810.86 -407.02)"/><path class="cls-9" d="M982.53,649.44s9.6,12.73,33.68,13.54c29.26,1,38.68-11.78,38.68-11.78" transform="translate(-810.86 -407.02)"/></g><path class="cls-10" d="M985.11,632.55s-5.89,1.19-4.85,5c1.12,4.1,4.11.25,6.34,3.23a60.48,60.48,0,0,0,11.31,9.69c6.59,4,12.06,4.48,22.22,4.14,8.27-.27,18.59-4.53,22.9-6.87s6.25-3.52,7.58-4c3.77-1.29,6.47-.62,8.83-3.23s-.47-8.48-7-9.22c0,0,4.44-6-.37-8.51a9.26,9.26,0,0,0-6.6-.35,3.81,3.81,0,0,1-4.73-3.14,7.6,7.6,0,0,0-1.12-3.29c-3.69-5.16-12.7-2.34-12.7-2.34s-3.48-5.82-8.29-5.2-8.9,6.45-8.9,6.45-6.23-3.06-10.92-1.5c-4.12,1.37-4.62,7-4.62,7s-5.52-1.61-8.2,1.79C983.45,625.4,985.11,632.55,985.11,632.55Z" transform="translate(-810.86 -407.02)"/><path class="cls-11" d="M989.84,619.9s-5,.45-5.33,2.76c-.49,3.63,7.88,9.87,15.43,5.4,7-4.13-.4-16.6-2.15-16.65-2.52-.07-3.09,5-3.09,5s-2.85-2.83-4.53-1.51S989.84,619.9,989.84,619.9Z" transform="translate(-810.86 -407.02)"/><path class="cls-11" d="M1029.42,629.26s-3.08-3.91-5.05-2.66c-3.1,1.95-1.73,15.68,7,16.72,9.28,1.1,12-14.48,10.57-15.44-2.67-1.74-5.42,1.66-5.42,1.66s-2-4.32-3.77-3.86C1030.76,626.19,1029.42,629.26,1029.42,629.26Z" transform="translate(-810.86 -407.02)"/><path class="cls-12" d="M1052.06,626s.51-3.65-1.51-3.92c-3.17-.42-8.72,5.94-4.86,12,3.56,5.63,13,1.74,12.86-1.84-.06-2-3.47-2.35-3.47-2.35s2.5-2.26,1.35-3.62S1052.06,626,1052.06,626Z" transform="translate(-810.86 -407.02)"/><path class="cls-12" d="M1008,612.15s-3.35-2.11-4.5-.25c-1.82,2.94,1.95,11.2,9.63,10.09,7.09-1,7.44-12,3.89-13.45-2-.83-3.84,2.37-3.84,2.37s-1.11-3.46-2.94-2.92S1008,612.15,1008,612.15Z" transform="translate(-810.86 -407.02)"/><path class="cls-13" d="M1025.75,609.6s-2.62-2.59-4-1.12c-2.23,2.29-.42,10.54,6.77,11.07,6.64.5,9.12-9.38,6.18-11.42-1.65-1.16-4,1.38-4,1.38s-.33-3.36-2.1-3.24S1025.75,609.6,1025.75,609.6Z" transform="translate(-810.86 -407.02)"/><path class="cls-14" d="M1044.5,613.14s3.49-1.19,4.13.75c1,3-4.21,9.68-10.92,7-6.19-2.45-4.12-12.41-.59-13,2-.31,3,3,3,3s1.76-2.88,3.3-2S1044.5,613.14,1044.5,613.14Z" transform="translate(-810.86 -407.02)"/><path class="cls-12" d="M1026.61,640.71s3.13-3.65,5.19-1.82c3.25,2.88,2,14-7.47,15.28-8.7,1.2-13.27-11.74-9.67-14.69,2-1.67,5.4,1.51,5.4,1.51s0-4.48,2.35-4.47S1026.61,640.71,1026.61,640.71Z" transform="translate(-810.86 -407.02)"/><path class="cls-13" d="M1014.41,626.9s2.52-3.59,4.51-2.17c3.13,2.24,2.8,12.33-5.55,14.47-7.71,2-12.78-9.12-9.77-12.15,1.7-1.71,5,.79,5,.79s-.35-4,1.76-4.25S1014.41,626.9,1014.41,626.9Z" transform="translate(-810.86 -407.02)"/><path class="cls-15" d="M997.41,638.6s-4-3-5.8-1.54c-2.8,2.35-.82,12.6,7.78,14.37,7.94,1.64,10.87-12.55,9.61-13.76-1.81-1.75-5.65,1.61-5.65,1.61s-.2-4-2.33-4.15S997.41,638.6,997.41,638.6Z" transform="translate(-810.86 -407.02)"/><path class="cls-16" d="M917.44,453.78a8,8,0,0,0-7.92.12c-12.1,7.07-89.58,59.2-94.07,60-5,.88-5.38-3.62-3.71-5.93s26.54-25.28,33.92-30.16c3.36-2.22,90.44-58.22,92.69-59.69,2-1.28,5.6-1.3,8.51.35,3.38,1.93,113.65,57.89,114.87,59.41s2,3.31.14,5.32-24.43,23.58-26.15,25c-3,2.55-6.52,3.19-9.61,1.92C1022.32,508.59,929.13,459.76,917.44,453.78Z" transform="translate(-810.86 -407.02)"/><path class="cls-5" d="M921.65,588.55c-8.84,0-13.49-8.25-14.74-12.84a3.5,3.5,0,0,1,6.74-1.86c.11.37,2.44,8.27,8.74,7.66,6.66-.64,6.73-7.25,6.68-8.56a3.5,3.5,0,0,1,7-.36,18.65,18.65,0,0,1-1.24,7.21,13.43,13.43,0,0,1-11.76,8.68A13.58,13.58,0,0,1,921.65,588.55Z" transform="translate(-810.86 -407.02)"/><path class="cls-5" d="M967.13,573a3.54,3.54,0,0,1-.85-.11c-8.72-2.18-14-10.24-15.46-12.66a3.5,3.5,0,1,1,6-3.55c.77,1.3,4.9,7.87,11.12,9.42a3.5,3.5,0,0,1-.84,6.9Z" transform="translate(-810.86 -407.02)"/><path class="cls-5" d="M876.34,574.44a3.5,3.5,0,0,1-.85-6.9c6.23-1.55,10.36-8.12,11.12-9.42a3.5,3.5,0,0,1,6,3.55c-1.43,2.42-6.75,10.49-15.46,12.66A3.15,3.15,0,0,1,876.34,574.44Z" transform="translate(-810.86 -407.02)"/><path class="cls-17" d="M903.53,565.64a3.5,3.5,0,0,1-2.82-5.56c.34-.47,8.46-11.36,19.58-12.06a28.87,28.87,0,0,1,23.37,9.46,3.5,3.5,0,0,1-5.42,4.43,21.82,21.82,0,0,0-17.52-6.9c-7.82.49-14.3,9.13-14.37,9.21A3.5,3.5,0,0,1,903.53,565.64Z" transform="translate(-810.86 -407.02)"/><path class="cls-17" d="M961.7,588.34a24,24,0,1,1,24.18-24A24.09,24.09,0,0,1,961.7,588.34Zm0-40.91a17,17,0,1,0,17.18,17A17.08,17.08,0,0,0,961.7,547.43Z" transform="translate(-810.86 -407.02)"/><path class="cls-17" d="M882.47,588.87a24,24,0,1,1,24.18-24A24.09,24.09,0,0,1,882.47,588.87Zm0-40.91a17,17,0,1,0,17.18,16.95A17.08,17.08,0,0,0,882.47,548Z" transform="translate(-810.86 -407.02)"/><path class="cls-16" d="M985.28,584.28s3.11-8.47,8.32-7.3,3.93,8.73,3.93,8.73,9.05-1.07,8.91,4c-.21,7.17-7.87,8.1-7.87,8.1s.27,8.35-4.16,8.87-7.69-5.87-7.69-5.87-4.34,5.59-8.37,2.34.16-9.37.16-9.37-3.81-4.37-1.82-7.69C979.05,582.14,985.28,584.28,985.28,584.28Z" transform="translate(-810.86 -407.02)"/><path class="cls-16" d="M864.11,588.22s-3.11-8.47-8.32-7.29-3.92,8.72-3.92,8.72-9-1.07-8.91,4c.2,7.17,7.87,8.11,7.87,8.11s-.28,8.34,4.15,8.86,7.7-5.87,7.7-5.87,4.33,5.59,8.37,2.34-.16-9.37-.16-9.37,3.8-4.37,1.82-7.69C870.34,586.08,864.11,588.22,864.11,588.22Z" transform="translate(-810.86 -407.02)"/><path class="cls-12" d="M953.87,441.79a6.43,6.43,0,0,0,2.92,7.12c3.18,1.78,54.28,29.11,56.06,30.12s3.81,0,6.35-1.52,11.7-9.54,12.59-21.23-3.44-16-3.44-16l-42.7-22.63s-11.7-1.84-17.93,3.43A48.72,48.72,0,0,0,953.87,441.79Z" transform="translate(-810.86 -407.02)"/><path class="cls-10" d="M1032.77,433.21c-1.28-2.56-7.49-7.33-14.88-12a73,73,0,0,1,6.16-6.27c3.44-2.91-4.23-10.83-9.25-6.87a37.94,37.94,0,0,0-6.53,7.58c-6.54-3.47-12.79-6.13-16.45-6.52-9.78-1.06-19.58,2.08-20.08,9.51-.8,11.62,18.76,9.77,18.76,9.77s-6.61,12.16,1.32,17.44,18.49-2.38,18.49-2.38,6.08,12.42,16.38,10.57S1035.68,439,1032.77,433.21Z" transform="translate(-810.86 -407.02)"/><path class="cls-4" d="M974.88,433.56c-2.51.23-6.51,2.82-7.08,6.65a3.23,3.23,0,0,0,3.85,3.86c1.72-.29,6.85-3.2,7.23-6.32C979.39,433.66,976.47,433.42,974.88,433.56Z" transform="translate(-810.86 -407.02)"/><path class="cls-4" d="M1012.8,466.82c1.47-1.69,2.44-5.8.45-8.6a2.86,2.86,0,0,0-4.84-.09c-.92,1.24-2.41,6.26-.74,8.49C1009.86,469.54,1011.87,467.89,1012.8,466.82Z" transform="translate(-810.86 -407.02)"/><path class="cls-4" d="M984.83,449.8c-1.48,1.64-2.51,5.68-.61,8.45a2.81,2.81,0,0,0,4.75.16c.94-1.21,2.51-6.13.91-8.34C987.79,447.17,985.77,448.76,984.83,449.8Z" transform="translate(-810.86 -407.02)"/></svg>