<svg id="Layer_1" data-name="Layer 1" xmlns="http://www.w3.org/2000/svg" viewBox="0 0 224.69 245.83"><defs><style>.cls-1{fill:#f9cbcc;}.cls-2{fill:#f0b3b4;}.cls-3{fill:#92c785;}.cls-4{fill:#c87575;}.cls-5{fill:#f4a09f;}.cls-6{fill:#fff;}</style></defs><path class="cls-1" d="M226.15,396.64s.22-44.2.58-47.6.66-7.55,4.68-7.49,23.43-.24,27.79.38,4.66,3.54,4.66,7.64-.31,21.11-.31,21.11Z" transform="translate(-185.11 -298.44)"/><path class="cls-1" d="M377.62,418.28s.31,113.45,0,116.54-1.23,7.42-7.42,8-169.32,1.86-174,1.24a8.63,8.63,0,0,1-7.42-8.66c0-4-.07-107.74-.07-107.74l107.57-76.19Z" transform="translate(-185.11 -298.44)"/><path class="cls-2" d="M402.35,397.26s3.4,98.92,2.79,102.32-.93,5.26-3.4,8.35-22.19,31.84-28.1,34l-1.89-134.47Z" transform="translate(-185.11 -298.44)"/><path class="cls-3" d="M293.93,358.62s77.51,65.84,80.29,67.08,4.64.62,7.73-2.16,25-23.19,26.9-24.73.92-3.1-2.17-5.88-79.75-63.37-81.61-65.22-4.94-1.55-9.27,1.54-93.71,64.61-96.94,67.08-32.59,30.3-33.51,32.15.92,4.33,4.32,2.48S293.93,358.62,293.93,358.62Z" transform="translate(-185.11 -298.44)"/><path class="cls-4" d="M245.09,483c-9.31.79-16-7.28-16.24-7.63a2.57,2.57,0,0,1,4-3.24c.06.08,5.25,6.31,11.81,5.75,6.41-.56,9.61-7.34,9.64-7.4a2.57,2.57,0,0,1,4.68,2.12C258.79,473,254.54,482.19,245.09,483Z" transform="translate(-185.11 -298.44)"/><path class="cls-4" d="M281.29,490.48A12,12,0,0,1,271,484.82a2.57,2.57,0,0,1,4.48-2.52,6.82,6.82,0,0,0,5.77,3c3.68,0,5.12-3.66,5.18-3.82a2.57,2.57,0,0,1,4.82,1.77C291.19,483.58,288.6,490.48,281.29,490.48Z" transform="translate(-185.11 -298.44)"/><path class="cls-4" d="M316.31,482c-10.46-1.16-14.42-10.88-14.58-11.29a2.57,2.57,0,0,1,4.78-1.9c.12.32,3,7.27,10.36,8.08,7.15.79,11.05-6.35,11.21-6.66a2.57,2.57,0,0,1,4.55,2.39C332.4,473.09,327,483.22,316.31,482Z" transform="translate(-185.11 -298.44)"/><path class="cls-5" d="M215.32,483.44c-5.93,1.2-13.23,6.21-11.53,18.09s16,14.42,22.31,10.5,10.06-10.69,7-19.29C230.2,484.51,222.39,482,215.32,483.44Z" transform="translate(-185.11 -298.44)"/><path class="cls-5" d="M343.37,478.38c-6.1,1.24-13.61,6.39-11.86,18.64s16.47,14.86,22.95,10.82,10.35-11,7.22-19.87C358.68,479.48,350.64,476.91,343.37,478.38Z" transform="translate(-185.11 -298.44)"/><path class="cls-6" d="M253,307.39c-.21-4.7-3.5-9.2-8.78-8.94a9.6,9.6,0,0,0-8.41,6.49c-.94,2.59-.64,7.42-.64,7.42s-5.48-.39-7.3,4.07c-3.53,8.67,6.36,16.74,12.75,20.26a1.19,1.19,0,0,0,1.37-1.92c-3.59-3.48-6.84-6.82-9-11.53-2.37-5.92,1.66-6.88,6.15-4.32a1.37,1.37,0,0,0,2-1.37c-.3-4.45-.86-11.92,3.85-13.09,5.41-.54,4.59,7.49,4.13,11.7a1.16,1.16,0,0,0,.65,1.24C252.45,318.58,253.23,309.1,253,307.39Z" transform="translate(-185.11 -298.44)"/></svg>