<svg xmlns="http://www.w3.org/2000/svg" viewBox="0 0 241.63 328.49"><defs><style>.cls-2{fill:#a4a8bf}.cls-6{fill:#3e50b8}</style></defs><g id="Layer_1" data-name="Layer 1"><path d="M714.47 541.42v220.47h190a5.11 5.11 0 0 0 5.11-5.11V475.43l-11-11z" transform="translate(-669.25 -433.4)" fill="#babcd1"/><path class="cls-2" d="M673.42 520.64V730.3a9.58 9.58 0 0 0 4.4 8.06l36.65 23.53V541.42s-40.29-20.02-41.05-20.78z" transform="translate(-669.25 -433.4)"/><path d="m670.07 522.88 35.17 24.53a9.59 9.59 0 0 0 9.09 1.28l194.15-73.26a3.7 3.7 0 0 0 1.16-6.23l-30.74-27.42a7.71 7.71 0 0 0-7.91-1.44l-197.88 75.18c-2.56.99-5.25 5.71-3.04 7.36z" transform="translate(-669.25 -433.4)" fill="#596fe9"/><path d="M896.13 467 875 447.63a2.2 2.2 0 0 0-2.26-.44l-85.57 31.94a2.22 2.22 0 0 0-.76 3.67l21.86 21a2.22 2.22 0 0 0 1.53.61 2.05 2.05 0 0 0 .81-.16l84.85-33.56a2.21 2.21 0 0 0 .68-3.68zM886 461.8l-7.34 2.84-5.64-5.14 7.36-2.85zm-67.71 18.88 8-3.1 5.64 5.14-8 3.1zm2.51 6.35-7.87 3-5.63-5.14 7.87-3zm8.62-10.66 7.89-3.05 5.64 5.14-7.89 3.05zm11-4.26 7.81-3 5.64 5.14-7.81 3zm10.93-4.23 8-3.1 5.64 5.14-8 3.1zm11.13-4.31 7.41-2.86 5.63 5.14-7.4 2.86zm10.8-13.4 4.61 4.22-7.35 2.85-4.67-4.24zm-10.6 4 4.73 4.32-7.41 2.82-4.81-4.39zm-10.65 4 4.85 4.42-8 3.1-4.94-4.5zm-11.25 4.2 5 4.53-7.8 3-5-4.61zm-11 4.12 5.08 4.64-7.86 2.98-5.17-4.71zm-11.13 4.16 5.2 4.74-8 3.1-5.28-4.82zm-11.25 4.2 5.32 4.85-7.87 3-5.4-4.92zm-18 6.72 6.9-2.57 5.43 4.95-7 2.72zm7.7 7.39 7.11-2.75 5.64 5.14-7.3 2.83zm12.9 12.28-5-4.84 7.39-2.86 5.17 4.72zm5.47-8.91 7.87-3 5.1 4.65-7.84 3.02zm16.08.38-5.08-4.63 8-3.1 5 4.59zm11.06-4.37-5-4.57 7.88-3 5 4.52zm10.91-4.34-4.94-4.5 7.8-3 4.89 4.45zm10.85-4.29-4.86-4.44 8-3.1 4.81 4.39zm11.06-4.38-4.8-4.37 7.41-2.86 4.75 4.32zm10.46-4.14-4.72-4.3 7.33-2.84 4.67 4.27z" transform="translate(-669.25 -433.4)" fill="#323c95"/><path d="m716.11 443.63-.27 28.84 4-2.56.25-26.63 19 14.36 3.6-2.29-20.52-15.48a6.35 6.35 0 0 0-1.49-4.76c-2.22-3-7-1.85-8.49 1.6a4.64 4.64 0 0 0 .47 4.45 5.67 5.67 0 0 0 3.45 2.47zm21.09 51.08V509c0 2.09.9 4.8 4.47 2.71s5.91-3.7 5.91-3.7l.12-17.73z" transform="translate(-669.25 -433.4)" style="fill:#444ea5"/><path class="cls-2" d="M691.46 485.61a2.77 2.77 0 0 0-.43 4.29c4.49 4.46 15.72 13.11 34.49 12 25.16-1.44 39.12-19.95 40.9-34.2 1.28-10.28-2.52-19.7-4.73-24.15a2.76 2.76 0 0 0-4-1.07z" transform="translate(-669.25 -433.4)"/><rect class="cls-6" x="99.87" y="145.66" width="25.58" height="71.71" rx="3.9"/><rect class="cls-6" x="176.19" y="145.66" width="25.58" height="71.71" rx="3.9"/><path class="cls-6" d="M834.6 661.57h-29.06a3.5 3.5 0 0 1 0-7h29.06a3.5 3.5 0 0 1 0 7z" transform="translate(-669.25 -433.4)"/></g></svg>