<svg xmlns="http://www.w3.org/2000/svg" viewBox="0 0 342.05 208.57"><defs><style>.cls-2{fill:#e7e0e9}.cls-3{fill:#608dcf}</style></defs><g id="Layer_1" data-name="Layer 1"><path d="M955 603.37s.3 66 .09 69.16-1.09 5.24-5.16 8.31c-2.9 2.19-27 18.24-27 18.24v-77.25z" transform="translate(-618.95 -492.74)" fill="#cfc9d1"/><path class="cls-2" d="M925.14 627.64s.42 56.65 0 63.08.21 10.59-12 10.59L632 701.1c-4.56 0-7.47 0-7.88-6.23s0-49.38 0-49.38l182.16-81.34z" transform="translate(-618.95 -492.74)"/><path class="cls-3" d="M804.78 569.91s107.11 58.8 112.81 61.77 7.28.58 11.5-2.65 26.28-21.08 29.51-23.8 3.72-7.19-1.74-10.67-106.62-56.78-109.35-58.27-8.43-2.72-15.38 0S700 589.36 689.56 593.82s-32.71 16-36.76 19.09c-8.41 6.43-27.93 25.43-31 28.55-4.52 4.55-3.55 10.85 2.4 8.29s180.58-79.84 180.58-79.84z" transform="translate(-618.95 -492.74)"/><path class="cls-3" d="M733.89 643.86c-4.93 0-9.28 6.86-5.08 11.89a6.8 6.8 0 0 0 12-2.09c1.42-5.36-1.54-9.8-6.92-9.8zM815 658.28c4.83-1 7.67-8.61 2.53-12.67a6.79 6.79 0 0 0-11.27 4.49c-.35 5.55 3.47 9.29 8.74 8.18z" transform="translate(-618.95 -492.74)"/><path d="M835 673.63c6.24.54 12.31-5.57 7.42-10.86s-13.35-3.52-15.3.68c-2.29 4.99 1.09 9.55 7.88 10.18zm-118.71 2.16c-6.24.54-12.31-5.57-7.42-10.86s13.35-3.53 15.3.68c2.31 4.99-1.07 9.59-7.88 10.18z" transform="translate(-618.95 -492.74)" style="fill:#ffbab5"/><path class="cls-3" d="m783.94 665.36-5.38-5.24 3.27-3.09a2.5 2.5 0 0 0-3.43-3.64l-3.4 3.24-4.36-4.25a2.5 2.5 0 1 0-3.49 3.58l4.22 4.11-5.58 5.27a2.5 2.5 0 0 0 3.41 3.66l5.72-5.41 5.53 5.39a2.5 2.5 0 1 0 3.49-3.59z" transform="translate(-618.95 -492.74)"/><path class="cls-2" d="M894 587.4c.05-3 .31-70.36.31-74.42s-1-20.24-15.74-20.24c-11.87 0-15.23 10.32-15.23 15.43v65.7c0 2.4-.46 5.11 3.45 7.51s19.32 9.24 21.43 10.29c3.34 1.63 5.78.89 5.78-4.27zm-184.57 3.79c0-3-.3-70.35-.3-74.41s1-20.25 15.73-20.25c11.88 0 15.24 10.32 15.24 15.44v65.69c0 2.41.45 5.12-3.46 7.52s-19.31 9.24-21.43 10.28c-3.29 1.63-5.7.9-5.78-4.27z" transform="translate(-618.95 -492.74)"/></g></svg>