<svg id="Layer_1" data-name="Layer 1" xmlns="http://www.w3.org/2000/svg" xmlns:xlink="http://www.w3.org/1999/xlink" viewBox="0 0 243.51 225.45"><defs><style>.cls-1{fill:none;}.cls-2{fill:#efd776;}.cls-3{fill:#f6e291;}.cls-4{fill:#e28068;}.cls-5{fill:#d69a79;}.cls-6{fill:#aa7143;}.cls-7{fill:#f9ccc4;}.cls-8{clip-path:url(#clip-path);}.cls-9{fill:#f49f91;}.cls-10{fill:#f6b2a4;}</style><clipPath id="clip-path" transform="translate(-175.86 -307.88)"><path class="cls-1" d="M305,454.18c-1.87,4.5,4.55,15.95,11.92,16.16,5.69.16,14.95-12.44,11.95-17.75C324.34,444.68,308.51,445.57,305,454.18Z"/></clipPath></defs><path class="cls-2" d="M183.85,496.12c.16,5.38,1.12,5.71,3.68,8.91,4.25,5.3,22.05,22.76,33.18,27.34l-.13-137-37.51-28.78S183.75,492.89,183.85,496.12Z" transform="translate(-175.86 -307.88)"/><path class="cls-3" d="M216.25,392.66s0,133.91.9,136.4,2.39,3.61,8.67,4.16,181.06-1.11,183.45-2.22,4.19-3,3.89-6.93.13-117.85.13-117.85L316.61,339.7Z" transform="translate(-175.86 -307.88)"/><path class="cls-4" d="M308.61,478s3.66,7.13,9,7.13,8.71-7.52,8.71-7.52,4.55,1,8.21-4.65c2.87-4.46,5.94-22-4.35-29.49s-26.12-3.35-30.87,4.16c-5.25,8.29-5.44,19.59.4,27.6C302.86,479.58,308.61,478,308.61,478Z" transform="translate(-175.86 -307.88)"/><ellipse class="cls-5" cx="242.48" cy="463.11" rx="3.21" ry="3.32" transform="translate(-436.81 296.02) rotate(-77.99)"/><ellipse class="cls-5" cx="256.44" cy="461.99" rx="3.4" ry="3.11" transform="translate(-445.45 203.99) rotate(-66.38)"/><ellipse class="cls-5" cx="248.13" cy="452.02" rx="3.12" ry="3.43" transform="translate(-303.14 -209.36) rotate(-17.96)"/><ellipse class="cls-5" cx="376.51" cy="463.82" rx="3.21" ry="3.32" transform="translate(-331.37 427.68) rotate(-77.99)"/><ellipse class="cls-5" cx="390.47" cy="462.7" rx="3.4" ry="3.11" transform="translate(-365.77 327.23) rotate(-66.38)"/><ellipse class="cls-5" cx="382.16" cy="452.74" rx="3.12" ry="3.43" transform="translate(-296.83 -168.01) rotate(-17.96)"/><path class="cls-6" d="M368.63,450.73a3.3,3.3,0,0,1-3.12-2.2c-.05-.13-2.86-7.58-9.44-8.66-5.44-.89-11.07,4.88-12.77,7.19a3.33,3.33,0,0,1-5.36-3.94c.35-.47,8.61-11.55,19.21-9.81s14.45,12.53,14.62,13a3.33,3.33,0,0,1-2,4.24A3.28,3.28,0,0,1,368.63,450.73Z" transform="translate(-175.86 -307.88)"/><path class="cls-6" d="M263.71,450.16a3.13,3.13,0,0,1-1.16-.21,3.32,3.32,0,0,1-2-4.27c.19-.5,4.68-12.14,17.53-12.55,11.23-.34,16.36,10.92,16.57,11.4a3.32,3.32,0,0,1-6.07,2.71c-.14-.32-3.46-7.47-10-7.47h-.28c-8.44.26-11.48,8.14-11.51,8.22A3.32,3.32,0,0,1,263.71,450.16Z" transform="translate(-175.86 -307.88)"/><path class="cls-7" d="M305,454.18c-1.87,4.5,4.55,15.95,11.92,16.16,5.69.16,14.95-12.44,11.95-17.75C324.34,444.68,308.51,445.57,305,454.18Z" transform="translate(-175.86 -307.88)"/><g class="cls-8"><path class="cls-9" d="M300.2,466.64s2.28-9.79,15.63-12.46,20.29,5,20.29,5L325,470.6l-13.95,2.87Z" transform="translate(-175.86 -307.88)"/></g><path class="cls-10" d="M313.16,349a4.48,4.48,0,0,1,4.3-.1c13.15,8.36,92.74,62.43,97.79,63.71,3.56.91,5.23-3.08,3.32-5.5s-36.09-34.35-39.64-37-94.29-59.67-96.86-61.2c-2.25-1.33-5.43-1.34-8.78.42-3.89,2-94,50.36-95.54,51.87-2.38,2.39-2.5,4.31-.42,6.41s29.84,28.53,31.68,30.18c3.45,3.09,6,4,9.59,2.75C222.94,399,307.44,351.71,313.16,349Z" transform="translate(-175.86 -307.88)"/></svg>