<svg id="Layer_1" data-name="Layer 1" xmlns="http://www.w3.org/2000/svg" viewBox="0 0 366.35 288.13"><defs><style>.cls-1{fill:#a8cbeb;}.cls-2{fill:#c3dff6;}.cls-3{fill:#628dc9;}.cls-4{fill:#d0dbeb;}.cls-5{fill:#9fc7eb;}.cls-6{fill:#406cab;}.cls-7{fill:#b3d59f;}.cls-8{fill:#fff;}.cls-9{fill:#71c1a9;}.cls-10{fill:#bce1e8;}</style></defs><path class="cls-1" d="M471.88,352.75s-.53,109.5-.53,115.18-35,45.72-45,50.43a30.09,30.09,0,0,1-10.13,2.76l5.1-23.08V389.92Z" transform="translate(-114.85 -275.22)"/><path class="cls-2" d="M426.42,402s1.37,98.84,0,105.36-1.08,12.49-11.87,13.34-242,0-250.57,0S144.4,519.61,144.4,504s-1.7-111.24-1.7-111.24l134.51-59.59Z" transform="translate(-114.85 -275.22)"/><path class="cls-3" d="M273,343.17a10,10,0,0,1,8.22,0c22.95,10.27,134.53,60.15,140.33,62.61,6.46,2.74,9.2,3.91,14.87-1s39.54-44.82,42.48-49.33,4.31-14.29-3.13-18-139.76-62-147.2-62.23c-4.8-.13-133.83,59.14-149.94,65.75-3,1.22-46.39,48.74-46.39,54s2,8.62,8.61,6.66C146.75,399.9,250.84,353.11,273,343.17Z" transform="translate(-114.85 -275.22)"/><path class="cls-4" d="M352.32,323.84c-3.12,6.06,14,19.51,14,19.51s-9.45,14.32-3,18.28,22.25-3.35,22.25-3.35,15.16,15.65,21.63,13.41c7.29-2.52,2.44-23.16,2.44-23.16s17.63-3.16,16.23-11.33c-.76-4.45-24.76-10-24.76-10s-4.66-12.3-10.67-13.4c-5.41-1-12.19,9.14-12.19,9.14S355.42,317.83,352.32,323.84Z" transform="translate(-114.85 -275.22)"/><path class="cls-4" d="M200.57,346.44A44.59,44.59,0,0,0,183.87,359L168,378.22a6.64,6.64,0,0,0,.9-.29c3.57-1.4,76.87-34.94,83.23-37.89s9.17-4.5,10.25-7.14,5.34-13.6,5.89-15.5l0-.14Z" transform="translate(-114.85 -275.22)"/><path class="cls-5" d="M200.57,347.44l67.72-30.18c.59-2.49-2.39-3.75-4.83-2.37s-59.16,26.55-66,29.5a39.79,39.79,0,0,0-11.8,7.3C184,353.24,166.87,372.5,165.32,375c-1.42,2.26-.25,4,2.67,3.24L183.87,360A44.59,44.59,0,0,1,200.57,347.44Z" transform="translate(-114.85 -275.22)"/><path class="cls-6" d="M208.78,456.38a4.5,4.5,0,0,1-3.94-6.67c3.53-6.4,12.63-21.28,20.94-21.31h0c7.95,0,18.35,13.79,22.45,19.72a4.5,4.5,0,1,1-7.39,5.12c-5.41-7.8-12.49-15.24-15-15.82-2.46.71-8.65,8.54-13.11,16.63A4.48,4.48,0,0,1,208.78,456.38Zm17.16-19" transform="translate(-114.85 -275.22)"/><path class="cls-6" d="M337.27,456.85a4.5,4.5,0,0,1-3.91-2.26c-4.52-7.85-10.71-15.47-13.14-16.21-2.28.51-8.86,6.94-14.51,15.1a4.5,4.5,0,1,1-7.4-5.12c3.81-5.51,13.51-18.37,21.35-19s16.9,12.72,21.5,20.72a4.51,4.51,0,0,1-1.65,6.15A4.56,4.56,0,0,1,337.27,456.85Zm-17.17-18.5Z" transform="translate(-114.85 -275.22)"/><path class="cls-6" d="M283.73,465.82H261.51a4.5,4.5,0,0,1,0-9h22.22a4.5,4.5,0,0,1,0,9Z" transform="translate(-114.85 -275.22)"/><path class="cls-6" d="M356.74,459.44a4.5,4.5,0,0,1-.08-9l18-.33h.09a4.5,4.5,0,0,1,.08,9l-18,.34Z" transform="translate(-114.85 -275.22)"/><path class="cls-6" d="M377.53,474.57H356.74a4.5,4.5,0,0,1,0-9h20.79a4.5,4.5,0,0,1,0,9Z" transform="translate(-114.85 -275.22)"/><path class="cls-6" d="M173,468.92a4.5,4.5,0,0,1-.35-9l18.63-1.5a4.5,4.5,0,0,1,.72,9l-18.63,1.5Z" transform="translate(-114.85 -275.22)"/><path class="cls-6" d="M174,484.22a4.5,4.5,0,0,1-.23-9l22-1.16a4.5,4.5,0,0,1,.48,9l-22,1.16Z" transform="translate(-114.85 -275.22)"/><path class="cls-3" d="M464.62,444.32a36.18,36.18,0,0,1-5.25-4.48,42.21,42.21,0,0,1-4.64-5.6c.57-.74,1.15-1.52,1.75-2.39,3.22-4.7,4.74-12,4.8-12.26a1.48,1.48,0,0,0-1.17-1.77,1.5,1.5,0,0,0-1.77,1.16c0,.07-1.46,7-4.34,11.17-.35.53-.71,1-1.06,1.49-.72-1.1-1.17-1.84-1.18-1.86l-.09-.13c-.11-7.71-.21-14.56-.22-15.19A1.5,1.5,0,0,0,450,413h0a1.51,1.51,0,0,0-1.48,1.53c0,.35.5,34.92.51,37.74,0,3.71-1.5,4.88-2.83,5.92a1.5,1.5,0,0,0-.26,2.1,1.48,1.48,0,0,0,1.18.58,1.5,1.5,0,0,0,.92-.31c1.5-1.17,4-3.12,4-8.3,0-1.29-.11-8.94-.22-17a49.28,49.28,0,0,0,5.54,6.77,37,37,0,0,0,5.83,4.92,1.59,1.59,0,0,0,.75.2,1.51,1.51,0,0,0,.76-2.8Z" transform="translate(-114.85 -275.22)"/><path class="cls-3" d="M446.24,431.72a1.49,1.49,0,0,0-1.1-1.39,1.51,1.51,0,0,0-1.66.63,34.51,34.51,0,0,1-7.35,7.46,1.5,1.5,0,0,0,1.77,2.42,41.58,41.58,0,0,0,5.32-4.75c-.13,3.4-.55,8.07-1.84,11.1a138.93,138.93,0,0,1-7.95,14.63,1.5,1.5,0,0,0,.47,2.07,1.56,1.56,0,0,0,.8.22,1.49,1.49,0,0,0,1.27-.7,136.29,136.29,0,0,0,8.17-15.05C446.61,442.54,446.26,432.16,446.24,431.72Z" transform="translate(-114.85 -275.22)"/><path class="cls-7" d="M333.91,503.37s-3.54-4.1-7.17-2.92-1.9,23.12-1.9,23.12c2.19,2.19,10.82-9.4,15-9.86,5.64-.63,5.29,13.1,2.17,18.34-4,6.79-13.9,14.26-18.06,14.63-5.55.48-17.27-4-19.89-13.39-2.74-9.84-4.95-9.83-4.31-12.18.89-3.29,11.64-4.79,18.43,2.62,0,0-5.64-26.68,6.62-30.88,7.13-2.45,14.32,7.58,14.32,7.58Z" transform="translate(-114.85 -275.22)"/><path class="cls-8" d="M341.78,502.16s3.7-.05,3.61,2.84c-.07,1.92-3.08,2.55-3.08,2.55s.26,2-.48,2.55c-1.35,1-3.23-.48-3.23-.48a1.7,1.7,0,0,1-2.11,1.3c-1.34-.18-2.09-3.09-2.09-3.09a5.65,5.65,0,0,1-3.25-4.42,5.15,5.15,0,0,1,6.93-5.68C341,498.66,341.78,502.16,341.78,502.16Z" transform="translate(-114.85 -275.22)"/><path class="cls-8" d="M329.83,507.46s3,1.62,1.61,3.47c-.83,1.14-2.73.3-2.73.3s-.08,1.9-1.54,2.24-2.48-1.65-2.48-1.65a1.82,1.82,0,0,1-2.17.65c-1.09-.52-.57-3.56-.57-3.56A4.74,4.74,0,0,1,320,504.2c.81-4.1,4.71-5.61,7.5-3.42C330.61,503.2,329.83,507.46,329.83,507.46Z" transform="translate(-114.85 -275.22)"/><path class="cls-8" d="M330.42,518.87s3.38-.07,3.12,2.21c-.16,1.41-2.23,1.62-2.23,1.62s.88,1.69-.22,2.71-3-.2-3-.2a1.82,1.82,0,0,1-1.57,1.64c-1.2.09-2.25-2.8-2.25-2.8a4.76,4.76,0,0,1-4-3.13c-1.34-4,1.3-7.21,4.81-6.7C329,514.79,330.42,518.87,330.42,518.87Z" transform="translate(-114.85 -275.22)"/><path class="cls-9" d="M267.83,519c4.15-2.59,10.15.39,14.71,2l-.7-7.68,7.83,1.19.05,6.1c1.89-.94,5.95-3.24,10.09-3.05s9.54,5.52,5.4,13.2C302.37,536,292.7,541,289,542.72a3.48,3.48,0,0,1-3,0c-3.4-1.55-11.89-5.62-16.51-9.37C263.62,528.61,262.65,522.2,267.83,519Z" transform="translate(-114.85 -275.22)"/><path class="cls-10" d="M279.22,491.23a8,8,0,0,1,6.9-4.8c5.46-.54,7.81,4.68,7.81,4.68a9.25,9.25,0,0,1,8.16,0c4.8,2.52,5.88,8.1,4.52,12.8-2.37,8.19-9.65,12.41-19.31,12.66s-15.76-4.82-18.3-9.08-3.66-12.59,2.95-15.9C275.19,490,279.22,491.23,279.22,491.23Z" transform="translate(-114.85 -275.22)"/><path class="cls-9" d="M165.62,504.25c-5.82-1.7-10.07,1.17-15.38,4l-.78-7.05L140.07,504l1,7.47c-2.49-.81-7.87-2.89-12.92-1.92S117.44,518,123.9,526.7c5.52,7.41,24,12.31,24,12.31s13.92-8.61,20.27-15.49S172.38,506.22,165.62,504.25Z" transform="translate(-114.85 -275.22)"/><path class="cls-10" d="M129.63,473.83a10.6,10.6,0,0,1,8.32-7.37c7.1-1.56,11,4.94,11,4.94a12.27,12.27,0,0,1,10.73-1.26c6.7,2.57,9,9.74,7.92,16.12-1.85,11.12-10.77,17.8-23.42,19.62s-21.44-3.9-25.44-9.1-6.76-16,1.42-21.35C124.15,472.8,129.63,473.83,129.63,473.83Z" transform="translate(-114.85 -275.22)"/><path class="cls-9" d="M200.2,525.63c4.87-2,9-.24,14,1.38l-.22-5.73,7.08,1,.46,6.85c2.07-.94,6.51-3.23,11.05-3.05s11.57,5,7,12.66c-3.89,6.58-19.45,12.67-19.45,12.67s-13.28-5.27-19.71-10S194.54,528,200.2,525.63Z" transform="translate(-114.85 -275.22)"/><path class="cls-10" d="M229.18,503.5a8.9,8.9,0,0,0-6.87-6.37c-5.91-1.37-9.23,4.16-9.23,4.16a10,10,0,0,0-9-1.15c-5.62,2.15-7.61,8.27-6.8,13.73,1.42,9.52,8.79,15.29,19.34,16.93s18-3.19,21.36-7.61,5.83-13.62-.94-18.27C233.77,502.65,229.18,503.5,229.18,503.5Z" transform="translate(-114.85 -275.22)"/><path class="cls-7" d="M238.08,509.75s4.1-7.26,8.31-5.9,2.2,29.31,2.2,29.31-5.51-4.28-12.07-4.78-12.2,4.58-11.73,6.56,2.89,1,7.27,6.56c3.05,3.87,5.68,12.1,15.83,13.46s18.52-6.61,21.5-14c2.9-7.2,8.34-6.14,7.6-8.87-1-3.81-12.8-7.33-20.67,1.24,0,0,4.09-33.91-7.67-35.77-8.63-1.36-16.59,8.79-16.59,8.79Z" transform="translate(-114.85 -275.22)"/><path class="cls-8" d="M229,508.35s-4.29-.05-4.18,3.29c.08,2.23,3.57,3,3.57,3s-.3,2.31.55,3c1.56,1.17,3.74-.56,3.74-.56a2,2,0,0,0,2.45,1.5c1.55-.2,2.42-3.58,2.42-3.58a6.53,6.53,0,0,0,3.76-5.11c.53-5-3.67-8-8-6.58C229.9,504.3,229,508.35,229,508.35Z" transform="translate(-114.85 -275.22)"/><path class="cls-8" d="M243.74,513.7s-2.67,2.87-.5,4.4c1.33.95,3.12-.67,3.12-.67s.78,2.07,2.5,1.9,2.12-2.71,2.12-2.71a2.12,2.12,0,0,0,2.63-.09c1-1-.68-4.11-.68-4.11a5.53,5.53,0,0,0,.41-5.89c-2.4-4.21-7.23-4.44-9.5-1C241.33,509.3,243.74,513.7,243.74,513.7Z" transform="translate(-114.85 -275.22)"/><path class="cls-8" d="M242.13,527.71s-3.91-.08-3.61,2.56c.18,1.63,2.58,1.88,2.58,1.88s-1,2,.26,3.13,3.43-.23,3.43-.23a2.12,2.12,0,0,0,1.82,1.9c1.39.11,2.61-3.25,2.61-3.25a5.5,5.5,0,0,0,4.66-3.62c1.54-4.59-1.51-8.35-5.58-7.76C243.81,523,242.13,527.71,242.13,527.71Z" transform="translate(-114.85 -275.22)"/><path class="cls-7" d="M392.48,498.67s6.06-7,10.22-4.55-4.54,32.52-4.54,32.52-4.86-5.94-11.72-8-14.06,2.22-14,4.49,2.85,1.77,6.2,8.83c2.34,4.92,3.21,14.51,13.69,18.32s21.27-3,26.17-10.38c4.78-7.21,10.33-4.81,10.17-7.95-.21-4.4-11.9-10.94-22.29-3.37,0,0,12.31-36.12.23-40.83-8.87-3.46-19.72,5.81-19.72,5.81Z" transform="translate(-114.85 -275.22)"/><path class="cls-8" d="M383.1,495.06s-4.55-1-5.22,2.63c-.44,2.46,3.11,4.05,3.11,4.05s-.86,2.45-.1,3.35c1.38,1.63,4.1.24,4.1.24a2.17,2.17,0,0,0,2.26,2.21c1.69.13,3.42-3.36,3.42-3.36a7.26,7.26,0,0,0,5.2-4.73c1.74-5.37-2-9.54-7-9C385,490.85,383.1,495.06,383.1,495.06Z" transform="translate(-114.85 -275.22)"/><path class="cls-8" d="M397.56,504.28S394.05,506.8,396,509c1.2,1.34,3.48,0,3.48,0s.34,2.43,2.22,2.65,2.89-2.48,2.89-2.48a2.25,2.25,0,0,0,2.82.5c1.3-.82.24-4.64.24-4.64a6.29,6.29,0,0,0,1.81-6.34c-1.55-5.15-6.65-6.51-9.87-3.28C396,498.92,397.56,504.28,397.56,504.28Z" transform="translate(-114.85 -275.22)"/><path class="cls-8" d="M392.57,519.21s-4.15-1-4.45,2c-.18,1.82,2.31,2.64,2.31,2.64s-1.54,1.91-.46,3.49,3.71.53,3.71.53a2.34,2.34,0,0,0,1.49,2.49c1.45.44,3.54-3,3.54-3a6,6,0,0,0,5.8-2.89c2.73-4.66.36-9.47-4.11-9.75C395.47,514.43,392.57,519.21,392.57,519.21Z" transform="translate(-114.85 -275.22)"/><path class="cls-7" d="M149.86,537.3c4.57.74,8.74,6.53,16.51,6.24,0,0-3.74-33.78,5-39.54s17.37,1.34,17.37,1.34l-3.07,3.94s-7.2-3.84-10.46-.29-3.74,27.06-1.54,33.2c0,0,8.45.1,13.25-3.93s8.35-6.24,10.46-4.51,1.15,16.22-10.17,25.14-24.48,3-31.48-4.89a32.29,32.29,0,0,1-6.23-10.25C148.5,541.08,147.05,536.85,149.86,537.3Z" transform="translate(-114.85 -275.22)"/><path class="cls-8" d="M186.43,514.93s.36,4.75,4,4.3c2.46-.31,2.91-4.24,2.91-4.24s2.59.1,3.21-.92c1.14-1.84-1-4.07-1-4.07a2.2,2.2,0,0,0,1.42-2.86c-.38-1.69-4.2-2.32-4.2-2.32a7.27,7.27,0,0,0-6-3.65c-5.62-.08-8.45,4.86-6.47,9.53C181.85,514.31,186.43,514.93,186.43,514.93Z" transform="translate(-114.85 -275.22)"/><path class="cls-8" d="M181.55,534.64s3.92-.15,3.66,2.49c-.15,1.63-2.54,1.93-2.54,1.93s1.05,1.94-.2,3.14S179,542,179,542a2.12,2.12,0,0,1-1.78,1.93c-1.39.13-2.67-3.2-2.67-3.2a5.49,5.49,0,0,1-4.72-3.54c-1.63-4.56,2.37-8.16,6.45-7.64C180.81,530.15,181.55,534.64,181.55,534.64Z" transform="translate(-114.85 -275.22)"/><path class="cls-8" d="M181.09,517.72s3.78-1,4.12,1.62c.21,1.63-2.05,2.44-2.05,2.44s1.45,1.66.5,3.11-3.4.6-3.4.6a2.09,2.09,0,0,1-1.3,2.27c-1.33.44-3.32-2.52-3.32-2.52a5.49,5.49,0,0,1-5.38-2.41c-2.6-4.08-.54-8.46,3.56-8.86C178.33,513.53,181.09,517.72,181.09,517.72Z" transform="translate(-114.85 -275.22)"/><path class="cls-9" d="M379.08,523.48c-4.44-1.9-8.16-.23-12.72,1.28l.19-5.34-7.82,1.11-.06,5.68c-1.89-.88-5.94-3-10.08-2.84s-9.55,5.14-5.41,12.29c2.76,4.77,12.5,10.64,16.67,13a3.63,3.63,0,0,0,3.76-.11c3.43-2.22,10.88-7.1,15.29-10.43C384.77,533.69,384.25,525.69,379.08,523.48Z" transform="translate(-114.85 -275.22)"/><path class="cls-10" d="M369,494.18a8.19,8.19,0,0,0-7.59-4.13c-5.49.22-7,6.15-7,6.15a8.67,8.67,0,0,0-8.08,1.19c-4.35,3.39-4.54,9.53-2.46,14.35,3.64,8.42,11.51,11.88,21.1,10.74S379.8,515,381.64,510.1s1.64-14-5.42-16.59C372.76,492.25,369,494.18,369,494.18Z" transform="translate(-114.85 -275.22)"/></svg>