<svg id="Layer_1" data-name="Layer 1" xmlns="http://www.w3.org/2000/svg" viewBox="0 0 231.63 215.19"><defs><style>.cls-1{fill:#7360a7;}.cls-2{fill:#8974b3;}.cls-3{fill:#365ea9;}.cls-4{fill:#e7cce4;}.cls-5{fill:#5b4595;}.cls-6{fill:#85c6a3;}.cls-7{fill:#ef8c7a;}</style></defs><path class="cls-1" d="M408.18,382.43s.61,102.52.41,104.35a17.71,17.71,0,0,1-3.46,7.87c-2,2.5-21.94,24.12-25.82,23.89l-1-112.11Z" transform="translate(-184.31 -313.25)"/><path class="cls-2" d="M201.07,401.35s-.16,106.18.24,109.23,1,9.56,8.34,10.17,162.12-.2,166.59-1.22,6.72-2.64,6.92-8.14-.41-106.18-.41-106.18l-90.31-62.85Z" transform="translate(-184.31 -313.25)"/><path class="cls-3" d="M289.58,352.18a5.69,5.69,0,0,1,6.4.18l78.69,57c5.09,3.66,6.91,5,14-1.51,6.9-6.3,23.95-22.8,26-25s1.6-3.92-1.45-6.69c-4.22-3.84-85.57-61.71-85.57-61.71-3.09-2-5.46-1.26-8.22.56-3.85,2.53-82.71,49.41-86.81,52.18s-34.34,31.35-35.8,33.15-.68,7.53,5.11,5.35C207.52,403.59,276.48,360.54,289.58,352.18Z" transform="translate(-184.31 -313.25)"/><path class="cls-4" d="M223.15,468.18c-8.93-.72-18.38,6.71-14.88,18.38s23.59,12.21,26.46-1.39C236.78,475.45,232.49,468.93,223.15,468.18Z" transform="translate(-184.31 -313.25)"/><path class="cls-4" d="M360.11,467.49c-8.93-.72-18.39,6.71-14.89,18.38s23.59,12.21,26.46-1.39C373.73,474.76,369.44,468.24,360.11,467.49Z" transform="translate(-184.31 -313.25)"/><path class="cls-5" d="M250.17,474.66a16.21,16.21,0,0,1-2.07-.13c-11.55-1.45-16.33-12.14-16.53-12.6a3.5,3.5,0,0,1,6.42-2.8c.15.34,3.46,7.51,11,8.45s14.11-7.45,14.17-7.54a3.5,3.5,0,1,1,5.58,4.24C268.37,464.72,260.7,474.66,250.17,474.66Z" transform="translate(-184.31 -313.25)"/><path class="cls-5" d="M324.68,473.56h-.07c-12.27,0-17.46-11.48-17.67-12a3.5,3.5,0,0,1,6.4-2.83c.16.36,3.64,7.78,11.29,7.8h0A14.94,14.94,0,0,0,338,458.69a3.5,3.5,0,0,1,6.34,3A21.92,21.92,0,0,1,324.68,473.56Z" transform="translate(-184.31 -313.25)"/><path class="cls-5" d="M276.59,482.52a3.5,3.5,0,0,1-2.47-6c3.39-3.39,9.62-9.19,13.27-9.92,1.27-.26,3.89-.78,16.19,9a3.5,3.5,0,0,1-4.34,5.49c-3.9-3.08-8.91-6.58-10.87-7.41-1.65.86-5.77,4.29-9.3,7.83A3.51,3.51,0,0,1,276.59,482.52Z" transform="translate(-184.31 -313.25)"/><path class="cls-6" d="M203.94,515.24s8.12-14.13,16.42-12.89,4.42,12-5.83,19.07c-4.12,2.85-6.88,4.69-8.69,5.88a7,7,0,0,1-6.94.42c-5-2.44-13.4-7.29-14.39-12.48-1.41-7.42,4.94-10.6,13.42-4.24l.18-5.47h5.83Z" transform="translate(-184.31 -313.25)"/><path class="cls-7" d="M199.17,485.21s-7.42-5.47-12-.7c-8.16,8.47,6.79,24,13.9,24.72,8.3.89,22.13-23.31,13.65-29.67S199.17,485.21,199.17,485.21Z" transform="translate(-184.31 -313.25)"/></svg>