<svg xmlns="http://www.w3.org/2000/svg" viewBox="0 0 222.41 231.24"><defs><style>.cls-1{fill:#97d474;}.cls-2{fill:#b7ea9a;}.cls-3{fill:#fff;}.cls-4{fill:#9cd47c;}.cls-5{fill:#78b654;}.cls-6{fill:#feeb97;}</style></defs><g id="Layer_1" data-name="Layer 1"><path class="cls-1" d="M890.84,588.24v89.61c0,4.2.78,7.53-3.14,11.25s-22.59,22.82-22.59,22.82V604.3Z" transform="translate(-677.77 -481.78)"/><path class="cls-2" d="M685.59,604.89S685,683,685,693s1.37,20,14.89,20,153.15,0,159.62,0c4.1,0,8.5.58,8.41-11.56-.12-17.43,0-91.66,0-91.66L763.54,544Z" transform="translate(-677.77 -481.78)"/><path class="cls-3" d="M787.32,652.09a36.65,36.65,0,0,1-6.47,2.85,35.85,35.85,0,0,1-9.44,1.89,102.55,102.55,0,0,0,1.43,13,46.07,46.07,0,0,0,6.17,14.9,47.51,47.51,0,0,0,7.68-.79,27.09,27.09,0,0,0,7.83-2.71,51.51,51.51,0,0,1-6.24-17.07A104.55,104.55,0,0,1,787.32,652.09Z" transform="translate(-677.77 -481.78)"/><path class="cls-3" d="M765.4,656.89a21.54,21.54,0,0,0-6.54.59c-7.63,2.24-10,7.39-8.53,11.82,3.1,9.5,12.11,13.85,21.54,15.09A47.93,47.93,0,0,1,766.94,671,109.31,109.31,0,0,1,765.4,656.89Z" transform="translate(-677.77 -481.78)"/><path class="cls-3" d="M805.24,671.4c10.33-14.82.3-28.43-7-26.34a14.12,14.12,0,0,0-4.94,2.82,111,111,0,0,0,.94,15.43,45.24,45.24,0,0,0,5.28,14.54A34.21,34.21,0,0,0,805.24,671.4Z" transform="translate(-677.77 -481.78)"/><path class="cls-4" d="M793.27,647.88a45.75,45.75,0,0,1-5.95,4.21,104.55,104.55,0,0,0,1,12.11,51.51,51.51,0,0,0,6.24,17.07,27.06,27.06,0,0,0,5-3.42,45.24,45.24,0,0,1-5.28-14.54A111,111,0,0,1,793.27,647.88Z" transform="translate(-677.77 -481.78)"/><path class="cls-4" d="M771.41,656.83c-2.22.15-4.2.09-6,.06A109.31,109.31,0,0,0,766.94,671a47.93,47.93,0,0,0,4.93,13.41,47.68,47.68,0,0,0,7.14.38,46.07,46.07,0,0,1-6.17-14.9A102.55,102.55,0,0,1,771.41,656.83Z" transform="translate(-677.77 -481.78)"/><path class="cls-5" d="M836.64,614.6a4.51,4.51,0,0,0-5.93-2.32l-23.28,10.21a2.34,2.34,0,0,0-.27.15,4.76,4.76,0,0,0-.49.28l-.06,0a8.41,8.41,0,0,0-3.53,5.72c-1.53,7.26,3.28,13.59,10.87,14.08,7.86.51,11.28-6.84,10.93-11.65a10.5,10.5,0,0,0-1.76-5.67l11.2-4.91A4.5,4.5,0,0,0,836.64,614.6Z" transform="translate(-677.77 -481.78)"/><path class="cls-5" d="M742.2,623.26a4.53,4.53,0,0,0-1.39-1l-22.24-10.21a4.5,4.5,0,0,0-3.75,8.18l10.68,4.91a10.09,10.09,0,0,0-2,6c-.35,4.81,3.08,12.16,10.94,11.65,7.59-.49,12.39-6.82,10.86-14.08A8.73,8.73,0,0,0,742.2,623.26Z" transform="translate(-677.77 -481.78)"/><path class="cls-5" d="M753.31,662.33a77,77,0,0,1-16.7-2c-3.9-.86-13.53-5.58-13.1-11.64s8.75-6.57,11.49-6.78c16.23-1.25,30.42-8.16,34.51-10.72a3.5,3.5,0,1,1,3.71,5.93c-4.5,2.81-20,10.41-37.68,11.77a20.81,20.81,0,0,0-4.43.72,18.18,18.18,0,0,0,7,3.88c12.83,2.82,23.21,2.32,35.85-1.74,13.35-4.29,18.33-9.46,18.38-9.51A3.5,3.5,0,0,1,797.5,647c-.24.26-6,6.5-21.4,11.44A73,73,0,0,1,753.31,662.33Z" transform="translate(-677.77 -481.78)"/><path class="cls-2" d="M739.42,572.2c1.62-1.26,4-2.75,4-7.2,0-7-1.13-26.72-12.88-42.07s-34.3-27.86-42.45-30.7-9.72,3.76-6.8,10.53c4.16,9.66,3.2,17,11.09,31.88,4.29,8.14,14.09,13.68,20.91,24.1s8.15,17.44,9.1,19.9,3,3,6.06,1.52S736.16,574.73,739.42,572.2Z" transform="translate(-677.77 -481.78)"/><path class="cls-6" d="M763.85,549.65l93.73,62.26c4.28,2.82,9.81,8.35,17.09,1.57s20.36-22.12,23.62-26.39,2.27-8-2.76-11.81-90.63-61.57-94.06-63.83-9-7-18,0-65.94,50.26-71.79,54.28-28.5,29.15-31.75,33.42-2.25,7.39-.59,9.3,6.76,2,14.42-4.64C698.88,599.34,763.85,549.65,763.85,549.65Z" transform="translate(-677.77 -481.78)"/><path class="cls-2" d="M822.41,562.42c-1.62-1.26-4-2.75-4-7.2,0-7,1.14-26.72,12.89-42.07s34.3-27.85,42.44-30.7,9.73,3.76,6.81,10.53c-4.17,9.66-3.21,16.95-11.09,31.88-4.3,8.14-14.1,13.68-20.92,24.1s-8.15,17.44-9.09,19.9-3,3-6.07,1.52S825.68,565,822.41,562.42Z" transform="translate(-677.77 -481.78)"/></g></svg>