<svg id="Layer_1" data-name="Layer 1" xmlns="http://www.w3.org/2000/svg" viewBox="0 0 275.2 272.08"><defs><style>.cls-1{fill:#a0d5d9;}.cls-2{fill:#bce1e8;}.cls-3{fill:#6dc3c2;}.cls-4{fill:#538b88;}.cls-5{fill:#e5f3f6;}.cls-6{fill:#f6bdbe;}.cls-7{fill:#86cccf;}</style></defs><path class="cls-1" d="M174.68,338.7c-4,10.24-4.1,69-4.1,82.53s1.16,48.09,2.23,56.7,2.62,13.6,8.27,18.18,44.1,32,49.49,34.24l-.82-161.63Z" transform="translate(-158.96 -264.23)"/><path class="cls-2" d="M219.45,361.94s-1,82.71,0,107.32.11,41.72,1.46,47.5,10.16,10.94,18.37,11.63,171.22.48,176-.69,6.49-5.46,6.83-13.67-.34-125.09-1.7-133.29-99.82-72.11-99.82-72.11Z" transform="translate(-158.96 -264.23)"/><path class="cls-3" d="M321,321.22a4.36,4.36,0,0,1,4.66.2c14.08,9.77,89,61.68,94.69,64.11,6.26,2.68,17.31-1.15,12.81-8.64s-24.31-19.89-27.7-22.5S287,268.5,282.8,266.08s-9.21-2.62-14.74.32S166.71,328,163.22,330.18c-5.71,3.61-4.75,8.13-2.5,10.72s45.8,35.26,48.74,37.51,5.53,3.63,10.37.86C224.22,376.76,305.84,329.9,321,321.22Z" transform="translate(-158.96 -264.23)"/><path class="cls-4" d="M298.71,415.26c-8.52-5.43-33.44,4.29-34.82,23.77s17,27.22,28.74,18.79S306.72,420.37,298.71,415.26Z" transform="translate(-158.96 -264.23)"/><path class="cls-5" d="M295.81,422.17c-6.81-2.65-16,4.36-17.07,9.34-2.33,11,12.38,12.66,16.64,7.47C299.9,433.47,298.29,423.14,295.81,422.17Z" transform="translate(-158.96 -264.23)"/><path class="cls-5" d="M293.22,447c-3.66-3.1-12.49,1.34-9.51,6.53S298.07,451.06,293.22,447Z" transform="translate(-158.96 -264.23)"/><path class="cls-5" d="M273.51,440.32c-4.87,2-3.3,10.45,2.19,10.06S279.37,437.92,273.51,440.32Z" transform="translate(-158.96 -264.23)"/><path class="cls-4" d="M327.77,461.27h-.2c-4.95-.13-9.47-3.58-13.43-10.24l-.06-.1a3,3,0,0,1,5.16-3.07l.05.1c3.54,6,6.54,7.26,8.44,7.31h0c2.11,0,5.22-3.9,6.67-6.74a3,3,0,0,1,5.35,2.7C339.27,452.27,334.53,461.27,327.77,461.27Z" transform="translate(-158.96 -264.23)"/><path class="cls-6" d="M258.2,454c-2.06-1.5-7.24-1.24-10.11,1.93-2.26,2.5-3.12,7.41.2,10.2s9.1.77,11-1.92S261.38,456.34,258.2,454Z" transform="translate(-158.96 -264.23)"/><path class="cls-4" d="M353.44,416.26c8.52-5.43,33.44,4.29,34.82,23.77s-17,27.22-28.74,18.79S345.42,421.38,353.44,416.26Z" transform="translate(-158.96 -264.23)"/><path class="cls-5" d="M356.34,423.17c6.8-2.64,16,4.36,17.06,9.34,2.33,11-12.37,12.66-16.64,7.47C352.24,434.47,353.85,424.14,356.34,423.17Z" transform="translate(-158.96 -264.23)"/><path class="cls-5" d="M358.92,448c3.67-3.09,12.5,1.34,9.52,6.54S354.08,452.06,358.92,448Z" transform="translate(-158.96 -264.23)"/><path class="cls-5" d="M378.64,441.32c4.86,2,3.29,10.45-2.19,10.06S372.78,438.93,378.64,441.32Z" transform="translate(-158.96 -264.23)"/><path class="cls-6" d="M396.94,452c2.07-1.51,7.25-1.24,10.11,1.93,2.27,2.5,3.13,7.41-.19,10.2s-9.1.77-11-1.92S393.77,454.34,396.94,452Z" transform="translate(-158.96 -264.23)"/><path class="cls-7" d="M221.32,513.84c-2.95,11.44,10.26,20.47,27.1,20.69s134.62,2,148.93,1.76,23.55-4.18,23.88-15.52-22.81-3-20.9-14.64c1.43-8.7,14.31-4.07,13.21-11.34s-22.57-10.68-32.26-5.61S360.92,512,351.67,511.3s-6.05-12.33.66-14,11.89,0,11.89-4-6.49-9.69-17.72-9.14-21.25,7.6-27.08,18.06-18.93,12-19,4.51,11.66-11,11.55-13.65c-.23-5.72-15.52-7.7-26.08-.77s-14.54,18.59-24,18.71c-8.46.11-7.27-10.12.33-12.88,5.07-1.83,8.43-1.08,8.69-4,.44-4.73-8.69-8.36-22-6.05C236.64,490.31,224.36,502.09,221.32,513.84Z" transform="translate(-158.96 -264.23)"/></svg>