<svg id="Layer_1" data-name="Layer 1" xmlns="http://www.w3.org/2000/svg" viewBox="0 0 214.23 210.98"><defs><style>.cls-1{fill:#ddbc8c;}.cls-2{fill:#edcfa1;}.cls-3{fill:#756aae;}.cls-4{fill:#9f8052;}.cls-5{fill:#f0827b;}</style></defs><path class="cls-1" d="M399,389.15s2.56,110.73,1,116.49-20.79,17-25.66,19c-9.64,4,.45-112.14.45-112.14Z" transform="translate(-190.8 -314.29)"/><path class="cls-2" d="M377,415.75s2.39,99.5,2.18,103.42-4.58,6.09-8.5,6.09-149.78-.43-155.88-.43-14.15-1.74-14.37-17.42,0-96.44,0-96.44l89.92-67.06Z" transform="translate(-190.8 -314.29)"/><path class="cls-3" d="M288.28,351.7s78.41,63.05,82.26,66.25,8.64,3.52,15-4.8,16-20.8,18.24-23.68,1.28-4.48-2.24-7-79.05-65-80.65-66.25-6.72-3.52-12.48,0S224.92,376,220.76,379.55,193.55,412.19,191.31,416s3.2,5.12,9.6,1S288.28,351.7,288.28,351.7Z" transform="translate(-190.8 -314.29)"/><path class="cls-4" d="M311.4,438.79H344a1.82,1.82,0,0,1,1.72,2.41c-1.67,5-6.71,15.91-18.57,15.75s-16.19-11-17.51-15.88A1.82,1.82,0,0,1,311.4,438.79Z" transform="translate(-190.8 -314.29)"/><path class="cls-4" d="M339.89,464.77H313.12a2.5,2.5,0,0,1,0-5h26.77a2.5,2.5,0,0,1,0,5Z" transform="translate(-190.8 -314.29)"/><path class="cls-4" d="M286.35,464c-7.39,0-11.46-7.23-11.63-7.54a2.5,2.5,0,1,1,4.37-2.42c.06.09,2.92,5,7.42,5,4.3-.11,6.07-4.89,6.15-5.09a2.5,2.5,0,0,1,4.71,1.66c-.11.34-3,8.23-10.73,8.43Z" transform="translate(-190.8 -314.29)"/><path class="cls-5" d="M326.24,468.49c-8.58-.06-10.41,10.87-5.45,15.26s14.75,1.07,15-6.6C336.08,470.4,331,468.53,326.24,468.49Z" transform="translate(-190.8 -314.29)"/><path class="cls-4" d="M262.85,438.79h-32.6a1.82,1.82,0,0,0-1.72,2.41c1.67,5,6.71,15.91,18.57,15.75s16.19-11,17.51-15.88A1.82,1.82,0,0,0,262.85,438.79Z" transform="translate(-190.8 -314.29)"/><path class="cls-4" d="M234.36,464.77h26.77a2.5,2.5,0,0,0,0-5H234.36a2.5,2.5,0,0,0,0,5Z" transform="translate(-190.8 -314.29)"/><path class="cls-5" d="M248,468.49c8.59-.06,10.42,10.87,5.46,15.26s-14.75,1.07-15-6.6C238.17,470.4,243.21,468.53,248,468.49Z" transform="translate(-190.8 -314.29)"/></svg>