<svg id="Layer_1" data-name="Layer 1" xmlns="http://www.w3.org/2000/svg" viewBox="0 0 207.74 235.1"><defs><style>.cls-1{fill:#ebf0f4;}.cls-2{fill:#fff;}.cls-3{fill:#f0827b;}.cls-4{fill:#777a9d;}.cls-5{fill:#5e638a;}.cls-6{fill:#feeb98;}</style></defs><path class="cls-1" d="M395.37,349.91s-.85,134.79-.85,138a12.27,12.27,0,0,1-3.13,8.35c-2.27,2.88-22.46,19-25.58,19.87S363,360,363,360Z" transform="translate(-194.01 -282.6)"/><path class="cls-2" d="M370.25,363.94s2,139.79,1.61,143.87-3.62,8.56-10.06,9-151.69,1.22-156.12.81-7.64-3.26-8-9.37.13-148.23.13-148.23l86.72-51.55Z" transform="translate(-194.01 -282.6)"/><path class="cls-3" d="M282.2,314.5a3.32,3.32,0,0,1,3.64.16c11.79,8.49,78.61,56.6,80.63,57.52,2.22,1,4.24,1.41,7.67-1s24-18.16,26.24-20.18,1.61-4.64-.81-7.26-81.73-58.32-84.35-59.94-6.86-1.81-11.1.81-75.07,44.8-79.91,47.62S197.12,354,194.74,357.05c-2.22,2.82,1,6.45,4.44,5.65C202.3,362,270,321.75,282.2,314.5Z" transform="translate(-194.01 -282.6)"/><path class="cls-4" d="M208.33,461.3c-5.41,1.8-6.79,13.87,2.64,19.7s21,.94,22.51-4.47c.74-2.66.53-4.89-1.14-6.35-3.86-3.37-8.61-1.67-12.07-3.2C214.52,464.45,215.62,458.87,208.33,461.3Z" transform="translate(-194.01 -282.6)"/><path class="cls-4" d="M227.36,496.9c-3.9,3.51-1.53,13.32,11.1,15,10,1.31,16.48-4.78,16.18-9.61-.15-2.38-1-4.1-2.89-4.73-4.36-1.45-8,.46-11.44.36C234.56,497.74,231.52,493.16,227.36,496.9Z" transform="translate(-194.01 -282.6)"/><path class="cls-4" d="M338.85,484.72c-1.29,3.77,4.21,10,13.54,7.15,7.37-2.28,9.43-8.74,7.32-12.1-1-1.66-2.31-2.61-3.86-2.45-3.56.37-5.29,2.89-7.71,3.94C344.13,483,340.23,480.7,338.85,484.72Z" transform="translate(-194.01 -282.6)"/><path class="cls-4" d="M318.71,475.2c5.12,2.45,5.49,16.45-7.63,21.23-10.37,3.78-19.36-1.93-19.72-7.75-.18-2.86.49-5.1,2.4-6.27,4.41-2.68,7.14-1.05,10.8-1.94C310.62,479,312.33,472.15,318.71,475.2Z" transform="translate(-194.01 -282.6)"/><path class="cls-4" d="M364.69,444.88c-6.08,4.45-11.54,0-14.25,7-2.44,6.3,10.59,15.9,21.78,10.47l-.49-25.46C369,439.51,367.3,443,364.69,444.88Z" transform="translate(-194.01 -282.6)"/><path class="cls-5" d="M381.76,436.76c-1.68-2.26-3.67-3.3-6-2.41a11.67,11.67,0,0,0-4,2.57l.49,25.46.84-.43C384.43,455.59,385.17,441.36,381.76,436.76Z" transform="translate(-194.01 -282.6)"/><path class="cls-5" d="M394.48,464.44a3.43,3.43,0,0,0-.52-.23c-3.06-1-3.33,2.59-6.12,4.36-1.68,1.07-4,1-5.74,3.13-.76.92-.72,2.18-.15,3.62,1.15,2.93,6,4.62,10.56.94a12.34,12.34,0,0,0,2-2Z" transform="translate(-194.01 -282.6)"/><path class="cls-5" d="M312.38,397.67a3,3,0,0,1-.8-5.9l29-8a3,3,0,1,1,1.61,5.79l-29,8A3.09,3.09,0,0,1,312.38,397.67Z" transform="translate(-194.01 -282.6)"/><path class="cls-5" d="M248.52,398.11a3.17,3.17,0,0,1-.85-.12l-27.79-8.14a3,3,0,0,1,1.69-5.76l27.79,8.14a3,3,0,0,1-.84,5.88Z" transform="translate(-194.01 -282.6)"/><ellipse class="cls-3" cx="293.76" cy="437.62" rx="13.47" ry="20.9" transform="translate(-221.7 -262.68) rotate(-3.71)"/><path class="cls-6" d="M255.76,451.58a4,4,0,0,0,5.69-.64c3-3.75,8.65-9.83,15.24-11.32,6.91-1.57,15.68.66,21.64-6.85s5.08-23.19-7.06-28.93-29.38-4.64-40.2,10.82C242.19,427.35,246.38,443.7,255.76,451.58Z" transform="translate(-194.01 -282.6)"/><ellipse class="cls-5" cx="41.42" cy="121.23" rx="9.52" ry="10.67"/><ellipse class="cls-5" cx="128.8" cy="120.49" rx="9.52" ry="10.67"/></svg>