<svg id="Layer_1" data-name="Layer 1" xmlns="http://www.w3.org/2000/svg" xmlns:xlink="http://www.w3.org/1999/xlink" viewBox="0 0 602.67 560.03"><defs><style>.cls-1,.cls-10,.cls-9{fill:none;}.cls-2{fill:#cfccd1;}.cls-3{fill:#b9a7bd;}.cls-4{fill:#e8e3e8;}.cls-5{clip-path:url(#clip-path);}.cls-6{fill:#cdcbd0;}.cls-7{fill:#8a6aea;}.cls-8{fill:#fdc1b6;}.cls-10,.cls-9{stroke:#8a6aea;stroke-linecap:round;stroke-miterlimit:10;}.cls-9{stroke-width:7px;}.cls-10{stroke-width:10px;}.cls-11{fill:#fcfffa;}</style><clipPath id="clip-path" transform="translate(-451.4 -279.55)"><path class="cls-1" d="M488.85,497.79V762.58A14.22,14.22,0,0,0,496,774.91l56,32.24a11.07,11.07,0,0,0,5.42,1.47l388.92,2.7V511.06L708.09,379.32Z"/></clipPath></defs><path class="cls-2" d="M934.81,279.57c29.58-1.47,110.64,54.47,117.79,175.32s-12.94,161.81-32,162.78-86.13,4.37-92.77-1.93-10-286.8-9.53-294.29S914.38,280.6,934.81,279.57Z" transform="translate(-451.4 -279.55)"/><path class="cls-3" d="M978.53,724.11c-4.41.18-15.22,2.51-14.54-5.49s5.11-189.79,5.11-189.79,1.07-19.06,8.37-19.74,12.74,40.85,11.72,53.78,2,149.28,2,154.9C991.32,726.78,978.53,724.11,978.53,724.11Z" transform="translate(-451.4 -279.55)"/><path class="cls-4" d="M488.85,506.51V762.34A14.64,14.64,0,0,0,496.19,775l55,31.64a14.67,14.67,0,0,0,7.2,2l373.24,2.6a14.64,14.64,0,0,0,14.73-14.64V519.7a14.62,14.62,0,0,0-7.55-12.81L715.09,383.19a14.64,14.64,0,0,0-14-.07L496.53,493.64A14.63,14.63,0,0,0,488.85,506.51Z" transform="translate(-451.4 -279.55)"/><g class="cls-5"><path class="cls-6" d="M574,836.51,451.4,839.57V467.83H553.53l-.2,329c0,7.76.33,7.82,3.61,14.86Z" transform="translate(-451.4 -279.55)"/></g><path id="Roof" class="cls-7" d="M480.53,495l57,48.21a17.35,17.35,0,0,0,20.73,1.22l196.81-130L945.44,518.5a6.22,6.22,0,0,0,8.71-3l.53-1.23a6.22,6.22,0,0,0-1.86-7.34l-38-30.39a79.79,79.79,0,0,0-11.68-7.77L696.73,356.43a13.06,13.06,0,0,0-13.15.39L481.39,482.7A7.64,7.64,0,0,0,480.53,495Z" transform="translate(-451.4 -279.55)"/><path class="cls-7" d="M787.32,412.77S829.44,355,862.13,362c42.13,8.93,37.27,105.7,35.23,107.23S787.32,412.77,787.32,412.77Z" transform="translate(-451.4 -279.55)"/><path class="cls-7" d="M554.21,460.51S543.49,372.94,582,360.68s65.87,40.21,65.87,40.21Z" transform="translate(-451.4 -279.55)"/><path class="cls-8" d="M593.28,402.81c16.18-9.06,53.45,16.15,49.11,28.66s-43,26.29-49.09,29.35-11.3,3.9-12.32-9.63S579.36,410.6,593.28,402.81Z" transform="translate(-451.4 -279.55)"/><path class="cls-8" d="M859.32,398.47C874,406,873.49,442,872.6,446.47s-2.05,8.17-10.6,3.19-31.53-18.77-38.3-21.83-9.19-8.17-4.08-12.77S845.15,391.19,859.32,398.47Z" transform="translate(-451.4 -279.55)"/><ellipse class="cls-8" cx="139.06" cy="448.86" rx="36" ry="34.89"/><ellipse class="cls-8" cx="457.02" cy="441.94" rx="36" ry="34.89"/><line class="cls-9" x1="124.94" y1="437.13" x2="118.64" y2="453.99"/><line class="cls-9" x1="139.06" y1="437.99" x2="131.57" y2="457.22"/><line class="cls-9" x1="156.46" y1="441.13" x2="148.46" y2="457.81"/><line class="cls-9" x1="449.31" y1="429.94" x2="439.27" y2="446.03"/><line class="cls-9" x1="462.3" y1="434.24" x2="451.74" y2="450.41"/><line class="cls-9" x1="476.43" y1="434.24" x2="466.89" y2="453.99"/><path class="cls-10" d="M643.19,736.26c6,4.42,15.65,9.94,40.72,5.55,40.47-7.09,66.43-45,66.43-45s25.49,41.06,84.38,49.62c22.76,3.3,31.93-4.13,31.93-4.13" transform="translate(-451.4 -279.55)"/><path class="cls-7" d="M747.06,697.62s-17.7-3.24-17.87-14.81,15.08-14.45,22.23-4.58c0,0,4.3-6,14.52-5s14.29,22.79-12.75,24.43" transform="translate(-451.4 -279.55)"/><ellipse class="cls-11" cx="206.57" cy="373.9" rx="59.96" ry="59.13"/><ellipse class="cls-11" cx="388.18" cy="373.9" rx="59.96" ry="59.13"/><circle class="cls-7" cx="208.94" cy="373.9" r="45.7"/><circle class="cls-7" cx="390.38" cy="373.9" r="45.7"/></svg>