<svg id="Layer_1" data-name="Layer 1" xmlns="http://www.w3.org/2000/svg" viewBox="0 0 255.69 221.14"><defs><style>.cls-1{fill:#afdcdf;}.cls-2{fill:#cde8ed;}.cls-3{fill:#87cccb;}.cls-4{fill:#f8bfb3;}.cls-5{fill:#68bcb8;}</style></defs><path class="cls-1" d="M415.87,366.5s.84,121.79.56,124a19.67,19.67,0,0,1-4.71,9.35c-2.77,3-29.88,28.66-35.16,28.38L375.15,395Z" transform="translate(-169.98 -310.29)"/><path class="cls-2" d="M178.5,403.07s-.63,114.31-.18,117.5,1.13,10,9.24,10.64,179.59-.21,184.55-1.28,7.43-2.76,7.66-8.5,0-123.79,0-123.79L274.2,347.59Z" transform="translate(-169.98 -310.29)"/><path class="cls-3" d="M271,357.67c2-1.26,4.32-.9,6.4.19,17.74,9.27,85.36,36.67,92.58,40,5.68,2.65,8.44,5.28,15.56-1.23,6.9-6.31,36.32-28.81,38.36-31.06s2.78-5-.27-7.75c-4.23-3.84-102.08-46.43-102.08-46.43-3.09-2-5.32-1-8.22.55-4.67,2.56-82.06,42.15-86.16,44.91S172,401,170.52,402.82s0,8.69,5.75,6.51C181.84,407.24,257.9,366,271,357.67Z" transform="translate(-169.98 -310.29)"/><path class="cls-4" d="M342.8,465.77s-7.08-7.56-12.2-1.57c-3.83,4.48,6.07,16.86,10.79,17.74s16.93-12.14,12.66-17.56C348.5,457.32,342.8,465.77,342.8,465.77Z" transform="translate(-169.98 -310.29)"/><path class="cls-4" d="M212.62,467s7.08-7.56,12.2-1.57c3.83,4.48-6.07,16.86-10.79,17.74S197.1,471,201.36,465.58C206.91,458.52,212.62,467,212.62,467Z" transform="translate(-169.98 -310.29)"/><ellipse class="cls-5" cx="67.6" cy="141.77" rx="8.25" ry="11.31"/><ellipse class="cls-5" cx="141.04" cy="141.77" rx="8.25" ry="11.31"/><path class="cls-5" d="M274.77,472.6c-2.48,0-7.13-2.84-13.83-8.45a3.21,3.21,0,1,1,4.12-4.92,61.6,61.6,0,0,0,9.53,6.81,41.92,41.92,0,0,0,6.56-7.51,3.21,3.21,0,0,1,5.22,3.73C279,472.6,275.81,472.6,274.77,472.6Zm-.57-6.32Z" transform="translate(-169.98 -310.29)"/></svg>