<svg id="Layer_1" data-name="Layer 1" xmlns="http://www.w3.org/2000/svg" viewBox="0 0 289.79 219.34"><defs><style>.cls-1{fill:#777a9d;}.cls-2{fill:#fafafb;}.cls-3{fill:#fff;}.cls-4{fill:#e7e0e9;}.cls-5{fill:#feeb98;}.cls-6{fill:#f6c0a3;}.cls-7{fill:#fbd5c0;}.cls-8{fill:#afd4a0;}.cls-9{fill:#c99478;}.cls-10{fill:#ac7a60;}.cls-11{fill:#f7bab3;}.cls-12{fill:#97c786;}</style></defs><path class="cls-1" d="M437.29,443.52s.88,28.69.62,30.22-1.22,5.35-6.45,5.46-6.13-1.87-6.39-5.39-.9-29.76-.9-29.76Z" transform="translate(-152.63 -311.43)"/><path class="cls-2" d="M433.68,453.37c.26-1.64-4.46-4.38-5.91-.93S433.26,456,433.68,453.37Z" transform="translate(-152.63 -311.43)"/><path class="cls-2" d="M434.47,459.14c0-1.26-6.79-1.68-6.54,1.16S434.45,462.79,434.47,459.14Z" transform="translate(-152.63 -311.43)"/><path class="cls-2" d="M434.48,468.86c1.3-1.74-4.31-3.91-5.81-1.5S431.8,472.44,434.48,468.86Z" transform="translate(-152.63 -311.43)"/><path class="cls-2" d="M434.23,474.9c.95-1-1.89-3.62-4.33-1.95S432.27,477,434.23,474.9Z" transform="translate(-152.63 -311.43)"/><path class="cls-3" d="M423.41,444.35,421.19,337c-.11-5.13,1-20.6,12.84-25.54l1.05,131.25Z" transform="translate(-152.63 -311.43)"/><path class="cls-4" d="M434,311.43s4.57,124.84,3.83,131.18l-7.61,1.06s-4.37-89.86-4.09-101C426.78,317.64,434,311.43,434,311.43Z" transform="translate(-152.63 -311.43)"/><path class="cls-5" d="M442.42,443.41c0-2-2.36-4-6.54-3.79s-12.27.35-14,.57-4.26,1.07-4.21,3.74c0,1.8,2,3,4.16,3.34s14.18-.14,15.79-.27S442.49,446.58,442.42,443.41Z" transform="translate(-152.63 -311.43)"/><path class="cls-6" d="M420.82,376.71s-.69,127.58-1.09,130.86-2.5,6.28-4.89,8.67S402,530.43,396.91,530.58l2.69-136Z" transform="translate(-152.63 -311.43)"/><path class="cls-7" d="M403.06,393.34s1,36.24.42,55.67-.24,67.83-.42,71.71-.47,9-6.15,9.86-178.39-1.79-182.58-2.39-8.57-3-8.76-10.16,1.79-123.11,1.79-123.11l93.33-52.3Z" transform="translate(-152.63 -311.43)"/><path class="cls-8" d="M207.36,399.13c-3.28,1.1-5.76-1.31-2.59-4.89s22.75-21.24,26.51-24.17,84.72-48.5,86.79-49.44,5.65-3.58,10-1.32,96,47.44,98.27,48.76,5.09,3,3,5.65S411,395.37,408.8,397.06s-5.26,3.2-10.9.19c-5-2.68-79.21-39-95.52-46.94a6.66,6.66,0,0,0-6.21.18C280.77,359.13,212.36,397.46,207.36,399.13Z" transform="translate(-152.63 -311.43)"/><path class="cls-9" d="M286.24,439.86H286c-.32,0-3.25-.33-9.48-3.06-3.71-1.63-8.95-5-13.57-8-3.09-2-6-3.89-7.66-4.71a17.48,17.48,0,0,0-10-1.59,2.5,2.5,0,0,1-1-4.9,22.19,22.19,0,0,1,13.27,2c1.9.95,4.8,2.83,8.15,5,4.46,2.89,9.52,6.17,12.86,7.63,5.41,2.37,7.87,2.65,7.9,2.66a2.5,2.5,0,0,1-.23,5Z" transform="translate(-152.63 -311.43)"/><path class="cls-9" d="M317.11,440.07a2.5,2.5,0,0,1-.58-4.94c5.82-1.37,15.56-7.79,18.76-9.91,2.59-1.71,8.66-5.71,13.87-6.8a74.36,74.36,0,0,1,9.63-.9,2.5,2.5,0,0,1,.16,5,70.32,70.32,0,0,0-8.77.79c-4.27.9-9.78,4.53-12.14,6.09-5.87,3.87-14.37,9.18-20.36,10.6A2.22,2.22,0,0,1,317.11,440.07Z" transform="translate(-152.63 -311.43)"/><path class="cls-9" d="M340.65,464.71h-.38c-9.77-.36-15.52-9.35-15.76-9.73a2.5,2.5,0,1,1,4.23-2.67c.08.13,4.65,7.14,11.72,7.4,4.48.18,9.19-5.33,10.63-7.46a2.5,2.5,0,0,1,4.14,2.79C355,455.43,348.64,464.71,340.65,464.71Z" transform="translate(-152.63 -311.43)"/><path class="cls-10" d="M340.58,423.19c-2-1.66.32,8.14.95,14.8a141.71,141.71,0,0,1,.85,19.66A85.08,85.08,0,0,1,337.62,481c-3.07,8,.32,9.73,2.75,5.81s5.92-17.23,6.55-32.35C347.34,444.45,344.49,426.36,340.58,423.19Z" transform="translate(-152.63 -311.43)"/><path class="cls-9" d="M313,474.5H290.71a2.5,2.5,0,0,1,0-5H313a2.5,2.5,0,1,1,0,5Z" transform="translate(-152.63 -311.43)"/><ellipse class="cls-9" cx="111.14" cy="144.87" rx="11.18" ry="10.9"/><ellipse class="cls-11" cx="222.31" cy="168.17" rx="20.48" ry="20.82"/><ellipse class="cls-11" cx="79.39" cy="168.17" rx="20.48" ry="20.82"/><path class="cls-1" d="M284.76,474.1s28.7-.28,30.22,0,5.33,1.33,5.33,6.57-2,6.08-5.52,6.27-29.77.29-29.77.29Z" transform="translate(-152.63 -311.43)"/><path class="cls-2" d="M294.53,477.91c-1.63-.3-4.47,4.37-1,5.89S297.19,478.38,294.53,477.91Z" transform="translate(-152.63 -311.43)"/><path class="cls-2" d="M300.32,477.24c-1.26,0-1.82,6.75,1,6.56S304,477.34,300.32,477.24Z" transform="translate(-152.63 -311.43)"/><path class="cls-2" d="M310,477.43c-1.71-1.34-4,4.23-1.62,5.78S313.56,480.19,310,477.43Z" transform="translate(-152.63 -311.43)"/><path class="cls-2" d="M316.07,477.81c-1-1-3.65,1.81-2,4.28S318.1,479.81,316.07,477.81Z" transform="translate(-152.63 -311.43)"/><path class="cls-3" d="M285.3,488H177.9c-5.14,0-20.58-1.43-25.27-13.37l131.25,1.67Z" transform="translate(-152.63 -311.43)"/><path class="cls-4" d="M152.63,474.62s124.91-2,131.24-1.11l.89,7.63s-89.93,2.51-101.06,2C158.69,482,152.63,474.62,152.63,474.62Z" transform="translate(-152.63 -311.43)"/><path class="cls-5" d="M284.76,469c-2,0-4,2.29-3.93,6.47s.1,12.27.29,14,1,4.28,3.64,4.28c1.81,0,3.05-1.9,3.43-4.09s.16-14.18.06-15.79S287.93,469,284.76,469Z" transform="translate(-152.63 -311.43)"/><path class="cls-1" d="M204.82,469.5S213,497,213.14,498.56s.18,5.48-4.85,6.92-6.4-.24-7.55-3.57-8.47-28.55-8.47-28.55Z" transform="translate(-152.63 -311.43)"/><path class="cls-2" d="M203.85,479.94c-.17-1.65-5.44-3.09-6,.62S204.12,482.63,203.85,479.94Z" transform="translate(-152.63 -311.43)"/><path class="cls-2" d="M206.08,485.32c-.31-1.22-7,.11-6,2.8S207,488.85,206.08,485.32Z" transform="translate(-152.63 -311.43)"/><path class="cls-2" d="M208.57,494.72c.82-2-5.16-2.68-6,0S206.89,498.86,208.57,494.72Z" transform="translate(-152.63 -311.43)"/><path class="cls-2" d="M209.87,500.62c.66-1.23-2.75-3-4.68-.78S208.51,503.13,209.87,500.62Z" transform="translate(-152.63 -311.43)"/><path class="cls-3" d="M191.61,473.85,162.05,370.59c-1.41-4.94-4.29-20.17,5.9-28l34.52,126.63Z" transform="translate(-152.63 -311.43)"/><path class="cls-4" d="M168,342.62s36.29,119.54,37.19,125.86l-7.09,3s-27.16-85.77-29.74-96.6C162.52,350.47,168,342.62,168,342.62Z" transform="translate(-152.63 -311.43)"/><path class="cls-5" d="M209.76,468.09c-.56-1.95-3.3-3.24-7.3-2s-11.78,3.47-13.37,4.12-3.85,2.12-3.11,4.69c.5,1.73,2.66,2.4,4.87,2.16s13.67-3.74,15.2-4.28S210.63,471.13,209.76,468.09Z" transform="translate(-152.63 -311.43)"/><path class="cls-12" d="M230.05,386.78h0c-11.15-.15-11.47-2.09-11.64-3.12a2.22,2.22,0,0,1,.41-1.68c1-1.3,4.32-2.36,10-3.15a1.75,1.75,0,1,1,.48,3.47c-1.39.19-2.81.45-4.05.72,1.46.14,3.16.23,4.86.26a1.75,1.75,0,0,1,0,3.5Z" transform="translate(-152.63 -311.43)"/><path class="cls-12" d="M239,376.71h-.2c-3.86-.43-9.43-3.44-9.2-6.71.21-3,4.47-2.75,8.58-2.55a22.22,22.22,0,0,0,2.32.05,1.76,1.76,0,0,1,2,1.46,1.73,1.73,0,0,1-1.42,2,17.77,17.77,0,0,1-3.06,0c-1-.05-2.93-.15-4.23-.07a11.54,11.54,0,0,0,5.41,2.35,1.75,1.75,0,0,1-.19,3.49Zm-5.92-6.64" transform="translate(-152.63 -311.43)"/><path class="cls-12" d="M259.75,364.73a1.69,1.69,0,0,1-.78-.19c-3.7-1.85-9.68-5.49-8.08-9,1.38-3.06,6.69-3,11.7-2.47l.49,0a1.75,1.75,0,0,1-.29,3.49l-.55-.05c-6-.59-7.63.06-8.05.34.52,1,3.39,3.08,6.34,4.56a1.75,1.75,0,0,1,.79,2.35A1.77,1.77,0,0,1,259.75,364.73Z" transform="translate(-152.63 -311.43)"/><path class="cls-12" d="M312.51,359.89c-2.64,0-4.89-2.7-7.47-5.81-1.86-2.25-4.17-5-5.81-5.31-1.28-.23-5,3.31-7,5.21-3.42,3.27-5.89,5.63-8.22,5.06a3,3,0,0,1-2.12-2.14c-1-2.95.48-7.76,1.79-10.08a1.75,1.75,0,0,1,3,1.72c-1,1.85-1.91,5.23-1.61,6.92a32.47,32.47,0,0,0,4.69-4c3.57-3.41,6.94-6.64,10-6.13s5.46,3.55,7.93,6.53c1.44,1.73,3.82,4.66,4.81,4.54.41,0,.77-.48,1-.85,1.43-2.3,1.64-7.4.43-10.7a1.75,1.75,0,0,1,3.28-1.2c1.61,4.36,1.27,10.53-.74,13.76a4.8,4.8,0,0,1-3.62,2.47A2.55,2.55,0,0,1,312.51,359.89Zm-27.22-4h0Z" transform="translate(-152.63 -311.43)"/><path class="cls-12" d="M299,338.09a1.7,1.7,0,0,1-1.07-.37c-.67-.52-4-3.24-4.28-6a3.42,3.42,0,0,1,.85-2.66c2.3-2.61,10.07-2.28,12.4-2.12a1.75,1.75,0,0,1-.25,3.5c-4.28-.3-8.82.14-9.53.94-.06.5,1.28,2.28,2.95,3.58a1.75,1.75,0,0,1-1.07,3.13Z" transform="translate(-152.63 -311.43)"/><path class="cls-12" d="M327.94,339a1.75,1.75,0,0,1-1.75-1.66,37.24,37.24,0,0,0-1.13-7.81,23.88,23.88,0,0,0-3.56,4.34,1.75,1.75,0,0,1-2.93-1.91c3-4.56,5.48-6.66,7.44-6.24.85.19,3.1.67,3.68,11.43A1.76,1.76,0,0,1,328,339Z" transform="translate(-152.63 -311.43)"/><path class="cls-12" d="M351.52,341.66a1.69,1.69,0,0,1-.89-.25A1.74,1.74,0,0,1,350,339a8.59,8.59,0,0,0,1.3-6.16,34.34,34.34,0,0,0-8.59,3.59,1.75,1.75,0,0,1-1.79-3c.25-.15,6.17-3.64,10.76-4.18a2.43,2.43,0,0,1,2.38,1.25c1.28,2,1.35,6.25-1.06,10.3A1.73,1.73,0,0,1,351.52,341.66Z" transform="translate(-152.63 -311.43)"/><path class="cls-12" d="M367.32,352.74a1.74,1.74,0,0,1-1.43-2.74c1.7-2.47,3.69-9.34,2.72-12a1.42,1.42,0,0,0-.28-.49,25.32,25.32,0,0,0-2.49,1.63,41.21,41.21,0,0,1-7.65,4.5,1.75,1.75,0,1,1-1.36-3.22,37.61,37.61,0,0,0,7-4.15c2.34-1.65,3.76-2.64,5.23-2.24a4.16,4.16,0,0,1,2.84,2.77c1.55,4.28-1.19,12.39-3.14,15.21A1.74,1.74,0,0,1,367.32,352.74Z" transform="translate(-152.63 -311.43)"/><path class="cls-12" d="M366.94,374a1.87,1.87,0,0,1-.61-.11,1.75,1.75,0,0,1-1-2.26,9.55,9.55,0,0,0-.23-5.34,19.36,19.36,0,0,0-2.31,1c-2.17,1-4.21,2-5.9,1.35-2.57-1-1.35-4.26-.27-7.11.23-.63.56-1.5.79-2.22-.82.34-1.86.86-2.65,1.25-3.11,1.56-5.79,2.91-7.72,1.88-2.17-1.14-1.91-4.19-1.68-6.89.05-.56.11-1.3.12-1.88-1.2.46-3.16,1.51-4.34,2.14-2.5,1.33-3.86,2-4.88,2.12a1.78,1.78,0,0,1-1.88-1.61,1.75,1.75,0,0,1,1.58-1.88,27.12,27.12,0,0,0,3.53-1.72c4-2.12,6-3.07,7.51-2.7,2.29.57,2.07,3.24,1.85,5.83a14.86,14.86,0,0,0-.06,3.44,22.74,22.74,0,0,0,4.41-1.86c3-1.5,5.17-2.59,6.79-1.59,2,1.25,1,4-.1,6.92-.25.67-.6,1.61-.83,2.36.72-.27,1.63-.7,2.21-1,2.21-1.06,4.11-2,5.62-1,2.46,1.56,2.59,7.41,1.72,9.73A1.74,1.74,0,0,1,366.94,374Zm-2-8Z" transform="translate(-152.63 -311.43)"/><path class="cls-12" d="M389.88,363.75a1.73,1.73,0,0,1-1.13-.41,1.76,1.76,0,0,1-.2-2.47A7.83,7.83,0,0,0,390,356.8h0c-1,0-3.66,1.29-4.58,1.74-.5.24-.92.44-1.24.57a1.75,1.75,0,0,1-1.34-3.23c.27-.11.63-.29,1.06-.49,3.14-1.52,6.12-2.78,8.11-1.55a3.15,3.15,0,0,1,1.46,2.32c.39,2.42-1.23,5.78-2.25,7A1.77,1.77,0,0,1,389.88,363.75Z" transform="translate(-152.63 -311.43)"/><path class="cls-12" d="M391.1,378.62a1.75,1.75,0,0,1-1.06-3.15,6.79,6.79,0,0,0,2.55-5.36,42.17,42.17,0,0,0-6.64.43c-3.51.4-5.39.58-6.47.2a1.76,1.76,0,0,1-1.06-2.24,1.74,1.74,0,0,1,2.19-1.07,34.41,34.41,0,0,0,4.95-.37c6.29-.71,8.77-.82,9.86.81,1.71,2.56,0,7.9-3.27,10.39A1.71,1.71,0,0,1,391.1,378.62Z" transform="translate(-152.63 -311.43)"/><path class="cls-12" d="M404.8,395.32l-.23,0a1.76,1.76,0,0,1-1.51-2,14,14,0,0,0-.15-5.35,13.52,13.52,0,0,0-3.1,1.17,21,21,0,0,1-6.14,2.06,1.75,1.75,0,1,1-.43-3.47,18.36,18.36,0,0,0,5.11-1.77c2.08-1,3.88-1.79,5.57-1.38,1.39.32,3.57,1.95,2.61,9.19A1.76,1.76,0,0,1,404.8,395.32Z" transform="translate(-152.63 -311.43)"/><path class="cls-12" d="M410.62,366.66a1.66,1.66,0,0,1-.49-.07,1.75,1.75,0,0,1-1.19-2.17,17.19,17.19,0,0,0,.22-5.24c-.69.32-1.64.85-2.35,1.24-2.17,1.19-4.42,2.42-6.14,2.46a1.73,1.73,0,0,1-1.79-1.7,1.75,1.75,0,0,1,1.7-1.8c.87,0,3.08-1.23,4.54-2,2.74-1.5,4.39-2.41,5.81-1.7,3.05,1.53,1.39,9.68,1.37,9.76A1.74,1.74,0,0,1,410.62,366.66Z" transform="translate(-152.63 -311.43)"/><path class="cls-12" d="M411.23,382.33a1.75,1.75,0,0,1-1.05-3.15,18.41,18.41,0,0,0,3.87-4.55,12,12,0,0,1-3.46.61,1.75,1.75,0,1,1-.07-3.5,10.42,10.42,0,0,0,3.78-.93c1.17-.47,2.37-.95,3.5-.19a2.05,2.05,0,0,1,.9,1.69c.06,2.3-3.72,7.64-6.42,9.67A1.81,1.81,0,0,1,411.23,382.33Z" transform="translate(-152.63 -311.43)"/></svg>