<svg id="Layer_1" data-name="Layer 1" xmlns="http://www.w3.org/2000/svg" viewBox="0 0 217.39 231.18"><defs><style>.cls-1{fill:#d0cad2;}.cls-2{fill:#e7e0e9;}.cls-3{fill:#f3c853;}.cls-4{fill:#85786f;}.cls-5{fill:#f7aa64;}</style></defs><path class="cls-1" d="M401.63,383.6s.23,62.21.23,74.16-.23,43.74-.9,45.77-31.67,30-31.67,30L366,399.38Z" transform="translate(-188.96 -305.61)"/><path class="cls-2" d="M371.83,408.92s1.35,110.45,1.62,116.93-5.4,10.54-18.09,10.81-132.76.27-145.72-1.35-14.43-8.92-14.43-20-2.33-117.07-2.33-117.07l97.93-66Z" transform="translate(-188.96 -305.61)"/><path class="cls-3" d="M287.32,341.5s77.76,70.39,79.92,72.28,7.56,4.05,10.8,1.08,23.5-22.69,26.47-26.47,2.43-7.56-2.16-11.61-74-66.43-77.51-69.13-9.18-3.25-14.85,1.62-89.93,57.52-89.93,57.52S191.43,394.06,189.54,397s1.08,7.29,5.4,4.59S287.32,341.5,287.32,341.5Z" transform="translate(-188.96 -305.61)"/><path class="cls-3" d="M259.79,484.1a52.13,52.13,0,0,1,14.59-11.38c8.56-4.28,17.23-6.55,21.68-12.71,5.15-7.14,3-25.65-13.12-26.36-14.48-.65-26.63,9.5-30,22.88S256.18,481.82,259.79,484.1Z" transform="translate(-188.96 -305.61)"/><path class="cls-4" d="M316.27,426.29a8.73,8.73,0,0,0-8.17,8.56c0,5.08,4.42,8.16,8.57,8.16s8.83-3.88,8.43-8.7A8.83,8.83,0,0,0,316.27,426.29Z" transform="translate(-188.96 -305.61)"/><path class="cls-4" d="M237.45,425.48a8.74,8.74,0,0,0-8.17,8.57c0,5.08,4.42,8.16,8.57,8.16s8.83-3.88,8.43-8.7A8.84,8.84,0,0,0,237.45,425.48Z" transform="translate(-188.96 -305.61)"/><path class="cls-5" d="M340.12,440.47c-4.91.12-10.71,3.48-10.71,8.56s5.79,8.17,11.24,8.17,11.59-3.88,11.06-8.7S345.57,440.34,340.12,440.47Z" transform="translate(-188.96 -305.61)"/><path class="cls-5" d="M215.67,440.6c-4.91.12-10.71,3.48-10.71,8.57s5.79,8.16,11.24,8.16,11.59-3.88,11.06-8.7S221.12,440.47,215.67,440.6Z" transform="translate(-188.96 -305.61)"/></svg>