<svg id="Layer_1" data-name="Layer 1" xmlns="http://www.w3.org/2000/svg" viewBox="0 0 213.26 198.68"><defs><style>.cls-1{fill:#fccf9d;}.cls-2{fill:#fee9d2;}.cls-3{fill:#f2bd83;}.cls-4{fill:#f7d7b3;}.cls-5{fill:#c28149;}.cls-6{fill:#fad2cb;}.cls-7{fill:#bcdfd5;}</style></defs><path class="cls-1" d="M346.6,417c-17.18-1.57-31-16.68-60.69-18.77s-48.51,17.2-69.85,17.72c-6.4.16-18.19-2.16-21.07-4.1-.06-28.85-.4-56.13.14-59.75l82.57-46.88,97.39,41.51s.48,15.61.48,23.47c0,3.41,0,21.66-.09,41.74A54.69,54.69,0,0,1,346.6,417Z" transform="translate(-191.15 -279.58)"/><path class="cls-2" d="M369.22,477.85c-3.7.48-166,.48-169.84.32s-3.84-3.2-3.84-5-.3-25.79-.44-38.45c0-3.45-.08-12.09-.11-22.91,2.88,1.94,14.67,4.26,21.07,4.1,21.34-.52,40.19-19.81,69.85-17.72s43.51,17.2,60.69,18.77a54.69,54.69,0,0,0,28.88-5.06c-.09,26.09-.27,55.29-.6,59.13S372.91,477.37,369.22,477.85Z" transform="translate(-191.15 -279.58)"/><path class="cls-3" d="M370.73,413.94l-1-70,29.33-17.79c.56,3.55,1.42,49.51,1.62,73.66a27.9,27.9,0,0,0-16.21,6.39A46,46,0,0,1,370.73,413.94Z" transform="translate(-191.15 -279.58)"/><path class="cls-4" d="M400.34,449c0,3.2-.51,5.7-3.46,8.48s-25.35,19.31-25.35,19.31l-.8-62.82a46,46,0,0,0,13.74-7.75,27.9,27.9,0,0,1,16.21-6.39c0,3.27,0,6,0,7.91C400.72,424,400.34,445.78,400.34,449Z" transform="translate(-191.15 -279.58)"/><path class="cls-2" d="M240.57,368.16c.48,4.48-5.43,7.68-10.1,7.06-6.44-.84-9.39-3.7-9.4-6.91s4.64-6.65,10-6.35C234.6,362.16,240.09,363.67,240.57,368.16Z" transform="translate(-191.15 -279.58)"/><path class="cls-5" d="M234,405.64c-6.25.57-9.69-5-9.21-9.72.67-6.47,5.31-9.48,8.51-9.77,4.5-.4,8.5,4.44,8.29,9.77C241.39,402,238.54,405.22,234,405.64Z" transform="translate(-191.15 -279.58)"/><path class="cls-5" d="M333.75,402.56c6.25.58,9.69-5,9.2-9.72-.66-6.46-5.31-9.48-8.5-9.76-4.51-.4-8.5,4.43-8.29,9.76C326.39,398.88,329.25,402.15,333.75,402.56Z" transform="translate(-191.15 -279.58)"/><path class="cls-6" d="M351.87,454.68c11,.5,17.5-8.36,17-16-.72-10.49-9.71-14.63-15.33-14.87-7.92-.34-15.86,6.75-15.86,15.42C337.65,449.09,344,454.32,351.87,454.68Z" transform="translate(-191.15 -279.58)"/><path class="cls-6" d="M214.84,455.45c11,.5,17.5-8.36,17-16-.72-10.49-9.71-14.63-15.33-14.87-7.92-.34-15.86,6.75-15.86,15.42C200.61,449.86,206.93,455.09,214.84,455.45Z" transform="translate(-191.15 -279.58)"/><path class="cls-2" d="M324.49,367.68c-.24,4.5,5.83,7.38,10.47,6.51,6.38-1.19,9.17-4.21,9-7.41s-5-6.4-10.28-5.81C330.13,361.37,324.72,363.17,324.49,367.68Z" transform="translate(-191.15 -279.58)"/><path class="cls-5" d="M268.8,399.34c-.83,6.36,7.46,11.11,14.13,10.39,9.18-1,13.47-5,13.59-9.51s-6.36-9.62-13.94-9.38C277.5,391,269.64,393,268.8,399.34Z" transform="translate(-191.15 -279.58)"/><path class="cls-5" d="M301.26,427.71l-16.93-14.23.5-9.72a2.5,2.5,0,0,0-5-.26l-.5,9.77-19.51,14.07a2.5,2.5,0,0,0,2.93,4.06l18.89-13.64,16.4,13.78a2.47,2.47,0,0,0,1.61.59,2.5,2.5,0,0,0,1.6-4.42Z" transform="translate(-191.15 -279.58)"/><path class="cls-7" d="M277.61,309.09s87.45,41,90.49,42.27a9.1,9.1,0,0,0,9.5-1.24c3.42-2.47,23-18.64,25.13-20.49a5.23,5.23,0,0,0-1.51-8.66c-4.37-2.06-83.16-39.17-85.63-40.2s-6.08-2.06-11.59,0-79.37,45.42-83.55,47.07-25,21.52-27.31,23-3.6,7.21,1.71,5.36S277.61,309.09,277.61,309.09Z" transform="translate(-191.15 -279.58)"/><path class="cls-1" d="M219.59,289.6c-9.79,5.1-10.38,30.37-7.25,37.81s7.21,6.19,11.93,3.88,31-17.59,31-17.59,8.23-3.14,1.57-10.78S233.74,282.25,219.59,289.6Z" transform="translate(-191.15 -279.58)"/><path class="cls-1" d="M358.66,289c-6.4-3.37-23.82,1.83-31.31,8.66s-6.83,10.16-4.17,12a90.8,90.8,0,0,0,9,4.82s23.5,14,28.74,16.16c4,1.65,6.05-3.89,6.57-8.82C367.9,318,371,295.49,358.66,289Z" transform="translate(-191.15 -279.58)"/><path class="cls-2" d="M223.51,331.72s-5.5-25.88,3.33-30.36c12.34-6.27,28.4,12.34,28.4,12.34Z" transform="translate(-191.15 -279.58)"/><path class="cls-2" d="M326.68,311.32s12.66-13.83,24.32-9.66,5.33,26.65,5.33,26.65Z" transform="translate(-191.15 -279.58)"/></svg>