<svg xmlns="http://www.w3.org/2000/svg" viewBox="0 0 315.51 250.39"><defs><style>.cls-4{fill:#7bb05d}</style></defs><g id="Layer_1" data-name="Layer 1"><path d="M640.82 579.13s-.34 70.38-.34 77.22-1 10.25 3.76 17.08S684.88 718 684.88 718l3.78-102z" transform="translate(-630.12 -472.11)" fill="#9cd47c"/><path d="M940.76 705.17c.36-10.5 1.2-178.1 1.2-178.1L681 619s-.23 80.55-.23 87.51 2.09 15.79 18.57 15.79 219.6.46 228 0 12.92-2.22 13.42-17.13z" transform="translate(-630.12 -472.11)" fill="#b7ea9a"/><path d="M632.94 576.54c5.39 8.74 35 37.54 38 41s7 10.51 22 4.51S930.25 538.5 936.76 536s13-4.51 5.51-15-30.54-41.54-34-45.55-7.51-5-20.52.5-243.29 81.57-251.3 85.05-7.51 9-3.51 15.54z" transform="translate(-630.12 -472.11)" fill="#be9076"/><path class="cls-4" d="M807.29 625.16c-5.15 1.84-6.79 9.14-1.72 13.41s13.78.45 12.43-7.77c-1.11-6.8-7.58-6.75-10.71-5.64zm76.47 11.07c4.64-2.88 4.7-10.36-1.16-13.47S869 625.24 872.1 633c2.52 6.39 8.84 5 11.66 3.23z" transform="translate(-630.12 -472.11)"/><path d="M787.74 642.12c-5 .18-9.57 2-9.59 6.64 0 3.49 4.06 5.94 9.36 6.3s10.93-1.35 10.93-6.3c0-4.76-6.86-6.76-10.7-6.64zm112.46-3.24c5 .18 9.57 2 9.58 6.64 0 3.49-4 5.94-9.35 6.3s-10.94-1.35-10.94-6.3c0-4.78 6.86-6.78 10.71-6.64z" transform="translate(-630.12 -472.11)" style="fill:#f7eeb1"/><path class="cls-4" d="M851 664.86c-.54 0-1.1 0-1.69-.06a32 32 0 0 1-8.12-1.73 3.5 3.5 0 0 1 2.49-6.55c.14.05 10.45 3.74 13.5-1.35a4.77 4.77 0 0 0 .26-5.07A6.38 6.38 0 0 0 852 647a3.5 3.5 0 0 1-2.38-6.06c.43-.41 4.21-4.16 1.72-7.22a3.9 3.9 0 0 0-3.48-1.56 7.15 7.15 0 0 0-5.15 3 3.5 3.5 0 1 1-6-3.64 14.11 14.11 0 0 1 10.65-6.37 10.89 10.89 0 0 1 9.39 4.13c3.39 4.17 2.79 8.62 1.09 12.07a13.12 13.12 0 0 1 5.69 5.27 11.77 11.77 0 0 1-.36 12.12c-1.65 2.87-5.17 6.12-12.17 6.12z" transform="translate(-630.12 -472.11)"/></g></svg>