<svg id="Layer_1" data-name="Layer 1" xmlns="http://www.w3.org/2000/svg" viewBox="0 0 221.55 213.21"><defs><style>.cls-1{fill:#f2dda2;}.cls-2{fill:#f8e9bd;}.cls-3{fill:#d69d77;}.cls-4{fill:#a86f47;}.cls-5{fill:#f6b2a4;}.cls-6{fill:#fef8e5;}</style></defs><path class="cls-1" d="M192.58,364.94s-.16,113.85,0,116.84c.25,4.67.76,6.15,2.52,8.36s28,25.11,32.17,25.6S231,505.15,231,505.15l-1.26-124Z" transform="translate(-186.95 -303.52)"/><path class="cls-2" d="M220.74,388.31s-.26,110.44,0,114.87,1,13.28,10,13.53,159.87-2.21,163.39-2.21,6.78-2.22,6.78-7.87V390L317.7,336.2Z" transform="translate(-186.95 -303.52)"/><path class="cls-3" d="M318.84,342.14a3.59,3.59,0,0,0-4,.1c-12.34,8.85-85.36,48.93-87.53,50.74-2.76,2.3-6.28,3.44-8.8,1.48s-27.73-24.79-30-26.76-2-4.43.75-6.64S282,306.93,284.78,305.2s7.79-2.7,11.56,0,80.43,53.21,82.7,54.44,26.95,28.67,28.71,30.63.45,6.65-4.29,4.43C401.59,393.83,332.29,350.79,318.84,342.14Z" transform="translate(-186.95 -303.52)"/><path class="cls-1" d="M229.85,437.09h0c-1.29-.54-2.53,1.46-2.87,3.15-.31,1.52.15,3.26,1.73,3.65C231.66,444.62,231.88,437.85,229.85,437.09Z" transform="translate(-186.95 -303.52)"/><path class="cls-1" d="M275.73,382.55h0c-1.29-.54-2.52,1.46-2.86,3.15-.31,1.52.15,3.26,1.73,3.65C277.55,390.08,277.77,383.31,275.73,382.55Z" transform="translate(-186.95 -303.52)"/><path class="cls-1" d="M355,474.38h0c-1.21-.31-1.81,1.44-1.72,2.83a2.78,2.78,0,0,0,2.27,2.77C358.21,480.26,356.9,474.78,355,474.38Z" transform="translate(-186.95 -303.52)"/><path class="cls-1" d="M258,478.44h0c1,.39,1.92-1,2.14-2.13a2,2,0,0,0-1.43-2.54C256.44,473.24,256.44,477.89,258,478.44Z" transform="translate(-186.95 -303.52)"/><path class="cls-1" d="M239.69,499h0c.93.53,2.17-.5,2.68-1.46a1.66,1.66,0,0,0-.83-2.47C239.35,494.19,238.21,498.24,239.69,499Z" transform="translate(-186.95 -303.52)"/><path class="cls-1" d="M303.87,369h0c-1.08.36-2-.83-2.14-1.85a2,2,0,0,1,1.61-2.28C305.77,364.35,305.56,368.48,303.87,369Z" transform="translate(-186.95 -303.52)"/><path class="cls-1" d="M297.12,366.87h0c-1.15.46-2.21-1.21-2.48-2.62a2.44,2.44,0,0,1,1.6-3.06C298.86,360.57,298.94,366.22,297.12,366.87Z" transform="translate(-186.95 -303.52)"/><path class="cls-1" d="M227.19,447.56h0c-1-.46-2.11.63-2.49,1.62a1.75,1.75,0,0,0,1.14,2.41C228.14,452.34,228.76,448.24,227.19,447.56Z" transform="translate(-186.95 -303.52)"/><path class="cls-1" d="M347.57,485.7h0c-1.17-.15-1.54,1.17-1.31,2.19a2.52,2.52,0,0,0,2.46,1.87C351.26,489.78,349.41,485.86,347.57,485.7Z" transform="translate(-186.95 -303.52)"/><path class="cls-1" d="M379.19,401.56h0c-1.18-.14-1.54,1.18-1.31,2.19a2.5,2.5,0,0,0,2.46,1.87C382.88,405.65,381,401.73,379.19,401.56Z" transform="translate(-186.95 -303.52)"/><path class="cls-4" d="M274.36,427.65c-9.77.16-9.36,14.65,0,15C285.86,443,285,427.48,274.36,427.65Z" transform="translate(-186.95 -303.52)"/><path class="cls-5" d="M246.62,438.25c-19.26.29-18.45,26.65,0,27.2C269.27,466.13,267.54,437.94,246.62,438.25Z" transform="translate(-186.95 -303.52)"/><path class="cls-4" d="M346.11,427.65c9.77.16,9.36,14.65,0,15C334.61,443,335.49,427.48,346.11,427.65Z" transform="translate(-186.95 -303.52)"/><path class="cls-4" d="M313.67,449.51a7.32,7.32,0,0,1-1.15.06c-7.13-.18-11.73-6.55-11.92-6.82a2.71,2.71,0,0,1,4.41-3.14c.05.07,3.27,4.44,7.64,4.54,2.48.07,5.29-3.39,6.08-4.6a2.71,2.71,0,0,1,4.55,2.94C322.84,443.18,319,448.88,313.67,449.51Z" transform="translate(-186.95 -303.52)"/><path class="cls-6" d="M258,447h0c-1.32-1.56-4.16,1.53-5.64,4.43-1.34,2.63-1.82,6,0,7.42C255.68,461.52,260.16,449.33,258,447Z" transform="translate(-186.95 -303.52)"/><path class="cls-6" d="M245.14,458.55h0c1.3,1.3,3.61-2.17,4.72-5.23,1-2.78,1.2-6.12-.5-7.2C246.17,444.12,243.05,456.69,245.14,458.55Z" transform="translate(-186.95 -303.52)"/><path class="cls-6" d="M241.24,445.47h0c-1.35-1.13-3.24,2.48-4,5.56-.73,2.8-.62,6.07,1.09,6.94C241.48,459.59,243.38,447.07,241.24,445.47Z" transform="translate(-186.95 -303.52)"/><path class="cls-5" d="M372.71,438.25c-19.26.29-18.45,26.65,0,27.2C395.36,466.13,393.63,437.94,372.71,438.25Z" transform="translate(-186.95 -303.52)"/><path class="cls-6" d="M384.09,447h0c-1.32-1.56-4.16,1.53-5.64,4.43-1.34,2.63-1.83,6,0,7.42C381.77,461.52,386.25,449.33,384.09,447Z" transform="translate(-186.95 -303.52)"/><path class="cls-6" d="M371.23,458.55h0c1.3,1.3,3.61-2.17,4.72-5.23,1-2.78,1.2-6.12-.5-7.2C372.26,444.12,369.14,456.69,371.23,458.55Z" transform="translate(-186.95 -303.52)"/><path class="cls-6" d="M367.33,445.47h0c-1.35-1.13-3.24,2.48-4,5.56-.73,2.8-.62,6.07,1.09,6.94C367.57,459.59,369.47,447.07,367.33,445.47Z" transform="translate(-186.95 -303.52)"/></svg>