<svg id="Layer_1" data-name="Layer 1" xmlns="http://www.w3.org/2000/svg" viewBox="0 0 234.46 229.54"><defs><style>.cls-1{fill:#f3c57c;}.cls-2{fill:#fcd798;}.cls-3{fill:#d674ac;}.cls-4{fill:#cd8e5a;}.cls-5{fill:#f6b2a4;}.cls-6{fill:#e8ae4d;}</style></defs><path class="cls-1" d="M185.62,498.11c0,4.24,1.12,5.44,3.68,8.48,4.25,5.05,22.87,25.45,28,27.15l3.3-129.32-34.91-23.56S185.58,495,185.62,498.11Z" transform="translate(-180.52 -305.97)"/><path class="cls-2" d="M214.81,406.29s-.58,122.77.29,125.07,2.35,3.31,8.54,3.85,174.6.28,177.12-.24c3.29-.69,6.73-2.06,7.55-7.28.56-3.52-1.3-116.56-1.3-116.56l-90.28-73Z" transform="translate(-180.52 -305.97)"/><path class="cls-3" d="M315.32,345.45a4,4,0,0,1,4.57-.33c10.83,7.19,86.83,72.74,90.86,73.21,4.45.53,5-2.79,3.37-5s-58.89-52.13-61.86-54.47S289,308,286.87,306.67c-1.84-1.14-5.05-.92-7.48.94-2.81,2.15-97.06,68.16-98,69.76s-1.44,3.44.33,5.31,28.6,25.61,30.16,27.07c2.91,2.74,5.76,3.44,8.08,1.44C222,409.4,305.77,352.61,315.32,345.45Z" transform="translate(-180.52 -305.97)"/><path class="cls-4" d="M257.43,491.2a2.5,2.5,0,0,1-2.5-2.48c0-.39,0-9.61,5.18-14.69a11.41,11.41,0,0,1,8.63-3.28c11,.25,15.07,11.41,15.72,17.28a2.5,2.5,0,0,1-5,.55c-.06-.55-1.57-12.62-10.86-12.83a6.64,6.64,0,0,0-5,1.84c-3.66,3.59-3.69,11-3.69,11.11a2.49,2.49,0,0,1-2.49,2.5Z" transform="translate(-180.52 -305.97)"/><path class="cls-4" d="M369.93,490.21h0a2.51,2.51,0,0,1-2.49-2.52c0-.07,0-7.51-3.69-11.1a6.69,6.69,0,0,0-5-1.84c-9.31.21-10.8,12.31-10.86,12.83a2.5,2.5,0,0,1-5-.55c.64-5.87,4.76-17,15.71-17.28a11.39,11.39,0,0,1,8.64,3.28c5.17,5.08,5.18,14.3,5.18,14.69A2.51,2.51,0,0,1,369.93,490.21Z" transform="translate(-180.52 -305.97)"/><path class="cls-5" d="M241.82,494s2.67-6.62,7.64-4.07c3.72,1.92.48,13.84-3.11,15-5.65,1.87-13.71-4.48-12.33-9C235.81,490,241.82,494,241.82,494Z" transform="translate(-180.52 -305.97)"/><path class="cls-5" d="M387.44,492s4.69-5.38,8.55-1.33c2.89,3-4.09,13.23-7.87,13.17-6-.09-11.48-8.74-8.69-12.58C383.07,486.29,387.44,492,387.44,492Z" transform="translate(-180.52 -305.97)"/><path class="cls-4" d="M332.69,494.87H297.16a2.5,2.5,0,1,1,0-5h35.53a2.5,2.5,0,0,1,0,5Z" transform="translate(-180.52 -305.97)"/><path class="cls-6" d="M238,322.37s9.85-11.82,18.72-7.88c6.75,3,8,10.83,5.31,18.19-2.75,7.55-12.79,19.76-18.12,25.47a5.86,5.86,0,0,1-7.7.79c-7.15-5.08-20.95-16.91-23.32-25.08-2.95-10.18,2-17.6,10-19.37C228.77,313.18,238,322.37,238,322.37Z" transform="translate(-180.52 -305.97)"/></svg>