<svg id="Layer_1" data-name="Layer 1" xmlns="http://www.w3.org/2000/svg" viewBox="0 0 268.06 225.29"><defs><style>.cls-1{fill:#fdd597;}.cls-2{fill:#edc07b;}.cls-3{fill:#e7a966;}.cls-4{fill:#fff;}.cls-5{fill:#906c5e;}.cls-6{fill:#d59650;}.cls-7{fill:#d69853;}.cls-8{fill:#d79852;}.cls-9{fill:#ffe6c0;}</style></defs><path class="cls-1" d="M23,433.61s-.39,75.36,0,81.25-.78,11.38,11,11.38,209.58.78,215.47,0,7.85-2.75,7.85-12.17v-73L140.08,390.44Z" transform="translate(-18.61 -301.3)"/><path class="cls-2" d="M281.66,421.84V498c0,2.75-1.57,5.89-4.71,8.63s-22.52,18-22.52,18V439.82Z" transform="translate(-18.61 -301.3)"/><path class="cls-3" d="M135.2,398.56a6.43,6.43,0,0,1,4.55.14c15.78,6.57,109.42,45.5,112.44,46.55,3.3,1.16,5.74,1.43,10.61-2.49S284.35,423.4,286,421.89s-.13-4.71-2.7-6.38S165.44,366,165.44,366,56.3,402.14,50.92,405,20.16,429.1,19,431.53s0,7.18,5.64,5.26C29.8,435,119.61,404,135.2,398.56Z" transform="translate(-18.61 -301.3)"/><path class="cls-4" d="M184,498.27c20-1.19,29.22-20.24,25.3-34.79s-17.15-24.3-34.45-19.47-22.68,21.7-17.4,37.12C161,491.37,172.59,498.94,184,498.27Z" transform="translate(-18.61 -301.3)"/><path class="cls-4" d="M95.06,440.63c-20-1.83-31.92,15.62-30.23,30.6S78.14,497.82,96,495.65s25.68-18,22.77-34.09C116.81,450.91,106.44,441.67,95.06,440.63Z" transform="translate(-18.61 -301.3)"/><path class="cls-5" d="M99.08,447.87A20.33,20.33,0,0,0,76.6,469.58c1.1,10.81,9.76,20.84,22.48,19.4s19.09-13.89,16.83-26.56C114.54,454.73,107.18,448.71,99.08,447.87Z" transform="translate(-18.61 -301.3)"/><path class="cls-5" d="M177.37,491.1c16,0,22-14.43,19.7-25-2.71-12.32-14-19-26.3-15.54s-15.61,16.77-11.34,28.92C162,486.81,169.23,491.08,177.37,491.1Z" transform="translate(-18.61 -301.3)"/><path class="cls-6" d="M147.57,494.68a3.46,3.46,0,0,0-4.88.29c-.36.43-3.66,4.14-6.52,2.37a2.65,2.65,0,0,1-1.44-2.41,3.81,3.81,0,0,1,2-3.07l.27-.14c1-.49,2.82-1.39,2.61-3.4s-2.23-2.47-3.32-2.77l-.2-.06c-.34-.1-3.33-1-2.9-3.07a2,2,0,0,1,1.22-1.54,4.35,4.35,0,0,1,3.53.19,3.45,3.45,0,0,0,5.14-3.75,3.42,3.42,0,0,0-1.55-2.12,11.18,11.18,0,0,0-9.85-.64,8.82,8.82,0,0,0-5.22,6.44,8.54,8.54,0,0,0,3,8.55,10.39,10.39,0,0,0-1.62,5.1,9.82,9.82,0,0,0,10.55,10,13.15,13.15,0,0,0,4.94-1.5c.37-.19.75-.4,1.13-.63a9.91,9.91,0,0,0,3.41-3,3.44,3.44,0,0,0-.32-4.8Z" transform="translate(-18.61 -301.3)"/><path class="cls-7" d="M61.37,492.71c-.52,2.55-2.2,9.6-3.81,10.48s-1.2-4.93-.81-7.6,1.67-8.9,3.76-9.09S61.81,490.52,61.37,492.71Z" transform="translate(-18.61 -301.3)"/><path class="cls-7" d="M51,493.79c-.55,2.54-2.34,9.56-4,10.42s-1.12-4.95-.69-7.62,1.8-8.87,3.9-9S51.48,491.61,51,493.79Z" transform="translate(-18.61 -301.3)"/><path class="cls-7" d="M40.74,492.4c-1,2.41-4,9-5.74,9.57s-.24-5.07.66-7.63,3.33-8.41,5.42-8.2S41.59,490.34,40.74,492.4Z" transform="translate(-18.61 -301.3)"/><path class="cls-7" d="M243.72,490.56c-.51,2.56-2.19,9.6-3.8,10.49s-1.21-4.93-.81-7.61,1.66-8.89,3.76-9.08S244.17,488.38,243.72,490.56Z" transform="translate(-18.61 -301.3)"/><path class="cls-7" d="M233.36,491.64c-.56,2.54-2.35,9.56-4,10.42s-1.13-4.94-.7-7.61,1.81-8.87,3.91-9S233.83,489.46,233.36,491.64Z" transform="translate(-18.61 -301.3)"/><path class="cls-7" d="M223.09,490.25c-1,2.41-4,9-5.73,9.57s-.24-5.07.65-7.62,3.33-8.42,5.42-8.2S223.94,488.19,223.09,490.25Z" transform="translate(-18.61 -301.3)"/><path class="cls-8" d="M208.65,415.51a2,2,0,0,1-.71-.14,2,2,0,0,1-1.16-2.58s1.76-4.77-.84-5.86-7.58,1.72-9.61,3.24a2,2,0,0,1-3-2.47c.89-1.88,1.62-5,.6-5.79s-4.41,1-6.77,2.86a2,2,0,1,1-2.51-3.12c1.25-1,7.72-5.91,11.68-2.94,1.86,1.4,2.24,3.57,2.06,5.6,2.71-1.27,6.2-2.28,9.09-1.07,4.94,2.07,4.15,8.09,3,11A2,2,0,0,1,208.65,415.51Z" transform="translate(-18.61 -301.3)"/><path class="cls-8" d="M209.28,407.17a1.87,1.87,0,0,1-.69-.13,2,2,0,0,1-1.18-2.57c.58-1.58,1.21-4.67.43-6.24a1.71,1.71,0,0,0-1.16-.94c-4.76-1.45-10.1,3.17-10.15,3.22a2,2,0,0,1-2.67-3c.29-.25,7-6.16,14-4.06a5.73,5.73,0,0,1,3.58,3c1.8,3.63,0,8.83-.26,9.42A2,2,0,0,1,209.28,407.17Z" transform="translate(-18.61 -301.3)"/><path class="cls-8" d="M263.76,431.5a2,2,0,0,1-1.65-3.11c1.27-1.91,3.06-5.93,1.59-7-1.8-1.32-7.58.56-10.92,2.24a2,2,0,0,1-2.84-2.3c.6-2.24.84-6-.55-7-2-1.38-7.19,1.08-10.09,3.17a2,2,0,1,1-2.35-3.23c1-.71,9.62-6.78,14.73-3.22,2.44,1.7,2.85,4.91,2.71,7.49,3.51-1.33,8.65-2.62,11.67-.4.54.39,5,4-.64,12.46A2,2,0,0,1,263.76,431.5Z" transform="translate(-18.61 -301.3)"/><path class="cls-8" d="M101.11,402.11a2,2,0,0,1-1-.26,2,2,0,0,1-.76-2.72c.43-.75,4.28-7.33,9.3-7.33a5.48,5.48,0,0,1,4.66,2.43,10.39,10.39,0,0,1,4.94-4.19,7,7,0,0,1,8.88,4.39,2,2,0,1,1-3.74,1.41,3.05,3.05,0,0,0-3.91-2c-1.91.62-3.9,4-4.71,6a2,2,0,0,1-3.86-.65s-.22-3.43-2.26-3.43-4.83,3.57-5.81,5.3A2,2,0,0,1,101.11,402.11Z" transform="translate(-18.61 -301.3)"/><path class="cls-8" d="M48.79,416.24a2.06,2.06,0,0,1-1.22-.41A2,2,0,0,1,47.2,413c1-1.32,6.27-7.92,10.59-8.24a5.56,5.56,0,0,1,4.55,2.16c1.72-2.39,4.53-5.34,8-5.36h0c4,0,6,4.32,6.63,6.87a2,2,0,1,1-3.89.91c-.28-1.18-1.37-3.78-2.74-3.78h0c-2.43,0-5.25,4.09-6.24,6.06a2,2,0,0,1-1.87,1.11,2,2,0,0,1-1.78-1.26c-.48-1.17-1.66-2.77-2.42-2.72-1.87.14-5.7,4.07-7.7,6.68A2,2,0,0,1,48.79,416.24Z" transform="translate(-18.61 -301.3)"/><path class="cls-8" d="M55.27,420a2,2,0,0,1-1.11-.34,2,2,0,0,1-.55-2.78c.44-.64,4.37-6.3,9-6.3,4.82,0,7.49,5.22,7.6,5.44a2,2,0,0,1-3.58,1.79s-1.71-3.23-4-3.23c-1.93,0-4.63,3.06-5.63,4.54A2,2,0,0,1,55.27,420Z" transform="translate(-18.61 -301.3)"/><path class="cls-9" d="M167.82,366.65s-1-4.89,7.15-9.07,14.83-10.12,16.92-20.93.53-17.88,2.27-25,1.22-8.9,0-10.12-5.72,3.36-10.26,6.15-20.79,11.82-26.37,16-7,14.13-13.43,25.12-13.65,20.31-13.78,30c-.15,10.88,5.1,15.79,7.46,14.35C143.69,389.51,167.82,366.65,167.82,366.65Z" transform="translate(-18.61 -301.3)"/><path class="cls-7" d="M180.47,321.16a2,2,0,0,0-2,2c0,5.56-1.71,16.68-5.37,22.88a71.35,71.35,0,0,1-4.11,5.89c-3.73,5-7.58,10.12-7.58,15.51a15.22,15.22,0,0,0,.6,4.65l3.45-3.22c0-.41-.05-.88-.05-1.43,0-4.06,3.45-8.67,6.78-13.12a72.92,72.92,0,0,0,4.35-6.25c4.09-6.91,5.93-18.73,5.93-24.91A2,2,0,0,0,180.47,321.16Z" transform="translate(-18.61 -301.3)"/><path class="cls-7" d="M161.63,335.43a2,2,0,0,0-2,2,31.9,31.9,0,0,1-5.46,15.77c-2.65,4-9,14.21-10.44,21.72a76.61,76.61,0,0,0-1.06,14.47l4-3.43a65.36,65.36,0,0,1,1-10.28c1.37-7,7.9-17.29,9.87-20.28a35.58,35.58,0,0,0,6.11-18A2,2,0,0,0,161.63,335.43Z" transform="translate(-18.61 -301.3)"/></svg>