<svg xmlns="http://www.w3.org/2000/svg" viewBox="0 0 214.1 261"><defs><style>.cls-1{fill:#d2e1e8;}.cls-2{fill:#ebf1f4;}.cls-3{fill:#fff;}.cls-4{fill:#6a787e;}.cls-5{fill:#ffb5c3;}.cls-6{fill:#cfc9d1;}.cls-7{fill:#a29aa4;}</style></defs><g id="Layer_1" data-name="Layer 1"><path class="cls-1" d="M733.88,489.74c-.23-5.16,2-6.64.88-12s-9.8-12.24-19.83-11.58-17.17,7.89-17.1,16.08,5.6,11,8.26,13.56,1.91,5.16,3.83,7.59c1.61,2.06,3.62,2.69,6.2,2.58a1.76,1.76,0,0,0,1.65-1.56c.28-2.22,1-6.31,2.25-6.84,1.63-.68,2.25,4.56,2.44,6.71a.84.84,0,0,0,1,.76l1.89-.25a1.15,1.15,0,0,0,1-1.18c-.06-2,0-6.24,1.38-6.63s2.19,3,2.61,5a1.22,1.22,0,0,0,1.78.83,6.43,6.43,0,0,0,3.35-6C735.43,493.57,734,492.31,733.88,489.74Zm-22.16-2a4.41,4.41,0,0,1-4.8-3.72,4.21,4.21,0,0,1,5.17-4.68,4.54,4.54,0,0,1,3.14,4.42A4.09,4.09,0,0,1,711.72,487.74Zm12.1,1.86c-1,.73-1.39-1.24-3.22-1-1,.16-1.21,1.75-2.72,1.09-.61-.27.18-4.42,2.33-4.42C722.69,485.31,724.86,488.84,723.82,489.6Zm4.76-3.94a3.52,3.52,0,0,1-3.75-3.22c-.36-2.41,1.79-4.81,4-4.06a3.93,3.93,0,0,1,2.46,3.84A3.45,3.45,0,0,1,728.58,485.66Z" transform="translate(-682.42 -466.1)"/><path class="cls-1" d="M737.36,504.34c-1.55,0-3.75.72-3.56,3.77a3.71,3.71,0,0,0,4.82,3.31,3.14,3.14,0,0,0,2.2-4C740.51,506.1,739.74,504.31,737.36,504.34Z" transform="translate(-682.42 -466.1)"/><path class="cls-1" d="M720.89,532.84s-2-5,3.2-6.48,4-7.2,8.74-8.64,8.8,7.17,8.1,13.13S720.89,532.84,720.89,532.84Z" transform="translate(-682.42 -466.1)"/><path class="cls-2" d="M683.38,580.09V691.36c0,4.2-.79,7.52,3.13,11.25s19.59,10.9,19.59,10.9V596.15Z" transform="translate(-682.42 -466.1)"/><path class="cls-3" d="M892.62,597.18s.59,87.44.59,97.43-1.37,20-14.89,20-161.55,0-168,0c-4.1,0-8.42-3.08-8.41-11.56v-112l93.75-50.36Z" transform="translate(-682.42 -466.1)"/><path class="cls-4" d="M802.78,668.12h0c-11.33,0-17.43-9.63-17.68-10a3,3,0,0,1,5.08-3.18c.09.13,4.7,7.2,12.62,7.22h0c6.61,0,9.61-8.88,9.64-9a3,3,0,0,1,5.71,1.85C818,655.54,813.75,668.12,802.78,668.12Z" transform="translate(-682.42 -466.1)"/><path class="cls-4" d="M757.63,637.25c-5.41.23-9.3,7.58-5.52,13.34,4.66,7.08,13.51,3.38,14.46-2.93A8.82,8.82,0,0,0,757.63,637.25Z" transform="translate(-682.42 -466.1)"/><path class="cls-4" d="M841.24,654.43c5.41-.23,9.3-7.58,5.52-13.33-4.66-7.09-13.51-3.39-14.46,2.92A8.82,8.82,0,0,0,841.24,654.43Z" transform="translate(-682.42 -466.1)"/><path class="cls-5" d="M734.48,649.84c-8.1.43-12.39,6.54-12.39,12.6,0,7.64,4.08,13.28,12.25,13.28,8.46,0,12.7-6.81,12.74-12.89S741.75,649.46,734.48,649.84Z" transform="translate(-682.42 -466.1)"/><path class="cls-5" d="M863.28,649.84c8.1.43,12.4,6.54,12.4,12.6,0,7.64-4.09,13.28-12.25,13.28-8.46,0-12.7-6.81-12.74-12.89S856,649.46,863.28,649.84Z" transform="translate(-682.42 -466.1)"/><path class="cls-1" d="M795.4,545s-77.5,45.37-81.77,48.19-9.8,8.36-17.09,1.58-9-6.54-12.23-10.82-2.27-8,2.76-11.81,75.25-44.61,78.69-46.87,9-7,18,0,71.08,41.5,76.93,45.52,26.22,17.23,31.95,21c4.48,3,4.52,6.09,2.87,8s-5.62.42-14.42-4.64C872,590,795.4,545,795.4,545Z" transform="translate(-682.42 -466.1)"/><path class="cls-6" d="M726.75,720.75c-.48.06-2,.11-4.21.16V691.8s0-5.12-6.42-10.09c-5.63-4.36-15.66-3.47-19.54-1-8.5,5.48-7.58,11.44-7.58,11.44v28.76c-1.58,0-2.74-.09-3.31-.16-4.57-.55-3.72,5.37-1.31,5.82,1.67.32,40.87,1.11,43.34-.39S729.35,720.43,726.75,720.75Z" transform="translate(-682.42 -466.1)"/><path class="cls-7" d="M716.29,693.3a7,7,0,0,1-2.14,2.11,2.68,2.68,0,0,1-2.62.34,3,3,0,0,1-1.32-2.25,12.06,12.06,0,0,1-.12-2.94h0v0l-1-.06v0h0a19.11,19.11,0,0,1-.37,2.92,6.26,6.26,0,0,1-1.05,2.57,1.38,1.38,0,0,1-1,.57,1,1,0,0,1-.93-.42,5.6,5.6,0,0,1-1-2.6l-.26-1.85-.48,1.78a6.81,6.81,0,0,1-1.6,3.15c-.42.37-1,.71-1.48.48a1.81,1.81,0,0,1-1-1.33,5,5,0,0,1-.09-1.63c.2-.16.39-.33.58-.51a9,9,0,0,0,2.16-3.24,4.21,4.21,0,0,0,.36-2,1.19,1.19,0,0,0-.25-.65.73.73,0,0,0-.48-.26.77.77,0,0,0-.44.11,2.14,2.14,0,0,0-.74.86,13.72,13.72,0,0,0-1.21,3.63q-.12.62-.21,1.23a15.65,15.65,0,0,1-6,3.58l0,.09a13.28,13.28,0,0,0,5.85-2.55,6.36,6.36,0,0,0,.11,1.44,2.19,2.19,0,0,0,1.13,1.6,1.41,1.41,0,0,0,1,0,2.55,2.55,0,0,0,.88-.5,6.24,6.24,0,0,0,1.5-2.05,4.84,4.84,0,0,0,.77,1.79,2.36,2.36,0,0,0,.73.63,1.81,1.81,0,0,0,1,.17,2.43,2.43,0,0,0,1.64-.86,5.86,5.86,0,0,0,1.13-2.24,5.67,5.67,0,0,0,.39.83,2.72,2.72,0,0,0,1.3,1.18,3.27,3.27,0,0,0,3.2-.63,6.54,6.54,0,0,0,2-2.45Zm-14.55-4.49a1.85,1.85,0,0,1,.42-.48.59.59,0,0,1,0,.14,3.91,3.91,0,0,1-.35,1.61,9,9,0,0,1-1.68,2.75c.05-.22.1-.45.16-.67A13.54,13.54,0,0,1,701.74,688.81Z" transform="translate(-682.42 -466.1)"/><path class="cls-7" d="M710.23,702.63c-1.56,0-3.11.25-4.66.4q-4.65.44-9.3,1v.1c3.12-.05,6.23-.14,9.34-.25,1.56,0,3.12,0,4.67-.2a34.88,34.88,0,0,0,4.63-.75v-.1A36.81,36.81,0,0,0,710.23,702.63Z" transform="translate(-682.42 -466.1)"/><path class="cls-7" d="M701.83,707.88a30.85,30.85,0,0,0-4.36.45v.1a32.39,32.39,0,0,0,4.36.45c1.46.06,2.91,0,4.37-.1q4.35-.13,8.72-.35v-.1c-2.91-.15-5.82-.26-8.72-.35C704.74,707.92,703.29,707.81,701.83,707.88Z" transform="translate(-682.42 -466.1)"/><path class="cls-7" d="M705.82,713c-2.22.09-4.43.21-6.65.35v.1c2.22.15,4.43.26,6.65.35a28.33,28.33,0,0,0,3.32.1,17.1,17.1,0,0,0,3.32-.45v-.1a18.79,18.79,0,0,0-3.32-.45C708,712.78,706.93,712.91,705.82,713Z" transform="translate(-682.42 -466.1)"/><path class="cls-7" d="M700.43,720.38c-1.52-.07-3,0-4.55.1q-4.14.12-8.28.32c-.62-.09-1.25-.17-1.87-.22a3.19,3.19,0,0,0-1,0,2.12,2.12,0,0,0-1,.5v.1a5.1,5.1,0,0,0,2,.24,54.36,54.36,0,0,1,5.79-.25l-.47,0,4.79.18c1.52.05,3,.17,4.55.1a35.22,35.22,0,0,0,4.55-.45v-.1A35.22,35.22,0,0,0,700.43,720.38Z" transform="translate(-682.42 -466.1)"/><path class="cls-4" d="M742.51,555s-.08-20.94,0-23.52-.89-5.6-5.24-5.6-12.78.59-14.91.52-6.91.29-6.69,7.74,0,29.19,0,31.4,0,7.23,7.1,2.66S742.51,555,742.51,555Z" transform="translate(-682.42 -466.1)"/></g></svg>