<svg id="Layer_1" data-name="Layer 1" xmlns="http://www.w3.org/2000/svg" xmlns:xlink="http://www.w3.org/1999/xlink" viewBox="0 0 226.53 221.17"><defs><style>.cls-1{fill:none;}.cls-2{fill:#d3a597;}.cls-3{clip-path:url(#clip-path);}.cls-4{fill:#c28c7c;}.cls-5{fill:#e4bdb1;}.cls-6{fill:#ad6f60;}.cls-7{fill:#ae7666;}.cls-8{clip-path:url(#clip-path-2);}.cls-9{fill:#9a664e;}.cls-10{fill:#f6b2a4;}</style><clipPath id="clip-path" transform="translate(-184.92 -310.27)"><path class="cls-1" d="M401.33,365.94,377.2,388.18l-6.29-1.52s-16.14,5.17-16.68,18.17a15.73,15.73,0,0,0,6.07,13.27s-7.64,4-7.21,13c.38,7.91,7.28,12.12,7.28,12.12A23.27,23.27,0,0,0,354,457.06a15.48,15.48,0,0,0,4.39,12.51,20.81,20.81,0,0,0-4,13.08c.24,6.88,6.16,12.15,6.16,12.15s-8.31,7.12-6,16.47c3.5,14.24,19.22,7.5,19.22,7.5l0-.4c4.06-.44,21.73-18,23.25-19.81,2.76-3.19,4.17-4.69,4.35-6.77S401.33,365.94,401.33,365.94Z"/></clipPath><clipPath id="clip-path-2" transform="translate(-184.92 -310.27)"><path class="cls-1" d="M191.7,519.14h0c4.66.33,16.65.51,19.23-7.5,2.95-9.17-6-16.47-6-16.47s5.92-5.27,6.17-12.15a20.88,20.88,0,0,0-4-13.08,15.48,15.48,0,0,0,4.39-12.51A23.29,23.29,0,0,0,205,443.56s6.9-4.21,7.28-12.12c.43-9-7.2-13-7.2-13a15.73,15.73,0,0,0,6.07-13.27c-.54-13-16.69-11.2-16.69-11.2l-6.29,1.51.5,114.61A15.18,15.18,0,0,0,191.7,519.14Z"/></clipPath></defs><polygon class="cls-2" points="189.49 70.8 189.83 206.93 181.03 210.09 7.46 208.91 7.13 83.22 90.28 29.05 189.49 70.8"/><g class="cls-3"><polygon class="cls-4" points="189.99 74.44 215.02 51.32 221.45 58.62 218.32 186.2 189.47 212.97 189.99 74.44"/><polygon class="cls-5" points="192.25 73.4 192.25 213.84 177.13 217.49 159.22 205.15 159.75 78.61 186.51 68.88 192.25 73.4"/><path class="cls-6" d="M391.37,383.16a1.21,1.21,0,0,0,1.21,1.92c1.47-.13,3.47-2,3.85-2.78.47-.92-.32-2-1.63-1.57A7.32,7.32,0,0,0,391.37,383.16Z" transform="translate(-184.92 -310.27)"/><path class="cls-6" d="M387,391.42a1.21,1.21,0,0,0,1.2,1.93c1.48-.14,3.47-2,3.86-2.78.47-.93-.33-2-1.64-1.58A7.34,7.34,0,0,0,387,391.42Z" transform="translate(-184.92 -310.27)"/><path class="cls-6" d="M381.8,422.79a1.2,1.2,0,0,0,1.2,1.92c1.48-.13,3.47-2,3.86-2.78.47-.92-.32-2-1.63-1.57A7.32,7.32,0,0,0,381.8,422.79Z" transform="translate(-184.92 -310.27)"/><path class="cls-6" d="M387.7,443.87a1.21,1.21,0,0,0,1.21,1.92c1.47-.13,3.47-2,3.85-2.78.47-.92-.32-2-1.63-1.57A7.32,7.32,0,0,0,387.7,443.87Z" transform="translate(-184.92 -310.27)"/><path class="cls-6" d="M381.46,503a1.21,1.21,0,0,0,1.21,1.92c1.47-.13,3.47-2,3.85-2.78.47-.92-.32-2-1.63-1.57A7.25,7.25,0,0,0,381.46,503Z" transform="translate(-184.92 -310.27)"/><path class="cls-6" d="M381.46,473.72a1.21,1.21,0,0,0,1.21,1.92c1.47-.13,3.47-2,3.85-2.78.47-.92-.32-2-1.63-1.57A7.32,7.32,0,0,0,381.46,473.72Z" transform="translate(-184.92 -310.27)"/><path class="cls-4" d="M372.46,440.75c-12.62,2.87-19.52-8.65-19.81-9.14l-2.16,1.25,2.16-1.24-2.16,1.24-2.17,1.25c2.64,4.58,9.89,12.09,20.24,12.09a22.29,22.29,0,0,0,5-.58,14.83,14.83,0,0,0,3.6-1.44v-5.82A15,15,0,0,1,372.46,440.75Z" transform="translate(-184.92 -310.27)"/><polygon class="cls-7" points="167.73 148.37 165.57 149.63 167.74 148.38 167.73 148.37"/><path class="cls-4" d="M372.46,467.79c-12.58,2.87-19.49-8.59-19.81-9.14l-2.16,1.25-2.17,1.25c2.64,4.57,9.9,12.09,20.25,12.09a22.27,22.27,0,0,0,5-.58,14.83,14.83,0,0,0,3.6-1.44V465.4A15,15,0,0,1,372.46,467.79Z" transform="translate(-184.92 -310.27)"/><path class="cls-4" d="M372.46,492c-12.62,2.87-19.52-8.65-19.81-9.14l-4.33,2.5c2.64,4.57,9.9,12.09,20.25,12.09a22.27,22.27,0,0,0,5-.58,14.83,14.83,0,0,0,3.6-1.44v-5.82A15,15,0,0,1,372.46,492Z" transform="translate(-184.92 -310.27)"/><path class="cls-4" d="M372.46,414.93c-12.58,2.87-19.49-8.59-19.81-9.13L350.49,407l-2.17,1.25c2.64,4.58,9.9,12.09,20.25,12.09a22.27,22.27,0,0,0,5-.58,14.43,14.43,0,0,0,3.6-1.44v-5.82A15,15,0,0,1,372.46,414.93Z" transform="translate(-184.92 -310.27)"/><polygon class="cls-7" points="167.73 95.51 165.57 96.77 167.74 95.52 167.73 95.51"/><path class="cls-7" d="M411.45,410.22l-3.91-3.12c-.06.08-6.42,8-14,16.19-7.77,8.34-12.95,12.75-16.35,15.07v5.82C389.37,437.62,409,413.25,411.45,410.22Z" transform="translate(-184.92 -310.27)"/><path class="cls-7" d="M411.45,437.26l-3.91-3.12c-.06.08-6.42,8-14,16.19-7.77,8.33-12.95,12.75-16.35,15.07v5.82C389.37,464.66,409,440.29,411.45,437.26Z" transform="translate(-184.92 -310.27)"/><path class="cls-7" d="M411.45,461.43l-3.91-3.12c-.06.08-6.43,8.05-14,16.21-7.76,8.32-12.94,12.73-16.33,15.05v5.82C389.37,488.83,409,464.46,411.45,461.43Z" transform="translate(-184.92 -310.27)"/><path class="cls-7" d="M411.45,384.4l-3.91-3.11c-.06.07-6.42,8-14,16.18-7.77,8.34-12.95,12.75-16.35,15.07v5.82C389.37,411.8,409,387.43,411.45,384.4Z" transform="translate(-184.92 -310.27)"/></g><g class="cls-8"><polygon class="cls-5" points="3.31 80.73 3.31 221.18 18.43 217.86 36.34 205.52 35.81 78.98 9.05 69.25 3.31 80.73"/><path class="cls-4" d="M192.93,441.12c12.62,2.88,19.53-8.65,19.81-9.14l2.17,1.26L212.74,432l2.17,1.25,2.16,1.24c-2.64,4.58-9.89,12.09-20.24,12.09a22.29,22.29,0,0,1-5-.58,14.53,14.53,0,0,1-3.59-1.44v-5.82A14.93,14.93,0,0,0,192.93,441.12Z" transform="translate(-184.92 -310.27)"/><polygon class="cls-7" points="27.83 148.74 29.99 150 27.82 148.75 27.83 148.74"/><path class="cls-4" d="M192.93,468.16c12.59,2.87,19.49-8.59,19.81-9.14l2.17,1.25,2.16,1.25c-2.64,4.58-9.89,12.09-20.24,12.09a22.29,22.29,0,0,1-5-.58,14.93,14.93,0,0,1-3.59-1.44v-5.82A14.93,14.93,0,0,0,192.93,468.16Z" transform="translate(-184.92 -310.27)"/><path class="cls-4" d="M192.93,492.33c12.62,2.88,19.53-8.65,19.81-9.14l4.33,2.5c-2.64,4.57-9.89,12.09-20.24,12.09a22.29,22.29,0,0,1-5-.58,14.93,14.93,0,0,1-3.59-1.44v-5.82A14.93,14.93,0,0,0,192.93,492.33Z" transform="translate(-184.92 -310.27)"/><path class="cls-4" d="M192.93,415.3c12.59,2.87,19.49-8.59,19.81-9.13l2.17,1.25,2.16,1.25c-2.64,4.57-9.89,12.08-20.24,12.08a22.29,22.29,0,0,1-5-.58,14.15,14.15,0,0,1-3.59-1.44v-5.82A14.93,14.93,0,0,0,192.93,415.3Z" transform="translate(-184.92 -310.27)"/><polygon class="cls-7" points="27.83 95.89 29.99 97.14 27.82 95.89 27.83 95.89"/><line class="cls-7" x1="3.31" y1="128.46" x2="3.31" y2="134.28"/><line class="cls-7" x1="3.31" y1="155.5" x2="3.31" y2="161.32"/><line class="cls-7" x1="3.31" y1="179.67" x2="3.31" y2="185.49"/><line class="cls-7" x1="3.31" y1="102.64" x2="3.31" y2="108.46"/></g><path class="cls-9" d="M272.13,347a5,5,0,0,1,4.89-.3c14.64,7.15,88.08,43,92.4,44,4.81,1.13,7.07.56,10.17-2s26-23.62,27.08-25,.86-3.62-1.38-5S307.64,311.89,305.91,311a8.26,8.26,0,0,0-7.25.17c-2.24,1.38-79.19,50.21-81.26,51.93s-31.4,31.23-32.26,33.13.86,4.31,3.62,3.62C191.25,399.26,258.58,355.72,272.13,347Z" transform="translate(-184.92 -310.27)"/><path class="cls-9" d="M296.82,461.48a2.64,2.64,0,0,1-.78-.12A55,55,0,0,1,284.72,456,62.11,62.11,0,0,1,274,461.33a2.5,2.5,0,0,1-1.71-4.7,55.46,55.46,0,0,0,11-5.67l1.43-1,1.43,1a50.66,50.66,0,0,0,11.48,5.65,2.5,2.5,0,0,1-.78,4.87Z" transform="translate(-184.92 -310.27)"/><path class="cls-9" d="M333.75,446.38a2.5,2.5,0,0,1-1-4.78c14.48-6.47,34.21-9,46.42-8.54a2.49,2.49,0,0,1,2.41,2.58,2.45,2.45,0,0,1-2.58,2.41c-11.65-.39-30.45,2-44.21,8.12A2.62,2.62,0,0,1,333.75,446.38Z" transform="translate(-184.92 -310.27)"/><path class="cls-9" d="M359,458.15a2.67,2.67,0,0,1-.56-.06c-9.25-2.09-22-3.62-22.14-3.64a2.5,2.5,0,1,1,.59-5c.53.06,13.15,1.58,22.65,3.72a2.5,2.5,0,0,1-.54,4.94Z" transform="translate(-184.92 -310.27)"/><path class="cls-9" d="M240.69,446.38a2.5,2.5,0,0,0,1-4.78c-14.48-6.47-34.21-9-46.42-8.54a2.49,2.49,0,0,0-2.41,2.58,2.45,2.45,0,0,0,2.58,2.41c11.65-.39,30.45,2,44.21,8.12A2.62,2.62,0,0,0,240.69,446.38Z" transform="translate(-184.92 -310.27)"/><path class="cls-9" d="M215.46,458.15a2.67,2.67,0,0,0,.56-.06c9.25-2.09,22-3.62,22.14-3.64a2.5,2.5,0,1,0-.59-5c-.53.06-13.15,1.58-22.65,3.72a2.5,2.5,0,0,0,.54,4.94Z" transform="translate(-184.92 -310.27)"/><ellipse class="cls-9" cx="70.99" cy="124.71" rx="8.29" ry="8.54"/><ellipse class="cls-9" cx="128.3" cy="124.37" rx="8.29" ry="8.54"/><path class="cls-10" d="M285.18,438.24c-6.17,0-10.48,3.53-9.07,6.64.87,1.9,4.85,6.85,9.07,6.71,3.47-.11,8.21-4.8,9-7.21C295.19,441.42,291.51,438.24,285.18,438.24Z" transform="translate(-184.92 -310.27)"/></svg>