<svg id="Layer_1" data-name="Layer 1" xmlns="http://www.w3.org/2000/svg" viewBox="0 0 209.14 364.2"><defs><style>.cls-1{fill:#ebf0f4;}.cls-2{fill:#fff;}.cls-3{fill:#f9cbcc;}.cls-4{fill:#535681;}.cls-5{fill:#f0827b;}.cls-6{fill:#98c38a;}.cls-7{fill:#feeb98;}</style></defs><path class="cls-1" d="M211.41,299.63s-.18,230.93-.18,235.14.18,8.05,2.93,12.26,15.18,22,15.18,22V315.73Z" transform="translate(-192.28 -218.36)"/><path class="cls-2" d="M226.82,561.76c.38,3,.63,9.71,9.72,9.87s144.4-.4,150.13,0,9-1.69,9-6.92,1.61-259,1.61-259l-77-63.39-93.52,75.4S226.3,557.65,226.82,561.76Z" transform="translate(-192.28 -218.36)"/><path class="cls-3" d="M258.12,510.24c-12.57.83-18.54,10.3-18.67,20.86s8.48,19.58,18.67,19.72,21-5.58,21.58-19.85S267,509.66,258.12,510.24Z" transform="translate(-192.28 -218.36)"/><path class="cls-3" d="M369.39,512.2c-12.58.83-18.54,10.29-18.67,20.86s8.48,19.58,18.67,19.72,21-5.58,21.58-19.86S378.29,511.62,369.39,512.2Z" transform="translate(-192.28 -218.36)"/><path class="cls-4" d="M311.68,525.43a2.36,2.36,0,0,1-1.57-4.12c.17-.14,4-3.54,5.09-4.44,2.35-1.93,5.09-2.18,7.16-.65,1.53,1.13,5.23,4.45,5.38,4.59a2.35,2.35,0,0,1-3.14,3.51c-1-.92-3.92-3.48-5-4.31-.33-.24-1.09.27-1.36.5-1,.85-4.92,4.29-5,4.32A2.35,2.35,0,0,1,311.68,525.43Z" transform="translate(-192.28 -218.36)"/><path class="cls-4" d="M300.82,471.47c1.21-4.34-12.05-9.35-19.42-9.53s-17.45,1.44-17.27,7.55,8.46,7.55,18.35,7.55S299.56,476,300.82,471.47Z" transform="translate(-192.28 -218.36)"/><path class="cls-4" d="M333.55,476c-2.74-4.75.89-10.8,11-15.46s18.4-4.07,21.25-.8c3.47,4-4.34,10.69-10.46,13.93S336.36,480.86,333.55,476Z" transform="translate(-192.28 -218.36)"/><path class="cls-5" d="M282.51,481.93c-14.7,1-21.68,12.18-21.84,24.67s9.92,23.16,21.84,23.32,24.61-6.6,25.24-23.48S292.93,481.24,282.51,481.93Z" transform="translate(-192.28 -218.36)"/><path class="cls-4" d="M283.72,500.06c-3.71.24-5.47,3.07-5.51,6.22a5.79,5.79,0,0,0,5.51,5.89c3,0,6.21-1.67,6.37-5.93A6.05,6.05,0,0,0,283.72,500.06Z" transform="translate(-192.28 -218.36)"/><path class="cls-5" d="M353.48,481.24c14.91,1,22,11.95,22.14,24.21a22.86,22.86,0,0,1-22.14,22.89c-12.09.15-24.94-6.49-25.58-23.05S342.93,480.56,353.48,481.24Z" transform="translate(-192.28 -218.36)"/><path class="cls-4" d="M352.26,499c3.76.24,5.55,3,5.59,6.11a5.77,5.77,0,0,1-5.59,5.77c-3.05,0-6.3-1.63-6.46-5.81S349.59,498.85,352.26,499Z" transform="translate(-192.28 -218.36)"/><path class="cls-4" d="M319.65,249.21a2.7,2.7,0,0,1,3.41,0c10.67,8.72,68.08,55.65,70.81,57.85,3,2.44,9.45,3,7-1.28s-14.88-21.9-17-24.48-71.71-59.54-74-61.26-5-2.72-8.44,0-89.89,71.14-91.61,72.43-3.17,3.61-1.21,6.51,14.68,19.95,15.91,21.62,3.76,3,8.17-.58C236.7,316.77,307.69,259,319.65,249.21Z" transform="translate(-192.28 -218.36)"/><path class="cls-6" d="M218.32,558.14l.29,10.4s6.18-11.95,14.88-12.21c10.71-.33,8.22,15.07-2.67,20.7S215,582.55,215,582.55s-15.25-.7-19.18-9.54,5.51-11.13,10-9.12a38.81,38.81,0,0,1,7.75,4.7l-.47-13.07Z" transform="translate(-192.28 -218.36)"/><path class="cls-7" d="M203.91,535.09c-1.23,1.38-11,4.95-11.58,8.71s3.34,7.52,8.26,8.9c0,0-2.81,9.3-1.05,12.47s5.8,2.18,8.79.4,4.92-5.35,6.85-5.35,7.74,5.54,13,4.55,4-10.84,3-13.85c-.84-2.43-1.58-3.56-1.41-4.95s8.44-5.74,9-10.88-5.27-6.93-9-6.34-6,1.19-6,1.19-4.57-5.94-7.39-7.91-6.68-1.79-8.79,2.37A61.59,61.59,0,0,0,203.91,535.09Z" transform="translate(-192.28 -218.36)"/></svg>