<svg id="Layer_1" data-name="Layer 1" xmlns="http://www.w3.org/2000/svg" viewBox="0 0 250.77 260.08"><defs><style>.cls-1{fill:#78bfe0;}.cls-2{fill:#96d3f2;}.cls-3{fill:#4a73b8;}.cls-4{fill:#3e68b0;}.cls-5{fill:#f9cdd3;}</style></defs><path class="cls-1" d="M416.47,514.7c-.21,5.49-.71,7.13-4.49,10.7-3.08,2.9-22.41,19.35-33.54,24.23l1.11-178.84L416.33,354S416.61,511.26,416.47,514.7Z" transform="translate(-172.75 -290.57)"/><path class="cls-2" d="M383.7,380.36s0,162.11-.94,165.13-2.52,4.36-9.14,5-190.7-1.34-193.22-2.68-4.41-3.7-4.09-8.4,2-149.93,2-149.93L278,316.25Z" transform="translate(-172.75 -290.57)"/><path class="cls-3" d="M278.41,326.84c-1.57-.87-4-1.14-5.28-.33-13.14,8.36-88.73,66.33-94.82,67.69-5.62,1.26-6.93-2.72-4.14-6,2-2.33,128.71-95.1,131.28-96.62,2.25-1.34,4.11-1.54,7.46.23,3.89,2,106.85,56.3,109.16,58.74,1.47,1.55,2.28,3.51.21,5.61s-31.79,25.07-33.73,26.6c-3.52,2.77-5,2.37-8.22.41C376.65,381,288,332.22,278.41,326.84Z" transform="translate(-172.75 -290.57)"/><path class="cls-4" d="M276.09,467.06a21.06,21.06,0,0,1-5.6-.65,2.5,2.5,0,0,1,1.45-4.78s4.67,1.3,11.56-.64a28.82,28.82,0,0,0,11.67-6.77,2.5,2.5,0,0,1,3.61,3.46,33.57,33.57,0,0,1-13.93,8.13A32.53,32.53,0,0,1,276.09,467.06Z" transform="translate(-172.75 -290.57)"/><path class="cls-4" d="M339.62,404.94a39.46,39.46,0,0,1-3.32,3c-1.13.93-2.3,1.79-3.48,2.62a76.24,76.24,0,0,1-7.41,4.55c-2.57,1.32-5.18,2.59-7.86,3.67-1.33.59-2.71,1-4.07,1.5-.69.24-1.39.41-2.08.61a3.81,3.81,0,0,1-2.23.09,2.87,2.87,0,0,1-2-3.54,2.8,2.8,0,0,1,.5-1l.1-.13a3.58,3.58,0,0,1,1.77-1.18c.64-.23,1.29-.43,1.92-.69l3.82-1.4c2.55-.92,5-2,7.5-3.14s4.88-2.38,7.23-3.73c1.18-.66,2.33-1.38,3.47-2.09s2.3-1.5,3.27-2.23l.1-.08a2.09,2.09,0,0,1,2.74,3.15Z" transform="translate(-172.75 -290.57)"/><ellipse class="cls-4" cx="146.57" cy="140.75" rx="7.7" ry="9.77"/><ellipse class="cls-4" cx="62.47" cy="139.88" rx="7.7" ry="9.77"/><ellipse class="cls-5" cx="33.79" cy="162.12" rx="18.48" ry="18.59"/><ellipse class="cls-5" cx="177.53" cy="161.51" rx="18.48" ry="18.59"/><path class="cls-4" d="M216.56,418.57c2.3-.09,4.61-.13,6.92-.16l6.9-.06,6.88,0c1.14,0,2.28,0,3.42,0l1.7.06a2.54,2.54,0,0,1,1.71.56l.07,0a3.08,3.08,0,0,1,.49,4.33,3.75,3.75,0,0,1-.44.45,2.73,2.73,0,0,1-1.76.62l-1.76.08q-1.75,0-3.51,0c-2.33-.08-4.66-.2-7-.33s-4.63-.34-6.94-.56-4.62-.49-6.93-.83a2.1,2.1,0,0,1,.22-4.18Z" transform="translate(-172.75 -290.57)"/><path class="cls-4" d="M284.26,448.84a2.6,2.6,0,0,0-1.47-1.37l-.12,0a13.27,13.27,0,0,0-3.5-.67,27.9,27.9,0,0,1-3.17-.44c-.32-.07-.65-.15-1-.24h0q0-.79-.06-1.65c-.06-4.39.09-9,.23-13.43l.95-29.06h0a2.26,2.26,0,0,0-4.51-.3c-.41,3.88-.74,7.82-1.06,11.64l-.22,2.57c-.43,5.21-.76,9.87-1,14.25l0,.51c-.24,4.51-.49,9.17-.52,13.88,0,.63,0,1.26,0,1.91,0,.23,0,.49.05.75l.14,1.05a1.3,1.3,0,0,0,0,.19c0,.15.08.3.13.45a4.91,4.91,0,0,0,.42.87,6.61,6.61,0,0,0,1,1c.25.18.5.34.74.49a2.65,2.65,0,0,0,.53.27l.37.16a3.21,3.21,0,0,0,.45.18,13.77,13.77,0,0,0,2.17.54,33.94,33.94,0,0,0,3.89.43c.33,0,.67,0,1,0a9.52,9.52,0,0,0,2.89-.4,2.62,2.62,0,0,0,1.69-1.59A2.59,2.59,0,0,0,284.26,448.84Z" transform="translate(-172.75 -290.57)"/></svg>