<svg xmlns="http://www.w3.org/2000/svg" viewBox="0 0 215.05 228"><defs><style>.cls-1{fill:#999cba;}.cls-2{fill:#babcd1;}.cls-3{fill:#5e6289;}.cls-4{fill:#515580;}.cls-5{fill:#767a9d;}</style></defs><g id="Layer_1" data-name="Layer 1"><polyline class="cls-1" points="185.34 224.02 208.68 189.53 207.97 146.91 185.68 176.93 185.34 224.02"/><path class="cls-2" d="M867.68,660.75l0,44.33a6.74,6.74,0,0,1-6.74,6.74l-167.62,0a4.47,4.47,0,0,1-4.48-4.48V660.75S867.68,659.52,867.68,660.75Z" transform="translate(-681.99 -483.82)"/><polygon class="cls-3" points="6.92 109.34 6.92 177.55 185.73 177.55 185.73 111.86 95.38 62.48 6.92 109.34"/><path class="cls-2" d="M763,626.58c-.63,8.82-15.13,12.13-27.1,12.55s-24.38.68-24.38-10,.42-17.65,6.73-17.44S763.56,619.23,763,626.58Z" transform="translate(-681.99 -483.82)"/><path class="cls-2" d="M789.93,627.63c.63,8.82,15.13,12.13,27.11,12.55s24.37.68,24.37-10-.42-17.65-6.72-17.44S789.41,620.28,789.93,627.63Z" transform="translate(-681.99 -483.82)"/><path class="cls-3" d="M774.19,682.14a2.3,2.3,0,0,1-.81-.14,2.5,2.5,0,0,1-1.56-3.16c.15-.45,3.85-11.05,12.88-12.52,13.25-2.17,21.89,7.48,22.25,7.89a2.5,2.5,0,1,1-3.75,3.3c-.29-.32-7.23-8-17.7-6.26-6,1-8.92,9.12-9,9.2A2.49,2.49,0,0,1,774.19,682.14Z" transform="translate(-681.99 -483.82)"/><polygon class="cls-4" points="185.68 111.23 207.97 80.96 207.97 146.91 185.68 177.52 185.68 111.23"/><path class="cls-5" d="M896.44,560.15l-25.77,38.66A3.62,3.62,0,0,1,866,600L778,555a3.59,3.59,0,0,0-3.27,0l-87.42,44.19a3.61,3.61,0,0,1-2.5.28l-.07,0a3.6,3.6,0,0,1-2.73-3.32l0-1.1a3.62,3.62,0,0,1,.59-2.17l24.12-36.43a3.68,3.68,0,0,1,1.34-1.2l89.71-46.95a11,11,0,0,1,10.32.06L895.14,555A3.59,3.59,0,0,1,896.44,560.15Z" transform="translate(-681.99 -483.82)"/><path class="cls-3" d="M722,483.87c-8.78-1.65-12.71,45.45-13.1,57.78-.28,8.89-.55,21.39-.69,27.67a2.45,2.45,0,0,0,3.48,2.27c8.86-4.13,31.49-14.86,35.8-18.56,5.4-4.62-3.08-20.59-9.24-39.08S728.15,485,722,483.87Z" transform="translate(-681.99 -483.82)"/><path class="cls-3" d="M863.17,487.23c8.78-1.65,12.71,45.45,13.1,57.78.28,8.89.55,21.39.69,27.67a2.45,2.45,0,0,1-3.48,2.27c-8.86-4.13-31.49-14.86-35.8-18.56-5.4-4.62,3.08-20.59,9.24-39.08S857,488.38,863.17,487.23Z" transform="translate(-681.99 -483.82)"/></g></svg>