<svg id="Layer_1" data-name="Layer 1" xmlns="http://www.w3.org/2000/svg" viewBox="0 0 208.15 199.31"><defs><style>.cls-1{fill:#f0cc63;}.cls-2{fill:#fbdc7e;}.cls-3{fill:#bf9a8c;}.cls-4{fill:#bd7f65;}.cls-5{fill:#f6ad9a;}.cls-6{fill:#ae6f52;}</style></defs><path class="cls-1" d="M395.83,373.8s.56,106.46-.64,112.22-21,20.35-24.81,21.91c-1.45.59.68-108.66.68-108.66Z" transform="translate(-193.92 -310.37)"/><path class="cls-2" d="M372.27,394.14s.7,105.52.48,109.43-4.57,6.1-8.49,6.1h-155c-6.09,0-11.4-2.09-11.62-17.76S199,393.37,199,393.37l84.72-55.29Z" transform="translate(-193.92 -310.37)"/><path class="cls-3" d="M380.18,392.23s.48,92.07-.4,109.44c2.58-2,5.32-4.17,7.76-6.36,1.26-1.13,0-110.88,0-110.88Z" transform="translate(-193.92 -310.37)"/><path class="cls-4" d="M279.78,347.35a6.06,6.06,0,0,1,6.58-.05c15.47,9.86,76.16,47.09,79.52,49.5,3.81,2.74,8.58,3,14.93-4.11s17.84-19.11,20.06-21.58,1.27-3.83-2.22-6-84-52.62-85.63-53.72-4.67-1.59-8.09.05c-5.84,2.78-78.26,52-82.39,55s-25.46,24.4-27.69,27.69-.54,7.67,5.82,4.1C206.16,395.16,266.42,356.11,279.78,347.35Z" transform="translate(-193.92 -310.37)"/><path class="cls-5" d="M341.45,445s1.16-6.35,6.17-4.53c3.74,1.36,2.5,11.42,0,13.44s-14.54-.25-13.28-6.08S341.45,445,341.45,445Z" transform="translate(-193.92 -310.37)"/><path class="cls-5" d="M231.07,445s-1.16-6.35-6.16-4.53c-3.75,1.36-2.51,11.42,0,13.44s14.53-.25,13.28-6.08S231.07,445,231.07,445Z" transform="translate(-193.92 -310.37)"/><ellipse class="cls-6" cx="126.98" cy="125.27" rx="8.25" ry="9.8"/><ellipse class="cls-6" cx="55.65" cy="125.27" rx="8.25" ry="9.8"/><path class="cls-6" d="M284.56,452.07c-6.63,0-13.5-7.53-14.26-8.38a2.72,2.72,0,0,1,.16-3.76,2.51,2.51,0,0,1,3.63.17c1.54,1.72,6.77,6.65,10.47,6.65,3.32,0,8.69-4.7,11.3-7.66a2.52,2.52,0,0,1,3.64-.18,2.71,2.71,0,0,1,.17,3.75C298.82,443.62,291.2,452.07,284.56,452.07Z" transform="translate(-193.92 -310.37)"/></svg>