<svg id="Layer_1" data-name="Layer 1" xmlns="http://www.w3.org/2000/svg" viewBox="0 0 308.85 318.51"><defs><style>.cls-1{fill:#e7e0e9;}.cls-2{fill:#d5c9d7;}.cls-3{fill:#f5edf6;}.cls-4{fill:#ffe3ba;}.cls-5{fill:#f7d39d;}.cls-6{fill:#c79e86;}.cls-7{fill:#f6b3ba;}.cls-8{fill:#ef8b93;}.cls-9{fill:#ac7f63;}.cls-10{fill:#e4be89;}.cls-11{fill:#dab47d;}.cls-12{fill:#fee6c3;}.cls-13{fill:#d3ab74;}.cls-14{fill:#f9d7a6;}</style></defs><path class="cls-1" d="M183.6,286.62c-27.16,0-45.19,35.58-30.48,70.69S176.75,409,177.5,439.38s-4,63.54,1.45,71.62,17.8,5.11,20.18-5.16c3-12.66,1.24-53.44,1.53-67.88,1-48.76,18.4-59.93,20.77-94.7C223.28,316.1,218.34,286.62,183.6,286.62Z" transform="translate(-147.86 -262.02)"/><path class="cls-2" d="M205.69,383.81a2.51,2.51,0,0,1-2.44-3.05c5.68-25.56,7.35-38,5.41-57.07-1.15-11.34-7.45-17.38-11.1-20-4.17-3-8.07-3.82-9.51-3.47a2.5,2.5,0,1,1-1.16-4.87c3.39-.81,8.85.91,13.57,4.26,4.34,3.08,11.82,10.24,13.18,23.55,2,19.72.3,32.51-5.51,58.66A2.51,2.51,0,0,1,205.69,383.81Z" transform="translate(-147.86 -262.02)"/><path class="cls-3" d="M164.5,352c-2.42.16-.25,8.53,3.45,7.47S168.19,351.75,164.5,352Z" transform="translate(-147.86 -262.02)"/><path class="cls-3" d="M169.53,365.05c-2.5.37.63,9.85,4.08,8.87S174.56,364.31,169.53,365.05Z" transform="translate(-147.86 -262.02)"/><path class="cls-4" d="M347.24,345.33s0-19.32,0-22.66.11-5.42,4.75-5.73,26.57.2,29.39.34,4.49,3.72,4.49,6.58v45.81Z" transform="translate(-147.86 -262.02)"/><path class="cls-5" d="M192.76,375.21s-1,136.5-1.27,145.61.51,11.62,3,13.92,29.12,27.52,33.43,28,2.53-160.13,2.53-160.13Z" transform="translate(-147.86 -262.02)"/><path class="cls-4" d="M433.57,403.82s.79,148.8.28,153.67-6.37,5.27-14.78,5.35-184.78-.28-188.83,0-5.32-3-5.32-9.09V403.32l108.89-58Z" transform="translate(-147.86 -262.02)"/><path class="cls-6" d="M331.56,352.58a6,6,0,0,1,6,.08c16.25,9.64,93.74,55.6,96,56.74,2.55,1.26,8.38-2,5.85-5.83s-37.62-31.91-41.22-35.45-94.78-55-98.57-57.24-6.59-2.27-12.41.76-98.06,53.19-101,55.21-3.9,5.57-.6,8.36,36.46,32.16,38.49,33.43,4.56,1.52,7.6-.26C234.48,406.79,314.87,361.9,331.56,352.58Z" transform="translate(-147.86 -262.02)"/><path class="cls-6" d="M198.08,463.87a13.52,13.52,0,0,0-6,1.42l-.2,23.22a13.55,13.55,0,0,0,6.23,1.51,13.08,13.08,0,1,0,0-26.15Z" transform="translate(-147.86 -262.02)"/><path class="cls-6" d="M224.92,503.91a12.15,12.15,0,0,0-9.67-4.75,11.84,11.84,0,1,0,0,23.68,12.15,12.15,0,0,0,9.67-4.75Z" transform="translate(-147.86 -262.02)"/><path class="cls-7" d="M344.71,500.08a19.49,19.49,0,0,1-6.62-13.38c-.24-6.08,5.89-10.92,12.59-10.5s11.52,10.37,11.83,13.93l-7.22,5.76Z" transform="translate(-147.86 -262.02)"/><path class="cls-8" d="M354.75,496.58a1.51,1.51,0,0,1-1.37-.87,31.23,31.23,0,0,0-5.69-8.51,1.5,1.5,0,0,1,2.1-2.14,33.75,33.75,0,0,1,6.32,9.39,1.49,1.49,0,0,1-.74,2A1.37,1.37,0,0,1,354.75,496.58Z" transform="translate(-147.86 -262.02)"/><path class="cls-9" d="M269.37,475.13a3,3,0,0,1-2.41-4.78c.53-.72,5.41-7.08,11.77-7.79,6.92-.77,11.4,5.5,11.59,5.77a3,3,0,0,1-4.92,3.44s-2.65-3.62-6-3.25-6.66,4.11-7.61,5.4A3,3,0,0,1,269.37,475.13Z" transform="translate(-147.86 -262.02)"/><path class="cls-9" d="M388,475.13a3,3,0,0,1-2.41-1.21c-1-1.38-4.41-5-7.61-5.4-3.37-.37-6,3.22-6,3.26a3,3,0,0,1-4.9-3.45c.18-.27,4.66-6.54,11.59-5.77,6.36.71,11.23,7.07,11.76,7.79a3,3,0,0,1-.62,4.2A3.06,3.06,0,0,1,388,475.13Z" transform="translate(-147.86 -262.02)"/><path class="cls-9" d="M327.53,504.43c-.9,0-1.8,0-2.73-.05a63.05,63.05,0,0,1-37.67-14.2,2,2,0,0,1,2.69-3h0A60.07,60.07,0,0,0,325,500.38c23.08.9,36.17-11.08,36.3-11.21a2,2,0,0,1,2.75,2.92C363.45,492.61,350.63,504.43,327.53,504.43Z" transform="translate(-147.86 -262.02)"/><ellipse class="cls-7" cx="106.11" cy="227.28" rx="13.35" ry="13.07"/><ellipse class="cls-7" cx="256.91" cy="227.28" rx="13.35" ry="13.07"/><path class="cls-10" d="M410.44,529.41c-2.53,2-12.24,10.12-12.24,10.12l41.44,3-1.41,37.72s6.26-.17,7.88-1.25a87.16,87.16,0,0,0,9.07-8.89c.81-1.17,1.53-3.87,1.53-7.28s-.09-24.53-.18-26.68-1.35-7.73-6.74-8.09-35,0-36.12.09A6.58,6.58,0,0,0,410.44,529.41Z" transform="translate(-147.86 -262.02)"/><path class="cls-5" d="M438.67,580.25c3.49,0,4.45-2.22,4.76-6.67s.64-27.61,0-31.74-3.49-4.76-7.3-4.76-29.84.35-33.33.33-7,3.48-7,8.24-.56,27.38.63,29.84c1.36,2.78,2.54,4.13,7.94,4.76S436.13,580.25,438.67,580.25Z" transform="translate(-147.86 -262.02)"/><path class="cls-11" d="M408.2,548.52c1.39-.1,1.72,3.15,0,3.15S404.77,548.76,408.2,548.52Z" transform="translate(-147.86 -262.02)"/><path class="cls-11" d="M422.17,566c-.2,1.38-3.45,1-3.07-.69S422.69,562.63,422.17,566Z" transform="translate(-147.86 -262.02)"/><path class="cls-11" d="M416.25,546.19c-.3-1.27,2.23-2,2.51-.44S417,549.33,416.25,546.19Z" transform="translate(-147.86 -262.02)"/><path class="cls-11" d="M434.6,552.73c1.11-1.17,3.61.94,2.16,2.3S431.86,555.64,434.6,552.73Z" transform="translate(-147.86 -262.02)"/><path class="cls-11" d="M400.47,566.25c.11-1.62,4.42-1.35,4.12.62S400.19,570.24,400.47,566.25Z" transform="translate(-147.86 -262.02)"/><path class="cls-11" d="M432.81,561.34c-1.21-.07-2.91,2.35-.49,2.67S435.56,561.5,432.81,561.34Z" transform="translate(-147.86 -262.02)"/><path class="cls-11" d="M408.48,571.53a.94.94,0,0,0-.24,1.86C409.45,573.55,409.69,571.53,408.48,571.53Z" transform="translate(-147.86 -262.02)"/><path class="cls-12" d="M404.11,543.19c-1.13,0-1.69,2.51-.08,2.34S406.38,543.11,404.11,543.19Z" transform="translate(-147.86 -262.02)"/><path class="cls-12" d="M429.82,545.13c.59.82,3.72,1.29,4,.08s-1.78-1.7-2.59-1.7S429.41,544.56,429.82,545.13Z" transform="translate(-147.86 -262.02)"/><path class="cls-12" d="M424,555.88c0,.8,2.42,1.13,2.83.08S424,554.43,424,555.88Z" transform="translate(-147.86 -262.02)"/><path class="cls-12" d="M407.79,562.67c-.23.94,2.71,1.94,2.87.24S408,561.86,407.79,562.67Z" transform="translate(-147.86 -262.02)"/><path class="cls-12" d="M423.19,574.15c.52,1,2.75.56,3.4-.24s-.73-1.94-2-1.86A1.49,1.49,0,0,0,423.19,574.15Z" transform="translate(-147.86 -262.02)"/><path class="cls-12" d="M433.05,573.26c-1.86-.61-4.44,1.94-1.13,2.67S436.77,574.47,433.05,573.26Z" transform="translate(-147.86 -262.02)"/><path class="cls-12" d="M440.33,569.62c-.53-.68-3.4-.08-2.51,1S441.46,571.08,440.33,569.62Z" transform="translate(-147.86 -262.02)"/><path class="cls-13" d="M423.11,534.74c-1.7,0-3.07-2.51-1.94-3.32s3.39-.56,3.64.89A2.13,2.13,0,0,1,423.11,534.74Z" transform="translate(-147.86 -262.02)"/><path class="cls-13" d="M433.57,531.3c-.82-.24-1.22,3,.23,3S435.27,531.81,433.57,531.3Z" transform="translate(-147.86 -262.02)"/><path class="cls-13" d="M449.45,538.23c-.43.67.93,2.71,2.2,1.61S451,535.87,449.45,538.23Z" transform="translate(-147.86 -262.02)"/><path class="cls-13" d="M451.65,553.36c-1.69-.8-2.62,2.71-.59,2.79S453.42,554.21,451.65,553.36Z" transform="translate(-147.86 -262.02)"/><path class="cls-13" d="M446.77,562.24c-1.06,1-.69,2.49,1.59,2.77S448.59,560.6,446.77,562.24Z" transform="translate(-147.86 -262.02)"/><path class="cls-6" d="M190.66,542s10.62-16.19,20.49-14.22c10.56,2.11,4.87,11.34-3,17.25-8.66,6.55-22.2,12.47-22.2,12.47s-22.41-4.51-22.72-14.16c-.28-8.8,9.29-8.87,13.24-5.77s7,5,7,5l-.56-13.66,7.4-.35Z" transform="translate(-147.86 -262.02)"/><path class="cls-4" d="M185,486.11s6.46-2.87,10.13-.43c4.66,3.11,4.38,9,4.38,9s5.74.43,7,5.67a8.64,8.64,0,0,1-1.94,7.68s3.38,7,.08,12.07c-2.77,4.26-8.41,4.52-8.41,4.52s-.93,5.68-5.17,7.47-8.61-2.08-8.61-2.08a8.8,8.8,0,0,1-7.76,1.94,6.74,6.74,0,0,1-5.24-5.39s-4.81.86-7.54-.86-2-9-2-9-4.67-2.22-4.74-8.61,4.31-7.54,4.31-7.54-1.65-7.19,1.94-10.2,8.33-1.94,8.33-1.94,1.79-5,7-5.67A9,9,0,0,1,185,486.11Z" transform="translate(-147.86 -262.02)"/><path class="cls-14" d="M170.16,499.9c1.37,1.7,5.77-.22,3.64-2.55S167.4,496.48,170.16,499.9Z" transform="translate(-147.86 -262.02)"/><path class="cls-14" d="M193.23,498.45c-.26,1.14,1.71,4.24,3,3.53s.12-2.85-.5-3.56S193.42,497.66,193.23,498.45Z" transform="translate(-147.86 -262.02)"/><path class="cls-14" d="M180,521.25c0,1.11,2.43,3,3.32,1.94s-.56-2.55-1.24-2.93S180,520.48,180,521.25Z" transform="translate(-147.86 -262.02)"/><path class="cls-14" d="M194.88,509.93c0,1.09,2.43,1.54,2.83.11S194.88,508,194.88,509.93Z" transform="translate(-147.86 -262.02)"/><path class="cls-14" d="M170.24,518.7c0,1.42,3,2,3.48.14S170.24,516.09,170.24,518.7Z" transform="translate(-147.86 -262.02)"/><path class="cls-14" d="M176.07,513.6c-.23.94,2.71,1.94,2.87.24S176.28,512.79,176.07,513.6Z" transform="translate(-147.86 -262.02)"/><path class="cls-14" d="M190.87,521.77c.94.69,2.71-.74,2.92-1.76s-1.53-1.4-2.65-.74A1.5,1.5,0,0,0,190.87,521.77Z" transform="translate(-147.86 -262.02)"/><path class="cls-14" d="M178.64,506.22c.24-1.37-2-2-3-1.53s-.64,2.42.51,3A1.85,1.85,0,0,0,178.64,506.22Z" transform="translate(-147.86 -262.02)"/><path class="cls-14" d="M184.4,494.2c.9-1.86-2.87-4.45-3.94-1.13S182.61,497.92,184.4,494.2Z" transform="translate(-147.86 -262.02)"/><path class="cls-14" d="M186.31,511.63c-.94.76.37,4.11,1.83,2.85S188.34,510,186.31,511.63Z" transform="translate(-147.86 -262.02)"/><path class="cls-14" d="M185,503.55c-1.18-.18-2.79,3-.91,3.24S187.48,503.92,185,503.55Z" transform="translate(-147.86 -262.02)"/><path class="cls-14" d="M167.23,507.61c-1.51-.46-2.83,3-.43,3.65S170.47,508.59,167.23,507.61Z" transform="translate(-147.86 -262.02)"/><ellipse class="cls-6" cx="221.36" cy="46.84" rx="14.89" ry="14.58"/><ellipse class="cls-6" cx="201.89" cy="14.58" rx="14.89" ry="14.58"/></svg>