<svg id="Layer_1" data-name="Layer 1" xmlns="http://www.w3.org/2000/svg" viewBox="0 0 203.14 218.98"><defs><style>.cls-1{fill:#f3c57c;}.cls-2{fill:#fcd798;}.cls-3{fill:#f6ad9a;}.cls-4{fill:#dbab58;}</style></defs><path class="cls-1" d="M199.5,377.05s-.13,111.2.15,115.53c.3,4.58,1.22,5.94,3.21,8.21s18.32,17.05,21.94,17.86l2.48-5.25L228.13,400Z" transform="translate(-196.14 -300.68)"/><path class="cls-2" d="M394.81,392.64s2,114.38.85,118.14-2.55,7.15-8.22,7.72-157.32,1.7-160.72.85-5.67-3-6-8.57,0-108.5,0-108.5l96.38-67.46Z" transform="translate(-196.14 -300.68)"/><path class="cls-3" d="M315,343a5.3,5.3,0,0,1,6.45,0c14.07,10.82,69.68,53.37,73.88,53.37,4.82,0,4.54-2.55,2.55-6.24S379.5,364.3,377,360.9s-73.13-56-75.12-57.91-7.93-3.73-11.05-.69S199.22,370,197.52,371.38s-2,4.82,0,7.94,19.84,27.5,21.83,29.2,5.55,2.26,10.14-.85C233.55,404.92,299.55,354.73,315,343Z" transform="translate(-196.14 -300.68)"/><path class="cls-3" d="M307.69,419.27c-3.19,5.61-9.48,24.75-7.71,28.25,2,4,18.73,4.83,22.19,1.26,2.77-2.86-4.32-27.8-5.32-30.2C314.63,413.2,310.51,414.3,307.69,419.27Z" transform="translate(-196.14 -300.68)"/><path class="cls-4" d="M336.48,433.48c.71,2.8,9,6.51,15.14,6.34,5-.15,4.74-3.58,2-6.05s-10.69-8.08-13.45-7.45C337.8,426.86,335.51,429.65,336.48,433.48Z" transform="translate(-196.14 -300.68)"/><path class="cls-4" d="M285.92,433.48c-.71,2.8-9,6.51-15.14,6.34-5-.15-4.74-3.58-2-6.05s10.68-8.08,13.45-7.45C284.59,426.86,286.89,429.65,285.92,433.48Z" transform="translate(-196.14 -300.68)"/><path class="cls-4" d="M312.09,466.12a31,31,0,0,1-18.34-6.21,3.5,3.5,0,0,1,4.43-5.42,24.15,24.15,0,0,0,14.43,4.63c8.32-.2,14.37-5.67,14.43-5.72a3.5,3.5,0,0,1,4.76,5.13,31.28,31.28,0,0,1-19,7.59Z" transform="translate(-196.14 -300.68)"/><path class="cls-3" d="M357.47,443.83c-1.91,1.35-4.32,7.77-3.52,10.66a2.45,2.45,0,0,0,4.54.43,33.43,33.43,0,0,0,3.13-9.27A2.55,2.55,0,0,0,357.47,443.83Z" transform="translate(-196.14 -300.68)"/><path class="cls-3" d="M367.35,444.44c-1.91,1.34-4.32,7.76-3.52,10.65a2.45,2.45,0,0,0,4.54.44,33.49,33.49,0,0,0,3.13-9.28A2.55,2.55,0,0,0,367.35,444.44Z" transform="translate(-196.14 -300.68)"/><path class="cls-3" d="M377.74,444.64c-1.91,1.34-4.33,7.76-3.52,10.65a2.45,2.45,0,0,0,4.54.44,33.82,33.82,0,0,0,3.13-9.28A2.55,2.55,0,0,0,377.74,444.64Z" transform="translate(-196.14 -300.68)"/><path class="cls-3" d="M242.41,442.52c-1.92,1.35-4.33,7.77-3.52,10.66a2.45,2.45,0,0,0,4.54.43,33.38,33.38,0,0,0,3.12-9.27A2.54,2.54,0,0,0,242.41,442.52Z" transform="translate(-196.14 -300.68)"/><path class="cls-3" d="M252.29,443.13c-1.91,1.34-4.32,7.76-3.52,10.65a2.45,2.45,0,0,0,4.54.44,33.6,33.6,0,0,0,3.13-9.28A2.55,2.55,0,0,0,252.29,443.13Z" transform="translate(-196.14 -300.68)"/><path class="cls-3" d="M262.68,443.33c-1.92,1.34-4.33,7.76-3.52,10.65a2.45,2.45,0,0,0,4.54.44,33.43,33.43,0,0,0,3.12-9.28A2.54,2.54,0,0,0,262.68,443.33Z" transform="translate(-196.14 -300.68)"/></svg>