<svg id="Layer_1" data-name="Layer 1" xmlns="http://www.w3.org/2000/svg" viewBox="0 0 293.01 243.55"><defs><style>.cls-1{fill:#aed7ba;}.cls-2{fill:#90c9a0;}.cls-3{fill:#c3e1cb;}.cls-4{fill:#71b487;}.cls-5{fill:#f6b3ba;}.cls-6{fill:#8cc8a2;}</style></defs><polygon class="cls-1" points="176.67 3.89 114.88 49.05 222.26 110.22 222.45 238.38 289.3 190.66 287.1 60.1 176.67 3.89"/><path class="cls-2" d="M390.94,485.16A58.61,58.61,0,0,0,393.23,473c.34-5.84-1.9-18.8-7.62-17.71s-5.31,18.8-2.18,26.29,2.18,17.29,2.18,17.29-2.76-1.77-4.44,0-2,6.13,0,10.76,3.49,10.35,3.49,11.44l-8.45-2.18v13.89l28.17-19.75s-1.61-4.49-4.74-4.63-6.81,6.27-6.81,6.27V502.45s7.62-9.26,7.21-15.52S393.54,479.71,390.94,485.16Z" transform="translate(-151.06 -298.89)"/><path class="cls-2" d="M411.08,484.75s5.58,3,7.62,4.9a34.06,34.06,0,0,1,3.81,4.39l-2.45-9.29-9-11.58-1.23-16.61,4.22,1.5-1.69-7.22-1.17-14.71s1.77-12.53,7.9-12.94,5,13.48,3.4,17-2.86,11.85-2.45,15c0,0,3.27-6.88,7.63-4.57s-1,16-5.49,20.77c0,0,1.32,6.94,4.21,11,0,0,3.1-8.11,8.41-6.94s3.51,7.64,3.51,7.64l.3,6.23L411.75,508Z" transform="translate(-151.06 -298.89)"/><polygon class="cls-3" points="222.45 238.38 222.26 110.22 114.88 49.05 3.31 121.78 4.46 238.38 222.45 238.38"/><path class="cls-4" d="M249.45,466.45h19.16s.9,8.14-1.18,12.1c-2.9,5.52-11.66,6-15.55,1S249.45,466.45,249.45,466.45Z" transform="translate(-151.06 -298.89)"/><path class="cls-4" d="M313.55,478.72a4,4,0,0,1-3.84-2.89c-1-3.38-5.08-13.09-10.81-13.34-6.74-.29-10.71,10.21-10.75,10.31a4,4,0,0,1-7.53-2.68c.23-.66,5.91-16.18,18.63-15.63,12.46.55,17.6,17.23,18.15,19.13a4,4,0,0,1-2.74,4.95A4.24,4.24,0,0,1,313.55,478.72Z" transform="translate(-151.06 -298.89)"/><path class="cls-4" d="M202.62,478a4,4,0,0,1-1.35-.23,4,4,0,0,1-2.42-5.12c.62-1.71,6.28-16.71,16.23-18.05,12.72-1.73,19.7,14.34,20,15a4,4,0,0,1-7.37,3.13c0-.13-5-11.12-11.55-10.22-3.7.5-8,7.95-9.77,12.82A4,4,0,0,1,202.62,478Z" transform="translate(-151.06 -298.89)"/><path class="cls-5" d="M334.08,473c-3.24.53-7.41,3-6.74,8.2.64,5,6.85,5.35,10.5,4.06s6-5.7,4.31-8.93S336.56,472.55,334.08,473Z" transform="translate(-151.06 -298.89)"/><path class="cls-5" d="M186.43,476.9c3.28,0,7.81,1.72,8,6.93.22,5-5.84,6.44-9.66,5.79s-6.91-4.59-5.76-8.06S183.91,476.91,186.43,476.9Z" transform="translate(-151.06 -298.89)"/><path class="cls-6" d="M443,357.72c0-.06,0-.11,0-.17s0-.14,0-.21a4.85,4.85,0,0,0-.09-.55.79.79,0,0,1,0-.13,4.47,4.47,0,0,0-.25-.64l-.09-.16a3.36,3.36,0,0,0-.32-.51.56.56,0,0,1-.05-.08l0,0a4.81,4.81,0,0,0-.5-.51l-.14-.11a3.41,3.41,0,0,0-.44-.3l-.18-.11-.09,0L382.62,325.6h0L329,299.3l0,0-.15-.06a5.17,5.17,0,0,0-.51-.18l-.19-.05a3.74,3.74,0,0,0-.66-.09h0a3.54,3.54,0,0,0-.65,0,.63.63,0,0,0-.19,0,2.93,2.93,0,0,0-.6.15l-.08,0a4.29,4.29,0,0,0-.65.31l-.07,0L220.25,363.12l-.39.27-67.27,52.66,0,0a4.56,4.56,0,0,0-.5.48l-.1.12a4.3,4.3,0,0,0-.35.52l0,.07a4.3,4.3,0,0,0-.27.62.88.88,0,0,1-.05.15,5.18,5.18,0,0,0-.14.66v0a3.4,3.4,0,0,0,0,.45V538.44a4,4,0,0,0,4,4H373.5a4.39,4.39,0,0,0,.72-.07l.22,0a3.68,3.68,0,0,0,.47-.15l.24-.09a4.63,4.63,0,0,0,.43-.24l.19-.11.05,0,66.57-47.63a4,4,0,0,0,1.68-3.28Zm-11.45.83L408,377.29,360.85,352l20.64-18Zm-78.27-10.61L306.5,322.79l21.16-15.25,46,22.6Zm-54-19.94,47.6,25.57-25.22,22-49.41-28.12Zm55.13,29.61,46.71,25.09-28,22.18L329,379.79ZM377.5,478.18l26.88-18.37v51.63L377.5,530.66Zm0-9.69V411.63l26.88-21.3v59.79ZM412.38,384l22.73-18,.48,62.8-23.21,15.87ZM159.06,534.44V421.38L265,352.56,369.5,412V476.1h0v58.34Zm253.32-28.73V454.34l23.28-15.92.39,50.36Z" transform="translate(-151.06 -298.89)"/></svg>