<svg id="Layer_1" data-name="Layer 1" xmlns="http://www.w3.org/2000/svg" viewBox="0 0 207.34 217.44"><defs><style>.cls-1{fill:#4e548e;}.cls-2{fill:#5e65a2;}.cls-3{fill:#3d437f;}.cls-4{fill:#d4d5ec;}.cls-5{fill:#fff1b5;}.cls-6{fill:#e38c51;opacity:0.38;}.cls-7{fill:#ab6a44;}.cls-8{fill:#a15f37;}</style></defs><path class="cls-1" d="M197.29,396s-.85,101.22-.85,105.43,1.48,6.94,4.42,9.89,13.06,15.86,17.57,17.27l.74-116.6Z" transform="translate(-193.9 -312.95)"/><path class="cls-2" d="M213.49,410.3s-.21,104,0,108.16.42,9.47,8.42,11.37,160.56-1.48,165.82-2.32,6.95-2.94,7.37-8.41S397.62,421.24,394,412s-88.17-50.26-88.17-50.26Z" transform="translate(-193.9 -312.95)"/><path class="cls-3" d="M308.71,369.79a5.29,5.29,0,0,1,5.17.16c13.68,8.23,78.15,46.9,82.48,47.08,4.84.21,5.89-2.94,4-6.31s-12.21-16.41-14.31-19.78-80.94-48-84.6-50.09-6.52-1.89-10.52.22-92.59,45.14-95.33,47.19-1.68,5.2-.21,8.78S208,416,209.49,417.45s4.21,1.27,8.42-.63C221.68,415.12,293.91,377.5,308.71,369.79Z" transform="translate(-193.9 -312.95)"/><path class="cls-4" d="M373.67,393.18S374.14,390,375,390s1.56,3,1.56,3,2.21.12,2.21,1-2.21,1.56-2.21,1.56-.23,2.67-1.39,2.84-1.62-2.72-1.62-2.72-2.73-.19-2.85-1.58C370.58,393.28,373.67,393.18,373.67,393.18Z" transform="translate(-193.9 -312.95)"/><path class="cls-4" d="M297.48,346.91c-.77-.91-3.25,1.33-2.49,2.32C296.15,350.74,299.68,349.52,297.48,346.91Z" transform="translate(-193.9 -312.95)"/><path class="cls-4" d="M247.32,388.93c-.77-.91-3.26,1.33-2.49,2.32C246,392.76,249.52,391.54,247.32,388.93Z" transform="translate(-193.9 -312.95)"/><path class="cls-4" d="M287.36,371.65c-1.3-.34-2.55,2.2-.47,2.55S288.69,372,287.36,371.65Z" transform="translate(-193.9 -312.95)"/><path class="cls-4" d="M343.87,369.9c-1.3-.34-2.55,2.21-.46,2.55S345.21,370.25,343.87,369.9Z" transform="translate(-193.9 -312.95)"/><path class="cls-4" d="M391.33,404.43c-1.29-1.11-3.68,2-1.92,3.44S392.69,405.61,391.33,404.43Z" transform="translate(-193.9 -312.95)"/><path class="cls-4" d="M205.43,395.21c-.54-.85-3.09.92-1.53,2.37S206.32,396.6,205.43,395.21Z" transform="translate(-193.9 -312.95)"/><path class="cls-4" d="M356.6,382.93c-1.2-1.17-2.72,2.55-1.39,2.78S358.52,384.78,356.6,382.93Z" transform="translate(-193.9 -312.95)"/><path class="cls-4" d="M299.27,360.43c-1.21-1.17-2.73,2.55-1.39,2.78S301.18,362.29,299.27,360.43Z" transform="translate(-193.9 -312.95)"/><path class="cls-4" d="M313.62,355.75c-.84,0-2.49,3.07-.23,3.12S315.07,355.75,313.62,355.75Z" transform="translate(-193.9 -312.95)"/><path class="cls-4" d="M280.09,354.34c-1.33.12-1.16,1.91,0,2.26S282,354.17,280.09,354.34Z" transform="translate(-193.9 -312.95)"/><path class="cls-4" d="M269.23,367.34s0-4.69.87-4.74,2.09,4.28,2.09,4.28,2.84,0,3.13,1S271.9,370,271.9,370s.35,3.3-.47,3.65-1.91-3.48-1.91-3.48-3.36-.29-3.47-1.28S269.23,367.34,269.23,367.34Z" transform="translate(-193.9 -312.95)"/><path class="cls-4" d="M330,368.81s-.56,4.16-1.34,4.11-1.34-4.06-1.34-4.06-2.53-.34-2.67-1.26,3.29-1.44,3.29-1.44.09-3,.85-3.19,1.29,3.32,1.29,3.32,2.95.66,2.94,1.55S330,368.81,330,368.81Z" transform="translate(-193.9 -312.95)"/><path class="cls-4" d="M225.32,390.31c-1.37,0-1.14,5.51-1.14,5.51s-2.83-.29-2.85.87,3.59,1.53,3.59,1.53.12,4.32,1.4,4.48,1-4.82,1-4.82,3.77-1.26,4-2.39-4.35-.73-4.35-.73S226.69,390.29,225.32,390.31Z" transform="translate(-193.9 -312.95)"/><path class="cls-3" d="M270.41,472.34l-.82-.08a16.8,16.8,0,0,1-14.75-14.78,3.5,3.5,0,0,1,7-.75,9.76,9.76,0,0,0,8.66,8.58c7.38.93,9.84-6.33,10.1-7.17a3.5,3.5,0,0,1,6.7,2C285.88,464.81,280.6,473.16,270.41,472.34Z" transform="translate(-193.9 -312.95)"/><path class="cls-3" d="M308.7,479.2a11.32,11.32,0,0,1-8.71-4.54,3,3,0,0,1,4.85-3.53,5.25,5.25,0,0,0,4.23,2.05,4,4,0,0,0,3.19-2.38,3,3,0,0,1,3.85-1.75,3,3,0,0,1,1.77,3.87,9.91,9.91,0,0,1-8.24,6.23C309.32,479.18,309,479.2,308.7,479.2Z" transform="translate(-193.9 -312.95)"/><path class="cls-3" d="M345.79,471.74l-.34,0a16.48,16.48,0,0,1-17.32-11.54,3.5,3.5,0,0,1,6.72-2A9.46,9.46,0,0,0,345,464.78c6.21-.47,7.52-7.56,7.53-7.63a3.5,3.5,0,0,1,6.9,1.19C358.65,462.65,354.85,470.91,345.79,471.74Z" transform="translate(-193.9 -312.95)"/><path class="cls-5" d="M242.74,463.94c-7-.58-14.39,5.43-11.65,14.87s18.47,9.88,20.71-1.12C253.41,469.82,250.05,464.55,242.74,463.94Z" transform="translate(-193.9 -312.95)"/><path class="cls-5" d="M372.09,486c7,.59,14.5-5.47,11.73-15s-18.6-10-20.86,1.13C361.34,480,364.72,485.35,372.09,486Z" transform="translate(-193.9 -312.95)"/><path class="cls-6" d="M220.68,333.25s-4.53-18.19,1.47-20.13,16.44,13.39,16.44,13.39.74-8.4,4.25-8.77,11.06,7.91,16.34,16.16c5.91,9.23,12.71,22.25,6.68,33.33s-20.14,22-31.8,21c-8.15-.73-13.48-6.46-15.05-16.62s-.64-14.77-1.47-18.84-4.8-11.35-7.3-14.86-3.51-7.66-.18-8.4S220.68,333.25,220.68,333.25Z" transform="translate(-193.9 -312.95)"/><path class="cls-7" d="M241.36,339.07c-10.06,1.05-18.47,8.39-18.27,18,.18,9-2.05,21.69,7.84,24.93,10.79,3.55,20.56-5,26.23-11.72,5.88-7,7.23-15.07,3.31-22C255.39,339.35,247.55,338.42,241.36,339.07Z" transform="translate(-193.9 -312.95)"/><path class="cls-8" d="M250.33,368.05c-.2.15-4.93,3.78-9.84,8a4.88,4.88,0,0,1-3.8.81,8.87,8.87,0,0,1-5.92-3.64c-1.21-1.88-.67-3.23,4.74-7.06l.58-.41c5.8-4.14,6.92-9.25,7-9.82a3.52,3.52,0,0,0-2.78-4.12,3.47,3.47,0,0,0-4.08,2.75A10.32,10.32,0,0,1,232,360l-.56.4c-2.57,1.81-7.62,5.39-8.22,10.33a17.31,17.31,0,0,0,1.95,6.67,15,15,0,0,0,4.13,3.93,11.61,11.61,0,0,0,1.6.65c6.67,2.2,13-.23,18.12-4,1-.82,1.95-1.57,2.76-2.21a51.72,51.72,0,0,0,4-4,3.5,3.5,0,0,0-5.48-3.78Z" transform="translate(-193.9 -312.95)"/><path class="cls-8" d="M250.67,341.84c-1.59.6-.19,7.48,3.78,6.83S253.62,340.73,250.67,341.84Z" transform="translate(-193.9 -312.95)"/><path class="cls-8" d="M258.26,356.64c1.28.07,1.44-3.95-1.6-4.56S255.88,356.52,258.26,356.64Z" transform="translate(-193.9 -312.95)"/></svg>