<svg id="Layer_1" data-name="Layer 1" xmlns="http://www.w3.org/2000/svg" xmlns:xlink="http://www.w3.org/1999/xlink" viewBox="0 0 213.12 222.75"><defs><style>.cls-1{fill:none;}.cls-2{fill:#e07463;}.cls-3{clip-path:url(#clip-path);}.cls-4{fill:#d76a59;}.cls-5{fill:#ee8b7a;}.cls-6{clip-path:url(#clip-path-2);}.cls-7{fill:#de8070;}.cls-8{fill:#4f537a;}.cls-9{fill:#be513f;}</style><clipPath id="clip-path" transform="translate(-191.3 -309.73)"><path class="cls-1" d="M199.75,367.91s0,114.46.3,118.17a19.54,19.54,0,0,0,3.87,9.81c3.53,4.3,16.88,18.48,22.29,20.33l1.22-124.91Z"/></clipPath><clipPath id="clip-path-2" transform="translate(-191.3 -309.73)"><path class="cls-1" d="M222.36,392.9s-1.42,115.33-.71,119.14,5,5.84,11.35,6.09,152.92,0,156.77-.37c5.52-.59,6-4.7,6-8s0-115.34,0-115.34l-86.58-56.05Z"/></clipPath></defs><path class="cls-2" d="M199.75,367.91s0,114.46.3,118.17a19.54,19.54,0,0,0,3.87,9.81c3.53,4.3,16.88,18.48,22.29,20.33l1.22-124.91Z" transform="translate(-191.3 -309.73)"/><g class="cls-3"><path class="cls-4" d="M192.72,468.67S220,480,232.81,483L231,526.5,191.3,494.9Z" transform="translate(-191.3 -309.73)"/></g><path class="cls-5" d="M222.36,392.9s-1.42,115.33-.71,119.14,5,5.84,11.35,6.09,152.92,0,156.77-.37c5.52-.59,6-4.7,6-8s0-115.34,0-115.34l-86.58-56.05Z" transform="translate(-191.3 -309.73)"/><g class="cls-6"><path class="cls-7" d="M399,475.44s-28.31,14-44,16c-13.4,1.67-28.92-1.44-38.68-1.62-13.17-.23-35,2.94-58.67.71-17.65-1.67-41.73-13.29-41.73-13.29l-3,42.82,15.69,12.46,175.85-3.56-2.1-39.32Z" transform="translate(-191.3 -309.73)"/></g><path class="cls-8" d="M306.68,344.7a6,6,0,0,1,6.63.29c16.72,11.7,79.45,52.4,82.52,54,5.48,2.9,7.95-2.58,5.19-5.18-1.38-1.29-18.87-20.64-21.91-24.41s-83.95-56.85-85.89-58.31-4.87-2.32-8.52.26-86.18,54-88.14,55.46-1.17,3.4,1.09,5.83,20.3,22.67,23,24.1,4.36.81,7-1C230,394.24,291.13,354.49,306.68,344.7Z" transform="translate(-191.3 -309.73)"/><path class="cls-9" d="M358.92,463.89a3.49,3.49,0,0,1-2.12-.71c-5.45-4.15-13.77-4.41-16.16-3.81a3.5,3.5,0,1,1-1.7-6.79c4.07-1,14.73-.59,22.1,5a3.5,3.5,0,0,1-2.12,6.28Z" transform="translate(-191.3 -309.73)"/><path class="cls-9" d="M269.41,483.29a3.5,3.5,0,0,1-1.76-6.53l17.41-10.11a3.5,3.5,0,1,1,3.51,6.05l-17.41,10.11A3.5,3.5,0,0,1,269.41,483.29Z" transform="translate(-191.3 -309.73)"/><path class="cls-9" d="M298.59,506.27a3.5,3.5,0,0,1-1.74-6.54c6.47-3.7,16.58-3.91,24.7-4.08a75.9,75.9,0,0,0,8.58-.46,3.5,3.5,0,0,1,1.08,6.92,77,77,0,0,1-9.51.53c-7.33.16-16.45.35-21.37,3.17A3.54,3.54,0,0,1,298.59,506.27Z" transform="translate(-191.3 -309.73)"/><ellipse class="cls-9" cx="153.33" cy="172.07" rx="7.48" ry="8.89"/><ellipse class="cls-9" cx="92.23" cy="172.07" rx="7.48" ry="8.89"/></svg>