<svg id="Layer_1" data-name="Layer 1" xmlns="http://www.w3.org/2000/svg" viewBox="0 0 197.71 284.4"><defs><style>.cls-1{fill:#ebf0f4;}.cls-2{fill:#fff;}.cls-3{fill:#ca9259;}.cls-4{fill:#f5b3c2;}.cls-5{fill:#fbdee5;}</style></defs><path class="cls-1" d="M390.22,304.13s.57,178.4.57,180.24a11.42,11.42,0,0,1-2.38,7c-1.83,2.2-23.28,28.27-35.76,28.81l2.75-201.38Z" transform="translate(-199.96 -236.64)"/><path class="cls-2" d="M366.23,326.4s.62,174,0,178.94-3.39,13.57-13.58,14.81-126.18.92-132.35.61-9.61-6.64-9.74-15.66,0-173.46,0-173.46L300,264.21Z" transform="translate(-199.96 -236.64)"/><path class="cls-3" d="M298.12,439.35a1.7,1.7,0,0,0-2.4.17c-.11.13-2.67,3-5.72,1.47-2-1-2.67-3.38-2.9-4.85a10.61,10.61,0,0,0,.08-1.2,1.7,1.7,0,0,0-1.7-1.71h-.21a1.71,1.71,0,0,0-1.71,1.71c0,.06,0,.52.09,1.2-.23,1.47-.91,3.86-2.9,4.85-3.06,1.53-5.61-1.34-5.71-1.46a1.71,1.71,0,0,0-2.41-.19,1.69,1.69,0,0,0-.19,2.4,9,9,0,0,0,6.5,3.12,7.5,7.5,0,0,0,3.34-.81,7.84,7.84,0,0,0,3.09-2.84,7.94,7.94,0,0,0,3.1,2.84,7.47,7.47,0,0,0,3.34.81,9.09,9.09,0,0,0,6.5-3.12A1.7,1.7,0,0,0,298.12,439.35Z" transform="translate(-199.96 -236.64)"/><path class="cls-4" d="M285.79,427.93c-4.1.12-5,2.25-5,4.24a5.22,5.22,0,0,0,5.4,5.3c2.42,0,4.62-2.55,4.73-4.87C291,430.05,289.22,427.82,285.79,427.93Z" transform="translate(-199.96 -236.64)"/><path class="cls-3" d="M243.71,409.19c-9.6,4.3-13.22,17.21-9.16,27.79,2.91,7.6,15.53,13.06,23.36,6.36s8-17.63,4.06-26.34S249.53,406.59,243.71,409.19Z" transform="translate(-199.96 -236.64)"/><path class="cls-2" d="M242,425s1.15,6.16,2.63,6c1.81-.23,2.29-5.83,2.29-5.83s5.92-1.26,6.27-2.85-6.21-1.75-6.21-1.75.15-5.26-1.24-5.71-2.72,5.72-2.72,5.72-5.54.86-5.6,2.43S242,425,242,425Z" transform="translate(-199.96 -236.64)"/><path class="cls-2" d="M256.84,433s-.59-3.55-1.61-3.52-1.88,3.34-1.88,3.34-2.69.13-2.9,1.31,3.14,1.93,3.14,1.93.51,3.24,1.5,3.55,1.78-3.32,1.78-3.32,3-.74,3-1.9S256.84,433,256.84,433Z" transform="translate(-199.96 -236.64)"/><path class="cls-3" d="M316,409.19c-9.6,4.3-13.22,17.21-9.16,27.79,2.91,7.6,15.53,13.06,23.36,6.36s8-17.63,4.06-26.34S321.8,406.59,316,409.19Z" transform="translate(-199.96 -236.64)"/><path class="cls-2" d="M314.3,425s1.15,6.16,2.63,6c1.81-.23,2.29-5.83,2.29-5.83s5.92-1.26,6.27-2.85-6.21-1.75-6.21-1.75.15-5.26-1.24-5.71-2.72,5.72-2.72,5.72-5.54.86-5.6,2.43S314.3,425,314.3,425Z" transform="translate(-199.96 -236.64)"/><path class="cls-2" d="M329.11,433s-.59-3.55-1.61-3.52-1.88,3.34-1.88,3.34-2.69.13-2.9,1.31,3.14,1.93,3.14,1.93.51,3.24,1.5,3.55,1.78-3.32,1.78-3.32,3-.74,3-1.9S329.11,433,329.11,433Z" transform="translate(-199.96 -236.64)"/><path class="cls-3" d="M222,447c.12,1.73-3.07,2.7-9.18,2.61s-11.26-2.48-7.06-4C209.14,444.36,221.81,443.88,222,447Z" transform="translate(-199.96 -236.64)"/><path class="cls-3" d="M228.06,441.15c-.26,1.71-6.12,1.45-16.67-1.93-9.63-3.09-14.49-5.72-9.34-6.44C210.27,431.62,228.54,438,228.06,441.15Z" transform="translate(-199.96 -236.64)"/><path class="cls-3" d="M348.17,447.13c-.12,1.72,3.07,2.69,9.18,2.61s11.26-2.48,7.06-4C361,444.46,348.37,444,348.17,447.13Z" transform="translate(-199.96 -236.64)"/><path class="cls-3" d="M342.12,441.25c.26,1.71,6.12,1.45,16.67-1.93,9.63-3.09,14.49-5.72,9.34-6.45C359.91,431.72,341.64,438.12,342.12,441.25Z" transform="translate(-199.96 -236.64)"/><path class="cls-2" d="M270.28,269c-7.45-6.61-36.35-25.38-45.86-17.78-8.41,6.72,1.54,39.07,5.24,46.15,1.94,3.73,3.68,8.08,8,5.35.43-.27,1.08-.7,1.9-1.27-4.69-7.23-13.65-34.74-6.61-39.74,8-5.69,32.37,10.75,38,17.21C275.09,275.94,276,274.07,270.28,269Z" transform="translate(-199.96 -236.64)"/><path class="cls-5" d="M233,261.71c-7,5,1.92,32.51,6.61,39.74,7.6-5.21,30.22-21.67,30.22-21.67.44-.3.83-.58,1.21-.86C265.34,272.46,241,256,233,261.71Z" transform="translate(-199.96 -236.64)"/><path class="cls-3" d="M294.85,273.68a3.18,3.18,0,0,1,4.11.19c10.61,9.94,60.65,56.74,63.81,58.64,3.53,2.12,6.14-.36,8.49-2.24s24.38-24.5,25.67-25.91.94-4-1.29-6.45-64.83-58.5-66.47-59.78a8.91,8.91,0,0,0-9.5-.24c-3.75,2.23-80.19,60.85-81.94,62.49L236,302s-27.9,27.43-29.43,30,1.88,5.39,6.1,3.63C216.45,334.08,282.09,283.52,294.85,273.68Z" transform="translate(-199.96 -236.64)"/><path class="cls-2" d="M371.53,296.64c4.66-8.79,16.06-41.31,6.43-48.75-8.52-6.59-37.6,10.73-43.6,16-3.17,2.78-7,5.49-3.3,9.07.36.35.93.88,1.67,1.54,5.92-6.27,30.53-21.48,37.06-15.82,7.41,6.42-2.79,34-7.73,41C365.92,303,368,303.38,371.53,296.64Z" transform="translate(-199.96 -236.64)"/><path class="cls-5" d="M369.79,258.67c-6.53-5.66-31.14,9.55-37.06,15.82,6.87,6.16,28.21,24.24,28.21,24.24.4.35.76.67,1.12,1C367,292.66,377.2,265.09,369.79,258.67Z" transform="translate(-199.96 -236.64)"/></svg>