<svg id="Layer_1" data-name="Layer 1" xmlns="http://www.w3.org/2000/svg" viewBox="0 0 237.61 206.83"><defs><style>.cls-1{fill:#f7d39d;}.cls-2{fill:#ffe3ba;}.cls-3{fill:#906c5e;}.cls-4{fill:#aad29a;}.cls-5{fill:#f0827b;}.cls-6{fill:#fef6e3;}.cls-7{fill:#f7d39e;}.cls-8{fill:#f9c6c1;}</style></defs><path class="cls-1" d="M184.64,369.94s-1.23,48.24-.88,64.9,1.93,46.31,2.11,48.59.53,4.74,4.56,7.72,21.17,14,29.12,14.35l.18-116.44Z" transform="translate(-178.35 -316.81)"/><path class="cls-2" d="M381.29,391.69s.35,103.33.35,106.48-1.93,4.91-6,5.44-151.63,1.94-154.26,2.12-6.78-1.07-7.13-5.63-1.58-112.27-1.58-112.27l80.87-47.54Z" transform="translate(-178.35 -316.81)"/><path class="cls-3" d="M292,349.71a3.82,3.82,0,0,1,3.85-.1c12.53,6.94,81.3,45,84,45.94,3,1.05,6.66-1.76,5.61-4.91S354.1,366.43,350.77,364,266,318.71,264.11,317.49s-4.39-.71-7.55.87-74.2,46-76.48,47.54-2.28,5.44-.18,6.84,28.77,20.7,30.7,21.93,6.14,1.23,9.13-.52C222.42,392.56,280.7,356.68,292,349.71Z" transform="translate(-178.35 -316.81)"/><path class="cls-4" d="M377,482.14s-3.46-13.58,5.47-16.75c8-2.84,12.87,5.28,12.87,5.28s6.39-2.76,11.52,1.63a8.27,8.27,0,0,1,2.44,9.84s8,3.08,6.46,10.33-13.18,10.34-13.18,10.34Z" transform="translate(-178.35 -316.81)"/><path class="cls-5" d="M384.49,476.2c-19.64,2.58-24.63,19.52-22.74,33.07,1.55,11.11,13.44,17.38,25.07,12.92,14.95-5.74,21.7-18.35,19.89-30S392,475.21,384.49,476.2Z" transform="translate(-178.35 -316.81)"/><path class="cls-6" d="M375.75,492.56c-1.24-1-3.17,3.65-1.73,4.81S378.05,494.49,375.75,492.56Z" transform="translate(-178.35 -316.81)"/><path class="cls-6" d="M392.56,498.52c-1.13-1.69-5.19,3.26-2.89,5.28S394.67,501.69,392.56,498.52Z" transform="translate(-178.35 -316.81)"/><path class="cls-6" d="M399.47,493.43c-2.47-.76-4.32,6.63-1.92,7.39S402,494.2,399.47,493.43Z" transform="translate(-178.35 -316.81)"/><path class="cls-6" d="M369.7,501.88c-1.64,0-3.27,6.43-.38,7S371.52,501.88,369.7,501.88Z" transform="translate(-178.35 -316.81)"/><path class="cls-4" d="M233.42,329.43s-1.9-9.06,4-10.94c5.23-1.68,8.19,3.8,8.19,3.8s4.19-1.67,7.41,1.35a5.56,5.56,0,0,1,1.33,6.56s5.11,2.23,3.92,7-8.77,6.52-8.77,6.52Z" transform="translate(-178.35 -316.81)"/><path class="cls-5" d="M234.42,325.16c-14.4.28-20.74,17.76-20.52,29.19.17,9.38,7.76,11.75,17.86,9.21,13-3.26,21.14-14.51,19.5-22.88C250.05,334.44,240.75,325,234.42,325.16Z" transform="translate(-178.35 -316.81)"/><path class="cls-6" d="M231.14,335.58c-.51-1.25-3.77,1.44-3.16,2.86S232.08,337.9,231.14,335.58Z" transform="translate(-178.35 -316.81)"/><path class="cls-6" d="M229.5,329.57c-1.52-1.53-5.79,3.19-4.32,4.7S231,331.12,229.5,329.57Z" transform="translate(-178.35 -316.81)"/><path class="cls-6" d="M223,340.07c-1.21-.65-4.93,3.46-3,5S224.36,340.79,223,340.07Z" transform="translate(-178.35 -316.81)"/><path class="cls-3" d="M272.43,441.14a3.49,3.49,0,0,1-3.07-1.82c0-.05-3.65-6.38-8.22-6.21s-7.54,5.8-7.57,5.86a3.5,3.5,0,0,1-6.28-3.11c.19-.39,4.75-9.45,13.61-9.75s14.37,9.43,14.59,9.84a3.5,3.5,0,0,1-3.06,5.19Z" transform="translate(-178.35 -316.81)"/><path class="cls-3" d="M342.47,441.14a3.5,3.5,0,0,1-2.88-1.51c-1.53-2.2-5.72-6.75-8.87-6.75s-5.85,4.6-6.59,6.21a3.5,3.5,0,0,1-6.38-2.89c.48-1.06,4.89-10.32,13-10.32,7.67,0,13.94,8.77,14.63,9.77a3.5,3.5,0,0,1-2.88,5.49Z" transform="translate(-178.35 -316.81)"/><path class="cls-7" d="M290.34,461.73a3.5,3.5,0,0,1-.47-7c6.69-.92,13.57-3,15.5-4.65-1.9-2.62-8.94-8.61-15.12-13.15a3.5,3.5,0,1,1,4.15-5.64c19.21,14.13,18.53,18,18.24,19.71-1.19,6.85-14.18,9.62-21.82,10.66A3.87,3.87,0,0,1,290.34,461.73Zm15.45-10.9h0Zm0-1.19Z" transform="translate(-178.35 -316.81)"/><path class="cls-3" d="M311,443.23c-9.14-.38-9.91,13.9,0,14.41S321.84,443.69,311,443.23Z" transform="translate(-178.35 -316.81)"/><path class="cls-8" d="M235.06,441.46c-12.58-.48-13.64,17.31,0,18S250,442,235.06,441.46Z" transform="translate(-178.35 -316.81)"/><path class="cls-8" d="M355.05,440.94c-12.58-.48-13.65,17.3,0,17.95S369.94,441.51,355.05,440.94Z" transform="translate(-178.35 -316.81)"/></svg>