<svg id="Layer_1" data-name="Layer 1" xmlns="http://www.w3.org/2000/svg" viewBox="0 0 349.01 245.9"><defs><style>.cls-1{fill:#a8cbeb;}.cls-2{fill:#c3dff6;}.cls-3{fill:#628dc9;}.cls-4{fill:#d0dbeb;}.cls-5{fill:#9fc7eb;}.cls-6{fill:#406cab;}</style></defs><path class="cls-1" d="M461.77,375.07s-.57,134.51-.57,140.19-22.13,17.87-32.35,22.13-22.7,6.06-22.7,6.06l5.11-23.08V412.25Z" transform="translate(-122.08 -297.55)"/><path class="cls-2" d="M416.31,424.37s1.37,98.83,0,105.36-1.08,12.49-11.86,13.34-242.06,0-250.58,0-19.58-1.14-19.58-16.75-1.7-111.23-1.7-111.23l134.51-59.6Z" transform="translate(-122.08 -297.55)"/><path class="cls-3" d="M262.84,365.49a10,10,0,0,1,8.22,0c23,10.26,134.54,60.15,140.33,62.6,6.46,2.74,9.2,3.92,14.88-1s39.53-44.83,42.47-49.33,4.31-14.29-3.13-18-139.76-62-147.2-62.22c-4.79-.14-133.83,59.14-149.94,65.74-3,1.23-46.39,48.74-46.39,54s2,8.61,8.62,6.65C136.64,422.23,240.73,375.44,262.84,365.49Z" transform="translate(-122.08 -297.55)"/><path class="cls-4" d="M342.21,346.17c-3.12,6.05,14,19.5,14,19.5S346.78,380,353.18,384s22.25-3.36,22.25-3.36,15.16,15.65,21.64,13.41c7.28-2.51,2.43-23.16,2.43-23.16s17.63-3.16,16.23-11.33c-.75-4.44-24.76-10-24.76-10s-4.66-12.3-10.67-13.41c-5.4-1-12.19,9.14-12.19,9.14S345.31,340.16,342.21,346.17Z" transform="translate(-122.08 -297.55)"/><path class="cls-4" d="M190.46,368.77a44.39,44.39,0,0,0-16.7,12.54l-15.88,19.24c.29-.08.58-.17.9-.29,3.57-1.4,76.87-34.94,83.24-37.89s9.16-4.51,10.24-7.15,5.34-13.59,5.89-15.49l0-.15Z" transform="translate(-122.08 -297.55)"/><path class="cls-5" d="M190.46,369.77l67.72-30.19c.59-2.49-2.39-3.74-4.83-2.37s-59.16,26.55-66,29.51a39.84,39.84,0,0,0-11.8,7.29c-1.7,1.56-18.79,20.81-20.34,23.3-1.41,2.26-.25,4,2.67,3.24l15.88-18.24A44.39,44.39,0,0,1,190.46,369.77Z" transform="translate(-122.08 -297.55)"/><path class="cls-6" d="M198.67,478.7a4.6,4.6,0,0,1-2.17-.55,4.52,4.52,0,0,1-1.77-6.12c3.53-6.39,12.63-21.27,20.94-21.3h0c7.94,0,18.34,13.78,22.45,19.71a4.5,4.5,0,0,1-7.4,5.13c-5.41-7.8-12.49-15.25-15-15.83-2.47.72-8.65,8.55-13.11,16.64A4.51,4.51,0,0,1,198.67,478.7Zm17.16-19" transform="translate(-122.08 -297.55)"/><path class="cls-6" d="M327.16,479.17a4.52,4.52,0,0,1-3.91-2.25c-4.52-7.85-10.71-15.47-13.14-16.21-2.28.5-8.86,6.93-14.51,15.09a4.5,4.5,0,0,1-7.4-5.12c3.81-5.5,13.51-18.37,21.35-19s16.9,12.72,21.5,20.72a4.49,4.49,0,0,1-3.89,6.74ZM310,460.68Z" transform="translate(-122.08 -297.55)"/><path class="cls-6" d="M273.62,488.15H251.4a4.5,4.5,0,1,1,0-9h22.22a4.5,4.5,0,0,1,0,9Z" transform="translate(-122.08 -297.55)"/><path class="cls-6" d="M346.63,481.76a4.5,4.5,0,0,1-.08-9l18-.33h.09a4.5,4.5,0,0,1,.08,9l-18,.33Z" transform="translate(-122.08 -297.55)"/><path class="cls-6" d="M367.42,496.9H346.64a4.5,4.5,0,0,1,0-9h20.78a4.5,4.5,0,0,1,0,9Z" transform="translate(-122.08 -297.55)"/><path class="cls-6" d="M162.86,491.24a4.5,4.5,0,0,1-.36-9l18.63-1.5a4.5,4.5,0,0,1,.72,9l-18.63,1.5Z" transform="translate(-122.08 -297.55)"/><path class="cls-6" d="M163.85,506.54a4.5,4.5,0,0,1-.23-9l21.95-1.17a4.5,4.5,0,1,1,.48,9l-22,1.17Z" transform="translate(-122.08 -297.55)"/><path class="cls-3" d="M454.51,466.65a36.92,36.92,0,0,1-5.25-4.49,42.24,42.24,0,0,1-4.64-5.59c.57-.74,1.16-1.52,1.75-2.39,3.23-4.71,4.74-12,4.8-12.27a1.5,1.5,0,1,0-2.93-.6c0,.07-1.46,7-4.34,11.17-.36.52-.72,1-1.06,1.49-.73-1.1-1.18-1.85-1.19-1.87l-.09-.12c-.11-7.71-.21-14.56-.21-15.19a1.51,1.51,0,0,0-1.5-1.48h0a1.49,1.49,0,0,0-1.47,1.52c0,.35.49,34.92.5,37.74,0,3.71-1.5,4.89-2.83,5.92a1.51,1.51,0,0,0-.26,2.11,1.49,1.49,0,0,0,2.1.26c1.5-1.16,4-3.11,4-8.3,0-1.29-.11-8.93-.22-17a47.5,47.5,0,0,0,5.55,6.77,35.93,35.93,0,0,0,5.83,4.92,1.42,1.42,0,0,0,.74.2,1.5,1.5,0,0,0,.76-2.79Z" transform="translate(-122.08 -297.55)"/><path class="cls-3" d="M436.13,454a1.49,1.49,0,0,0-2.75-.75,34.53,34.53,0,0,1-7.36,7.45,1.5,1.5,0,0,0,1.77,2.43,42.65,42.65,0,0,0,5.32-4.75c-.13,3.39-.55,8.07-1.84,11.1a137.26,137.26,0,0,1-7.95,14.62,1.5,1.5,0,0,0,.48,2.07,1.42,1.42,0,0,0,.79.23,1.48,1.48,0,0,0,1.27-.71,135.79,135.79,0,0,0,8.17-15C436.51,464.87,436.15,454.48,436.13,454Z" transform="translate(-122.08 -297.55)"/></svg>