<svg id="Layer_1" data-name="Layer 1" xmlns="http://www.w3.org/2000/svg" viewBox="0 0 212.27 252.29"><defs><style>.cls-1{fill:#e7e0e9;}.cls-2{fill:#d0cad2;}.cls-3{fill:#fdeb9a;}.cls-4{fill:#f0827b;}.cls-5{fill:#feeb98;}.cls-6{fill:#a59aa9;}</style></defs><path class="cls-1" d="M375.3,348.86c-1.23,1.45-2.49,3.13-3.7,4.88.07-17,.13-33.3.13-35.46,0-4.6-1.13-22.92-17.81-22.92-13.44,0-17.25,11.68-17.25,17.47V373.2c0,2.73-.51,5.79,3.92,8.51s21.86,16.46,24.26,17.65c3.73,1.84,6.45,1,6.54-4.84,0-.76,0-4.75.07-10.54,4.41-6.64,13.9-21.35,15.52-27.43C389.1,348.59,381.41,341.7,375.3,348.86Z" transform="translate(-190.77 -295.02)"/><path class="cls-2" d="M194.82,406.78s-.56,98.76-.56,101,0,6.78,2.05,9.44,18.26,24.62,22.78,26.68l1.84-124.75Z" transform="translate(-190.77 -295.02)"/><path class="cls-1" d="M217,426.68s-.76,104.21-.76,109.17,1.52,8.78,7.25,9.16,163.69,2.88,167.19,2.18,5.6-1.93,6.3-5.6,1.3-118.37,1.3-118.37l-80-56.69Z" transform="translate(-190.77 -295.02)"/><path class="cls-3" d="M398.84,426.92c-2.67-1.07-63.35-45.22-75.35-54a3.81,3.81,0,0,0-4.22-.19l-98.76,59c-1.89,1.14-4,1.52-5.69.38s-21-24.36-22.38-26.22a5.4,5.4,0,0,1-.46-.75,5.75,5.75,0,0,0-.08,6.95c1.38,1.85,20.67,25.08,22.38,26.22s3.8.76,5.7-.38l98.75-59a3.81,3.81,0,0,1,4.22.19c12,8.74,72.68,52.89,75.35,54,3,1.19,5.92-2.07,3-6.21A3.08,3.08,0,0,1,398.84,426.92Z" transform="translate(-190.77 -295.02)"/><path class="cls-4" d="M319.27,374.4a3.81,3.81,0,0,1,4.22.2c12,8.74,72.68,52.89,75.35,54,3,1.19,5.93-2.08,3-6.23s-17.5-21.05-22.54-26.69S306,337.52,303.65,336.33s-4.56-2-7.23-.26-100.14,60.75-103.09,63.62a5.87,5.87,0,0,0-.89,7.88c1.38,1.86,20.67,25.09,22.38,26.23s3.8.76,5.69-.38Z" transform="translate(-190.77 -295.02)"/><path class="cls-1" d="M235,391.18c0-3.4-.34-68.65-.34-73.24S235.77,295,252.45,295c13.45,0,17.25,11.68,17.25,17.47v63.37c0,2.73.51,5.79-3.91,8.51S243.92,394.83,241.53,396C237.8,397.86,235.07,397,235,391.18Z" transform="translate(-190.77 -295.02)"/><path class="cls-4" d="M298.45,470.72c-.23,3.26,3.21,11.93,11.42,12.18,6.05.19,12-6.17,12.48-11.55C322.84,465.64,297.61,465.53,298.45,470.72Z" transform="translate(-190.77 -295.02)"/><path class="cls-4" d="M310.57,503.68a2,2,0,0,1-2-1.95l-.75-25.22a2,2,0,1,1,4-.12l.74,25.23a2,2,0,0,1-1.94,2.05Z" transform="translate(-190.77 -295.02)"/><path class="cls-4" d="M311.2,504.29h-.49c-19.73-.2-28.85-9.49-29.23-9.88a2,2,0,0,1,2.88-2.78c.14.14,8.52,8.47,26.39,8.66,16.95.17,26.45-10.12,26.55-10.22a2,2,0,1,1,3,2.66C339.85,493.21,329.75,504.29,311.2,504.29Z" transform="translate(-190.77 -295.02)"/><path class="cls-5" d="M277.74,449.54c0,2.81-.12,18.63.55,20.92.92,3.12,5,3.67,8.63,3.86s47.52-.19,50.46-.74,4.41-3.85,4.41-7,.18-13.76.18-16.15-2.2-4.77-7.16-5.14-48.44-.18-50.83,0S277.74,446.42,277.74,449.54Z" transform="translate(-190.77 -295.02)"/><ellipse class="cls-6" cx="73.62" cy="190.38" rx="10.37" ry="10.18"/><ellipse class="cls-6" cx="165.98" cy="189.42" rx="10.37" ry="10.18"/></svg>