<svg id="Layer_1" data-name="Layer 1" xmlns="http://www.w3.org/2000/svg" viewBox="0 0 184.09 272.7"><defs><style>.cls-1{fill:#9ac875;}.cls-2{fill:#b9d799;}.cls-3{fill:#5e638a;}.cls-4{fill:#70a74f;}.cls-5{fill:#e46e64;}.cls-6{fill:#f7bab6;}.cls-7{fill:#d15b51;}.cls-8{fill:#f0827b;}</style></defs><path class="cls-1" d="M383.15,393s-.87,119-1.19,122a11,11,0,0,1-3,6.8c-1.88,2.32-16.34,21.88-21.69,21.3s-1.76-138.63-1.76-138.63Z" transform="translate(-205.68 -284.74)"/><path class="cls-2" d="M212.5,413.38s-1.67,122.35-.9,125.89,2.59,5.72,6.2,6,136.69-1.5,139.51-2.18c3.82-.91,5.43-4.63,5.43-7.9s-.52-122.61-.52-122.61l-83.71-51.5Z" transform="translate(-205.68 -284.74)"/><path class="cls-3" d="M277.42,369.58a4.24,4.24,0,0,1,4.65-.12c12.82,7.94,73.46,45.52,75.92,47,2.76,1.62,5.35,1.13,7.94-1.46s21.05-20.4,22.51-22.18a5.81,5.81,0,0,0,.32-7c-1.62-2.27-70.44-97.48-71.73-99.75s-3.4-1.45-5.18.81-59.59,70.28-62.34,73.68-41.53,49.34-43.15,51.6-.25,5.23,3,3.77C212.23,414.65,265.63,377.74,277.42,369.58Z" transform="translate(-205.68 -284.74)"/><path class="cls-4" d="M280.55,487.94c-3.59,0-8.08-.86-9.73-4.81-1.92-4.6,1.19-8.95,5.49-15l1.49-2.08c3.79-5.38,2.83-12.15,2.82-12.22a2.5,2.5,0,0,1,4.94-.76c.06.35,1.31,8.8-3.68,15.86l-1.5,2.1c-3.8,5.34-5.75,8.21-4.95,10.14.87,2.09,6.28,1.92,9,1.36a2.5,2.5,0,0,1,1,4.9A25.59,25.59,0,0,1,280.55,487.94Z" transform="translate(-205.68 -284.74)"/><path class="cls-4" d="M306.49,445.2a2.5,2.5,0,0,1-.89-4.84l28.88-11a2.5,2.5,0,1,1,1.78,4.67l-28.89,11A2.48,2.48,0,0,1,306.49,445.2Z" transform="translate(-205.68 -284.74)"/><path class="cls-4" d="M261.33,444.59a2.5,2.5,0,0,1-.89-.16L232,433.65a2.5,2.5,0,0,1,1.77-4.68l28.48,10.78a2.5,2.5,0,0,1-.88,4.84Z" transform="translate(-205.68 -284.74)"/><path class="cls-4" d="M281.54,501.89a183.93,183.93,0,0,1-19.49-1.17,2.5,2.5,0,1,1,.59-5c.23,0,23.21,2.75,33.36-.32a41.23,41.23,0,0,0,16.58-10.08,2.5,2.5,0,0,1,3.68,3.39,45.64,45.64,0,0,1-18.82,11.48C293.25,501.49,287.33,501.89,281.54,501.89Z" transform="translate(-205.68 -284.74)"/><ellipse class="cls-4" cx="45.6" cy="166.08" rx="9.28" ry="10.55"/><ellipse class="cls-4" cx="111.76" cy="166.18" rx="9.28" ry="10.55"/><path class="cls-5" d="M340.8,526.08s6.06-.54,10,2.67,3.92,7.49-.71,11.59-11.41,13.73-19.44,15.87-12.84-3.21-12.12-8.74,6.6-7.67,6.6-7.67l11.76-6.06Z" transform="translate(-205.68 -284.74)"/><path class="cls-6" d="M329.87,543.48a8.47,8.47,0,0,0,4.71-1.67c3.14-2.36,8.83-6.95,10.85-10.74,2.86-5.35-5.53-6.06-8.38-3.93s-8.91,11.6-11.94,12.66l3,3.75Z" transform="translate(-205.68 -284.74)"/><path class="cls-7" d="M330.07,545.84c-1.53,2-3,3.39-5,1.72s-1-3.43.51-5.4,3.1-3.24,5-1.73S331.6,543.87,330.07,545.84Z" transform="translate(-205.68 -284.74)"/><path class="cls-7" d="M325.3,543.63c-1.38,1.71-2.7,2.93-4.58,1.34s-1-3.15.43-4.87,2.82-2.79,4.59-1.34S326.69,541.91,325.3,543.63Z" transform="translate(-205.68 -284.74)"/><path class="cls-8" d="M359.4,526.82s6.06-.54,10,2.67,3.92,7.49-.71,11.59S357.26,554.81,349.23,557s-12.84-3.21-12.12-8.74,6.6-7.66,6.6-7.66l11.76-6.07Z" transform="translate(-205.68 -284.74)"/><path class="cls-6" d="M348.47,544.22a8.47,8.47,0,0,0,4.71-1.67c3.14-2.36,8.83-6.95,10.85-10.74,2.86-5.35-5.52-6.06-8.38-3.92s-8.91,11.59-11.94,12.66l3,3.74Z" transform="translate(-205.68 -284.74)"/><path class="cls-7" d="M348.67,546.58c-1.53,2-3,3.39-5,1.73s-1-3.44.51-5.41,3.1-3.24,5-1.73S350.2,544.61,348.67,546.58Z" transform="translate(-205.68 -284.74)"/><path class="cls-7" d="M343.9,544.37c-1.38,1.71-2.7,2.94-4.58,1.34s-.95-3.15.43-4.87,2.82-2.79,4.59-1.34S345.29,542.65,343.9,544.37Z" transform="translate(-205.68 -284.74)"/></svg>