<svg id="Layer_1" data-name="Layer 1" xmlns="http://www.w3.org/2000/svg" viewBox="0 0 213.41 243.99"><defs><style>.cls-1{fill:#584d9b;}.cls-2{fill:#6a5ba4;}.cls-3{fill:#b7b0d8;}.cls-4{fill:#fff;}.cls-5{fill:#e7a966;}.cls-6{fill:#8d6332;}.cls-7{fill:#6f6372;}.cls-8{fill:#ada5af;}.cls-9{fill:#403642;}</style></defs><path class="cls-1" d="M171.08,402.74s-.22,114.36,0,118.19.42,7,5.11,10.86S195,544.71,195,544.71l1.25-126Z" transform="translate(-166.08 -303.34)"/><path class="cls-2" d="M372.31,415.1s-.85,119.88-.85,122.44-1.49,9.79-8.31,9.79S203,546.48,199.4,546.27s-6.6-1.7-6.6-8.31,1.91-117.33,1.91-117.33l90.51-68.57Z" transform="translate(-166.08 -303.34)"/><circle class="cls-3" cx="57.63" cy="152.87" r="11.81"/><circle class="cls-4" cx="71.53" cy="134.85" r="5.65"/><circle class="cls-3" cx="184.29" cy="151.87" r="11.81"/><circle class="cls-4" cx="166.39" cy="133.85" r="5.65"/><path class="cls-4" d="M285.81,466.49h-.12c-31.64,0-62.2-8.27-62.51-8.35a2,2,0,1,1,1.06-3.86c.3.08,30.36,8.2,61.45,8.21h.11c43.63,0,59.84-8.25,60-8.33a2,2,0,0,1,1.87,3.53C347,458.05,330.64,466.49,285.81,466.49Z" transform="translate(-166.08 -303.34)"/><path class="cls-4" d="M284.78,362.35a3.39,3.39,0,0,1,4.06-.08c12.47,8.91,77.53,55.37,82.89,58.18,5.92,3.1,10.43-3.1,5.92-8.46-2.1-2.5-22.62-22.35-46.78-41.07-27.75-21.5-57.17-41.22-61.5-43.38-5.93-3-10.21-3-17.26,2.35s-78.71,60.65-82.66,64.32-4.79,6.21-.56,10.72,18.13,16.78,24,20.88c4.62,3.24,8.18,1.13,11.56-1.41C207.5,422.1,272.46,371.87,284.78,362.35Z" transform="translate(-166.08 -303.34)"/><path class="cls-5" d="M239.25,357.22a8.16,8.16,0,0,0,5-4.89,12,12,0,0,0-.21-7.58s2.26-10.14-.58-10.43-8.23,4.87-8.23,4.87a25.41,25.41,0,0,0-4.15-.6,29.47,29.47,0,0,0-4,.25s-8.39-6.26-9.49-4.58c-2,3.1.23,10,.23,10s-1.42,2-.66,7c.55,3.59,4.6,6,4.6,6-3.74,2.57-5.36,7.49-5.93,9.78-.2.77-1.3-5.72-3.93-6.76s-8.21,3.5-7.59,5.45c.69,2.21,3.82-1.33,5.33-1.22s1.51,3,2.5,5c.89,1.79,3.33,5.89,12.64,6.74a3.74,3.74,0,0,1-.29-.72,9.5,9.5,0,0,1-.24-2.37v-2.38a.05.05,0,0,1,.05-.05l0,0v0a27.72,27.72,0,0,1,1.1,4.49,2.64,2.64,0,0,0,.31.82,1.07,1.07,0,0,0,.16.25c.63,0,1.29.07,2,.07,1.07,0,2.06,0,3-.05a5.09,5.09,0,0,1-.56-2.16l0-6.34a0,0,0,0,1,0,0s0,0,0,0v0a16.1,16.1,0,0,1,.67,3.15,27.59,27.59,0,0,1,.21,3.14,4.76,4.76,0,0,0,.53,2.16,35.21,35.21,0,0,0,4.43-.51,3.14,3.14,0,0,1-.87-1.49,8.46,8.46,0,0,1-.22-2.4l0-2.39a0,0,0,0,1,.05-.05s0,0,0,0v0a9.8,9.8,0,0,1,.67,2.4,16.43,16.43,0,0,0,.39,2.12,2.82,2.82,0,0,0,.33.83,2.27,2.27,0,0,0,.53.65l.1.07c5.2-1.19,7.56-3.66,7.75-7.19C245.39,363.08,239.25,357.22,239.25,357.22Z" transform="translate(-166.08 -303.34)"/><path class="cls-6" d="M210.15,345.48c-.09.49,10.08,5.22,11.34,4.36S210.38,344.22,210.15,345.48Z" transform="translate(-166.08 -303.34)"/><path class="cls-6" d="M222.84,352c-.4-.4-9.58,2.12-9.31,3.24S224,353.17,222.84,352Z" transform="translate(-166.08 -303.34)"/><path class="cls-6" d="M252.17,345.07c.08.5-8.32,3.87-9.58,3S251.94,343.81,252.17,345.07Z" transform="translate(-166.08 -303.34)"/><path class="cls-6" d="M242.58,350.07c.4-.4,8-.63,7.74.49S241.42,351.24,242.58,350.07Z" transform="translate(-166.08 -303.34)"/><path class="cls-6" d="M237.63,347.64c-1.35,0-1.69,3.94.05,3.94S238.87,347.64,237.63,347.64Z" transform="translate(-166.08 -303.34)"/><path class="cls-6" d="M228.61,347.64c-1.36,0-1.7,3.94,0,3.94S229.84,347.64,228.61,347.64Z" transform="translate(-166.08 -303.34)"/><path class="cls-6" d="M232,351.14c.27-.5,2.66-.51,3.1-.08.23.23-.77,1.61-1.49,1.59S231.9,351.37,232,351.14Z" transform="translate(-166.08 -303.34)"/><path class="cls-4" d="M334.46,318.64c-2.22-3.66-5.32-5.92-7.82-6.5-4.47-1-3.6,3.66-6.52,6a16.28,16.28,0,0,1-7.28,3.26,10,10,0,0,0,3.27,5.53c3.6,2.83,19.83,3.1,23.11-.52a11.06,11.06,0,0,0,1.21-1.63C337.31,324.34,335.72,320.72,334.46,318.64Z" transform="translate(-166.08 -303.34)"/><path class="cls-7" d="M341.9,313.88c1.53-3,1.33-10.29-.58-10.52-3.17-.39-7.85,5.87-7.85,5.87a24.76,24.76,0,0,0-6-.78,33.83,33.83,0,0,0-5.94.57s-6.59-6.52-8.65-5.12c-2.94,2,.44,10.86.44,10.86-1.09,1.72-1.11,4.27-.49,6.65a19,19,0,0,0,7.92-3.21c2.93-2.35,2.85-6.45,6.12-5.52,2.34.66,4.83,3.51,7,7.17,1.26,2.08,3.39,4.49,6.51,4.94C343.59,319.76,341.9,313.88,341.9,313.88Z" transform="translate(-166.08 -303.34)"/><path class="cls-8" d="M316.76,321.62c.41-1.67-16.29-3.83-17.83-2.66s3.42,2.68,7.74,3.15C309.46,322.42,316.56,322.4,316.76,321.62Z" transform="translate(-166.08 -303.34)"/><path class="cls-8" d="M316.42,323.41c.25-.61-12.75.26-14,3.88C302.12,328.3,315.5,325.57,316.42,323.41Z" transform="translate(-166.08 -303.34)"/><path class="cls-8" d="M338,321.26c-.15-1.4,13.1-2,14.38-.89s-3.12,1.87-6.91,1.88C343.06,322.25,338.17,322.49,338,321.26Z" transform="translate(-166.08 -303.34)"/><path class="cls-8" d="M349.94,327.63c0,.6-10.67-1.86-12.57-4.82C336.68,321.75,349.9,325,349.94,327.63Z" transform="translate(-166.08 -303.34)"/><path class="cls-9" d="M320.21,321c-.63,0-1.3-1.27-1.32-2.64s.53-2.2,1.36-2.22,1.32,1.83,1.32,2.78S321.26,321.07,320.21,321Z" transform="translate(-166.08 -303.34)"/><path class="cls-9" d="M334.36,321c.63,0,1.31-1.27,1.32-2.64s-.53-2.2-1.36-2.22S333,318,333,318.94,333.32,321.07,334.36,321Z" transform="translate(-166.08 -303.34)"/><path class="cls-9" d="M324.7,321c0-.4,1.08-1,2.15-1a2.41,2.41,0,0,1,2,.92c.19.37-1,1.89-2,1.86A2.66,2.66,0,0,1,324.7,321Z" transform="translate(-166.08 -303.34)"/><path class="cls-3" d="M313.55,330.59c.08,1.7.06,26.87.08,34a6.22,6.22,0,0,0,2.13,4.93l21,16c2,1.51,4.41-.46,4.4-3.55-.08-12.54-.22-46.62-.22-49.14,0-3.37.64-7.56-1.67-7.73-4.36-.31-21.84,0-23.36,0S313.35,326.15,313.55,330.59Z" transform="translate(-166.08 -303.34)"/></svg>