<svg id="Layer_1" data-name="Layer 1" xmlns="http://www.w3.org/2000/svg" viewBox="0 0 268.15 245.12"><defs><style>.cls-1{fill:#edcd78;}.cls-2{fill:#feeb98;}.cls-3{fill:#a55441;}.cls-4{fill:#f4a497;}.cls-5{fill:#e7e0e9;}.cls-6{fill:#b0a5b3;}.cls-7{fill:#9cc993;}.cls-8{fill:#f9c6c1;}.cls-9{fill:#dab3d5;}</style></defs><path class="cls-1" d="M418.08,335.27V446.69a13.14,13.14,0,0,1-3.85,9.3l-30,30.07V360.32Z" transform="translate(-164.08 -255.74)"/><path class="cls-2" d="M385.52,360.32V482.71a5,5,0,0,1-5,5H200.15a5,5,0,0,1-5-5V375.35l95.19-60.83Z" transform="translate(-164.08 -255.74)"/><path class="cls-3" d="M349.9,433.84a2,2,0,0,1-.34,0,2.44,2.44,0,0,1-1.76-1.12c-.07-.1-6.62-10-15.67-10.6-8.82-.52-14.55,8.16-14.6,8.25a2.5,2.5,0,0,1-4.22-2.7c.3-.46,7.34-11.27,19.13-10.54,8.52.52,14.91,7,17.83,10.55l11.09-9.94a2.5,2.5,0,1,1,3.33,3.72L351.57,433.2A2.54,2.54,0,0,1,349.9,433.84Z" transform="translate(-164.08 -255.74)"/><path class="cls-3" d="M229.49,433.84l.33,0a2.44,2.44,0,0,0,1.77-1.12c.06-.1,6.62-10,15.66-10.6,8.83-.52,14.55,8.16,14.61,8.25a2.5,2.5,0,0,0,4.21-2.7c-.29-.46-7.33-11.27-19.12-10.54-8.52.52-14.91,7-17.83,10.55L218,417.71a2.5,2.5,0,1,0-3.34,3.72l13.13,11.77A2.52,2.52,0,0,0,229.49,433.84Z" transform="translate(-164.08 -255.74)"/><path class="cls-3" d="M345.44,442.47a2.26,2.26,0,0,0-2.23,2.52,2.31,2.31,0,0,0,4.6-.23A2.2,2.2,0,0,0,345.44,442.47Z" transform="translate(-164.08 -255.74)"/><path class="cls-3" d="M359.84,436.22a2.26,2.26,0,0,0-2.24,2.52,2.31,2.31,0,0,0,4.6-.23A2.19,2.19,0,0,0,359.84,436.22Z" transform="translate(-164.08 -255.74)"/><path class="cls-3" d="M356.24,447.52A2.27,2.27,0,0,0,354,450a2.31,2.31,0,0,0,4.6-.23A2.19,2.19,0,0,0,356.24,447.52Z" transform="translate(-164.08 -255.74)"/><path class="cls-3" d="M216.74,438.23a2.26,2.26,0,0,0-2.23,2.52,2.31,2.31,0,0,0,4.6-.23A2.2,2.2,0,0,0,216.74,438.23Z" transform="translate(-164.08 -255.74)"/><path class="cls-3" d="M231.24,443.88a2.27,2.27,0,0,0-2.23,2.53,2.3,2.3,0,0,0,4.59-.23A2.19,2.19,0,0,0,231.24,443.88Z" transform="translate(-164.08 -255.74)"/><path class="cls-3" d="M219.87,449.11a2.27,2.27,0,0,0-2.23,2.53,2.31,2.31,0,0,0,4.6-.23A2.2,2.2,0,0,0,219.87,449.11Z" transform="translate(-164.08 -255.74)"/><path class="cls-4" d="M280.46,430.57,297.65,429c4.83-.6,5.59,1.12,5.59,4.82,0,6-.58,17.52-12.12,18.26s-14.47-11-15.17-16.8C275.74,433.57,275.93,430.92,280.46,430.57Z" transform="translate(-164.08 -255.74)"/><path class="cls-3" d="M290.33,321.32s-88.63,55.6-91.44,57.34-7,3.66-8.55,1.19,3.29-6.47,6.21-9.05c1.44-1.27,26.7-25.16,31.66-28.27,15.08-9.46,86.12-52.17,88.79-54,3.83-2.65,9.39-5.23,15.58-1.63s84.42,42.57,86.28,43.53,6,3.88,2.36,8-30,29.36-31.66,30.94-6.15,2.54-12.32-.85C369.85,364.43,290.33,321.32,290.33,321.32Z" transform="translate(-164.08 -255.74)"/><path class="cls-5" d="M347,274l-1.05-2.19a3.9,3.9,0,0,1-4.39.21c-2.23-1.47-1.52-8.34,2.72-12s6.18-4.26,9.45-4.26,4.47,3.83,4.47,3.83a34.11,34.11,0,0,1,7.22-.76,42.84,42.84,0,0,1,6.77.81,9.48,9.48,0,0,1,6-3.13c3.71-.28,6.69,2.28,8.63,6.11s2.24,9.51-1.09,10.56-5.87-2.51-5.87-2.51l-.8,2.93Z" transform="translate(-164.08 -255.74)"/><path class="cls-6" d="M371.32,266.36c-2.19-1-2.28,3-1.25,4.37C372.22,271.78,372.36,267.66,371.32,266.36Z" transform="translate(-164.08 -255.74)"/><path class="cls-6" d="M358.17,266.36c-2.19-1-2.28,3-1.25,4.37C359.07,271.78,359.21,267.66,358.17,266.36Z" transform="translate(-164.08 -255.74)"/><path class="cls-6" d="M364.61,268.8c-.84.06-1.47,1.1-1.38,2.51s.89,1.89,1.64,1.84,1.33-1.13,1.26-2.26S365.77,268.73,364.61,268.8Z" transform="translate(-164.08 -255.74)"/><path class="cls-6" d="M348.05,266.77H348a24.74,24.74,0,0,1-1,2.51c-.37.81-.64,1.67-1,2.49l.41.85.3-.47a11,11,0,0,0,1.26-2.52A5.44,5.44,0,0,0,348.05,266.77Z" transform="translate(-164.08 -255.74)"/><path class="cls-6" d="M379.67,270.17a29.83,29.83,0,0,1-1.32-2.79h-.1a6.69,6.69,0,0,0,.51,3.19,7.92,7.92,0,0,0,.74,1.45l.38-1.38.09.11C379.87,270.56,379.78,270.36,379.67,270.17Z" transform="translate(-164.08 -255.74)"/><path class="cls-2" d="M345.06,276.61v43.14a4.94,4.94,0,0,0,2.9,4.51l29.21,13.13c1.8.92,4.67,2.33,4.41-4.32s-.59-54.72-.59-57.18-1.8-3.32-3.78-3.27-27.43.56-29,.54S345.06,274.23,345.06,276.61Z" transform="translate(-164.08 -255.74)"/><path class="cls-7" d="M190.09,469.57l2.35,9.07s5.43-13.56,13.93-13.43c8.66.14,6.55,11.53-.5,18.23a68.36,68.36,0,0,1-13,9.93s-16.41-.82-21.94-7.73,1.33-11.89,6-11.09a27.91,27.91,0,0,1,8.53,3.06l-2.48-8.86Z" transform="translate(-164.08 -255.74)"/><path class="cls-8" d="M184.61,446.29s-4.24-3.93-7.85-2.21-3,7.75-3,7.75-5.78-2.68-8.45-.1S163.59,466,174.69,472s23.43-.11,26.17-10.4S197.18,440,192,439.12,184.61,446.29,184.61,446.29Z" transform="translate(-164.08 -255.74)"/><path class="cls-9" d="M426.25,500.83c1.67,0,6.2-2.86,6-8.91s-5.26-14.32-17.9-13.28a12.89,12.89,0,0,0-5.89-11.22c-5.87-3.93-14.32-.79-14.32-.79a17.13,17.13,0,0,0-13.92-4c-8.27,1.43-10.42,7.16-10.42,7.16s-6.36-1.67-11.45,2.23-4.54,8.51-4.54,8.51-8.43-2.87-12.8,1.59-5.09,13-2.15,16.07,5.81,2.62,11.38,2.62Z" transform="translate(-164.08 -255.74)"/></svg>