<svg id="Layer_1" data-name="Layer 1" xmlns="http://www.w3.org/2000/svg" viewBox="0 0 315.86 214.13"><defs><style>.cls-1{fill:#80b075;}.cls-2{fill:#9cc993;}.cls-3{fill:#c1dcaa;}.cls-4{fill:#406d34;}</style></defs><path class="cls-1" d="M451.31,375.19s.34,121.9.11,125-1.25,5.24-5.87,8.31c-3.29,2.19-30.67,18.24-30.67,18.24V393.66Z" transform="translate(-140.21 -313.89)"/><path class="cls-2" d="M417.06,396.11S419,511,418.59,517.43s.19,10.59-11,10.59l-256.54-.21c-4.17,0-6.82,0-7.2-6.23s0-105.39,0-105.39l141.35-76.7Z" transform="translate(-140.21 -313.89)"/><path class="cls-3" d="M281.14,346.89a5.41,5.41,0,0,1,4.74-.2C303,354.12,405,398.47,409.79,401c5.29,2.78,7.9,3.41,11.8.4s30-19.49,33-22.05,1.06-5.28-2.68-7.15c-5.38-2.69-124.19-55.72-126.72-57.11s-7.11-1.85-11.3,0c-6.33,2.8-127,68.34-138.25,76.95-7.83,6-30.46,19.36-33.32,22.27-4.19,4.26-1.77,7.63,3.74,5.24C151.15,417.37,263.51,356.46,281.14,346.89Z" transform="translate(-140.21 -313.89)"/><path class="cls-4" d="M276.1,483.11,269,477.36l4.95-5.14a3,3,0,1,0-4.32-4.16l-5.32,5.52L258.65,469a3,3,0,1,0-3.77,4.67l5.23,4.22-6.42,6.67a3,3,0,1,0,4.32,4.16l6.79-7.05,7.53,6.08a3,3,0,0,0,3.77-4.67Z" transform="translate(-140.21 -313.89)"/><path class="cls-3" d="M171.94,489.67a3,3,0,0,1-1.51-5.59l16.86-9.8a3,3,0,1,1,3,5.19l-16.86,9.79A3,3,0,0,1,171.94,489.67Z" transform="translate(-140.21 -313.89)"/><path class="cls-3" d="M176.56,500.35a3,3,0,0,1-1.53-5.58l18.06-10.68a3,3,0,1,1,3.06,5.16l-18.07,10.68A2.91,2.91,0,0,1,176.56,500.35Z" transform="translate(-140.21 -313.89)"/><path class="cls-3" d="M366.92,485.2a3,3,0,0,0,1.51-5.6l-16.86-9.8a3,3,0,0,0-3,5.19l16.87,9.8A3,3,0,0,0,366.92,485.2Z" transform="translate(-140.21 -313.89)"/><path class="cls-3" d="M362.3,495.87a3,3,0,0,0,1.53-5.58l-18.06-10.68a3,3,0,1,0-3,5.17l18.06,10.68A3,3,0,0,0,362.3,495.87Z" transform="translate(-140.21 -313.89)"/><path class="cls-4" d="M233.33,459.32c-.58-4.36-2.45-7.54-7.76-7.48h-.14l-33,.61a3,3,0,0,0,.05,6h.06l25.56-.47a11.51,11.51,0,0,0-.19,5.14c1.3,7.19,6,10.67,9.87,9.87C232.6,472,234.07,465,233.33,459.32Z" transform="translate(-140.21 -313.89)"/><path class="cls-4" d="M333.76,456.3c-.57-4.36-2.44-7.54-7.75-7.48h-.14l-33,.61a3,3,0,0,0,.05,6H293l25.56-.47a11.51,11.51,0,0,0-.19,5.14c1.3,7.18,6.05,10.67,9.87,9.87C333,469,334.51,462,333.76,456.3Z" transform="translate(-140.21 -313.89)"/></svg>