<svg id="Layer_1" data-name="Layer 1" xmlns="http://www.w3.org/2000/svg" viewBox="0 0 237.15 336.07"><defs><style>.cls-1{fill:#f2dca2;}.cls-2{fill:#f8e8bc;}.cls-3{fill:#ffde77;}.cls-4{fill:#dcc997;}.cls-5{fill:#94d16f;}.cls-6{fill:#ee8b7a;}.cls-7{fill:#a86f47;}.cls-8{fill:#d69d76;}</style></defs><path class="cls-1" d="M1071.38,678.26c-.16,6.42-1.12,7.68-3.76,11.49-4.37,6.33-14.18,16.89-21.16,18.46l-1.69-256.65L1072,439S1071.48,674.41,1071.38,678.26Z" transform="translate(-841.93 -372.78)"/><path class="cls-2" d="M1050.87,460.78s1.64,240.3.72,243.16-2.46,4.15-8.93,4.78-186.24-1.27-188.7-2.55-4.31-3.5-4-8,.28-228.74.28-228.74l97.39-69.55Z" transform="translate(-841.93 -372.78)"/><path class="cls-3" d="M1021.21,686.5c-1.19,1.32,1.82,7.78,5.79,7.78s11.76-8.94,8.45-12.42C1032.43,678.7,1025.51,681.69,1021.21,686.5Z" transform="translate(-841.93 -372.78)"/><path class="cls-4" d="M966.58,689.14s-6.88-1.16-6.46-5.79c.6-6.54,10-10.21,16.56-7.78,8.08,3,9.76,11.59,7.12,15.4s-9.61,1.46-9.61,1.46-2.48,4-4.63,3.83-4.64-1.49-4.3-2.81S966.58,689.14,966.58,689.14Z" transform="translate(-841.93 -372.78)"/><path class="cls-4" d="M881.58,600s-.27,5.57-4.1,5.72c-5.42.2-9.37-6.87-8-12.3,1.66-6.72,8.53-8.94,11.91-7.23s2.17,7.45,2.17,7.45,3.52,1.55,3.6,3.27-.76,3.82-1.88,3.7S881.58,600,881.58,600Z" transform="translate(-841.93 -372.78)"/><path class="cls-4" d="M963.36,461.74s-6.81-1-6.52-5.8c.42-6.74,9.61-10.75,16.12-8.42,8.06,2.88,9.95,11.66,7.44,15.65s-9.44,1.76-9.44,1.76-2.34,4.16-4.47,4.05-4.61-1.41-4.32-2.78S963.36,461.74,963.36,461.74Z" transform="translate(-841.93 -372.78)"/><path class="cls-4" d="M946,506.8s4.61-4.34,1.85-7.87c-3.9-5-13-3.29-16.64,1.9-4.55,6.42-1.31,14.18,2.7,15.95s8.06-3.56,8.06-3.56,4,2,5.52.8,2.73-3.49,1.78-4.4S946,506.8,946,506.8Z" transform="translate(-841.93 -372.78)"/><path class="cls-4" d="M1019,530.54s-2.33-4.76-5.7-3.45c-4.78,1.86-5.54,9.52-2.34,13.76,4,5.24,10.75,4.6,13,1.85s-.93-7.33-.93-7.33,2.47-2.67,1.89-4.2-2.1-3.06-3-2.53S1019,530.54,1019,530.54Z" transform="translate(-841.93 -372.78)"/><path class="cls-3" d="M939.63,558.77c2,3.29,2.32,12.19-1.35,16.83-2,2.48-10.08-1.4-10.52-4.12-.12-.69,2.14-4.81,2.86-6C932.19,563.06,936.25,553.29,939.63,558.77Z" transform="translate(-841.93 -372.78)"/><path class="cls-3" d="M888.74,528.35a14.07,14.07,0,0,1-5.28-1,34,34,0,0,1-4.5-2.17,30.73,30.73,0,0,1-3.93-2.66A10.89,10.89,0,0,1,873.3,521a3.28,3.28,0,0,1-.52-1.06c-.14-.38-.14-.9.45-2a13.29,13.29,0,0,1,5.74-5.46l.16-.08c1.08-.53,1.58-.52,1.94-.38a3,3,0,0,1,1,.5,10.84,10.84,0,0,1,1.3,1.57c.82,1.09,1.63,2.15,2.39,3.25s1.53,2.16,2.33,3.16l2.35,3,.39.49a2.69,2.69,0,0,1-2.07,4.36Z" transform="translate(-841.93 -372.78)"/><path class="cls-5" d="M994.78,481.21c-.22-5.2,1.1-11.06,4.13-15.25a3.36,3.36,0,0,1,3.35-1.3c3.7.71,8.31,3.36,5,6.87-2.36,2.54-6,8.21-8.23,10.89C997.85,484.51,995,483.49,994.78,481.21Z" transform="translate(-841.93 -372.78)"/><path class="cls-3" d="M980.48,517.36c-.49-1.13-.91-2.2-1.33-3.3s-.85-2.21-1.3-3.33-.87-2.25-1.27-3.41a8.43,8.43,0,0,1-.51-1.76,2.52,2.52,0,0,1,.18-1c.09-.34.38-.72,1.45-1.26l.16-.08a14.82,14.82,0,0,1,7.76-1.57c1.2.09,1.61.34,1.84.64a2.75,2.75,0,0,1,.55.92,9.17,9.17,0,0,1,.2,2,27.53,27.53,0,0,1-.11,4.24,34.64,34.64,0,0,1-.73,4.39,13.85,13.85,0,0,1-1.85,4.41,2.76,2.76,0,0,1-4.82-.44Z" transform="translate(-841.93 -372.78)"/><path class="cls-3" d="M929.91,671.26a43.52,43.52,0,0,1,6.58,8.57,3.17,3.17,0,0,1-.67,3.75,13.32,13.32,0,0,1-6.94,3.61C922,688.74,921.34,662.34,929.91,671.26Z" transform="translate(-841.93 -372.78)"/><path class="cls-5" d="M895.81,564.19c-1.22-1.54-6.7-6.65-11-11.27-1.56-1.69-4.49,1.18-5.64,3.4-2.14,3.34,7.37,10.66,12.85,12C895.81,569.22,897.33,566.12,895.81,564.19Z" transform="translate(-841.93 -372.78)"/><path class="cls-5" d="M973.58,549.86a27.92,27.92,0,0,1,4.78,2.19c1.49.84,2.93,1.72,4.35,2.65s2.78,1.92,4.12,3a16.47,16.47,0,0,1,1.95,1.71,5.68,5.68,0,0,1,.77,1.12,2,2,0,0,1,.12,1.77,5.24,5.24,0,0,1-3.52,3.38l-.55.16a1.83,1.83,0,0,1-1.56,0,5.22,5.22,0,0,1-.95-.63c-.57-.5-1.07-1.11-1.61-1.69l-3.23-3.52L975,556.36c-1.08-1.19-2.17-2.41-3.18-3.57l-.09-.11a1.75,1.75,0,0,1,.17-2.47A1.77,1.77,0,0,1,973.58,549.86Z" transform="translate(-841.93 -372.78)"/><path class="cls-5" d="M1029.62,597.86a23,23,0,0,0,2.52-4.15c.7-1.44,1.34-2.9,1.94-4.38s1.12-3,1.58-4.59a15.69,15.69,0,0,0,.6-2.43,6.2,6.2,0,0,0,0-1.36,2.36,2.36,0,0,0-.86-1.65,5.06,5.06,0,0,0-4.52-1.44l-.51.11c-.77.17-1,.41-1.18.74a4.43,4.43,0,0,0-.4,1c-.17.71-.23,1.49-.34,2.25l-.61,4.67-.6,4.72c-.2,1.57-.39,3.17-.55,4.68l0,.14a2.07,2.07,0,0,0,1.46,2.15A1.4,1.4,0,0,0,1029.62,597.86Z" transform="translate(-841.93 -372.78)"/><path class="cls-3" d="M924.64,451.2a24.08,24.08,0,0,1,2.59-4.5q1.46-2,3-3.93a44.29,44.29,0,0,1,3.37-3.63,13.29,13.29,0,0,1,1.91-1.67,4.8,4.8,0,0,1,1.24-.54,2.15,2.15,0,0,1,1.91.39,7.87,7.87,0,0,1,3.43,4.82l.2.87c.23,1,.17,1.39-.05,1.71a3.51,3.51,0,0,1-.66.86,17,17,0,0,1-1.82,1.23c-1.26.82-2.56,1.64-3.88,2.44l-4,2.42c-1.33.8-2.69,1.59-4,2.26l-.24.12a2.22,2.22,0,0,1-3.05-2.85Z" transform="translate(-841.93 -372.78)"/><path class="cls-5" d="M894.27,492.61c-.88-2.53,2.69-10.22,7.27-14s10.44-5.09,13.59-3.93,2.12,5.14,1.67,5.59-7.11.68-10.73,5-4.23,9-5.06,10S895.53,496.28,894.27,492.61Z" transform="translate(-841.93 -372.78)"/><path class="cls-5" d="M897.5,693c-1.58,2.16-9.93,3.63-15.66,2s-10.15-5.66-11-8.91,3-4.68,3.64-4.56,4.62,5.44,10.22,5.95,9.8-1.67,11.08-1.55S899.79,689.87,897.5,693Z" transform="translate(-841.93 -372.78)"/><ellipse class="cls-6" cx="174.09" cy="273.74" rx="23" ry="23.22"/><ellipse class="cls-6" cx="45.99" cy="274.02" rx="23" ry="23.22"/><ellipse class="cls-7" cx="86.23" cy="246.31" rx="9.49" ry="9.19"/><ellipse class="cls-7" cx="130.88" cy="246.21" rx="9.49" ry="9.19"/><path class="cls-7" d="M957.34,643.62c-8.06,0-16.49-.31-17.07-.33a3,3,0,0,1,.22-6c6.42.24,24.13.67,29-.17,5.39-.93,10.47-5.16,10.52-5.2a3,3,0,0,1,3.87,4.58c-.26.22-6.35,5.32-13.37,6.53A99.34,99.34,0,0,1,957.34,643.62Z" transform="translate(-841.93 -372.78)"/><path class="cls-7" d="M987.32,603.36a3,3,0,0,1-1.88-.67c-4.66-3.76-9.63-4.85-16.14-3.55a3,3,0,0,1-1.18-5.89c8.18-1.63,15.08-.07,21.09,4.77a3,3,0,0,1-1.89,5.34Z" transform="translate(-841.93 -372.78)"/><path class="cls-7" d="M933.51,612h0a43.37,43.37,0,0,1-21.31-6.39,3,3,0,0,1,3.22-5.06A37.57,37.57,0,0,0,933.56,606a3,3,0,0,1,0,6Z" transform="translate(-841.93 -372.78)"/><path class="cls-8" d="M947.58,407.79a4.3,4.3,0,0,1,4.82-.06c14.61,9.64,90.16,59.48,92.23,60.52a7.91,7.91,0,0,0,8.26-.92c2.75-2.06,24-24.76,25.36-26.17s1-4.35-1.49-6.09c-2.31-1.59-94.24-59.88-97-61s-6-2.52-11,.92S871.58,443,868.14,446.24s-24.71,24.8-25.78,27.18c-1.65,3.66,1.79,5.95,5,3.9C849.3,476.12,932.33,418.4,947.58,407.79Z" transform="translate(-841.93 -372.78)"/></svg>