<svg xmlns="http://www.w3.org/2000/svg" viewBox="0 0 316.35 266.15"><defs><style>.cls-1{fill:#a2caee;}.cls-2{fill:#c1e0fc;}.cls-3{fill:#81b0d9;}.cls-4{fill:#fff;}.cls-5{fill:#6a6c9f;}.cls-6{fill:#8485f4;}</style></defs><g id="Layer_1" data-name="Layer 1"><path class="cls-1" d="M657.4,577.84s-1.64,34.44,0,56.84,3.55,29.52,5.19,34.17,6.26,7.46,12.3,11.36c16.93,10.93,66.53,49.78,73.91,53.33s-.11-114.65-.11-114.65Z" transform="translate(-637.39 -469.6)"/><path class="cls-2" d="M927.28,603.81V726.4c0,9.36-6.4,9.36-23.14,9.36H764.45c-11.7,0-19.34-.34-19.34-10.32,0-16.75-2.23-106.48-2.23-106.48l99.22-76.7Z" transform="translate(-637.39 -469.6)"/><path class="cls-3" d="M722.84,651.21,678.7,621.92a3,3,0,0,0-4.66,2.33l-1.86,33a3,3,0,0,0,1.43,2.73l46,28.09a3,3,0,0,0,1.56.44,3,3,0,0,0,3-3V653.71A3,3,0,0,0,722.84,651.21Zm-43.1-21.4L695.08,640l-1.6,25.14-15.21-9.29Zm38.44,50.4-18.92-11.55,1.58-24.84,17.34,11.5Z" transform="translate(-637.39 -469.6)"/><path class="cls-4" d="M799.9,625.51c-11.85.28-28,11-28.06,30.22,0,16.06,14.23,28.68,28.06,28.28s28.47-12.22,28.46-28.28S816.5,625.12,799.9,625.51Z" transform="translate(-637.39 -469.6)"/><path class="cls-5" d="M800.05,648.41a8.25,8.25,0,0,0-7.69,8.28,7.87,7.87,0,0,0,7.69,7.75c3.79-.11,7.8-3.35,7.8-7.75S804.6,648.3,800.05,648.41Z" transform="translate(-637.39 -469.6)"/><path class="cls-4" d="M882.91,624.51c11.85.28,28,11,28.06,30.22,0,16.06-14.23,28.68-28.06,28.28s-28.47-12.22-28.46-28.28S866.31,624.12,882.91,624.51Z" transform="translate(-637.39 -469.6)"/><path class="cls-5" d="M882.77,647.41a8.25,8.25,0,0,1,7.69,8.28,7.87,7.87,0,0,1-7.69,7.75c-3.79-.11-7.8-3.35-7.8-7.75S878.22,647.3,882.77,647.41Z" transform="translate(-637.39 -469.6)"/><path class="cls-5" d="M842.77,665.13a8.26,8.26,0,0,0-7.69,8.28,7.86,7.86,0,0,0,7.69,7.75c3.79-.11,7.8-3.35,7.8-7.75S847.32,665,842.77,665.13Z" transform="translate(-637.39 -469.6)"/><path class="cls-6" d="M946.53,598.83c-2.79-2.62-23.07-17.58-44.71-33.33-.19-10.68-.51-30.39-.5-35.57,0-8.72-4-10.08-8.83-10.5s-15.8.27-23.3.32c-6,0-7.59,3-7.78,7.5-.07,1.54-.09,5.06-.08,9-6.57-4.7-11.58-8.27-14-9.93-12.24-8.5-60.25-41.76-79.53-51.65-13-6.65-20.27-8.18-33.89,4.34-11.71,10.75-84.1,74.83-89.54,81s-12.59,12.88,0,21.07,75.22,51.59,82.72,56.52c5.87,3.86,11.72,3.92,16.19-.85,9.51-10.18,99.51-85.24,99.51-85.24s76.46,55.5,85.71,60.8c9.43,5.41,16.65,3.9,21.84,2.09C957.3,611.93,952.31,604.27,946.53,598.83Z" transform="translate(-637.39 -469.6)"/></g></svg>