<svg id="Layer_1" data-name="Layer 1" xmlns="http://www.w3.org/2000/svg" viewBox="0 0 240.03 224.15"><defs><style>.cls-1{fill:#f7bdb7;}.cls-2{fill:#f9c6c1;}.cls-3{fill:#f9ba71;}.cls-4{fill:#f5a9a0;}.cls-5{fill:#f0827a;}.cls-6{fill:#e0887f;}.cls-7{fill:#9cc993;}.cls-8{fill:#feeb98;}</style></defs><path class="cls-1" d="M180.63,375.85s.31,114.32.31,117.78,1.48,5.68,3.45,7.9,23,24.2,25.93,25.93l2-131.86Z" transform="translate(-177.27 -309.17)"/><path class="cls-2" d="M206.64,390.77s-.76,121.81-.41,126.3c.63,8.11,3.26,11.82,10.19,12.22s167.8.22,172.33-.81c6-1.36,6.52-6.93,6.52-10.59s-.81-120.6-.81-120.6l-101-52.56Z" transform="translate(-177.27 -309.17)"/><path class="cls-3" d="M297.51,353.14a4,4,0,0,1,3.9-.11c13.56,7.21,92.23,49,95.46,49.85,3.53,1,7.55-3.21,4.66-6.42s-32.79-24.55-36.33-27.12-91.26-49.53-93-50.33a8.66,8.66,0,0,0-7.55.8c-2.73,1.61-83.28,49.57-85.8,51.9-2.09,1.93-1.93,5.3-.32,6.59s28.76,22,30.2,23.14a7.18,7.18,0,0,0,7.56.32C219.17,400.3,285.33,360.47,297.51,353.14Z" transform="translate(-177.27 -309.17)"/><path class="cls-2" d="M220.29,315.18c-.17,2.24.15,48.56.45,50.93s4.15,4.16,7.72,1.79,19.3-13.07,20.64-14.26,1.63-3,1.78-5.5-.15-32.52-.15-34.15a5,5,0,0,0-4.9-4.75c-3.41,0-19.75-.45-22.27,1S220.44,313.25,220.29,315.18Z" transform="translate(-177.27 -309.17)"/><ellipse class="cls-4" cx="60.81" cy="171.2" rx="13.43" ry="13.79"/><ellipse class="cls-4" cx="193.93" cy="171.2" rx="13.43" ry="13.79"/><path class="cls-5" d="M286.31,477.09h0l-35-.4a3,3,0,0,1-3-3l-.2-34.49a3,3,0,0,1,3-3l35.67.4a3,3,0,0,1,2.11.9,3,3,0,0,1,.85,2.13l-.41,34.48A3,3,0,0,1,286.31,477.09Zm-32.07-6.37,29.11.33.34-28.48-29.61-.33Z" transform="translate(-177.27 -309.17)"/><path class="cls-5" d="M322,477.31a3,3,0,0,1-3-3l-.42-34.48a3,3,0,0,1,3-3l35.05-.45h0a3,3,0,0,1,3,2.91l1.05,34.47a3,3,0,0,1-3,3.09l-35.67.46Zm2.62-34.52.35,28.48,29.61-.38-.86-28.47Z" transform="translate(-177.27 -309.17)"/><path class="cls-5" d="M321.61,463.37A3,3,0,0,1,319.1,462a17.91,17.91,0,0,0-14.69-7.08,19.33,19.33,0,0,0-14.88,6.82,3,3,0,0,1-4.84-3.54A25.32,25.32,0,0,1,304.31,449a23.79,23.79,0,0,1,19.8,9.77,3,3,0,0,1-2.5,4.65Z" transform="translate(-177.27 -309.17)"/><path class="cls-6" d="M304.35,484.93H304c-5.59-.25-10.38-6.57-10.91-7.29a3,3,0,0,1,4.84-3.56h0c1.41,1.91,4.4,4.77,6.34,4.86,1.59.07,4.26-2.76,5.53-4.83a3,3,0,0,1,5.13,3.11C314.47,478,310.11,484.93,304.35,484.93Z" transform="translate(-177.27 -309.17)"/><ellipse class="cls-6" cx="89.75" cy="147.87" rx="6.92" ry="8.27"/><ellipse class="cls-6" cx="162.14" cy="146.74" rx="6.92" ry="8.27"/><path class="cls-7" d="M393.17,509,394.65,521s-7.26-8.88-15.64-7.79c-10.31,1.35-6,12.84,5.32,16.87s16.05,3.15,16.05,3.15,14.61-3.07,16.79-12.7c1.22-5.41-6.44-6.69-10.38-4a26.38,26.38,0,0,0-5.64,5l-2.39-17.11Z" transform="translate(-177.27 -309.17)"/><path class="cls-8" d="M404.59,490.55c1.37,1,11.27,2.49,12.29,5.6s-2.15,6.92-6.68,8.87c0,0,4,7.47,2.74,10.44s-5.25,2.75-8.36,1.7-5.45-3.77-7.3-3.47-6.64,5.92-11.83,5.9-5.36-8.6-4.78-11.32c.47-2.19,1-3.27.66-4.43s-8.87-3.56-10.09-7.85,4.09-6.72,7.71-6.79,5.88.08,5.88.08,3.56-5.76,6-7.89,6.15-2.55,8.74.65A49.15,49.15,0,0,1,404.59,490.55Z" transform="translate(-177.27 -309.17)"/></svg>