<svg xmlns="http://www.w3.org/2000/svg" viewBox="0 0 250.6 308.71"><defs><style>.cls-1{fill:#9cc992;}.cls-2{fill:#c9f1c0;}.cls-3{fill:#71aa64;}.cls-4{fill:#609553;}.cls-5{fill:#d3edcd;}.cls-6{fill:#5c9a4f;}</style></defs><g id="Layer_1" data-name="Layer 1"><path class="cls-1" d="M722.47,748.27s-44.66-33.83-48.26-36.92-9.24-7.7-9.76-25.17,0-175.16,0-175.16l51.91,40.58Z" transform="translate(-661.57 -443.2)"/><path class="cls-2" d="M715.36,550.6s-2.05,168,0,182.36,7.17,17.46,18.47,18.49,142.81,0,150.51,0,18.44-3.08,18.44-12.07V548l-87.27-54.45Z" transform="translate(-661.57 -443.2)"/><path class="cls-3" d="M907.75,542.82c-.78-.65-21.5-15.26-46.7-33V469.61c0-9-2-9.36-9.92-9.36H834.76c-11,0-8.48,7.09-8.29,14.72.06,2.11.06,6.56,0,10.59-29.71-20.87-56.43-39.62-57.46-40.32-2.34-1.58-6.86-3.67-12,0s-90.13,58-92,59.37-5.1,4-2.51,7.69,50.58,45.15,53.34,47.07,5.94.92,9-1c2.77-1.73,73.8-47.52,88.49-57a4.86,4.86,0,0,1,5.28,0c13.83,9,77.6,50.35,80.67,51.84,3.44,1.67,8.66,3.64,11.76-.54S909.76,544.49,907.75,542.82Z" transform="translate(-661.57 -443.2)"/><path class="cls-4" d="M862.11,617.08c-.07-.2-1.44-4.79-7.57-6.35-6-1.53-9.08,1.16-9.23,1.31-1.92,2-5.53,2.75-7.52.83s-.83-5.82,1.09-7.81c2.78-2.88,8.78-6.42,18.14-4a20.91,20.91,0,0,1,14.84,12.8c1.64,4-.31,6.69-2.94,7.53C865,622.61,862.79,619.21,862.11,617.08Z" transform="translate(-661.57 -443.2)"/><path class="cls-4" d="M848.74,626.89c-8.74,0-9.85,11.37-8.56,17.28,1.24,5.64,10.7,11.83,16,.4C859.52,637.37,855.2,626.89,848.74,626.89Z" transform="translate(-661.57 -443.2)"/><path class="cls-4" d="M775.12,624.15h0s-8.39-2.31-13.48-2.41-8.25.67-8.73,3.55,1.82,4.09,7,4.93c1.61.26,3,.57,4.24.89a15.11,15.11,0,0,0-.84,10.42c4,12.93,15.21,7.82,17.39,2S783.45,626.25,775.12,624.15Z" transform="translate(-661.57 -443.2)"/><path class="cls-4" d="M825.86,656.43H791.62a5,5,0,0,1,0-10h34.24a5,5,0,0,1,0,10Z" transform="translate(-661.57 -443.2)"/><polygon class="cls-5" points="69.54 46.51 77.53 54.03 101.57 35.8 93.12 29.31 69.54 46.51"/><path class="cls-5" d="M712,527.81l7.8,7.57a6.18,6.18,0,0,0,6.57.42l23.88-17.09-11.72-11Z" transform="translate(-661.57 -443.2)"/><path class="cls-5" d="M745,502.78,756.9,514,782,496a6.4,6.4,0,0,0,1.57-1.38L769.71,484Z" transform="translate(-661.57 -443.2)"/><polygon class="cls-5" points="62.97 51.31 36.22 70.82 35.89 70.5 44.64 78.98 71.07 58.93 62.97 51.31"/><path class="cls-6" d="M725.87,484.78l5.24,4.93,23.58-17.21,8.45,6.49,3.6-2.73-12.27-9.85a1.88,1.88,0,0,0-.23-.16,3,3,0,0,0-.56-.29,2.89,2.89,0,0,0-.82-.15h-.05a3.2,3.2,0,0,0-.87.12,3.35,3.35,0,0,0-.66.32l-.15.09Z" transform="translate(-661.57 -443.2)"/><path class="cls-6" d="M783.83,494.21l.09-.14.16-.3a1.11,1.11,0,0,1,.07-.16l.11-.3c0-.05,0-.09,0-.14a2.49,2.49,0,0,0,.08-.35.29.29,0,0,0,0-.09,3,3,0,0,0,0-.42v-.11a2.81,2.81,0,0,0,0-.3s0-.1,0-.15a2.34,2.34,0,0,0,0-.26l0-.13a2.29,2.29,0,0,0-.08-.28l0-.1a3.65,3.65,0,0,0-.14-.35l0-.06-.15-.26-.06-.1c-.05-.07-.09-.14-.14-.2l-.07-.1-.16-.18-.07-.07-.24-.22-10-8L769.71,484l13.81,10.61h0A4.15,4.15,0,0,0,783.83,494.21Z" transform="translate(-661.57 -443.2)"/><path class="cls-6" d="M724.53,494.51l-5.23-4.93-24,17.54a2.69,2.69,0,0,0-.46.43l-.11.15a2.92,2.92,0,0,0-.45.9,2.77,2.77,0,0,0,.08,1.73,2.88,2.88,0,0,0,.69,1l2.42,2.34.34.33Z" transform="translate(-661.57 -443.2)"/></g></svg>