<svg id="Layer_1" data-name="Layer 1" xmlns="http://www.w3.org/2000/svg" viewBox="0 0 251.14 214.73"><defs><style>.cls-1{fill:#f2dda2;}.cls-2{fill:#f8e9bd;}.cls-3{fill:#fcd098;}.cls-4{fill:#d59747;}.cls-5{fill:#f7b96b;}</style></defs><path class="cls-1" d="M412.31,486.11c-.16,5.12-1.12,5.44-3.68,8.48-4.25,5.05-26.37,27.73-37.5,32.09l.3-125.86,40.85-32S412.41,483,412.31,486.11Z" transform="translate(-172.41 -313.25)"/><path class="cls-2" d="M375.07,399s0,122.78-.9,125.07-2.39,3.3-8.67,3.81-181.06-1-183.45-2a5.77,5.77,0,0,1-3.89-6.36c.3-3.56,1.87-113.56,1.87-113.56l94.68-55.48Z" transform="translate(-172.41 -313.25)"/><path class="cls-3" d="M356.87,465.12c-10.14-.84-20.89,7.79-16.91,21.35s26.8,14.19,30.06-1.61C372.35,473.56,367.48,466,356.87,465.12Z" transform="translate(-172.41 -313.25)"/><path class="cls-3" d="M200.54,498.08c10.15-.83,19.34-11.09,13.21-23.82s-28.76-9.64-29.4,6.49C183.89,492.27,189.93,499,200.54,498.08Z" transform="translate(-172.41 -313.25)"/><path class="cls-4" d="M280.33,469.78c-.24,0-.48,0-.73,0-10.24-.51-14.14-11.19-14.3-11.65a3,3,0,1,1,5.66-2c0,.06,2.74,7.35,8.94,7.66,6.71.35,10.74-8.1,10.78-8.18a3,3,0,0,1,5.46,2.49C295.92,458.57,290.67,469.78,280.33,469.78Z" transform="translate(-172.41 -313.25)"/><path class="cls-4" d="M248.93,443.1a3,3,0,0,0-3.68,2.12c0,.09-2.45,8.79-10.66,10.73s-15.8-3.21-15.89-3.27a4.66,4.66,0,0,0-4.27-.18,20.71,20.71,0,0,0-4.48,5,3,3,0,0,0,5.05,3.23,18.42,18.42,0,0,1,1.73-2.21c.4.22.87.48,1.41.75a24.76,24.76,0,0,0-2,3.52,3,3,0,1,0,5.49,2.42,15.11,15.11,0,0,1,2.36-3.72,26.73,26.73,0,0,0,6.75.91,22.61,22.61,0,0,0,5.2-.59c11.65-2.75,14.94-14.51,15.07-15A3,3,0,0,0,248.93,443.1Z" transform="translate(-172.41 -313.25)"/><path class="cls-4" d="M348.38,454.48a20.71,20.71,0,0,0-4.48-5,3,3,0,0,0-3-.32,3.11,3.11,0,0,0-1.3.5c-.07.05-7.62,5.21-15.88,3.27s-10.56-10.38-10.66-10.73a3,3,0,1,0-5.79,1.56c.13.5,3.42,12.26,15.07,15a22.67,22.67,0,0,0,5.2.59,26.73,26.73,0,0,0,6.75-.91,15.22,15.22,0,0,1,2.36,3.72,3,3,0,1,0,5.49-2.42,24.76,24.76,0,0,0-2-3.52c.54-.27,1-.53,1.41-.75a17.65,17.65,0,0,1,1.73,2.21,3,3,0,0,0,5.05-3.23Z" transform="translate(-172.41 -313.25)"/><path class="cls-5" d="M275.39,362a4.15,4.15,0,0,0-4.3-.1c-13.15,8-87.69,50.73-92.84,51.5-5.69.84-6.91-4.81-5-7.12s40.95-36.9,44.51-39.44,92.13-51.18,94.71-52.64c2.25-1.27,6.43-1.28,9.77.4,3.9,1.94,98.47,44.32,99.88,45.84s2.26,3.33.19,5.33-40.67,36.9-42.52,38.48c-3.44,2.94-7,3.84-10.27,2C366.63,404.59,287.21,369.84,275.39,362Z" transform="translate(-172.41 -313.25)"/></svg>