<svg xmlns="http://www.w3.org/2000/svg" viewBox="0 0 289.68 258.53"><g data-name="Layer 1"><path d="M224.8 113.67s.57 113.89.34 119.81c-.1 2.61-.13 12.65-7.55 13.39-10.3 1-54.44 2-76.56 1.72-31.24-.34-115.36.69-122.91-2.4s-7.21-4.81-7.21-27.13 1.37-103.33 1.37-103.33l121.54-79.65z" fill="#b7ea9a"/><path fill="#97d474" d="M266.68 84.14 265.15 211l-45.25 35.41 4.89-132.74 41.89-29.53z"/><path d="M130.87 45.21S17.99 121.28 11.12 125.32s-16.59-4.85-7.29-11.73S169.71 1.92 169.71 1.92a12.56 12.56 0 0 1 15.37 1.62L266 75.96s8.9 7.29 1.21 14.57-38.84 31.15-38.84 31.15-5.66 4.86-13.35-2-84.15-74.47-84.15-74.47z" fill="#ed8883"/><path d="M709.46 662c-8.45 0-15.81-4.22-20.88-12a4.5 4.5 0 1 1 7.55-4.9c2.54 3.92 7.16 8.46 14.67 7.87 8.93-.7 12.31-6.54 13.53-10a4.5 4.5 0 0 1 8.48 3c-1.57 4.4-6.79 14.76-21.3 15.91-.69.12-1.37.12-2.05.12zm106.29 1.4a28.52 28.52 0 0 1-4.12-.31 22.44 22.44 0 0 1-18.9-16.8 4.5 4.5 0 0 1 8.69-2.36A13.34 13.34 0 0 0 813 654.19c8.69 1.31 13.67-3.78 16.31-8.29a4.5 4.5 0 1 1 7.76 4.56c-2.43 4.11-9.07 12.94-21.32 12.94zm-57.09-13.93c-4.48 2.91-5.08 12.11.85 14.89s11.62-.12 10.53-8.59-8.98-7.85-11.38-6.3z" transform="translate(-652.35 -474.19)" style="fill:#76a65b"/><path d="M234.96 44.81s3.25 1.57 3 4-4.95 10.09-18 12.87-19.47 0-22.47-6.73c-2.67-6-.19-15-.19-15s-6.24-3.07-5.65-10.19 6.63-9.1 10.49-8.71 7.23 5 7.23 5a9.11 9.11 0 0 1 4.06-1.58 11.51 11.51 0 0 1 4.35.59s2.08-5.54 6.23-6.14 10.4 4.95 10 9.6-1.78 5.74-1.78 5.74a28.41 28.41 0 0 1 2.57 5.15 14.5 14.5 0 0 1 .16 5.4z" fill="#97c289"/><path d="M851.8 502.13c-2 1-1.12 4.39.86 5.58s3.92-.77 2.93-3.24-2.59-2.94-3.79-2.34zm28-4.13c2.26-.06 3.06 3.35 1.87 5.33s-3.82 1.17-4.11-1.48.92-3.85 2.24-3.85zm-15.36 7.44c-.51.72.34 2 1.59 2.95a3.39 3.39 0 0 0 4.25-.08 4.55 4.55 0 0 0 1.22-3.51c0-1.38-1.19-1.09-1.33-.08s-.39 2.3-1.64 2.47a2.12 2.12 0 0 1-2.39-1.36c-.51-.96-1.42-.83-1.7-.39z" transform="translate(-652.35 -474.19)" style="fill:#6c955f"/><path d="M856.89 516.19c-.83 1.28-3.17 2.69-4.63 1.89s-1.13-3.72.27-5.18 3.93-2.53 5-1c.66.98.39 2.73-.64 4.29zm21.61-7.4c-.22 2.12 1.36 3.77 3 3.09s2.37-2.57.86-4-3.71-.61-3.86.91z" transform="translate(-652.35 -474.19)" style="fill:#ffc1be"/><path d="M186.99 221.93s-1.9-14.06 9.1-19.58c15-7.54 24.71 4.19 24.71 4.19a11.59 11.59 0 0 1 5.1-.46 7.4 7.4 0 0 1 5 2.48s1.19-1.49 4.27-1.49a7.3 7.3 0 0 1 5 2 5.21 5.21 0 0 1 4.68-1.89 9.39 9.39 0 0 1 5.46 2.29s13.72-11.24 24-3.09 5.86 21.68 5.86 21.68 6.07 2.09 6.27 6.46a20.55 20.55 0 0 1-1.1 7.66 8.26 8.26 0 0 1 4.31 7.13 18.62 18.62 0 0 1-2.1 9.22l-107.1-.42s-7.34-.84-8.17-7.55 2.72-9.22 2.72-9.22-.21-4.19 1.47-7.12 6.08-4.2 6.08-4.2-.63-3.14.83-5.24a8.32 8.32 0 0 1 3.61-2.85z" fill="#71aa64"/></g></svg>