<svg id="Layer_1" data-name="Layer 1" xmlns="http://www.w3.org/2000/svg" viewBox="0 0 244.31 237.09"><defs><style>.cls-1{fill:#a2d3b9;}.cls-2{fill:#b9ddc9;}.cls-3{fill:#f8bfb3;}.cls-4{fill:#70bf97;}.cls-5{fill:#89c8a4;}.cls-6{fill:#b1c0bb;}</style></defs><path class="cls-1" d="M188.33,503.87c.16,5.12,1.12,5.44,3.68,8.48,4.26,5,11.89,21.19,23,25.54l-1.68-138.27-25-13S188.24,500.8,188.33,503.87Z" transform="translate(-175.65 -302.11)"/><path class="cls-2" d="M209.57,405.09s.89,127.91,1.79,130.19,2.39,3.31,8.67,3.82,190.06-1,192.46-2,3.87-2.78,3.88-6.35c0-7.05-.46-130.3-.46-130.3l-88.16-67.1Z" transform="translate(-175.65 -302.11)"/><path class="cls-3" d="M240.17,460.8c-11.37-.93-23.42,8.64-19,23.68s29.51,15.62,33.7-1.79C257.31,472.75,252.07,461.77,240.17,460.8Z" transform="translate(-175.65 -302.11)"/><path class="cls-4" d="M272.38,466.27a17.7,17.7,0,0,1-2-.12,29.08,29.08,0,0,1-21.82-14.43,3.5,3.5,0,0,1,6.21-3.22,22,22,0,0,0,16.41,10.7c9.5,1.07,16.61-11.5,16.68-11.63a3.5,3.5,0,1,1,6.15,3.34C293.61,451.57,285.48,466.27,272.38,466.27Z" transform="translate(-175.65 -302.11)"/><path class="cls-3" d="M389.71,463.19c11.38-.93,23.42,8.64,19,23.68s-29.51,15.62-33.7-1.79C372.58,475.14,377.82,464.16,389.71,463.19Z" transform="translate(-175.65 -302.11)"/><path class="cls-4" d="M358.8,467.62a17.62,17.62,0,0,0,2-.11,29.18,29.18,0,0,0,21.83-14.43,3.5,3.5,0,0,0-6.22-3.23A22,22,0,0,1,360,460.55c-9.49,1.07-16.6-11.5-16.67-11.63a3.5,3.5,0,0,0-6.16,3.34C337.56,452.92,345.7,467.62,358.8,467.62Z" transform="translate(-175.65 -302.11)"/><ellipse class="cls-4" cx="317.3" cy="471.15" rx="12.79" ry="15.78" transform="translate(-222.61 -266.82) rotate(-5.93)"/><path class="cls-5" d="M317.76,468.1a37.06,37.06,0,0,0-13.06,5.24c1.23,8.22,7.44,14.21,14.23,13.51,7-.73,12-8.35,11.09-17,0-.34-.1-.67-.15-1A34.22,34.22,0,0,0,317.76,468.1Z" transform="translate(-175.65 -302.11)"/><path class="cls-6" d="M324.44,340.55a2.82,2.82,0,0,1,3.71-.07c11.45,9.3,82,62.48,86.33,64,5.76,2,6.32-4.41,4.65-7.08s-28.94-29.68-32-32.65S307,304.91,304.72,303.2c-2-1.48-5.57-1.53-8.45.36-3.34,2.21-118.21,72-119.41,73.73s-1.93,3.81-.12,6.13,24.2,23.39,26.74,25.91c3.24,3.2,6.13,4.5,8.9,2.43C214.87,409.9,314.3,349.51,324.44,340.55Z" transform="translate(-175.65 -302.11)"/></svg>