<svg id="Layer_1" data-name="Layer 1" xmlns="http://www.w3.org/2000/svg" viewBox="0 0 206.96 208.92"><defs><style>.cls-1{fill:#f7eded;}.cls-2{fill:#fff;}.cls-3{fill:#4f537a;}.cls-4{fill:#5f638b;}.cls-5{fill:#5e638a;}.cls-6{fill:#f6b2a4;}</style></defs><path class="cls-1" d="M198.22,497a15,15,0,0,0,4.57,10.17c3.5,3.64,13.22,17.49,17.81,17.49v-126L195.93,376S198,494,198.22,497Z" transform="translate(-194.79 -316.4)"/><path class="cls-2" d="M359,329.45c9.58,5.49,5.7,34.66,4.42,42.64-.67,4.19-3,7.83-6.64,6.56-5-1.76-35.24-23.14-35.24-23.14s-8-3.68-.84-10.86S347.77,323,359,329.45Z" transform="translate(-194.79 -316.4)"/><path class="cls-1" d="M350.69,345.11C357.62,349,352,376,351.94,376c-10.07-6.14-30.42-20.51-30.42-20.51S341.84,340.13,350.69,345.11Z" transform="translate(-194.79 -316.4)"/><path class="cls-2" d="M216,396.35s0,122.77.76,125.06,2,3.3,7.37,3.81,153.85-1,155.89-2,3.56-2.8,3.3-6.35-1.59-109.56-1.59-109.56l-85.91-66.85Z" transform="translate(-194.79 -316.4)"/><path class="cls-3" d="M295.31,349.22a3.37,3.37,0,0,1,4.17,0c12.5,10.06,77.65,62.4,82.61,63.52,5.49,1.24,6.55-4.25,4.78-7.08s-26.76-29.23-30.13-32.42-71-53.32-73-55.27-6.38-2.48-9.92.36-76.18,53.31-77.59,55.09-2.3,3.89-.36,6.37,17.36,23.21,19.49,24.45,5.49,1.29,8.68-.78C226.94,401.67,283.61,358.2,295.31,349.22Z" transform="translate(-194.79 -316.4)"/><path class="cls-2" d="M227.75,324.66c-9.38,5.82-4.52,34.84-3,42.77.82,4.16,3.29,7.73,6.86,6.33,4.89-1.91,34.44-24.3,34.44-24.3s7.87-3.95.47-10.88S238.75,317.85,227.75,324.66Z" transform="translate(-194.79 -316.4)"/><path class="cls-1" d="M236.57,340c-6.8,4.14-.22,30.91-.21,30.94,9.85-6.48,29.71-21.52,29.71-21.52S245.25,334.76,236.57,340Z" transform="translate(-194.79 -316.4)"/><path class="cls-4" d="M380,523.19c2-1,3.56-2.8,3.3-6.36-.09-1.25-.31-15.24-.56-32.83a35.22,35.22,0,0,0-7,1.68c-6.15,2.26-13.32,11.33-19.93,14.92s-18.32,4-24.17,8.3c-4.94,3.67-9.73,10.81-12.36,15.68C351.28,524.16,379.15,523.63,380,523.19Z" transform="translate(-194.79 -316.4)"/><path class="cls-5" d="M235.76,510.6c3.9-4.26,4.73-13.14,5.48-16.54s4.91-5.93,5.29-13.1-7.37-12.47-11.34-13.41c-6.24-1.49-14.38,0-18.69-3.78l-.41-.34.55,54.72h.05C222,518.72,231.8,515,235.76,510.6Z" transform="translate(-194.79 -316.4)"/><path class="cls-3" d="M216.09,463.43c-8-6.85-14.3-7.05-18.61-2.84l.56,28.6c4.22,6.55,9.32,12.1,10.45,14.24,2.18,4.14,2.91,14.09,8.15,14.72Z" transform="translate(-194.79 -316.4)"/><path class="cls-3" d="M197.25,448.83c2.88-7.19,9.84-17.11,10-29.52.1-8.49-5.92-16.1-10.85-18.73Z" transform="translate(-194.79 -316.4)"/><path class="cls-4" d="M382.5,467.17l0,0c-.4-29-.79-59.91-.79-59.91l-9.8-7.63a33.78,33.78,0,0,1-1.53,10.49c-1.81,5.58-14.73,16.43-13.6,27C357.68,445.2,373.05,462.26,382.5,467.17Z" transform="translate(-194.79 -316.4)"/><path class="cls-3" d="M314.52,452.06a1.71,1.71,0,0,0-2.4.18c-.11.12-2.67,3-5.73,1.47-2-1-2.66-3.39-2.89-4.85a10.61,10.61,0,0,0,.08-1.21,1.7,1.7,0,0,0-1.7-1.7h-.09l-.12,0a1.72,1.72,0,0,0-1.71,1.71c0,.07,0,.53.09,1.21-.23,1.46-.91,3.85-2.9,4.85-3.06,1.53-5.61-1.35-5.72-1.47a1.71,1.71,0,1,0-2.59,2.22,9,9,0,0,0,6.5,3.11,7.37,7.37,0,0,0,3.34-.81,7.69,7.69,0,0,0,3.09-2.84,7.72,7.72,0,0,0,3.1,2.84,7.34,7.34,0,0,0,3.34.81,9.08,9.08,0,0,0,6.5-3.11A1.71,1.71,0,0,0,314.52,452.06Z" transform="translate(-194.79 -316.4)"/><path class="cls-6" d="M301.76,439.34c-5.27,0-9.35,3.31-7.75,5.82,1.25,2,4.14,6,7.74,5.89,3-.1,6.8-4.3,7.71-6.33S307.17,439.34,301.76,439.34Z" transform="translate(-194.79 -316.4)"/><path class="cls-3" d="M330.74,423.71c-8.07,3.08-10.11,13-6.7,20.58,2.44,5.43,12,8.6,18.62,3.81s6.69-12.59,3.4-18.81S335.62,421.85,330.74,423.71Z" transform="translate(-194.79 -316.4)"/><path class="cls-2" d="M328.73,441c-.85-1-3.6,1.39-2.75,2.44C327.26,445.07,331.16,443.79,328.73,441Z" transform="translate(-194.79 -316.4)"/><path class="cls-2" d="M329.43,429.34c-1.33-1.23-3,2.69-1.54,2.93S331.54,431.3,329.43,429.34Z" transform="translate(-194.79 -316.4)"/><path class="cls-2" d="M331.06,444.65c-1.47.13-1.28,2,0,2.38S333.17,444.46,331.06,444.65Z" transform="translate(-194.79 -316.4)"/><path class="cls-2" d="M339.91,435.69s-.81-7.31-2.25-7.26-2.67,7-2.67,7-4.65.47-4.95,2,6,2.69,6,2.69,0,5.21,1.39,5.62,2.53-5.74,2.53-5.74,5.45-1,5.47-2.56S339.91,435.69,339.91,435.69Z" transform="translate(-194.79 -316.4)"/><path class="cls-3" d="M264.54,423.71c-8.07,3.08-10.11,13-6.7,20.58,2.45,5.43,12.05,8.6,18.62,3.81s6.69-12.59,3.41-18.81S269.42,421.85,264.54,423.71Z" transform="translate(-194.79 -316.4)"/><path class="cls-2" d="M262.53,441c-.85-1-3.6,1.39-2.75,2.44C261.06,445.07,265,443.79,262.53,441Z" transform="translate(-194.79 -316.4)"/><path class="cls-2" d="M263.23,429.34c-1.33-1.23-3,2.69-1.54,2.93S265.34,431.3,263.23,429.34Z" transform="translate(-194.79 -316.4)"/><path class="cls-2" d="M264.86,444.65c-1.46.13-1.28,2,0,2.38S267,444.46,264.86,444.65Z" transform="translate(-194.79 -316.4)"/><path class="cls-2" d="M273.71,435.69s-.81-7.31-2.25-7.26-2.67,7-2.67,7-4.64.47-5,2,6,2.69,6,2.69,0,5.21,1.39,5.62,2.53-5.74,2.53-5.74,5.45-1,5.47-2.56S273.71,435.69,273.71,435.69Z" transform="translate(-194.79 -316.4)"/><path class="cls-3" d="M355.83,454.78a1.52,1.52,0,0,1-.63-2.91c12.44-5.72,36.11-8,45-8.2h0a1.53,1.53,0,0,1,0,3.05c-7.4.14-31.53,2.28-43.78,7.92A1.61,1.61,0,0,1,355.83,454.78Z" transform="translate(-194.79 -316.4)"/><path class="cls-3" d="M394,467.89a1.45,1.45,0,0,1-.7-.17c-4.29-2.23-32.2-6.11-35.55-5.7a1.53,1.53,0,1,1-.37-3c4-.47,32.53,3.54,37.32,6a1.52,1.52,0,0,1-.7,2.87Z" transform="translate(-194.79 -316.4)"/><path class="cls-3" d="M254.4,455.13a1.52,1.52,0,0,0,.64-2.91c-12.44-5.73-36.11-8-45-8.2h0a1.52,1.52,0,0,0,0,3c7.41.15,31.54,2.29,43.79,7.93A1.56,1.56,0,0,0,254.4,455.13Z" transform="translate(-194.79 -316.4)"/><path class="cls-3" d="M216.22,468.24a1.48,1.48,0,0,0,.7-.17c4.29-2.23,32.2-6.11,35.55-5.7a1.53,1.53,0,0,0,.37-3c-4-.48-32.53,3.54-37.32,6a1.52,1.52,0,0,0,.7,2.87Z" transform="translate(-194.79 -316.4)"/></svg>