<svg id="Layer_1" data-name="Layer 1" xmlns="http://www.w3.org/2000/svg" viewBox="0 0 317.22 257.22"><defs><style>.cls-1{fill:#f1d8ea;}.cls-2{fill:#dab3d5;}.cls-3{fill:#ffeaa5;}.cls-4{fill:#b57bb3;}.cls-5{fill:#f8cbe1;}.cls-6{fill:#9cc993;}.cls-7{fill:#cce8eb;}</style></defs><path class="cls-1" d="M328.12,323.63s-.3-35.6,0-40.47c.23-3.65-.72-18.16,5.11-24.29,10.93-11.5,28.87-6.79,34.46.37,4.16,5.33,5.17,17.52,5.17,25.13V351.2c0,4.57-1.82,7.71-5.47,5.91C363.89,355.39,329.25,331.49,328.12,323.63Z" transform="translate(-139.97 -251.93)"/><path class="cls-2" d="M164.65,361.32c.37-2.36-1.13,59.29-1,71,.18,13.78-.34,35,5.39,40.39,8.52,8,40.14,26.53,40.14,26.53l5.62,2.23-4.21-122.12Z" transform="translate(-139.97 -251.93)"/><path class="cls-1" d="M204.11,386c0,11.45,1.52,94.43,1.52,100.79s2.8,14.26,12,15.28,174.6,0,180.71-.26,11.71-2,12-14.25S409,380.92,409,380.92L303.88,311.18Z" transform="translate(-139.97 -251.93)"/><path class="cls-3" d="M304.2,318.42a6,6,0,0,1,7.1-.16c17.22,12.16,90.39,63.81,94.85,66.27,5.05,2.79,10.8-3.31,6.45-7.14s-131.93-91.49-137-94.46a14.32,14.32,0,0,0-16.91,1.57c-5.4,4.53-91.67,68.32-96.37,72.67s.87,9.59,8.71,15.51,21.26,14.47,26.49,18.13,11.5,1.91,20.74-5.58C226.36,378.68,288.68,330.44,304.2,318.42Z" transform="translate(-139.97 -251.93)"/><path class="cls-4" d="M286.41,422.08c-3.48,0-6.82,4-6.82,9.4s3,8.72,6.82,8.72,5.76-4.53,5.76-9.06S289.9,422.08,286.41,422.08Z" transform="translate(-139.97 -251.93)"/><path class="cls-5" d="M272.66,443.4a3.19,3.19,0,0,0-3.38-2.84,2.88,2.88,0,0,0-3.15,2.84c0,1.57,1.64,2.39,3.27,2.39S272.66,444.85,272.66,443.4Z" transform="translate(-139.97 -251.93)"/><path class="cls-5" d="M262.19,458.81a3.18,3.18,0,0,0,3.29-2.95,2.88,2.88,0,0,0-2.37-3.51c-1.56-.22-2.6,1.28-2.83,2.89S260.76,458.61,262.19,458.81Z" transform="translate(-139.97 -251.93)"/><path class="cls-5" d="M277.91,450.73a3.2,3.2,0,0,0-1.17,4.26,2.89,2.89,0,0,0,3.89,1.68c1.43-.66,1.49-2.49.81-4S279.22,450.13,277.91,450.73Z" transform="translate(-139.97 -251.93)"/><path class="cls-5" d="M369.69,442a3.19,3.19,0,0,1,2.62-3.55,2.88,2.88,0,0,1,3.73,2c.37,1.53-1,2.71-2.61,3.1S370,443.36,369.69,442Z" transform="translate(-139.97 -251.93)"/><path class="cls-5" d="M383.51,453.46a3.19,3.19,0,0,1-3.89-2.09,2.88,2.88,0,0,1,1.47-4c1.46-.59,2.83.62,3.43,2.14S384.85,452.92,383.51,453.46Z" transform="translate(-139.97 -251.93)"/><path class="cls-5" d="M366.33,448.32a3.2,3.2,0,0,1,2.14,3.87,2.88,2.88,0,0,1-3.38,2.54c-1.55-.3-2-2.06-1.73-3.66S364.91,448,366.33,448.32Z" transform="translate(-139.97 -251.93)"/><path class="cls-4" d="M352.77,423.08c3.48,0,6.82,4,6.82,9.4s-3,8.72-6.82,8.72-5.76-4.53-5.76-9.06S349.28,423.08,352.77,423.08Z" transform="translate(-139.97 -251.93)"/><path class="cls-4" d="M309.78,432.81c.15-2.17,4.86-4.86,9.73-4.69s8.05,2,8.22,3.85-4.37,6.88-8.73,7S309.61,435.33,309.78,432.81Z" transform="translate(-139.97 -251.93)"/><path class="cls-4" d="M297.54,456.11a2.5,2.5,0,0,1,0-5c3.1,0,16.58-5.06,18.51-15.72a2.49,2.49,0,0,1,4.87-.2c.14.5,3.49,12.41,15.86,14.1a2.5,2.5,0,1,1-.67,4.95,23.44,23.44,0,0,1-17.37-11.76C313.46,451.94,301.53,456.11,297.54,456.11Z" transform="translate(-139.97 -251.93)"/><path class="cls-1" d="M255.35,323.63s.3-35.6,0-40.47-.76-23.75-11.27-27.51c-12-4.28-22.71-1.57-28.3,5.59-4.16,5.33-5.17,15.52-5.17,23.13V351.2c0,4.57,2,7.65,5.47,5.91C221.07,354.64,254.22,331.49,255.35,323.63Z" transform="translate(-139.97 -251.93)"/><path class="cls-6" d="M171.68,464.67a28.27,28.27,0,0,0-7.16,6.4l1.28-8.9-8.58-.42-.93,6.5c-3.67-3.87-9.78-8.52-14.65-3.24-5,5.46,2.47,13.46,7.65,16.2a79.67,79.67,0,0,0,9.58,3.79s1.12,0,2.89-.29h0c4.21-.59,12.16-2.38,18-7.69C188.1,469.47,178.63,460.58,171.68,464.67Z" transform="translate(-139.97 -251.93)"/><path class="cls-7" d="M150.5,439.42c-4.71,1.86-6.52,11.22-2.61,18s14.31,10.12,24.43,5.44,7.88-15.63,4.36-20.61c0,0,5.85-4.37,1.95-9.08-3.33-4-7.72.52-7.72.52s1-5.37-5-6.48c-5-.92-6.56,3.83-6.56,3.83s-3.47-4.67-8.27-1.92C146.56,431.69,149.25,437.23,150.5,439.42Z" transform="translate(-139.97 -251.93)"/><path class="cls-6" d="M356,509.13c-1.89,0-7.05-3.25-6.77-10.12s6-16.25,20.31-15.07a14.6,14.6,0,0,1,6.69-12.73c6.66-4.47,16.25-.91,16.25-.91a19.43,19.43,0,0,1,15.8-4.51c9.39,1.62,11.83,8.12,11.83,8.12s7.22-1.89,13,2.53,5.14,9.66,5.14,9.66,9.58-3.25,14.54,1.81,5.78,14.72,2.44,18.24-6.59,3-12.91,3Z" transform="translate(-139.97 -251.93)"/></svg>