<svg id="Layer_1" data-name="Layer 1" xmlns="http://www.w3.org/2000/svg" viewBox="0 0 206.96 208.92"><defs><style>.cls-1{fill:#f7eded;}.cls-2{fill:#fff;}.cls-3{fill:#4f537a;}.cls-4{fill:#5f638b;}.cls-5{fill:#5e638a;}.cls-6{fill:#f6b2a4;}</style></defs><path class="cls-1" d="M197.91,454.89a15,15,0,0,0,4.58,10.17c3.49,3.64,13.22,17.5,17.8,17.5v-126l-24.67-22.61S197.73,451.83,197.91,454.89Z" transform="translate(-194.48 -274.29)"/><path class="cls-2" d="M358.68,287.33c9.57,5.5,5.69,34.67,4.41,42.64-.67,4.19-3,7.83-6.63,6.56-5-1.75-35.24-23.14-35.24-23.14s-8-3.68-.84-10.85S347.46,280.89,358.68,287.33Z" transform="translate(-194.48 -274.29)"/><path class="cls-1" d="M350.39,303c6.93,3.9,1.25,30.88,1.24,30.91-10.06-6.14-30.41-20.52-30.41-20.52S341.53,298,350.39,303Z" transform="translate(-194.48 -274.29)"/><path class="cls-2" d="M215.71,354.23s0,122.78.76,125.07,2,3.3,7.37,3.81,153.85-1,155.88-2,3.56-2.8,3.31-6.36-1.59-109.56-1.59-109.56l-85.92-66.85Z" transform="translate(-194.48 -274.29)"/><path class="cls-3" d="M295,307.1a3.38,3.38,0,0,1,4.17,0c12.49,10.07,77.64,62.41,82.6,63.53,5.5,1.24,6.56-4.25,4.79-7.09s-26.77-29.23-30.13-32.42-71-53.32-73-55.26-6.38-2.48-9.92.35S197.38,329.58,196,331.35s-2.3,3.9-.35,6.38,17.36,23.2,19.48,24.44,5.5,1.29,8.68-.77C226.63,359.55,283.3,316.08,295,307.1Z" transform="translate(-194.48 -274.29)"/><path class="cls-2" d="M227.45,282.55c-9.38,5.81-4.53,34.84-3,42.76.81,4.17,3.29,7.73,6.85,6.34,4.9-1.92,34.45-24.31,34.45-24.31s7.87-3.95.47-10.88S238.45,275.73,227.45,282.55Z" transform="translate(-194.48 -274.29)"/><path class="cls-1" d="M236.26,297.93c-6.79,4.13-.21,30.91-.21,30.94,9.86-6.48,29.72-21.53,29.72-21.53S244.94,292.65,236.26,297.93Z" transform="translate(-194.48 -274.29)"/><path class="cls-4" d="M379.72,481.08c2-1,3.56-2.8,3.31-6.36-.09-1.25-.32-15.25-.57-32.83a35.83,35.83,0,0,0-7,1.67c-6.15,2.27-13.33,11.33-19.94,14.92s-18.31,4-24.17,8.31c-4.93,3.66-9.73,10.8-12.36,15.67C351,482,378.85,481.51,379.72,481.08Z" transform="translate(-194.48 -274.29)"/><path class="cls-5" d="M235.46,468.49c3.89-4.27,4.72-13.15,5.48-16.55s4.9-5.92,5.28-13.1-7.36-12.46-11.33-13.41c-6.25-1.48-14.38,0-18.7-3.77l-.4-.35.54,54.72h0C221.67,476.61,231.49,472.83,235.46,468.49Z" transform="translate(-194.48 -274.29)"/><path class="cls-3" d="M215.79,421.31c-8-6.85-14.31-7-18.61-2.84l.56,28.61c4.22,6.55,9.32,12.09,10.44,14.23,2.19,4.14,2.91,14.09,8.15,14.72Z" transform="translate(-194.48 -274.29)"/><path class="cls-3" d="M197,406.71c2.88-7.18,9.83-17.11,10-29.52.09-8.49-5.93-16.1-10.85-18.73Z" transform="translate(-194.48 -274.29)"/><path class="cls-4" d="M382.19,425.05l0,0c-.4-29-.79-59.91-.79-59.91l-9.8-7.62A33.42,33.42,0,0,1,370.1,368c-1.81,5.58-14.73,16.43-13.59,27C357.37,403.09,372.75,420.14,382.19,425.05Z" transform="translate(-194.48 -274.29)"/><path class="cls-3" d="M314.22,410a1.71,1.71,0,0,0-2.41.17c-.11.13-2.66,3-5.72,1.47-2-1-2.67-3.38-2.9-4.85.08-.68.09-1.14.09-1.2a1.71,1.71,0,0,0-1.7-1.71h-.22a1.7,1.7,0,0,0-1.7,1.71,10.61,10.61,0,0,0,.08,1.2c-.23,1.47-.9,3.86-2.9,4.85-3,1.53-5.61-1.34-5.71-1.46a1.71,1.71,0,0,0-2.6,2.21,9.07,9.07,0,0,0,6.5,3.12,7.47,7.47,0,0,0,3.34-.81,7.87,7.87,0,0,0,3.1-2.84,7.84,7.84,0,0,0,3.09,2.84,7.5,7.5,0,0,0,3.34.81,9,9,0,0,0,6.5-3.12A1.69,1.69,0,0,0,314.22,410Z" transform="translate(-194.48 -274.29)"/><path class="cls-6" d="M301.45,397.22c-5.27,0-9.34,3.31-7.75,5.83,1.25,2,4.14,6,7.75,5.88,3-.1,6.8-4.3,7.71-6.32S306.86,397.22,301.45,397.22Z" transform="translate(-194.48 -274.29)"/><path class="cls-3" d="M330.43,381.6c-8.06,3.07-10.1,13-6.7,20.58,2.45,5.42,12,8.59,18.62,3.81s6.69-12.6,3.41-18.81S335.31,379.74,330.43,381.6Z" transform="translate(-194.48 -274.29)"/><path class="cls-2" d="M328.43,398.93c-.86-1-3.6,1.39-2.76,2.44C327,403,330.86,401.67,328.43,398.93Z" transform="translate(-194.48 -274.29)"/><path class="cls-2" d="M329.12,387.23c-1.33-1.23-3,2.69-1.53,2.93S331.24,389.18,329.12,387.23Z" transform="translate(-194.48 -274.29)"/><path class="cls-2" d="M330.76,402.53c-1.47.13-1.28,2,0,2.38S332.87,402.35,330.76,402.53Z" transform="translate(-194.48 -274.29)"/><path class="cls-2" d="M339.6,393.57s-.81-7.3-2.24-7.25-2.67,7-2.67,7-4.65.47-4.95,2.06,5.95,2.69,5.95,2.69,0,5.21,1.39,5.62,2.53-5.74,2.53-5.74,5.45-1,5.47-2.57S339.6,393.57,339.6,393.57Z" transform="translate(-194.48 -274.29)"/><path class="cls-3" d="M264.23,381.6c-8.06,3.07-10.1,13-6.69,20.58,2.44,5.42,12,8.59,18.62,3.81s6.69-12.6,3.4-18.81S269.12,379.74,264.23,381.6Z" transform="translate(-194.48 -274.29)"/><path class="cls-2" d="M262.23,398.93c-.85-1-3.6,1.39-2.76,2.44C260.75,403,264.66,401.67,262.23,398.93Z" transform="translate(-194.48 -274.29)"/><path class="cls-2" d="M262.93,387.23c-1.34-1.23-3,2.69-1.54,2.93S265,389.18,262.93,387.23Z" transform="translate(-194.48 -274.29)"/><path class="cls-2" d="M264.56,402.53c-1.47.13-1.28,2,0,2.38S266.67,402.35,264.56,402.53Z" transform="translate(-194.48 -274.29)"/><path class="cls-2" d="M273.4,393.57s-.81-7.3-2.24-7.25-2.67,7-2.67,7-4.65.47-4.95,2.06,6,2.69,6,2.69,0,5.21,1.39,5.62,2.52-5.74,2.52-5.74,5.45-1,5.47-2.57S273.4,393.57,273.4,393.57Z" transform="translate(-194.48 -274.29)"/><path class="cls-3" d="M355.53,412.66a1.52,1.52,0,0,1-.64-2.9c12.44-5.73,36.11-8,45-8.2h0a1.52,1.52,0,0,1,0,3c-7.41.15-31.54,2.29-43.78,7.92A1.48,1.48,0,0,1,355.53,412.66Z" transform="translate(-194.48 -274.29)"/><path class="cls-3" d="M393.71,425.78a1.64,1.64,0,0,1-.7-.17c-4.29-2.23-32.2-6.11-35.55-5.71a1.52,1.52,0,1,1-.36-3c3.94-.48,32.52,3.53,37.32,6a1.53,1.53,0,0,1-.71,2.88Z" transform="translate(-194.48 -274.29)"/><path class="cls-3" d="M254.1,413a1.52,1.52,0,0,0,.63-2.91c-12.44-5.72-36.11-8-45-8.2h0a1.53,1.53,0,0,0,0,3.05c7.4.14,31.54,2.29,43.78,7.92A1.45,1.45,0,0,0,254.1,413Z" transform="translate(-194.48 -274.29)"/><path class="cls-3" d="M215.91,426.13a1.46,1.46,0,0,0,.7-.18c4.29-2.22,32.2-6.1,35.55-5.7a1.52,1.52,0,1,0,.37-3c-3.95-.48-32.53,3.53-37.32,6a1.53,1.53,0,0,0,.7,2.88Z" transform="translate(-194.48 -274.29)"/></svg>