<svg id="Layer_1" data-name="Layer 1" xmlns="http://www.w3.org/2000/svg" viewBox="0 0 223.69 214.3"><defs><style>.cls-1{fill:#f2dda2;}.cls-2{fill:#f8e9bd;}.cls-3{fill:#e7ca82;}.cls-4{fill:#fef8e5;}.cls-5{fill:#8d6846;}.cls-6{fill:#f9c9ca;}</style></defs><path class="cls-1" d="M188.75,493.42c.05,4.29.44,5,2.93,8.25,4,5.22,16.72,19.21,21.39,22.32l2.33-129.78-25.11-23.52S188.71,490.35,188.75,493.42Z" transform="translate(-185.89 -313.32)"/><path class="cls-2" d="M211.19,388.55s.23,131.84,1.13,134.13,2.39,3.3,8.67,3.81,177.82,1.77,180.21.75a5.75,5.75,0,0,0,3.89-6.35c-.3-3.56.56-127.22.56-127.22L309.33,335.5Z" transform="translate(-185.89 -313.32)"/><path class="cls-3" d="M309.09,347.18a4.17,4.17,0,0,1,3.93-.09C325.7,353.46,397.33,395,404.89,397c5.08,1.36,5.5-2.84,3.76-4.81s-22.34-24.66-25.59-26.83-86.68-50-89-51.23c-2.06-1.09-5.89-1.09-9,.35-3.56,1.68-95.83,52.63-97.91,54.41-1.49,1.27-1.82,2.61-.19,4.57,1.87,2.25,20.41,23.13,22.1,24.47,3.15,2.52,6.43,3.29,9.39,1.72C221.12,398.21,298.25,354,309.09,347.18Z" transform="translate(-185.89 -313.32)"/><ellipse class="cls-4" cx="128.17" cy="151.04" rx="34.41" ry="27.53"/><path class="cls-5" d="M299.76,477.17a3.51,3.51,0,0,1-2.66-5.78c7.79-9.1,13.21-14,16.09-14.59,1.74-.35,4.37-.87,16.84,14.53a3.5,3.5,0,1,1-5.44,4.4c-3.68-4.55-8.41-9.78-10.64-11.6-2.39,1.79-7.53,7.14-11.53,11.81A3.49,3.49,0,0,1,299.76,477.17Z" transform="translate(-185.89 -313.32)"/><circle class="cls-5" cx="81.32" cy="125.85" r="12.72"/><ellipse class="cls-6" cx="60.25" cy="139.77" rx="8.77" ry="7.77"/><circle class="cls-5" cx="173.96" cy="125.92" r="12.72"/><ellipse class="cls-6" cx="198.11" cy="141.82" rx="8.77" ry="7.77"/><ellipse class="cls-5" cx="128.07" cy="138.92" rx="13.58" ry="10.38"/></svg>