<svg xmlns="http://www.w3.org/2000/svg" viewBox="0 0 294.28 240.18"><g data-name="Layer 1"><path d="M284.02 80.99s1.17 29.27 2 56.84c.68 22.46.37 44.38-1.27 49s-6.26 7.47-12.29 11.37c-16.94 10.93-60.58 36.29-68 39.85s1-119.47 1-119.47z" fill="#edcd79"/><path d="M11.02 133.18s-2.18 86.45-2.18 95.81 6.4 9.35 23.14 9.35 142.32 1.84 157.1 1.84c11.7 0 19.35-.34 19.35-10.32v-104.4l-97.6-66z" fill="#feeb97"/><path d="M939.33 552.33c-4.26-5-88.23-64.92-93.4-68.92-3.81-2.94-8.19-2.64-15.18 1.68-6.73 4.15-72.94 42.35-77.68 45.54-2.54 1.71-14.43 10.3-28.9 20.83v-16c-.15-6.25-3.23-8.14-7.34-8.58s-15.86-.29-21.88 0a9.72 9.72 0 0 0-9.5 8.58c-.22 2.78-.38 31.06-.45 44.61-13.33 9.76-23.66 17.35-25 18.41-4 3.12-6.85 6.66-9.91 9.57-3.61 3.44-4.52 7.75 0 7.75a115.21 115.21 0 0 0 12-.9c2.45-.26 5.68-1.68 11.75-6.33s84-62.25 84-62.25 85.55 60.19 88.16 61.84 7.7 3.85 17-1 70.55-40.66 73.72-43.16 6.87-6.72 2.61-11.67zM809.52 657.87c3.83.14 7.32 1.62 7.33 5.43 0 2.85-3.1 4.86-7.16 5.15s-8.37-1.1-8.37-5.15 5.25-5.55 8.2-5.43zm-129.68 6.5c-4 .15-7.6 1.58-7.61 5.27 0 2.77 3.22 4.72 7.43 5s8.67-1.08 8.67-5-5.44-5.38-8.49-5.27z" transform="translate(-646.98 -481.48)" style="fill:#f9b3b9"/><path d="M751.92 673.45a3.9 3.9 0 0 0-5.51-.1c-.45.45-4.49 4.32-7.54 2.08a3 3 0 0 1-1.4-2.84 4.3 4.3 0 0 1 2.54-3.27l.33-.13c1.15-.46 3.29-1.32 3.23-3.59s-2.28-3-3.48-3.41l-.23-.08c-.38-.14-3.65-1.46-3-3.71a2.2 2.2 0 0 1 1.5-1.63 4.93 4.93 0 0 1 4 .53 3.88 3.88 0 0 0 6.1-3.76 3.84 3.84 0 0 0-1.55-2.52 12.64 12.64 0 0 0-11-1.59 9.91 9.91 0 0 0-6.44 6.78 9.61 9.61 0 0 0 2.6 9.87 11.69 11.69 0 0 0-2.27 5.59 11.08 11.08 0 0 0 11 12.12 14.58 14.58 0 0 0 5.69-1.25c.43-.18.87-.38 1.33-.61a11 11 0 0 0 4.09-3.06 3.8 3.8 0 0 0 1.14-2.64 3.84 3.84 0 0 0-1.13-2.78zm29.97-10.27c-9.48 0-14-7.74-14.2-8.08a4 4 0 0 1 6.93-4 8.87 8.87 0 0 0 8.2 4c3.35-.31 6.41-4.16 7.3-5.62a4 4 0 0 1 6.85 4.14c-.54.88-5.46 8.71-13.42 9.44a15.75 15.75 0 0 1-1.66.12zm-78.23-1.13c9.41-1.22 12.89-9.48 13-9.85a4 4 0 0 0-7.39-3.07 8.84 8.84 0 0 1-7.61 5.07c-3.36.13-6.89-3.3-8-4.63a4 4 0 0 0-6.25 5c.64.82 6.54 7.94 14.53 7.63.64-.03 1.19-.08 1.72-.15z" transform="translate(-646.98 -481.48)" style="fill:#c2a14a"/></g></svg>