<svg xmlns="http://www.w3.org/2000/svg" viewBox="0 0 394.68 268.12"><defs><style>.cls-1{fill:#f9b3b9;}.cls-2{fill:#ea939b;}.cls-3{fill:#b7ea9a;}.cls-4{fill:#ad555d;}.cls-5{fill:#82595d;}.cls-6{fill:#c9f1c0;}</style></defs><g id="Layer_1" data-name="Layer 1"><path class="cls-1" d="M856,556.49s.24,137.63.13,142.69c-.1,4.41-3.17,8.29-9.25,8.29s-188.73.67-193.68,0-7-3.65-7-8.58-3.72-120.78,3.38-124.16,110.81-77.34,110.81-77.34Z" transform="translate(-591.89 -463.51)"/><path class="cls-2" d="M906.34,541.27s-1.8,137.62-1.8,141.66-53.7,23.88-53.7,23.88l2.65-151.88Z" transform="translate(-591.89 -463.51)"/><path class="cls-3" d="M764,502.93c-.89-.61-3.29-.88-5.57.58C745.24,512,656.32,578,650.73,580.37c-6,2.59-11.53,1.85-13.25-1.88s6.31-8,16.63-15.49S783,471.21,789.86,467.48s12.4-5.85,19-1.72,94.37,67.09,97.81,70.26,6.2,8.4,0,11.84-39.81,18-42,19.15-3.72,1.79-7.71-.27C853.26,564.83,775.74,511.07,764,502.93Z" transform="translate(-591.89 -463.51)"/><path class="cls-4" d="M702.82,616.59l-11.11-5.84c-2.26-1-6.66-1.7-7.85.49-.76,1.41-.92,4,4.52,7.54l2.56,1.51a10.09,10.09,0,0,0-2,6c-.35,4.81,3.07,12.16,10.93,11.65,7.59-.49,10.42-6.79,8.89-14.06A11,11,0,0,0,702.82,616.59Z" transform="translate(-591.89 -463.51)"/><path class="cls-4" d="M783.64,615.49l11.49-5c2.33-.87,6.77-1.22,7.8,1,.66,1.46.63,4.07-5,7.2L795.22,620a10,10,0,0,1,1.58,6.1c0,4.83-3.93,11.91-11.73,10.85-7.54-1-9.91-7.52-7.87-14.66A11,11,0,0,1,783.64,615.49Z" transform="translate(-591.89 -463.51)"/><path class="cls-4" d="M724.83,642.93c-.65,2.31,1.79,5.06,6.25,5.51s10.11.29,14.28-1.34,8.18-4.61,9.24-6.87c1.71-3.62-.43-7.36-4.85-4.32s-6.39,4.26-9.63,4.69c-6.47.85-8.74-1-11.83-.38C726.69,640.54,725.31,641.22,724.83,642.93Z" transform="translate(-591.89 -463.51)"/><path class="cls-5" d="M812.9,648.65a.92.92,0,0,1,1.42.36c1.17,2.68,4,9.84,2.54,13.71-1.91,5.12-9.21,4.9-10.22-.79C805.46,655.37,810.69,650.41,812.9,648.65Z" transform="translate(-591.89 -463.51)"/><path class="cls-5" d="M885.81,645.13a.92.92,0,0,0-1.38.47c-.95,2.78-3.16,10.14-1.41,13.88,2.32,4.94,9.58,4.12,10.12-1.63C893.77,651.22,888.16,646.71,885.81,645.13Z" transform="translate(-591.89 -463.51)"/><path class="cls-5" d="M671.56,667.92a.93.93,0,0,1,1.43-.34c2.28,1.84,8.08,6.89,8.59,11a5.27,5.27,0,0,1-9.43,4C668.08,677.31,670.42,670.5,671.56,667.92Z" transform="translate(-591.89 -463.51)"/><path class="cls-5" d="M698.64,674.77a1.37,1.37,0,0,1,2-.24c2.15,1.85,6.77,6.29,6.71,10.25-.08,6.21-8.64,7.13-10.25,2.76A13.37,13.37,0,0,1,698.64,674.77Z" transform="translate(-591.89 -463.51)"/><path class="cls-5" d="M874.15,620.39a1.54,1.54,0,0,1,2.11.94c1,3.13,2.88,10.32.44,14.26-3.81,6.18-12.81,2-11.77-3.31A15.9,15.9,0,0,1,874.15,620.39Z" transform="translate(-591.89 -463.51)"/><path class="cls-5" d="M794.89,670.19a.91.91,0,0,1,1.38.12c1.56,2.16,5.5,8.25,4.27,13.3s-10.07,5.48-10.68-.62C789.21,676.55,793.18,671.88,794.89,670.19Z" transform="translate(-591.89 -463.51)"/><path class="cls-5" d="M833.53,665.64a1.2,1.2,0,0,0-1.64-.94c-2.32,1-6.95,3.33-9.3,7.79-2.08,4-.89,11.19,5.35,9.73C835.05,680.56,834.12,669.62,833.53,665.64Z" transform="translate(-591.89 -463.51)"/><path class="cls-6" d="M602.77,729c-6.57-.62-11.81-4.56-10.74-14.55s13.2-19.27,24.26-17.85c0,0,1.43-11.77,13.21-16.41s21.41,2.5,21.41,2.5,9.78-9.83,22.14-5.54,12.75,15.27,12.75,15.27,17.16.76,22.58,15.65-.12,20.82-7.57,21.07S602.77,729,602.77,729Z" transform="translate(-591.89 -463.51)"/><path class="cls-6" d="M830.15,731.58c-2.93,0-10.89-5-10.47-15.63s9.21-25.11,31.39-23.29A22.58,22.58,0,0,1,861.39,673c10.29-6.9,25.11-1.4,25.11-1.4s9.91-9.48,24.42-7,18.27,12.55,18.27,12.55,11.16-2.93,20.09,3.91,8,14.92,8,14.92,14.78-5,22.46,2.79,8.92,22.74,3.76,28.18-10.18,4.61-19.94,4.61Z" transform="translate(-591.89 -463.51)"/></g></svg>