<svg id="Layer_1" data-name="Layer 1" xmlns="http://www.w3.org/2000/svg" viewBox="0 0 205.41 232.13"><defs><style>.cls-1{fill:#f1bc81;}.cls-2{fill:#f7ca9a;}.cls-3{fill:#7a7cba;}.cls-4{fill:#c1793d;}.cls-5{fill:#fffbf9;opacity:0.7;}.cls-6{fill:#807f80;}.cls-7{fill:#f0837c;}</style></defs><path class="cls-1" d="M200.69,370.1s-.2,97.18-.58,111.47.19,24.39.29,26.11,1,5.72,3.14,7.62,15.1,21,22.58,22.1l3.34-152.24Z" transform="translate(-194.83 -305.72)"/><path class="cls-2" d="M397,409V526.72c0,2.58-.47,9.69-8.68,10s-154.69,1.48-160.1,1c-5.81-.49-7.21-3.57-7.81-7-4.76-27.45-.25-135.39,0-139.35.24-4.45,82.58-60.51,82.58-60.51Z" transform="translate(-194.83 -305.72)"/><path class="cls-3" d="M302.5,338.06a2.19,2.19,0,0,1,2.7.11c11,9.23,87.24,73.24,91.26,73.57,4.34.36,4.16-1.63,3.26-4.16s-20.61-23.32-22.42-25.67-91.49-73.59-93.48-75.4-4.52-.18-6.69,1.63-79.38,58-81,59.48-1.81,2.17,0,4,20.43,22.06,21.7,23.33,2.53,2.17,5.61,0C226.25,392.93,292.06,345.57,302.5,338.06Z" transform="translate(-194.83 -305.72)"/><path class="cls-4" d="M354.49,468a2.47,2.47,0,0,1-1-.22l-24-10.82a2.5,2.5,0,0,1-.22-4.45l24.3-14a2.5,2.5,0,1,1,2.5,4.33l-20.08,11.59,19.58,8.82a2.5,2.5,0,0,1-1,4.78Z" transform="translate(-194.83 -305.72)"/><path class="cls-4" d="M262.69,468.71a2.5,2.5,0,0,1-1-4.8l20.13-8.54-21.19-11.73a2.5,2.5,0,0,1,2.42-4.38l25.68,14.22a2.5,2.5,0,0,1-.23,4.49l-24.85,10.54A2.42,2.42,0,0,1,262.69,468.71Z" transform="translate(-194.83 -305.72)"/><path class="cls-5" d="M245.21,453.83s3.37-24,24.43-24.81c24.46-.95,26.88,23.73,26.88,23.73Z" transform="translate(-194.83 -305.72)"/><path class="cls-5" d="M371.86,453.83s-3.37-24-24.43-24.81c-24.46-.95-26.88,23.73-26.88,23.73Z" transform="translate(-194.83 -305.72)"/><path class="cls-6" d="M320.59,456.33a2.53,2.53,0,0,1-1.69-.65c0-.05-5.8-5.22-11.86-5.49-3.31-.15-8,2-9.51,2.88a2.5,2.5,0,0,1-3.69-1.8c-.13-.79-3.34-19.46-22.37-19.46h0c-20.46,0-23.22,20.38-23.32,21.24a2.5,2.5,0,0,1-5-.61c0-.26,3.46-25.63,28.29-25.63h0c18.07,0,24.5,14,26.5,20.5,2.45-1,6.06-2.27,9.3-2.12,4.53.2,8.71,2.33,11.5,4.15,2.31-10.51,10-25,27.85-24.37,23,.86,26.84,27.18,26.87,27.44a2.5,2.5,0,1,1-4.95.67,36.87,36.87,0,0,0-4.07-11.58c-4.16-7.36-10.22-11.24-18-11.54-20.73-.77-23.25,23.09-23.35,24.11a2.5,2.5,0,0,1-1.59,2.09A2.36,2.36,0,0,1,320.59,456.33Z" transform="translate(-194.83 -305.72)"/><path class="cls-4" d="M325.3,466.33c2.86,0,5.53.76,5.53,2.86s1.52,28.2-21.15,28.58c-20.58.35-22.68-24.58-22.49-26.49s.58-3.62,4.2-4.19S322.64,466.33,325.3,466.33Z" transform="translate(-194.83 -305.72)"/><circle class="cls-7" cx="176.34" cy="173.14" r="13.1"/><circle class="cls-7" cx="47.91" cy="169.33" r="13.1"/></svg>