<svg id="Layer_1" data-name="Layer 1" xmlns="http://www.w3.org/2000/svg" viewBox="0 0 208.62 221.94"><defs><style>.cls-1{fill:#9fa4d0;}.cls-2{fill:#898ec2;}.cls-3{fill:#6369a6;}.cls-4{fill:#feeb98;}.cls-5{fill:#535997;}</style></defs><path class="cls-1" d="M398.53,391.72c.42,5.18,1.12,64.2,1.12,70.09s-.14,38.13-.42,41.22-.7,8.27-6.45,8.55-161.36,1-169.07.84-11.07-2.24-11.35-10.37-1.42-67.62-1.42-76.36,1-33.13,1-33.13l90.84-63.09Z" transform="translate(-193.18 -290.5)"/><path class="cls-2" d="M197.08,374s-1,31.6-.42,51.28,0,69.08,1.47,73.68S216,510.78,216,510.78l-.9-127.37Z" transform="translate(-193.18 -290.5)"/><path class="cls-3" d="M300.79,336.73a4.84,4.84,0,0,1,5.58-.17c15.18,10.06,86.15,57,90.6,57.95,5,1.09,6.07-2.38,3.47-5.63s-13.44-16.7-15.83-18.43-93-58.54-96.27-60.28-5,.22-7.15,1.95-83.47,56.16-86.29,58.33-1.74,6.28.21,8.45,14.48,17.09,16.48,18.46c3.85,2.63,6.29,1.49,9.76-.9C224.43,394.35,286.89,347.22,300.79,336.73Z" transform="translate(-193.18 -290.5)"/><path class="cls-1" d="M336.48,345.08c2.32,1.61,25.58,18.86,28.18,20.38s6.58,2.16,8.89-1.08c3.25-4.56,10-51,6.07-66.13-2.67-10.4-9.07-7.79-17.11.66s-27.62,34.25-28.67,38.8S335,344,336.48,345.08Z" transform="translate(-193.18 -290.5)"/><path class="cls-1" d="M264.64,345.31c2.28-1.69,7-4.76,4.07-10.09s-25.66-35.47-34.77-42.34c-7.25-5.47-12.05-1.68-12.47,13.18-.39,13.61,3.89,51.25,6.84,56.31s6.48,4.51,10.83,1.71S262.16,347.17,264.64,345.31Z" transform="translate(-193.18 -290.5)"/><path class="cls-4" d="M254.44,430a151.69,151.69,0,0,1-.31-16.15H254c-10.37,1.06-16,12.84-15.76,16.76.27,4.49,7.65,9.64,17.38,10.23-.5-3.24-.91-6.83-1.11-10.55Z" transform="translate(-193.18 -290.5)"/><path class="cls-4" d="M283.86,429c-.2-3.39-13.34-13.16-24.74-14.94a153.82,153.82,0,0,0,.31,15.66l0,.29a103.44,103.44,0,0,0,1.17,10.72C272.51,439.45,284.08,432.85,283.86,429Z" transform="translate(-193.18 -290.5)"/><path class="cls-5" d="M259.43,429.68a153.82,153.82,0,0,1-.31-15.66,20.66,20.66,0,0,0-5-.22,151.69,151.69,0,0,0,.31,16.15l0,.3c.2,3.72.61,7.31,1.11,10.55a30.45,30.45,0,0,0,4.76-.08l.29,0A103.44,103.44,0,0,1,259.45,430Z" transform="translate(-193.18 -290.5)"/><path class="cls-4" d="M361,430a151.69,151.69,0,0,0,.31-16.15h.18c10.37,1.06,16,12.84,15.76,16.76-.27,4.49-7.65,9.64-17.38,10.23.5-3.24.91-6.83,1.11-10.55Z" transform="translate(-193.18 -290.5)"/><path class="cls-4" d="M331.59,429c.2-3.39,13.34-13.16,24.74-14.94a153.82,153.82,0,0,1-.31,15.66l0,.29a103.44,103.44,0,0,1-1.17,10.72C342.93,439.45,331.36,432.85,331.59,429Z" transform="translate(-193.18 -290.5)"/><path class="cls-5" d="M356,429.68a153.82,153.82,0,0,0,.31-15.66,20.66,20.66,0,0,1,5-.22A151.69,151.69,0,0,1,361,430l0,.3c-.2,3.72-.61,7.31-1.11,10.55a30.45,30.45,0,0,1-4.76-.08l-.29,0A103.44,103.44,0,0,0,356,430Z" transform="translate(-193.18 -290.5)"/><path class="cls-2" d="M302.9,401.5h-.19c-10-.22-16.22-13.25-16.48-13.81a1.5,1.5,0,0,1,2.72-1.27c.05.12,5.71,11.91,13.82,12.08a3.21,3.21,0,0,0,2.63-.93c1.12-1.27,1-3.7.91-4.53a1.5,1.5,0,0,1,2.28-1.5c1.91,1.19,7.57,3.89,10.72,2.13,1.27-.71,1.15-5.28.25-9a1.5,1.5,0,0,1,1.62-1.85c1.88.21,7.25.31,9.67-1.62.12-1.24-3.25-5.6-7.18-9.26a1.5,1.5,0,1,1,2-2.19c1.93,1.79,8.23,7.93,8.13,11.56a2.81,2.81,0,0,1-1,2.15c-2.72,2.26-7.28,2.53-9.95,2.47.53,3.13,1,8.59-2.1,10.31-3.66,2-8.58.37-11.45-1a7.56,7.56,0,0,1-1.66,4.22A6.07,6.07,0,0,1,302.9,401.5Z" transform="translate(-193.18 -290.5)"/><path class="cls-2" d="M239.06,352c-2.84,0-5.18-.62-5.59-2.53-.52-2.42,2.24-4.08,4.73-5.07-1.73-1.73-3.51-4.24-2.23-6.39,1-1.63,3.58-2.09,6.14-2.11a6.89,6.89,0,0,1-2-4.06A4.34,4.34,0,0,1,242,328.1c5.27-4,14.74,3.33,15.8,4.18a1.5,1.5,0,1,1-1.87,2.34c-2.22-1.77-9.22-6.32-12.11-4.13-.77.58-.75,1-.74,1.2.08,1.48,2.64,3.7,4.43,4.8a1.52,1.52,0,0,1,.63,1.8,1.5,1.5,0,0,1-1.64,1c-3.53-.54-7.39-.4-8,.29-.24.41,1.27,2.54,3.53,4.26a1.49,1.49,0,0,1,.57,1.48,1.51,1.51,0,0,1-1.08,1.16,14.1,14.1,0,0,0-5,2.28c1.14.37,4.4.29,7.41-.22a1.5,1.5,0,1,1,.5,3A33.61,33.61,0,0,1,239.06,352Z" transform="translate(-193.18 -290.5)"/><path class="cls-2" d="M354.22,351.46a1.5,1.5,0,0,1-.12-3c.07,0,6.64-.66,6.46-3.51-.06-1-3-1.84-5.15-2a1.49,1.49,0,0,1-1.32-1,1.53,1.53,0,0,1,.36-1.6c1.07-1,2.6-3,2.65-4.18,0-.74-1.56-2.08-3-2.78a1.55,1.55,0,0,1-.79-1,1.49,1.49,0,0,1,.22-1.23c.89-1.26,2-3.48,1.71-4.38,0-.07,0-.13-.23-.21-2.33-.95-7.3,4.22-9.92,8a1.5,1.5,0,0,1-2.47-1.7c1.31-1.91,8.16-11.29,13.53-9.08a3.25,3.25,0,0,1,2,2.15c.53,1.81-.45,4.08-1.27,5.55,1.44.95,3.32,2.62,3.24,4.77a8.12,8.12,0,0,1-1.71,4.06c2.24.53,5,1.72,5.17,4.35.28,4.69-5.66,6.42-9.22,6.69Z" transform="translate(-193.18 -290.5)"/><path class="cls-5" d="M350.23,402.72c-2.67-1.87-10.45,0-13.52,3.23-3.44,3.64-2.72,8.66,6.19,5.39C348.21,409.39,352.75,404.49,350.23,402.72Z" transform="translate(-193.18 -290.5)"/><path class="cls-5" d="M266.61,405.34c2.67-1.87,10.45,0,13.52,3.23,3.44,3.63,2.72,8.65-6.19,5.38C268.63,412,264.09,407.11,266.61,405.34Z" transform="translate(-193.18 -290.5)"/><path class="cls-2" d="M252.39,493.14l-.4,0c-2.42-.32-3.6-3.12-4.16-5.5-1.48,1.32-3.46,2.55-5.36,2-2.81-.84-3.46-4.59-3.57-7.1-1.75.39-4.15.61-5.63-.61-3.26-2.69.63-8.84,1.45-10.05a1.5,1.5,0,0,1,2.49,1.68c-1.69,2.51-2.69,5.51-2,6.06s3,.15,4.71-.5a1.51,1.51,0,0,1,2,1.5c-.18,2.65.39,5.84,1.41,6.15.82.24,3-1.54,4.32-3.31a1.5,1.5,0,0,1,2.69.8c.21,2.88,1.22,5.82,2,5.92h0c.74,0,2.58-2.85,3.68-6.17a1.5,1.5,0,1,1,2.85.94C258.29,486.88,256,493.13,252.39,493.14Z" transform="translate(-193.18 -290.5)"/><path class="cls-2" d="M315.21,497.49c-.22,0-.44,0-.66,0-3.78-.48-5.61-5.27-5.81-5.81a1.5,1.5,0,0,1,2.82-1c.34.94,1.69,3.65,3.36,3.86s4.11-1.79,4.78-2.51a1.5,1.5,0,0,1,2.2,2C321.55,494.38,318.58,497.49,315.21,497.49Z" transform="translate(-193.18 -290.5)"/><path class="cls-2" d="M365.27,484.2c-1.88,0-3.58-1.47-4.77-2.85-.84,1.41-2.14,2.8-3.95,2.6-4.88-.58-5.92-8.93-6-9.88a1.5,1.5,0,1,1,3-.32c.31,2.78,1.6,7,3.4,7.22.4-.05,1.36-1.5,1.86-3.05a1.51,1.51,0,0,1,1.25-1,1.49,1.49,0,0,1,1.46.72c.92,1.51,2.74,3.6,3.8,3.6.86,0,1.63-1.91,1.83-2.88a1.49,1.49,0,0,1,.82-1.05,1.52,1.52,0,0,1,1.33,0c2,1,4.69,1.61,5.24.91s-.65-5.08-2.51-8.81a1.5,1.5,0,1,1,2.68-1.34c1.35,2.71,4.28,9.31,2.19,12-1.75,2.26-5.23,1.43-7.35.63C368.87,482.21,367.6,484.2,365.27,484.2Z" transform="translate(-193.18 -290.5)"/><path class="cls-5" d="M301,425.86a2.5,2.5,0,1,0-1.81,4.66,214.3,214.3,0,0,1,21.81,9.8,11.81,11.81,0,0,0-1.74,6c.09,2,1.35,4.51,2.75,6.69-6.61,4.78-16.58,9.56-23.7,12.32a2.5,2.5,0,0,0,.91,4.83,2.39,2.39,0,0,0,.9-.17,152.77,152.77,0,0,0,15.59-7.25c11.17-6,17.08-11.42,18.08-16.5C334.09,444.46,335.15,439.09,301,425.86Z" transform="translate(-193.18 -290.5)"/></svg>