<svg id="Layer_1" data-name="Layer 1" xmlns="http://www.w3.org/2000/svg" viewBox="0 0 238.74 225.44"><defs><style>.cls-1{fill:#be88bb;}.cls-2{fill:#6876b8;}.cls-3{fill:#f191bc;}.cls-4{fill:#505ea8;}.cls-5{fill:#fff;}</style></defs><path class="cls-1" d="M183.79,501.24a15,15,0,0,0,4.57,10.17c3.5,3.64,22.57,21.64,27.15,21.64l2.18-142.55-33.3-22.27S183.6,498.18,183.79,501.24Z" transform="translate(-178.4 -308.15)"/><path class="cls-2" d="M213.23,394.12S210.64,527,211.4,529.23s2,3.31,7.37,3.82S404.94,534,407,533s3.55-2.8,3.3-6.36S411,405,411,405l-103.9-72Z" transform="translate(-178.4 -308.15)"/><path class="cls-3" d="M308,344a4,4,0,0,1,4.6.05c13.77,10.07,92.91,64,98.38,65.11,6.06,1.24,7.23-4.26,5.28-7.09s-31.82-28.81-35.53-32-92.13-58.38-94.28-60.32-7-2.48-10.94.35S181.6,361.21,180,363s-2.54,3.9-.39,6.38,28.92,25.95,31.26,27.19,6.06,1.29,9.57-.77C223.63,393.93,295.12,353,308,344Z" transform="translate(-178.4 -308.15)"/><ellipse class="cls-4" cx="84.92" cy="133.01" rx="25.48" ry="25.32"/><path class="cls-4" d="M314.26,481.82c-1.23-.08-2.32-.18-3.23-.31a3.9,3.9,0,0,1-3.41-4.38,4,4,0,0,1,4.51-3.28c6.11.85,16.16.28,21.58-.77-1.83-.91-4-1.77-5.06-2.16s-2-.79-2.71-1.13a4.54,4.54,0,0,1-2.49-3.09c-.59-2.68,1.23-4.84,3.54-7.58.31-.37.7-.83,1.08-1.3-4-.45-11.75.57-19.09,2.66a4,4,0,0,1-5-2.61,3.83,3.83,0,0,1,2.68-4.81c5.06-1.45,22.12-5.77,28.8-.51.82.65,3.31,3.1.78,7.42a32.26,32.26,0,0,1-3.07,4l-.22.26c4.81,1.91,10.57,4.53,11.21,9.1a4.83,4.83,0,0,1-1.56,4.25C338.54,481.57,323,482.37,314.26,481.82Zm22.16-6.95Z" transform="translate(-178.4 -308.15)"/><ellipse class="cls-5" cx="272.26" cy="438.83" rx="13.7" ry="18.19" transform="translate(-276.58 -229.15) rotate(-14.02)"/><ellipse class="cls-4" cx="192.13" cy="128.84" rx="25.48" ry="25.32"/><ellipse class="cls-5" cx="379.47" cy="434.66" rx="13.7" ry="18.19" transform="translate(-272.38 -203.3) rotate(-14.02)"/></svg>