<svg id="Layer_1" data-name="Layer 1" xmlns="http://www.w3.org/2000/svg" xmlns:xlink="http://www.w3.org/1999/xlink" viewBox="0 0 344.24 380.28"><defs><style>.cls-1,.cls-10{fill:none;}.cls-2{fill:#f8d78e;}.cls-3{clip-path:url(#clip-path);}.cls-4{fill:#f6c56d;}.cls-5{fill:#fefff6;}.cls-6{fill:#f4f8f0;stroke:#f4f8f0;stroke-linejoin:round;stroke-width:2px;}.cls-10,.cls-6{stroke-linecap:round;}.cls-7{fill:#e9dec2;}.cls-8{fill:#fbecbf;}.cls-9{fill:#cf844b;}.cls-10{stroke:#cf844b;stroke-miterlimit:10;stroke-width:7px;}.cls-11{fill:#f37a71;}.cls-12{fill:#e490ac;}</style><clipPath id="clip-path" transform="translate(-155.79 -233.11)"><path id="Body" class="cls-1" d="M157.48,337.27,155.79,577A14.84,14.84,0,0,0,170.63,592H381.08l36.16-29.7a10.54,10.54,0,0,0,3.87-8.16V323.18l-121.2-69.76Z"/></clipPath></defs><path id="Body-2" data-name="Body" class="cls-2" d="M157.48,337.27,155.79,577A14.84,14.84,0,0,0,170.63,592H381.08l36.16-29.7a10.54,10.54,0,0,0,3.87-8.16V323.18l-121.2-69.76Z" transform="translate(-155.79 -233.11)"/><g class="cls-3"><rect class="cls-4" x="231.55" y="73.53" width="112.7" height="300.97"/></g><path class="cls-5" d="M348.73,582.11s-6-3.13-8.64,2.84,4.32,7.75,4.32,7.75-5.52,2.08-3.73,6.33,7.53,2.31,7.53,2.31-3.65,4.92,1,7.16,9.1-1.34,9.1-1.34-.52,6.23,5.59,6.23,6.78-6.23,6.78-6.23,1.94,6.7,8.72,4.84,3.5-7.75,3.5-7.75,4.92,4.62,9.84,1.12,1.05-7.38,1.05-7.38,6.78.52,6-7.83-6.19-6.11-6.19-6.11,2.24-4.17-2.31-5.89-5.81.38-5.81.38,1.27-5.59-3.36-6.19-9.91,4.62-9.91,4.62.08-5.89-5.14-5.66-6.64,7.75-6.64,7.75-2.08-6.86-7.3-4.77S348.73,582.11,348.73,582.11Z" transform="translate(-155.79 -233.11)"/><polygon class="cls-6" points="212.62 347.44 212.62 356.98 202.18 353.18 211.65 357.35 197.86 361.38 211.87 358.55 203 367.49 212.62 359.22 213.96 369.58 213.32 359.22 221.93 366.07 214.26 358.84 228.07 359.89 214.85 358.1 220.96 347.44 214.33 357.58 212.62 347.44"/><path class="cls-7" d="M376.09,590.83c0,3.13-2.75,5.74-7,5.74s-7.05-1.49-7.05-4.62,2.47-5.29,6.69-5.29S376.09,587.71,376.09,590.83Z" transform="translate(-155.79 -233.11)"/><ellipse class="cls-8" cx="45.45" cy="287.46" rx="20.96" ry="11.57"/><ellipse class="cls-8" cx="185.21" cy="287.68" rx="19.62" ry="12.35"/><circle class="cls-9" cx="68.74" cy="264.01" r="9.92"/><circle class="cls-9" cx="162.36" cy="264.52" r="9.77"/><path class="cls-10" d="M243,507.4s9.83,17.58,27.28,17.36,29.62-17.36,29.62-17.36" transform="translate(-155.79 -233.11)"/><ellipse class="cls-11" cx="117.12" cy="269.35" rx="8.11" ry="7.32"/><path class="cls-12" d="M315.78,234.36,206.57,297.31a76.44,76.44,0,0,0-8,5.29L157,334.09a3.15,3.15,0,0,0-1.24,2.5v4.85a3.13,3.13,0,0,0,4.71,2.7L281,273.77l99.51,80.47a7.6,7.6,0,0,0,9,.37L430,326.39a4.76,4.76,0,0,0,2-3.9v-.82a4.76,4.76,0,0,0-1.78-3.71L326.45,235.17A9.57,9.57,0,0,0,315.78,234.36Z" transform="translate(-155.79 -233.11)"/></svg>