<svg id="Layer_1" data-name="Layer 1" xmlns="http://www.w3.org/2000/svg" viewBox="0 0 344.24 380.28"><defs><clipPath id="clip-path" transform="translate(-155.79 -233.11)"><path id="Body" d="M157.48 337.27 155.79 577a14.84 14.84 0 0 0 14.84 15h210.45l36.16-29.7a10.54 10.54 0 0 0 3.87-8.16V323.18l-121.2-69.76Z" style="fill:none"/></clipPath><style>.cls-8{fill:#fbecbf}.cls-9{fill:#cf844b}</style></defs><path id="Body-2" data-name="Body" d="M157.48 337.27 155.79 577a14.84 14.84 0 0 0 14.84 15h210.45l36.16-29.7a10.54 10.54 0 0 0 3.87-8.16V323.18l-121.2-69.76Z" transform="translate(-155.79 -233.11)" style="fill:#f8d78e"/><g style="clip-path:url(#clip-path)"><path style="fill:#f6c56d" d="M231.55 73.53h112.7V374.5h-112.7z"/></g><path d="M348.73 582.11s-6-3.13-8.64 2.84 4.32 7.75 4.32 7.75-5.52 2.08-3.73 6.33 7.53 2.31 7.53 2.31-3.65 4.92 1 7.16 9.1-1.34 9.1-1.34-.52 6.23 5.59 6.23 6.78-6.23 6.78-6.23 1.94 6.7 8.72 4.84 3.5-7.75 3.5-7.75 4.92 4.62 9.84 1.12 1.05-7.38 1.05-7.38 6.78.52 6-7.83-6.19-6.11-6.19-6.11 2.24-4.17-2.31-5.89-5.81.38-5.81.38 1.27-5.59-3.36-6.19-9.91 4.62-9.91 4.62.08-5.89-5.14-5.66-6.64 7.75-6.64 7.75-2.08-6.86-7.3-4.77-4.4 7.82-4.4 7.82Z" transform="translate(-155.79 -233.11)" style="fill:#fefff6"/><path style="stroke-linecap:round;fill:#f4f8f0;stroke:#f4f8f0;stroke-linejoin:round;stroke-width:2px" d="M212.62 347.44v9.54l-10.44-3.8 9.47 4.17-13.79 4.03 14.01-2.83-8.87 8.94 9.62-8.27 1.34 10.36-.64-10.36 8.61 6.85-7.67-7.23 13.81 1.05-13.22-1.79 6.11-10.66-6.63 10.14-1.71-10.14z"/><path d="M376.09 590.83c0 3.13-2.75 5.74-7 5.74s-7.05-1.49-7.05-4.62 2.47-5.29 6.69-5.29 7.36 1.05 7.36 4.17Z" transform="translate(-155.79 -233.11)" style="fill:#e9dec2"/><ellipse class="cls-8" cx="45.45" cy="287.46" rx="20.96" ry="11.57"/><ellipse class="cls-8" cx="185.21" cy="287.68" rx="19.62" ry="12.35"/><circle class="cls-9" cx="68.74" cy="264.01" r="9.92"/><circle class="cls-9" cx="162.36" cy="264.52" r="9.77"/><path d="M243 507.4s9.83 17.58 27.28 17.36 29.62-17.36 29.62-17.36" transform="translate(-155.79 -233.11)" style="stroke:#cf844b;stroke-miterlimit:10;stroke-width:7px;stroke-linecap:round;fill:none"/><ellipse cx="117.12" cy="269.35" rx="8.11" ry="7.32" style="fill:#f37a71"/><path d="m315.78 234.36-109.21 62.95a76.44 76.44 0 0 0-8 5.29L157 334.09a3.15 3.15 0 0 0-1.24 2.5v4.85a3.13 3.13 0 0 0 4.71 2.7L281 273.77l99.51 80.47a7.6 7.6 0 0 0 9 .37L430 326.39a4.76 4.76 0 0 0 2-3.9v-.82a4.76 4.76 0 0 0-1.78-3.71l-103.77-82.79a9.57 9.57 0 0 0-10.67-.81Z" transform="translate(-155.79 -233.11)" style="fill:#e490ac"/></svg>