<svg id="Layer_1" data-name="Layer 1" xmlns="http://www.w3.org/2000/svg" viewBox="0 0 212.76 195.67"><defs><style>.cls-5{fill:#fff}.cls-6{fill:#d0cad2}.cls-7{fill:#a77457}.cls-8{fill:#f4a497}</style></defs><path d="M397.87 350.35s.74 100.47-.86 106.23-28.12 20.34-33.16 21.9c-1.93.59-10.3-6.1-11-15.9-1.9-28.68 11.86-86.75 11.86-86.75Z" transform="translate(-191.52 -283.8)" style="fill:#edcd78"/><path d="M367.51 373.08s.49 96.38.27 100.29-4.57 6.1-8.49 6.1S214.5 479 208.41 479s-14.15-1.74-14.37-17.41 0-92.45 0-92.45l89.91-58Z" transform="translate(-191.52 -283.8)" style="fill:#feeb98"/><path d="M364.21 378.22c0 .15-.07.3-.1.46l12.89-9.89s.63 86.06-.54 103.43a134.2 134.2 0 0 0 15-9.69c1.5-8.61.78-105.87.78-105.87Z" transform="translate(-191.52 -283.8)" style="fill:#c79e86"/><path d="M273.74 325.11s83 52.86 86.82 55.6 8.58 3 14.93-4.11 25.38-25.86 27.6-28.32 1.27-3.84-2.22-6-84-52.62-85.63-53.71a12.54 12.54 0 0 0-12.39 0c-5.72 3-77.36 48.23-81.49 51.24s-27.11 24.11-29.33 27.4 3.28 8.22 9.63 4.66 72.08-46.76 72.08-46.76Z" transform="translate(-191.52 -283.8)" style="fill:#b78a70"/><path class="cls-5" d="M258.08 322.87c1-3.88 1.21-29.19-21-37.24s-37.54 12.21-32 28.37 24.15 25.46 26.8 25.46 24.99-11.83 26.2-16.59Z" transform="translate(-191.52 -283.8)"/><path class="cls-6" d="M236.32 316.46a94.3 94.3 0 0 0-1.9-20.84c-.6-2.84-2.16-5.87-3.25-5.64s-.31 3.22-.08 4.3a69.77 69.77 0 0 1 1.11 16.81c-5.45-6.65-11.45-12.6-11.77-12.92-.79-.78-2.8-1.44-3.57-.66s1 2.72 1.75 3.5c.1.09 8 8.94 13.83 16.9a5.59 5.59 0 0 0 .7 1 34.83 34.83 0 0 0-10.72-2.25c-1.1 0-3.27.36-3.27 1.46s2.85 1.76 3.94 2c3.27.59 12.11 3.63 14.43 5.31 2.55 3.8 5.36 8.06 5.84 8.8 1.16-.64 2.32-1.32 3.47-2-1.36-2.13-10.41-15.62-10.51-15.77Z" transform="translate(-191.52 -283.8)"/><path class="cls-5" d="M324.32 328.77c-.42-3.87 3.26-30.23 23.52-38.67 23.94-10 44.45 15.71 34 34.52-8 14.46-33.25 23.54-35.67 23.24s-21.33-14.33-21.85-19.09Z" transform="translate(-191.52 -283.8)"/><path class="cls-6" d="M346.45 322.35a93.73 93.73 0 0 1 2.07-21.69c.64-3 2.35-6.12 3.53-5.88s.34 3.36.09 4.48a69.35 69.35 0 0 0-1.21 17.5c5.93-6.92 12.46-13.12 12.81-13.46.85-.8 3-1.49 3.88-.68s-1.06 2.84-1.91 3.65c-.1.09-8.73 9.31-15 17.59a6.21 6.21 0 0 1-.76 1 39.16 39.16 0 0 1 11.66-2.35c1.2 0 3.55.37 3.55 1.52s-3.1 1.83-4.28 2c-3.56.61-13.18 3.77-15.7 5.52-2.77 4-6.86 10.11-7.39 10.87-1.38-1.07-2.54-2-3.79-3 1.45-2.04 12.34-16.91 12.45-17.07Z" transform="translate(-191.52 -283.8)"/><path class="cls-7" d="M247.93 403.29c-5.49-2.51-13.62 5.24-10 13.84 2.93 6.94 12.33 7 15.26-.49 1.52-3.91.23-10.84-5.26-13.35ZM311.56 401.64c5.59-.76 11.63 7.81 6.83 15.41-3.88 6.15-13.55 4.35-14.95-3.52-.73-4.1.98-10.93 8.12-11.89ZM273.05 427.34a18.31 18.31 0 0 1-5.18-4.93 2.66 2.66 0 0 1 .72-3.65 2.57 2.57 0 0 1 3.6.66c.06.08 3.27 4.73 7.32 4.48s6.64-4.84 6.66-4.89a2.59 2.59 0 1 1 4.59 2.39c-.15.3-3.88 7.29-11 7.73a11.41 11.41 0 0 1-6.71-1.79Z" transform="translate(-191.52 -283.8)"/><path class="cls-8" d="M335.18 416c-9 0-15.91 9-14.86 17.09 1.23 9.49 8 14.27 16.08 14.27a15.23 15.23 0 0 0 15-16A16.67 16.67 0 0 0 335.18 416ZM220.78 416c-9 0-15.92 9-14.87 17.09 1.23 9.49 8 14.27 16.08 14.27a15.23 15.23 0 0 0 15-16A16.67 16.67 0 0 0 220.78 416Z" transform="translate(-191.52 -283.8)"/></svg>